<svg id="Layer_1" data-name="Layer 1" xmlns="http://www.w3.org/2000/svg" viewBox="0 0 74.19 260.22"><defs><style>.cls-1,.cls-3{fill:none;stroke:#333;stroke-miterlimit:10;}.cls-1{stroke-width:2.3px;}.cls-2{fill:#333;}.cls-3{stroke-linecap:round;stroke-width:0.95px;}.cls-4{fill:#1e1e1e;}</style></defs><title>pose</title><circle class="cls-1" cx="31.48" cy="31.48" r="30.33"/><path class="cls-2" d="M4110.14,1181.19a5.15,5.15,0,0,1,5.12,4.55H4105A5.15,5.15,0,0,1,4110.14,1181.19Z" transform="translate(-4065.3 -1161.76)"/><path class="cls-2" d="M4092.45,1181.19a5.15,5.15,0,0,1,5.12,4.55h-10.23A5.15,5.15,0,0,1,4092.45,1181.19Z" transform="translate(-4065.3 -1161.76)"/><path class="cls-2" d="M4096.53,1177.09a8.7,8.7,0,0,1-3.49,2.68c-1.09.45-2.47,0.29-3.44,0.86a0.36,0.36,0,0,0,.36.62,7.18,7.18,0,0,1,1.93-.36,9.1,9.1,0,0,0,1.86-.65,9.32,9.32,0,0,0,3.3-2.65c0.29-.36-0.22-0.87-0.51-0.51h0Z" transform="translate(-4065.3 -1161.76)"/><path class="cls-3" d="M4113.93,1176.12s-4.93-4-8.9,0" transform="translate(-4065.3 -1161.76)"/><path class="cls-3" d="M4110.14,1198s-5.12-1.54-9.73,0" transform="translate(-4065.3 -1161.76)"/><path class="cls-2" d="M4109.5,1203.68a2,2,0,0,0-2.92,1.57c-0.22,1.63,1.08,2.77,2.47,3.28,0.57,0.21.82-.71,0.25-0.91a2.57,2.57,0,0,1-1.75-1.59c-0.23-.87.46-2,1.46-1.52,0.54,0.28,1-.54.48-0.82h0Z" transform="translate(-4065.3 -1161.76)"/><path class="cls-2" d="M4104.51,1204.29c0.64,0.12,2.62.91,2.07,1.83a2.85,2.85,0,0,1-2.57.92c-0.61-.06-0.6.89,0,0.95,1.24,0.11,3.2-.44,3.61-1.8s-1.73-2.6-2.86-2.81c-0.6-.11-0.85.8-0.25,0.91h0Z" transform="translate(-4065.3 -1161.76)"/><path class="cls-2" d="M4084.49,1175.17c0.06,0,.69,3.28.75,3.6,0.13,0.6,1,.34.91-0.25l-0.65-3c-0.12-.58-0.29-1.28-1-1.25a0.47,0.47,0,0,0,0,.95h0Z" transform="translate(-4065.3 -1161.76)"/><path class="cls-2" d="M4085.1,1189.47a3.35,3.35,0,0,0,.84,4,3.64,3.64,0,0,0,2,.74,3.3,3.3,0,0,1,3.14,2.73c0.11,0.6,1,.34.91-0.25a4.13,4.13,0,0,0-2.37-3.07,23.43,23.43,0,0,0-2.38-.48,2.35,2.35,0,0,1-1.38-3.15c0.24-.55-0.57-1-0.82-0.48h0Z" transform="translate(-4065.3 -1161.76)"/><path class="cls-2" d="M4118.68,1188.66c0.74,1.2-1.37,1.73-1.9,2.08a2.54,2.54,0,0,0-.94,1c-0.51,1,.12,2.58-0.76,3.43a0.47,0.47,0,0,0,.67.67,2.54,2.54,0,0,0,.74-1.78c0-.36,0-0.72,0-1.07a2.16,2.16,0,0,1,1.5-1.82c1.17-.59,2.34-1.61,1.48-3a0.47,0.47,0,0,0-.82.48h0Z" transform="translate(-4065.3 -1161.76)"/><path class="cls-4" d="M4094.24,1222.7a151.83,151.83,0,0,1,.75,81.66c-0.52,1.92,2.18,2.53,2.89.8l1.19-2.9c0.73-1.78-2.17-2.56-2.89-.8l-1.19,2.9,2.89,0.8a155,155,0,0,0-.75-83.26,1.5,1.5,0,0,0-2.89.8h0Z" transform="translate(-4065.3 -1161.76)"/><path class="cls-4" d="M4099.9,1237.69a30.6,30.6,0,0,1,22.9-.3c1.81,0.68,2.59-2.22.8-2.89a33.08,33.08,0,0,0-24.5.3c-1.76.72-1,3.62,0.8,2.89h0Z" transform="translate(-4065.3 -1161.76)"/><path class="cls-4" d="M4120.79,1234c4.66,5.78,3.62,15.07,4,22.06q0.54,10.87,1.09,21.75c0.37,7.38.83,14.89-1,22.13-1.91,7.43-5.7,14.31-9,21.2-0.83,1.73,1.76,3.26,2.59,1.51,3.38-7.1,7.31-14.26,9.28-21.92,2.08-8.12,1.46-16.54,1-24.82l-1.32-26.48c-0.31-6.28-.4-12.46-4.51-17.56-1.21-1.5-3.32.63-2.12,2.12h0Z" transform="translate(-4065.3 -1161.76)"/><path class="cls-4" d="M4096.22,1301.77c7.79,6.38,12.08,15.31,15.75,24.48q6,14.94,11.2,30.19c7.07,20.75,12.48,42.1,13.33,64.1,0.07,1.92,3.07,1.93,3,0-0.88-22.89-6.59-45.1-14-66.67-3.65-10.55-7.51-21.09-11.81-31.4-3.58-8.61-8-16.82-15.31-22.82-1.48-1.21-3.62.9-2.12,2.12h0Z" transform="translate(-4065.3 -1161.76)"/><path class="cls-4" d="M4095.72,1299.65c-5.41,7-10.9,14-14.77,21.95s-5.26,16.56-6,25.41c-1.8,21.2-3.43,42.41-5.14,63.62-0.16,1.92,2.85,1.91,3,0l4.68-58c0.8-9.88,1.44-19.7,5.7-28.81,3.75-8,9.24-15.12,14.66-22.09,1.17-1.51-.94-3.64-2.12-2.12h0Z" transform="translate(-4065.3 -1161.76)"/><path class="cls-4" d="M4095.79,1235.3c-5.79-3.2-13.21-2.39-17.52,2.91-5.16,6.35-4.4,16.37-4.64,24-0.6,19.74.88,39.65,8.9,57.93,0.77,1.76,3.36.24,2.59-1.51-6.33-14.42-8.41-30.08-8.6-45.72-0.09-7,0-14.13.59-21.13,0.33-4.14.85-8.84,3.75-12.09,3.44-3.84,9.07-4.23,13.41-1.84,1.69,0.94,3.21-1.65,1.51-2.59h0Z" transform="translate(-4065.3 -1161.76)"/></svg>