<svg id="Layer_1" data-name="Layer 1" xmlns="http://www.w3.org/2000/svg" viewBox="0 0 66.6 62.66"><defs><style>.cls-1{fill:none;stroke:#ce2f3a;stroke-linecap:round;stroke-linejoin:round;stroke-width:3px;}</style></defs><title>puntorojo</title><path class="cls-1" d="M1288.81,1935.7c0.17,0.29,13.71-8.3,13.88-8,0.3,0.52-18.38,15.48-18.09,16s26.14-16,26.54-15.32c0.62,1.07-35.3,25.36-34.72,26.36s46.41-28,46.92-27.09c0.73,1.27-42.16,28.61-41.46,29.81s46.71-28.57,47.4-27.37-50.26,33.61-49.61,34.74c0.78,1.35,50.35-30.91,51.14-29.53,0.7,1.22-49.65,33.26-48.91,34.55s48.13-29.29,48.78-28.16-47.75,31.87-47,33.07c0.59,1,55.54-34,56.37-32.55,0.67,1.15-53.46,34.37-52.53,36,0.79,1.36,50-30.83,50.85-29.36s-45.51,30.72-44.87,31.83,41.57-25.8,42.34-24.45c0.68,1.17-39.13,27.06-38.59,28,0.66,1.14,41.88-25.7,42.54-24.56s-38.1,26.77-37.61,27.61,34.19-20.71,34.61-20-24.71,19-24.24,19.76c0.2,0.35,14.46-8.93,14.71-8.49" transform="translate(-1274.9 -1926.1)"/></svg>