<svg id="Layer_1" data-name="Layer 1" xmlns="http://www.w3.org/2000/svg" viewBox="0 0 64.99 64.32"><defs><style>.cls-1{fill:none;stroke:#404141;stroke-linecap:round;stroke-linejoin:round;stroke-width:3px;}</style></defs><title>puntogris</title><path class="cls-1" d="M1386.23,1937.46c0.14,0.23,16.1-9.66,16.26-9.39,0.34,0.6-22.91,18.43-22.49,19.16s36.35-22.19,36.87-21.28c0.66,1.15-37.2,26.11-36.72,26.94,0.67,1.16,42.92-26.15,43.51-25.12,0.78,1.34-45.37,30.16-44.69,31.33s42.47-26.07,43.14-24.91c0.56,1-45.87,30.25-45.05,31.67,0.73,1.26,47.71-29.43,48.53-28,0.7,1.2-42.81,29.32-42.07,30.6s49-30.1,49.77-28.74c0.56,1-45.32,30.6-44.62,31.82,0.88,1.52,49.59-30.39,50.35-29.07s-52.4,34.41-51.52,35.93c0.59,1,48-29.28,48.7-28.12s-44.81,29.67-44,31,45.4-27.6,46-26.56c0.78,1.35-43.25,28.88-42.61,30s40.62-24.89,41.25-23.81c0.48,0.84-35.45,25.42-34.95,26.29s32.48-19.7,32.89-19c0.28,0.49-19,16.3-18.71,16.78s18.66-11.47,19-10.95" transform="translate(-1375.55 -1924.42)"/></svg>