<svg id="Layer_1" data-name="Layer 1" xmlns="http://www.w3.org/2000/svg" xmlns:xlink="http://www.w3.org/1999/xlink" viewBox="0 0 534.14 253.75"><defs><style>.cls-1,.cls-3,.cls-5,.cls-6,.cls-7{fill:none;}.cls-2{fill:#333;}.cls-3,.cls-5,.cls-6,.cls-7{stroke:#333;}.cls-3,.cls-6,.cls-7{stroke-linecap:round;}.cls-3{stroke-linejoin:round;stroke-width:1.25px;}.cls-4{clip-path:url(#clip-path);}.cls-5,.cls-6,.cls-7{stroke-miterlimit:10;}.cls-5{stroke-width:2.18px;}.cls-6{stroke-width:1.14px;}.cls-7{stroke-width:2px;}.cls-8{fill:#1d1d1d;}</style><clipPath id="clip-path" transform="translate(-163.57 -1739.78)"><rect class="cls-1" x="322.08" y="1729.79" width="219.6" height="166.67"/></clipPath></defs><title>uniformes</title><path class="cls-2" d="M225.8,1993.5a1557,1557,0,0,1,327.55-14.91q45.93,2.77,91.64,8.25c2.2,0.26,2.18-3.19,0-3.45A1560.18,1560.18,0,0,0,315.7,1979q-45.56,4.24-90.82,11.15c-2.19.33-1.26,3.65,0.92,3.32h0Z" transform="translate(-163.57 -1739.78)"/><polyline class="cls-3" points="121.53 161.51 122.25 161.1 121.84 164.54 129.03 160.39 122.02 166.37 131.83 160.71 122.26 168.72 132.07 163.06 122.52 171.22 132.32 165.56 122.78 173.73 132.58 168.07 123.02 176.12 132.82 170.46 123.31 179 133.11 173.34 123.58 181.56 133.37 175.9 123.76 183.38 133.56 177.72 123.97 185.38 133.76 179.72 124.17 187.36 133.96 181.71 124.43 189.94 134.23 184.29 124.7 192.53 134.49 186.87 124.88 194.34 134.67 188.69 125.07 196.17 134.86 190.51 125.36 198.99 135.15 193.34 125.62 201.6 135.41 195.95 125.85 203.82 135.64 198.17 126.07 205.98 135.86 200.33 126.29 208.15 136.08 202.5 126.57 210.85 136.35 205.2 126.87 213.82 136.65 208.17 126.98 217.04 136.97 211.27 125.89 220.14 137.17 213.63"/><polyline class="cls-3" points="99.35 163.77 100.08 163.35 99.63 166.51 106.21 162.71 99.95 169.6 110.3 163.63 100.16 171.68 110.51 165.71 100.45 174.6 110.8 168.62 100.64 176.42 110.99 170.44 100.86 178.59 111.21 172.61 101.12 181.15 111.47 175.18 101.35 183.42 111.7 177.45 101.61 185.94 111.95 179.97 101.82 188 112.17 182.03 102.02 190.05 112.37 184.08 102.23 192.09 112.58 186.12 102.54 195.11 112.89 189.13 102.72 196.93 113.07 190.96 102.98 199.5 113.33 193.52 103.21 201.73 113.56 195.75 103.43 203.88 113.78 197.91 103.69 206.42 114.04 200.45 103.91 208.59 114.26 202.61 104.16 211.1 114.51 205.12 104.38 213.25 114.73 207.28 104.7 216.35 115.05 210.38 105.05 218.4 115.26 212.51 105.38 220.24 115.46 214.42 105.91 221.84 115.67 216.21 106.58 223.73 116.09 218.24 107.53 225.44 116.94 220.01 109.16 227.62 119.29 221.77 111.14 229.41 137.2 214.36 113.36 230.71 137.25 216.92 117.06 231.8 136.82 220.39 121.12 232.03 135.8 223.56 125.99 231.43 133.67 227"/><polyline class="cls-3" points="165.37 157.77 166.07 157.37 165.53 159.75 170.24 157.03 165.68 161.71 174.34 156.71 165.89 164.36 175.23 158.97 166.05 166.47 175.39 161.07 166.2 168.34 175.54 162.95 166.4 170.98 175.74 165.59 166.55 172.84 175.89 167.45 166.77 175.73 176.11 170.34 166.97 178.24 176.31 172.85 167.12 180.2 176.46 174.81 167.27 182.16 176.61 176.77 167.52 185.32 176.85 179.93 167.69 187.5 177.02 182.11 167.83 189.33 177.16 183.94 168.02 191.81 177.36 186.42 168.18 193.89 177.52 188.5 168.43 197 177.76 191.61"/><polyline class="cls-3" points="151.85 178 159.51 173.58 152.79 180.66 160.46 176.24 153.37 182.27 161.03 177.85 154.1 184.34 161.76 179.92 154.88 186.53 162.53 182.11 155.66 188.74 163.32 184.32 156.4 190.84 164.06 186.42 157.3 193.37 164.96 188.95 158.1 195.62 165.75 191.2 158.67 197.22 166.32 192.8 159.29 198.97 166.94 194.56 159.91 200.72 167.56 196.31 160.72 202.99 168.37 198.57 161.52 205.26 178.08 195.7 162.09 206.86 178.22 197.54 162.66 208.46 178.36 199.39 163.53 210.94 178.59 202.25 164.35 213.24 178.79 204.9 165.04 215.19 178.97 207.15 165.72 217.09 179.13 209.34 166.39 218.99 179.31 211.54 167.23 221.36 179.52 214.27 168.16 223.98 179.75 217.29 169.13 226.7 180 220.43 174.01 226.66 180.2 223.08 179.72 226.21 180.41 225.81"/><polyline class="cls-3" points="140.47 159.69 141.16 159.29 140.68 162.47 146.98 158.83 140.93 165.6 153.55 158.31 141.09 167.71 154.66 159.88 141.32 170.67 155.57 162.44 141.46 172.51 156.13 164.04 141.63 174.71 156.81 165.94 141.83 177.31 157.61 168.2 142.01 179.61 158.31 170.19 142.2 182.16 159.1 172.41 142.36 184.25 151.78 178.82 142.52 186.33 151.94 180.89 142.68 188.4 152.1 182.96 142.92 191.45 152.34 186.02 143.06 193.31 152.48 187.87 143.26 195.9 152.68 190.47 143.44 198.16 152.86 192.72 143.6 200.35 153.03 194.91 143.8 202.92 153.23 197.48 143.97 205.12 153.4 199.68 144.17 207.66 153.6 202.22 144.34 209.85 153.77 204.4 144.58 212.99 154.01 207.55 144.75 215.15 154.18 209.7 144.9 217.09 154.33 211.64 145.04 218.91 154.47 213.47 145.2 221.09 154.64 215.64 145.37 223.25 154.81 217.81 145.6 226.24 155.04 220.79 146.21 228.82 155.26 223.59 151.41 228.4 155.45 226.07"/><polyline class="cls-3" points="183.94 156.53 184.62 156.14 184.1 159.33 190.24 155.79 184.29 162.5 194.85 156.4 184.42 164.63 194.98 158.53 184.59 167.61 195.15 161.52 184.7 169.48 195.26 163.38 184.83 171.7 195.4 165.6 184.99 174.32 195.55 168.22 185.13 176.65 195.69 170.55 185.28 179.23 195.84 173.13 185.4 181.34 195.97 175.24 185.53 183.43 196.09 177.33 185.65 185.52 196.22 179.42 185.83 188.61 196.4 182.51 185.94 190.48 196.51 184.38 186.1 193.1 196.67 187 186.23 195.39 196.81 189.28 186.36 197.59 196.94 191.49 186.52 200.2 197.09 194.09 186.65 202.41 197.22 196.31 186.8 204.98 197.38 198.88 186.93 207.19 197.51 201.08 187.12 210.36 197.7 204.26 187.25 212.54 197.83 206.43 187.36 214.5 197.94 208.39 187.47 216.35 198.05 210.24 187.6 218.54 198.18 212.43 187.73 220.73 198.31 214.62 187.91 223.75 198.49 217.64 189.66 225.67 198.66 220.47 194.67 225.36 198.81 222.97"/><polyline class="cls-3" points="216.98 195.4 230.15 187.8 220.88 195.22 230.24 189.82 224.72 195.05 230.33 191.8 229.79 194.81 230.45 194.43"/><polyline class="cls-3" points="215.64 164.44 232.59 154.65 221.66 164.17 232.74 157.77 225.3 164 232.82 159.66 229.97 163.79 232.94 162.08"/><polyline class="cls-3" points="203.66 155.37 204.31 154.99 203.78 158.2 209.75 154.75 203.92 161.39 215.91 154.47 204.01 163.54 220.04 154.29 204.14 166.55 225.83 154.03 204.22 168.43 229.44 153.87 204.32 170.67 214.96 164.53 204.43 173.32 215.08 167.18 204.54 175.66 215.19 169.52 204.65 178.27 215.3 172.12 204.74 180.4 215.4 174.24 204.83 182.51 215.49 176.36 204.92 184.62 215.59 178.46 205.06 187.73 215.73 181.57 205.14 189.62 215.81 183.46 205.26 192.27 217.07 185.45 205.36 194.57 221.51 185.25 205.45 196.8 225.8 185.05 205.57 199.42 230.03 185.3 205.66 201.66 216.31 195.51 205.78 204.25 216.42 198.1 205.87 206.48 216.52 200.33 206.01 209.68 216.66 203.53 206.11 211.88 216.76 205.72 206.19 213.85 216.85 207.7 206.27 215.72 216.93 209.56 206.37 217.93 217.03 211.78 206.47 220.14 217.13 213.98 206.6 223.18 217.26 217.03 209.3 224.55 217.39 219.88 214.17 224.32 217.5 222.4"/><polyline class="cls-3" points="253.63 162.45 265.62 155.53 258.17 163.03 267.73 157.51 259.46 164.23 268.77 158.85 260.39 166.18 269.78 160.76 260.78 168.6 270.63 162.91 260.88 171.21 271.23 165.23 260.93 173.7 271.5 167.6 261 176.71 271.7 170.53 261.05 179.39 271.76 173.21 261.1 181.29 271.8 175.11 261.14 183.38 271.85 177.2 261.19 185.46 271.89 179.28 261.25 188.16 271.95 181.98 261.3 190.86 272.01 184.68 261.35 192.76 272.05 186.58 261.39 194.67 272.09 188.49 261.45 197.62 272.16 191.44 261.51 200.35 272.22 194.17 261.56 202.67 272.27 196.49 261.61 204.94 272.32 198.75 261.62 207.22 272.37 201.02 261.15 210.35 272.43 203.84"/><polyline class="cls-3" points="243.62 156.32 248.42 153.55 240.13 161.24 255.29 152.48 238.96 165.19 260.03 153.02 238.66 167.56 262.54 153.78 238.54 170.72 265.33 155.25 238.58 172.62 249.74 166.18 238.63 174.89 249.39 168.67 238.69 177.57 249.4 171.39 238.74 179.94 249.45 173.76 238.8 182.57 249.51 176.39 238.85 184.73 249.56 178.55 238.89 186.87 249.6 180.69 238.94 189.01 249.65 182.82 239.01 192.16 249.72 185.98 239.05 194.07 249.76 187.88 239.11 196.75 249.82 190.57 239.16 199.08 249.87 192.9 239.21 201.33 249.92 195.15 239.27 203.99 249.97 197.81 239.31 206.25 250.02 200.07 239.53 208.79 250.08 202.7 239.79 210.92 250.13 204.95 240.53 213.78 250.29 208.14 241.33 215.56 250.69 210.16 242.14 217.13 251.46 211.74 243.16 218.44 252.68 212.95 244.56 219.91 255.23 213.75 246.2 221.22 272.46 206.06 249.15 222.64 272.31 209.27 252.81 223.46 271.7 212.55 257.09 223.57 270.47 215.85 262.58 222.55 267.39 219.78"/><polyline class="cls-3" points="291.16 194.1 310.76 182.78 294.76 194.09 308.16 186.36 297.47 194.57 306.6 189.3 299.77 196.01 308.64 190.89 300.75 197.65 309.88 192.38 301.22 199.34 310.74 193.84 301.52 201.92 311.56 196.12 301.58 203.83 311.94 197.84 301.58 206.85 312.31 200.65 301.57 209.48 312.42 203.22 301.57 211.53 312.42 205.26 301.57 213.57 312.42 207.31 301.62 216.85 312.41 210.62 301.76 219.04 312.41 212.9 302.04 220.79 312.42 214.8 303.56 222.5 312.49 217.35 307.34 222.5 312.73 219.38 312.99 222.48 313.54 222.17"/><polyline class="cls-3" points="291.31 162.69 305.37 154.57 296.74 162.76 307.94 156.3 299 163.4 309.16 157.53 300.52 165.01 310.35 159.33 301.29 167.21 311.27 161.44 301.52 169.73 311.88 163.75 301.53 172.25 312.23 166.08 301.53 175.31 312.38 169.04 301.42 178.08 312.37 171.75 301.02 180.24 312.37 173.69"/><polyline class="cls-3" points="279.74 153.16 280.36 152.8 279.74 156.06 285.37 152.81 279.73 159.34 291.03 152.82 279.73 161.55 294.84 152.83 279.72 164.64 299.81 153.04 279.72 166.56 302.31 153.52 279.72 168.87 304.82 154.37 279.71 171.58 290.57 165.32 279.71 173.99 290.57 167.72 279.7 176.66 290.57 170.38 279.7 178.84 290.58 172.56 279.7 181.01 290.58 174.73 279.69 183.18 290.58 176.89 279.69 186.37 290.59 180.08 279.69 188.3 290.59 182.01 279.68 191.02 291.48 184.21 279.68 193.38 295.68 184.15 279.67 195.67 312.22 176.88 279.67 198.36 311.75 179.84 279.67 200.66 290.52 194.39 279.66 203.31 290.52 197.05 279.66 205.6 290.52 199.33 279.65 208.89 290.52 202.61 279.65 211.14 290.52 204.86 279.65 213.17 290.52 206.89 279.64 215.08 290.53 208.8 279.64 217.35 290.53 211.06 279.64 219.62 290.53 213.33 280.07 222.49 290.53 216.45 285.17 222.47 290.53 219.37 289.69 222.45 290.53 221.96"/><polyline class="cls-3" points="356.18 173.93 366.67 167.87 356.11 176.34 366.6 170.29 356.05 178.52 366.54 172.47 355.96 181.63 366.45 175.57 355.86 184.88 366.36 178.82 355.78 187.63 366.28 181.57 355.69 190.66 366.19 184.6 355.63 192.97 366.12 186.91 355.57 194.9 366.07 188.84 355.51 196.82 366.01 190.76 355.46 198.83 365.96 192.77 355.4 200.85 365.9 194.78 355.33 203.33 365.83 197.26 355.23 206.64 365.73 200.58 355.17 208.57 365.68 202.51 355.08 211.88 365.58 205.81 354.99 214.72 365.5 208.66 354.93 217.06 365.43 210.99 354.83 220.22 365.34 214.15 354.77 222.55 365.28 216.48 358.02 223.68 365.19 219.55 362.27 223.79 365.11 222.15"/><polyline class="cls-3" points="351.78 154.17 352.45 153.78 351.37 156.48 355.88 153.88 350.95 158.76 359.25 153.97 350.4 161.85 363.84 154.09 349.95 164.31 367.06 154.44 349.56 166.5 367 156.43 349 169.57 366.92 159.23 348.61 171.74 366.86 161.21 348.01 175.11 366.77 164.28 347.48 178.04 366.7 166.95 347.06 180.33 355.83 175.27 346.65 182.61 355.42 177.55 345.99 186.3 354.75 181.24 345.53 188.84 354.29 183.79 345.15 190.98 353.9 185.92 344.62 193.87 353.38 188.81 344.19 196.29 352.94 191.24 343.53 199.92 352.29 194.87 343.13 202.16 351.88 197.11"/><polyline class="cls-3" points="330.12 173.84 338.39 169.06 330.52 176.81 338.79 172.04 330.77 178.61 339.03 173.84 331.08 180.91 339.33 176.15 331.41 183.37 339.66 178.6 331.75 185.84 339.99 181.08 332.07 188.18 340.3 183.42 332.45 191 340.68 186.25 332.79 193.52 341.01 188.77 333.04 195.3 341.25 190.56 333.3 197.27 341.52 192.52 333.57 199.22 341.78 194.48 333.91 201.75 342.11 197.02 334.26 204.29 342.45 199.56 334.5 206.07 342.69 201.34 334.74 207.86 351.71 198.07 335.12 210.63 351.1 201.4 335.47 213.2 350.55 204.49 335.76 215.38 350.07 207.12 336.05 217.5 349.61 209.67 336.34 219.63 349.14 212.24 336.7 222.28 348.57 215.43 340.61 223.17 347.93 218.94 346.04 223.32 347.27 222.6"/><polyline class="cls-3" points="321.1 153.24 321.7 152.89 321.01 156.19 326.5 153.02 320.92 159.52 331.92 153.17 320.85 161.76 335.56 153.27 320.76 164.9 336.62 155.75 320.7 166.86 336.85 157.53 320.63 169.19 337.14 159.67 320.55 171.96 337.47 162.19 320.48 174.4 337.77 164.42 320.4 177.11 338.1 166.9 320.34 179.33 330.01 173.75 320.27 181.54 329.95 175.95 320.21 183.74 329.88 178.15 320.12 186.98 329.79 181.4 320.06 188.95 329.74 183.36 319.98 191.71 329.66 186.12 319.91 194.11 329.59 188.52 319.84 196.43 329.52 190.84 319.76 199.17 329.45 193.58 319.69 201.5 329.38 195.91 319.62 204.2 329.3 198.61 319.55 206.52 329.24 200.93 319.45 209.86 329.14 204.27 319.38 212.15 329.08 206.56 319.32 214.21 329.02 208.62 319.27 216.16 328.96 210.56 319.2 218.47 328.9 212.87 319.13 220.77 328.83 215.17 321.33 222.62 328.74 218.34 326.19 222.74 328.65 221.32"/><polyline class="cls-3" points="385.74 194.62 400.71 185.97 389.02 194.8 400.6 188.11 392.25 194.97 400.49 190.22 396.65 195.21 400.34 193.08 399.65 195.37 400.24 195.03"/><polyline class="cls-3" points="387.37 165.28 403.13 156.18 392.44 165.55 406.19 157.61 395.52 165.72 406.08 159.62 399.46 165.93 405.95 162.18 403.64 166.16 405.81 164.91"/><polyline class="cls-3" points="376.45 155.09 377.04 154.75 376.28 158.09 381.62 155 376.09 161.47 386.81 155.28 375.96 163.75 390.3 155.48 375.79 166.94 395.18 155.74 375.68 168.93 398.22 155.91 375.54 171.3 401.86 156.11 375.39 174.11 386.67 167.59 375.25 176.59 386.54 170.07 375.1 179.34 386.39 172.82 374.97 181.6 386.27 175.08 374.85 183.84 386.15 177.32 374.72 186.07 386.02 179.55 374.54 189.37 385.85 182.84 374.43 191.37 385.99 184.69 374.27 194.17 390.3 184.92 374.13 196.61 394.04 185.12 374 198.97 397.65 185.31 373.85 201.75 385.13 195.24 373.72 204.12 385 197.6 373.56 206.86 384.85 200.34 373.43 209.22 384.73 202.7 373.25 212.61 384.54 206.09 373.12 214.94 384.42 208.41 373 217.03 384.3 210.51 372.89 219.01 384.19 212.48 372.76 221.35 384.07 214.82 372.63 223.69 387.34 215.2 376.55 224.55 392.28 215.46 381.18 224.8 396.92 215.72 385.27 225.02 401.01 215.94 390.38 225.3 402.82 218.12 394.46 225.53 402.68 220.78 397.95 225.72 402.56 223.05 401.84 225.93 402.43 225.59"/><polyline class="cls-3" points="408.72 205.74 409.3 205.41 408.57 207.9 412.48 205.65 408.44 210.02 415.61 205.88 408.41 212.81 419.01 206.69 408.59 214.9 418.83 208.99 408.85 216.72 418.67 211.05 409.57 219.05 418.76 213.75 410.22 220.62 419.22 215.43 411.59 222.85 420.91 217.47 413.25 224.52 423.97 218.33 414.83 225.66 440.99 210.55 416.59 226.68 440.9 212.65 420.3 227.85 440.34 216.28 423.41 228.33 439.49 219.04 426.73 228.32 438.18 221.71"/><polyline class="cls-3" points="426.73 167.24 438.37 160.53 431.1 167.93 440.42 162.55 432.45 169.09 441.34 163.96 433.25 171.11 442.36 165.86 433.46 173.63 443.1 168.07 433.31 176.38 443.51 170.49 435.68 177.54 443.71 172.9 440.36 177.89 443.68 175.97"/><polyline class="cls-3" points="416.82 160.74 421.36 158.12 413.43 165.6 427.85 157.27 412.1 169.64 432.55 157.83 411.76 172.04 434.95 158.65 411.53 175.25 437.73 160.13 411.54 177.18 423.14 170.48 411.82 179.31 422.55 173.12 412.37 181.71 422.54 175.84 413.02 183.74 422.93 178.02 413.95 185.87 423.7 180.24 414.9 187.5 424.54 181.94 415.93 189.08 425.57 183.51 417.02 190.61 426.7 185.02 418.8 192.77 428.52 187.16 419.95 194.04 429.67 188.43 421.58 195.81 431.31 190.19 423.01 197.35 432.73 191.74 424.36 198.85 434.06 193.25 425.88 200.67 435.56 195.08 427.07 202.27 436.72 196.7 428.29 204.22 437.93 198.65 429.13 206.02 438.86 200.41 429.91 208.85 439.92 203.07 430.02 211.04 440.47 205.01 429.86 213.16 440.77 206.86 429.22 215.44 441 208.63"/><g class="cls-4"><path class="cls-2" d="M445.1,1797.58c10-.14,20,2.79,29.73,4.56,5.69,1,12.24,2.69,14.15,8.85,1.14,3.68,1.48,7.56,2.9,11.17,2.93,7.41,9.22,12.61,15,17.79,6.85,6.15,12.56,13.14,18.41,20.22,2.59,3.13,6,5.46,8,9a22.48,22.48,0,0,1,2.6,11.48,40,40,0,0,1-6.33,20.23c-2.67,4.16-6.27,7.28-9.73,10.74-2.92,2.92-4.55,6.2-6.7,9.68-5,8.12-13.34,13-20.28,19.24-0.55.49,0.26,1.3,0.81,0.81,5.74-5.16,12.47-9.34,17.48-15.27,2.23-2.63,3.62-5.68,5.45-8.57,2.4-3.79,5.73-6.56,8.87-9.69,7.73-7.69,12.68-20,11.4-31a20.73,20.73,0,0,0-6.1-12.76c-5.23-5-9.36-10.77-14.1-16.21-5.4-6.2-12.17-11-17.73-17a29.67,29.67,0,0,1-6.79-11.52c-1-3.38-1.23-7.14-2.62-10.4-2.62-6.13-11.11-7.62-17-8.44-9.2-1.29-18.08-4.23-27.48-4.1a0.57,0.57,0,0,0,0,1.14h0Z" transform="translate(-163.57 -1739.78)"/><path class="cls-2" d="M471.33,1923.69a108.9,108.9,0,0,0,24.53,18.08,0.57,0.57,0,0,0,.58-1,107.92,107.92,0,0,1-24.3-17.9,0.57,0.57,0,0,0-.81.81h0Z" transform="translate(-163.57 -1739.78)"/><path class="cls-2" d="M472,1923.16c7.86-7.45,12.17-18.58,21.62-24.3,3-1.82,7.44-2.8,9.1-6.25,1.32-2.73.62-5.74,2.79-8.27,2-2.31,5-3.73,7.66-5,0.66-.32.08-1.3-0.58-1-3.52,1.68-7.64,3.74-9.43,7.44-1.46,3-1.1,6.36-4,8.89-2,1.77-5.09,2.46-7.33,4-8.83,5.92-13.07,16.53-20.67,23.73a0.57,0.57,0,0,0,.81.81h0Z" transform="translate(-163.57 -1739.78)"/><path class="cls-2" d="M470.68,1854.25s5.21,4.86,5.83,5.33q1.48,1.14,3,2.26,4.67,3.5,9.51,6.76c6.7,4.53,13.63,8.69,20.74,12.54a0.57,0.57,0,0,0,.58-1,249.43,249.43,0,0,1-23-14.06q-5.85-4-11.45-8.43c-1.41-1.11-3.54-4-5.55-3.78a0.58,0.58,0,0,0-.57.57l0,0.39a0.58,0.58,0,0,0,.57.57l0.28,0c0.72-.08.73-1.22,0-1.14h0Z" transform="translate(-163.57 -1739.78)"/><path class="cls-2" d="M484.64,1864.87c-4,6.89-7.92,13.87-8.61,22-0.76,8.95,1.92,17.7,5.16,25.93,0.27,0.67,1.37.38,1.1-.3-3-7.59-5.52-15.57-5.22-23.82,0.31-8.61,4.31-15.94,8.56-23.2a0.57,0.57,0,0,0-1-.58h0Z" transform="translate(-163.57 -1739.78)"/><path class="cls-2" d="M426.12,1820.83q6.56,1.18,13.1,2.42c1.84,0.35,11,1,11.59,3.28,0.15,0.56-1.55,3.82-1.77,4.38q-0.91,2.27-1.81,4.54c-1.34,3.41-2.64,6.84-3.88,10.29-4.63,12.94-8.75,26.62-8.89,40.48,0,3.86-.3,6.2,3.14,8.26,1.57,0.94,4.21,1.45,5.51,2.79,2.7,2.81-.59,8.39-1.43,11.29a102,102,0,0,0-2.47,11.7c-0.41,2.46-1.14,5.26-.63,7.78,1.16,5.72,8.28,10.5,12.29,14.11,0.54,0.49,1.35-.31.81-0.81a112.22,112.22,0,0,1-9-8.64c-4-4.51-2.81-9.51-1.85-14.87a83.87,83.87,0,0,1,2.79-11.46c0.68-2.06,2.48-5.18,2.09-7.44-0.47-2.8-4.09-3.64-6.2-4.77-3.42-1.83-3.89-4.23-3.85-7.94a80,80,0,0,1,1.11-12c2.33-14.33,7.46-28.08,12.82-41.51,1.12-2.82,4.19-6.39,1.18-8.35-1.28-.84-4.15-0.83-5.6-1.11l-5.6-1.09q-6.54-1.25-13.1-2.42c-0.72-.13-1,1-0.3,1.1h0Z" transform="translate(-163.57 -1739.78)"/><path class="cls-2" d="M425.59,1821c-1.9,11.23-4.19,22-4.4,33.49a141.09,141.09,0,0,0,3.56,34.13c2.58,11.21,7.57,21.65,10.06,32.85,1,4.46,2,9.06,4.8,12.78,3.27,4.31,8.18,5.25,12,8.69,0.55,0.49,1.35-.32.81-0.81-3.4-3-7.89-4-11.05-7.5-3.95-4.37-4.69-10.36-6-15.85-2.5-10.36-7.13-20-9.53-30.47a139.75,139.75,0,0,1-3.53-32.93c0.14-11.64,2.43-22.69,4.37-34.09,0.12-.72-1-1-1.1-0.3h0Z" transform="translate(-163.57 -1739.78)"/><path class="cls-2" d="M357.6,1853.1c-0.08-5.79-.1-11.61,1.59-17.2s4.4-11.1,6.68-16.55c2.62-6.24,4.4-14.63,12.1-15.74,4.36-.63,8.4.18,12.69-1.27,0.69-.23.39-1.34-0.3-1.1-5.09,1.72-10.43.07-15.41,1.87-5.17,1.87-6,6-8,10.71-2.78,6.63-5.92,13.22-8.29,20-2.19,6.28-2.31,12.69-2.22,19.28a0.57,0.57,0,0,0,1.14,0h0Z" transform="translate(-163.57 -1739.78)"/><path class="cls-2" d="M383.91,1806.32a76.84,76.84,0,0,0,20.22,15.94c2.72,1.49,2.31,1.91.22,4.09l-5,5.23c-3.64,3.79-7.4,7.5-10.66,11.62-5.14,6.48-8.52,14.06-11.43,21.74-1.86,4.92-3.13,10.49-6.29,14.74-2.86,3.85-6.95,6.48-10.8,9.24l0.89,0.69,0.36-1.11a0.61,0.61,0,0,0-1.17-.32l-0.36,1.11a0.61,0.61,0,0,0,.89.69c4.17-3,8.66-5.87,11.62-10.16,3.59-5.19,4.95-12,7.29-17.79a71.62,71.62,0,0,1,12.27-20.84c5.21-6,10.93-11.54,16.42-17.25a0.61,0.61,0,0,0-.12-1,76.13,76.13,0,0,1-23.45-17.52c-0.52-.58-1.38.28-0.86,0.86h0Z" transform="translate(-163.57 -1739.78)"/><path class="cls-2" d="M383.85,1805.6c-9.82,19.11-23.74,36-32.13,55.89-3.38,8-5.21,16.44-1.53,24.64,1.17,2.6,2.21,3.77,5.19,3.84a14.87,14.87,0,0,0,5.42-.9c0.75-.27,4.61-3.14,4.82-3.1a0.57,0.57,0,0,0-.3,1.1l0.25,0.06a0.59,0.59,0,0,0,.64-0.26,0.92,0.92,0,0,0,.11-1.07,0.59,0.59,0,0,0-.55-0.42c-2.28,0-4.41,2.46-6.74,3-7.75,2-9.8-5.79-9.86-11.76-0.08-9.4,5.11-18.69,9.51-26.68,8.21-14.91,18.36-28.65,26.15-43.8,0.33-.65-0.65-1.23-1-0.58h0Z" transform="translate(-163.57 -1739.78)"/><path class="cls-2" d="M375.3,1870.86C380,1882,379.54,1894.14,379,1906s-2.37,23.33-2.93,35a0.61,0.61,0,0,0,.45.59l0.4,0.09a0.62,0.62,0,0,0,.75-0.42l0.1-.28c0.26-.74-0.91-1.06-1.17-0.32a11.07,11.07,0,0,0,.93-3.54q0.17-2.44.4-4.87c0.29-3.25.64-6.49,1-9.73,0.68-6.72,1.24-13.42,1.47-20.17,0.38-11,.33-21.85-4-32.11-0.3-.72-1.35-0.1-1,0.61h0Z" transform="translate(-163.57 -1739.78)"/><path class="cls-2" d="M395.66,1836.84c1.73,14.05-1,29.35-3.16,43.24-2.05,13.43-5,26.62-8.24,39.81a0.61,0.61,0,0,0,1.17.32c3.35-13.81,6.45-27.63,8.53-41.7,2-13.46,4.59-28.08,2.92-41.67-0.09-.77-1.31-0.78-1.22,0h0Z" transform="translate(-163.57 -1739.78)"/><path class="cls-2" d="M379.42,1896.76c3.64,7.35,3.67,15.46,4.15,23.47,0,0.78,1.26.78,1.22,0-0.5-8.26-.58-16.52-4.32-24.08-0.35-.7-1.4-0.09-1,0.61h0Z" transform="translate(-163.57 -1739.78)"/><path class="cls-2" d="M386.27,1915c-1-1-2.49,10-2.53,10.65-0.35,5.72-.81,11.38-1.62,17.06-0.11.75,1,1.1,1.17,0.32l0.27-1.07a0.61,0.61,0,0,0-1.17-.32l-0.27,1.07,1.17,0.32c0.83-5.78,1.33-11.56,1.67-17.38,0.17-3,.88-5.9,1.33-8.86,0.15-1,.55-1.11.15-1.93a0.62,0.62,0,0,0-1-.12l-0.18.15a0.61,0.61,0,0,0,0,.86l0.11,0.11a0.61,0.61,0,0,0,.86-0.86h0Z" transform="translate(-163.57 -1739.78)"/><path class="cls-2" d="M432.94,1794.42a219,219,0,0,1-15.18,25s-2.12.75-.75,4.34l-4.65,3.73v3.83l-8.06,15.58L397.88,1864s6.7-14.08,7.93-15.31,19.09-21.11,19.09-21.11l2-8.82s20.69,0.72,22.41,2.44c0,0,6.63,6.86-4.17-24.16C445.1,1797,435.68,1798.11,432.94,1794.42Z" transform="translate(-163.57 -1739.78)"/><path class="cls-2" d="M400.38,1831.37s-1.51,10.09,3.92,15.53L398.38,1864l-3-2a89.26,89.26,0,0,0,1.21-26.73Z" transform="translate(-163.57 -1739.78)"/><path class="cls-5" d="M388.65,1794.35a31.67,31.67,0,1,1,54.63-21.81c0,15.41-10.07,28.25-24.65,31.09" transform="translate(-163.57 -1739.78)"/><path class="cls-2" d="M395.33,1759.82a6.2,6.2,0,0,0-6.16,5.48h12.31A6.2,6.2,0,0,0,395.33,1759.82Z" transform="translate(-163.57 -1739.78)"/><path class="cls-2" d="M416.64,1759.82a6.2,6.2,0,0,0-6.16,5.48h12.31A6.2,6.2,0,0,0,416.64,1759.82Z" transform="translate(-163.57 -1739.78)"/><path class="cls-2" d="M411.1,1755.51a11.21,11.21,0,0,0,4,3.19,11,11,0,0,0,2,.72,10.94,10.94,0,0,1,2.56.49,0.44,0.44,0,0,0,.44-0.75c-1.18-.7-2.83-0.5-4.15-1a10.5,10.5,0,0,1-4.2-3.23c-0.35-.44-1,0.18-0.62.62h0Z" transform="translate(-163.57 -1739.78)"/><path class="cls-6" d="M390.77,1753.72s5.93-4.78,10.72,0" transform="translate(-163.57 -1739.78)"/><path class="cls-6" d="M395.33,1780.11s6.16-1.85,11.71,0" transform="translate(-163.57 -1739.78)"/><path class="cls-2" d="M396.68,1787.89c1.21-.62,2,0.79,1.76,1.84a3.1,3.1,0,0,1-2.1,1.92c-0.68.25-.39,1.35,0.3,1.1,1.69-.61,3.24-2,3-3.95a2.43,2.43,0,0,0-3.51-1.89c-0.65.33-.08,1.32,0.58,1h0Z" transform="translate(-163.57 -1739.78)"/><path class="cls-2" d="M401.81,1786.54c-1.36.26-4,1.62-3.45,3.39s2.86,2.3,4.35,2.16c0.72-.07.73-1.21,0-1.14-1,.09-2.52-0.16-3.09-1.11-0.67-1.11,1.72-2.06,2.49-2.2s0.42-1.23-.3-1.1h0Z" transform="translate(-163.57 -1739.78)"/><path class="cls-2" d="M426.22,1751.44c-0.87,0-1.07.8-1.22,1.5l-0.78,3.67c-0.15.72,0.95,1,1.1,0.3,0.08-.36.83-4.33,0.91-4.33a0.57,0.57,0,0,0,0-1.14h0Z" transform="translate(-163.57 -1739.78)"/><path class="cls-2" d="M424.49,1770.37a2.81,2.81,0,0,1-1.35,3.66c-1,.46-2.15.26-3.16,0.71a5,5,0,0,0-2.85,3.69c-0.14.72,1,1,1.1,0.3a4,4,0,0,1,3.78-3.29,4.38,4.38,0,0,0,2.45-.89,4,4,0,0,0,1-4.76c-0.29-.67-1.28-0.09-1,0.58h0Z" transform="translate(-163.57 -1739.78)"/><path class="cls-2" d="M384.07,1768.25c-1,1.68.37,2.9,1.78,3.61a2.6,2.6,0,0,1,1.81,2.19c0,0.43,0,.86,0,1.29a3.06,3.06,0,0,0,.89,2.14,0.57,0.57,0,0,0,.81-0.81c-1.06-1-.32-2.87-0.92-4.13-0.5-1.07-4.25-2.38-3.42-3.72a0.57,0.57,0,0,0-1-.58h0Z" transform="translate(-163.57 -1739.78)"/><path class="cls-7" d="M388.42,1811.88c3.06-3.22,3.1-8.45,1.26-12.49-0.65-1.42-1.51-2.83-1.5-4.39s1.43-3.24,2.92-2.78c1.34,0.41,1.73,2.05,2.44,3.25,1.54,2.58,4.93,3.27,7.94,3.41a17.45,17.45,0,0,0,8.32-1.23,40,40,0,0,0,5.35-3.64,9,9,0,0,1,6-2c2.14,0.26,4.18,2.22,3.83,4.35a5.56,5.56,0,0,1-1.15,2.33,22.42,22.42,0,0,1-4.29,4.4c-2.29,1.78-15.26,3.37-18.76,16.48" transform="translate(-163.57 -1739.78)"/></g><path class="cls-2" d="M675.44,1844.84c-2.58,5.19-9.69,8.73-14.31,12.08L645.85,1868l-29.76,21.6c-1.55,1.12-.05,3.73,1.51,2.59l33-23.93,16.09-11.67c4.06-2.94,9.05-5.59,11.36-10.24,0.86-1.72-1.73-3.24-2.59-1.51h0Z" transform="translate(-163.57 -1739.78)"/><path class="cls-2" d="M695.49,1879.58l-41.1,26L644.33,1912c-1.65,1-4.14,2.12-5,4.06a2.88,2.88,0,0,0,3.54,4.07c1.85-.54,1.06-3.44-0.8-2.89,1.89-.55,4.52-3.14,6.26-4.25l6.71-4.25,14.26-9L697,1882.17c1.63-1,.12-3.63-1.51-2.59h0Z" transform="translate(-163.57 -1739.78)"/><path class="cls-2" d="M182.91,1853.35q28.59,19.74,58.38,37.63a1.5,1.5,0,0,0,1.51-2.59q-29.78-17.89-58.38-37.63c-1.59-1.1-3.09,1.5-1.51,2.59h0Z" transform="translate(-163.57 -1739.78)"/><path class="cls-2" d="M164.34,1890.93a493.16,493.16,0,0,1,54.87,29.75c1.64,1,3.15-1.57,1.51-2.59a493.16,493.16,0,0,0-54.87-29.75c-1.74-.81-3.27,1.78-1.51,2.59h0Z" transform="translate(-163.57 -1739.78)"/><path class="cls-8" d="M648.33,1821.29c2-3.55,3.79-7.21,5.43-10.94a1.47,1.47,0,0,0-.32-1.65,1.38,1.38,0,0,0-.56-0.82q-12.81-9.1-26-17.64a1.54,1.54,0,0,0-.25-0.24,137.68,137.68,0,0,0-25.55-14.82,1.57,1.57,0,0,0-1-.57,154.51,154.51,0,0,0-13.24-8.21c-2.45-1.34-4.91-2.67-7.39-3.94s-4.23,0-6.05,1.82a72.5,72.5,0,0,0-6.14,7.1c-1.07,1.39-2.06,2.84-3,4.3a16.46,16.46,0,0,0-2.3,3.92c-0.75,2.61,2.28,4.4,4,5.84,2.13,1.83,4.34,3.56,6.61,5.21l-25.36,37.8a1.37,1.37,0,0,0,0,1.38,63.64,63.64,0,0,0,55.7,31h0.05a1.22,1.22,0,0,0,1.15-.67c7.41-13.08,15.81-25.59,23.56-38.47l7.11,4.25,4.56,2.73c1,0.58,2.53,1.54,3.67.7C645.37,1827.57,646.85,1823.91,648.33,1821.29Zm-23.19-28.88,1.78,1.16q-1-.54-1.95-1Zm17.52,12.1c-2.39-1.7-4.73-3.48-7.09-5.21q3.77,2.54,7.51,5.11A1.45,1.45,0,0,0,642.66,1804.51Zm-19.86-13.85a45.36,45.36,0,0,1-6.82,3.72c-1.33.58-3.12,1.51-4.63,1.26s-3-1.43-4.26-2.15c-2.77-1.6-4.94-3.64-5.88-6.77a16.41,16.41,0,0,1-.35-8.62A137.65,137.65,0,0,1,622.8,1790.66Zm-44-25.39-0.07,0-1-.39A3.63,3.63,0,0,1,578.77,1765.26ZM565.38,1779a67.29,67.29,0,0,1,9.27-12.07l1.09,0.44c-4.48,3.75-7.32,8.92-10.32,14l-0.74-.7C564.32,1780.32,565.22,1779.29,565.38,1779Zm-7.91,46.83q2.15-1.17,4.38-2.23l-0.84,1.29C559.83,1825.27,558.65,1825.58,557.46,1825.85ZM570.14,1811l-0.09,0,0.15-.05Zm-4.19,6.29-0.1,0,0.12-.05Zm1.49-2.28a1.62,1.62,0,0,0-.16-0.24l0.45-.2Zm0.26-12.33a1.42,1.42,0,0,0,.21.42l-0.74.37Zm-2.69,4,0.2,0.16-0.39.13Zm-2.61,3.89h0l-0.06,0v0Zm-2.41,3.59h0.2l1.85-.11-2.82,1.26Zm-7,10.5h0.87l-1.46.88Zm3.61,7-0.07-.13,0.28-.19Zm15.51-24a1.44,1.44,0,0,0-.39-0.06l0.49-.16Zm-0.05-3.45,1.26-.56q0,0.19-.05.38Zm1-3.58,0.38-.28c0,0.06,0,.13,0,0.19Zm-21.6,30.89,0.06,0,0.13-.05-0.17.11ZM563.53,1821l-0.1-.14,0.24-.07Zm9.66-23.77,0.22-.18v0.14Zm42.5,37.6,0.72-.47-0.43.68A1.45,1.45,0,0,0,615.69,1834.88Zm-5.23,9-0.25-.09,0.5-.31Zm-11.89,3.94-2.6,1.63,1-1.67A2.93,2.93,0,0,0,598.57,1847.85Zm6.76,4.5,0,0,0.09-.05Zm13.37-21.56h0l0,0Zm2.91-4.66a1.45,1.45,0,0,0-1,.1l0,0,1.55-1Zm-24.75,31.44a1.37,1.37,0,0,0,.1.36l-0.8-.07Zm3.43-14.86a1.4,1.4,0,0,0,0,.32l-0.37.18Zm34.77-19.75-7.1-4.24h0l-0.16-.09a1.4,1.4,0,0,0-1.8.35c-8,2.89-16.44,6.34-21.74,13.19-5.91,7.64-10.92,16.15-15.8,24.49a61.47,61.47,0,0,1-32.38-19.12l11.71-17.89a1.24,1.24,0,0,0,.47-0.71l2.79-4.27c1.82-2.78,3.61-5.41,4.52-8.51a1.4,1.4,0,0,0,.3-1.19c0.08-.39.15-0.78,0.21-1.18,0.56-4.32,0-9,0-13.31a1.31,1.31,0,0,0-.46-1,1.58,1.58,0,0,0-.72-0.47c-2-1.43-3.93-2.91-5.82-4.47q-0.76-.62-1.49-1.27c3.15-5.3,6-11,11.11-14.61a116.62,116.62,0,0,1,18.26,10.22,1.19,1.19,0,0,0,1,.2,22.57,22.57,0,0,0,.31,7,13.47,13.47,0,0,0,5.82,8.75c2.73,2,6.28,4.26,9.74,3.33a33,33,0,0,0,8.53-3.88l0.12,0.07c8.84,4.2,15.93,11.14,24.26,16.13-1.29,1.94-2.81,3.72-4.14,5.64-1.79,2.59-2.75,5.64-5.18,7.76a1.45,1.45,0,0,0-.25.29Zm7.37,2.82c-0.85,1.34-1.87.63-2.9-.1,2.25-2.09,3.44-4.9,5-7.51,1.35-2.24,3.11-4.16,4.56-6.32l0.76,0.4A128,128,0,0,1,642.42,1825.77Z" transform="translate(-163.57 -1739.78)"/><path class="cls-8" d="M588.95,1827.61l-1.41-.94q3.26-5.26,6.45-10.56,1.79-3,3.55-6c0.81-1.37,1.94-2.7,1.56-4.37a1.39,1.39,0,0,0-1.68-1q-2.59.71-5.21,1.23c-1.76.35-1.07,3,.68,2.69q1.32-.26,2.63-0.57l-1.53,2.6q-1.57,2.66-3.17,5.31-2.78,4.62-5.63,9.2c-0.54-.32-1.08-0.63-1.63-0.93-1.57-.85-3,1.52-1.42,2.38a60.68,60.68,0,0,1,5.4,3.33C589,1831,590.41,1828.62,588.95,1827.61Z" transform="translate(-163.57 -1739.78)"/><path class="cls-8" d="M282.43,1755.66c-2.75-3-5.68-5.84-8.72-8.55a1.47,1.47,0,0,0-1.67-.21,1.38,1.38,0,0,0-.95.28q-12.61,9.36-24.82,19.25a1.54,1.54,0,0,0-.3.17,137.68,137.68,0,0,0-22,19.71,1.57,1.57,0,0,0-.86.8,154.51,154.51,0,0,0-11.9,10.05c-2,1.91-4.06,3.84-6,5.81s-1.31,4-.14,6.32a72.5,72.5,0,0,0,4.85,8c1,1.45,2.06,2.84,3.16,4.21a16.46,16.46,0,0,0,3,3.4c2.25,1.52,4.89-.81,6.78-2,2.4-1.45,4.73-3,7-4.67l28.1,35.81a1.37,1.37,0,0,0,1.3.45,63.64,63.64,0,0,0,46.71-43.38v0a1.22,1.22,0,0,0-.28-1.3c-10.15-11.09-19.44-22.95-29.29-34.31l6.24-5.45,4-3.49c0.85-.75,2.24-1.93,1.8-3.27C287.49,1760.41,284.46,1757.88,282.43,1755.66Zm-34.64,13.11,1.66-1.33q-0.81.75-1.6,1.53Zm16.93-12.92c-2.35,1.75-4.77,3.42-7.15,5.13q3.58-2.8,7.19-5.56A1.45,1.45,0,0,0,264.72,1755.85Zm-19.32,14.6a45.36,45.36,0,0,1,1.43,7.64c0.14,1.44.47,3.44-.24,4.79s-2.3,2.43-3.36,3.39c-2.38,2.14-5,3.57-8.25,3.49a16.41,16.41,0,0,1-8.31-2.33A137.65,137.65,0,0,1,245.4,1770.45Zm-37.77,34v0.08l-0.67.8A3.63,3.63,0,0,1,207.63,1804.46Zm8.94,17a67.29,67.29,0,0,1-8.61-12.55l0.76-.9c2.18,5.42,6.22,9.72,10.1,14.14l-0.89.48C217.48,1822.87,216.77,1821.69,216.57,1821.46Zm42.08,22q-0.45-2.41-.76-4.85l1,1.2C258.83,1841,258.76,1842.26,258.65,1843.47Zm-10.16-16.64-0.07.07v-0.16Zm4.69,5.93v0Zm-1.71-2.12-0.28.08-0.05-.49Zm-11.64-4.06a1.42,1.42,0,0,0,.46-0.07c0,0.27.08,0.54,0.12,0.82Zm3,3.8,0.21-.14v0.42Zm2.89,3.69,0,0v0.06Zm2.67,3.4a1.53,1.53,0,0,0,.07-0.19l0.47-1.79,0.32,3.07Zm7.81,9.95c0.09-.28.19-0.55,0.27-0.83q0.18,0.83.38,1.66Zm7.75-1.28-0.15,0-0.09-.32Zm-18-22.18a1.44,1.44,0,0,0-.18.35v-0.51Zm-3.3-1q-0.08-.69-0.14-1.38l0.35,0.17Q242.73,1822.35,242.62,1823Zm-3.09-2.08c-0.05-.15-0.1-0.3-0.15-0.45l0.18,0.06Q239.55,1820.68,239.53,1820.87Zm22.69,30.1s0,0,0-.07,0-.1,0-0.14l0.05,0.2h0ZM256,1836.21l-0.17,0c0-.08,0-0.17,0-0.25Zm-19.61-16.54-0.1-.26,0.14,0A1.46,1.46,0,0,0,236.34,1819.68Zm48.91-28.78q-0.1-.42-0.22-0.83l0.52,0.62A1.45,1.45,0,0,0,285.25,1790.9Zm7,7.77a1.43,1.43,0,0,0-.16.21l-0.14-.57Zm0.07,12.53,0.75,3-1.26-1.51A2.93,2.93,0,0,0,292.29,1811.19Zm6.37-5,0,0,0-.1Zm-16.37-19.38h0v0Zm-3.54-4.21a1.45,1.45,0,0,0-.21,1v0l-0.43-1.77ZM301,1815.83a1.37,1.37,0,0,0,.37,0l-0.31.74C301,1816.34,301,1816.08,301,1815.83ZM287.92,1808a1.4,1.4,0,0,0,.32.06l0.05,0.41Zm-8-39.17-6.23,5.44h0l-0.14.12a1.4,1.4,0,0,0-.23,1.82c0.28,8.48.94,17.6,5.82,24.76,5.44,8,12,15.39,18.4,22.6a61.47,61.47,0,0,1-28.2,24.87l-13.39-16.67a1.24,1.24,0,0,0-.53-0.67l-3.2-4c-2.08-2.59-4-5.1-6.69-6.93a1.4,1.4,0,0,0-1-.65c-0.34-.2-0.69-0.39-1.06-0.56-3.94-1.87-8.51-2.8-12.67-4.08a1.31,1.31,0,0,0-1.11.12,1.58,1.58,0,0,0-.67.54q-3,2.18-6,4.16-0.83.53-1.67,1c-4.06-4.63-8.56-9.14-10.45-15.08a116.62,116.62,0,0,1,15.37-14.2,1.19,1.19,0,0,0,.51-0.91,22.57,22.57,0,0,0,6.77,1.88,13.47,13.47,0,0,0,10.12-2.83c2.72-2,6-4.65,6.18-8.23a33,33,0,0,0-1-9.32l0.11-.09c6.73-7.11,15.52-11.7,22.85-18.08,1.45,1.83,2.66,3.83,4.08,5.68,1.91,2.5,4.51,4.37,5.78,7.33a1.45,1.45,0,0,0,.2.33Zm5-6.14c1,1.22,0,2-1,2.73-1.29-2.79-3.6-4.79-5.59-7.08-1.71-2-3-4.25-4.59-6.3l0.62-.6A128,128,0,0,1,284.86,1762.66Z" transform="translate(-163.57 -1739.78)"/><path class="cls-8" d="M270.07,1814.08q-0.67.52-1.33,1-4-4.73-8-9.4-2.28-2.63-4.59-5.23c-1.06-1.19-2-2.68-3.67-2.83a1.39,1.39,0,0,0-1.48,1.29q-0.13,2.68-.45,5.34c-0.21,1.78,2.56,2,2.77.19q0.16-1.34.27-2.68l2,2.26q2,2.32,4.07,4.66,3.54,4.07,7,8.2c-0.47.42-.93,0.84-1.39,1.27-1.3,1.22.52,3.32,1.82,2.09a60.68,60.68,0,0,1,4.83-4.11C273.32,1815.08,271.48,1813,270.07,1814.08Z" transform="translate(-163.57 -1739.78)"/></svg>