<svg id="Layer_1" data-name="Layer 1" xmlns="http://www.w3.org/2000/svg" viewBox="0 0 1419.87 723.07"><defs><style>.cls-1,.cls-2,.cls-3{fill:none;stroke-miterlimit:10;}.cls-1{stroke:#ce2f3a;stroke-linecap:round;stroke-width:7px;}.cls-2,.cls-3{stroke:#384171;}.cls-3{stroke-width:3px;}.cls-4{font-size:36px;fill:#3a9342;font-family:Kalam;font-weight:700;}</style></defs><title>graficos</title><path class="cls-1" d="M354.19,1584.92c132.31,0,132.31,4,264.63,4s132.32-4,264.63-4,132.32,4,264.64,4,132.32-4,264.64-4,132.32,4,264.64,4" transform="translate(-261 -922.5)"/><line class="cls-1" x1="143.21" y1="664.42" x2="143.21" y2="719.57"/><line class="cls-1" x1="307.05" y1="664.42" x2="307.05" y2="719.57"/><line class="cls-1" x1="470.88" y1="664.42" x2="470.88" y2="719.57"/><line class="cls-1" x1="634.72" y1="664.42" x2="634.72" y2="719.57"/><line class="cls-1" x1="798.56" y1="664.42" x2="798.56" y2="719.57"/><line class="cls-1" x1="962.39" y1="664.42" x2="962.39" y2="719.57"/><line class="cls-1" x1="1126.23" y1="664.42" x2="1126.23" y2="719.57"/><line class="cls-1" x1="1290.07" y1="664.42" x2="1290.07" y2="719.57"/><path class="cls-2" d="M354.19,1511c132.31,0,132.31,6,264.63,6s132.32-6,264.63-6,132.32,6,264.64,6,132.32-6,264.64-6,132.32,6,264.64,6" transform="translate(-261 -922.5)"/><path class="cls-2" d="M354.19,1439c132.31,0,132.31,6,264.63,6s132.32-6,264.63-6,132.32,6,264.64,6,132.32-6,264.64-6,132.32,6,264.64,6" transform="translate(-261 -922.5)"/><path class="cls-2" d="M354.19,1302.77c132.31,0,132.31,6,264.63,6s132.32-6,264.63-6,132.32,6,264.64,6,132.32-6,264.64-6,132.32,6,264.64,6" transform="translate(-261 -922.5)"/><path class="cls-2" d="M354.19,1230.78c132.31,0,132.31,6,264.63,6s132.32-6,264.63-6,132.32,6,264.64,6,132.32-6,264.64-6,132.32,6,264.64,6" transform="translate(-261 -922.5)"/><path class="cls-2" d="M354.19,1088c132.31,0,132.31,6,264.63,6s132.32-6,264.63-6,132.32,6,264.64,6,132.32-6,264.64-6,132.32,6,264.64,6" transform="translate(-261 -922.5)"/><path class="cls-2" d="M354.19,1016c132.31,0,132.31,6,264.63,6s132.32-6,264.63-6,132.32,6,264.64,6,132.32-6,264.64-6,132.32,6,264.64,6" transform="translate(-261 -922.5)"/><path class="cls-3" d="M354.19,1374.17c132.31,0,132.31,6,264.63,6s132.32-6,264.63-6,132.32,6,264.64,6,132.32-6,264.64-6,132.32,6,264.64,6" transform="translate(-261 -922.5)"/><path class="cls-3" d="M354.19,1159.38c132.31,0,132.31,6,264.63,6s132.32-6,264.63-6,132.32,6,264.64,6,132.32-6,264.64-6,132.32,6,264.64,6" transform="translate(-261 -922.5)"/><path class="cls-3" d="M354.19,944.59c132.31,0,132.31,6,264.63,6s132.32-6,264.63-6,132.32,6,264.64,6,132.32-6,264.64-6,132.32,6,264.64,6" transform="translate(-261 -922.5)"/><text class="cls-4" transform="translate(10 463.66)">500</text><text class="cls-4" transform="translate(0 247.67)">1000</text><text class="cls-4" transform="translate(0 31.68)">1500</text></svg>