<svg id="Layer_1" data-name="Layer 1" xmlns="http://www.w3.org/2000/svg" viewBox="0 0 65.98 62.02"><defs><style>.cls-1{fill:none;stroke:#384171;stroke-linecap:round;stroke-linejoin:round;stroke-width:3px;}</style></defs><title>puntoazul</title><path class="cls-1" d="M1193.48,1934.11c0.16,0.27,4.73-3.16,4.92-2.84,0.3,0.51-15.35,14.16-15.06,14.65,0.51,0.88,29.6-18.07,30-17.34,0.56,1-32.06,23.34-31.59,24.15,0.57,1,42.66-26,43.26-25s-39.47,27.55-38.92,28.52c0.77,1.34,42.18-25.67,42.75-24.68,0.86,1.5-48.93,32.32-48.3,33.4,0.73,1.27,46.93-28.55,47.56-27.46s-47.57,31.84-47,32.89c0.74,1.29,55.62-33.61,56.27-32.49s-48.72,31.64-47.93,33,46.82-28.78,47.58-27.47-47.88,31.87-47.29,32.89c0.77,1.33,47.74-29.07,48.39-27.94s-43.35,29.39-42.66,30.6,40.14-24.75,40.83-23.57-42.76,29.11-42.16,30.15,48.84-29.34,49.34-28.48c0.65,1.12-41.58,28.29-40.83,29.59,0.59,1,35.9-21.8,36.36-21,0.34,0.58-23.62,18.54-23.28,19.13s17.91-11.11,18.24-10.53" transform="translate(-1179.05 -1926.24)"/></svg>