<svg id="Layer_1_copy" data-name="Layer 1 copy" xmlns="http://www.w3.org/2000/svg" viewBox="0 0 89.26 89.24"><defs><style>.cls-1{fill:none;stroke:#394170;stroke-linecap:round;stroke-linejoin:round;stroke-width:0.96px;}</style></defs><title>america</title><g id="_Group_" data-name="&lt;Group&gt;"><polyline id="_Path_" data-name="&lt;Path&gt;" class="cls-1" points="42.76 14.01 44.66 12.91 42.15 16.21 46.04 13.96 42.68 17.6 46.05 15.66 44.68 18.36 46.49 17.31"/><polyline id="_Path_2" data-name="&lt;Path&gt;" class="cls-1" points="67.5 39.76 68.45 39.21 68.43 41.3 69.35 40.77 69.05 42.72 70.09 42.12"/><polyline id="_Path_3" data-name="&lt;Path&gt;" class="cls-1" points="66.96 37.92 67.29 37.73 65.97 40.33 67.46 39.47 65.39 42.37 66.73 41.6 64.91 44.56 66.86 43.43 66.99 44.66 70.38 42.7 70.5 44.21 71.01 43.92"/><polyline id="_Path_4" data-name="&lt;Path&gt;" class="cls-1" points="40.61 12.26 41.3 11.87 39.39 14.81 42.16 13.21 40.12 15.74 41.12 15.17"/><polyline id="_Path_5" data-name="&lt;Path&gt;" class="cls-1" points="69.98 13.62 73.68 11.48 71.08 14.61 74.79 12.47 72.42 15.81 76.08 13.7 73.2 16.52 76.77 14.46 74.08 17.49 77.66 15.43 75.27 18.89 78.9 16.8 76.48 20.32 79.99 18.29 77.03 21.12 80.57 19.08 77.96 22.54 81.56 20.45 78.93 24.02 82.48 21.97 79.59 25.18 83.14 23.13 80.03 26.08 83.64 24 80.48 27 84.14 24.88 80.93 27.91 84.56 25.81 81.4 28.86 84.98 26.79 81.77 29.91 85.41 27.8 82.27 31.35 86.01 29.19 82.78 32.83 86.51 30.68 83.12 33.88 86.83 31.74 83.4 35.27 87.22 33.07 83.63 36.37 87.53 34.11 83.88 37.61 87.8 35.35"/><polyline id="_Path_6" data-name="&lt;Path&gt;" class="cls-1" points="78.15 41.25 81.86 39.1 81.18 40.88 88.07 36.9 84.28 40.99 88.37 38.63 84.36 42.99 88.59 40.55 84.44 44.77 88.69 42.31 84.41 46.3 88.78 43.78 84.21 48.37 88.77 45.73 84 50.46 88.65 47.78 83.58 52.42 88.55 49.55 83.18 54.16 88.28 51.21 82.67 56.04 87.97 52.98 82.12 57.57 87.74 54.32 81.28 59.89 87.14 56.5 80.21 62.03 86.59 58.35 79.33 63.77 86.08 59.87 77.45 66.72 85.06 62.33"/><polyline id="_Path_7" data-name="&lt;Path&gt;" class="cls-1" points="66.27 28.64 67.46 27.94 67.23 29.23 68.42 28.54 68.66 30.23 69.74 29.6 69.86 31.36 70.95 30.73 71.13 32.79 72.18 32.19 72.24 34.21 73.29 33.6 73.07 35.5 74.11 34.9 73.84 36.78 74.88 36.18 74.46 37.89 75.52 37.28 75.23 39.53 76.32 38.9 75.84 40.82 78 39.57 76.23 41.84 80.74 39.24 76.65 43 77.72 42.38 77.22 44.55 78.26 43.95 77.52 45.61 78.62 44.98 77.84 46.79 78.93 46.16 78.28 48.41 79.35 47.79 78.66 50.32 79.78 49.68 78.95 51.93 80.06 51.28"/><polyline id="_Path_8" data-name="&lt;Path&gt;" class="cls-1" points="68.67 52.03 71.46 50.42 73.12 51.48 74.24 50.83 73.47 53.02 74.61 52.36 73.67 54.51 75.1 53.69 75.39 54.92 78.23 53.28 78.68 54.51 80.45 53.49"/><polyline id="_Path_9" data-name="&lt;Path&gt;" class="cls-1" points="65.08 52.41 67.77 50.86 66.55 53.35 68 52.51 66.3 55.16 67.75 54.32 66.07 56.68 67.54 55.84 65.59 58.7 67.16 57.8 65.21 60.29 66.82 59.36"/><line id="_Path_10" data-name="&lt;Path&gt;" class="cls-1" x1="54.12" y1="62.29" x2="57.12" y2="60.55"/><polyline id="_Path_11" data-name="&lt;Path&gt;" class="cls-1" points="63.12 51.68 63.72 51.33 63.08 53.02 66.58 51 63.16 54.48 64.33 53.81"/><polyline id="_Path_12" data-name="&lt;Path&gt;" class="cls-1" points="58.71 56.8 61.38 55.26 63.45 56.25 64.51 55.64"/><polyline id="_Path_13" data-name="&lt;Path&gt;" class="cls-1" points="28.61 7.78 40.88 0.69 36.27 5.31 44.63 0.48 39.71 4.68 46.78 0.6 42.91 4.45 49.33 0.75 46.36 4.46 52.04 1.17 49.4 4.67 54.66 1.63 51.85 5.08 56.76 2.25 53.55 5.39 58.24 2.68 54.89 5.77 59.54 3.09 57.41 6.49 61.72 4 59.41 7.29 63.68 4.82 60.98 7.92 65.06 5.57 62.89 8.89 66.89 6.58 64.5 9.75 68.42 7.48 65.6 10.4 69.42 8.19 66.9 11.28 70.7 9.09 67.87 11.94 71.64 9.76 67.23 14.42 73.16 10.99 65.62 16.47 68.82 14.62 63.38 19.32 66.56 17.48 61.62 21.56 64.79 19.73"/><line id="_Path_14" data-name="&lt;Path&gt;" class="cls-1" x1="57.03" y1="23.92" x2="57.83" y2="23.46"/><polyline id="_Path_15" data-name="&lt;Path&gt;" class="cls-1" points="50.09 15.75 51.62 14.87 50.31 17.11 53.04 15.54 51.06 17.88 53.99 16.18 52.15 18.44 54.67 16.98 53.03 19.49 55.24 18.21 54.17 20.77 56.66 19.33 54.02 22.33 56.74 20.76 53.8 24.35 58.61 21.57 54.65 25.64 56.69 24.47 56.24 26.67 56.85 26.31"/><polyline id="_Path_16" data-name="&lt;Path&gt;" class="cls-1" points="58.02 22.77 59.67 21.83 59.49 23.18 64.24 20.43 60.81 23.54 62.61 22.5 61.6 25.15 62.78 24.47 62.32 26.64 63.5 25.96 62.84 27.72 64.02 27.04 63.33 28.73 66.07 27.15 62.24 30.99 65.14 29.32 60.96 33.28 62.93 32.15 59.93 35.54 61.69 34.52 59.08 38.15 60.63 37.25 58.57 40.12 59.98 39.31 58.12 42.24 59.53 41.43 57.85 44.13 59.15 43.37 57.68 45.54 58.98 44.78 57.52 46.85 58.83 46.1 57.46 48.88 58.69 48.17 57.39 51.02 58.62 50.31 57.47 52.88 58.66 52.19 57.55 54.39 58.76 53.7 57.65 55.97 58.86 55.26"/><line id="_Path_17" data-name="&lt;Path&gt;" class="cls-1" x1="52.21" y1="36.61" x2="54.47" y2="35.31"/><polyline id="_Path_18" data-name="&lt;Path&gt;" class="cls-1" points="44.19 41.14 51.55 36.89 46.38 41.76 47.47 41.14 46.71 42.98 47.31 42.63"/><polyline id="_Path_19" data-name="&lt;Path&gt;" class="cls-1" points="54.7 33.59 57.13 32.19 55.75 34.63 57.96 33.36 56.11 36.43 57.92 35.38"/><polyline id="_Path_20" data-name="&lt;Path&gt;" class="cls-1" points="51.22 26.68 52.31 26.05 50.67 28.41 53.9 26.55 49.95 30.74 55.01 27.82 50.18 31.8 56.07 28.4"/><polyline id="_Path_21" data-name="&lt;Path&gt;" class="cls-1" points="47.88 17.02 48.85 16.47 48.12 18.07 48.66 17.76"/><polyline id="_Path_22" data-name="&lt;Path&gt;" class="cls-1" points="27.63 25.9 40.97 18.2 33.21 24.73 42.53 19.35 33.48 26.34 45.53 19.38 33.93 27.94 49.42 19 34.8 29.17 51.39 19.6 35.11 30.29 51.5 20.82 35.24 31.56 47.5 24.48 35.08 32.86 46.77 26.11 35.03 34.12 47.06 27.17 35.18 35.78 47.42 28.71 35.46 36.94 48.36 29.49 36.29 38.43 49.09 31.04 36.88 39.52 49.66 32.14 37.22 40.95 38.13 40.43 37.84 41.96 38.35 41.66 38.22 43.02 38.67 42.77"/><polyline id="_Path_23" data-name="&lt;Path&gt;" class="cls-1" points="38.19 39.14 56.29 28.69 39.06 40.46 56.12 30.61 39.37 41.96 56.91 31.83 39.66 43.45 54.23 35.03 40.43 45.08 42.38 43.95 41.91 46.05 45.02 44.25 43.47 46.33 44.37 45.81 44.49 47.8 45.6 47.15 45.6 49.25 46.39 48.8 46.72 49.82 49.99 47.93 44.93 52.23 51 48.72 43.62 55 52.42 49.91 44.35 56.67 53.58 51.35 45.12 58.21 54.87 52.58 45.75 59.22 54.66 54.07 45.9 61.24 56.38 55.19 44.81 63.82 59.17 55.53 44.57 65.66 58.75 57.47"/><polyline id="_Path_24" data-name="&lt;Path&gt;" class="cls-1" points="28.22 66.36 29.93 65.37 30.19 66.8 31.88 65.83 32.19 67.25 33.91 66.26 34.11 67.58 35.93 66.53 35.94 67.83 37.76 66.77 37.7 68.07 39.69 66.92 41.07 68.23 43.21 67 42.86 69 51.76 63.86 42.54 71.05 46.34 68.85 42.64 72.77 45.06 71.37 43.42 73.75 44.46 73.14"/><polyline id="_Path_25" data-name="&lt;Path&gt;" class="cls-1" points="47.55 68 50.51 66.29 50.73 67.51 54.48 65.34 55.28 66.41 66.73 59.8 61.01 64.31 66.91 60.91 66.85 62.59 68.12 61.86 68.17 63.63 69.44 62.9 69.59 64.75 70.86 64.01 70.72 65.64 72 64.9 71.91 66.58 73.19 65.83 72.82 67.29 74.1 66.55 73.9 68.15 75.19 67.4 75.45 69.36 84.15 64.34 73.23 71.86 83.15 66.13 68.42 76.22 81.78 68.51"/><line id="_Path_26" data-name="&lt;Path&gt;" class="cls-1" x1="26.65" y1="60.42" x2="34.9" y2="55.66"/><line id="_Path_27" data-name="&lt;Path&gt;" class="cls-1" x1="30.29" y1="49.68" x2="30.79" y2="49.4"/><polyline id="_Path_28" data-name="&lt;Path&gt;" class="cls-1" points="18.46 48.13 21.95 46.12 20.91 48.47 22.12 47.77 21.13 49.63 22.27 48.98 21.43 51.13 22.59 50.45 21.69 52.49 22.88 51.81"/><polyline id="_Path_29" data-name="&lt;Path&gt;" class="cls-1" points="20.26 34.14 23.31 32.38 23.83 33.59 25.85 32.42 25.84 33.65 27.42 32.73 27.7 34.02 29.07 33.23 29.67 34.78 30.97 34.03 31.21 35.64 32.36 34.98 32.18 36.31 33.33 35.64 31.12 38.55 34.04 36.87"/><polyline id="_Path_30" data-name="&lt;Path&gt;" class="cls-1" points="22.66 39.73 25.14 38.29 25.2 39.53 26.75 38.64 26.58 39.87 27.87 39.13 27.77 40.42 28.93 39.75 28.64 41.05 32.51 38.82 29.47 41.75 30.81 40.97"/><polyline id="_Path_31" data-name="&lt;Path&gt;" class="cls-1" points="20.47 40.94 21.74 40.2 20.54 43.04 21.75 42.34 20.62 45.17 21.78 44.5"/><polyline id="_Path_32" data-name="&lt;Path&gt;" class="cls-1" points="18.73 40.55 22.05 38.63 16.71 43.62 18.6 42.53 16.27 45.97 17.53 45.24 16.38 47.8 18.82 46.39 16.78 49.38 17.9 48.74 17.27 50.25 18.32 49.64 18.16 51.55 19.26 50.91 19.43 52.78 20.63 52.09 21.37 53.84 23.11 52.84 23.79 54.34 26.29 52.9 26.55 54.02 29.82 52.13"/><polyline id="_Path_33" data-name="&lt;Path&gt;" class="cls-1" points="31.04 51.21 32.22 50.53 32.28 52.17 33.44 51.5 33.77 53.33 34.91 52.67 33.9 54.93 36.17 53.62"/><polyline id="_Path_34" data-name="&lt;Path&gt;" class="cls-1" points="28.96 13.89 30.09 13.24 27.87 15.96 31.96 13.6 26.53 18.67 33.39 14.71 27.28 19.7 34.36 15.61 25.15 22.31 35.9 16.1 25.91 22.99 37.68 16.2 26.94 23.86 39.48 16.62"/><polyline id="_Path_35" data-name="&lt;Path&gt;" class="cls-1" points="13.21 20.17 14.51 19.42 14.1 20.86 15.39 20.11 15.46 21.93 16.75 21.19 16.37 22.64 17.66 21.9 17.64 23.64 18.92 22.9 18.86 24.59 20.14 23.86 19.81 25.33 21.08 24.6 20.69 26.02 21.96 25.29 21.77 26.87 23.03 26.14 22.32 27.94 40.46 17.47 21.82 30.23 23.41 29.31 21.45 31.93 23.04 31.01"/><polyline id="_Path_36" data-name="&lt;Path&gt;" class="cls-1" points="15.15 35.64 19.42 33.18 11.85 39.62 14.27 38.23 10.79 42.02 12.52 41.02 10.22 44.48 11.63 43.66 10.11 46.61 11.32 45.91 9.54 49.13 11.38 48.08 10.45 49.72 11.59 49.06 10.98 51.47 12.06 50.84 11.43 52.43 12.49 51.82 12.21 53.95 13.28 53.32 13.27 55.38 14.31 54.78 14.18 56.39 15.28 55.75 15.43 57.57 16.6 56.89 17.15 58.71 18.36 58.01 18.53 59.39 19.87 58.62 20.91 60.2 22.51 59.27 22.53 60.5 24.49 59.36 24.39 60.71 27.4 58.97 25.02 61.95 26.15 61.3 25.63 63.17 26.78 62.5 26.43 64.76 27.61 64.08 24.85 67.81 29.32 65.23 21.95 71.48 25.14 69.64 19.61 74.45 22.82 72.59"/><polyline id="_Path_37" data-name="&lt;Path&gt;" class="cls-1" points="18.95 8.82 26.65 4.38 12.64 14.3 34.58 1.64 9.73 17.69 38.81 0.9 7.44 20.93 17.23 15.27 6.32 22.87 14.73 18.02 4.98 25.28 12.23 21.09 3.82 27.98 10.07 24.38 2.89 30.32 8.76 26.93 2.15 32.84 7.52 29.74 1.64 34.56 6.86 31.54 1.22 36.91 6.08 34.1 0.91 38.66 5.66 35.92 0.72 40.24 5.27 37.61 0.63 41.67 5.1 39.09 0.54 43.2 4.94 40.66 0.48 44.91 4.76 42.44 0.58 46.72 4.79 44.29 0.69 48.67 4.87 46.26 0.88 50.43 5.11 47.99 1.13 51.86 8.51 47.59 1.32 52.97 5.28 50.69 1.59 54.51 5.58 52.2 2.09 56.32 5.97 54.09 2.62 58.1 6.49 55.87 3.21 59.95 7.11 57.7 3.78 61.29 7.58 59.09 4.29 62.49 8.12 60.28 4.68 63.39 8.54 61.16 5.11 64.36 9.01 62.11 5.94 65.83 9.75 63.63 6.85 67.42 10.72 65.19 7.38 68.37 11.32 66.1 7.96 69.19 11.86 66.94 8.85 70.42 12.72 68.18 9.45 71.24 13.38 68.97 10.32 72.44 14.34 70.11 11.17 73.38 15.15 71.08 12.43 74.77 16.48 72.43 13.48 75.92 17.65 73.51 14.82 77.13 18.97 74.73 16.14 78.3 20.34 75.88 17.06 79.12 21.4 76.61 17.96 79.78 22.33 77.25 19.43 80.82 23.83 78.28 21.1 82 25.75 79.32 22.68 82.89 27.35 80.19 23.96 83.6 28.8 80.81 25.59 84.48 30.64 81.57 27.6 85.33 32.82 82.31 29.6 86.17 35.13 82.98 31.06 86.64 36.78 83.33 32.81 87.15 38.82 83.68 34.35 87.61 40.71 83.94 36.66 88.04 43.5 84.09 38.14 88.3 45.41 84.11 39.78 88.56 47.73 83.97 43.18 88.76 52.75 83.23 46.14 88.75 58.57 81.58 50.32 88.44 79.65 71.51 54.91 87.63 76.54 75.14 62.65 84.94 70.35 80.49"/></g></svg>