<svg id="Layer_1_copy" data-name="Layer 1 copy" xmlns="http://www.w3.org/2000/svg" viewBox="0 0 58.54 65.81"><defs><style>.cls-1{fill:none;stroke:#cf2f3a;stroke-linecap:round;stroke-linejoin:round;stroke-width:0.56px;}</style></defs><title>atlas</title><polyline class="cls-1" points="28.55 15.32 29.03 15.04 26.14 17.39 29.05 15.71 24.78 18.62 29.05 16.16 24.79 19.24 29.07 16.77 24.8 19.58 29.07 17.11 24.81 20.36 29.09 17.89 24.82 20.65 29.09 18.18 24.83 21.36 29.1 18.89 24.83 21.73 29.11 19.26 24.85 22.6 29.13 20.13 24.86 23.09 29.14 20.62 24.86 23.38 29.14 20.91 24.87 23.74 29.15 21.27 24.88 24.05 29.15 21.58 24.89 24.75 29.17 22.27 24.9 25.32 29.18 22.85 24.91 25.94 29.19 23.47 24.92 26.44 29.2 23.97 24.93 27.17 29.21 24.7 24.94 27.9 29.22 25.43 24.95 28.55 29.23 26.08 24.97 29.43 29.25 26.95 24.98 30.23 29.27 27.76 24.99 30.79 29.28 28.32 25 31.29 29.29 28.82 25.3 31.53 29.29 29.23 25.9 31.52 29.3 29.56 27.53 31.48 29.32 30.45 28.13 31.47 29.32 30.78 28.87 31.45 29.33 31.18"/><polyline class="cls-1" points="25.14 34.86 25.43 34.7 25.16 35.82 27.17 34.66 25.17 36.54 28.49 34.63 25.18 36.94 29.22 34.61 25.19 37.32 29.47 34.85 25.2 37.81 29.48 35.34 25.2 38.26 29.49 35.79 25.22 39.2 29.5 36.72 25.24 40.05 29.52 37.58 25.25 40.77 29.53 38.29 25.27 41.58 29.54 39.11 25.28 42.47 29.56 40 25.29 43.07 29.57 40.6 25.31 44.07 29.59 41.6 25.32 44.43 29.59 41.96 25.33 45.32 29.61 42.85 25.34 45.95 29.62 43.49 25.36 46.59 29.63 44.13 25.36 47.15 29.64 44.69 25.38 48.16 29.65 45.69 25.39 48.81 29.66 46.35 25.41 49.47 29.68 47 25.42 50.01 29.68 47.54 25.43 50.54 29.69 48.08 25.44 51.41 29.71 48.95 25.45 52.21 29.72 49.75 25.46 52.55 29.73 50.09 25.47 53.18 29.74 50.72 25.49 53.98 29.75 51.52 25.5 54.81 29.76 52.35 25.51 55.19 29.77 52.73 25.51 55.5 29.77 53.05 25.53 56.14 29.79 53.68"/><polyline class="cls-1" points="0.43 17.24 1.32 16.73 0.28 18.13 2.76 16.7 0.34 18.77 4.09 16.61 0.44 19.73 6.21 16.4 0.5 20.31 7.75 16.13 0.58 21.13 10.37 15.48 0.62 21.44 11.51 15.15 0.69 22.17 29.02 5.81 0.76 22.83 29.04 6.5 0.79 23.17 29.04 6.86 0.88 23.98 29.06 7.71 0.99 24.84 29.07 8.63 1.05 25.11 29.08 8.93 1.14 25.55 28.96 9.49 1.21 25.88 28.25 10.27 1.31 26.38 27.21 11.42 1.37 26.66 26.63 12.07 1.44 27 25.42 13.16 1.58 27.67 21.98 15.89 1.76 28.58 21.31 17.29 1.92 29.34 21.3 18.15 1.98 29.66 21.29 18.51 2.1 30.21 21.28 19.14 2.25 30.88 21.26 19.91 2.38 31.29 21.23 20.4 2.46 31.52 21.22 20.69 2.7 32.29 21.18 21.63 2.8 32.59 21.16 21.98 2.87 32.83 21.15 22.27 2.96 33.09 21.12 22.6 3.16 33.72 21.05 23.39 3.31 34.2 20.99 23.99 3.47 34.7 20.93 24.62 3.66 35.3 20.84 25.39 3.92 36.13 20.67 26.46 4.16 36.76 20.55 27.3 4.32 37.12 20.46 27.81 4.46 37.43 20.36 28.24 4.79 38.17 20.14 29.31 5.04 38.73 19.97 30.11 5.14 38.97 19.89 30.46 5.46 39.69 19.61 31.52 5.75 40.35 19.36 32.49 5.85 40.58 19.27 32.84 6.08 41.08 19.06 33.58 6.21 41.4 18.87 34.09 6.53 42.04 18.46 35.15 6.69 42.31 18.29 35.61 7.1 43.02 17.82 36.84 7.39 43.52 17.45 37.71 7.83 44.27 16.87 39.06 8.03 44.61 16.61 39.66 8.37 45.2 16.16 40.7 8.66 45.7 15.69 41.64 8.92 46.15 15.26 42.49 9.15 46.54 14.89 43.23 9.63 47.22 14.44 44.44 9.86 47.54 14.66 44.76 10.27 48.1 15.06 45.34 10.41 48.3 15.2 45.53 10.55 48.48 15.33 45.73 10.91 48.98 15.67 46.23 11.19 49.35 15.94 46.61 11.57 49.87 16.32 47.13 11.98 50.44 16.77 47.68 12.48 51.11 17.29 48.33 12.89 51.57 17.67 48.81 13.1 51.81 17.87 49.06 13.7 52.47 18.46 49.72 13.94 52.73 18.71 49.98 14.15 52.97 18.93 50.21 14.58 53.44 19.36 50.68 14.89 53.79 19.68 51.02 15.3 54.24 20.1 51.47 15.89 54.9 20.75 52.09 16.2 55.23 21.09 52.41 16.57 55.58 21.47 52.76 17.17 56.13 22.05 53.31 17.76 56.66 22.64 53.85 18.22 57.09 23.12 54.26 18.71 57.54 23.64 54.69 19.21 57.99 24.16 55.13 19.4 58.16 24.35 55.3 19.8 58.53 24.77 55.65 20.14 58.85 25.14 55.96 20.85 59.4 29.79 54.24 21.53 59.92 29.81 55.15 21.96 60.25 29.82 55.72 22.4 60.59 29.83 56.3 22.84 60.92 29.84 56.89 23.41 61.35 29.85 57.63 24.1 61.88 29.87 58.55 24.76 62.37 29.88 59.42 25.38 62.78 29.89 60.17 26.19 63.3 29.91 61.15 26.92 63.77 29.92 62.03 27.75 64.3 29.94 63.03 28.1 64.52 29.95 63.45 28.42 64.73 29.95 63.85 29.05 65.14 30 64.59 29.61 65.39 30.02 65.15"/><polyline class="cls-1" points="27.97 0.78 28.83 0.28 27.38 1.76 28.94 0.86 26.86 2.68 28.95 1.47 26.11 3.98 28.96 2.33 24.98 5.48 28.98 3.17 24.34 6.33 28.99 3.64 22.34 8.45 29 4.61 20.48 10.12 29.01 5.2 18.77 11.45 29.02 5.53"/><polyline class="cls-1" points="29.72 31.72 30 31.56 29.73 32.62 31.62 31.53 29.74 33.05 32.4 31.52 29.75 33.72 33.6 31.5 29.77 34.62 38.95 29.32 30.6 34.69 39.07 29.8 31.27 34.68 39.15 30.13 32.36 34.65 39.3 30.64 33.89 34.62 39.51 31.37 34.14 35.21 39.7 32 34.16 36.21 39.95 32.87 34.17 36.56 40.04 33.16 34.17 36.99 40.18 33.53 34.18 37.28 40.28 33.76 34.19 37.6 40.39 34.02 34.2 38.52 40.7 34.77 34.21 39.11 40.91 35.25 34.22 39.45 41.02 35.52 34.24 40.4 41.35 36.29 34.24 40.9 41.52 36.7 34.26 41.45 41.72 37.14 34.27 42.19 41.99 37.72 34.28 43.02 42.31 38.39 34.29 43.34 42.43 38.64 34.3 44.24 42.77 39.35 34.32 45.07 43.08 40.02 34.33 45.73 43.33 40.54 34.35 46.62 43.71 41.21 34.35 46.9 43.83 41.43 34.37 47.88 44.25 42.18 34.38 48.25 44.4 42.46 34.38 48.67 44.58 42.78 34.4 49.42 44.9 43.36 34.41 49.86 45.09 43.69 34.42 50.65 44.61 44.77 34.43 51.41 43.84 45.98 34.45 52.35 42.68 47.6 34.46 52.9 41.95 48.58 34.48 53.9 40.26 50.56 34.49 54.82 38.28 52.63 34.5 55.09 37.61 53.3 34.52 55.97 35.01 55.68"/><polyline class="cls-1" points="29.35 9.7 29.45 9.64 29.37 10.44 29.91 10.12 29.37 10.81 30.15 10.37 29.38 11.33 30.47 10.7 29.39 11.72 30.71 10.95 29.4 12.63 31.28 11.54 29.42 13.63 31.91 12.19 29.43 14.05 32.21 12.44 29.44 14.73 32.7 12.85 29.63 14.99 32.96 13.07 29.83 15.17 33.16 13.24 30.09 15.39 33.43 13.47 30.72 15.93 34.07 14 31.09 16.25 34.44 14.31 31.32 16.44 34.69 14.5 31.74 16.79 35.16 14.81 31.95 16.93 35.38 14.95 32.61 17.4 36.06 15.41 32.91 17.61 36.37 15.61 33.3 17.88 36.77 15.88 33.88 18.29 37.28 16.33 33.89 18.73 37.3 16.76 33.9 19.64 37.35 17.65 33.91 20.16 37.38 18.17 33.92 20.68 37.4 18.67 33.93 20.99 37.42 18.97 33.94 21.46 37.44 19.44 33.95 22.06 37.49 20.01 33.95 22.57 37.53 20.5 33.96 23.04 37.56 20.96 33.98 23.76 37.62 21.66 33.99 24.43 37.67 22.3 34 24.9 37.73 22.74 34 25.3 37.78 23.12 34.01 25.58 37.81 23.38 34.02 26.14 37.88 23.91 34.03 26.7 37.95 24.44 34.04 27.53 38.06 25.21 34.05 28.04 38.15 25.67 34.06 28.85 38.29 26.41 34.07 29.38 38.38 26.9 34.09 30.33 38.56 27.75 34.1 31.04 38.71 28.38 34.11 31.33 38.78 28.64"/><polyline class="cls-1" points="29.2 0.53 29.39 0.42 29.21 1.11 29.91 0.7 29.22 1.43 30.11 0.92 29.39 1.71 30.29 1.19 29.66 2.17 30.57 1.65 29.9 2.57 30.81 2.04 30.29 3.23 31.21 2.7 30.74 3.98 31.66 3.45 30.99 4.36 31.9 3.84 31.4 4.88 32.31 4.36 31.58 5.11 32.49 4.58 31.8 5.39 32.72 4.86 32.12 5.8 33.05 5.27 32.54 6.33 33.47 5.79 32.72 6.56 33.66 6.02 33.3 7.22 34.21 6.7 33.74 7.67 34.67 7.14 34.12 8.04 35.05 7.5 34.47 8.4 35.42 7.85 34.79 8.72 35.75 8.16 35.38 9.31 36.36 8.74 36.02 9.84 36.96 9.3 36.75 10.4 37.72 9.85 37.3 10.84 38.3 10.26 37.95 11.34 38.97 10.75 38.34 11.65 39.39 11.05 38.59 11.8 39.61 11.21 38.85 11.96 39.85 11.38 39.49 12.34 40.49 11.76 40.09 12.71 41.14 12.11 40.37 12.88 41.43 12.26 41.16 13.35 42.27 12.71 42.03 13.79 43.12 13.16 42.4 13.96 43.46 13.34 42.9 14.18 43.98 13.55 43.27 14.34 44.38 13.69 44.19 14.75 45.38 14.06 44.54 14.9 45.76 14.2 45.36 15.21 46.6 14.5 46.16 15.45 47.34 14.77 47.08 15.72 48.34 14.99 48.14 16.03 49.52 15.23 48.7 16.2 50.15 15.37 50.05 16.42 51.43 15.63 51.25 16.61 52.76 15.73 51.64 16.67 53.21 15.76 52.46 16.79 54.15 15.81 53.19 16.86 54.93 15.86 54.55 16.89 56.22 15.92 55.89 16.91 57.55 15.95 56.51 16.92 57.88 16.13 57.21 17.19 58.23 16.6 57.15 18.2 58.26 17.55 57.09 19.05 58.2 18.41 57.06 19.54 58.17 18.9 57.02 20.18 58.13 19.54 56.98 20.75 58.09 20.12 56.92 21.75 58.02 21.12 56.88 22.35 57.98 21.72 56.83 23.15 57.92 22.52 56.73 23.96 57.87 23.31 56.66 24.4 57.83 23.72 56.59 24.8 57.77 24.12 56.45 25.66 57.62 24.98 56.33 26.33 57.51 25.65 56.23 26.93 57.4 26.25 56.15 27.4 57.32 26.72 56 28.26 57.17 27.58 55.91 28.8 57.08 28.13 55.69 29.93 56.89 29.23 55.49 30.62 56.78 29.88 55.23 31.53 56.53 30.79 55.12 31.93 56.42 31.18 54.98 32.43 56.28 31.68 54.86 32.86 56.15 32.12 54.66 33.56 55.96 32.81 54.49 34.18 55.78 33.43 54.19 35.25 55.48 34.5 53.83 36.17 55.24 35.36 53.52 36.92 54.99 36.08 53.01 38.21 54.47 37.36 52.81 38.7 54.27 37.85 52.59 39.24 54.06 38.39 52.19 40.22 53.66 39.38 51.91 40.85 53.41 39.99 51.4 41.81 53.06 40.85 50.97 42.6 52.69 41.61 50.29 43.87 52.01 42.88 50.04 44.34 51.76 43.35 49.19 45.84 50.97 44.81 48.41 46.97 50.44 45.81 47.46 48.38 49.54 47.17 46.7 49.49 48.78 48.28 46.37 49.96 48.46 48.76 44.79 51.85 47.36 50.37 43.66 53.19 46.33 51.65 42.16 54.82 45.06 53.15 40.61 56.33 44.04 54.36 39.63 57.29 43.29 55.18 38.82 58.06 42.53 55.92 37.02 59.53 41.45 56.97 35.36 60.89 40.45 57.95 33.37 62.34 39.69 58.69 30.26 64.78 37.03 60.87 30.28 65.53 32.22 64.4"/></svg>