<svg id="Layer_1_copy" data-name="Layer 1 copy" xmlns="http://www.w3.org/2000/svg" viewBox="0 0 120.26 117.61"><defs><style>.cls-1{fill:none;stroke:#394170;stroke-linecap:round;stroke-linejoin:round;stroke-width:1.22px;}</style></defs><title>pumas</title><g id="dzPtQ0.tif"><g id="_Group_" data-name="&lt;Group&gt;"><polyline id="_Path_" data-name="&lt;Path&gt;" class="cls-1" points="69.01 92.9 71.52 91.45 68.44 95.42 75.61 91.28 69.16 97.33 79.7 91.25 70.49 98.4 82.93 91.22 72.5 98.86 101.7 82 76.41 98.88 100.89 84.75 78.96 98.88 100.39 86.51 81.72 98.89 99.99 88.34 85.27 98.89 99.5 90.67 88.48 98.89 99.28 92.66 92.31 98.89 99.03 95.01 95.98 98.81 98.19 97.54"/><polyline id="_Path_2" data-name="&lt;Path&gt;" class="cls-1" points="74.91 41.5 117.33 17 78.19 41.48 118.02 18.49 82.07 41.48 118.69 20.34 84.77 41.48 119.09 21.66 88.32 41.48 119.56 23.45 91.01 41.48 119.65 24.95 94.64 42.05 119.65 27.61 93.39 45.45 119.5 30.38 91.8 48.12 119.02 32.41 83.08 55.73 117.74 35.72 82.88 58.13 115.47 39.31 83.12 60.1 113.07 42.8 83.29 61.51 112.09 44.88 83.58 63.95 111.09 48.07 83.82 65.92 110.53 50.5 84.06 67.91 110.01 52.92 84.25 69.56 109.58 54.94 84.42 70.95 109.21 56.64 84.72 73.48 108.47 59.77 85.01 75.85 107.72 62.74 85.2 77.44 107.21 64.73 85.37 78.85 106.76 66.5 85.53 80.2 106.21 68.25 85.83 82.64 105.22 71.44 86.11 85.05 104.24 74.58 86.33 86.84 103.4 76.98 86.49 88.16 102.78 78.75 86.63 89.64 102.14 80.68"/><polyline id="_Path_3" data-name="&lt;Path&gt;" class="cls-1" points="26.28 41.54 87.6 6.13 29.11 41.48 89.56 6.59 32.83 41.48 92.25 7.17 37.51 41.47 95.91 7.75 41.83 41.46 99.59 8.11 45.58 41.53 103.14 8.3 46.52 43.43 106.69 8.69 46.28 45.92 109.4 9.48 46.14 47.45 110.72 10.17 45.95 49.45 112.34 11.12 45.71 51.93 114.03 12.49 45.49 54.23 115.31 13.92 45.26 56.73 116.53 15.58 45.09 58.47 73.86 41.86 44.88 60.7 73.81 44 44.73 62.27 73.94 45.41 44.47 64.99 74.16 47.85 44.23 67.56 74.36 50.16 44.06 69.28 74.5 51.7 43.8 71.97 74.72 54.12 43.59 74.14 74.89 56.06 43.41 76.6 75.09 58.31 44 77.83 75.24 59.79 46.41 78.03 75.4 61.3 49.6 78.03 75.58 63.04 53.66 78.03 75.8 65.25 57.96 78.03 76.04 67.58 62.17 78.02 76.28 69.88 65.94 78.02 76.49 71.93 68.5 78.02 76.63 73.33 71.7 78.01 76.81 75.06 75.44 77.98 76.85 77.16"/><polyline id="_Path_4" data-name="&lt;Path&gt;" class="cls-1" points="6.37 12.52 11.46 9.58 2.73 17.31 18.34 8.3 1.7 19.95 22.46 7.96 1.02 22.75 27.85 7.26 0.76 24.41 32.32 6.19 0.65 25.98 37.08 4.95 0.61 28.23 43.98 3.18 0.8 30.15 49.95 1.77 1.27 32.43 56.03 0.81 2 34.63 60.91 0.61 2.87 36.53 64.76 0.8 3.98 38.12 67.92 1.2 4.88 39.4 70.31 1.62 5.94 40.88 72.99 2.18 6.94 42.43 75.56 2.81 7.81 44.18 78.21 3.53 8.45 45.76 80.48 4.17 9 47.4 82.73 4.82 9.44 49.1 85.04 5.45 9.92 51.36 25.69 42.26 10.36 53.51 26.41 44.24 10.69 55.12 27.06 45.67 11 56.64 27.75 46.97 11.36 58.43 28.67 48.44 11.92 60.62 30 50.18 12.56 63.01 31.77 51.92 13.06 64.86 33.29 53.18 13.51 66.48 34.79 54.2 14.2 68.69 36.93 55.57 14.7 70.33 37.49 57.17 15.36 72.45 37.19 59.85 15.79 73.79 36.98 61.55 16.51 76.01 36.64 64.39 16.92 77.24 36.45 65.96 17.45 78.87 36.2 68.05 17.86 80.1 36.01 69.62 18.45 81.99 35.72 72.02 19.09 84.1 35.4 74.68 19.58 85.89 35.13 76.91 20.09 87.87 34.84 79.35 20.48 89.64 34.58 81.5 20.78 91.35 34.34 83.52 21.09 93.69 34.01 86.22 21.44 95.7 33.73 88.61 22.33 97.95 34.26 91.06 24.29 98.84 37.44 91.25 27.44 98.9 40.68 91.26 31.34 98.9 44.56 91.26 35.88 98.89 48.78 91.45 39.27 98.89 50.71 92.28 41.92 98.88 51.49 93.36 46.24 98.88 51.74 95.7"/><polyline id="_Path_5" data-name="&lt;Path&gt;" class="cls-1" points="41.81 110.12 44.39 108.63 41.04 113.26 49.35 108.46 41.56 115 52.9 108.45 43.14 116.49 57.09 108.44 44.88 117 59.7 108.44 47.5 117 62.33 108.44 51.34 117 66.16 108.44 54.85 117 69.68 108.44 59.28 117 74.11 108.44 63.81 117 77.86 108.89 67.99 117 79.55 110.32 71.85 117 80.13 112.22 74.97 117 79.97 114.11"/></g></g></svg>