<svg id="Layer_1_copy" data-name="Layer 1 copy" xmlns="http://www.w3.org/2000/svg" viewBox="0 0 58.71 66.6"><defs><style>.cls-1,.cls-2{fill:none;stroke:#cf2f3a;stroke-linecap:round;stroke-linejoin:round;}.cls-1{stroke-width:0.67px;}.cls-2{stroke-width:0.67px;}.cls-3{fill:#cf2f3a;}</style></defs><title>queretaro</title><polyline class="cls-1" points="2.86 15.64 8.03 12.66 6.09 14.54 11.28 11.54 10.84 12.92 16.04 9.91 13.19 12.11 18.39 9.11 15.22 11.42 20.43 8.41 20.05 9.77 25.28 6.75 24.9 8.11 30.15 5.08 28.06 7.03 33.32 4 31.75 5.77 37.02 2.73 36.59 4.12 41.88 1.07 39.23 3.22 44.22 0.34 41.92 2.3 44.4 0.87 43.45 1.77 44.5 1.17 43.79 2.71 44.83 2.12 43.98 3.25 45.01 2.65 44.17 3.79 45.2 3.19 44.47 4.64 45.49 4.06 44.64 5.13 45.65 4.54 44.81 5.63 45.83 5.05 45.15 6.6 46.16 6.02 45.51 7.61 46.5 7.03 45.7 8.15 46.69 7.58"/><polyline class="cls-1" points="5.4 23.1 9.45 20.76 7.81 22.28 11.87 19.94 12.28 20.75 16.34 18.41 13.86 20.21 17.92 17.87 17.09 19.11 21.14 16.77 19.93 18.14 23.99 15.79 24.17 16.69 28.23 14.35 26.43 15.92 30.49 13.57 29.29 14.94 33.35 12.6 32.24 13.93 36.3 11.59 35.07 12.97 39.13 10.62 37.92 11.99 41.98 9.65 41.79 10.67 46.76 7.8 43.95 9.93 46.91 8.22 46.05 9.37 47.09 8.77 46.38 10.32 47.42 9.72 46.56 10.86 47.6 10.25 46.9 11.85 47.94 11.25 47.13 12.53 48.17 11.93 47.47 13.51 48.51 12.91 47.62 13.94 48.66 13.35 47.97 14.95 49 14.36 48.16 15.52 49.19 14.92 48.42 16.27 49.45 15.68 48.62 16.87 49.65 16.27 48.76 17.28 49.79 16.68 48.98 17.93 50.01 17.33 49.12 18.32 50.15 17.73 49.44 19.24 50.46 18.65 49.54 19.55 50.57 18.96 49.79 20.28 50.82 19.69 50.11 21.22 51.14 20.63 50.21 21.51 51.24 20.92 50.47 22.27 51.5 21.68 50.72 23 51.74 22.41 50.91 23.54 51.93 22.95 51.24 24.51 52.26 23.92 51.56 25.45 52.58 24.86 51.84 26.25 52.85 25.66 52.17 27.23 53.19 26.64 52.39 27.87 53.41 27.29 52.6 28.47 53.61 27.89 52.82 29.11 53.83 28.53 53.12 29.98 54.13 29.4 53.4 30.79 54.4 30.21 53.57 31.29 54.57 30.71 53.66 31.56 54.67 30.98 53.95 32.41 54.95 31.83 54.16 33.04 55.17 32.46 54.42 33.77 55.42 33.19 54.63 34.38 55.63 33.8 54.94 35.3 55.94 34.72 55.09 35.72 56.08 35.14 55.37 36.56 56.37 35.99 55.64 37.34 56.64 36.77 55.84 37.93 56.84 37.35 56.17 38.88 57.16 38.3 56.32 39.33 57.32 38.76 56.48 39.79 57.47 39.22 56.6 40.15 57.59 39.57 56.85 41.22 57.88 40.62 56.98 41.86 58.03 41.25 57.06 42.21 58.11 41.6 57.21 43 58.27 42.38 57.2 43.36 58.29 42.73 57.19 44.19 58.32 43.54 57.19 44.81 58.35 44.14 57.18 45.27 58.37 44.58 57.05 46.26 58.27 45.56 56.93 46.84 58.2 46.11 56.69 47.99 58.06 47.2 56.21 49.43 57.68 48.58 55.94 50.13 57.5 49.23 55.39 51.43 57.02 50.49 54.92 52.27 56.7 51.24 54.42 53.18 56.35 52.06 53.45 54.64 55.59 53.41 52.45 55.99 54.89 54.58 50.87 57.75 53.79 56.06 50.02 58.64 53.27 56.76 47.5 60.75 52.09 58.1"/><polyline class="cls-1" points="0.34 15.47 1.11 15.02 0.44 15.78 2.69 14.48 0.72 16.61 6.89 13.05 1.04 17.53 2.04 16.95 1.34 18.4 2.34 17.82 1.66 19.33 2.67 18.75 1.9 20.05 2.92 19.46 1.99 20.32 3.01 19.73 2.13 20.71 3.15 20.12 2.46 21.69 3.49 21.09 2.66 22.28 3.7 21.68 2.86 22.88 3.9 22.27 3.02 23.34 4.62 22.41 3.25 24 8.01 21.25 3.43 24.55 4.42 23.98 3.64 25.16 4.63 24.59 3.97 26.12 4.96 25.55 4.22 26.86 5.21 26.29 4.51 27.73 5.51 27.15 4.85 28.7 5.84 28.13 5.06 29.33 6.05 28.76 5.3 30.03 6.29 29.46 5.52 30.67 6.51 30.1 5.85 31.64 6.84 31.07 6.18 32.6 7.17 32.03 6.4 33.25 7.39 32.67 6.55 33.71 7.54 33.13 6.85 34.57 7.84 34 6.98 34.97 7.97 34.39 7.17 35.51 8.16 34.94 7.28 35.84 8.27 35.27 7.43 36.26 8.42 35.69 7.69 37.04 8.68 36.47 7.94 37.76 8.93 37.19 8.27 38.73 9.26 38.15 8.38 39.08 9.38 38.5 8.58 39.65 9.57 39.08 8.74 40.12 9.73 39.54 8.84 40.42 9.83 39.85 9.14 41.29 10.13 40.72 9.45 42.19 10.44 41.62 9.64 42.76 10.63 42.19 9.78 43.18 10.77 42.6 9.91 43.55 10.9 42.98 10.24 44.51 11.23 43.94 10.33 44.79 11.32 44.22 10.47 45.2 11.46 44.63 10.7 45.87 11.69 45.3 10.91 46.48 11.9 45.91 11.22 47.4 12.21 46.83 11.43 48.01 12.42 47.44 11.53 48.31 12.52 47.74 11.68 48.76 12.68 48.18 11.94 49.51 12.93 48.94 12.08 49.92 13.07 49.35 12.35 50.71 13.34 50.14 12.7 51.74 13.69 51.17 13.05 52.76 14.04 52.18 13.23 53.3 14.22 52.73 13.37 53.72 14.37 53.15 13.66 54.56 14.65 53.99 13.92 55.21 14.89 54.65 14.2 55.83 15.19 55.26 14.4 56.29 15.4 55.71 14.66 56.86 15.68 56.28 15.07 57.52 16.01 56.98 15.37 57.95 16.34 57.38 15.84 58.61 16.85 58.03 16.31 59.23 17.33 58.64 16.52 59.44 17.52 58.87 16.81 59.73 17.78 59.17 17.54 60.46 18.58 59.86 17.74 60.66 18.8 60.05 18.5 61.27 19.53 60.67 19.11 61.69 20.12 61.11 19.56 62.01 20.61 61.41 20.2 62.45 21.28 61.82 20.68 62.79 21.81 62.14 21.14 63.09 22.28 62.43 22.19 63.57 23.35 62.9 23.33 64.08 24.51 63.4 23.82 64.3 25 63.62 24.19 64.48 25.44 63.76 25.37 64.9 26.73 64.12 26.14 65.12 27.49 64.34 27.43 65.48 28.87 64.66 28.57 65.75 30.14 64.85 29.75 65.92 31.31 65.03 30.32 66.01 31.93 65.08 31.09 66.13 32.85 65.11 31.62 66.2 33.49 65.13 33.62 66.25 35.61 65.11 35.42 66.26 37.82 64.88 37.8 66 41.04 64.13 39 65.81 44.05 62.89 42.55 64.76 48.73 61.2"/><g id="_Group_" data-name="&lt;Group&gt;"><polyline class="cls-2" points="12.32 14.06 13.2 13.56 12.63 14.92 13.66 14.33 12.89 15.67 13.92 15.08 13.03 16.04 14.04 15.45 13.06 16.58 14.17 15.94"/><polyline class="cls-2" points="9.95 14.88 10.83 14.37 10.19 15.58 11.19 15 10.42 16.28 11.43 15.69 10.81 17.23 11.8 16.66 11.45 17.86 14.22 16.26 11.96 17.99 14.15 16.72"/></g><g id="_Group_2" data-name="&lt;Group&gt;"><line class="cls-2" x1="16.89" y1="14.66" x2="17.74" y2="14.17"/><line class="cls-2" x1="16.43" y1="13.32" x2="17.41" y2="12.76"/><polyline class="cls-2" points="14.25 13.41 15.05 12.95 14.51 14.18 17.33 12.56 14.68 14.68 15.72 14.09 14.97 15.52 17.66 13.96 15.31 16.52 17.34 15.35 16.64 16.5 18.4 15.49"/></g><g id="_Group_3" data-name="&lt;Group&gt;"><line class="cls-2" x1="24.66" y1="12.01" x2="25.52" y2="11.52"/><line class="cls-2" x1="24.2" y1="10.67" x2="25.19" y2="10.1"/><polyline class="cls-2" points="22.02 10.76 22.83 10.3 22.15 11.13 24.78 9.61 22.24 11.41 25.07 9.78 22.35 11.72 23.37 11.13 22.66 12.64 25.35 11.09 22.89 13.3 23.92 12.7 23.35 14.23 26.1 12.64 25.45 13.49 26.25 13.03"/></g><g id="_Group_4" data-name="&lt;Group&gt;"><polyline class="cls-2" points="25.5 9.57 26.3 9.11 25.73 10.24 28.94 8.39 27.03 10.28 28.06 9.69 27.32 11.1 28.35 10.5 27.48 11.56 28.51 10.96 27.67 12.09 28.7 11.49 28.04 12.63 28.92 12.12"/></g><g id="_Group_5" data-name="&lt;Group&gt;"><polyline class="cls-1" points="39.43 5.6 40.53 4.96 40.16 6.14 41.08 5.6 40.38 6.95 41.35 6.39 40.35 7.3 41.39 6.7"/><polyline class="cls-1" points="37.76 5.57 39.2 4.74 37.43 6.53 39 5.62 37.58 7.32 38.56 6.75 37.76 7.61 38.66 7.08 38.03 8.04 38.92 7.53 38.46 8.42 39.58 7.77 39.44 8.63 41.22 7.61"/></g><g id="_Group_6" data-name="&lt;Group&gt;"><polyline class="cls-1" points="35.43 8.48 36.17 8.05 35.71 8.66 36.63 8.13 36.17 9.08 37.17 8.5 36.98 9.55 37.78 9.09"/><polyline class="cls-1" points="35.34 6.85 36.42 6.22 35.74 7.31 36.75 6.73"/><polyline class="cls-1" points="33.23 6.97 34 6.53 33.48 7.69 34.84 6.91 33.64 8.15 34.63 7.58 33.85 8.79 36.79 7.1 34.05 9.38 35.02 8.82 34.21 9.83 35.2 9.26 34.36 10.27 35.36 9.69"/></g><g id="_Group_7" data-name="&lt;Group&gt;"><polyline class="cls-1" points="32.06 10.52 33.32 9.79 32.61 10.69 33.6 10.12 32.98 10.92 33.86 10.42"/><polyline class="cls-1" points="31.09 8.6 31.9 8.13 31.73 9.44 32.59 8.94"/><polyline class="cls-1" points="30.14 8.04 31.08 7.5 30.11 9.07 30.97 8.58 30.1 9.48 31 8.96 30.06 10.55 31.08 9.96 30.02 11.8 31.07 11.2"/></g><g id="_Group_8" data-name="&lt;Group&gt;"><polyline class="cls-1" points="20.25 13.66 20.98 13.23 21.07 14.35 22.07 13.77 21.78 14.73 22.59 14.26"/><polyline class="cls-1" points="20.15 12.03 21.23 11.4 20.55 12.49 21.56 11.91"/><polyline class="cls-1" points="18.05 12.15 18.82 11.7 18.27 12.79 20.94 11.26 18.53 13.54 19.53 12.96 18.78 14.28 21.44 12.74 18.91 14.67 19.89 14.11 19.24 15.63 20.25 15.04"/></g><g id="_Group_9" data-name="&lt;Group&gt;"><polyline class="cls-1" points="7.96 16.32 9.02 15.7 8.65 16.89 9.58 16.35 8.85 17.72 9.88 17.13"/><polyline class="cls-1" points="8.02 18.05 8.34 17.86 8.46 18.3 9.94 17.44"/><polyline class="cls-1" points="6.25 16.31 7.69 15.48 5.97 17.05 8.64 15.51 6.04 17.84 7.01 17.27 6.44 18.72 7.35 18.19 7.34 19.34 9.92 17.85 9.61 18.84 10.47 18.34 10.12 18.96 10.48 18.75"/></g><path id="_Path_" data-name="&lt;Path&gt;" class="cls-3" d="M1136.34-129.76l3.22,9.44c0.56-.14,1.11-0.29,1.63-0.47a20.14,20.14,0,0,0,3.17-1.41l-3.24-9.51a14.56,14.56,0,0,1-3.14,1.51A14.51,14.51,0,0,1,1136.34-129.76Z" transform="translate(-1100.02 184.11)"/><g id="_Group_10" data-name="&lt;Group&gt;"><polyline class="cls-2" points="23.74 17.37 24.53 16.91 24.04 18.23 28.54 15.64 24.37 19.22 28.88 16.62 24.54 19.71 29.04 17.11 24.71 20.21 29.22 17.61 24.9 20.77 29.41 18.17 25.2 21.64 29.71 19.03 25.29 21.91 29.8 19.3 25.57 22.72 30.08 20.11 25.73 23.21 30.25 20.61 26.09 24.25 30.6 21.64 26.41 25.2 30.93 22.59 26.67 25.96 31.2 23.35 26.8 26.33 31.32 23.72 27.84 26.78 31.62 24.6 31.49 25.81 31.95 25.54"/></g><g id="_Group_11" data-name="&lt;Group&gt;"><polyline class="cls-2" points="35.77 13.27 36.56 12.81 35.89 13.62 38.38 12.18 36.03 14.05 40.53 11.45 36.26 14.71 40.76 12.12 36.57 15.62 41.07 13.02 36.77 16.2 41.27 13.6 36.93 16.68 41.43 14.08 37.26 17.65 41.76 15.05 37.56 18.51 42.06 15.91 37.7 18.93 42.2 16.33 38 19.82 42.5 17.22 38.16 20.28 42.66 17.69 38.35 20.84 42.85 18.24 38.57 21.47 43.07 18.87 38.66 21.76 43.16 19.16 38.99 22.71 43.49 20.11 39.27 23.54 43.77 20.94 39.37 23.84 43.88 21.24 39.59 24.46 44.09 21.86 39.71 24.84 44.21 22.24 39.88 25.32 44.38 22.72 40.05 25.84 44.56 23.24 40.31 26.59 44.81 24 40.66 27.62 45.16 25.02 41.54 28.33 45.51 26.04 41.85 28.55 45.62 26.37 42.22 28.81 45.76 26.76 42.97 29.42 46.06 27.64 43.37 29.83 46.24 28.18 43.77 30.23 46.42 28.7 44.37 30.84 46.69 29.5 44.91 31.58 46.99 30.38 45.09 31.84 47.09 30.68 45.46 32.39 47.31 31.32 45.65 32.65 47.42 31.63 45.99 33.19 47.63 32.25 46.16 33.58 47.77 32.66 46.58 34.51 48.1 33.63 46.89 35.21 48.35 34.36 47.13 35.91 48.59 35.07 47.27 36.44 48.76 35.57 47.37 36.81 48.89 35.94 47.55 37.49 49.11 36.59 47.66 38.46 49.41 37.45 47.72 38.95 49.55 37.89 47.77 39.8 49.8 38.63 47.77 40.72 50.07 39.39 47.68 41.85 50.37 40.29 47.57 42.63 50.58 40.89 48.19 43.23 50.85 41.7 48.63 43.44 50.98 42.08 49.8 43.99 51.33 43.11 50.63 44.4 51.59 43.85 50.29 45.27 51.78 44.41 50.08 45.72 51.87 44.69 49.8 46.3 51.99 45.03 49.17 47.62 52.26 45.83 48.75 48.5 52.44 46.36 48.25 49.9 52.76 47.29 48.47 50.52 52.98 47.92 48.82 51.55 53.33 48.95 49.03 52.16 53.53 49.56 49.27 52.89 53.78 50.29 49.43 53.36 53.94 50.76 49.56 53.74 54.07 51.14 49.81 54.46 54.27 51.89 50.03 55.1 53.59 53.04 50.28 55.85 52.56 54.54 50.4 56.18 52.09 55.2 50.58 56.73 50.97 56.51"/></g><g id="_Group_12" data-name="&lt;Group&gt;"><polyline class="cls-2" points="29.76 15.32 30.55 14.86 29.96 15.9 33.6 13.8 30.07 16.24 34.57 13.64 30.2 16.61 34.7 14.02 30.41 17.24 34.91 14.64 30.59 17.77 35.09 15.18 30.9 18.67 35.4 16.07 31.25 19.69 35.74 17.09 31.43 20.22 35.92 17.62 31.69 20.98 36.19 18.38 31.8 21.31 36.3 18.71 31.94 21.73 36.44 19.13 32.15 22.33 36.65 19.73 32.41 23.1 36.91 20.5 32.52 23.44 37.02 20.84 32.87 24.44 37.37 21.85 33.11 25.15 37.61 22.55 33.38 25.7 37.81 23.15 34.37 25.8 38 23.71 35.27 25.89 38.17 24.22 36.77 26.15 38.49 25.16 37.98 26.54 38.8 26.07 38.87 26.83 39.03 26.74"/></g><path id="_Path_2" data-name="&lt;Path&gt;" class="cls-3" d="M1142.42-132.66l-0.28.22,3.28,9.61a24.89,24.89,0,0,0,2.62-1.87c0.58-.47,1.14-1,1.68-1.5l-3.14-9.21-1.15-.59A14.13,14.13,0,0,1,1142.42-132.66Z" transform="translate(-1100.02 184.11)"/><polyline class="cls-1" points="45.3 47.18 49.55 44.73 45.9 47.48 49.26 45.54 46.98 48.03 48.52 47.14 47.41 48.25 48.23 47.78 47.72 48.41 48.02 48.23"/><polyline class="cls-1" points="30.76 31.98 38.45 27.55 32.03 31.7 38.87 27.75 34.06 31.64 39.91 28.26 35.61 31.95 40.91 28.89 36.51 32.25 41.54 29.34 37.66 32.8 42.43 30.05 38.55 33.44 43.15 30.79 38.95 33.76 43.49 31.14 39.28 34.02 43.77 31.42"/><polyline class="cls-1" points="27.99 37.92 32.34 35.41 29.39 38.29 35.32 34.87 29.94 39.02 31.2 38.29 30.25 39.86 31.15 39.34 30.56 40.78 31.46 40.25 30.78 41.41 31.68 40.88 31.07 42.25 31.97 41.73 31.16 42.53 32.06 42.01 31.32 42.98 32.22 42.46 31.46 43.39 32.36 42.87"/><polyline class="cls-1" points="32.97 36.99 37.25 34.52 34.07 37.34 43.95 31.64 34.55 38.04 35.71 37.37 34.79 38.74 35.74 38.2 34.92 39.13 35.85 38.59 35.26 40.13 36.19 39.6 35.51 40.85 36.43 40.32 35.75 41.56 36.67 41.02"/><polyline class="cls-1" points="37.29 36.05 44.23 32.04 38.33 36.23 44.61 32.61 38.84 36.86 40.06 36.15 39.06 37.39 39.99 36.85 39.27 38.01 40.16 37.49 39.48 38.62 40.36 38.11 39.68 39.22 40.56 38.71 39.87 39.79 40.74 39.28"/><polyline class="cls-1" points="40.57 35.6 44.94 33.08 40.79 36.07 45.23 33.51 41.11 36.73 45.53 34.18 41.29 37.11 45.7 34.56 41.57 37.97 46.06 35.38 41.81 39.01 46.39 36.36 41.85 39.56 46.52 36.86 41.87 40.16 46.67 37.39 41.89 40.68 46.76 37.87"/><polyline class="cls-1" points="41.12 40.72 41.36 40.58 40.85 41.28 41.72 40.78 40.32 42.37 46.85 38.6 39.49 44.06 46.95 39.75 39.34 44.54 46.95 40.15 39.97 44.88 46.93 40.86 40.26 45.14 46.92 41.3 39.73 45.85 46.86 41.74 38.88 46.72 46.8 42.15"/><polyline class="cls-1" points="24.84 39.83 26.12 39.09 25.24 40.72 26 40.28 25.45 41.32 26.15 40.92 25.75 42.18 26.45 41.78 25.94 42.74 26.65 42.34 26.27 43.71 26.98 43.3 26.61 44.71 27.33 44.3 26.82 45.35 27.55 44.93"/><polyline class="cls-1" points="24.73 29.53 28.08 27.59 22.64 31.66 31.31 26.65 21.82 32.78 32.57 26.58 21.12 34.04 34.08 26.56 20.5 35.35 35.45 26.72 20.26 36.18 36.35 26.89 19.89 37.45 37.55 27.24 19.77 38.41 27.41 34 19.62 39.69 25.74 36.16 19.63 40.29 26.14 36.53 19.67 40.95 27.86 36.22 19.71 41.51 29.34 35.95 19.78 42.33 31.51 35.56 19.92 42.92 24.7 40.16 20.13 43.78 24.74 41.12 20.22 44.14 24.78 41.5 20.47 44.91 24.98 42.31 20.73 45.51 25.13 42.97 20.85 45.77 25.25 43.23 21.04 46.21 25.46 43.66 21.17 46.49 25.59 43.94 21.62 47.28 25.98 44.76 22.16 48.07 26.58 45.52 22.66 48.81 27.14 46.22 23.4 49.58 28 46.93 23.88 50.08 28.56 47.38 24.47 50.64 29.37 47.81 24.9 50.95 29.89 48.07 25.56 51.42 30.79 48.4 26.52 52.06 32.26 48.75 27.52 52.55 34.06 48.77 28.31 52.93 36.76 48.05 28.97 53.13 46.67 42.91 29.67 53.34 46.79 43.45 30.27 53.51 47.3 43.68 31.51 53.71 48.17 44.09 33.18 53.85 49.24 44.58 35.43 53.7 43.85 48.84 37.42 53.21 42.39 50.34"/><path id="_Compound_Path_" data-name="&lt;Compound Path&gt;" class="cls-3" d="M1128.2-155a0.91,0.91,0,0,0-.51-0.21,1.16,1.16,0,0,0-.34,0h0l0.09,0.27h0a0.45,0.45,0,0,1,.33,0,0.65,0.65,0,0,1,.37.34,0.65,0.65,0,0,1,.08.48,0.46,0.46,0,0,1-.26.33l-0.1.06h0l0.1,0.29h0l0.08,0a0.64,0.64,0,0,0,.29-0.28,0.67,0.67,0,0,0,.12-0.37,0.19,0.19,0,0,1,0,.06,2,2,0,0,1,.16.4,1.09,1.09,0,0,1,.05.36,0.67,0.67,0,0,1-.08.27,0.62,0.62,0,0,1-.22.2,0.53,0.53,0,0,1-.22.06h0l0.1,0.29h0l0.25-.1a1,1,0,0,0,.4-0.42,1,1,0,0,0,.07-0.59,2.44,2.44,0,0,0-.31-0.81A2,2,0,0,0,1128.2-155Zm-0.85-.17-0.17.08a0.84,0.84,0,0,0-.44.54,1,1,0,0,0,.12.73,0.87,0.87,0,0,0,.54.47,0.75,0.75,0,0,0,.56,0l-0.1-.29a0.67,0.67,0,0,1-.33,0,0.65,0.65,0,0,1-.35-0.31,0.72,0.72,0,0,1-.08-0.5,0.51,0.51,0,0,1,.26-0.36l0.09,0-0.09-.27h0Zm0.83,2.44h-0.11a0.62,0.62,0,0,1-.3-0.22l-0.28.18a0.77,0.77,0,0,0,.47.33,0.56,0.56,0,0,0,.31,0l-0.1-.29h0Z" transform="translate(-1100.02 184.11)"/><path id="_Path_3" data-name="&lt;Path&gt;" class="cls-3" d="M1124-152.64a1.18,1.18,0,0,1,.08.48,2.38,2.38,0,0,1-.1.6l0.25,0.22a1.48,1.48,0,0,0,.12-0.39,2.16,2.16,0,0,0,0-.4l1.64,1.48,0.23-.25-2.1-1.91Z" transform="translate(-1100.02 184.11)"/><path id="_Path_4" data-name="&lt;Path&gt;" class="cls-3" d="M1130.63-154.9l0.33,0a0.74,0.74,0,0,1,.17-0.22,0.61,0.61,0,0,1,.29-0.12,0.58,0.58,0,0,1,.47.1,0.67,0.67,0,0,1,.24.44,0.74,0.74,0,0,1-.1.52,0.56,0.56,0,0,1-.39.26,0.51,0.51,0,0,1-.37-0.09,0.66,0.66,0,0,1-.25-0.37l-0.36.09a0.89,0.89,0,0,0,.36.53,1,1,0,0,0,.66.11,1,1,0,0,0,.68-0.46,1,1,0,0,0,.11-0.68,0.87,0.87,0,0,0-.35-0.62,0.88,0.88,0,0,0-.66-0.16,0.93,0.93,0,0,0-.5.26l0-.77,1.12-.18-0.05-.32-1.39.21Z" transform="translate(-1100.02 184.11)"/><path id="_Compound_Path_2" data-name="&lt;Compound Path&gt;" class="cls-3" d="M1135.64-153.81h0a1.85,1.85,0,0,0,.24-0.31,2.31,2.31,0,0,0,.23-0.78,2.45,2.45,0,0,0,.07-0.67,1.34,1.34,0,0,0-.1-0.44,0.67,0.67,0,0,0-.23-0.32,0.77,0.77,0,0,0-.38-0.15,0.76,0.76,0,0,0-.52.07l-0.15.1h0l0.12,0.36h0l0.08-.12a0.47,0.47,0,0,1,.41-0.13,0.51,0.51,0,0,1,.37.31,1.78,1.78,0,0,1,0,.94,2.83,2.83,0,0,1-.25.79h0l0.12,0.36h0Zm-0.69.18a0.81,0.81,0,0,0,.54-0.07l0.14-.11-0.12-.36a0.57,0.57,0,0,1-.08.1,0.5,0.5,0,0,1-.44.15,0.45,0.45,0,0,1-.35-0.3,1.69,1.69,0,0,1,0-.94,2.42,2.42,0,0,1,.25-0.79l-0.12-.36a1,1,0,0,0-.25.31,3,3,0,0,0-.25.77,1.82,1.82,0,0,0,.07,1.18A0.8,0.8,0,0,0,1135-153.63Z" transform="translate(-1100.02 184.11)"/><path id="_Compound_Path_3" data-name="&lt;Compound Path&gt;" class="cls-3" d="M1145.82-146.29a1.16,1.16,0,0,0-.18-0.29,1,1,0,0,0-.29-0.16,1,1,0,0,0-.38,0,1.58,1.58,0,0,0-.21.07l0.12,0.37a0.24,0.24,0,0,1,.15,0,0.42,0.42,0,0,1,.25,0,0.65,0.65,0,0,1,.18.12,0.5,0.5,0,0,1,.1.2,0.94,0.94,0,0,1,.05.25l0.12,0.69-0.41.06,0.12,0.36,0.67-.1-0.17-1.06A1.79,1.79,0,0,0,1145.82-146.29Zm-1.07-.41a0.73,0.73,0,0,0-.18.14,0.69,0.69,0,0,0-.2.42,0.79,0.79,0,0,0-.3-0.25,0.64,0.64,0,0,0-.35,0,0.32,0.32,0,0,0-.17,0l0.12,0.36a0.35,0.35,0,0,1,.14,0,0.53,0.53,0,0,1,.26,0,0.46,0.46,0,0,1,.17.2,1.51,1.51,0,0,1,.09.34l0.09,0.6-0.35.06,0.12,0.36,1.24-.19-0.12-.36-0.56.08-0.11-.64a1.33,1.33,0,0,1,0-.42,0.48,0.48,0,0,1,.12-0.24,0.55,0.55,0,0,1,.11-0.07l-0.12-.37h0Zm-1.19.32h0a0.73,0.73,0,0,0-.18.12,0.64,0.64,0,0,0-.21.33,1.31,1.31,0,0,0,0,.54l0.16,1,0.88-.13h0l-0.12-.36h0l-0.49.06-0.09-.55a2.19,2.19,0,0,1,0-.44,0.38,0.38,0,0,1,.12-0.21l0.08-.05h0l-0.12-.36h0Z" transform="translate(-1100.02 184.11)"/><polygon id="_Path_5" data-name="&lt;Path&gt;" class="cls-3" points="29.22 49.7 29.47 49.84 29.64 49.56 29.06 49.24 27.66 48.48 27.5 48.79 28.32 49.22 27.48 50.81 27.14 51.42 27.48 51.59 27.64 51.29 28.65 49.4 29.22 49.7"/><path id="_Path_6" data-name="&lt;Path&gt;" class="cls-3" d="M1142.9-137l-0.17.13a1,1,0,0,1,.23.57,0.89,0.89,0,0,1-.21.52,0.88,0.88,0,0,1-.42.29,0.85,0.85,0,0,1-.51,0,1.72,1.72,0,0,1-.54-0.34,1.44,1.44,0,0,1-.36-0.42,0.84,0.84,0,0,1-.13-0.5,0.91,0.91,0,0,1,.24-0.5,0.74,0.74,0,0,1,.42-0.27,0.83,0.83,0,0,1,.52.06l0.17-.33a1.28,1.28,0,0,0-.72-0.08,1.23,1.23,0,0,0-.63.41,1.36,1.36,0,0,0-.31.63,1.09,1.09,0,0,0,.07.68,1.6,1.6,0,0,0,.48.63,2.22,2.22,0,0,0,.67.38,1.23,1.23,0,0,0,.69,0,1.26,1.26,0,0,0,.62-0.45,1.2,1.2,0,0,0,.24-0.39,1,1,0,0,0,.06-0.33A1.21,1.21,0,0,0,1143-137Z" transform="translate(-1100.02 184.11)"/><path id="_Path_7" data-name="&lt;Path&gt;" class="cls-3" d="M1127.12-136l-0.26-.26-0.27.27-0.88.88a1.07,1.07,0,0,1-.63.37,0.72,0.72,0,0,1-.55-0.28,0.77,0.77,0,0,1-.23-0.36,0.54,0.54,0,0,1,0-.35,1.54,1.54,0,0,1,.33-0.43l1.15-1.14-0.26-.27-1.15,1.15a2.15,2.15,0,0,0-.43.58,0.8,0.8,0,0,0,0,.53,1.24,1.24,0,0,0,.36.56,1.2,1.2,0,0,0,.58.36,0.87,0.87,0,0,0,.54,0,2,2,0,0,0,.54-0.41l0.75-.74Z" transform="translate(-1100.02 184.11)"/><polygon id="_Path_8" data-name="&lt;Path&gt;" class="cls-3" points="23.6 46.45 23.89 46.29 23.25 45.13 24.03 44.7 24.76 46.05 25.05 45.9 24.13 44.22 21.65 45.58 21.83 45.91 22.97 45.28 23.6 46.45"/><path id="_Compound_Path_4" data-name="&lt;Compound Path&gt;" class="cls-3" d="M1131.38-134.14l-0.6-.15-0.42-.1-0.12.46,0.23,0.67,0.17-.73,0.26,0.06,0.29,0.06a2.39,2.39,0,0,1,.41.14,0.32,0.32,0,0,1,.15.18,0.42,0.42,0,0,1,0,.26,0.42,0.42,0,0,1-.13.22,0.41,0.41,0,0,1-.24.09,1,1,0,0,1-.18,0l-0.18,0-0.53-.12,0.12,0.37,0.37,0.09a1.64,1.64,0,0,1,.36.12l0,0a0.38,0.38,0,0,1,.17.21,0.46,0.46,0,0,1,0,.29l0,0.08a0.38,0.38,0,0,1-.08.14,0.38,0.38,0,0,1-.19.12,0.55,0.55,0,0,1-.22,0l-0.08,0,0.12,0.36h0.09a0.62,0.62,0,0,0,.33-0.07,0.46,0.46,0,0,0,.18-0.11l0.09-.1A0.8,0.8,0,0,0,1132-132a0.79,0.79,0,0,0,0-.45,0.65,0.65,0,0,0-.33-0.33,0.73,0.73,0,0,0,.34-0.19,0.6,0.6,0,0,0,.17-0.32,0.61,0.61,0,0,0,0-.38,0.61,0.61,0,0,0-.24-0.31A1.18,1.18,0,0,0,1131.38-134.14Zm-1.14.22-0.34,1.45-0.2.82,0.52,0.12,0.54,0.12a2,2,0,0,0,.36.07l-0.12-.36-0.17,0-0.69-.16,0.22-.95,0.27,0.07-0.12-.37-0.06,0,0-.09Z" transform="translate(-1100.02 184.11)"/><polygon id="_Path_9" data-name="&lt;Path&gt;" class="cls-3" points="37.68 51.83 36.68 49.55 36.34 49.69 37.47 52.28 39.1 51.56 38.95 51.26 37.68 51.83"/><polygon id="_Path_10" data-name="&lt;Path&gt;" class="cls-3" points="44.37 45.84 42.1 44.82 42.09 44.85 41.95 45.17 42.24 45.29 44.52 46.31 45.24 44.72 44.94 44.57 44.37 45.84"/><path id="_Path_11" data-name="&lt;Path&gt;" class="cls-3" d="M1145.57-143a1.58,1.58,0,0,0-.65-0.19l-0.31,0-1.3-.17-0.06.37,1.5,0.2h0.12a1.18,1.18,0,0,1,.7.26,0.84,0.84,0,0,1,.11.61,0.75,0.75,0,0,1-.15.39,0.5,0.5,0,0,1-.27.2h0a1.65,1.65,0,0,1-.55,0l-1.61-.2,0,0.37,1.61,0.21a1.9,1.9,0,0,0,.72,0h0a0.78,0.78,0,0,0,.43-0.3A1.39,1.39,0,0,0,1146-142a1.15,1.15,0,0,0-.07-0.68A0.7,0.7,0,0,0,1145.57-143Z" transform="translate(-1100.02 184.11)"/><path id="_Compound_Path_5" data-name="&lt;Compound Path&gt;" class="cls-3" d="M1135.13-134a1.37,1.37,0,0,0-.71-0.13,1.47,1.47,0,0,0-.36.08l0.1,0.3a1,1,0,0,1,.29-0.05,0.89,0.89,0,0,1,.51.09,1,1,0,0,1,.38.37,1.55,1.55,0,0,1,.17.6,1.22,1.22,0,0,1-.2.86,0.82,0.82,0,0,1-.4.29l0.1,0.3a2.13,2.13,0,0,0,.33-0.16,1.33,1.33,0,0,0,.45-0.55,1.73,1.73,0,0,0,.09-0.79,1.58,1.58,0,0,0-.22-0.74A1.32,1.32,0,0,0,1135.13-134Zm-1.07-.05h0a1.3,1.3,0,0,0-.59.4,1.56,1.56,0,0,0-.27,1.13,1.36,1.36,0,0,0,.21.69,1.16,1.16,0,0,0,.53.48,1.2,1.2,0,0,0,.73.14,1.78,1.78,0,0,0,.34-0.07h0l-0.1-.3h0a1.24,1.24,0,0,1-.27.06,0.9,0.9,0,0,1-.72-0.24,1.14,1.14,0,0,1-.33-0.77,1.19,1.19,0,0,1,.2-0.93,1,1,0,0,1,.38-0.28h0Z" transform="translate(-1100.02 184.11)"/><path class="cls-3" d="M1136.26-140.73a2,2,0,0,1,.68.53,1.8,1.8,0,0,1,.13.19,0.62,0.62,0,0,0-.16-0.07,1.63,1.63,0,0,0-.61-0.53A0.51,0.51,0,0,0,1136.26-140.73Z" transform="translate(-1100.02 184.11)"/><path class="cls-3" d="M1136.26-140.56a1.7,1.7,0,0,1,.6.53,1,1,0,0,1-.08.46,1.2,1.2,0,0,0-.62.08,1.74,1.74,0,0,0-.5-0.45l0.07-.57A0.85,0.85,0,0,1,1136.26-140.56Z" transform="translate(-1100.02 184.11)"/><path class="cls-3" d="M1135.87-138.79a2.82,2.82,0,0,0,.3-0.64,1.16,1.16,0,0,1,.63-0.08,1.48,1.48,0,0,1,.28.56,1.49,1.49,0,0,1-.33.71,2.42,2.42,0,0,1-.55.05A2.41,2.41,0,0,0,1135.87-138.79Z" transform="translate(-1100.02 184.11)"/><path class="cls-3" d="M1136.13-138.15a2.28,2.28,0,0,1-.42.53,2.81,2.81,0,0,1-.77-0.1,1.83,1.83,0,0,1-.28-0.58,1.7,1.7,0,0,1,.45-0.54,3.35,3.35,0,0,0,.69.09A2.42,2.42,0,0,1,1136.13-138.15Z" transform="translate(-1100.02 184.11)"/><path class="cls-3" d="M1135.66-140.52l-0.08.56a1.54,1.54,0,0,0-.63.33,1.61,1.61,0,0,0-.59-0.21,0.83,0.83,0,0,1,0-.49,1.71,1.71,0,0,1,.77-0.37A0.94,0.94,0,0,1,1135.66-140.52Z" transform="translate(-1100.02 184.11)"/><path class="cls-3" d="M1134.33-140.49a1.89,1.89,0,0,1,.87-0.38,0.55,0.55,0,0,0-.09.11,1.72,1.72,0,0,0-.78.38,1.16,1.16,0,0,0-.18.06Z" transform="translate(-1100.02 184.11)"/><path class="cls-3" d="M1133.82-138.22a1.88,1.88,0,0,1-.18-1,2.54,2.54,0,0,1,.07-0.33,0.6,0.6,0,0,0,.17.29,2,2,0,0,0,.15.79,1,1,0,0,0-.06.36,0.63,0.63,0,0,1-.14-0.08h0Z" transform="translate(-1100.02 184.11)"/><path class="cls-3" d="M1134.05-137.87a1.16,1.16,0,0,1-.15-0.22L1134-138a2,2,0,0,0,.51.51l0.06,0.1A1.71,1.71,0,0,1,1134.05-137.87Z" transform="translate(-1100.02 184.11)"/><path class="cls-3" d="M1134.11-138.52a1.7,1.7,0,0,1-.15-0.78,0.92,0.92,0,0,1,.37-0.47,1.36,1.36,0,0,1,.59.2,2,2,0,0,0,.15.66,1.66,1.66,0,0,0-.45.54A1.18,1.18,0,0,1,1134.11-138.52Z" transform="translate(-1100.02 184.11)"/><path class="cls-3" d="M1135.83-137.21a1.67,1.67,0,0,1-.54,0,1.69,1.69,0,0,1-.6-0.17l-0.08-.14a0.66,0.66,0,0,0,.33-0.16,2.89,2.89,0,0,0,.78.11,0.54,0.54,0,0,0,.26.19l-0.14.14h0Z" transform="translate(-1100.02 184.11)"/><path class="cls-3" d="M1136.67-137.59a2.11,2.11,0,0,1-.69.35l0.11-.12a1.61,1.61,0,0,0,.61-0.32l0.1,0Z" transform="translate(-1100.02 184.11)"/><path class="cls-3" d="M1137.35-138.84a1.84,1.84,0,0,1-.45,1h0a0.5,0.5,0,0,1-.12,0,1,1,0,0,0,0-.4,1.51,1.51,0,0,0,.34-0.7,1,1,0,0,0,.21-0.19C1137.35-139,1137.36-138.92,1137.35-138.84Z" transform="translate(-1100.02 184.11)"/><path class="cls-3" d="M1137.07-140a1.8,1.8,0,0,0-.13-0.19,2,2,0,0,0-.68-0.53,0.51,0.51,0,0,1,0,.12,1.63,1.63,0,0,1,.61.53A0.62,0.62,0,0,1,1137.07-140Zm-0.17-.16,0,0.05h0l-0.06-.08Z" transform="translate(-1100.02 184.11)"/><path class="cls-3" d="M1136.95-140.12l0-.05,0,0,0.06,0.08h0Z" transform="translate(-1100.02 184.11)"/><path class="cls-3" d="M1135.11-140.76a0.55,0.55,0,0,1,.09-0.11,1.89,1.89,0,0,0-.87.38l-0.18.17a1.16,1.16,0,0,1,.18-0.06A1.72,1.72,0,0,1,1135.11-140.76Z" transform="translate(-1100.02 184.11)"/><path class="cls-3" d="M1136.09-137.36l-0.11.12a2.11,2.11,0,0,0,.69-0.35l0.14-.13-0.1,0A1.61,1.61,0,0,1,1136.09-137.36Z" transform="translate(-1100.02 184.11)"/><path class="cls-3" d="M1134-138l-0.1-.06a1.16,1.16,0,0,0,.15.22,1.71,1.71,0,0,0,.51.45l-0.06-.1A2,2,0,0,1,1134-138Z" transform="translate(-1100.02 184.11)"/><path class="cls-3" d="M1136.81-138.18a1,1,0,0,1,0,.4,0.5,0.5,0,0,0,.12,0h0a1.84,1.84,0,0,0,.45-1c0-.08,0-0.16,0-0.24a1,1,0,0,1-.21.19A1.51,1.51,0,0,1,1136.81-138.18Z" transform="translate(-1100.02 184.11)"/><path class="cls-3" d="M1133.84-138.21a0.63,0.63,0,0,0,.14.08,1,1,0,0,1,.06-0.36,2,2,0,0,1-.15-0.79,0.6,0.6,0,0,1-.17-0.29,2.54,2.54,0,0,0-.07.33,1.88,1.88,0,0,0,.18,1h0Z" transform="translate(-1100.02 184.11)"/><path class="cls-3" d="M1136-137.35a0.54,0.54,0,0,1-.26-0.19,2.89,2.89,0,0,1-.78-0.11,0.66,0.66,0,0,1-.33.16l0.08,0.14a1.69,1.69,0,0,0,.6.17,1.67,1.67,0,0,0,.54,0h0Z" transform="translate(-1100.02 184.11)"/><path class="cls-3" d="M1134.37-140.33a0.83,0.83,0,0,0,0,.49,1.61,1.61,0,0,1,.59.21,1.54,1.54,0,0,1,.63-0.33l0.08-.56a0.94,0.94,0,0,0-.52-0.19A1.71,1.71,0,0,0,1134.37-140.33Z" transform="translate(-1100.02 184.11)"/><path class="cls-3" d="M1135.06-138.9a2,2,0,0,1-.15-0.66,1.36,1.36,0,0,0-.59-0.2,0.92,0.92,0,0,0-.37.47,1.7,1.7,0,0,0,.15.78,1.18,1.18,0,0,0,.51.16A1.66,1.66,0,0,1,1135.06-138.9Z" transform="translate(-1100.02 184.11)"/><path class="cls-3" d="M1136.16-139.5a1.2,1.2,0,0,1,.62-0.08,1,1,0,0,0,.08-0.46,1.7,1.7,0,0,0-.6-0.53,0.85,0.85,0,0,0-.54,0l-0.07.57A1.74,1.74,0,0,1,1136.16-139.5Z" transform="translate(-1100.02 184.11)"/><path class="cls-3" d="M1136.75-138.23a1.49,1.49,0,0,0,.33-0.71,1.48,1.48,0,0,0-.28-0.56,1.16,1.16,0,0,0-.63.08,2.82,2.82,0,0,1-.3.64,2.41,2.41,0,0,1,.33.61A2.42,2.42,0,0,0,1136.75-138.23Z" transform="translate(-1100.02 184.11)"/><path class="cls-3" d="M1135.11-138.85a1.7,1.7,0,0,0-.45.54,1.83,1.83,0,0,0,.28.58,2.81,2.81,0,0,0,.77.1,2.28,2.28,0,0,0,.42-0.53,2.42,2.42,0,0,0-.33-0.6A3.35,3.35,0,0,1,1135.11-138.85Z" transform="translate(-1100.02 184.11)"/></svg>