<svg id="Layer_1_copy" data-name="Layer 1 copy" xmlns="http://www.w3.org/2000/svg" viewBox="0 0 102.31 153.9"><defs><style>.cls-1,.cls-2{fill:none;stroke-linecap:round;stroke-linejoin:round;stroke-width:1.23px;}.cls-1{stroke:#3a4170;}.cls-2{stroke:#394170;}</style></defs><title>tigres</title><g id="_Group_" data-name="&lt;Group&gt;"><polyline class="cls-1" points="4.14 3.48 9.01 0.67 7.18 3.48 12.05 0.67 9.32 3.48 14.19 0.67 13.12 3.48 17.99 0.67 15.17 3.48 20.04 0.67 18.66 3.48 23.54 0.66 19.79 3.48 24.66 0.66 23.27 3.47 28.15 0.66 24.35 3.47 29.22 0.66 25.67 3.47 30.55 0.66 27.44 3.47 32.31 0.66 28.97 3.47 33.84 0.66 32.54 3.47 37.42 0.65 34.49 3.47 39.37 0.65 35.8 3.47 40.68 0.65 38.46 3.47 43.34 0.65 40.87 3.47 45.75 0.65 44.25 3.47 49.13 0.65 46.76 3.47 51.65 0.65 48.3 3.47 53.18 0.65 51.11 3.46 55.99 0.64 54.68 3.46 59.57 0.64 55.82 3.46 60.71 0.64 59.67 3.46 64.56 0.64 63.52 3.46 68.42 0.64 67.17 3.46 72.06 0.63 70.6 3.46 75.5 0.63 72.24 3.46 77.14 0.63 74.03 3.46 78.93 0.63 77.1 3.46 82 0.63 79.03 3.46 83.93 0.63 81.6 3.46 86.5 0.62 85.31 3.45 90.21 0.62 87.07 3.45 91.97 0.62 88.75 3.45 93.66 0.62 91.53 3.45 96.44 0.62 95.41 3.45 100.32 0.62 97.64 3.45 101.63 1.15 98.8 4.02 101.63 2.39 98.8 5.7 101.64 4.06 98.8 6.33 101.64 4.7 98.8 8.46 101.64 6.83 98.8 10.51 101.64 8.88 98.8 12.53 101.64 10.89 98.8 14.47 101.64 12.83 98.8 15.28 101.64 13.64 98.8 17.53 101.64 15.89 98.81 19.72 101.64 18.09 98.81 21.38 101.64 19.74 98.81 23.43 101.64 21.79 98.81 25.31 101.64 23.67 98.81 26.02 101.64 24.39 98.81 28.14 101.64 26.5 98.81 30.21 101.64 28.57 98.81 31.21 101.64 29.57 98.81 33.42 101.65 31.78 98.81 35.65 101.65 34.01 98.81 36.43 101.65 34.79 98.81 37.6 101.65 35.96 98.81 39.62 101.65 37.98 98.81 41.52 101.65 39.88 98.81 42.85 101.65 41.22 98.81 44.56 101.65 42.92 98.81 45.25 101.65 43.62 98.82 46.3 101.65 44.67 98.82 47.13 101.65 45.49 98.82 49.18 101.65 47.54 98.82 50.48 101.65 48.85 98.82 51.53 101.65 49.9 98.82 52.9 101.65 51.27 98.82 53.59 101.65 51.95 98.82 55.7 101.66 54.06 98.82 57.4 101.66 55.76 98.82 59.4 101.66 57.76 98.82 61.31 101.66 59.67 98.82 62.37 101.66 60.73 98.82 63.77 101.66 62.13 98.82 64.46 101.66 62.82 98.82 65.43 101.66 63.79 98.82 66.44 101.66 64.8 98.82 67.15 101.66 65.51 98.83 68.96 101.66 67.33 98.83 71.06 101.66 69.42 98.83 71.81 101.66 70.17 98.83 73.33 101.66 71.7 98.83 75.11 101.66 73.48 98.83 76.81 101.66 75.17 98.83 77.4 101.66 75.76 98.83 79.61 101.66 77.97 98.83 81.08 101.67 79.45 98.83 82.38 101.67 80.74 98.83 83.16 101.67 81.52 98.83 84.31 101.67 82.68 98.83 85.88 101.67 84.24 98.83 86.48 101.67 84.85 98.83 88.39 101.67 86.76 98.83 90.51 101.67 88.87 98.83 91.42 101.67 89.78 98.83 93.6 101.67 91.96 98.84 95.49 101.67 93.86 98.84 97.63 101.67 95.99 98.84 98.53 101.67 96.9 98.84 99.87 101.67 98.23 98.84 101.92 101.67 100.29 98.84 102.61 101.67 100.97 98.84 103.59 101.67 101.96 98.84 104.63 101.67 103 98.84 106.72 101.67 105.08 98.84 107.37 101.67 105.74 98.84 108.71 101.68 107.07 98.84 110.9 101.68 109.26 98.84 112.13 101.68 110.5 98.84 113.52 101.68 111.89 98.84 114.99 101.68 113.35 98.84 115.61 101.68 113.97 98.84 116.23 101.68 114.59 98.84 117.44 101.68 115.8 98.84 118.19 101.68 116.55 98.84 119.51 101.68 117.87 98.85 121.73 101.68 120.09 98.85 123.03 101.68 121.39 98.85 124.16 101.68 122.52 98.85 125.24 101.68 123.6 98.85 126.4 101.68 124.76 98.85 128.11 101.68 126.47 98.85 129.56 101.68 127.92 98.85 131.35 101.69 129.72 98.85 133.35 101.69 131.72 98.85 134.58 101.69 132.94 98.85 136.57 101.69 134.94 98.85 137.28 101.69 135.64 98.85 139.3 101.69 137.67 98.85 141.31 101.69 139.67 98.86 143.37 101.69 141.73 98.86 144.7 101.69 143.06 98.86 145.49 101.69 143.85 98.86 146.19 101.69 144.55 98.86 146.87 101.69 145.24 98.86 148.33 101.69 146.69 98.86 150.06 101.69 148.43"/><polyline class="cls-1" points="0.62 1.03 1.23 0.67 0.62 2.43 3.66 0.67 0.62 3.54 5.59 0.67 0.62 5.41 3.39 3.81 0.62 7.1 3.39 5.5 0.62 8.26 3.39 6.66 0.62 10.32 3.39 8.71 0.62 11.94 3.4 10.34 0.62 13.88 3.4 12.27 0.62 15.5 3.4 13.89 0.62 16.6 3.4 14.99 0.62 17.55 3.4 15.95 0.62 18.95 3.4 17.34 0.62 20.61 3.4 19 0.62 21.37 3.4 19.77 0.62 22.14 3.4 20.54 0.62 22.81 3.4 21.2 0.62 24.2 3.4 22.59 0.62 26.04 3.4 24.43 0.62 26.93 3.4 25.32 0.62 28.97 3.4 27.36 0.62 30.36 3.4 28.76 0.62 31.18 3.4 29.57 0.62 32.2 3.4 30.59 0.62 33.55 3.4 31.94 0.62 34.49 3.4 32.88 0.62 36.05 3.4 34.44 0.62 38.03 3.41 36.42 0.62 39.58 3.41 37.97 0.62 40.2 3.41 38.59 0.62 42.1 3.41 40.49 0.62 44.14 3.41 42.53 0.62 45.65 3.41 44.04 0.62 46.59 3.41 44.98 0.62 48.08 3.41 46.47 0.62 49.25 3.41 47.64 0.62 50.64 3.41 49.03 0.62 52.56 3.41 50.94 0.62 54.38 3.41 52.77 0.62 55.81 3.41 54.19 0.62 57.02 3.41 55.4 0.62 59.07 3.41 57.46 0.62 60.63 3.42 59.01 0.62 61.55 3.42 59.93 0.62 62.15 3.42 60.54 0.62 64.16 3.42 62.55 0.62 65.04 3.42 63.42 0.62 66.85 3.42 65.23 0.62 68.45 3.42 66.84 0.62 69.25 3.42 67.63 0.62 71.12 3.42 69.51 0.62 72.17 3.42 70.55 0.62 74.32 3.42 72.7 0.62 76.2 3.42 74.58 0.62 78.06 3.42 76.44 0.62 79.04 3.42 77.42 0.62 79.79 3.42 78.17 0.62 81.78 3.42 80.16 0.62 83.13 3.42 81.51 0.62 85.29 3.42 83.67 0.62 86.82 3.42 85.19 0.62 88.31 3.43 86.68 0.62 89.05 3.43 87.43 0.62 90.87 3.43 89.25 0.62 92.58 3.43 90.96 0.62 93.53 3.43 91.91 0.62 95.55 3.43 93.93 0.62 97.74 3.43 96.11 0.62 98.74 3.43 97.12 0.62 99.79 3.43 98.17 0.62 101.13 3.43 99.5 0.62 103.22 3.43 101.59 0.62 104.5 3.43 102.87 0.62 106.62 3.43 104.99 0.62 107.23 3.43 105.61 0.62 108.22 3.43 106.59 0.62 109.44 3.44 107.81 0.62 111.53 3.44 109.91 0.62 113.64 3.44 112.02 0.62 114.24 3.44 112.61 0.62 115.25 3.44 113.62 0.62 116.13 3.44 114.5 0.62 116.94 3.44 115.31 0.62 118.44 3.44 116.81 0.62 120.06 3.44 118.43 0.62 121.67 3.44 120.04 0.62 123.78 3.44 122.15 0.62 125.37 3.44 123.74 0.62 127.56 3.44 125.93 0.62 129.3 3.44 127.67 0.62 130.35 3.44 128.72 0.62 132.59 3.44 130.96 0.62 134.22 3.44 132.59 0.62 135.28 3.44 133.64 0.62 136.06 3.44 134.42 0.62 138.17 3.45 136.54 0.62 139.61 3.45 137.97 0.62 141.02 3.45 139.38 0.62 142.4 3.45 140.76 0.62 143.75 3.45 142.11 0.62 144.45 3.45 142.81 0.62 146.19 3.45 144.56 0.62 147.95 3.45 146.31 0.62 148.95 3.45 147.31 0.62 150.92 3.45 149.28 0.62 152.51 4.19 150.45 0.71 153.29 5.62 150.45 4.33 153.28 9.24 150.45 5.59 153.28 10.5 150.45 8.59 153.28 13.49 150.45 12.45 153.28 17.36 150.45 13.98 153.28 18.89 150.45 17.59 153.28 22.49 150.44 20.37 153.27 25.27 150.44 24.13 153.27 29.03 150.44 26.56 153.27 31.46 150.44 27.74 153.27 32.64 150.44 29.16 153.27 34.05 150.44 31.5 153.27 36.39 150.44 34.44 153.27 39.33 150.44 36.11 153.26 41 150.44 37.43 153.26 42.33 150.44 41.33 153.26 46.22 150.44 44.21 153.26 49.1 150.44 47.55 153.26 52.44 150.44 51.12 153.26 56.01 150.43 52.65 153.25 57.54 150.43 53.69 153.25 58.57 150.43 56.91 153.25 61.8 150.43 57.98 153.25 62.86 150.43 60.2 153.25 65.08 150.43 63.98 153.25 68.86 150.43 65.33 153.25 70.21 150.43 67.55 153.25 72.43 150.43 70.12 153.25 75 150.43 73.2 153.24 78.08 150.43 74.46 153.24 79.34 150.43 77.71 153.24 82.58 150.43 79.68 153.24 84.56 150.43 83.47 153.24 88.35 150.42 86.54 153.24 91.41 150.42 89.18 153.23 94.05 150.42 91.33 153.23 96.2 150.42 92.95 153.23 97.82 150.42 94.05 153.23 101.69 148.81 96.19 153.23 101.69 150.05 97.7 153.23 101.69 150.92 101.05 153.23 101.69 152.85"/></g><g id="_Group_2" data-name="&lt;Group&gt;"><polyline class="cls-1" points="45.25 108.71 46.48 108 45.27 109.39 47.31 108.21 45.57 110.1 48.08 108.65 46.28 110.89 49.03 109.3 47.04 111.5 49.86 109.88 47.89 112.13 50.73 110.49 49.03 113 56.88 108.46 49.59 113.52 57.01 109.24 50.29 114.34 55.24 111.48 50.71 115.76 51.55 115.27 50.91 116.33 51.51 115.99"/><polyline class="cls-1" points="46.65 108.67 48.11 107.83 47.94 109.33 49.22 108.59 48.82 109.93 50.09 109.2 50.29 110.95 56.54 107.34 50.88 111.25 54.86 108.95"/><polyline class="cls-1" points="56.05 108.61 57.34 107.87 56.26 109.53 57.67 108.72 52.74 112.57 57.61 109.76"/><polyline class="cls-1" points="44.68 108.28 46.35 107.31 44.54 109.05 47.28 107.47 44.67 109.85 45.87 109.16 45.19 110.75 46.36 110.08 45.84 111.43 47.06 110.73 46.64 112.08 47.9 111.36 47.81 112.93 49.07 112.21 48.46 113.41 49.67 112.71 49.27 114.16 50.45 113.48 50 115.4 55.07 112.48 50.23 116.53 52.25 115.36 50.85 117.17 52.05 116.47"/></g><g id="_Group_3" data-name="&lt;Group&gt;"><polyline class="cls-1" points="89.35 59.2 89.75 58.97 88.94 60.14 89.99 59.54 87.48 62.77 89.4 61.66 83.77 65.56 88.96 62.56"/><polyline class="cls-1" points="78.45 65.39 79.4 64.84 80.49 66.23 80.94 65.97 81.83 67.13 88.67 63.18 82.47 67.67 88.04 64.46 82.94 68.55 84.36 67.73"/><polyline class="cls-1" points="72.25 63.16 74.33 61.97 72.33 64.78 76.56 62.34 73.18 65.84 77.69 63.24 74.51 67.33 77.4 65.66 75.51 68.42 77.21 67.44 76.72 69.69 77.91 69 77.91 70.91 78.72 70.44 79.03 72.03 79.61 71.69 79.56 72.57 80.15 72.23 80.76 73.85 81.46 73.45 81.57 74.8 82.47 74.28 81.91 75.22 82.93 74.63 82.56 76.04 83.83 75.31 83.58 77.37 85.28 76.39 84.27 78.33 86.28 77.17 84.9 79.28 87.22 77.94 85.41 80.28 88.01 78.78 85.98 82.08 88.93 80.38 86.2 83.55 89.24 81.79 86.24 85.35 89.29 83.59 86.21 86.36 89.28 84.59 86.11 88.14 89.27 86.31 86.06 89.83 89.3 87.96 86.14 91.63 89.37 89.76 86.41 93.02 89.44 91.27 86.92 94.8 89.57 93.27 87.68 96.48 89.74 95.3 88.19 97.36 89.84 96.4 89.01 98.31 89.98 97.75"/><polyline class="cls-1" points="83.52 75.86 84.77 75.14 85.12 77.07 86.36 76.35 86.75 78.38 87.96 77.68 87.33 78.94 88.5 78.26 88.23 80.35 89.36 79.69 88.63 82.2 89.89 81.48 88.65 84.02 89.98 83.25 88.64 84.77 89.98 84 88.63 86.1 89.97 85.33 88.66 87.93 89.97 87.17 88.69 88.85 89.99 88.1 88.78 90.65 90.07 89.91 88.88 92.44 90.16 91.7 89.02 94.43 90.3 93.69 89.13 95.65 90.4 94.92 89.21 96.48 90.48 95.76 89.28 97.07 90.53 96.35"/><polyline class="cls-1" points="87.54 64.06 89.57 62.88 83.69 67.69 88.61 64.85"/><polyline class="cls-1" points="88.99 58.13 89.42 57.88 88.26 59.96 90.44 58.71 86.11 63.23 90.61 60.63"/><polyline class="cls-1" points="78.68 66.08 80.65 64.94 79.74 66.53 81.5 65.51 81.24 67.56 86.88 64.31 82.18 68.59 83.33 67.93 83.09 69.57 84.68 68.65"/><polyline class="cls-1" points="74.64 62.57 76.44 61.53 75.67 62.69 77.1 61.86 77.16 63.61 78.35 62.92 77.94 64.4 79.13 63.71"/><polyline class="cls-1" points="76.44 65.8 78.26 64.75 76.64 67.71 77.81 67.04 77.17 68.94 78.32 68.28"/><polyline class="cls-1" points="71.76 62.65 74.12 61.29 71.45 64.5 72.71 63.77 72.13 65.65 73.29 64.98 73.42 67.16 74.59 66.48 74.42 68.25 75.59 67.58 75.61 69.53 76.81 68.84 76.79 70.75 78.94 69.51 77.9 71.88 79.8 70.79 78.44 72.42 80.27 71.36 79.67 73.68 81.53 72.61 80.5 74.62 82.54 73.45 80.85 75.03 82.98 73.8 81.52 75.84 83.88 74.48 82.56 77.16 83.71 76.49 83.27 78.11 84.42 77.45 83.92 79.05 85.07 78.38 84.52 80 85.66 79.34 85.18 81.74 86.37 81.06 85.46 83.18 86.71 82.46 85.56 84.94 86.91 84.17 85.53 85.95 86.88 85.18 85.43 87.73 86.81 86.93 85.36 89.44 86.69 88.67 85.42 91.24 86.68 90.51 85.6 92.69 86.83 91.98 86.07 94.49 87.24 93.82 86.77 96.21 87.93 95.54 87.25 97.1 88.39 96.44 87.93 98.14 89.07 97.48 89.33 99.15 90.64 98.4"/></g><g id="_Group_4" data-name="&lt;Group&gt;"><polyline class="cls-1" points="80.11 50.57 82.22 49.36 81.43 50.97 84 49.49 82.52 52.17 86.32 49.98 85.13 52.38 87.84 50.82 87.1 52.94 88.52 52.11 87.48 53.44 88.74 52.71 88.36 55.03 89.23 54.53 88.86 55.76 89.43 55.42"/><polyline class="cls-1" points="68.1 54.25 69.12 53.66 68.3 54.94 69.94 53.99 69.47 55.98 80.92 49.36 70.92 56.22 74.39 54.22"/><polyline class="cls-1" points="81.82 49.97 83.88 48.77 84.6 50.23 86.3 49.25 86.97 50.93 88.19 50.22 87.46 51.35 88.6 50.69 87.73 51.86 88.86 51.2 87.98 52.48 89.16 51.8"/><polyline class="cls-1" points="80.33 51.25 81.73 50.44 81.48 52.1 82.64 51.43 83.15 53.08 85.43 51.77 86.33 53.29 87.58 52.57 87.07 54.04 89.44 52.68 87.69 55.27 89.82 54.04 88.02 55.77 89.96 54.65 88.34 56.22 90.09 55.21 88.97 56.52 90.12 55.85"/><polyline class="cls-1" points="69.24 54.38 71.07 53.33 70.64 54.73 81.19 48.64 74.05 53.68 82.74 48.66"/><polyline class="cls-1" points="67.5 53.83 69.11 52.91 67.42 54.68 69.88 53.26 68.24 55.92 69.47 55.21 69.33 56.68 71.54 55.4 71.14 56.88 74.88 54.72"/></g><g id="_Group_5" data-name="&lt;Group&gt;"><polyline class="cls-1" points="23.59 65.4 29 62.27 25.29 66.3 30.11 63.52 25.07 67.4 30.03 64.53 24.33 69.05 28.26 66.78 23.56 70.41 26.43 68.75 22.81 71.48 25.05 70.19 20.05 74.07 22.75 72.51 14.27 78.75 20.31 75.26 13.14 80.87 18.3 77.89 12.97 83.12 16.55 81.05 12.98 84.74 16.14 82.92 12.99 86.44 16 84.7 12.95 88.7 16.08 86.89 12.88 89.94 16.16 88.04 12.8 91.78 16.21 89.81 12.65 93.91 16.08 91.92 12.44 96.2 15.47 94.45 12.36 96.9 15.15 95.28 12.32 98.31 14.13 97.27"/><line class="cls-1" x1="24.39" y1="63.43" x2="26.95" y2="61.95"/><polyline class="cls-1" points="12.31 59.34 12.84 59.03 12.35 60.49 13.24 59.97 12.58 61.09 13.51 60.55 13.43 62.83 14.44 62.25 14.15 64.36 15.5 63.59 14.4 64.82 15.94 63.93 15.75 66.17 17.75 65.02 17.66 67.31 19.31 66.36 17.98 67.88 20.63 66.35 18.64 68.77 19.45 68.31"/><polyline class="cls-1" points="18.7 76.27 21.96 74.39 17.15 78.44 19.97 76.81 16.14 80.34 18.31 79.09 15.5 82.93 17 82.06 15.37 84.05 16.8 83.23 15.39 85.58 16.69 84.83 15.47 87.32 16.75 86.58 15.53 88.12 16.81 87.38 15.58 88.97 16.87 88.22 15.58 90.21 16.9 89.44 15.47 91.67 16.88 90.85 15.15 93.33 16.72 92.43 14.8 94.43 16.48 93.45 14.04 96.14 16 95.01 13.39 97.22 15.61 95.94"/><polyline class="cls-1" points="27.27 62.57 29.03 61.55 28.53 62.76 29.85 62 29.44 63.44 30.59 62.77 27.93 66.19 30.79 64.54 25.82 68.48 29.61 66.29"/><polyline class="cls-1" points="23.75 66.09 25.33 65.17 23.98 68.19 25.8 67.14 23.2 69.73 25.3 68.52 20.36 72.92 27.16 69 13.23 79.11 18.35 76.16 12.42 81.08 14.2 80.05 12.28 82.42 13.68 81.61 12.28 84.15 13.61 83.38 12.3 85.97 13.62 85.2 12.28 87.26 13.63 86.49 12.24 88.84 13.6 88.06 12.16 90.52 13.53 89.73 12.1 91.78 13.47 90.99 12.05 92.48 13.43 91.68 11.92 94.33 13.31 93.53 11.81 95.53 13.22 94.71 11.67 96.84 13.09 96.01 11.58 98.1 12.95 97.31 11.92 98.9 15.02 97.11 12.51 99.19 14.39 98.1"/><line class="cls-1" x1="23.92" y1="62.91" x2="26.71" y2="61.3"/><polyline class="cls-1" points="14.79 63.8 15.99 63.1 15.9 64.68 17.2 63.93 16.61 65.12 17.96 64.34 17.41 65.55 18.68 64.82 18.44 66.39 19.63 65.71 19.17 67.43 24.18 64.54"/><polyline class="cls-1" points="11.77 58.83 13.2 58 11.56 60.12 13.57 58.96 11.69 60.77 13.81 59.55 12.52 62.53 14.68 61.28 13.22 64.07 15.66 62.67 13.46 64.54 14.61 63.87 14.53 66.05 15.73 65.35 16.42 67.21 17.77 66.42 17.02 67.61 18.19 66.93 18.04 69.21 21.83 67.02 18.63 69.56 19.98 68.78"/></g><g id="_Group_6" data-name="&lt;Group&gt;"><polyline class="cls-1" points="22.1 50.57 23.26 49.9 23.84 51.22 24.81 50.66 24.77 51.85 25.83 51.24 25.42 52.29 26.52 51.66 26.57 53.17 27.84 52.44 28.09 54.4 29.69 53.47 29.02 55.13 30.98 54 30.65 56.02 34.07 54.04 31.77 56.23 33.91 55"/><polyline class="cls-1" points="16.63 52.42 21.74 49.47 18.76 52.42 20.42 51.46"/><polyline class="cls-1" points="14.18 51.18 16.54 49.82 13.62 52.45 18.9 49.4 13.27 53.58 20.57 49.36 12.84 55.66 13.88 55.06"/><polyline class="cls-1" points="28.14 53.37 29.49 52.59 29.07 53.88 30.47 53.07 30.57 54.53 33.36 52.92 33.47 54.52 34.74 53.79"/><polyline class="cls-1" points="22.31 51.27 24.77 49.85 23.02 51.55 25.39 50.18 24.18 52.28 26.59 50.89 25.34 53.09 27.85 51.64 26.95 54.35 28.17 53.65 28.48 55.61 29.75 54.88 29.96 56.56 31.56 55.64 31.05 56.85 34.86 54.65 31.99 56.92 34.33 55.57"/><polyline class="cls-1" points="17.03 50.35 19.99 48.64 21.2 49.96 22.82 49.02"/><polyline class="cls-1" points="16.82 53.09 19.12 51.76 19.03 53.09 20.8 52.07"/><polyline class="cls-1" points="13.66 50.68 16.26 49.18 13.05 51.98 18.67 48.73 12.68 53.12 14.4 52.12 12.16 55.25 18.18 51.78 12.24 56.11 14.93 54.55 12.86 56.52 14.3 55.69"/></g><g id="_Group_7" data-name="&lt;Group&gt;"><polyline class="cls-1" points="60.6 70.69 62.28 69.72 61.85 71.87 64.01 70.62 62.26 72.33 64.6 70.98 63.22 72.95 65.43 71.67 65.02 73.84 66.59 72.93 66.03 75.27 67.96 74.16 65.55 77.43 70 74.86 63.3 80.68 69.67 77"/><polyline class="cls-1" points="58.74 69.46 59.5 69.03 58.88 70.2 60.65 69.18"/><polyline class="cls-1" points="52.32 64.91 53.09 64.46 52.87 65.79 53.91 65.19 52.29 68.25 55.32 66.51 53.16 69.94 56.59 67.96 53.95 70.77 56.43 69.33 55.25 71.99 57.44 70.72 56.51 72.61 61.83 69.54 58.01 72.92 59.95 71.8"/></g><g id="_Group_8" data-name="&lt;Group&gt;"><polyline class="cls-1" points="74.2 100.45 75.58 99.65 73.53 101.76 77.08 99.71"/><polyline class="cls-1" points="75.3 102.67 81.5 99.09 76.64 102.75 80.94 100.26 78.37 103.22 79.77 102.42"/><polyline class="cls-1" points="65.42 98.49 65.92 98.2 66.63 99.96 67.53 99.44 67.36 100.9 68.45 100.27 68.31 102.2 69.77 101.36 68.88 103.24 70.89 102.08 69.5 104.69 82.19 97.37 69.93 105.72 73.6 103.6 70.49 107.41 72.75 106.1 70.61 109.38 72.93 108.04"/><polyline class="cls-1" points="79.83 79.55 80.18 79.34 80.32 81.07 81.19 80.57 79.23 82.95 81.71 81.51 80.25 83.88 82.22 82.74 80.37 85.69 82.8 84.29 80.4 86.63 83.09 85.08 80.42 87.62 83.39 85.91 80.43 89.24 83.56 87.44 80.44 90.92 82.45 89.76 80.44 92.61 82.3 91.54 80.39 94.07 82.5 92.85 80.2 95.51 82.8 94.01 79.79 96.79 82.86 95.02 79 98.29 82.55 96.24"/></g><g id="_Group_9" data-name="&lt;Group&gt;"><polyline class="cls-1" points="68.46 96.02 69.57 95.38 69.36 97.46 76.39 93.4 69.87 98.24 76.39 94.48 70.55 99.26 76.6 95.77 71.25 100.19 74.47 98.33"/><polyline class="cls-1" points="74.02 89.52 75.3 88.78 74.14 91.06 77.88 88.9 74.16 92.01 77.85 89.87 73.84 93.1 77.77 90.83"/><polyline class="cls-1" points="73.65 85.36 75.43 84.33 74.63 86.05 76.29 85.09 75.22 86.55 76.74 85.67 75.64 87.05 77.11 86.2 75.81 87.65 77.4 86.73"/><polyline class="cls-1" points="71.06 82.97 75.31 80.52 71.64 83.54 75.24 81.46 71.32 84.44 75 82.32 66.03 89.59 72 86.14 67.08 90.18 69.98 88.51 68.21 90.38 69.68 89.54"/><polyline class="cls-1" points="62.58 83.6 65.55 81.88 61.48 86.45 69.01 82.1 59.85 87.99 69.88 82.2 58.94 90.28 68.99 84.47 58.88 92.03 61.94 90.27 59 93.29 61.17 92.04 59.46 95.09 60.72 94.36 59.75 95.56 60.64 95.05"/><polyline class="cls-1" points="75.73 76.15 77.17 75.32 77.05 77.25 77.89 76.77"/><polyline class="cls-1" points="64.48 63.05 66.27 62.01 65.78 63.8 68.56 62.2 67.14 65.06 69.45 63.72 67.8 65.78 69.96 64.53 68.44 66.48 70.45 65.32 69.17 67.35 71.05 66.26 70.03 68.39 71.8 67.37 71.16 69.89 72.94 68.86 71.52 70.39 73.32 69.35 71.94 71.01 73.77 69.95 72.99 72.64 74.84 71.58 73.39 73.59 75.37 72.44 73.23 74.27 75.64 72.88 72.47 75.88 76.17 73.75 72.96 76.55 76.61 74.45 73.61 78.11 74.67 77.5 73.01 80.53 75 79.38"/><polyline class="cls-1" points="53.87 57.52 54.38 57.22 54.39 58.01 54.82 57.76 54.13 59.97 56.04 58.86 54.46 61.89 60.36 58.48 57.86 62.03 61.74 59.79 59.48 62.34 62.67 60.49 60.64 62.67 63.51 61.02 62.11 63.2 64.83 61.63 62.94 63.6 63.67 63.18"/></g><g id="_Group_10" data-name="&lt;Group&gt;"><polyline class="cls-1" points="48.07 65.43 49.76 64.45 45.43 68.37 49.07 66.27 45.78 69.69 49.28 67.67"/><polyline class="cls-1" points="42.19 70.72 43.38 70.03 42.3 71.72 43.92 70.78 43.04 72.7 49.91 68.73 45.14 72.78 47.86 71.21"/><line class="cls-1" x1="36.48" y1="71.98" x2="41.15" y2="69.28"/><polyline class="cls-1" points="32.48 73.96 33.38 73.44 32.25 76.11 41.3 70.89 32.63 77.07 36.28 74.96 33.48 77.86 36.26 76.26 35.04 78.94 36.92 77.86 35.66 79.37 37.3 78.42 36.44 79.91 37.8 79.12 37.63 80.67 38.58 80.13 38.46 81.09 38.99 80.79"/></g><g id="_Group_11" data-name="&lt;Group&gt;"><polyline class="cls-1" points="29.21 85.37 30.9 84.39 29.99 85.91 31.36 85.12 30.98 86.87 32.28 86.12 32.19 88.38 33.82 87.44 32.56 89.5 34.85 88.18 34.26 90.39 36.35 89.18"/><polyline class="cls-1" points="31.64 82.97 33.11 82.12 32.27 83.24 34.63 81.88 33.05 84.2 36.99 81.93 34.19 85.43 38.8 82.76 35.63 86.45 39.92 83.97 36.7 86.89 40.35 84.78 38.44 87.94 40.8 86.57 39.31 88.72 41.44 87.49 39.69 89.19 42.15 87.77 40.46 90.56 43.03 89.08 40.78 91.28 43.22 89.87 41.28 92.66 43.35 91.47 41.51 94.26 43.25 93.25 41.98 95.58 42.78 95.12"/><polyline class="cls-1" points="25.8 85.27 27.98 84.01 24.45 88 27.14 86.45 24.38 89.34 26.4 88.17 24.48 90.83 27.75 88.94 24.64 91.42 28.22 89.36 25.52 92.8 28.09 91.32 25.88 94.38 28.35 92.95 25.53 95.47 28.83 93.57 26.54 96.9 30.46 94.64 27.12 97.57 31.46 95.06 27.68 98.22 32.63 95.37 28.7 99.38 33.42 96.66 29.45 100.01 32.3 98.36 30.14 100.35 31.48 99.57"/><polyline class="cls-1" points="27 76.17 29.49 74.74 27.58 77.44 29.4 76.39 27.54 78.64 28.64 78 26.97 80.19 28.68 79.2 27 81.38 29.02 80.21 27.23 82.27 29.52 80.94 28.02 83.33 30.5 81.89"/><polyline class="cls-1" points="38.27 63.01 44.74 59.28 38.82 63.59 47.55 58.54 42.46 62.43 47.8 59.34 47.01 62.03 48.01 61.45"/><line class="cls-1" x1="41.58" y1="58.79" x2="42.86" y2="58.05"/><polyline class="cls-1" points="33.53 62.48 34.56 61.88 31.8 65.33 43.47 58.59 31.09 66.45 44 58.99 29.05 69.19 33.89 66.4 27.27 71.81 31.45 69.4 26.37 73.27 30.32 70.99 24.4 76.54 28.92 73.93 24.32 77.22 29.16 74.42"/></g><g id="_Group_12" data-name="&lt;Group&gt;"><line class="cls-1" x1="34.62" y1="99.52" x2="36.85" y2="98.24"/><polyline class="cls-1" points="21.49 79.99 22.44 79.44 20.64 81.31 22.07 80.48 19.89 83.12 22.31 81.72 18.98 85.57 22.01 83.83 18.71 87.48 21.88 85.66 19.14 88.48 21.85 86.92 19.75 89.61 21.82 88.42 19.98 90.96 21.82 89.9 19.79 92.64 21.81 91.47 19.59 93.46 21.81 92.18 19.38 94.8 21.84 93.38 19.68 96.16 21.95 94.84 20.08 97.44 22.22 96.2 20.37 98.22 22.53 96.97 21.08 99.8 23.36 98.48 21.72 101.06 24.31 99.57 22 101.58 25.25 99.71 22.72 102.8 27.66 99.95 23.3 103.29 28.09 100.53 25.12 102.83 28.31 100.99 27.94 102.9 29.07 102.24 28.45 103.37 29.77 102.61 29.53 104.83 33.85 102.33 28.98 106.73 32.82 104.52 29.39 108.16 31.97 106.67 30.11 109.18 31.64 108.29 30.94 109.66 31.65 109.25"/></g><g id="_Group_13" data-name="&lt;Group&gt;"><polyline class="cls-2" points="54.54 9.38 55.16 9.03 54.54 10.74 57.51 9.03 54.54 11.42 58.65 9.05 54.54 13.05 60.99 9.33 54.54 14.9 62.5 10.3 54.54 15.52 62.84 10.72 56.13 16.2 63.3 12.07 59.16 16.15 63.1 13.88"/></g><polyline class="cls-2" points="88.64 130.1 97.76 124.83 89.09 131.49 97.77 126.48 89.61 133.08 97.77 128.37 90 134.27 97.77 129.78 90.61 136.16 97.77 132.02 93.12 136.4 97.78 133.71 96.43 136.37 97.78 135.59 92.14 140.97 97.78 137.71 92.42 141.84 97.78 138.74 92.94 143.39 97.79 140.6 93.12 143.93 97.79 141.24 93.51 145.09 97.79 142.61 93.98 146.5 97.79 144.3"/><line class="cls-2" x1="86.3" y1="144.63" x2="88.76" y2="143.2"/><polyline class="cls-2" points="79.94 136.36 87.84 131.8 81.58 136.37 87.48 132.96 84.42 136.37 86.83 134.98 85.73 136.37 86.53 135.91"/><polyline class="cls-2" points="73.48 130.37 97.76 116.36 74.43 130.41 97.76 116.94 74.44 131.94 97.77 118.47 74.45 134.03 97.77 120.57 74.45 136.14 97.78 122.68 74.46 136.93 97.78 123.47 74.46 138.02 88.44 129.95 74.47 138.98 88.06 131.13 74.47 140.6 80.44 137.16 74.48 141.69 81.28 137.76 74.48 142.56 81.96 138.25 74.49 144.15 83.19 139.12 74.53 145.49 84.25 139.88 77.86 145.46 84.69 141.51 80.31 145.44 84.13 143.23 80.85 146.72 83.49 145.19"/><polyline class="cls-2" points="92.86 45.58 94.99 44.35 92.53 47.67 97.75 44.66 92.53 49.08 97.75 46.08 92.53 50.85 97.75 47.84 92.53 51.81 97.75 48.8 92.53 53.41 97.75 50.4 92.53 54.23 97.75 51.22 92.53 56.48 97.75 53.47 92.53 57.75 97.75 54.74 92.53 59.7 97.75 56.69 92.53 60.66 97.75 57.65 92.53 62.32 97.75 59.31 92.53 63.02 97.75 60.01 92.53 63.77 97.75 60.76 92.53 65.17 97.75 62.16 92.53 66 97.75 62.99 92.53 68.04 97.75 65.03 92.53 69.89 97.76 66.88 92.53 71.54 97.76 68.52 92.53 73.21 97.76 70.2 92.53 75.24 97.76 72.22 92.53 76.17 97.76 73.16 92.53 78.19 97.76 75.17 92.53 79.22 97.76 76.2 92.53 80.35 97.76 77.33 92.53 82.19 97.76 79.18 92.53 83.48 97.76 80.47 92.53 85.23 97.76 82.21 92.53 87.39 97.76 84.37 92.54 89.16 97.76 86.14 92.54 90.25 97.77 87.23 92.53 91.02 97.77 88 92.48 92.01 97.77 88.95 92.42 93.25 97.77 90.17 92.33 94.99 97.77 91.85 92.26 96.2 97.77 93.02 92.01 98.05 97.77 94.72 91.61 100.36 97.77 96.81 91.43 101.43 97.77 97.77 91.02 103.01 97.77 99.11 90.51 104.66 97.77 100.46 89.94 106.48 97.77 101.96 89.27 108 97.77 103.09 88.23 110.14 97.77 104.64 87.59 111.38 97.77 105.5 86.03 113.62 97.77 106.84 83.36 116.78 97.77 108.46 79.97 119.79 97.77 109.51"/><polyline class="cls-2" points="56.17 130.5 62.26 126.99 57.07 131.54 66.61 126.03 57.82 132.4 71.71 124.39 58.65 133.36 97.77 110.77 59.5 134.34 97.78 112.24 59.93 134.84 67.02 130.75 61.21 136.32 67.02 132.97 62.29 137.57 67.02 134.84 62.81 138.17 67.02 135.75 63.47 138.93 67.02 136.88 64.07 139.62 67.02 137.92 65.07 140.78 67.02 139.65 66.06 141.92 67.02 141.36 66.8 142.77 67.02 142.64"/><polyline class="cls-2" points="67.67 130.39 97.78 113.02 68.72 130.99 97.78 114.21 68.72 132.16 97.78 115.39 68.72 133.27 72.7 130.97 68.73 135.25 72.71 132.95 68.74 136.81 72.72 134.51 68.75 138.76 72.72 136.47 68.75 140.24 72.73 137.94 68.76 142.46 72.74 140.16 68.77 144.45 72.74 142.15 68.77 145.56 72.75 143.26 68.77 146.75 72.75 144.45"/><polyline class="cls-2" points="57.46 135.01 57.67 134.89 57.46 135.84 58.16 135.45 57.46 136.91 58.77 136.15 57.46 137.68 59.22 136.67 57.46 138.51 59.7 137.22 57.46 139.21 60.1 137.69 57.46 140.91 61.09 138.82 57.46 142 61.72 139.54 57.46 143.86 62.8 140.78 57.46 145.04 63.48 141.57 57.46 146.24 64.17 142.37"/><polyline class="cls-2" points="45.44 130.5 49.9 127.93 46.23 132.2 53.83 127.81 46.57 132.94 55.59 127.74 47.35 134.61 60.05 127.28 47.84 135.67 55.63 131.17 48.4 136.87 55.63 132.69 48.93 138 55.64 134.12 49.19 138.55 55.64 134.82 49.74 139.74 55.65 136.32 50.49 141.34 55.66 138.36 50.96 142.35 55.66 139.63 51.67 143.88 55.67 141.58 52.18 144.97 55.67 142.96 52.62 145.92 55.68 144.16 53.06 146.86 55.68 145.35"/><polyline class="cls-2" points="41.34 142.16 42.19 141.67 40.2 144.62 45.34 141.66 39.67 145.75 46.78 141.65 39.25 146.66 47.94 141.64"/><polyline class="cls-2" points="24.22 130.37 32.85 125.39 25.18 131.26 34.53 125.87 25.19 131.97 35.38 126.09 25.2 133.42 37.13 126.53 25.2 134.11 37.96 126.75 25.21 135.58 32.79 131.21 25.22 136.48 32.79 132.11 25.23 138.08 32.79 133.71 25.23 138.87 32.79 134.5 25.25 140.94 32.79 136.59 25.28 142.35 32.79 138.02 25.78 144.16 32.79 140.11 26.91 145.23 32.75 141.86 27.46 145.51 32.7 142.49 29.58 145.76 31.99 144.38"/><polyline class="cls-2" points="33.45 130.39 39.33 127 34.51 130.87 40.85 127.21 34.52 131.46 41.67 127.33 34.52 132.58 43.24 127.55 34.53 133.79 45.04 127.72 34.53 134.4 46.04 127.76 34.54 135.04 47.07 127.8 34.54 136.25 49.03 127.89 34.56 138.34 43.64 133.1 34.56 139.61 42.82 134.84 34.53 141.14 41.84 136.92 34.27 143.46 40.45 139.89 33.79 144.8 39.76 141.35"/><polyline class="cls-2" points="13.83 130.08 26.71 122.65 14.04 130.7 27.35 123.02 14.63 132.51 29.36 124 14.84 133.18 30.18 124.33 15.32 134.63 31.94 125.03 15.71 135.84 23.46 131.36 18.27 136.4 23.46 133.4 19.73 136.39 23.46 134.24 22.79 136.36 23.46 135.98 17.52 141.53 23.46 138.11 17.97 142.87 23.46 139.7 18.6 144.74 23.51 141.91 19.17 146.48 23.74 143.84"/><line class="cls-2" x1="11.5" y1="144.63" x2="13.96" y2="143.2"/><polyline class="cls-2" points="5.15 136.36 13.05 131.8 8.07 136.37 12.38 133.88 10.97 136.37 11.73 135.94"/><polyline class="cls-2" points="4.51 44.48 5.13 44.12 4.51 45.82 7.34 44.19 4.51 47.61 9.19 44.91 4.51 49.09 9.75 46.07 4.51 50.68 9.89 47.58 4.51 52.89 9.89 49.78 4.51 54.14 9.89 51.03 4.51 55.48 9.89 52.38 4.51 56.15 9.89 53.04 4.51 57.51 9.89 54.4 4.51 59.34 9.89 56.23 4.51 60.12 9.89 57.01 4.51 61.86 9.89 58.76 4.51 63.45 9.89 60.34 4.51 64.99 9.89 61.88 4.51 65.77 9.89 62.67 4.51 66.52 9.89 63.41 4.51 67.19 9.89 64.09 4.51 68.17 9.89 65.06 4.51 69.85 9.89 66.75 4.51 71.46 9.89 68.35 4.51 73.44 9.89 70.33 4.51 75.5 9.89 72.4 4.51 76.73 9.89 73.62 4.51 78.29 9.89 75.18 4.51 78.98 9.89 75.87 4.51 80.72 9.89 77.61 4.51 82.12 9.89 79.02 4.51 83.23 9.89 80.13 4.51 84.1 9.89 81 4.51 85.5 9.89 82.4 4.51 87.34 9.89 84.24 4.51 88.08 9.89 84.97 4.51 90.17 9.89 87.06 4.51 90.77 9.89 87.67 4.51 92.29 9.89 89.18 4.51 92.97 9.89 89.87 4.51 93.56 9.89 90.46 4.51 94.33 9.92 91.21 4.51 96.22 10.01 93.04 4.51 97.18 10.06 93.98 4.51 97.88 10.09 94.66 4.51 98.6 10.13 95.36 4.51 99.83 10.21 96.54 4.51 101.01 10.38 97.62 4.51 102.17 10.56 98.68 4.51 103.75 10.8 100.12 4.51 105.58 11.09 101.78 4.51 106.22 11.26 102.33 4.51 106.89 11.43 102.89 4.51 107.88 11.68 103.74 4.51 109.23 12.03 104.89 4.51 111.09 12.51 106.47 4.51 113.21 13.29 108.14 4.51 114.29 13.69 109 4.51 116.07 14.35 110.39 4.51 117 14.72 111.1 4.51 118.57 15.49 112.23 4.51 120.23 16.29 113.43 4.51 122.43 17.39 114.99 4.51 123.98 18.34 116 4.51 125.55 19.28 117.02 4.51 126.82 20.05 117.85 4.51 128.99 21.56 119.14 4.51 129.98 22.29 119.72 4.51 131.13 23.12 120.38 4.51 132.48 24.11 121.16 4.51 134.54 25.9 122.19 4.51 135.88 13.38 130.76 4.51 136.8 4.86 136.6 4.51 137.5 5.4 136.99 4.51 139.29 6.79 137.98 4.51 140.63 7.82 138.72 4.51 142.62 9.37 139.82 4.51 143.21 9.82 140.15 4.51 144.62 9.89 141.52 4.51 146.47 9.15 143.79 4.51 148.44 8.36 146.22 4.66 149.64 14.78 143.8 7.05 149.64 15.83 144.57 10.41 149.64 17.32 145.65 14.29 149.64 19.03 146.9 17.28 149.63 24.5 145.47 19 149.63 25.15 146.08 22.75 149.63 26.98 147.19 24.6 149.63 28.34 147.47 27.17 149.63 39.11 142.73 29.33 149.63 38.31 144.44 32.49 149.62 37.13 146.94 35.63 149.62 48.84 142 39.09 149.62 49.59 143.56 42.91 149.62 50.42 145.28 46.1 149.62 51.11 146.72 47.54 149.61 51.78 147.16 49.08 149.61 55.68 145.8 51 149.61 55.69 146.91 54.12 149.61 65.01 143.32 55.89 149.61 65.6 144 58.43 149.61 66.45 144.98 60.93 149.61 67.28 145.94 62.6 149.6 67.84 146.58 63.69 149.6 68.2 147 66.09 149.6 72.76 145.75 67.17 149.6 72.76 146.38 70.56 149.6 74.78 147.16 73.05 149.6 77.27 147.16 74.13 149.6 78.34 147.16 77.23 149.59 83.17 146.16 80.29 149.59 89.91 144.04 82.27 149.59 90.78 144.68 84.58 149.59 91.8 145.42 88.36 149.59 93.47 146.64 89.43 149.59 93.94 146.99 90.59 149.59 97.79 145.43 92.66 149.59 97.79 146.62 96.01 149.58 97.8 148.55 97.18 149.58 97.8 149.23"/><polyline class="cls-2" points="89.16 6.7 92.46 4.79 90.89 6.68 94.19 4.78 92.78 7.27 97.12 4.76 93.66 7.91 97.74 5.55 94.99 9.25 97.74 7.66 95.49 10.24 97.74 8.94"/><polyline class="cls-2" points="87.67 10.16 89.8 8.94 87.34 10.98 90.8 8.99 87.44 12.49 92.25 9.71 87.7 13.15 92.82 10.2 88.19 13.82 93.38 10.82 89.66 15.13 97.75 10.46 90.19 15.54 97.75 11.18 91.86 16.82 97.75 13.42 93.02 17.77 97.75 15.04 93.94 18.65 97.75 16.45 95.04 20 97.76 18.43 95.39 20.72 97.76 19.36 95.95 22.49 97.76 21.44 96.04 23.42 97.76 22.42 95.64 25.2 97.76 23.98 94.83 26.61 97.77 24.91"/><polyline class="cls-2" points="85.6 23.55 91.86 19.94 86.59 24.93 92.98 21.23 87.54 25.82 93.52 22.37 89.67 26.75 93.34 24.63"/><polyline class="cls-2" points="70.81 7.14 74.87 4.8 73.58 7.13 77.63 4.8 75.88 7.13 79.92 4.8 79.07 7.12 83.09 4.8 82.21 7.28 86.51 4.79 82.25 8.91 89.39 4.79"/><polyline class="cls-2" points="72.23 9.68 72.85 9.32 72.24 10.91 75.01 9.31 72.25 12.11 77.12 9.29 72.27 13.6 79.75 9.28 72.27 14.41 81.17 9.27 72.28 15.67 91.12 4.79 74.68 15.88 85.33 9.73 76.58 15.87 85.02 11 80.45 15.85 85.19 13.11 81.57 15.84 85.39 13.63 82.17 17.62 86.35 15.21"/><polyline class="cls-2" points="72.23 18.39 72.85 18.03 72.24 19.26 74.39 18.02 72.24 20.35 76.29 18.01 72.25 21.51 78.34 18 72.26 22.84 80.67 17.98 72.28 24.91 87.37 16.19 72.29 26.23 88.31 16.98 73.41 26.28 88.83 17.38 76.66 26.26 90.17 18.46 79.28 26.24 91.23 19.35 80.39 26.24 84.94 23.61 82.12 26.45 84.16 25.27 82.15 27.53 84.68 26.07"/><polyline class="cls-2" points="65.04 32.43 71.97 28.43 68.86 32.42 75.79 28.42 70.55 32.42 77.48 28.42 72.01 32.42 78.94 28.41 75.21 32.41 82.14 28.41 77.33 32.41 85.96 27.42 79.18 32.4 86.74 28.04 82.63 32.4 88.85 28.8 85.23 32.39 91.46 28.8 86.42 32.39 97.77 25.84 87.65 32.39 97.77 26.55 89.89 32.38 97.77 27.83 93.54 32.38 97.77 29.93 96.96 32.37 97.77 31.9"/><polyline class="cls-2" points="53.1 7.14 57.15 4.8 56.33 7.12 60.34 4.8 57.78 7.13 61.82 4.8 61.15 7.37 65.6 4.8 61.91 7.62 66.78 4.8 63.7 8.62 70.31 4.8 64.26 9.1 71.7 4.8 65.01 10.26 70.06 7.34 65.39 11.18 70.06 8.48 65.61 12.59 70.07 10.02 65.57 13.41 70.07 10.81 65.22 14.96 70.07 12.16 64.33 16.47 70.08 13.15"/><polyline class="cls-2" points="58.61 18.82 59.13 18.52 59.41 19.84 70.08 13.68 59.8 20.36 70.08 14.42 60.78 21.64 70.08 16.27 61.42 22.47 70.09 17.46 62.05 23.28 70.09 18.64 63.23 24.81 70.1 20.84 63.87 25.65 70.1 22.05 64.29 26.19 70.1 22.83 64.67 26.7 70.1 23.56 65.14 27.3 70.11 24.43 65.82 28.19 70.11 25.72"/><polyline class="cls-2" points="51.23 32.63 61.8 26.53 51.54 33.58 62.41 27.31 51.71 34.1 62.74 27.74 52.13 35.38 64.16 28.44 52.6 36.83 70.11 26.71 53.15 38.5 70.58 28.43 55.72 38.96 64.42 33.93 57.17 38.95 64.42 34.76 58.27 40.41 64.42 36.85 54.88 43.95 64.42 38.44 55.14 44.74 64.42 39.39 55.56 46 64.42 40.89 56.06 47.5 64.42 42.67 56.59 49.08 64.42 44.56"/><line class="cls-2" x1="48.9" y1="47.19" x2="51.36" y2="45.76"/><polyline class="cls-2" points="42.55 38.92 50.45 34.36 46.16 38.93 49.63 36.92 48.37 38.93 49.13 38.5"/><polyline class="cls-2" points="54.52 18.93 55.15 18.57 54.53 20.66 56.44 19.55 54.54 22.59 57.48 20.89 54.55 24.79 58.66 22.42 54.56 26.36 59.51 23.51 54.57 27.46 60.09 24.27 54.57 28.05 60.41 24.68"/><polyline class="cls-2" points="33.78 7.11 37.75 4.81 37.03 6.61 40.14 4.81 39.83 6.81 43.3 4.81 42 7.43 46.55 4.81 43.97 8.39 50.17 4.81 45.5 9.41 53.48 4.81 46.14 9.93 55.01 4.8 46.82 10.48 52.34 7.29 46.35 11.41 52.35 7.95"/><polyline class="cls-2" points="30.68 11.57 34.74 9.23 29.25 13.42 37.2 8.84 28.35 15.65 39.68 9.11 28.13 17.32 41.39 9.66 28.14 18.25 42.24 10.11 28.28 19.22 43.18 10.62 28.36 19.79 43.69 10.94 29.07 21.62 45.32 12.24 29.99 23.06 52.35 10.15 30.46 23.65 39.14 18.64 31.32 24.5 39.18 19.96 32.74 25.54 41.82 20.3 34.56 26.28 45 20.26 36.05 26.63 45.63 21.1 38.88 26.72 44.65 23.39"/><polyline class="cls-2" points="39.76 18.21 52.36 10.94 40.93 18.21 52.36 11.61 43.71 18.19 52.36 13.19 45.83 18.17 52.37 14.4 48.28 18.21 52.37 15.85 48.1 20.18 52.38 17.71 47.54 22.53 52.38 19.73 46.02 25.26 52.39 21.58"/><polyline class="cls-2" points="20.47 7.13 24.48 4.82 21.87 8.31 27.93 4.81 21.88 9.78 30.47 4.81 21.88 10.66 32 4.81 21.89 12.62 35.41 4.81 21.89 13.63 30.96 8.39 21.89 15.38 27.18 12.33 21.9 16.84 26.37 14.26 21.9 18.09 26.01 15.72 21.9 19 25.89 16.7 21.91 20.5 25.8 18.25 21.91 22.5 26.01 20.14 21.92 24.64 26.61 21.93 21.92 25.24 26.79 22.42 21.93 26.98 27.56 23.73 21.93 28.05 28.09 24.5"/><polyline class="cls-2" points="6.17 7.14 10.19 4.82 9 7.13 13.02 4.82 11.35 7.13 15.36 4.82 15.22 7.12 19.21 4.82 16.63 7.12 20.61 4.82 17.08 8.68 22.21 5.71"/><polyline class="cls-2" points="12.34 9.65 12.96 9.29 12.34 10.92 15.22 9.26 12.35 12.15 19.7 7.91 12.35 14.05 19.71 9.8 12.36 15.36 19.71 11.12 12.36 16.33 19.71 12.08 12.36 17.55 19.72 13.31 12.36 18.24 19.72 14 12.37 20.45 19.73 16.2 12.37 21.4 19.73 17.15 12.38 23.06 19.73 18.81 12.39 25.2 19.74 20.96 12.39 26.01 19.74 21.76 12.39 27.67 19.75 23.42"/><polyline class="cls-2" points="4.51 5.18 5.13 4.82 4.51 6.1 6.72 4.82 4.51 7.21 8.66 4.82 4.51 8.78 5.44 8.24 4.51 10.61 6.82 9.28 4.51 12.39 9.98 9.24 4.51 13.35 10.13 10.11 4.51 15.33 10.14 12.08 4.51 17.18 10.14 13.93 4.51 18.99 10.15 15.74 4.51 20.73 10.15 17.48 4.51 22.95 10.16 19.69 4.51 24.77 10.17 21.5 4.51 26.96 10.17 23.7 4.51 28.75 10.18 25.48 4.51 30.97 10.19 27.69 4.51 32.26 11.15 28.42 6.15 32.43 19.75 24.57 9.95 32.42 19.76 26.76 12.9 32.41 19.79 28.44 15.7 32.41 28.48 25.03 19.28 32.4 29.83 26.31 22.48 32.4 31.3 27.31 23.65 32.4 31.88 27.65 25.08 32.39 32.64 28.03 26.32 32.39 33.45 28.27 29.43 32.39 35.67 28.79 32.92 32.38 39.09 28.82 35.22 32.38 52.39 22.46 37.59 32.37 52.39 23.82 37.88 34.32 52.4 25.94 37.89 35.53 52.4 27.15 37.89 37.06 52.84 28.43 37.89 37.71 53.99 28.41 37.89 38.48 60.84 25.23 37.9 39.86 61.58 26.19 37.9 41.89 42.43 39.27 37.91 43.26 43.49 40.03 37.91 44.13 44.17 40.52 37.91 45.92 45.55 41.51 37.91 46.65 46.12 41.91 37.91 47.56 46.82 42.42 37.92 48.45 47.51 42.91 37.92 49.56 47.26 44.17 37.92 50.7 46.8 45.57 37.93 52.45 46.1 47.73 37.93 53.34 45.74 48.83 37.93 54.15 51.84 46.12 37.93 55.49 52.87 46.86 41.44 55.7 54.58 48.12 45.25 54.44 55.3 48.64 48.12 53.97 56.21 49.3 50.1 53.86 64.42 45.59 53.02 53.8 64.42 47.22 55.4 53.94 64.42 48.72 58.17 54.54 64.42 50.93 59.51 55.05 64.42 52.21 60.29 55.42 64.42 53.03 62.13 56.33 64.42 55.01 63.63 57.14 64.42 56.68"/></svg>