<svg id="Layer_1_copy" data-name="Layer 1 copy" xmlns="http://www.w3.org/2000/svg" viewBox="0 0 79.79 103.54"><defs><style>.cls-1,.cls-2{fill:none;stroke:#394170;stroke-linecap:round;stroke-linejoin:round;}.cls-1{stroke-width:0.37px;}.cls-2{stroke-width:0.37px;}</style></defs><title>toluca</title><g id="_Group_" data-name="&lt;Group&gt;"><polyline class="cls-1" points="3.54 54.2 3.67 54.12 3.02 55.48 4.32 54.73 2.88 56.1 4.51 55.16 2.85 56.29 4.57 55.3 2.72 57.49 4.83 56.28 2.73 57.61 4.85 56.39 2.81 58.31 4.96 57.07 2.87 58.85 4.98 57.63 3 59.26 5 58.1 3.1 59.52 5.01 58.42 3.2 59.76 4.99 58.73 3.33 60.1 4.95 59.16 3.54 60.52 4.91 59.73 4.02 61.13 4.69 60.74 4.11 61.24 4.62 60.94 4.27 61.45 4.4 61.37"/></g><g id="_Group_2" data-name="&lt;Group&gt;"><polyline class="cls-1" points="0.19 63.76 0.33 63.68 0.32 64.85 1.6 64.11 0.44 65.89 2.37 64.78 0.72 66.81 2.98 65.5 0.85 67.2 3.2 65.84 1.09 67.9 3.6 66.45 1.22 68.13 3.73 66.68 1.56 68.62 4 67.22 1.96 69.19 4.31 67.84 2.04 69.31 4.37 67.96 2.35 69.64 4.53 68.38 2.94 70.09 4.79 69.03 3.67 70.62 5.04 69.83 4.71 71.03 5.25 70.72 5.21 71.22 5.31 71.16"/></g><g id="_Group_3" data-name="&lt;Group&gt;"><polyline class="cls-1" points="6.52 61.63 6.59 61.59 6.44 62.12 6.81 61.9 6.36 62.6 7.03 62.21 6.14 63.9 7.62 63.04 6.12 64.73 7.84 63.74 6.12 65.4 8 64.31 6.11 65.8 8.09 64.66 6.12 66.23 8.19 65.04 6.29 67 8.13 65.94 6.32 67.15 8.12 66.12 6.54 68.08 8.03 67.22 6.61 68.21 7.96 67.44 6.92 68.78 7.65 68.36 7.08 69.07 7.5 68.83 7.09 69.08 7.49 68.85 7.25 69.37 7.33 69.32"/></g><g id="_Group_4" data-name="&lt;Group&gt;"><polyline class="cls-1" points="10.41 72.52 10.49 72.48 10.45 73.33 11.12 72.94 10.5 74.33 11.9 73.52 10.67 75.16 12.42 74.15 10.68 75.18 12.43 74.16 10.81 75.65 12.73 74.55 10.95 76.14 13.04 74.94 11.32 77.06 13.41 75.85 11.47 77.32 13.52 76.14 11.47 77.33 13.53 76.15 11.89 78.08 13.74 77.02 12.31 78.75 13.83 77.87 12.97 79.51 13.8 79.03 13.6 80.24 13.67 80.19"/></g><g id="_Group_5" data-name="&lt;Group&gt;"><polyline class="cls-1" points="3.91 76.18 3.98 76.14 4.4 76.92 5.19 76.47 4.64 77.28 5.77 76.63 4.92 77.7 6.37 76.87 5.12 78 6.75 77.06 5.76 78.66 7.69 77.55 6.3 79.2 8.41 77.98 7.01 79.76 9.12 78.53 7.16 79.85 9.25 78.64 8.16 80.45 10.13 79.32 8.19 80.46 10.14 79.33 8.87 80.69 10.53 79.73 9.01 80.73 10.6 79.81 9.23 80.8 10.72 79.94 9.77 80.95 11.01 80.24 10.68 81.05 11.39 80.64 11.65 81.09 11.76 81.03"/></g><g id="_Group_6" data-name="&lt;Group&gt;"><polyline class="cls-1" points="10.83 84.38 11.03 84.27 10.96 84.59 11.66 84.18 11 84.67 11.92 84.15 11.15 84.92 12.68 84.04 11.37 85.31 13.57 84.04 11.56 85.58 14.22 84.04 11.93 85.86 14.88 84.16 12.56 86.35 15.87 84.44 13.5 86.76 16.78 84.86 14.69 87.11 17.65 85.41 16.16 87.31 18.5 85.96 16.87 87.3 18.84 86.16 18.73 87.16 19.7 86.6 18.86 87.14 19.75 86.62 20.05 86.92 20.22 86.82"/></g><g id="_Group_7" data-name="&lt;Group&gt;"><polyline class="cls-1" points="16.03 79.61 16.13 79.55 16.26 80.5 17.32 79.89 16.31 80.69 17.53 79.98 16.33 80.76 17.61 80.03 16.7 81.64 18.58 80.55 16.82 81.84 18.8 80.7 17 82.14 19.08 80.94 17.11 82.32 19.24 81.09 17.17 82.42 19.33 81.17 17.2 82.48 19.39 81.22 17.79 83.21 20.05 81.91 18.16 83.59 20.34 82.33 18.35 83.8 20.49 82.56 18.85 84.24 20.78 83.12 19.02 84.37 20.84 83.32 19.64 84.86 21.06 84.04 20.48 85.42 21.11 85.06 20.99 85.74 21.09 85.69"/></g><g id="_Group_8" data-name="&lt;Group&gt;"><polyline class="cls-1" points="18.67 91.44 19 91.25 18.95 91.67 20.49 90.78 19.33 91.99 21.56 90.71 19.55 92.17 22.14 90.67 20.26 92.54 23.36 90.75 21.41 92.96 24.82 90.99 22.73 93.14 25.91 91.31 24.11 93.1 26.69 91.61 25.07 92.96 27.09 91.79 25.61 92.81 27.25 91.86 25.99 92.71 27.37 91.92"/></g><g id="_Group_9" data-name="&lt;Group&gt;"><polyline class="cls-1" points="22.57 84.19 22.68 84.14 22.9 84.85 23.82 84.32 23.13 85.31 24.51 84.51 23.55 86.14 25.47 85.03 23.79 86.45 25.87 85.25 23.9 86.58 25.99 85.37 24.17 86.91 26.3 85.67 24.45 87.25 26.63 85.99 24.53 87.33 26.71 86.07 24.59 87.41 26.79 86.14 24.62 87.44 26.81 86.17 25.26 88.14 27.39 86.91 25.5 88.34 27.55 87.16 25.64 88.46 27.64 87.3 26.08 88.83 27.93 87.76 26.64 89.31 28.19 88.42 27.26 89.77 28.42 89.09 27.54 89.97 28.52 89.4 27.84 90.17 28.54 89.77 28.18 90.42 28.57 90.2 28.52 90.66 28.59 90.61"/></g><g id="_Group_10" data-name="&lt;Group&gt;"><polyline class="cls-1" points="31.01 88.51 31.18 88.41 31.53 88.97 32.83 88.22 32.3 89.63 34.37 88.43 32.7 89.97 34.95 88.67 33.39 90.37 35.74 89.01 33.58 90.47 35.9 89.13 34.3 90.85 36.52 89.57 35.23 91.21 37.1 90.13 36.31 91.53 37.64 90.77 36.91 91.64 37.82 91.12 38 91.79 38.11 91.72"/></g><g id="_Group_11" data-name="&lt;Group&gt;"><polyline class="cls-1" points="35.43 99.64 39.05 97.54 30.68 103.33 40.74 97.52 31.33 103.35 39.06 98.89 32.22 103.32 37.28 100.4 33.18 103.27 35.79 101.77 33.4 103.3 35.33 102.19 33.88 103.36 34.35 103.08"/></g><g id="_Group_12" data-name="&lt;Group&gt;"><polyline class="cls-1" points="47.18 97.91 47.24 97.88 47.21 97.94 47.29 97.89 47.72 98.33 48.17 98.07 48.39 98.85 49.24 98.36 48.52 98.95 49.41 98.43 49.05 99.34 50.12 98.72 49.06 99.35 50.14 98.73 49.42 99.61 50.61 98.92 49.7 99.81 50.96 99.09 50.47 100.39 51.86 99.58 50.65 100.54 52.09 99.71 51.21 101 52.77 100.1 51.45 101.19 53.03 100.27 52.07 101.88 53.89 100.83 52.41 102.3 54.39 101.16 53.16 102.38 54.78 101.44 54.34 102.2 55.18 101.72 55.13 102.03 55.4 101.87"/></g><g id="_Group_13" data-name="&lt;Group&gt;"><polyline class="cls-1" points="48.26 88.27 49.44 87.59 48.01 88.49 50.01 87.33 46.41 90.58 51.65 87.56 46.31 90.86 51.34 87.95 45.92 92.1 49.23 90.19 45.84 92.36 48.57 90.78"/></g><g id="_Group_14" data-name="&lt;Group&gt;"><polyline class="cls-1" points="47.78 94.22 48.59 93.75 47.96 94.37 49.83 93.3 48.41 94.74 51.29 93.07 49.45 95.29 53.02 93.23 50.32 95.58 54.01 93.45 50.95 95.66 54.53 93.59 51.88 95.76 55.29 93.79 52.59 95.71 55.72 93.9 55.16 95.19 56.36 94.5"/></g><g id="_Group_15" data-name="&lt;Group&gt;"><polyline class="cls-1" points="55.94 90.91 57.18 90.19 55.3 91.5 58.27 89.79 56.5 91.95 60.9 89.41 56.82 92.06 61.46 89.38 58.21 92.41 63.2 89.54 59.01 92.47 63.83 89.68 60.92 92.23 63.03 91.01"/></g><g id="_Group_16" data-name="&lt;Group&gt;"><polyline class="cls-1" points="56.8 84.15 58.5 83.17 54.96 86.17 59.42 83.6 54.74 86.52 59.33 83.87 54.55 86.92 59.21 84.23 54.3 87.62 58.98 84.92 54.14 88.71 57.9 86.54 54.13 89.29 56.22 88.08"/></g><g id="_Group_17" data-name="&lt;Group&gt;"><polyline class="cls-1" points="66.11 83.53 68.54 82.12 63.8 85.92 71.61 81.41 64.48 86.35 71.59 82.25 64.62 86.41 71.45 82.47 66.94 85.97 69.36 84.58"/></g><g id="_Group_18" data-name="&lt;Group&gt;"><polyline class="cls-1" points="72.93 75.14 75.42 73.71 71.09 77.13 77.11 73.66 70.37 78.31 76.84 74.57 70.21 78.58 76.75 74.8 70.02 78.88 76.63 75.06 71.33 78.88 75.61 76.41 72.68 78.42 74.72 77.24"/></g><g id="_Group_19" data-name="&lt;Group&gt;"><polyline class="cls-1" points="69.85 70.75 70.14 70.58 68.74 71.85 70.21 71 68.16 72.85 70.32 71.61 67.9 73.32 70.37 71.89 67.69 74.29 70.43 72.71 67.62 74.6 70.4 72.99 67.55 74.94 70.37 73.31 67.58 75.59 70.3 74.03 67.62 76.08 70.21 74.58 67.69 76.86 69.83 75.63 67.78 77.17 69.66 76.08 68.08 78.17 68.77 77.77 68.21 78.58 68.33 78.5"/></g><g id="_Group_20" data-name="&lt;Group&gt;"><polyline class="cls-1" points="72.95 61.94 73.09 61.86 72.58 62.55 73.23 62.18 71.93 64.06 73.63 63.08 71.7 65.02 73.75 63.84 71.69 65.85 73.84 64.61 71.69 65.87 73.84 64.63 71.72 66.65 73.8 65.45 71.78 66.95 73.78 65.79 71.86 67.39 73.68 66.33 72.01 68.03 73.5 67.18 72.19 68.55 73.24 67.95 72.27 68.77 73.12 68.28 72.55 69.3 72.67 69.22"/></g><g id="_Group_21" data-name="&lt;Group&gt;"><polyline class="cls-1" points="78.06 64.38 79.61 63.49 76.79 65.64 79.56 64.03 75.54 67.49 79.48 65.22 75.14 68.33 79.33 65.91 75.03 68.66 79.21 66.25 74.89 69.1 79.04 66.7 74.71 69.64 78.85 67.25 74.69 69.82 78.77 67.46 74.61 71.05 77.04 69.64 74.6 71.2 76.55 70.08"/></g><g id="_Group_22" data-name="&lt;Group&gt;"><polyline class="cls-1" points="75.85 54 76.08 53.87 75.21 55.19 76.7 54.33 75.08 55.61 76.85 54.59 74.94 56.54 77.13 55.28 74.89 57.33 77.26 55.95 74.97 58.36 77.28 57.02 75.08 59.25 77.14 58.06 75.28 59.98 76.85 59.07 75.29 60 76.83 59.11 75.57 60.97 75.76 60.86"/></g><g id="_Group_23" data-name="&lt;Group&gt;"><polyline class="cls-1" points="27.76 96.42 30.21 95 27.96 96.62 31.8 94.4 29.22 96.91 34.25 94 29.89 97.02 35.16 93.97 30.51 97.05 35.78 94.01 31.74 97.03 36.76 94.13 32.82 96.84 36.32 94.82 33.63 96.51 35.72 95.31"/></g><g id="_Group_24" data-name="&lt;Group&gt;"><polyline class="cls-1" points="63.97 78.67 65.02 78.06 62.49 80.38 65.86 78.43 62.03 81.53 65.78 79.36 61.98 81.66 65.77 79.47 61.83 82.38 65.53 80.24 61.7 83.53 64.91 81.67 61.73 83.77 64.72 82.05 61.88 84.86 62.73 84.37 61.9 84.97 62.31 84.72"/></g><g id="_Group_25" data-name="&lt;Group&gt;"><polyline class="cls-1" points="55.7 61.75 55.96 61.6 55.08 63.1 57.71 61.58 54.67 63.97 58.83 61.57 53.97 65.03 59 62.12 53.84 65.21 58.95 62.26 52.45 66.96 58.48 63.48 51.48 67.93 58.28 64.01 49.56 69.44 57.99 64.57"/><polyline class="cls-1" points="33.38 41.41 42.56 36.11 36.81 40.17 43.68 36.21 38.25 39.89 44.36 36.37 39.11 39.81 44.86 36.5 40.07 39.73 45.42 36.64 40.71 39.7 45.83 36.75 41.05 39.74 46.1 36.82 41.83 39.81 46.73 36.98 42.45 39.87 47.17 37.14 43.55 39.98 47.91 37.47 44.47 40.24 48.67 37.81 45.31 40.47 49.38 38.13 45.47 40.52 49.51 38.19 46.74 40.97 50.53 38.78 47.73 41.45 51.38 39.34 48.16 41.66 51.75 39.58 49.15 42.21 52.64 40.2 49.81 42.69 53.21 40.72 50.72 43.35 54.01 41.45 51.04 43.58 54.28 41.71 51.32 43.84 54.57 41.97 51.61 44.13 54.87 42.25 51.78 44.31 55.02 42.43 52.01 44.55 55.22 42.69 52.63 45.18 55.76 43.38 52.71 45.26 55.83 43.46 53.09 45.65 56.16 43.88 53.57 46.35 56.68 44.55 53.59 46.38 56.71 44.58 54.03 47.02 57.12 45.24 54.36 47.5 57.4 45.74 54.72 48.04 57.71 46.31 55.13 48.94 58.19 47.17 55.4 49.55 58.48 47.77 55.45 49.64 58.52 47.87 55.58 49.94 58.63 48.18 55.83 50.49 58.84 48.75 56.38 50.6 58.97 49.1 56.45 50.6 58.98 49.13 57.82 50.59 59.22 49.78 59.32 50.58 59.48 50.49"/><polyline class="cls-1" points="28.92 39.65 32.06 37.84 27.06 41.22 34.67 36.82 25.95 42.33 36.1 36.47 25.63 42.7 36.67 36.33 24.34 44.27 38.52 36.08 23.45 45.7 40.37 35.93 23.41 45.77 40.45 35.93 23.17 46.16 40.83 35.96 23.01 46.41 41.07 35.98 22.86 46.68 41.34 36.01 22.39 47.8 31.22 42.7 21.95 48.82 28.58 44.99 21.58 49.88 27.32 46.56 21.47 50.32 26.87 47.2 21.17 51.55 25.99 48.77 20.91 52.8 25.27 50.28 20.86 53.45 25.06 51.03 20.82 53.93 24.91 51.57 20.8 54.23 24.81 51.91 20.76 54.67 24.68 52.41 20.7 55.42 24.48 53.24 20.75 56.56 24.37 54.47 20.78 56.92 24.34 54.87 20.84 57.6 24.27 55.62 20.87 57.96 24.24 56.02 20.91 58.42 24.28 56.47 20.93 58.72 24.31 56.77 21.02 59.19 24.35 57.27 21.11 59.55 24.39 57.66 21.13 59.63 24.39 57.74 21.14 59.66 24.4 57.78 21.38 60.66 24.5 58.86 21.53 61.27 24.66 59.47 21.69 61.9 24.83 60.09 21.85 62.28 24.94 60.5 21.88 62.34 24.96 60.56 21.91 62.42 24.98 60.64 22.2 63.11 25.19 61.39 22.36 63.48 25.32 61.77 22.56 63.97 25.55 62.24 22.59 64.03 25.58 62.31 22.7 64.29 25.7 62.56 22.79 64.51 25.8 62.77 22.96 64.85 25.96 63.12 23.2 65.24 26.16 63.53 23.57 65.83 26.46 64.16 23.89 66.36 26.82 64.67 24.43 67.22 27.41 65.51 24.87 67.76 27.81 66.07 24.96 67.86 27.88 66.18 25.12 68.05 28.02 66.38 25.45 68.44 28.38 66.75 25.66 68.68 28.61 66.98 26.14 69.25 29.14 67.52 26.48 69.64 29.51 67.89 27.15 70.21 30.13 68.48 27.48 70.49 30.51 68.74 28.15 71.07 31.26 69.28 28.35 71.24 31.48 69.43 28.62 71.47 31.78 69.64 29.38 71.98 32.57 70.14 29.5 72.06 32.71 70.21 29.98 72.35 33.24 70.47 30.18 72.48 33.48 70.58 30.79 72.85 34.17 70.9 31.08 73.03 34.5 71.06 31.15 73.08 34.58 71.1 31.39 73.22 34.84 71.22 32.38 73.64 36.01 71.55 33.53 74.13 37.35 71.92 33.58 74.15 37.41 71.93 34.15 74.39 38.21 72.04 35.06 74.62 39.35 72.15 36.45 74.96 41.26 72.18 37.56 75.18 43.03 72.02 38.66 75.27 45.18 71.51 40.29 75.41 57.45 65.5 40.89 75.38 57.17 65.98 42.04 75.28 56.68 66.83 44.66 74.9 54.96 68.95 48.95 73.42 51.31 72.06"/></g><g id="_Group_26" data-name="&lt;Group&gt;"><polyline class="cls-2" points="35.68 46.61 39.39 44.48 35.69 47.44 39.39 45.3 35.69 48.48 39.39 46.35 35.69 49.59 39.39 47.45 35.69 50.62 39.39 48.48 35.69 51.78 39.39 49.64 35.69 52.33 39.39 50.2 35.69 53.31 39.39 51.17 35.69 53.58 39.39 51.44 35.69 54.33 39.39 52.2 35.69 55.08 39.39 52.95 35.69 56.23 39.39 54.09 35.69 56.26 39.39 54.12 35.69 57.35 39.39 55.22 35.69 58.17 39.39 56.04 35.69 59.16 39.39 57.03 35.7 59.91 39.39 57.78 35.7 60.36 39.39 58.23 35.7 60.73 39.39 58.6 35.7 60.99 39.39 58.86 35.7 61.18 39.39 59.05 35.7 61.29 39.39 59.16 35.7 61.88 39.39 59.75 35.7 62.54 39.39 60.41 35.7 63.72 39.39 61.59 35.7 64.78 39.39 62.65 35.7 65.37 39.39 63.24"/><polyline class="cls-2" points="32.32 44.58 35.04 43 30.34 46.29 37.18 42.34 28.78 48.16 38.52 42.53 27.97 49.5 39.11 43.07 27.87 49.78 39.18 43.25 27.6 50.49 39.34 43.71 27.42 50.96 39.39 44.05 27.46 51.64 32.52 48.71 27.47 51.65 32.52 48.73 27.56 51.78 32.52 48.91 28.34 52.13 32.53 49.72 28.4 52.13 32.53 49.74 28.98 52.53 32.53 50.48 28.98 52.82 32.53 50.78 28.99 53.65 32.53 51.6 28.99 54.09 32.53 52.05 28.99 54.34 32.53 52.3 28.99 54.39 32.53 52.35 29 55.03 32.53 52.99 29 55.3 32.53 53.26 29 55.77 32.53 53.73 29.01 56.59 32.53 54.55 29.02 57.28 32.53 55.25 29.02 58.27 32.54 56.24 29.03 58.84 32.54 56.81 29.03 59.08 32.54 57.06 29.03 59.64 32.54 57.62 29.04 59.73 32.54 57.71 29.04 59.77 32.54 57.75 29.04 60.42 32.54 58.4 27.85 62.06 32.54 59.36 28.05 62.82 32.54 60.23 28.14 63.09 32.54 60.55 28.26 63.26 32.54 60.78 28.44 63.54 32.54 61.17 28.74 64 32.54 61.8 29.02 64.34 32.55 62.3 29.51 64.88 32.63 63.08 29.97 65.35 33.14 63.52 30.76 66.04 33.94 64.2 30.97 66.22 34.16 64.38 31.34 66.51 34.55 64.66 31.8 66.85 35.02 64.99 32.68 67.48 39.39 63.61 32.98 67.66 39.39 63.96 33.18 67.78 39.39 64.19 34.17 68.38 39.39 65.36 35.15 68.83 39.39 66.38 35.97 69.18 39.39 67.21 37.23 69.51 39.29 68.32 38.24 69.43 38.91 69.04"/></g><g id="_Group_27" data-name="&lt;Group&gt;"><polyline class="cls-1" points="46.8 48.31 50.25 46.32 47.36 48.81 50.71 46.87 48.02 49.48 51.31 47.58 49.19 49.91 51.82 48.39 50.99 49.9 52.23 49.19 52.41 49.9 52.55 49.82"/><polyline class="cls-1" points="40.34 42.25 40.5 42.16 40.34 42.82 41.36 42.23 40.34 43.79 42.81 42.36 40.34 44.66 43.87 42.63 40.34 44.88 44.11 42.7 40.34 45.44 44.75 42.89 40.69 45.6 45.17 43.02 41.64 45.76 45.9 43.3 41.66 45.77 45.92 43.31 41.87 45.83 46.08 43.39 42.37 46.34 46.81 43.78 42.37 46.37 46.83 43.79 42.37 47.1 47.5 44.14 42.37 47.4 47.77 44.28 42.37 48.22 48.41 44.74 42.37 48.67 48.74 45 42.38 48.92 48.91 45.14 42.38 48.97 48.95 45.17 42.38 49.61 49.42 45.55 42.38 49.88 49.62 45.7 42.38 50.36 49.96 45.98 42.38 51.18 46.73 48.66 42.38 51.88 46.73 49.36 42.38 52.87 46.73 50.35 42.38 53.44 46.73 50.92 42.38 53.68 46.73 51.17 42.38 54.24 46.73 51.73 42.38 54.34 46.74 51.82 42.38 54.38 46.74 51.86 42.38 55.02 46.74 52.51 42.38 55.98 46.74 53.47 42.38 56.85 46.74 54.34 42.38 57.17 46.74 54.66 42.38 57.41 46.74 54.89 42.38 57.79 46.74 55.28 42.38 58.43 46.74 55.92 42.38 58.93 46.74 56.41 42.38 59.75 46.74 57.24 42.38 60.49 46.74 57.98 42.39 61.63 46.74 59.12 42.39 61.94 46.74 59.42 42.39 62.44 46.74 59.92 42.39 63.05 46.74 60.54 42.39 64.19 46.74 61.67 42.39 64.53 46.74 62.02 42.39 64.77 46.74 62.25 42.39 65.94 46.74 63.42 42.39 66.95 46.75 64.44 42.39 67.78 46.75 65.26 42.39 68.83 46.75 66.32 42.39 69.75 46.75 67.24 44.87 68.89 46.75 67.81 45.36 68.65 46.75 67.85"/></g><polyline class="cls-2" points="43.68 80.44 43.86 80.33 43.69 80.5 43.92 80.37 43.8 81.17 44.06 81.02"/><polyline class="cls-2" points="46.85 79.73 47.05 79.62 46.86 79.8 47.07 79.67 47.03 80.5 47.3 80.35 47.13 80.86 47.39 80.7 47.35 81.67 47.61 81.52 47.47 82.12 47.73 81.98 47.58 82.42 47.8 82.3"/><polyline class="cls-2" points="43.95 82.06 44.16 81.94 43.97 82.12 44.21 81.98 44.09 82.85 44.37 82.69 44.12 83.01 44.37 82.87"/><polyline class="cls-2" points="20.51 72.42 21.38 71.91 20.19 72.67 21.39 71.98 19.05 73.77 19.8 73.34"/><polyline class="cls-2" points="16.48 41.89 16.6 41.82 16.46 41.98 16.66 41.86 17.06 42.43 17.35 42.26 17.41 42.63 17.71 42.46 18.22 43.11 18.54 42.92 18.58 43.31 18.89 43.13"/><polyline class="cls-2" points="14.9 67.28 15.52 66.92 14.93 67.33 15.83 66.81 17.06 66.7 17.7 66.33"/><polyline class="cls-2" points="59.73 70.76 60.03 70.59 59.79 70.8 60.1 70.62 60.39 71.22 60.47 71.18"/><polyline class="cls-2" points="15.36 48.75 15.49 48.68 15.36 48.82 15.57 48.7 16.07 49.13 16.32 48.98"/><polyline class="cls-2" points="14.51 55.5 14.68 55.41 14.52 55.57 14.8 55.41 15.03 55.69 15.36 55.5"/><polyline class="cls-2" points="12.71 51.86 12.95 51.72 12.74 51.92 13.07 51.73 13.85 52.08 14.27 51.84 14.46 52.14 14.89 51.89 15.41 52.22 15.65 52.08"/><polyline class="cls-2" points="30.98 79.53 31.03 79.5 30.91 79.64 31 79.59 30.38 80.75 30.7 80.57 30.54 80.8 30.68 80.72"/><polyline class="cls-2" points="64.79 61.23 64.83 61.21 64.87 61.26 64.94 61.21 65.8 61.52 66.19 61.3 66.03 61.58 66.17 61.5"/><polyline class="cls-2" points="64.8 55.42 65.12 55.23 64.79 55.49 65.26 55.23 66.12 55.53 66.63 55.24 66.83 55.53 67.29 55.26 67.4 55.53 67.55 55.44"/><polyline class="cls-2" points="61.03 71.75 61.33 71.58 61.09 71.79 61.39 71.61 61.73 72.22 61.99 72.07 61.89 72.34 62 72.28"/><polyline class="cls-2" points="63.89 69.41 68.14 66.95 64.49 69.81 67.71 67.95 64.61 69.93 67.58 68.22 64.99 70.6 66.95 69.46 64.91 71.25 66.53 70.31"/><polyline class="cls-2" points="67.32 58.47 70.28 56.77 67.75 58.48 70.26 57.03 67.8 58.48 70.26 57.06 68.29 58.61 70.23 57.49 68.29 59.14 70.19 58.04 68.28 59.62 70.16 58.54"/><polyline class="cls-2" points="63.84 60.2 70.31 56.47 65.45 60.2 66.99 59.31 67.19 60.23 68.05 59.73 67.86 60.97 70.08 59.69 67.85 61.05 70.08 59.77 67.82 61.33 70.02 60.06"/><polyline class="cls-2" points="66.97 61.54 67.14 61.44 67.55 61.88 69.92 60.51 67.57 62.82 69.7 61.59 67.54 63.03 69.66 61.81"/><polyline class="cls-2" points="66.14 63.71 67.22 63.09 66.61 63.87 69.59 62.15 67.02 64.51 69.39 63.14 66.85 65.1 69.27 63.7"/><polyline class="cls-2" points="63.19 64.25 65.9 62.69 63.38 64.32 66.11 62.75 63.9 64.81 67 63.02 63.61 65.41 65.79 64.15"/><polyline class="cls-2" points="62.87 65.48 63.03 65.39 65.29 65.19 65.8 64.9 65.94 65.52 66.55 65.17 66.09 65.64 66.77 65.24 66.31 65.85 69.08 64.25 66.39 66.2 68.91 64.75 66.42 66.3 68.86 64.89 66.34 66.7 68.7 65.34 65.89 67.52 68.47 66.03"/><polyline class="cls-2" points="60.16 69.49 64.27 67.12 60.97 69.88 64.66 67.75 61.29 70.32 68.4 66.21 61.25 70.57 68.31 66.5"/><polyline class="cls-2" points="61.72 70.51 63.69 69.37 62.33 70.76 63.2 70.26 62.72 71.07 63.64 70.54 63.15 71.74 64.42 71 62.29 73.3 66.11 71.09 62.05 73.62 65.9 71.4"/><polyline class="cls-2" points="58.18 71.66 58.6 71.42 58.41 71.89 58.88 71.62 58.71 72.17 59.23 71.87 59.15 72.59 59.75 72.25 59.32 72.75 59.95 72.39 59.93 73.34 60.66 72.92 60.38 73.81 61.2 73.33 60.74 74.32 61.78 73.72 60.47 75.54 64.79 73.04"/><polyline class="cls-2" points="55.37 74.35 56.49 73.7 55.43 74.42 56.56 73.77 55.66 74.67 56.8 74.01 55.92 74.96 57.08 74.29 56.29 75.36 57.47 74.68 56.49 75.58 57.68 74.89 56.81 75.94 58.03 75.24 57.08 76.23 58.32 75.52 57.58 76.78 57.85 76.63"/><polyline class="cls-2" points="58.13 76.46 58.92 76 58.44 77.32 64.12 74.04 57.63 78.06 63.66 74.58"/><polyline class="cls-2" points="53.45 75.82 54.55 75.19 54.38 76.07 55 75.71 54.5 76.21 55.12 75.85 54.85 77.16 55.8 76.62"/><polyline class="cls-2" points="53.22 76.88 53.42 76.76 53.45 77.28 53.7 77.13 53.51 77.37 53.77 77.22 53.94 78.05 56.01 76.85 54.18 78.43 54.42 78.29 54.6 79.06 54.83 78.93 54.7 79.19 54.9 79.08"/><polyline class="cls-2" points="55.45 77.64 56.28 77.16 55.61 77.83 56.44 77.35 55.63 77.86 56.47 77.38 55.91 78.4 56.88 77.84 55.89 79.29 63.27 75.03 55.53 79.67 62.96 75.39"/><polyline class="cls-2" points="49.53 77.9 54.44 75.06 49.55 77.92 54.48 75.07 49.97 78.82 52.19 77.54 50.14 79.18 52.38 77.89 50.16 79.23 52.41 77.94 50.48 79.9 52.8 78.56 50.77 80.52 53.16 79.14 50.87 80.73 53.28 79.34 51.71 81.04 53.72 79.88 51.94 81.49 54.27 80.14"/><polyline class="cls-2" points="46.97 78.75 56.4 73.31 47.9 78.93 48.54 78.56 48.34 79.64 48.89 79.33 48.63 80.65 49.32 80.25 48.81 81.34 49.61 80.88 48.92 82.1 49.91 81.53 48.79 82.58 50.06 81.85 48.67 82.74 50.09 81.92"/><polyline class="cls-2" points="57.13 72.66 57.36 72.52 57.42 72.94 57.65 72.81 58 73.5 58.22 73.38 58.61 74.09 58.81 73.97 59.36 74.81 59.54 74.7 59.51 74.94 59.68 74.84 59.62 75.03 59.78 74.94"/><polyline class="cls-2" points="64.68 66.56 64.97 66.39 64.9 66.64 65.21 66.46 65.27 66.78 65.47 66.67"/><polyline class="cls-2" points="64 51.43 69.41 48.31 64.69 51.92 65.37 51.52 65.2 52.04 65.46 51.89"/><polyline class="cls-2" points="65.63 51.31 69.56 49.05 66.28 51.57 67.11 51.1 66.71 51.88 67.2 51.6 66.75 51.88 67.2 51.61 66.96 51.84 67.22 51.69"/><polyline class="cls-2" points="67.36 50.98 69.68 49.64 68.01 50.99 69.75 49.99 68.07 51.43 69.84 50.41 68.2 52.32 70.01 51.27 68.28 52.81 70.09 51.76"/><polyline class="cls-2" points="64.98 54.02 66.56 53.12 65.23 54.02 66.85 53.08 65.91 54.02 67.69 52.99 67.16 54.02 70.13 52.31 68.21 54.38 70.19 53.24 68.26 54.48 70.2 53.36 68.35 54.72 70.22 53.64 68.36 54.88 70.23 53.81 68.39 55.74 70.28 54.65 68.38 56.31 70.32 55.19 68.38 56.62 70.34 55.49"/><polyline class="cls-2" points="63.52 48.36 63.9 48.14 65.31 48.14 66.11 47.68 65.93 48.01 66.39 47.75 65.98 48 66.39 47.77"/><polyline class="cls-2" points="63.75 46.92 68.14 44.39 64.47 47.07 65.05 46.73 64.5 47.2 65.08 46.86 64.51 47.22 65.09 46.89 64.68 47.82 65.25 47.49"/><polyline class="cls-2" points="65.51 46.54 68.32 44.92 66.17 46.47 68.41 45.18 66.25 46.49 68.43 45.23 66.94 47.06 68.71 46.04 66.96 47.11 68.73 46.09 66.99 47.16 68.75 46.15 67.2 47.76 68.96 46.74 67.2 48.02 69.03 46.96 66.92 48.81 69.22 47.48"/><polyline class="cls-2" points="65.93 44.01 67.55 43.07 65.96 44.05 67.58 43.12 66.5 44.88 68.01 44.01"/><polyline class="cls-2" points="61.08 42.72 65.9 39.94 64.67 41.64 66.35 40.67 65.11 42.46 66.78 41.5 65.31 42.85 66.98 41.89 62.61 45.06 67.23 42.39"/><polyline class="cls-2" points="63.45 39.75 65.12 38.78 63.72 40.08 65.36 39.13 63.62 40.98 65.79 39.73"/><polyline class="cls-2" points="30.74 34.97 46.14 26.08 32.28 34.32 46.44 26.14 35.12 33.51 47.5 26.36 37.54 33.09 48.66 26.68 38.93 32.98 49.41 26.94 40.1 32.89 50.03 27.15 41.56 33.01 51.07 27.52 41.68 33.02 51.16 27.55 43.13 33.13 52.14 27.93 43.31 33.15 52.25 27.99 44.47 33.36 53.07 28.4 44.83 33.45 53.34 28.54 46.18 33.78 54.37 29.05 46.47 33.85 54.59 29.16 47.04 33.99 55.03 29.38 47.21 34.04 55.16 29.45 48.39 34.52 56.12 30.06 49.39 34.95 56.92 30.6 50.41 35.38 57.73 31.15 50.63 35.49 57.92 31.28 50.78 35.58 58.06 31.38 51.76 36.2 58.94 32.05 52.52 36.66 59.56 32.59 52.73 36.8 59.74 32.75 53.59 37.34 60.45 33.38 54.31 37.96 61.16 34 54.85 38.43 61.66 34.49 55.46 38.95 62.17 35.07 55.84 39.28 62.49 35.44 56.34 39.76 62.94 35.94 56.66 40.14 63.27 36.32 56.77 40.27 63.39 36.45 57.23 40.8 63.85 36.98 57.89 41.57 64.45 37.78 58.44 42.21 64.93 38.47 58.96 43.04 62.7 40.88 59.14 43.32 62.9 41.15 59.35 43.66 60.46 43.02 59.43 43.79 60.54 43.15 59.55 43.99 60.65 43.35 59.66 44.17 60.75 43.54 59.77 44.35 60.86 43.73 60.11 44.88 62.43 43.54 60.46 45.57 61.45 44.99 60.52 45.7 61.52 45.13 60.83 46.44 67.38 42.66 61.09 47.04 64.92 44.83 61.21 47.33 65.09 45.09 61.57 48.18 62.96 47.38 61.81 48.94 62.7 48.42 62.02 49.82 63.02 49.24 62.15 50.32 63.43 49.58 62.25 50.74 64.18 49.63 62.36 51.19 65.51 49.37 62.54 51.91 69.35 47.98 62.65 53.03 63.8 52.36 62.66 53.2 63.82 52.53 62.71 53.78 63.9 53.09 62.72 53.98 63.93 53.28 62.76 54.48 64.78 53.31 62.78 54.76 65.41 53.24 62.84 55.44 64.03 54.75 62.78 56.62 63.96 55.94 62.73 57.33 64 56.59 62.63 58.55 65.79 56.72 62.56 59.34 67.1 56.73 62.32 60.34 70.35 55.7 62.24 60.66 70.34 55.99 62.13 61.1 63.5 60.3 61.91 61.99 63.4 61.13 61.8 62.45 63.35 61.55 61.41 63.55 63.94 62.08 61.29 63.81 64.17 62.15 60.65 65.34 65.47 62.56 60.5 65.69 62.52 64.53 60.47 65.77 62.43 64.63 60.45 65.82 62.38 64.7 60.07 66.52 61.99 65.41 59.38 67.64 61.99 66.13 58.94 68.35 62.22 66.45 58.02 69.63 62.85 66.84 57.31 70.45 63.38 66.95 56.6 71.28 64.45 66.75 53.81 73.81 58.43 71.14 52.91 74.43 58.4 71.27"/><polyline class="cls-2" points="42.81 79.66 46.62 77.46 44.75 79.7 57.05 72.6 45.05 80.27 45.72 79.88 45.14 80.97 45.81 80.58 45.38 81.88 46.05 81.5 45.58 82.92 46.34 82.49 45.44 83.46 46.54 82.83"/><polyline class="cls-2" points="39.77 79.75 42.33 78.28 40.95 79.74 43.67 78.17 41.97 79.73 45.37 77.77 41.98 80.01 42.34 79.8 42.02 80.55 42.44 80.31"/><polyline class="cls-2" points="41.28 80.82 41.5 80.7 41.29 81.23 42.48 80.55 41.3 81.72 42.56 80.99 41.3 81.78 42.57 81.05 41.32 82.73 42.73 81.92 41.33 83.25 42.81 82.39 41.33 83.46 42.84 82.58 41.33 83.63 42.87 82.74 41.34 84.02 42.94 83.1"/><polyline class="cls-2" points="36.58 79.55 38.67 78.34 37.44 80.14 37.71 79.98 37.42 80.48 37.68 80.33 37.36 81.29 37.61 81.14 37.32 81.82 37.56 81.68 37.28 82.33 37.52 82.19 37.24 83.24 37.44 83.13"/><polyline class="cls-2" points="37.91 79.7 40.06 78.45 38.9 79.97 41.74 78.32 38.88 80.22 39.45 79.9 38.85 80.78 39.48 80.41 38.79 81.69 40.11 80.92 38.71 82.79 40.13 81.97 38.44 83.69 40.14 82.7"/><polyline class="cls-2" points="34.07 79.07 35.87 78.03 34.5 79.16 36.29 78.13 34.6 79.18 36.39 78.15 34.7 79.2 36.49 78.17 35.22 79.32 37.12 78.22 35.66 80.1 36.28 79.73 35.64 80.23 36.27 79.86"/><polyline class="cls-2" points="34.78 80.33 34.94 80.24 34.76 80.43 35.06 80.26 35.26 81.32 36.19 80.78 35.18 81.8 36.15 81.25"/><polyline class="cls-2" points="34.39 81.93 34.56 81.83 34.18 83.06 36.08 81.96 34.11 83.45 36.05 82.33"/><polyline class="cls-2" points="30.87 77.89 32.33 77.05 31.64 78.21 33.13 77.35 32.15 78.93 34.36 77.65 32.01 79.56 35.03 77.82 31.92 79.93 35.42 77.91 31.82 80.39 33.79 79.25 31.54 81.63 33.53 80.48 31.45 82.03 33.45 80.88 31.38 82.35 33.38 81.2 31.32 82.64 33.32 81.48"/><polyline class="cls-2" points="29.95 81.62 30.13 81.52 29.78 82.05 30.29 81.76"/><polyline class="cls-2" points="27.88 76.65 29.41 75.77 28.28 76.69 29.64 75.9 29 77.11 30.48 76.26 29.06 77.17 30.57 76.3 29.46 77.98 31.61 76.74 29.36 78.41 31.98 76.9 28.98 79.17 30.43 78.33"/><polyline class="cls-2" points="28.03 77.81 28.34 77.63 28.01 77.84 28.35 77.64 27.24 79.04 27.88 78.67 26.75 80.03 27.05 79.86"/><polyline class="cls-2" points="27.54 79.33 28.17 78.96 28.36 79.8 30.22 78.72 28.02 80.59 29.73 79.6"/><polyline class="cls-2" points="25.02 74.46 26.28 73.73 25.56 74.84 26.79 74.13 25.61 75.41 27.28 74.44 24.95 76.35 25.45 76.06 23.87 77.93 24.26 77.71 23.83 78.08 24.11 77.92"/><polyline class="cls-2" points="26.14 75.3 27.45 74.54 26.5 75.53 27.82 74.77 26.91 75.81 28.25 75.04 26.81 76.2 28.52 75.21 26.65 76.43 28.64 75.28 26.29 76.95 28.9 75.45 25.07 78.66 26.55 77.8"/><polyline class="cls-2" points="23.4 72.94 24.57 72.26 23.53 73.05 24.71 72.37 23.84 73.31 25.02 72.63 23.91 73.37 25.09 72.69 24.03 73.8 25.45 72.98 22.26 75.71 26.07 73.5 22.2 76.68 23.96 75.67 21.86 77.09 23.71 76.02"/><polyline class="cls-2" points="20.95 70.82 22.45 69.96 21.98 71.35 23.09 70.71 22.14 71.61 23.29 70.94 22.35 72.53 23.89 71.64 20.73 74.14 24.36 72.04"/><polyline class="cls-2" points="19.55 68.19 20.73 67.52 19.97 68.82 21.12 68.15 20.1 69.01 21.24 68.35 20.5 69.59 21.62 68.95 20.52 69.63 21.64 68.98 20.75 70.26 22.07 69.5"/><polyline class="cls-2" points="18.53 70.94 19.75 70.23 18.01 71.28 19.78 70.27"/><polyline class="cls-2" points="14.68 62.65 17.96 60.76 16.84 61.77 18.04 61.08 16.88 61.85 18.06 61.17 16.99 62.13 18.13 61.47 17.19 62.65 18.27 62.03"/><polyline class="cls-2" points="15.41 63.67 15.84 63.42 15.75 63.59 18.3 62.13 15.81 63.58 18.3 62.14 16.15 63.5 18.32 62.24 17.55 63.82 18.62 63.2 17.62 64 18.7 63.38 17.63 64.01 18.7 63.39 17.76 64.37 18.85 63.74"/><polyline class="cls-2" points="15.48 65.66 17.4 64.54 17.89 65.3 19.19 64.55 18.48 66.08 19.57 65.45 18.41 67.18 19.96 66.28 18.31 67.32 20 66.34"/><polyline class="cls-2" points="16.52 40.41 42.26 25.55 16.78 40.55 42.71 25.58 17.55 40.97 44.05 25.67 17.87 41.16 44.54 25.75 18.06 41.27 44.83 25.81 18.2 41.35 45.04 25.86 18.58 41.57 45.6 25.97 19.19 41.93 25.51 38.27 20.01 42.4 23.11 40.61 19.91 43.02 22.16 41.72 19.85 43.14 22.01 41.89 19.34 43.97 21.36 42.81 19.29 44.04 21.32 42.87"/><polyline class="cls-2" points="14.72 43.82 15.88 43.15 14.76 43.84 15.92 43.17 15.52 44.18 16.59 43.56 15.65 44.24 16.71 43.63 16.22 44.5 17.21 43.92 16.93 44.82 17.86 44.28 17.18 44.93 18.1 44.4 17.6 45.12 21.22 43.03 18.28 45.43 20.55 44.12 18.03 46.73 19.6 45.83 17.95 46.92 19.52 46.01 17.85 47.17 19.42 46.26"/><polyline class="cls-2" points="16.45 46.11 16.62 46.01 16.34 46.44 16.9 46.12"/><polyline class="cls-2" points="13.45 46.82 15.67 45.54 14.28 47.06 15.57 46.31 14.98 47.27 16.22 46.55 15.96 47.55 16.94 46.98 16.11 47.6 17.07 47.04 16.92 47.83 19.35 46.43 17.26 48.69 18.75 47.83 16.85 49.84 18.36 48.97"/><polyline class="cls-2" points="12.99 50.53 14.6 49.61 13.75 50.56 14.98 49.86 14.56 50.63 15.54 50.07 15.42 50.75 16.49 50.13 15.94 50.95 18.19 49.64 16.03 50.99 18.16 49.76 16.41 51.65 17.91 50.78 16.4 52.45 17.68 51.71 16.09 53.04 17.59 52.17"/><polyline class="cls-2" points="12.09 54.23 13.71 53.3 12.48 54.22 14.03 53.33 13.28 54.22 14.71 53.39 13.95 54.21 15.34 53.41 15.44 54.2 17.53 52.99 16.16 54.46 17.47 53.7 16.2 55.12 17.41 54.42 16.19 55.65 17.37 54.97 15.95 56.44 17.31 55.65"/><polyline class="cls-2" points="12.22 58.23 14.71 56.79 14.66 57.97 15.28 57.61 15.11 57.92 15.32 57.8"/><polyline class="cls-2" points="15.46 57.26 17.35 56.17 16.2 57.73 17.42 57.03 16.23 58 17.44 57.3 16.35 59.02 17.53 58.34 16.4 59.4 17.56 58.73 16.42 59.59 17.57 58.92"/><polyline class="cls-2" points="12.76 60.86 15.43 59.31 14.53 60.48 15.78 59.76 15.08 60.36 16.21 59.71 16.59 60.35 17.7 59.71 16.77 61.01 17.88 60.37 16.78 61.05 17.89 60.41 16.8 61.15 17.92 60.51"/><polyline class="cls-2" points="14.01 56.44 14.13 56.38 13.99 56.49 14.14 56.4"/><polyline class="cls-2" points="11.97 55.71 12.49 55.41 13.45 55.64 13.69 55.5"/><polyline class="cls-2" points="14.83 45.38 14.99 45.29 14.68 45.79 15.32 45.42 14.66 45.83 15.35 45.43"/><polyline class="cls-2" points="23.73 30.28 26.26 28.82 23 30.78 27.23 28.33 19.41 33.65 31.45 26.7 18.35 34.67 32.78 26.34 16.67 36.58 35.31 25.82 15.88 37.56 36.52 25.65 14.58 39.48 38.82 25.49 14.4 39.74 39.13 25.47 13.75 40.81 40.4 25.43 13.6 41.11 40.73 25.45 12.95 42.4 16.25 40.5 12.87 42.58 16.15 40.68 12.18 43.95 15.4 42.09 11.73 45.26 15.66 42.99 11.36 46.31 14.15 44.7 11.12 47 13.85 45.42 10.95 47.5 14.01 45.73 10.82 48.01 14.43 45.92 10.82 48.04 14.46 45.94 10.76 48.34 13.2 46.93 10.51 49.55 13.17 48.01 10.26 50.75 14.45 48.33 10.08 51.78 14.43 49.27 10.05 52.28 12.05 51.12 10.01 52.81 11.89 51.73 9.94 53.81 12.04 52.59 9.86 55.01 12.98 53.21 9.84 55.39 11.77 54.27 9.85 56.14 11.81 55.01 9.86 56.35 11.82 55.22 9.92 57.21 11.79 56.13 9.95 57.66 11.82 56.59 9.99 58.25 12.46 56.83 10 58.38 12.7 56.83 10.07 59.44 11.86 58.41 10.08 59.48 11.86 58.45 10.13 59.93 11.93 58.89 10.22 60.4 12.01 59.37 10.29 60.75 12.63 59.4 10.44 61.45 14.34 59.2 10.64 62.44 12.36 61.45 10.71 62.8 12.45 61.8 10.92 63.77 14.44 61.75 11.15 64.42 16.51 61.32 11.38 65.1 13.04 64.14 11.6 65.72 13.26 64.76 11.72 66.07 13.38 65.11 11.86 66.46 14.16 65.13 12.08 67.09 16.08 64.78 12.22 67.47 14.29 66.28 12.57 68.18 14.07 67.32 12.97 68.98 14.44 68.14 13.2 69.44 14.94 68.44 13.43 69.9 16.28 68.25 13.77 70.57 20.3 66.8 13.91 70.85 20.47 67.06 14.42 71.62 19 68.98 14.87 72.29 16.41 71.41 15.38 73.05 19.91 70.43 15.42 73.1 19.95 70.49 15.71 73.53 22.29 69.73 16.02 74 18.33 72.66 16.18 74.21 18.09 73.11 16.54 74.62 18.11 73.71 17.21 75.39 18.72 74.52 17.78 76.03 24.5 72.15 18.47 76.81 20.88 75.42 19.15 77.47 20.82 76.51 19.22 77.53 20.88 76.57 19.55 77.82 21.2 76.88 19.73 77.98 21.36 77.04 20.47 78.63 22.83 77.27 20.96 79.06 22.79 78 20.99 79.08 22.8 78.04 21.64 79.65 23.26 78.71 21.92 79.84 23.54 78.91 22.25 80.06 23.94 79.09 22.7 80.37 26.22 78.34 23.6 80.98 25.65 79.79 24.35 81.48 26.03 80.51 24.66 81.69 26.29 80.76 24.82 81.8 26.48 80.84 25.18 81.98 26.93 80.97 26.14 82.47 29.1 80.76 27.08 82.94 28.91 81.88 27.17 82.98 29 81.92 27.46 83.13 29.32 82.05 28.48 83.61 30.42 82.49 29.59 84 33.23 81.9 30.1 84.18 33.12 82.44 30.59 84.35 33.01 82.95 31.37 84.62 33.43 83.44 31.87 84.8 34.02 83.56 33.1 85.07 36.09 83.34 34.18 85.29 36.56 83.92 35.55 85.58 40.14 82.92 35.79 85.62 40.15 83.11 37.52 85.77 40.32 84.15 38.93 85.86 43.01 83.5 40.81 85.89 44.3 83.88 41.88 85.82 46.7 83.04 43.21 85.73 47.46 83.28 45.28 85.44 51.95 81.59 45.73 85.35 54.85 80.08 46.76 85.14 62.24 76.2 47.62 84.96 61.67 76.85 48.9 84.59 60.62 77.82 50.67 83.97 59.28 79 53.92 82.52 56.44 81.06"/><polyline class="cls-2" points="32.74 9.73 33.52 9.28 32.27 10.77 35.16 9.11 32.24 10.91 35.32 9.13"/><polyline class="cls-2" points="29.44 11.87 30.39 11.32 29.03 12.63 31.71 11.08 28.95 12.84 32.05 11.05"/><polyline class="cls-2" points="25.83 13.9 26.88 13.29 25.57 14.32 27.7 13.09 25.35 15.19 35.74 9.19 25.36 15.62 36.33 9.29"/><polyline class="cls-2" points="44.35 11.97 47.68 10.05 44.37 11.98 47.69 10.06 44.94 12.32 47.88 10.61 45.28 12.52 47.98 10.96 45.77 12.81 48.68 11.13 46.06 12.98 49.2 11.18 46.45 13.21 49.74 11.31 47.29 13.83 50.71 11.86 48.13 14.49 51.22 12.7 48.72 14.95 51.99 13.06 49.19 15.33 52.91 13.18 49.69 15.81 53.75 13.46 49.91 16.02 54.01 13.65 50.28 16.38 54.41 13.99 50.29 16.39 54.42 14.01 50.51 16.6 54.57 14.26 50.98 17.06 54.77 14.87 51.43 17.49 54.84 15.52 51.84 17.93 55.31 15.93 52.5 18.67 56.39 16.43 52.93 19.15 56.85 16.89 53.23 19.5 56.99 17.34 53.27 19.54 57 17.39 53.81 20.15 57.19 18.2 54.05 20.43 57.62 18.37 54.09 20.48 57.7 18.4 54.51 21.03 58.54 18.71 54.87 21.5 59 19.12 55.24 21.98 59.45 19.55 55.39 22.18 59.53 19.79 55.92 22.88 59.77 20.65 56.28 23.34 60.31 21.01 56.44 23.55 60.58 21.16 56.57 23.73 60.81 21.28"/><polyline class="cls-2" points="42.22 11.9 46.71 9.31 42.45 12.22 47.17 9.49 42.66 12.51 47.45 9.74 43.13 13.12 44.43 12.37 43.38 13.46 44.64 12.73 43.84 14.08 45.01 13.4 44.39 14.82 45.45 14.21 44.54 15.03 45.58 14.43 44.74 15.29 45.74 14.72 44.88 15.48 45.85 14.92 45.29 16.06 46.19 15.54 45.7 16.74 46.58 16.23 45.75 16.83 46.63 16.32 45.98 17.21 46.84 16.71 46 17.25 46.86 16.75 46.48 18.05 47.31 17.56 46.65 18.33 47.47 17.85 46.95 18.83 47.76 18.36 47.09 19.08 47.9 18.61 47.54 19.82 48.34 19.36"/><polyline class="cls-2" points="40.14 11.47 43.95 9.27 40.79 12.21 46.14 9.12 40.93 12.38 46.43 9.2 41.05 12.73 42.15 12.09 41.06 12.75 42.16 12.12 41.3 13.46 42.24 12.92 41.48 14.05 42.31 13.57 41.58 14.92 42.41 14.44 41.7 15.89 42.52 15.42"/><line class="cls-2" x1="39.65" y1="15.68" x2="40.14" y2="15.4"/><polyline class="cls-2" points="35.9 12.06 42.22 8.41 35.8 12.24 42.26 8.51 34.91 13.85 37.64 12.27 34.36 14.83 36.79 13.43 34.12 15.27 36.4 13.95 33.47 16.44 35.39 15.33 32.55 18.09 34.29 17.08 31.72 19.58 33.42 18.6 31.68 19.64 33.39 18.66 31.61 19.77 33.31 18.79"/><polyline class="cls-2" points="17.93 24.34 27.59 18.76 19.86 24.27 25.8 20.84 20.89 24.69 24.43 22.64 21.26 24.91 23.84 23.42 21.72 25.19 21.89 25.1"/><polyline class="cls-2" points="23.4 24.14 24.26 23.64 25.61 23.66 26 23.44 24.53 25.21 24.85 25.03 24.38 25.5 24.71 25.31 24.15 26.66 24.39 26.52 24.39 27.28 24.56 27.18 25.18 27.57 26.73 26.68 25.38 27.55 26.55 26.87"/><polyline class="cls-2" points="27.13 25.96 27.46 25.77 26.44 26.72 26.98 26.41"/><polyline class="cls-2" points="27.6 25.97 28.04 25.71 28.27 25.88 29.71 25.05 28.48 25.85 29.53 25.24"/><polyline class="cls-2" points="29.33 17.56 29.39 17.52 29.33 18.53 29.53 18.42 29.33 19.13 29.53 19.02 29.33 19.58 29.53 19.47 29.33 19.7 29.53 19.58 29.33 20.4 29.53 20.29 27.5 22.63 27.8 22.46 27.94 22.94 28.21 22.78 29.12 23.14 29.26 23.06 29.45 23.4 29.61 23.31 29.66 23.59 29.83 23.5 29.76 23.89 29.93 23.79 29.83 24.22 30.04 24.1 29.75 24.58 29.98 24.44 29.71 24.75 29.94 24.62 29.39 25.1 29.89 24.81"/><polyline class="cls-2" points="29.59 18.06 29.76 17.96 30 18.55 30.17 18.45 30.29 18.89 30.46 18.79 30.41 19.04 30.59 18.94 30.69 19.36 30.86 19.26 30.74 19.43 30.92 19.33 31.3 20.09 33.19 19.01 31.45 20.27 32.96 19.4"/><polyline class="cls-2" points="31.77 20.28 32.8 19.68 32.73 20.2 32.99 20.05 33.34 20.28 33.58 20.14 32.78 21.76 33.17 21.54 32.42 22.81 32.66 22.67 32.48 23.45 32.64 23.36 33.01 23.95 33.31 23.77 33.03 23.95 33.34 23.77 33.59 23.91 35.17 22.99"/><polyline class="cls-2" points="35.16 23.19 35.63 22.92 35.65 23.1 36.65 22.53"/><polyline class="cls-2" points="35.57 18.94 36.42 18.45 35.34 20.22 35.54 20.11 35.58 20.35 35.77 20.24 36.14 20.73 36.31 20.63 36.35 20.99 36.52 20.89 36.63 21.47 36.8 21.37 36.69 21.86 36.9 21.74 36.49 22.37 36.81 22.19"/><polyline class="cls-2" points="36.48 18.64 36.96 18.37 37.87 18.74 38.78 18.21 38.08 18.8 38.75 18.41 38.6 18.97 38.7 18.91 38.61 18.98 38.7 18.92"/><polyline class="cls-2" points="38.02 11.91 42.6 9.27 37.95 12.61 39.97 11.44 37.94 12.72 39.82 11.63 37.91 12.96 39.48 12.05 37.78 14.15 38.86 13.52 37.71 14.8 38.7 14.22 37.7 14.86 38.7 14.29 37.69 14.98 38.69 14.4 37.62 15.56 38.65 14.96 37.56 16.14 38.61 15.54 37.48 16.83 38.84 16.05 37.41 17.53 39.25 16.46 37.33 18.2 38.92 17.28"/><polyline class="cls-2" points="40.1 15.67 40.32 15.54 40.39 15.9 40.61 15.78 40.41 15.91 40.62 15.79 41.01 16.74 42.56 15.85 41.11 16.98 42.59 16.12 41.36 18.02 42.71 17.24 41.48 18.94 42.85 18.15"/><polyline class="cls-2" points="42.02 18.82 42.88 18.33 42.59 18.65 43.04 18.38 44.16 18.85 44.34 18.75 44.73 19.47 44.9 19.37 43.87 20.62 45.17 19.86 43.33 21.51 43.56 21.38 43.42 22.32 43.59 22.22 43.86 22.81 44.05 22.7 43.89 22.83 44.08 22.72 44.44 23.09 44.69 22.95 45.38 23.3 45.59 23.19 46.03 23.69 46.24 23.56 46.17 23.77 46.38 23.64 47.06 23.97 47.59 23.67"/><polyline class="cls-2" points="45.64 20.39 45.89 20.25 46.5 20.97 46.67 20.87 47.09 21.66 47.27 21.56 47.4 22.2 47.59 22.09 47.58 23.11 47.79 22.98 47.43 23.52 47.73 23.35"/><polyline class="cls-2" points="46.37 20.35 46.9 20.04 47.99 20.24 48.64 19.86 48.58 20.3 48.81 20.16"/><polyline class="cls-2" points="50.66 17.66 50.84 17.56 49.71 18.79 50.22 18.5 48.88 19.77 49.38 19.48"/><polyline class="cls-2" points="50.64 18.1 50.84 17.98 50.64 18.42 50.84 18.31 50.64 19.2 50.84 19.09 50.64 19.22 50.84 19.11 50.64 20.14 50.84 20.03 50.64 20.67 50.84 20.55 50.64 20.78 50.85 20.66 51.18 21.3 51.37 21.19 51.37 21.4 51.55 21.29 51.9 21.73 52.1 21.62 52.36 22.45 52.51 22.36 52.48 22.63 52.62 22.55"/><polyline class="cls-2" points="51.55 23.01 51.92 22.79 51.69 23 52.09 22.77 52.69 22.95 52.8 22.89"/><polyline class="cls-2" points="50.5 23.36 51.38 22.85 50.21 24.53 50.39 24.43 50.43 25.02 50.61 24.92 50.88 25.49 51.08 25.37 51.34 25.7 51.55 25.57 51.88 25.88 52.16 25.72 52.96 26.17 53.14 26.07 53.13 26.36 53.31 26.25 53.67 26.92 53.85 26.82 54.21 27.29 54.39 27.18 55.16 27.59 55.82 27.21"/><polyline class="cls-2" points="53.93 23.5 54.04 23.43 54.44 23.96 54.61 23.86 54.78 24.29 54.92 24.21 55.06 24.62 55.21 24.54 55.46 25.23 55.6 25.14 55.79 26.1 55.95 26.01 55.79 26.84 56.01 26.71 55.78 26.86 56.01 26.72 55.68 27.07 55.98 26.9"/><polyline class="cls-2" points="54.56 23.66 54.87 23.48 55.27 23.76 55.59 23.57 55.9 23.84 56.15 23.7 56.22 23.92 56.48 23.77 56.23 23.93 56.5 23.78 56.71 24.12 61.15 21.55 57.28 24.34 61.44 21.93 57.97 24.85 61.82 22.63 58.24 25.07 61.88 22.97 58.39 25.19 59.73 24.42"/><polyline class="cls-2" points="60.12 24.3 61.93 23.25 60.68 24.23 61.98 23.48 61.47 24.14 62.03 23.82 61.51 24.15 62.04 23.84 61.96 24.27 62.25 24.1 63.08 24.66 63.33 24.51 63.39 24.84 63.61 24.71 63.93 25.17 64.12 25.06 64.03 25.23 64.21 25.13 64.14 25.3 64.32 25.2 64.19 25.35 64.38 25.25 64.22 25.38 64.41 25.27 64.65 25.79 64.86 25.66 65.16 26.27 65.34 26.17 65.35 26.46 65.53 26.36 65.43 26.54 65.6 26.44"/><polyline class="cls-2" points="61.55 27.34 62.21 26.96 64.44 26.85 64.81 26.64 64.96 26.84 65.36 26.61 65.79 26.83 65.9 26.77"/><polyline class="cls-2" points="59.23 28.45 61.4 27.2 58.13 29.63 58.76 29.27"/><polyline class="cls-2" points="24.67 28.91 26.95 27.59 29.09 27.04 30.03 26.49 29.64 26.84 30.59 26.29 31.64 26.2 32.2 25.87 32.45 26.02 33.01 25.69 33.58 25.76 34.15 25.44 36.13 25.27 36.54 25.03 38.22 25.07 38.62 24.84 39.33 24.97 39.73 24.73 40.72 24.93 41.01 24.76 41.09 24.97 41.39 24.8 41.37 24.99 41.67 24.82 42.01 25.05 42.3 24.88 43.1 25.16 43.4 24.98 43.58 25.2 43.88 25.03 44.09 25.25 44.38 25.08 44.84 25.33 45.09 25.19 46.01 25.59 46.26 25.45 47.24 25.87 47.49 25.73 48.67 26.19 48.92 26.05 49.2 26.32 49.42 26.2 49.86 26.56 50.08 26.44 50.26 26.71 50.48 26.58 51.15 27.03 51.37 26.9 51.25 27.07 51.47 26.94 51.98 27.33 52.2 27.2 53.21 27.78 53.43 27.65 53.45 27.87 53.66 27.75 53.8 28.05 54.01 27.93 54.09 28.19 54.29 28.07 54.48 28.38 54.69 28.26 54.65 28.47 54.86 28.35 54.76 28.52 54.97 28.4 55.52 28.91 55.74 28.79 55.97 29.13 56.18 29.01 56.18 29.24 56.4 29.11 56.67 29.48 56.89 29.36 57.66 29.98 57.88 29.85 57.73 30.02 58.45 29.61 57.97 30.64 58.17 30.53 57.99 31.07 58.2 30.95"/><polyline class="cls-2" points="56.98 31.61 57.35 31.4 57.51 31.6 58.15 31.23"/><polyline class="cls-2" points="28.14 28.89 29.24 28.26 29.07 28.53 30.21 27.88 33.17 27.29 33.73 26.97 33.3 27.27 33.85 26.95 35.88 26.79 36.25 26.57 36.61 26.74 36.98 26.52 37.78 26.66 38.16 26.45 38.68 26.61 39.06 26.39 38.75 26.6 39.13 26.38 40.26 26.53 40.57 26.35 40.83 26.57 41.13 26.39 41.28 26.59 41.58 26.42 42.32 26.66 42.62 26.49 42.8 26.69 43.1 26.52 43.33 26.72 43.63 26.55 44.01 26.77 44.31 26.59 45.01 26.87 45.27 26.72 45.19 26.91 45.45 26.76 45.66 27.01 45.91 26.86 47.1 27.32 47.35 27.17 48.41 27.59 48.65 27.45 49.4 27.88 49.63 27.75 50.02 28.11 50.24 27.98 50.36 28.25 50.58 28.12 50.4 28.26 50.63 28.14 50.63 28.35 50.86 28.23 51.23 28.58 51.45 28.46 51.76 28.79 51.97 28.66 52.9 29.22 53.1 29.11 53.81 29.74 54.02 29.62 54.11 29.92 54.32 29.8 54.95 30.41 55.15 30.29 55.3 30.61 55.49 30.5 55.92 30.97 56.12 30.86 55.94 30.98 56.13 30.87 56.64 31.39 56.83 31.28 56.46 31.99 56.75 31.82 56.03 33.01 56.35 32.82 55.52 34.23 55.87 34.02 55.38 34.55 55.75 34.33"/><polyline class="cls-2" points="29.19 32.34 30.72 31.46 34.27 30.51 34.88 30.16 36.97 30 37.36 29.77 38.92 29.86 39.31 29.64 39.31 29.84 39.7 29.61 40.96 29.83 41.24 29.66 41.62 29.86 41.88 29.71 41.92 29.88 42.18 29.73 43.42 29.97 43.66 29.83 43.72 30.03 44.01 29.86 44.26 30.14 44.54 29.97 44.7 30.22 44.95 30.07 44.95 30.27 45.19 30.13 45.84 30.44 46.02 30.34 46.29 30.53 46.44 30.44 47.49 30.91 47.75 30.76 47.67 30.98 47.95 30.81 48.67 31.32 48.87 31.2 49.38 31.56 49.51 31.48 50.46 32.08 50.64 31.98 50.6 32.15 50.79 32.04 50.96 32.33 51.17 32.21 51.62 32.66 51.85 32.52 52.23 32.96 52.4 32.87 52.74 33.27 52.9 33.18 53.2 33.58 53.38 33.48 53.43 33.73 53.61 33.62 53.48 33.77 53.67 33.66 53.7 33.92 53.9 33.8 53.89 34.05 54.1 33.93 54.61 34.54 54.85 34.4 54.76 34.63 55 34.49 55.36 35.05 55.49 34.97"/><polyline class="cls-2" points="26.89 33.45 29.2 32.12 26.46 33.73 29.4 32.03"/><polyline class="cls-2" points="15.96 25.13 17.49 24.25 15.44 25.53 18.14 23.97 14.45 26.82 14.82 26.61 14.55 26.82 14.91 26.62 15.32 26.84 15.65 26.65 16.8 26.88 17.06 26.72 17.82 27.13 18.06 26.99 18.16 27.22 18.39 27.09 19.34 27.66 19.54 27.55 19.59 27.81 19.79 27.7 20.13 28.14 20.32 28.02 20.59 28.41 20.78 28.3 21.04 28.84 21.22 28.73 21.64 29.49 21.84 29.37 21.87 29.74 22.08 29.61 21.93 29.8 22.15 29.68 22.1 30.18 24.84 28.6 21.94 30.79 22.21 30.64 22.07 31.3 22.26 31.19 23.35 31.71 23.54 31.6 23.41 31.82 23.59 31.72 23.71 32.53 23.9 32.41 24.1 33.44 24.29 33.33 24.38 34.1 24.58 33.98 24.55 34.5 24.75 34.38 24.77 35.01 25.6 34.53"/><polyline class="cls-2" points="18.98 21.6 42.17 8.21 18.27 23.04 30.03 16.25 18.14 23.75 28.44 17.8 18.15 23.86 28.22 18.05"/><polyline class="cls-2" points="40.15 6.54 41.2 5.93 40.48 7.13 41.47 6.56 40.71 7.55 41.66 7.01 41.03 8.14 41.92 7.63 41.22 8.47 42.07 7.98"/><polyline class="cls-2" points="21.29 19.01 22.21 18.47 20.6 19.94 40.31 8.55 20.45 20.49 41.13 8.55 20.42 20.58 41.25 8.55"/><polyline class="cls-2" points="23.65 16.52 24.56 16 23.27 17.03 36.59 9.34 23.13 17.5 37.09 9.44 23.04 17.86 39.15 8.55 23.05 18.02 39.45 8.55"/><polyline class="cls-2" points="43.2 3.29 44.09 2.78 43.2 3.32 44.09 2.81 43.2 3.63 44.09 3.11 43.2 3.7 44.09 3.19 43.2 4.8 44.1 4.28 43.2 5.02 44.11 4.5 43.2 5.24 44.11 4.71"/><polyline class="cls-2" points="41.08 5.44 42.15 4.82 42.04 5.84 43.04 5.26 42.26 5.93 44.11 4.87 43.28 6.36 44.12 5.88 43.56 6.48 44.12 6.16 44.02 6.67 44.12 6.61"/><polyline class="cls-2" points="36.93 6.34 44.1 2.2 38.98 5.86 41.41 4.46 38.91 6.04 41.54 4.52 38.48 7.08 41.07 5.58 38.13 7.92 39.78 6.97 38.02 8.18 39.62 7.25 37.63 9.12 39.04 8.3 37.53 9.37 38.95 8.55"/><polyline class="cls-2" points="36.03 1.87 36.13 1.8 36.03 2.07 36.34 1.89 36.04 3.22 37.49 2.38 36.04 3.54 37.82 2.51 36.04 3.73 38 2.59 36.04 3.89 36.97 3.36 36.05 4.23 36.97 3.7 36.05 4.42 36.97 3.89 36.05 4.45 36.97 3.92 36.06 5.47 36.97 4.94 36.07 6.6 44.09 1.97 36.07 6.63 44.09 2"/><polyline class="cls-2" points="39.25 0.98 40.63 0.19 41.21 0.98 42.59 0.19 40.42 2.5 42.11 1.53 40.35 2.63 42 1.68 40.17 2.96 41.75 2.05"/><polyline class="cls-2" points="37.15 3.28 38.2 2.67 37.93 3.71 39.08 3.05 38.81 4.18 41.25 2.78 38.95 4.26 41.07 3.04"/><polyline class="cls-2" points="37.2 0.26 37.33 0.19 37.38 0.54 37.99 0.19 37.78 1.13 39.41 0.19 38.06 1.54 38.93 1.03 38.28 1.86 39.13 1.38 38.34 1.94 39.17 1.46 38.71 2.5 39.49 2.05 38.85 2.69 39.61 2.25 38.94 2.83 39.69 2.4 39.04 2.97 39.77 2.55"/><g id="_Group_28" data-name="&lt;Group&gt;"><polyline class="cls-1" points="53.71 60.16 53.9 60.05 53.71 61.02 55.42 60.04 53.71 61.55 56.33 60.04 53.73 61.58 56.4 60.04 54.06 61.58 56.73 60.03 54.75 61.57 57.41 60.03 56.19 61.56 58.86 60.02 57.47 61.56 59.58 60.34 58.64 61.55 59.59 61 59.31 61.55 59.6 61.38 59.41 61.55 59.6 61.44"/></g><g id="_Group_29" data-name="&lt;Group&gt;"><polyline class="cls-1" points="61.36 27.12 64.2 25.48 62.59 26.76 64.43 25.7 64.24 26.58 64.93 26.18 65.09 26.54 65.22 26.46"/><polyline class="cls-1" points="54.7 23.83 54.79 23.78 55.31 24.52 56.19 24.01 55.6 24.95 56.81 24.25 55.8 25.33 57.32 24.46 55.96 25.63 57.6 24.68 56 25.82 57.76 24.8 56.04 26.04 57.94 24.94 55.93 27.17 60.94 24.28 55.89 27.26 61.08 24.26"/><polyline class="cls-1" points="51.36 22.77 52.16 22.3 52.16 22.68 52.34 22.57"/><polyline class="cls-1" points="50.38 18.45 50.55 18.34 49.5 19.48 50.55 18.87 48.9 20.19 50.55 19.24"/><polyline class="cls-1" points="46.4 20.51 46.57 20.41 46.59 20.68 47.22 20.32 46.84 20.9 47.85 20.31 47.38 21.56 50.55 19.73 47.5 21.78 50.55 20.02 47.75 22.39 50.55 20.78 47.85 23.2 51.07 21.34 47.79 23.49 51.3 21.46 47.63 23.74 51.45 21.54"/><polyline class="cls-1" points="39.78 15.93 40.12 15.74 39.7 16.01 40.14 15.76 39.34 16.5 40.33 15.93 38.98 17.45 40.77 16.41 38.88 18.16 41 16.93 38.86 18.33 41.05 17.06 38.77 18.99 41.2 17.59"/><polyline class="cls-1" points="35.71 19.19 36.52 18.72 35.73 20.14 37.95 18.85 35.9 20.23 38.16 18.92 36.32 20.5 38.75 19.1 36.85 21.21 41.35 18.61 37.01 21.85 42.15 18.88 36.77 22.47 43.32 18.69 36.71 22.59 43.45 18.7"/><polyline class="cls-1" points="29.62 18.34 29.68 18.31 29.62 18.8 29.94 18.61 29.62 18.83 29.95 18.63 29.62 18.88 29.98 18.67 29.62 19.43 30.3 19.04 29.62 20.14 30.7 19.51 29.62 20.25 30.76 19.59 29.62 20.6 30.96 19.82 29.62 20.97 31.17 20.07"/><polyline class="cls-1" points="28.27 21.89 31.25 20.17 28.06 22.22 31.38 20.3 29.02 22.79 33.22 20.36 29.78 23.34 32.77 21.61 30.11 24.07 32.34 22.78 30.13 24.15 32.31 22.89 29.58 25.32 32.46 23.66"/><polyline class="cls-1" points="27.2 26.3 27.64 26.04 26.61 26.93 28.29 25.96"/><polyline class="cls-1" points="22.35 24.85 23.44 24.22 22.16 25 23.65 24.14"/><polyline class="cls-1" points="15.91 25.53 17.75 24.47 15.26 26.54 19.19 24.28 16.65 26.61 20.36 24.47 17.12 26.64 20.61 24.62 18.09 26.91 21.32 25.04 18.83 27.12 24.37 23.92 19.38 27.35 25.46 23.84 19.75 27.57 24.7 24.71 19.8 27.6 24.65 24.79 19.94 27.68 24.53 25.04 20.37 27.95 24.19 25.75 20.48 28.01 24.16 25.89 20.69 28.14 24.11 26.17 21.1 28.49 24.08 26.77 21.77 29.2 24.61 27.56 22.3 29.77 32.62 23.81 28.21 27.05 33.42 24.04 31.66 25.9 43.95 18.8 33.7 25.45 44.48 19.22 34.38 25.3 44.59 19.4 35.57 25.03 44.79 19.7 37.62 24.84 43.22 21.61 39.08 24.7 43.3 22.26 39.84 24.63 43.45 22.55 40.81 24.66 43.85 22.9 42.58 24.82 45.19 23.31 42.6 24.82 45.21 23.32 43.25 24.88 45.59 23.53 43.83 24.94 45.92 23.73 44.21 24.97 46.14 23.86 44.51 25 46.34 23.94 44.53 25 46.36 23.94 45.38 25.16 51.56 21.59 46.35 25.38 52.03 22.1 47.63 25.66 50.06 24.26 47.89 25.73 50.1 24.45 49.19 26.02 50.52 25.25 50.43 26.46 51.48 25.86 51.35 26.8 52.65 26.05 51.67 26.92 52.89 26.21 51.97 27.03 53.06 26.4 52.37 27.17 53.29 26.64 52.84 27.34 53.55 26.92 52.87 27.35 53.57 26.95 53.62 27.64 54.13 27.34 54.26 27.96 54.82 27.64 54.35 28 54.97 27.65 55.12 28.39 62.05 24.38 55.63 28.64 62.72 24.55 55.66 28.66 62.75 24.56 56.66 29.16 63.67 25.11 57.24 29.45 59.27 28.28 57.29 29.48 59.16 28.39 57.42 29.54 58.88 28.7 57.79 29.73 58.1 29.55"/></g></svg>