<svg id="Layer_1_copy" data-name="Layer 1 copy" xmlns="http://www.w3.org/2000/svg" viewBox="0 0 62.58 62.56"><defs><style>.cls-1,.cls-2,.cls-3{fill:none;stroke-linecap:round;stroke-linejoin:round;}.cls-1{stroke:#cf2f3a;}.cls-1,.cls-2{stroke-width:0.63px;}.cls-2,.cls-3{stroke:#fff;}.cls-3{stroke-width:0.63px;}</style></defs><title>xolos</title><polyline class="cls-1" points="42.18 23.79 43.02 23.31 42.8 24.56 43.23 24.31 42.93 25.8 43.52 25.46"/><line class="cls-1" x1="31.49" y1="24.77" x2="31.55" y2="24.73"/><line class="cls-1" x1="30.65" y1="24.94" x2="31" y2="24.74"/><line class="cls-1" x1="30.97" y1="24.42" x2="31.08" y2="24.36"/><polyline class="cls-1" points="37.74 17.57 37.76 17.55 37.22 19.1 37.74 18.8"/><line class="cls-1" x1="38.03" y1="17.29" x2="44.36" y2="13.63"/><polyline class="cls-1" points="30.76 21.22 31.24 20.95 30.19 22.48 31.8 21.54 32.16 22.35 32.23 22.31 32.64 22.93 32.66 22.91"/><polyline class="cls-1" points="30.46 20.76 30.7 20.63 29.52 22.07 29.93 21.83"/><polyline class="cls-1" points="28.92 20.57 29.11 20.46 27.93 22.48 28.1 22.39"/><polyline class="cls-1" points="27.42 21.09 27.73 20.91 26.97 22.54 27.07 22.48"/><polyline class="cls-1" points="41.2 10.71 41.51 10.54 40.1 12.38 43.75 10.27 39.49 13.54 43.84 11.02 38.05 15.76 44.16 12.22 37.81 17 44.28 13.26"/><line class="cls-1" x1="42.55" y1="9.57" x2="42.81" y2="9.42"/><polyline class="cls-1" points="45.14 13.35 52.75 8.96 46.14 14.23 53.66 9.88 47.13 15.09 54.5 10.84 47.83 15.78 55.14 11.56 48.46 16.53 55.79 12.3 49.17 17.39 56.41 13.21 49.89 18.3 57.05 14.17 50.35 19.08 57.56 14.92 50.84 19.88 58.07 15.7 51.19 20.46 58.38 16.31 51.57 21.11 58.72 16.98 51.91 21.93 59.12 17.78 52.39 23.1 59.67 18.89 52.83 24.16 60.09 19.97 53.08 25.16 60.43 20.92 53.26 25.9 60.67 21.62 53.48 26.8 60.97 22.47 53.69 27.72 61.23 23.37 53.79 28.97 61.47 24.54 53.86 29.95 61.65 25.46 53.95 31 61.85 26.43 53.91 31.87 61.99 27.21 53.8 33.2 62.07 28.43 53.73 34.02 62.12 29.18 53.65 35.01 62.19 30.09 53.29 36.47 62.26 31.29 52.88 38.06 62.17 32.7 52.31 39.63 62.08 33.99 51.48 41.49 61.98 35.43 50.28 43.53 61.68 36.95 48.79 45.62 61.39 38.35 47.08 47.5 61.19 39.35"/><polyline class="cls-1" points="41.1 34.73 41.49 34.5 41.39 35.86 41.66 35.7 41.67 37.08 41.87 36.96 41.86 37.92 42.04 37.82 42.12 39.11 42.36 38.98 42.29 39.91 42.58 39.74 42.51 40.99 42.87 40.79 42.62 41.8 43.08 41.54 42.74 42.65 43.31 42.32 43.28 43.51 43.67 43.28 43.84 44.09 44.13 43.92 44.38 44.83 44.66 44.67 44.94 45.65 45.24 45.48 45.29 46.27 45.66 46.06 45.76 47.16 46.13 46.94 46.21 48.12 46.7 47.84"/><polyline class="cls-1" points="34.95 44.21 36.11 43.54 33.37 46.27 35.43 45.08"/><line class="cls-1" x1="39.45" y1="39.79" x2="39.78" y2="39.6"/><polyline class="cls-1" points="39.51 37.15 39.73 37.02 39.59 37.93 39.7 37.87 39.71 38.96 39.91 38.84"/><line class="cls-1" x1="39.03" y1="38.15" x2="39.17" y2="38.07"/><polyline class="cls-1" points="37.73 38.63 39.01 37.89 39.29 38.98 39.46 38.88"/><polyline class="cls-1" points="37.6 39.35 37.93 39.15 38.48 39.93 39.85 39.14"/><polyline class="cls-1" points="37.14 40.18 37.7 39.86 37.91 40.68 38.58 40.29 39.44 40.82 39.65 40.7"/><line class="cls-1" x1="37.61" y1="42.08" x2="38.48" y2="41.58"/><polyline class="cls-1" points="34.92 43.1 37.92 41.37 33.83 44.9 34.3 44.63"/><polyline class="cls-1" points="42.85 8.43 48.18 5.36 43.53 9.24 49.14 6 44.01 9.84 49.84 6.47 44.26 10.66 50.56 7.03 44.41 11.97 51.53 7.86 44.58 12.67 52.09 8.34 44.75 13.36 48.92 10.96 44.86 14.68 45.05 14.56 44.87 15.48 45.08 15.36 44.88 16.74 45.1 16.61 44.86 18 45.02 17.91 44.69 19.46 44.88 19.36 44.76 20.59 44.86 20.53 44.82 21.51 45.03 21.38 44.91 22.66 45.16 22.51 44.88 23.49 45.21 23.3 44.4 24.96 44.87 24.69 43.1 26.97 44 26.45"/><line class="cls-1" x1="40.64" y1="24.68" x2="41.59" y2="24.13"/><polyline class="cls-1" points="43.08 22.75 44.48 21.94 44.04 23.09 44.51 22.82 44.43 23.63 44.56 23.55"/><line class="cls-1" x1="40.64" y1="23.75" x2="44.47" y2="21.53"/><polyline class="cls-1" points="40.29 19.28 44.44 16.88 41.71 19.77 44.32 18.26 42.63 20.64 44.08 19.8 41.96 21.94 44.14 20.68"/><line class="cls-1" x1="37.93" y1="18.28" x2="44.41" y2="14.54"/><polyline class="cls-1" points="38.87 18.04 44.42 14.83 38.43 19.29 44.46 15.81 38.78 20.38 40.29 19.51 39.13 21.02 41.07 19.9 39.25 22.23 42.19 20.53"/><polyline class="cls-1" points="37.69 19.61 37.77 19.56 37.7 20.45 37.89 20.34 37.73 21.58 37.97 21.43"/><polyline class="cls-1" points="22.37 10.46 38.48 1.16 27.57 8.88 40.18 1.6 30 8.67 41.47 2.05 32.28 8.63 42.85 2.53 33.81 8.74 43.84 2.96 35.78 9.07 45.19 3.63 37.44 9.43 46.41 4.25 38.28 9.7 47.09 4.62 39.35 10.1 47.9 5.16 40.58 10.73 40.89 10.56 39.65 12.07 39.9 11.92 39.15 13.24 39.35 13.13 37.67 15.13 38.17 14.83 37.23 16.73 37.34 16.67 36.87 18.19 37.07 18.07 36.81 19.29 36.99 19.18 36.89 20.09 36.95 20.06 36.79 20.9 37.02 20.77"/><polyline class="cls-1" points="33.96 21.85 34.16 21.73 35.42 21.98 35.7 21.82"/><polyline class="cls-1" points="32.46 21 32.77 20.82 33.16 21.71 33.38 21.58 33.91 22.37 34.05 22.29 34.48 23.02 34.77 22.86 35.22 24.04 35.43 23.92"/><polyline class="cls-1" points="33.15 21.15 33.33 21.05 34.32 21.43 34.93 21.07 36.31 21.31 36.56 21.17 36.94 21.8 37.19 21.65 37.57 22.37 37.82 22.23 38.28 23.03 38.52 22.89 38.95 23.61 41.37 22.21 39.57 24.24 40.33 23.8 40.33 25.08 40.52 24.97 40.85 25.78 41.19 25.59 41.18 26.49 41.59 26.25 41.36 27.37 41.67 27.19 41.47 28.19 41.63 28.1 41.62 29.43 41.76 29.34 41.79 30.59 41.96 30.5 41.82 31.37 41.99 31.27 41.69 32.81 41.88 32.7 41.25 33.81 41.57 33.62 39.79 35.76 40.52 35.34"/><polyline class="cls-1" points="34.97 34.32 35.81 33.83 36.02 34.51 37.16 33.85 37.8 34.47 37.99 34.36 38.91 35.26 39.02 35.2 39.31 36.19 39.61 36.02 39.02 37.26 39.24 37.13"/><polyline class="cls-1" points="37.25 35.88 38.25 35.31 37.44 37.16 39.11 36.19"/><polyline class="cls-1" points="33.99 35.56 35.11 34.91 34.01 36.77 37.05 35.02 34.91 37.14 35.75 36.65"/><polyline class="cls-1" points="36.08 36 37.4 35.24 36.07 37.06 36.97 36.55"/><line class="cls-1" x1="33.14" y1="37.61" x2="33.8" y2="37.23"/><line class="cls-1" x1="32.72" y1="37.38" x2="33.6" y2="36.87"/><polyline class="cls-1" points="32.03 37.02 33.45 36.21 31.81 38.48 33 37.8 33.35 39 36.95 36.93"/><polyline class="cls-1" points="31.11 39.46 31.97 38.97 32.7 39.72 37.03 37.22"/><polyline class="cls-1" points="29.89 39.49 31.37 38.64 30.65 40.08 31.14 39.79 32.16 40.51 37.29 37.55"/><polyline class="cls-1" points="29.74 40.1 30.03 39.93 30.37 40.6 30.65 40.44 31.44 41.24 32.11 40.85 32.7 41.37 37.51 38.6 34.85 41.12 37.49 39.6"/><polyline class="cls-1" points="29.37 40.78 29.78 40.54 28.05 42.74 30.59 41.27"/><line class="cls-1" x1="31.54" y1="36.52" x2="33.66" y2="35.3"/><polyline class="cls-1" points="32.61 34.83 33.76 34.16 30.95 36.79 31.38 36.55"/><line class="cls-1" x1="32.43" y1="34.16" x2="33.14" y2="33.76"/><polyline class="cls-1" points="27.06 36.14 30.11 34.39 27.45 36.74 31.14 34.61 27.92 37.46 32.09 35.06 28.23 38.16 30.57 36.81 28.87 39.17 32.11 37.3"/><polyline class="cls-1" points="30.12 31.21 30.22 31.16 27.52 34.11 30.31 32.5 27.22 35.23 30.13 33.55"/><line class="cls-1" x1="31.31" y1="28.62" x2="31.52" y2="28.5"/><polyline class="cls-1" points="30.8 27.32 30.89 27.27 31.67 27.89 31.77 27.84"/><line class="cls-1" x1="30.94" y1="25.31" x2="31" y2="25.28"/><line class="cls-1" x1="30.58" y1="24.26" x2="30.82" y2="24.12"/><polyline class="cls-1" points="28.06 24.5 29.3 23.79 29.42 25.07 30.17 24.63 29.52 26.43 31 25.57"/><polyline class="cls-1" points="28 27.04 28.65 26.66 28.75 27.8 30.83 26.59 28.63 29.24 30.88 27.94 31.05 29.16 31.23 29.05"/><line class="cls-1" x1="27.45" y1="29.46" x2="27.75" y2="29.28"/><polyline class="cls-1" points="24.46 25.91 25.09 25.55 23.88 27.13 25.99 25.91 23.73 28.48 27.23 26.46 23.89 29.42 27.5 27.34 24.32 30.39 27.75 28.41 24.71 31.01 27.3 29.51 25.33 31.76 28.08 30.17 26.05 32.55 28.83 30.95"/><polyline class="cls-1" points="17.9 9.1 33.01 0.38 18.82 10.03 35.27 0.53 19.47 10.87 36.86 0.83 19.91 11.51 38 1.06 20.59 12.55 20.68 12.5 21.18 13.41 21.3 13.34 21.7 14.11 21.82 14.04 22.31 14.9 22.47 14.81 22.92 15.56 23.13 15.44 23.48 16.13 23.71 15.99 24.15 16.77 24.41 16.62 24.88 17.39 25.11 17.25 25.52 17.94 25.7 17.84 26.35 18.75 26.43 18.71 26.85 19.86 26.96 19.8 27.3 20.72 27.45 20.63"/><polyline class="cls-1" points="19.81 22.25 25.54 18.95 21.08 22.82 26.2 19.86 21.79 23.57 26.62 20.79 22.16 24.11 26.97 21.33"/><line class="cls-1" x1="20.72" y1="23.25" x2="20.82" y2="23.19"/><line class="cls-1" x1="19.5" y1="21.39" x2="25.08" y2="18.16"/><polyline class="cls-1" points="17.35 10 17.89 9.69 17.22 10.91 18.48 10.18 17.05 12.02 18.98 10.91 16.88 13.16 19.48 11.66 16.8 14.08 19.91 12.29 16.77 15.26 20.47 13.12 16.76 16.53 21.09 14.03 16.79 17.71 21.71 14.87 16.81 18.82 22.32 15.64 17.14 19.56 22.9 16.23 17.91 20.29 23.71 16.93 18.48 21.12 24.52 17.63 18.94 22.08 19.02 22.02 19.33 22.61 19.56 22.47 20.09 23.59 20.42 23.4 20.78 24.53 21.56 24.08 21.37 25.13 22.26 24.61 23 25.1 25.31 23.77 22.76 26.12 24.34 25.21"/><line class="cls-1" x1="19.61" y1="26.65" x2="19.73" y2="26.58"/><polyline class="cls-1" points="17.07 22.31 17.94 21.81 17.97 23.05 18.62 22.67 18.05 23.91 18.79 23.48 17.79 24.8 17.85 24.77"/><polyline class="cls-1" points="16.13 14.61 16.36 14.47 16.16 15.69 16.38 15.56 16.18 16.53 16.4 16.4 16.27 17.82 16.44 17.72 16.35 18.59 16.52 18.5 16.51 19.27 16.62 19.21 16.75 20.05 16.86 19.98 16.83 21.43 17.36 21.12 16.89 22.77 17.02 22.69 17.11 23.96 17.28 23.86 17.41 25.07 17.56 24.98 17.97 26 18.11 25.92 18.75 26.63 18.93 26.53 20.08 27.31 21.59 26.44 21.08 28.17 23.67 26.68 21.92 28.76 23.46 27.87 22.45 29.9 23.36 29.38 22.75 30.63 23.6 30.14 23.45 31.36 24.28 30.88 23.49 32.38 24.86 31.59 23.58 33.06 25.3 32.07 23.69 34.24 28.69 31.35 23.61 35.58 27.7 33.22 23.63 36.58 26.76 34.77 23.78 37.29 26.65 35.63 24.18 38.48 26.95 36.88 24.37 39.43 27.42 37.67 24.5 40.13 27.77 38.24 24.6 41.13 28.24 39.03 24.76 42.37 28.98 39.94 24.88 43.15 29.7 40.36 24.96 44.03 27.75 42.42 24.99 45.04 31.06 41.53 25 45.97 32.03 41.91 25 46.92 34.11 41.66 25.01 47.86 37.32 40.75 25.02 48.69 34.48 43.22 25.02 49.44 33.31 44.66 25.06 50.82 33.53 45.93 25.14 51.86 35.11 46.11 25.33 52.52 35.09 46.88"/><polyline class="cls-1" points="13.77 5.75 18.05 3.28 9.67 9.06 22.94 1.4 8.08 10.78 25.13 0.94 6.24 13.04 28 0.48 5.09 14.75 30.04 0.35 4.08 16.46 32.04 0.32 3.52 17.59 16.97 9.82 2.66 19.34 16.72 11.22 2.13 20.86 16.49 12.57 1.71 22.07 16.39 13.6 1.25 23.64 14.65 15.91 0.95 25.11 12.71 18.32 0.77 26 11.84 19.61 0.55 27.08 11.07 21.01 0.45 28.58 10.19 22.96 0.4 29.35 9.81 23.92 0.32 30.52 9.46 25.25 0.32 31.92 9.03 26.89 0.4 33.17 8.82 28.31 0.47 34.18 8.73 29.41 0.53 35.06 8.64 30.38 0.65 35.94 8.58 31.36 0.9 37.16 8.69 32.66 1.12 38.24 8.79 33.82 1.33 39.27 8.88 34.92 1.57 40.05 9.05 35.73 1.82 40.78 9.25 36.49 2.18 41.8 9.53 37.56 2.55 42.87 9.82 38.67 2.82 43.55 10.1 39.35 3.28 44.47 10.52 40.29 3.74 45.37 10.93 41.22 4.03 45.96 11.2 41.82 4.38 46.66 11.58 42.5 4.92 47.52 12.14 43.36 5.29 48.07 12.5 43.9 5.87 48.92 13.07 44.77 6.37 49.66 13.61 45.48 6.84 50.32 14.17 46.09 7.41 50.97 14.76 46.73 8 51.64 15.37 47.39 8.56 52.28 15.97 48.01 9.08 52.87 16.62 48.52 9.68 53.47 17.31 49.06 10.25 53.97 17.91 49.54 11.05 54.67 18.78 50.21 11.62 55.18 19.52 50.62 12.35 55.81 20.45 51.13 13.41 56.53 21.63 51.78 14.36 57.17 22.83 52.27 15.46 57.91 24.31 52.8 16.6 58.51 35.09 47.83 17.66 59.05 35.14 48.95 18.73 59.58 35.28 50.03 20.07 60.12 37.93 49.81 21.23 60.52 36.7 51.59 22.37 60.92 36.34 52.85 23.74 61.3 40.25 51.77 24.73 61.5 60.74 40.71 26.23 61.8 60.23 42.18 27.34 61.99 59.87 43.22 28.85 62.09 59.2 44.57 31.03 62.24 58.21 46.55 32.53 62.17 57.43 47.8 34.78 62.02 56.16 49.68 38.39 61.38 53.8 52.48 42.48 60.12 50.68 55.38"/><g id="_Group_" data-name="&lt;Group&gt;"><polyline class="cls-2" points="53.82 15.9 55.42 14.97 53.82 16.88 55.92 15.66"/><polyline class="cls-2" points="50.17 16.25 50.76 15.91 50.57 16.84 53.79 14.98 52.14 16.86 52.83 16.46 52.84 17.84 55.54 16.28 52.13 19.22 54.08 18.1 52.58 19.84 52.91 19.65"/></g><g id="_Group_2" data-name="&lt;Group&gt;"><line class="cls-3" x1="28.18" y1="3.16" x2="29.1" y2="2.63"/><polyline class="cls-3" points="25.15 2.81 25.56 2.58 25.55 3.54 27.78 2.25 26.73 4.2 27.79 3.58 26.83 4.88 27.89 4.26 27.02 6.22 28.09 5.6 27.14 6.98 28.2 6.36 27.91 7.43 28.32 7.18"/></g><g id="_Group_3" data-name="&lt;Group&gt;"><polyline class="cls-3" points="51.8 11.2 52.24 10.94 50.12 13.12 52.9 11.52"/><polyline class="cls-3" points="49.6 10.46 50.69 9.84 49.31 11.44 50.47 10.77 49.06 12.35 50.26 11.66 48.66 13.97 49.74 13.35 48.76 14.7 51.32 13.22 49.3 15.19 49.77 14.92"/><polyline class="cls-3" points="49.43 9.05 49.92 8.77 46.65 12.03 49.52 10.38 46.95 13 47.41 12.74"/></g><g id="_Group_4" data-name="&lt;Group&gt;"><polyline class="cls-3" points="41.15 4.04 41.42 3.89 40.73 5.31 42.2 4.46 40.2 6.8 41.7 5.93"/><polyline class="cls-3" points="38.28 3.06 38.56 2.9 37.91 4.14 39.38 3.29 37.42 5.55 38.89 4.7 37.27 6.93 38.4 6.28 37.87 8.03 38.78 7.5 38.91 8.45 41.25 7.1"/></g><g id="_Group_5" data-name="&lt;Group&gt;"><polyline class="cls-3" points="30.7 2.25 31.04 2.06 30.7 3.63 31.82 2.98 30.7 4.65 31.83 4 30.7 5.39 31.83 4.74 30.7 6.29 31.84 5.64 30.7 7.17 31.84 6.51"/></g><g id="_Group_6" data-name="&lt;Group&gt;"><polyline class="cls-2" points="45.44 6.85 46.38 6.31 45.24 7.7 46.35 7.06 45.02 8.68 46.17 8.01"/><polyline class="cls-2" points="43.48 9.01 44.3 8.53 44.67 9.62 46.01 8.85 44.48 10.71 45.8 9.95 45.33 11.51 45.52 11.39"/><polyline class="cls-2" points="44.76 6.12 45.39 5.76 41.8 8.98 44.89 7.2 42.12 9.73 43.08 9.17"/></g><g id="_Group_7" data-name="&lt;Group&gt;"><polyline class="cls-3" points="32.89 6.43 33.15 6.28 33.59 7.31 35.36 6.29"/><polyline class="cls-3" points="34.91 2.46 35.2 2.29 34.74 3.7 35.96 2.99 34.55 5.05 35.77 4.35 34.34 5.97 35.64 5.21"/></g><g id="_Group_8" data-name="&lt;Group&gt;"><polyline class="cls-3" points="20.62 54.16 20.92 53.98 19.91 55.54 21.18 54.8"/><polyline class="cls-3" points="18.71 53.15 19.02 52.97 18.09 54.32 19.36 53.59 17.67 55.91 18.47 55.45 18.02 56.55 18.63 56.19 19.19 57.05 20.19 56.47"/></g><g id="_Group_9" data-name="&lt;Group&gt;"><polyline class="cls-3" points="25.39 55.78 25.66 55.63 24.95 57.41 25.81 56.92"/><polyline class="cls-3" points="23.73 56.13 24.31 55.79 23.92 57.24 24.54 56.88 24.06 57.91 24.65 57.57 24.3 59.02 25.38 58.39"/><polyline class="cls-3" points="23.22 55.13 23.5 54.97 22.82 56.43 24.26 55.59 22.29 58.16 23.19 57.64"/></g><g id="_Group_10" data-name="&lt;Group&gt;"><polyline class="cls-3" points="21.88 54.63 22.16 54.46 21.21 56.27 22.31 55.63 20.66 57.65 21.78 57"/></g><g id="_Group_11" data-name="&lt;Group&gt;"><polyline class="cls-3" points="55.78 39.34 56.72 38.8 57.11 39.75 58.04 39.21 58.17 40.09 58.54 39.88"/><polyline class="cls-3" points="55.45 37.57 55.74 37.41 55.04 38.83 55.9 38.33 54.68 39.95 55.52 39.46"/></g><g id="_Group_12" data-name="&lt;Group&gt;"><polyline class="cls-3" points="51.3 46.1 51.65 45.9 51.78 46.96 52.54 46.52 52.79 47.65 53.55 47.21 53.51 48.15 54.27 47.7"/></g><g id="_Group_13" data-name="&lt;Group&gt;"><line class="cls-2" x1="50.35" y1="51.4" x2="51.16" y2="50.94"/><polyline class="cls-2" points="48.56 50.28 49.2 49.91 49.2 50.66 49.87 50.27 49.57 51.2 50.53 50.64"/><polyline class="cls-2" points="47.87 49.89 48.5 49.53 48.09 51.09 48.61 50.79 48.44 51.77 49 51.44 48.81 52.48 49.4 52.14 49.26 53.36 49.68 53.12"/></g><g id="_Group_14" data-name="&lt;Group&gt;"><line class="cls-3" x1="55.51" y1="45.07" x2="55.84" y2="44.88"/><line class="cls-3" x1="54.11" y1="44.38" x2="54.43" y2="44.19"/><polyline class="cls-3" points="52.94 43.56 53.27 43.36 52.25 45.37 53.03 44.92 53.15 45.92 54.37 45.21 54.2 46.58 55.99 45.55 54.89 47.01 55.21 46.82"/></g><g id="_Group_15" data-name="&lt;Group&gt;"><line class="cls-3" x1="52.82" y1="48.97" x2="53.23" y2="48.74"/><polyline class="cls-3" points="49.58 48.21 50.01 47.97 50.24 49.18 50.97 48.76 51.09 49.9 51.84 49.47 51.71 50.41 53.2 49.56"/></g><g id="_Group_16" data-name="&lt;Group&gt;"><polyline class="cls-3" points="58.79 35.65 59.08 35.48 58.64 36.73 59.35 36.32"/><polyline class="cls-3" points="57.23 35.56 57.52 35.4 57.11 36.48 57.81 36.08"/><polyline class="cls-3" points="55.83 35.26 56.13 35.09 55.67 36.26 56.39 35.85 55.59 37.3 56.73 36.64 56.86 37.48 57.95 36.85 58.06 37.66 59.26 36.97"/></g><g id="_Group_17" data-name="&lt;Group&gt;"><polyline class="cls-3" points="53.55 42.4 54.04 42.12 54.06 43.36 54.81 42.93 54.92 43.73 55.67 43.3 55.77 44.11 56.54 43.66"/><polyline class="cls-3" points="54.78 42.7 56.03 41.98 56.93 42.55 57.68 42.12"/><polyline class="cls-3" points="54.41 40.51 54.7 40.34 54.86 41.19 55.62 40.75 55.63 41.51 56.36 41.09 56.5 41.85 57.19 41.45"/></g><g id="_Group_18" data-name="&lt;Group&gt;"><polyline class="cls-3" points="29.27 56.31 29.59 56.13 29.23 57.45 30.03 56.98 29.2 58.24 30.01 57.78 29.17 59.02 29.99 58.55 29.19 59.8 30.3 59.16 31.04 59.84 31.42 59.62"/></g><g id="_Group_19" data-name="&lt;Group&gt;"><line class="cls-3" x1="33.12" y1="58.24" x2="34.06" y2="57.7"/><line class="cls-3" x1="33" y1="56.8" x2="34.01" y2="56.22"/><polyline class="cls-3" points="31.79 56.43 32.16 56.22 31.9 57.75 32.66 57.31 31.98 58.57 33.8 57.52 32.07 59.68 32.95 59.18 33.82 59.74 34.37 59.42"/></g><g id="_Group_20" data-name="&lt;Group&gt;"><line class="cls-3" x1="28.15" y1="56.67" x2="28.97" y2="56.19"/><polyline class="cls-3" points="26.2 55.92 26.48 55.76 27.06 56.67 28.25 55.99 26.9 57.95 27.78 57.45 26.7 59.45 27.58 58.95"/></g><g id="_Group_21" data-name="&lt;Group&gt;"><polyline class="cls-3" points="35 58.97 35.24 58.83 35.98 59.48 37.1 58.83"/><line class="cls-3" x1="36.13" y1="56.32" x2="36.68" y2="56"/><polyline class="cls-3" points="34.77 56.34 35.87 55.7 34.7 57.17 35.39 56.77 35.58 57.82 36.43 57.33 36.38 58.16 37.07 57.77"/></g><g id="_Group_22" data-name="&lt;Group&gt;"><polyline class="cls-3" points="41.33 54.3 43.25 53.19 41.9 55.39 42.6 54.98 42.26 56.06 44.14 54.97 42.77 57.03 44.77 55.87"/></g><g id="_Group_23" data-name="&lt;Group&gt;"><polyline class="cls-2" points="39.85 55.35 40.69 54.87 40.82 56.05 41.51 55.65 40.96 57.03 41.73 56.58"/><polyline class="cls-2" points="38.16 55.52 39.18 54.93 38.48 56.44 39.12 56.07 38.77 57.28 39.43 56.9 39.02 58.02 39.7 57.63 39.24 58.65 41.6 57.29"/></g><g id="_Group_24" data-name="&lt;Group&gt;"><polyline class="cls-3" points="56.79 26.94 57.75 26.39 57.03 28.23 58.74 27.24"/></g><g id="_Group_26" data-name="&lt;Group&gt;"><polyline class="cls-2" points="21.39 6.84 22.44 6.23 22.13 7.25 23.04 6.72"/><polyline class="cls-2" points="20.65 4.92 21.77 4.28 21.17 5.75 22.17 5.17"/><polyline class="cls-2" points="18.48 5.16 19.99 4.28 18.89 6.18 19.82 5.64 19.16 6.84 20.11 6.29 19.48 7.63 22.02 6.17 19.76 8.32 20.69 7.79 20.01 8.96 20.97 8.41 20.76 9.47 22.99 8.19"/></g><g id="_Group_27" data-name="&lt;Group&gt;"><polyline class="cls-3" points="12.78 8.63 13.77 8.05 13.22 9.27 14.21 8.7 13.78 10.06 14.75 9.5 14.28 10.81 15.25 10.25 14.8 11.43 15.78 10.86 15.63 12.02 18.33 10.46"/><polyline class="cls-3" points="15.34 6.94 16.32 6.37 15.7 7.47 16.68 6.9 16.23 8.23 17.2 7.67 16.66 8.87 17.63 8.31 17.16 9.72 18.09 9.19 17.21 10.64 18.35 9.98"/></g><g id="_Group_28" data-name="&lt;Group&gt;"><line class="cls-3" x1="14.04" y1="13.15" x2="14.49" y2="12.89"/><polyline class="cls-3" points="9.55 11.78 10.06 11.48 9.81 12.81 10.83 12.22 10.64 13.59 11.66 13.01 11.21 14.14 12.23 13.55 11.84 14.74 12.87 14.15 12.48 15.36 14.1 14.43"/></g><g id="_Group_29" data-name="&lt;Group&gt;"><line class="cls-3" x1="11.05" y1="16.37" x2="11.3" y2="16.23"/><polyline class="cls-3" points="7.39 14.33 7.99 13.98 6.59 16.16 7.74 15.5 6.67 17.08 7.63 16.53 7.09 17.91 8.13 17.31 7.72 18.5 8.95 17.79 8.47 18.88 11.82 16.95 9.61 19.03 10.91 18.28"/></g><g id="_Group_30" data-name="&lt;Group&gt;"><line class="cls-3" x1="13.47" y1="52.05" x2="15.74" y2="50.74"/><polyline class="cls-3" points="11.63 52.05 12.47 51.56 12.28 52.58 12.87 52.24 13.09 53.27 13.69 52.93 13.63 53.74 14.13 53.45"/><polyline class="cls-3" points="13.84 49.74 14.28 49.49 14.21 50.28 14.8 49.94 14.83 50.8 15.41 50.47"/></g><g id="_Group_31" data-name="&lt;Group&gt;"><polyline class="cls-3" points="16.81 52.61 17.6 52.16 17.63 52.9 18.21 52.57"/><polyline class="cls-3" points="15.15 52.71 16.53 51.92 14.86 54.22 15.59 53.8 15.34 54.99 15.93 54.65 16.26 55.64 16.6 55.44"/></g><g id="_Group_32" data-name="&lt;Group&gt;"><polyline class="cls-3" points="5.18 42.88 6.5 42.12 5.63 43.89 6.19 43.57 5.99 44.71 6.57 44.37"/></g><g id="_Group_33" data-name="&lt;Group&gt;"><polyline class="cls-3" points="12.95 49.12 13.54 48.78 13.43 49.64 13.96 49.34"/><polyline class="cls-3" points="11.61 47.73 12.21 47.38 11.83 48.84 12.96 48.19 10.5 50.88 11.43 50.34"/></g><g id="_Group_34" data-name="&lt;Group&gt;"><polyline class="cls-3" points="5.36 37.21 6.13 36.77 6.57 37.67 7.02 37.41"/><polyline class="cls-3" points="3.05 35.61 3.22 35.52 3.42 36.4 4.27 35.91 4.36 36.64 6.69 35.29 3.44 38.11 5.87 36.7"/></g><g id="_Group_35" data-name="&lt;Group&gt;"><polyline class="cls-2" points="6.15 38.87 6.97 38.4 7.18 39.59 7.71 39.28"/><polyline class="cls-2" points="4.41 38.98 5.82 38.16 4.18 40.27 4.71 39.96 4.55 40.96 5.04 40.67 6.03 41.53 7.55 40.66"/></g><g id="_Group_36" data-name="&lt;Group&gt;"><polyline class="cls-3" points="10.53 47.06 11.52 46.49 8.94 49.11 9.82 48.6"/></g><g id="_Group_37" data-name="&lt;Group&gt;"><polyline class="cls-2" points="9.01 44.49 9.71 44.09 9.88 45.34 10.41 45.04"/><polyline class="cls-2" points="7.3 44.55 8.57 43.81 6.93 45.96 7.48 45.65 7.24 46.64 7.7 46.37 7.79 47.16 9.16 46.37"/></g><g id="_Group_38" data-name="&lt;Group&gt;"><polyline class="cls-3" points="45.65 51.65 46.8 50.99 45.1 53.01 45.9 52.55 45.58 54.1 46.32 53.68 46.22 54.66 48.41 53.4"/></g><g id="_Group_39" data-name="&lt;Group&gt;"><polyline class="cls-3" points="3.87 26.94 4.83 26.39 3.84 27.84 5.63 26.81 4.35 28.41 5.86 27.54"/></g><polyline class="cls-1" points="40.35 28.98 40.49 28.91 39.64 30.5 40 30.29"/><polyline class="cls-1" points="37.95 28.74 38.03 28.7 38.77 29.21 39.03 29.07"/><line class="cls-1" x1="40.22" y1="27.1" x2="40.24" y2="27.09"/><line class="cls-1" x1="38.99" y1="27.27" x2="39.51" y2="26.97"/><polyline class="cls-1" points="38.46 27.89 38.92 27.62 40.23 28.07 40.49 27.93"/><polyline class="cls-1" points="38.15 27.08 38.65 26.79 37.79 28.34 38.08 28.17 38.84 28.69 39.72 28.19"/><polyline class="cls-1" points="39.28 25.77 39.35 25.73 39.84 26.35 39.87 26.33"/></svg>