<svg id="Layer_1" data-name="Layer 1" xmlns="http://www.w3.org/2000/svg" viewBox="0 0 161.49 120"><defs><style>.cls-1{fill:none;stroke:#333;stroke-miterlimit:10;stroke-width:3px;}.cls-2{fill:#333;}</style></defs><title>cheves</title><polyline class="cls-1" points="72.92 46.02 47.35 118.19 1.7 105.93 13.36 34.55"/><path class="cls-2" d="M2101.73,1025.59c2.93,3.07,6.79,6.6,11.42,5.34,4-1.08,6.58-4.88,7.22-8.76l-1.69.69c5.72,3.18,12.05.13,11.38-7-0.49-5.17-6.32-14.11-12.29-10.71l1.73,1c-0.12-8.25-7.31-17.74-16.26-12.72-2,1.1-3.36,2.24-5.07.3-0.79-.9-1.12-2.22-1.89-3.17a5.63,5.63,0,0,0-3.53-2.16c-4.33-.7-7.64,3.08-9.09,6.69l2.11-.28c-2.18-4.58-6.56-9.52-12.2-7.68-5,1.65-8,7.38-7.93,12.4l2-.82c-2.53-2.36-5.83-1-7.61,1.66a10,10,0,0,0,.33,11.15,7.31,7.31,0,0,0,5,2.64c0.89,0.1,1.85-.22,2.7-0.1l4.19,1.43q0.4,0.52.81,1c3.5,2.5,6.63,2.35,9.91-.73l-1.4.18c3.88,2.67,8.57,5.51,13.31,6.26,1.23,0.19,10.48.21,10.3,1.82s2.14,1.46,2.31,0c0.37-3.28-4.91-3.49-7-3.69a50.42,50.42,0,0,1-6.09-.53c-4.12-.91-8.18-3.47-11.62-5.84a1.17,1.17,0,0,0-1.4.18c-1.88,1.77-4.38,2.79-6.65.73-0.56-.51-1.2-1.83-1.89-2.35a4.54,4.54,0,0,0-3.27-1c-3.07.07-6,1.14-7.87-2.24a7.92,7.92,0,0,1-.45-5.93c0.56-1.7,2.72-5,4.84-3a1.17,1.17,0,0,0,2-.82c0-3.89,2.08-8.57,6-10,4.73-1.77,8.09,2.72,9.88,6.47,0.47,1,1.78.55,2.11-.28,0.92-2.29,2.83-4.79,5.51-5s3.55,2.24,4.79,4.2c1.15,1.8,2.52,3.19,4.76,2.58,1.55-.42,2.7-1.72,4.15-2.37a7.39,7.39,0,0,1,6.26,0c4.17,1.93,5.77,6.75,5.83,11a1.16,1.16,0,0,0,1.73,1c4-2.26,8,5.14,8.65,7.9,1.19,5.29-3.12,8.35-7.74,5.79a1.16,1.16,0,0,0-1.69.69c-0.48,3-2.38,6.41-5.6,7.15-3.78.86-6.8-2.25-9.17-4.75a1.15,1.15,0,0,0-1.63,1.63h0Z" transform="translate(-2047.44 -976.15)"/><path class="cls-2" d="M2056.88,1037.37c4.51-4.41,10.65,1.68,15.46,2.47,5.5,0.9,10.21-2.86,15.82-1.78,2.09,0.4,4.19,1,6.34.78,2.57-.29,4.67-2.08,7.23-2.45s5.74,0.91,8.38.89a27,27,0,0,0,8.29-1.46c1.4-.46.8-2.69-0.61-2.22a25,25,0,0,1-11.43,1.1c-2.65-.36-4.94-1-7.55,0-1.17.46-2.23,1.27-3.44,1.61-1.84.52-3.57,0.1-5.38-.23-2.29-.42-4.42-1-6.77-0.6-2.89.44-5.54,1.93-8.47,2.1-3.51.2-6.22-1.77-9.34-3-3.49-1.39-7.33-1.63-10.17,1.14a1.15,1.15,0,0,0,1.63,1.63h0Z" transform="translate(-2047.44 -976.15)"/><path class="cls-2" d="M2082.06,1040.62l-5.71,17.54c-0.46,1.41,1.77,2,2.22.61l5.71-17.54c0.46-1.41-1.77-2-2.22-.61h0Z" transform="translate(-2047.44 -976.15)"/><path class="cls-2" d="M2064.93,1040.46L2063,1058.8c-0.15,1.48,2.15,1.61,2.3.13l1.92-18.35c0.15-1.48-2.15-1.61-2.3-.13h0Z" transform="translate(-2047.44 -976.15)"/><path class="cls-2" d="M2101.66,1038.58c-9.43,9.28-13.4,22-16.73,34.49a1.15,1.15,0,0,0,2.22.61c3.23-12.08,7-24.47,16.13-33.47a1.15,1.15,0,0,0-1.63-1.63h0Z" transform="translate(-2047.44 -976.15)"/><path class="cls-2" d="M2101.51,976.64a13.05,13.05,0,0,0-2.62,8.33,1.15,1.15,0,0,0,2.31,0,11,11,0,0,1,2.31-7.16c0.89-1.19-1.11-2.34-2-1.16h0Z" transform="translate(-2047.44 -976.15)"/><path class="cls-2" d="M2068.33,984a9.25,9.25,0,0,0-4.71-6.25c-1.31-.7-2.48,1.29-1.16,2a7,7,0,0,1,3.65,4.87c0.31,1.45,2.53.84,2.22-.61h0Z" transform="translate(-2047.44 -976.15)"/><polyline class="cls-1" points="88.56 46.02 114.14 118.19 159.79 105.93 148.12 34.55"/><path class="cls-2" d="M2154.63,1025.59c-2.93,3.07-6.79,6.6-11.42,5.34-4-1.08-6.58-4.88-7.22-8.76l1.69,0.69c-5.72,3.18-12.05.13-11.38-7,0.49-5.17,6.32-14.11,12.29-10.71l-1.73,1c0.12-8.25,7.31-17.74,16.26-12.72,2,1.1,3.36,2.24,5.07.3,0.79-.9,1.12-2.22,1.89-3.17a5.63,5.63,0,0,1,3.53-2.16c4.33-.7,7.64,3.08,9.09,6.69l-2.11-.28c2.18-4.58,6.56-9.52,12.2-7.68,5,1.65,8,7.38,7.93,12.4l-2-.82c2.53-2.36,5.83-1,7.61,1.66a10,10,0,0,1-.33,11.15,7.31,7.31,0,0,1-5,2.64c-0.89.1-1.85-.22-2.7-0.1l-4.19,1.43q-0.4.52-.81,1c-3.5,2.5-6.63,2.35-9.91-.73l1.4,0.18c-3.88,2.67-8.57,5.51-13.31,6.26-1.23.19-10.48,0.21-10.3,1.82s-2.14,1.46-2.31,0c-0.37-3.28,4.91-3.49,7-3.69a50.42,50.42,0,0,0,6.09-.53c4.12-.91,8.18-3.47,11.62-5.84a1.17,1.17,0,0,1,1.4.18c1.88,1.77,4.38,2.79,6.65.73,0.56-.51,1.2-1.83,1.89-2.35a4.54,4.54,0,0,1,3.27-1c3.07,0.07,6,1.14,7.87-2.24a7.92,7.92,0,0,0,.45-5.93c-0.56-1.7-2.72-5-4.84-3a1.17,1.17,0,0,1-2-.82c0-3.89-2.08-8.57-6-10-4.73-1.77-8.09,2.72-9.88,6.47-0.47,1-1.78.55-2.11-.28-0.92-2.29-2.83-4.79-5.51-5s-3.55,2.24-4.79,4.2c-1.15,1.8-2.52,3.19-4.76,2.58-1.55-.42-2.7-1.72-4.15-2.37a7.39,7.39,0,0,0-6.26,0c-4.17,1.93-5.77,6.75-5.83,11a1.16,1.16,0,0,1-1.73,1c-4-2.26-8,5.14-8.65,7.9-1.19,5.29,3.12,8.35,7.74,5.79a1.16,1.16,0,0,1,1.69.69c0.48,3,2.38,6.41,5.6,7.15,3.78,0.86,6.8-2.25,9.17-4.75a1.15,1.15,0,0,1,1.63,1.63h0Z" transform="translate(-2047.44 -976.15)"/><path class="cls-2" d="M2199.48,1037.37c-4.51-4.41-10.65,1.68-15.46,2.47-5.5.9-10.21-2.86-15.82-1.78-2.09.4-4.19,1-6.34,0.78-2.57-.29-4.67-2.08-7.23-2.45s-5.74.91-8.38,0.89a27,27,0,0,1-8.29-1.46c-1.4-.46-0.8-2.69.61-2.22a25,25,0,0,0,11.43,1.1c2.65-.36,4.94-1,7.55,0,1.17,0.46,2.23,1.27,3.44,1.61,1.84,0.52,3.57.1,5.38-.23,2.29-.42,4.42-1,6.77-0.6,2.89,0.44,5.54,1.93,8.47,2.1,3.51,0.2,6.22-1.77,9.34-3,3.49-1.39,7.33-1.63,10.17,1.14a1.15,1.15,0,0,1-1.63,1.63h0Z" transform="translate(-2047.44 -976.15)"/><path class="cls-2" d="M2174.3,1040.62l5.71,17.54c0.46,1.41-1.77,2-2.22.61l-5.71-17.54c-0.46-1.41,1.77-2,2.22-.61h0Z" transform="translate(-2047.44 -976.15)"/><path class="cls-2" d="M2191.43,1040.46l1.92,18.35c0.15,1.48-2.15,1.61-2.3.13l-1.92-18.35c-0.15-1.48,2.15-1.61,2.3-.13h0Z" transform="translate(-2047.44 -976.15)"/><path class="cls-2" d="M2154.7,1038.58c9.43,9.28,13.4,22,16.73,34.49a1.15,1.15,0,0,1-2.22.61c-3.23-12.08-7-24.47-16.13-33.47a1.15,1.15,0,0,1,1.63-1.63h0Z" transform="translate(-2047.44 -976.15)"/><path class="cls-2" d="M2154.85,976.64a13.05,13.05,0,0,1,2.62,8.33,1.15,1.15,0,0,1-2.31,0,11,11,0,0,0-2.31-7.16c-0.89-1.19,1.11-2.34,2-1.16h0Z" transform="translate(-2047.44 -976.15)"/><path class="cls-2" d="M2188,984a9.25,9.25,0,0,1,4.71-6.25c1.31-.7,2.48,1.29,1.16,2a7,7,0,0,0-3.65,4.87c-0.31,1.45-2.53.84-2.22-.61h0Z" transform="translate(-2047.44 -976.15)"/></svg>