<svg id="Layer_1" data-name="Layer 1" xmlns="http://www.w3.org/2000/svg" viewBox="0 0 88.98 93.04"><defs><style>.cls-1,.cls-3{fill:none;stroke:#333;stroke-miterlimit:10;}.cls-1{stroke-width:1.02px;}.cls-2,.cls-4{fill:#333;}.cls-3{stroke-linecap:round;stroke-width:1.35px;}.cls-4{fill-rule:evenodd;}</style></defs><title>gorrito</title><circle class="cls-1" cx="2660.33" cy="998.88" r="39.36" transform="translate(-2766.23 -332.91) rotate(-12.77)"/><path class="cls-2" d="M2670.75,991.65a7.24,7.24,0,0,0,5.6-7.82l-14,3.18A7.24,7.24,0,0,0,2670.75,991.65Z" transform="translate(-2611.23 -945.72)"/><path class="cls-2" d="M2646.5,997.15a7.24,7.24,0,0,0,5.6-7.82l-14,3.18A7.24,7.24,0,0,0,2646.5,997.15Z" transform="translate(-2611.23 -945.72)"/><path class="cls-3" d="M2652.32,1009.92s14.45-5,21-3.69" transform="translate(-2611.23 -945.72)"/><path class="cls-2" d="M2678.08,1002.13a18,18,0,0,1,1.9,12.11c-0.12.64,0.86,0.91,1,.27a19.09,19.09,0,0,0-2-12.89,0.51,0.51,0,0,0-.88.51h0Z" transform="translate(-2611.23 -945.72)"/><path class="cls-2" d="M2643.66,1006.13c0.21,3.77.67,9.07,3.61,11.79a0.51,0.51,0,0,0,.72-0.72c-2.67-2.47-3.12-7.67-3.31-11.08,0-.65-1.05-0.65-1,0h0Z" transform="translate(-2611.23 -945.72)"/><path class="cls-2" d="M2665.59,1009.28a4.73,4.73,0,0,1-.58-0.2,7.31,7.31,0,0,0-1.92.4,30,30,0,0,0-4,1.33c-0.6.24-.34,1.23,0.27,1a29.84,29.84,0,0,1,4.27-1.39,4.58,4.58,0,0,1,1.4-.21,1.91,1.91,0,0,0,.87.06,0.51,0.51,0,0,0-.27-1h0Z" transform="translate(-2611.23 -945.72)"/><rect class="cls-2" x="2636.44" y="986.94" width="42.53" height="1.1" transform="translate(-2763.78 -333.77) rotate(-12.77)"/><path class="cls-4" d="M2611.23,992.46s46.53-24.52,75.57-14l1.34-8s-27.08-10.77-53.66,5.89C2617.38,987,2611.23,992.46,2611.23,992.46Z" transform="translate(-2611.23 -945.72)"/><path class="cls-4" d="M2688.14,970.44s-0.29-15-3.93-17.34-37.61-21.69-59.83,13.56c0,0-1.2,8.29.4,15.33C2624.77,982,2655.27,964.07,2688.14,970.44Z" transform="translate(-2611.23 -945.72)"/></svg>