<svg id="Layer_1" data-name="Layer 1" xmlns="http://www.w3.org/2000/svg" viewBox="0 0 154.61 191.82"><defs><style>.cls-1{fill:#1e1e1e;}</style></defs><title>trofeo</title><path class="cls-1" d="M503,475.32c-1.06-4.45-3-8.1-8-8.75-5.39-.71-11.06-0.43-16.56-0.31q2.16-9.88,4.69-19.69a3.53,3.53,0,0,0-4.1-4.3,3.57,3.57,0,0,0-1.26-.22l-98.95,1a3.55,3.55,0,0,0-3.37,4.43c1.3,6.25,2.52,12.52,3.69,18.8-5.51-.12-11.2-0.41-16.6.31-5,.66-6.78,4.31-8,8.75-3.26,12.37-3.8,26.24-2.46,38.93,2.07,19.62,19.43,33.43,38.59,33.38,0.1,1.07.22,2.14,0.33,3.22,0.79,8.43,1.44,16.88,2,25.33,0.39,5.83,1.28,11.31,7.91,12.54l0.57,0.08,2,9a145.71,145.71,0,0,0-8.16,30.57c-0.35,2.31.92,4.3,3.37,4.43q29.51,1.57,59.07.93a3.25,3.25,0,0,0,2.81-1.54,3.58,3.58,0,0,0,1-.72c4.52-4.62.53-12-1.22-17.38-1.42-4.38-3-11-6.43-14.93,1.5-2.66,2-6.41,2.6-9.33,0.6-.08,1.2-0.17,1.79-0.27,6.57-1.14,7.76-5.56,7.78-11.56,0-9,.33-18.09.81-27.13,0.06-1.07.13-2.13,0.19-3.2,19.06-.07,36.28-13.86,38.34-33.39A117.06,117.06,0,0,0,503,475.32ZM444.61,603.61a3.33,3.33,0,0,0-.17-0.92l1.22,0c-0.34.8-.68,1.59-1,2.39C444.64,604.61,444.63,604.11,444.61,603.61Zm-8.43,2.31L436,602.49h1.76Q436.94,604.19,436.19,605.91Zm-25.94,14.36q-0.12,3-.34,6l-1.58-.06Zm27.79,2.3q0,2.14.06,4.29h-0.89Q437.57,624.7,438,622.58Zm9.08-2.78q0.19,3.52.28,7h-1.83Q446.22,623.29,447.12,619.8Zm-48.24-59.22c0-.25,0-0.49-0.07-0.74a3,3,0,0,0,.92.75L399,562.54C399,561.88,398.93,561.23,398.88,560.58ZM397,540.21l0-.16a3,3,0,0,0,.61-0.11,8,8,0,0,0,2.61-1.4,45.78,45.78,0,0,0-2.48,8.84c-0.06-.63-0.13-1.25-0.19-1.88A4.26,4.26,0,0,0,397,540.21Zm-10.88-78.27,0.56-1c-0.23,1-.51,1.95-0.84,2.92l-0.24-1.25A3.94,3.94,0,0,0,386.09,461.94Zm0.8,7.8a3.72,3.72,0,0,0,2.47.4c-0.53,1.55-1.06,3.11-1.57,4.66C387.49,473.11,387.2,471.42,386.89,469.74Zm4,15.71L390,487.82l-0.31-1.9A3,3,0,0,0,390.94,485.45Zm3.63,28.69-0.48,1.54c-0.06-.44-0.11-0.88-0.17-1.32A3.93,3.93,0,0,0,394.57,514.14Zm62.83-24.53c-0.15.75-.3,1.51-0.45,2.26l-2.22,5.75Q456,493.6,457.41,489.61Zm-31.24,92.47-2.23-.22a40,40,0,0,0,2.33-5A36.8,36.8,0,0,0,426.17,582.07Zm-29.53-55.7-0.93,2.53c-0.09-.81-0.18-1.63-0.28-2.44A3.28,3.28,0,0,0,396.65,526.38Zm15.89,19.54c3.71-10.16,7.39-20.34,11.15-30.49-0.14,1.11-.28,2.21-0.45,3.31a3.77,3.77,0,0,0,0,1.35c-3.83,10.29-7.93,20.47-12.44,30.47Zm48.15-7.43,0-.11v0.11h0Zm6.31-50a3.9,3.9,0,0,0-1.17-.27l2.27-5.88Q467.52,485.45,467,488.53ZM468,449.17v0h0v0Zm-7.48.2-0.33-.14h0.41Zm-50.12,4.06a22.81,22.81,0,0,0,.31-3.72l1.86,0Zm-16.1-.63c0-1-.13-1.95-0.26-2.93l2.18,0Q395.32,451.34,394.35,452.8Zm-1.69,42.72q-0.52,1.39-1,2.78-0.21-1.42-.43-2.83A4,4,0,0,0,392.66,495.52Zm10.11,86a3.53,3.53,0,0,0,.9-1.06q1.08-1.92,2.13-3.86a31.86,31.86,0,0,0-1.55,5,4,4,0,0,0-.78.15A5.53,5.53,0,0,1,402.78,581.49ZM416,575.94c2-5.53,4-11.07,6-16.61q1.6-3.5,3.14-7c0.64-1.47,1.24-2.95,1.86-4.42-1.72,5.85-3.28,11.74-4.75,17.65q-3.54,8.35-7.08,16.7l-1.83,0A51.06,51.06,0,0,0,416,575.94Zm-55.77-61c-1.8-9.63-.83-20.82.62-30.44,0.36-2.39.88-4.75,1.44-7.09s0.38-3,2.73-3.09c5.19-.19,10.4-0.11,15.6-0.06q5.79,32.48,9.28,65.3C375.5,539.12,363,529.72,360.23,515Zm65,74.54,6.25,0.17a134.92,134.92,0,0,0,17.63.75,41.19,41.19,0,0,1-1.34,5c-4.45.35-9.05,0.07-13.52,0.08-8.06,0-16.11-.09-24.17-0.25l-0.05,0-1.25-5.73C414.32,589.68,420,589.37,425.27,589.51Zm72.33-77.07c-1.19,16-14.81,26.61-30,27.14a527.78,527.78,0,0,1,9.13-65.28q7,0,13.9,0c1.89,0,3.52-.61,4.13,1.36a66.77,66.77,0,0,1,1.6,7.06A114.66,114.66,0,0,1,497.6,512.44Z" transform="translate(-351.43 -442.05)"/></svg>