<svg id="Layer_1" data-name="Layer 1" xmlns="http://www.w3.org/2000/svg" viewBox="0 0 116.41 113.29"><defs><style>.cls-1,.cls-3{fill:none;stroke:#333;stroke-miterlimit:10;}.cls-1{stroke-width:4px;}.cls-2{fill:#333;}.cls-3{stroke-width:3px;}</style></defs><title>creido2</title><ellipse class="cls-1" cx="58.2" cy="56.65" rx="56.2" ry="54.65"/><path class="cls-2" d="M3944.56,1016.23a55.77,55.77,0,0,1,30.31,7.81c3.33,2,6.35-3.22,3-5.18a61.68,61.68,0,0,0-33.34-8.62c-3.85.11-3.87,6.11,0,6h0Z" transform="translate(-3920.23 -1004.15)"/><path class="cls-2" d="M3997.24,1032.46a65.27,65.27,0,0,1,30.31-4.91c3.85,0.29,3.83-5.71,0-6a69.1,69.1,0,0,0-31.9,5.12c-3.51,1.46-2,7.27,1.6,5.79h0Z" transform="translate(-3920.23 -1004.15)"/><path class="cls-2" d="M3949.19,1023.78l22.56,3.29s-2.3,9.66-12.7,8.15S3949.19,1023.78,3949.19,1023.78Z" transform="translate(-3920.23 -1004.15)"/><path class="cls-2" d="M4000.71,1029.58l22.56,3.29s-2.3,9.66-12.7,8.15S4000.71,1029.58,4000.71,1029.58Z" transform="translate(-3920.23 -1004.15)"/><path class="cls-3" d="M3947.06,1049.22s14.33,30.23,49.38,30.23" transform="translate(-3920.23 -1004.15)"/></svg>