<svg id="Layer_1" data-name="Layer 1" xmlns="http://www.w3.org/2000/svg" viewBox="0 0 153.85 217.35"><defs><style>.cls-1{fill:#1e1e1e;}</style></defs><title>cronometro</title><path class="cls-1" d="M742.39,244.07a14.38,14.38,0,0,1,4.34-5,4.59,4.59,0,0,0,.91-7.07L736.9,219.79a4.52,4.52,0,0,0-7.07.91,29.44,29.44,0,0,1-5,6.83,83,83,0,0,0-43.78-14c0.12-.81.22-1.6,0.29-2.4,6.61-1.69,12.43-4.72,15.91-11.16,4.48-8.29,2-18.27-.38-26.74-2.15-7.59-4.8-15.14-10.43-20.89-6.67-6.8-16.72-7.11-25.43-5.23-7.84,1.69-17.5,6-22.33,12.68-5.45,7.51-4.82,16.78-3.29,25.46,1.46,8.25,4.1,17.24,11.32,22.28a30.72,30.72,0,0,0,14.32,5c0.28,0.89.59,1.77,0.93,2.63q-2.54.53-5,1.24c-7.25.79-13.56,4.14-19.16,8.54a67.83,67.83,0,0,0-10,7.73c-5.68-1.51-9.24-7.35-15.59-6-6.5,1.42-8,13.09-9.53,18.07a4.49,4.49,0,0,0,2.07,5.08l7.23,3.74a5.08,5.08,0,0,0,.89.36,77.92,77.92,0,0,0-5.12,10.42c-9.54,24-5.27,50.23,10.25,70.56,6.58,8.62,13.86,16.3,23.67,21.22,9.41,4.72,20,6.6,30.4,7.12,19.55,1,40.6-2.71,56.7-14.26,15.48-11.1,22.75-26.71,26.06-45C758.71,282.73,755.54,261.44,742.39,244.07Zm-70.21-30.32c0-.34,0-0.68-0.08-1l0.1,0a4.78,4.78,0,0,0,0,1h-0.07ZM644.73,186c-1.3-5.74-2.18-11.72-.57-17.47,1.82-6.52,10.35-9.86,16.1-11.81,6.17-2.09,12.94-2.65,18.62,1,4.88,3.11,6.94,10,8.54,15.22,2.06,6.63,4.37,13.71,2.74,20.66-1.18,5-5.24,7.3-9.71,8.58a16.45,16.45,0,0,0-.84-1.92c-2-3.91-7.44-6.84-11.8-5.68-5.16,1.37-7.38,4.73-7.89,8.76a30.82,30.82,0,0,1-4.69-1.22C648.36,199.66,646.17,192.33,644.73,186Zm88.09,147.53c-14.49,16.37-36.16,21-57.09,20.92-13.51,0-27.72-3-38.46-11.61A73.48,73.48,0,0,1,613.94,308c-5.28-17.82-1.44-36.51,8.31-52a110.75,110.75,0,0,1,14.65-18.12c1.49-1.52,3.11-3.1,4.85-4.61a65.42,65.42,0,0,1,27-10.2,4.75,4.75,0,0,0,.66-0.09,71.15,71.15,0,0,1,26.91,1.6c25,6.36,46.13,25.71,50.41,51.63C749.81,294.77,745.61,319,732.82,333.49Z" transform="translate(-602.54 -146.12)"/><path class="cls-1" d="M673,232.15a4,4,0,0,0-4-.83c-23,6.82-40.7,28.42-47.22,50.95-3.65,12.62-2.76,26.46,4.68,37.52,6.61,9.82,17.32,16,28.21,20,12.58,4.6,27.52,4.47,40.65,2.68A41.78,41.78,0,0,0,719.5,330c7.68-7.76,14.86-17.47,17.93-28,3.41-11.65,2-24.62-2.43-35.78C724.94,241,698.39,228,673,232.15Zm48.09,82.66a6.64,6.64,0,0,0-.69-0.6q-4.74-3.57-9.71-6.79c-4.89-3.17-9.39,4.63-4.54,7.77q4.74,3.07,9.26,6.46a50.3,50.3,0,0,1-8.5,7.27c-5.32,3.5-11.57,4.89-18,5.35l-0.8-12c-0.38-5.76-9.39-5.8-9,0l0.81,12.14c-2.48-.05-4.94-0.16-7.31-0.26a54.43,54.43,0,0,1-19.51-4.55,40.39,40.39,0,0,1,5.6-9.33c1.54-1.91,1.87-4.49,0-6.36-1.6-1.6-4.82-1.91-6.36,0a54.08,54.08,0,0,0-7.12,11.42,49.26,49.26,0,0,1-8.16-6.67,29.57,29.57,0,0,1-8-14.84l10.33-.69c5.76-.38,5.8-9.39,0-9l-11,.73c0.66-11.5,6.49-23.46,13.84-33.12a6,6,0,0,0,2.11,1.41,12,12,0,0,1,6.21,6.63c1,2.25,4.24,2.74,6.16,1.61,2.31-1.35,2.59-3.9,1.61-6.16A20.28,20.28,0,0,0,648,255a71.82,71.82,0,0,1,5.52-5.27,49.84,49.84,0,0,1,5.86-4.3,4.66,4.66,0,0,0,2.3-.49,47.62,47.62,0,0,1,10-3.57,68.2,68.2,0,0,0,2.16,12c1.54,5.59,10.22,3.21,8.68-2.39a58.31,58.31,0,0,1-1.91-10.86,48,48,0,0,1,30,9.23,18.05,18.05,0,0,1-6,10.24c-4.37,3.83,2,10.17,6.36,6.36a26,26,0,0,0,7-10,48.84,48.84,0,0,1,8.15,12.33,45.38,45.38,0,0,1,3.7,12.85H717.81c-5.8,0-5.8,9,0,9h12.45a42.34,42.34,0,0,1-4.13,16.3A57.18,57.18,0,0,1,721.08,314.81Z" transform="translate(-602.54 -146.12)"/><path class="cls-1" d="M690,271.51l-10.23,12.82a4.2,4.2,0,0,0-3.06.51,9.7,9.7,0,0,0-4.4,10.75c1,4.24,6.29,7.75,10.62,6.56,4.17-1.15,5-7,3.82-10.45a10.75,10.75,0,0,0-.49-1.17l10.11-12.66C699.9,273.39,693.58,267,690,271.51Z" transform="translate(-602.54 -146.12)"/></svg>