<svg id="Layer_1" data-name="Layer 1" xmlns="http://www.w3.org/2000/svg" viewBox="0 0 240.49 240.49"><defs><style>.cls-1,.cls-3{fill:none;stroke:#333;stroke-miterlimit:10;}.cls-1{stroke-width:8px;}.cls-2{fill:#333;}.cls-3{stroke-linecap:round;stroke-width:4px;}</style></defs><title>enojado</title><circle class="cls-1" cx="120.24" cy="120.24" r="116.24"/><path class="cls-2" d="M3963.71,665.79a21.38,21.38,0,0,0,21.23-18.88h-42.45A21.38,21.38,0,0,0,3963.71,665.79Z" transform="translate(-3791.26 -559.59)"/><path class="cls-2" d="M3890.28,665.79a21.38,21.38,0,0,0,21.23-18.88h-42.45A21.38,21.38,0,0,0,3890.28,665.79Z" transform="translate(-3791.26 -559.59)"/><path class="cls-3" d="M3896.59,701.34s44.86-4.84,62.9,3.08" transform="translate(-3791.26 -559.59)"/><path class="cls-2" d="M3866.11,642.75a17.5,17.5,0,0,0-10.93-7.42c-1.88-.4-2.69,2.49-0.8,2.89a14.48,14.48,0,0,1,9.13,6c1.08,1.59,3.68.09,2.59-1.51h0Z" transform="translate(-3791.26 -559.59)"/><path class="cls-2" d="M3861.21,654a7.29,7.29,0,0,0-8.87-1c-1.64,1-.13,3.61,1.51,2.59a4.23,4.23,0,0,1,5.23.52c1.39,1.34,3.52-.78,2.12-2.12h0Z" transform="translate(-3791.26 -559.59)"/><path class="cls-2" d="M3861,661.17a23.23,23.23,0,0,0-7.25,3.93c-1.51,1.2.62,3.31,2.12,2.12a19.12,19.12,0,0,1,5.92-3.16c1.83-.6,1-3.5-0.8-2.89h0Z" transform="translate(-3791.26 -559.59)"/><path class="cls-2" d="M3988.59,661.7a17.2,17.2,0,0,1,9.39,5.53c1.28,1.45,3.39-.68,2.12-2.12a19.88,19.88,0,0,0-10.72-6.3c-1.88-.41-2.69,2.48-0.8,2.89h0Z" transform="translate(-3791.26 -559.59)"/><path class="cls-2" d="M3991.36,653.64a17.31,17.31,0,0,1,10.86-.49,1.5,1.5,0,0,0,.8-2.89,20.12,20.12,0,0,0-12.45.49c-1.8.66-1,3.56,0.8,2.89h0Z" transform="translate(-3791.26 -559.59)"/><path class="cls-2" d="M3975.85,695.65a52.51,52.51,0,0,1-2.38,36.11c-0.77,1.75,1.81,3.28,2.59,1.51a55.74,55.74,0,0,0,2.68-38.42,1.5,1.5,0,0,0-2.89.8h0Z" transform="translate(-3791.26 -559.59)"/><path class="cls-2" d="M3874.14,684.68a92.61,92.61,0,0,0-1.34,20.77c0.3,5.41.71,11.06,4,15.58,1.12,1.55,3.73.05,2.59-1.51-3.32-4.57-3.49-10.55-3.66-16a89.35,89.35,0,0,1,1.31-18c0.32-1.89-2.57-2.7-2.89-.8h0Z" transform="translate(-3791.26 -559.59)"/><path class="cls-2" d="M3935.28,708.14c-0.45,0-1.07-.79-1.55-0.94-1.72-.55-4.47-0.13-6.25-0.09a92.07,92.07,0,0,0-12.43,1.24c-1.9.31-1.09,3.2,0.8,2.89a85.64,85.64,0,0,1,13.9-1.16,9.67,9.67,0,0,1,3.24.39c1,0.34,1.15.69,2.29,0.66,1.93-.06,1.93-3.06,0-3h0Z" transform="translate(-3791.26 -559.59)"/><path class="cls-2" d="M3906.69,646.91s10,2.4,15.25-10.14c0,0,5.28-2.22,0,5.16s-8.3,7.29-11.38,9.26S3906.69,646.91,3906.69,646.91Z" transform="translate(-3791.26 -559.59)"/><path class="cls-2" d="M3980.2,646.91s9,2.4,14.25-10.14c0,0,5.28-2.22,0,5.16s-7.3,7.29-10.38,9.26S3980.2,646.91,3980.2,646.91Z" transform="translate(-3791.26 -559.59)"/><path class="cls-2" d="M3927.21,746.67l0.49-.2-1.69-.69c0.86,1.25-3.16,5.1-4.06,6-2,2-4.52,3.74-7.4,4.11a8.79,8.79,0,0,1-6.78-1.72,52.22,52.22,0,0,1-4.09-8c-1.9.26-1.09,3.15,0.8,2.89l0.52-.07a1.45,1.45,0,0,0,1-1,2.29,2.29,0,0,0-.71-2.64,1.47,1.47,0,0,0-1.46-.39c-3.54,1.43-1.93,5.58-.7,8.31,1.55,3.45,5.33,5.45,9,5.77,4.58,0.41,8.74-2,11.93-5.07,2.18-2.13,6.82-6.27,4.53-9.61a1.53,1.53,0,0,0-1.69-.69l-0.49.2c-1.76.73-1,3.63,0.8,2.89h0Z" transform="translate(-3791.26 -559.59)"/></svg>