<svg id="Layer_1" data-name="Layer 1" xmlns="http://www.w3.org/2000/svg" viewBox="0 0 166.34 166.34"><defs><style>.cls-1{fill:#333;}.cls-2{fill:none;stroke:#333;stroke-miterlimit:10;stroke-width:6.07px;}</style></defs><title>enojado2</title><path class="cls-1" d="M4557.62,716a16.76,16.76,0,0,0,16.65-14.81H4541A16.76,16.76,0,0,0,4557.62,716Z" transform="translate(-4466.48 -651.24)"/><path class="cls-1" d="M4500,716a16.76,16.76,0,0,0,16.65-14.81h-33.29A16.76,16.76,0,0,0,4500,716Z" transform="translate(-4466.48 -651.24)"/><circle class="cls-2" cx="83.17" cy="83.17" r="80.13"/><line class="cls-2" x1="16.91" y1="49.94" x2="61.33" y2="49.94"/><line class="cls-2" x1="74.5" y1="49.94" x2="118.91" y2="49.94"/><ellipse class="cls-1" cx="50.7" cy="86.3" rx="27.44" ry="8.31"/><path class="cls-1" d="M4504.31,752.59a22.46,22.46,0,0,1,9.67,1.32c1.82,0.66,2.6-2.23.8-2.89a24.53,24.53,0,0,0-10.47-1.42c-1.91.15-1.93,3.15,0,3h0Z" transform="translate(-4466.48 -651.24)"/></svg>