<svg id="Layer_1" data-name="Layer 1" xmlns="http://www.w3.org/2000/svg" viewBox="0 0 240.49 266.4"><defs><style>.cls-1{fill:none;stroke:#333;stroke-miterlimit:10;stroke-width:8px;}.cls-2{fill:#333;}</style></defs><title>facepalm</title><circle class="cls-1" cx="120.24" cy="120.24" r="116.24"/><path class="cls-2" d="M3646.42,1176.16a38.66,38.66,0,0,0-23,9c-2.89,2.37.12,5.39,3,3.06a31.88,31.88,0,0,1,19.07-6.95c2.76-.13,4.66-5.29,1-5.11h0Z" transform="translate(-3587.1 -1083.62)"/><path class="cls-2" d="M3647.33,1178.82a26.94,26.94,0,0,0-19.35,16.51c-1.39,3.67,3.68,3.34,4.73.54a19,19,0,0,1,13.66-11.94,3.89,3.89,0,0,0,3.05-2.95,1.77,1.77,0,0,0-2.09-2.17h0Z" transform="translate(-3587.1 -1083.62)"/><path class="cls-2" d="M3644.55,1185.12a54.34,54.34,0,0,0-10.74,26.41c-0.45,3.68,4.81,2,5.14-.78a48.32,48.32,0,0,1,9.6-23.78c2.39-3.15-2-4.48-4-1.85h0Z" transform="translate(-3587.1 -1083.62)"/><path class="cls-2" d="M3704.79,1170.51a122.16,122.16,0,0,1,34.33-10.7c2.69-.42,4.61-5.68,1-5.11a127.11,127.11,0,0,0-35.66,11.07c-2.62,1.26-3.15,6.45.38,4.75h0Z" transform="translate(-3587.1 -1083.62)"/><path class="cls-2" d="M3708.79,1175.71a85.26,85.26,0,0,1,9.13.58c2.64,0.31,5.58-4.75,2.23-5.15a85.26,85.26,0,0,0-9.13-.58,3.79,3.79,0,0,0-3.48,2.3c-0.43,1-.25,2.83,1.25,2.84h0Z" transform="translate(-3587.1 -1083.62)"/><path class="cls-2" d="M3711.24,1181.34a37.2,37.2,0,0,1,10.92,8.3c1.91,2.1,6.24-2,4.32-4.17a40.64,40.64,0,0,0-11.86-9c-2.42-1.22-6.13,3.44-3.38,4.83h0Z" transform="translate(-3587.1 -1083.62)"/><path class="cls-2" d="M3677.32,1243.71c1.08,0,2.29-2.13.93-2.13-1.08,0-2.29,2.13-.93,2.13h0Z" transform="translate(-3587.1 -1083.62)"/><path class="cls-2" d="M3678.19,1245.36c8.92-4.29,17.89-8.51,26.79-12.84,8.15-4,16.27-8.91,24.86-11.85,4-1.36,9.24-2.43,12.54,1s2.29,8.89-.7,12c-5.92,6.24-17.49,6.91-25.44,8-8.71,1.21-17.44,2.28-25.77,5.23-8.55,3-16.54,8-25.54,9.62a28.6,28.6,0,0,1-11.24,0,18.62,18.62,0,0,1-6.15-2.5c-3.86-2.53-.24-3.62,2.3-4.22,9.44-2.25,19-4.15,28.46-6.27,2.95-.66,5.13-6.65,1.08-5.77-10.29,2.24-20.77,4.15-30.95,6.86-4.61,1.23-11.63,5.47-8.57,11.26s12.92,7.09,18.73,6.86c9.11-.37,17.34-4.38,25.56-7.94,9.77-4.23,19.66-6,30.14-7.47,8.43-1.17,17.62-2.18,25.2-6.36,5.73-3.16,10.44-8.65,10.64-15.46,0.21-7.31-5.31-12.08-12.4-11.91-9.19.22-18,6.2-26,10.14-11.33,5.59-22.59,11.34-33.88,17-2.43,1.22-3,6.14.36,4.51h0Z" transform="translate(-3587.1 -1083.62)"/><path class="cls-2" d="M3659.18,1244.19l4.47,11.92c0.51,1.36,2.71.77,2.19-.6l-4.47-11.92c-0.51-1.36-2.71-.77-2.19.6h0Z" transform="translate(-3587.1 -1083.62)"/><path class="cls-2" d="M3674.94,1244.61a26,26,0,0,1,2.13,10.57,1.14,1.14,0,0,0,2.27,0,28.78,28.78,0,0,0-2.44-11.72c-0.58-1.34-2.54-.18-2,1.15h0Z" transform="translate(-3587.1 -1083.62)"/><path class="cls-2" d="M3687.67,1239.1l4.93,9.46c0.68,1.3,2.64.15,2-1.15l-4.93-9.46c-0.68-1.3-2.64-.15-2,1.15h0Z" transform="translate(-3587.1 -1083.62)"/><path class="cls-2" d="M3704.82,1234.05l6.24,11.9c0.68,1.3,2.64.15,2-1.15l-6.24-11.9c-0.68-1.3-2.64-.15-2,1.15h0Z" transform="translate(-3587.1 -1083.62)"/><path class="cls-2" d="M3715,1229.82l8,14.6a1.14,1.14,0,0,0,2-1.15l-8-14.6a1.14,1.14,0,0,0-2,1.15h0Z" transform="translate(-3587.1 -1083.62)"/><path class="cls-2" d="M3727.76,1218.12a48.8,48.8,0,0,1,7,16.53c0.31,1.43,2.51.82,2.19-.6a50.6,50.6,0,0,0-7.2-17.07c-0.8-1.22-2.77-.08-2,1.15h0Z" transform="translate(-3587.1 -1083.62)"/><path class="cls-2" d="M3641.47,1198c5.13-.05,8.44-4.16,8.94-9.06,0.68-6.61-6-19.24,3.77-21.37,4.22-.92,6.83,1.13,9.29,4.09,1.16,1.39,2.13,2.87,4.14,2.94,2.34,0.08,3.45-1.76,4.9-3.21,3.24-3.24,7.09-4,11.54-4.16,6.49-.2,14.65.23,20.08,4.21,8.41,6.18,3.43,17.46-3.88,22-12.61,7.9-29.06,4.66-40.68,15l2.82,0.36c-3.54-5.08-6.8-11.2-11.06-15.7-1.92-2-5.09-3.61-7.19-1-1.44,1.78,1.09,4.34,2.54,2.54,1-1.27,6.31,7,6.88,7.78l5.72,8.2a1.83,1.83,0,0,0,2.82.36c10.94-9.69,27-6.9,39.26-14,8.5-4.94,14.83-16.82,7.83-25.62-6.13-7.71-19.54-8.6-28.54-7.49a19.35,19.35,0,0,0-7.13,2.1,23,23,0,0,0-3.07,2.36c-1.81,1.45-2.6,2.16-4.53.49-3.08-2.67-5-4.89-9.51-5-4.24-.12-8.42,1.84-10.23,5.81-1.46,3.19-1.1,6.74-.5,10.08,0.79,4.43,3.48,14.61-4.21,14.69-2.31,0-2.32,3.62,0,3.59h0Z" transform="translate(-3587.1 -1083.62)"/><path class="cls-2" d="M3649.34,1192.54c-32,9.15-49.93,44.16-53.51,75.19a66,66,0,0,0,13.58,49.17c10.19,13.07,23.95,22.76,37.49,32.06,6.37,4.37,12.36-6,6-10.34-11.88-8.16-23.94-16.6-33.18-27.82-9.75-11.84-13.69-26.07-12.16-41.29,2.63-26.15,17.81-57.67,44.91-65.42,7.4-2.11,4.25-13.67-3.18-11.55h0Z" transform="translate(-3587.1 -1083.62)"/></svg>