<svg id="Layer_1" data-name="Layer 1" xmlns="http://www.w3.org/2000/svg" viewBox="0 0 112.07 118.9"><defs><style>.cls-1{fill:#1e1e1e;}</style></defs><title>flechas</title><path class="cls-1" d="M876.82,151.82L844.1,177.07c-1.1.85-1.53,3.05,0.13,3.67A77.1,77.1,0,0,0,857,184.38q-3.49,14.77-6.86,29.58-0.79,3.48-1.57,7c-0.44,2-1.33,4.27-1,6.31,0.8,4.47,5,3.74,8.3,5a2.2,2.2,0,0,0,1.63,0c5,1.18,10.08,2.45,15.16,3.43s5.51-5.22,6.28-8.64l7.85-34.51,16.52,3.14a2.15,2.15,0,0,0,2.27-3.21,258.47,258.47,0,0,0-25.87-40A2.15,2.15,0,0,0,876.82,151.82Zm23,38.86L885.68,188a2.09,2.09,0,0,0-2.48,1.65,2.28,2.28,0,0,0-.19.53l-6.59,29-1.58,7c-0.47,2.08-.3,5.66-3.11,5l-15-3.43a2,2,0,0,0-1.29.1c-0.63-.13-1.27-0.23-2-0.32-2.62-.36-1.11-3.94-0.74-5.6q1.43-6.38,2.89-12.75,2.78-12.17,5.66-24.31a2.19,2.19,0,0,0,0-.7c1-1.12.84-3.16-1-3.45a72.7,72.7,0,0,1-10.69-2.49l28-21.57A258.41,258.41,0,0,1,899.85,190.68Z" transform="translate(-843.13 -151.47)"/><path class="cls-1" d="M926.65,187.86c-3.5-.27-7-2.76-9.65.93-1,1.39-1.21,3.32-1.59,4.95q-0.94,4.05-1.86,8.11-3.38,14.8-6.62,29.63a77.11,77.11,0,0,0-13.1-2.25c-1.76-.15-2.33,2-1.7,3.26l18.57,36.93a2.15,2.15,0,0,0,2.93.67,258.47,258.47,0,0,0,40.63-24.84,2.15,2.15,0,0,0-.66-3.87L937.33,237l7.6-33.35c0.82-3.61,3.47-9.43-1.13-11.46-2.48-1.1-5.58-1.37-8.22-2l-7.45-1.69A2.2,2.2,0,0,0,926.65,187.86Zm7.29,44.94c-0.78-.89-1.69-1.71-2.39-2.5l-0.24-.28q1.43,0.87,2.87,1.71Zm8.21,15.82a1.81,1.81,0,0,0-.09-0.17l-0.09-.14,0.29,0.23Zm-3.63,2.4-1.13-1.36c0.54,0.35,1.1.68,1.66,1Zm-11.29,7s0-.1,0-0.15a5,5,0,0,0-.22-1.48,2.6,2.6,0,0,0,2.31.26,1.84,1.84,0,0,0,1-2.71l-0.18-.25,1.57,1.65Q929.49,256.66,927.23,258Zm-18-21.63a1.65,1.65,0,0,0,.62-0.23c0.61,0.87,1.2,1.74,1.8,2.62Q910.41,237.53,909.19,236.35Zm-4.16-1,0,0.07-0.1-.1Zm-5.44-1.17s0,0.05,0,.08l-0.07-.09Zm22.17-9.42,0,0L922,225Zm-0.39-33.87a4,4,0,0,1,.77,0,2.07,2.07,0,0,0,.18.21c1.1,1.09,2.22,2.15,3.36,3.2Zm-1.09,4.59a1.59,1.59,0,0,0-1,0c0-.24.08-0.48,0.13-0.74A10.34,10.34,0,0,0,920.28,195.51Zm-5.18,68a7.74,7.74,0,0,0,1,.56l-0.56.28ZM935,253.29l-0.11-.17,0.19,0.12Zm-0.75-27.52c0.39,0.09.79,0.17,1.19,0.23h0.09l-0.24,1Zm4.36-16.05,0.57,0.31,0,0.2Zm-1.33-10.26c1.15,0.74,2.29,1.49,3.41,2.26a1.38,1.38,0,0,0,.34.17l-0.08.35Q939,200.88,937.24,199.46Z" transform="translate(-843.13 -151.47)"/></svg>