<svg id="Layer_1" data-name="Layer 1" xmlns="http://www.w3.org/2000/svg" viewBox="0 0 360.96 368.82"><defs><style>.cls-1{fill:#333;}.cls-2,.cls-3{fill:none;stroke:#333;stroke-miterlimit:10;}.cls-2{stroke-width:4.85px;}.cls-3{stroke-width:3.24px;}</style></defs><title>juanito</title><path class="cls-1" d="M823.57,2268.46A126.77,126.77,0,0,1,854,2289.6l-0.38-2.94a168.7,168.7,0,0,0-12.14,32,2.46,2.46,0,0,0,3.57,2.74c15.74-7.9,31.45-15.87,47.23-23.69,14-6.95,31-14.75,46.91-10.18,9.27,2.65,15.26,8.78,11.67,18.89-3.08,8.66-8.29,16.93-12.53,25.07q-12.25,23.48-25.09,46.65a2.46,2.46,0,0,0,2.74,3.57,180.29,180.29,0,0,0,59-23.77h-2.45c7.81,5.49,14.39,13.94,15.08,23.78,0.62,8.9-3.73,17.66-11.72,21.81l2.94,3.81c23-24.71,62-8.85,84.9,7.14,2.57,1.79,5-2.42,2.45-4.19-24.83-17.31-66.23-32.78-90.79-6.38a2.44,2.44,0,0,0,2.94,3.81c9.43-4.88,14.84-15.48,14.13-26-0.79-11.68-8.18-21.43-17.48-28a2.38,2.38,0,0,0-2.45,0A176.42,176.42,0,0,1,914.67,2377l2.74,3.57q15.21-27.46,29.61-55.36c3.87-7.51,9.88-16.13,10-24.9,0.09-7.33-4.94-12.59-11.26-15.52-15.66-7.28-33.29-1.69-48.09,5-18.67,8.4-36.78,18.24-55.07,27.42l3.57,2.74a162.4,162.4,0,0,1,11.65-30.81,2.5,2.5,0,0,0-.38-2.94A131.19,131.19,0,0,0,826,2264.27c-2.79-1.39-5.25,2.8-2.45,4.19h0Z" transform="translate(-717.9 -2263.99)"/><path class="cls-1" d="M814.69,2265.45c-22.31,27-43.61,55.49-56.47,88.35-7.06,18-11.25,37-15.07,55.92-3.91,19.34-7.72,38.7-11.58,58L718,2536a2.46,2.46,0,0,0,3,3l9.37-1.94c3.06-.63,1.76-5.31-1.29-4.68l-9.37,1.94,3,3,23.13-116c3.67-18.43,7.25-36.95,13.07-54.84a222,222,0,0,1,22.93-48.35c10.78-17.35,23.35-33.49,36.35-49.22,2-2.39-1.44-5.84-3.43-3.43h0Z" transform="translate(-717.9 -2263.99)"/><path class="cls-1" d="M1058.76,2411.82c-26.54,26.52-52.51,53.77-71,86.72-19,33.83-32.11,70.92-46.65,106.77-1.17,2.89,3.52,4.15,4.68,1.29,14.39-35.48,27.4-72.13,46.16-105.61,18.27-32.6,44-59.51,70.22-85.74,2.21-2.21-1.22-5.64-3.43-3.43h0Z" transform="translate(-717.9 -2263.99)"/><path class="cls-1" d="M936.51,2605.07a399.67,399.67,0,0,1-117.46-13.3q-14.4-3.87-28.49-8.81c-8.48-3-17.11-6-24.71-10.93-14.72-9.49-22-26.42-35-37.71-2.35-2-5.8,1.38-3.43,3.43,10.21,8.84,16.74,20.85,26.16,30.41,10,10.2,23.37,15.17,36.62,19.79a402.17,402.17,0,0,0,146.36,22c3.12-.11,3.13-5,0-4.85h0Z" transform="translate(-717.9 -2263.99)"/><path class="cls-1" d="M1047.12,2422.81c5.13-.05,7.44,5.21,6.91,9.67s-3.36,8.54-5.87,12.27c-1.38,2,1.31,4.54,3.32,3.32a34.24,34.24,0,0,1,24.37-4.59l-1.07-4.06a433.54,433.54,0,0,0-94.28,190.3l3-1.7a378.66,378.66,0,0,0-60.69-17.62c-3.05-.62-4.36,4.06-1.29,4.68a378.66,378.66,0,0,1,60.69,17.62,2.44,2.44,0,0,0,3-1.7,428.52,428.52,0,0,1,93-188.16c1.08-1.26.87-3.7-1.07-4.06a39.48,39.48,0,0,0-28.11,5.08l3.32,3.32c3.85-5.72,8.14-12.57,6.23-19.77-1.43-5.37-5.76-9.53-11.46-9.47-3.12,0-3.13,4.89,0,4.85h0Z" transform="translate(-717.9 -2263.99)"/><path class="cls-1" d="M849.61,2455.57c-7.22,15.75-22.39,27.59-40.21,27.39-17.63-.2-32.32-12.76-36.77-29.56-4.64-17.52,2.13-37,16.25-48.19,13.39-10.66,32.45-12.63,47-3,17.41,11.54,21.62,34.9,13.78,53.38-1.21,2.84,3,5.32,4.19,2.45,7.75-18.25,5.62-40.28-8.9-54.66-13.78-13.65-35-15.78-51.83-6.71-17.76,9.57-28.53,30.08-26.53,50.13,1.91,19.16,15.25,36.17,34.53,40.12,22.17,4.54,43.58-8.94,52.73-28.89C855.1,2455.2,850.92,2452.73,849.61,2455.57Z" transform="translate(-717.9 -2263.99)"/><path class="cls-1" d="M962.87,2505.58c-7.22,15.75-22.39,27.59-40.21,27.39-17.63-.2-32.32-12.76-36.77-29.56-4.64-17.52,2.13-37,16.25-48.19,13.39-10.66,32.45-12.63,47-3,17.41,11.54,21.62,34.9,13.78,53.38-1.21,2.84,3,5.32,4.19,2.45,7.75-18.25,5.62-40.28-8.9-54.66-13.78-13.65-35-15.78-51.83-6.71-17.76,9.57-28.53,30.08-26.53,50.13,1.91,19.16,15.25,36.17,34.53,40.12,22.17,4.54,43.58-8.94,52.73-28.89C968.36,2505.21,964.17,2502.74,962.87,2505.58Z" transform="translate(-717.9 -2263.99)"/><path class="cls-1" d="M797,2359.46c14.21-10.65,34.68-14.63,51.18-6.77,15,7.16,14.15,26,25.61,36.39,2.31,2.1,5.75-1.32,3.43-3.43-6.5-5.92-8.62-14.53-12.33-22.2A31.32,31.32,0,0,0,847,2347c-17.4-6.54-37.81-2.73-52.5,8.28-2.47,1.85-.05,6.07,2.45,4.19h0Z" transform="translate(-717.9 -2263.99)"/><path class="cls-1" d="M919.92,2423.52c5.85-8.55,14.1-16.2,24-19.78,11.36-4.12,21.72.11,26.34,11.26,4.32,10.43,8.05,21.13,12.06,31.68,1.17,3.08,2.05,8.79,5.1,10.71a3.88,3.88,0,0,0,5.66-1.52c1.47-2.75-2.71-5.21-4.19-2.45,1.3-2.44-1.68-7.48-2.57-9.84l-3.09-8.15-6.18-16.3c-3.16-8.34-6.29-16.5-15.15-20.1-17.91-7.27-36.63,8.14-46.13,22-1.77,2.59,2.44,5,4.19,2.45h0Z" transform="translate(-717.9 -2263.99)"/><ellipse class="cls-1" cx="813.78" cy="2436.19" rx="13.01" ry="9.79" transform="translate(-2461.43 -67.5) rotate(-66.17)"/><ellipse class="cls-1" cx="923.36" cy="2484.58" rx="13.01" ry="9.79" transform="translate(-2440.38 61.59) rotate(-66.17)"/><path id="_Path_" data-name="&lt;Path&gt;" class="cls-2" d="M767.78,2484.74c-24.18,9-19.42,56.4,35.74,80.76s98-.3,87.94-26.14c-11.57-29.87-46.66-10.61-66.43-19.34C795.15,2506.83,800.25,2472.66,767.78,2484.74Z" transform="translate(-717.9 -2263.99)"/><path class="cls-1" d="M834.4,2558.43s21.23-12.35,34.7,7.24c7-9.6,5.27-19.6-5.88-27.23-11.76-8.05-6.9,9.16-19.86,5s12-10.78-10.78-9.69c-16.49.79-14.5,13.8-12.13,21C824.38,2554.61,829,2555.58,834.4,2558.43Z" transform="translate(-717.9 -2263.99)"/><path class="cls-3" d="M822.31,2552.45c-11.13.27-18.38,11.49-18.38,11.49,39.16,18.33,67.71,6,67.71,6-0.81-1.57-2-7.08-2.91-8.37" transform="translate(-717.9 -2263.99)"/></svg>