<svg id="Layer_1" data-name="Layer 1" xmlns="http://www.w3.org/2000/svg" viewBox="0 0 240.49 240.49"><defs><style>.cls-1{fill:none;stroke:#333;stroke-miterlimit:10;stroke-width:8px;}.cls-2{fill:#333;}</style></defs><title>llora</title><circle class="cls-1" cx="120.24" cy="120.24" r="116.24"/><path class="cls-2" d="M3360,845.48a21.38,21.38,0,0,0-21.23,18.88h42.45A21.38,21.38,0,0,0,3360,845.48Z" transform="translate(-3276.49 -792.08)"/><path class="cls-2" d="M3433.45,845.48a21.38,21.38,0,0,0-21.23,18.88h42.45A21.38,21.38,0,0,0,3433.45,845.48Z" transform="translate(-3276.49 -792.08)"/><path class="cls-2" d="M3457.5,868.91s10,10,6.78,16.76S3457.5,876.5,3457.5,868.91Z" transform="translate(-3276.49 -792.08)"/><path class="cls-2" d="M3347.3,900.37c6-7.25,15.24-11.17,24-14.06a75.49,75.49,0,0,1,26.84-4c16.54,0.7,32.65,8.45,41.74,22.58,1,1.62,3.64.12,2.59-1.51-9.33-14.51-25.55-22.77-42.55-24a77.39,77.39,0,0,0-30.26,4.34c-8.95,3.06-18.3,7.09-24.45,14.54-1.22,1.48.89,3.61,2.12,2.12h0Z" transform="translate(-3276.49 -792.08)"/><path class="cls-2" d="M3372,968.18c2.32,6.32,7.85,10,14.46,10.76,7.59,0.83,12.1-1.67,14-9.07a1.5,1.5,0,0,0-2.89-.8c-1,3.76-1.63,6-6.44,6.92a16.66,16.66,0,0,1-5.84-.23c-4.74-1-8.72-3.72-10.43-8.38-0.66-1.8-3.56-1-2.89.8h0Z" transform="translate(-3276.49 -792.08)"/><path class="cls-2" d="M3384.89,893.32c3.34-1,6.16-2.54,9.74-2.63a38.47,38.47,0,0,1,10.16,1.63c1.87,0.47,2.67-2.42.8-2.89a42.45,42.45,0,0,0-11-1.74c-3.82.07-6.94,1.7-10.54,2.73a1.5,1.5,0,0,0,.8,2.89h0Z" transform="translate(-3276.49 -792.08)"/><path class="cls-2" d="M3372.15,832.34c-3.1,4.27-8.37,5.62-13.3,6.53-2.29.42-8-.15-9.65,1.94a1.52,1.52,0,0,0,.3,2.36l0.3,0.15a1.53,1.53,0,0,0,2.2-.9l0.08-.21c0.71-1.8-2.19-2.57-2.89-.8l-0.08.21,2.2-.9-0.3-.15,0.3,2.36c0.64-.82,5.38-0.66,6.7-0.88a46,46,0,0,0,7.85-1.85,17.69,17.69,0,0,0,8.88-6.35c1.14-1.56-1.46-3.06-2.59-1.51h0Z" transform="translate(-3276.49 -792.08)"/><path class="cls-2" d="M3414.38,830.59a38.57,38.57,0,0,0,13.52,10.93,37.76,37.76,0,0,0,7.7,2.74c2.43,0.57,6.07.27,8.17,1.51a1.5,1.5,0,0,0,1.51-2.59c-1.59-.94-2.84-0.89-4.67-1.1a35.44,35.44,0,0,1-9.95-2.61,36.15,36.15,0,0,1-14.17-11c-1.2-1.51-3.31.62-2.12,2.12h0Z" transform="translate(-3276.49 -792.08)"/></svg>