<svg id="Layer_1" data-name="Layer 1" xmlns="http://www.w3.org/2000/svg" viewBox="0 0 166.34 166.34"><defs><style>.cls-1,.cls-3{fill:none;stroke:#333;stroke-miterlimit:10;}.cls-1{stroke-width:6.07px;}.cls-2{fill:#333;}.cls-3{stroke-linecap:round;stroke-width:2.5px;}</style></defs><title>rostro</title><circle class="cls-1" cx="83.17" cy="83.17" r="80.13"/><path class="cls-2" d="M4398.22,984a13.61,13.61,0,0,0-13.51,12h27A13.61,13.61,0,0,0,4398.22,984Z" transform="translate(-4350.33 -932.64)"/><path class="cls-2" d="M4445,984a13.61,13.61,0,0,0-13.51,12h27A13.61,13.61,0,0,0,4445,984Z" transform="translate(-4350.33 -932.64)"/><path class="cls-2" d="M4432.83,974.49a24.61,24.61,0,0,0,8.71,7,24,24,0,0,0,4.38,1.59c1.63,0.41,4.22.23,5.63,1.07a1,1,0,0,0,1-1.65c-2.58-1.53-6.22-1.09-9.1-2.28a23,23,0,0,1-9.23-7.08c-0.77-1-2.11.4-1.35,1.35h0Z" transform="translate(-4350.33 -932.64)"/><path class="cls-3" d="M4388.21,970.58s13-10.5,23.52,0" transform="translate(-4350.33 -932.64)"/><path class="cls-3" d="M4398.22,1028.49s13.52-4.06,25.71,0" transform="translate(-4350.33 -932.64)"/><path class="cls-2" d="M4401.17,1045.56c2.66-1.35,4.46,1.74,3.85,4s-2.61,3.49-4.61,4.21c-1.5.54-.85,3,0.66,2.41,3.7-1.34,7.1-4.36,6.54-8.66a5.34,5.34,0,0,0-7.7-4.15c-1.44.73-.17,2.89,1.26,2.16h0Z" transform="translate(-4350.33 -932.64)"/><path class="cls-2" d="M4412.43,1042.59c-3,.56-8.74,3.56-7.56,7.43,1.09,3.59,6.28,5,9.55,4.75,1.59-.14,1.61-2.65,0-2.5-2.16.2-5.53-.35-6.79-2.44-1.46-2.43,3.77-4.51,5.47-4.83s0.91-2.71-.66-2.41h0Z" transform="translate(-4350.33 -932.64)"/><path class="cls-2" d="M4466,965.57c-1.9-.08-2.35,1.75-2.68,3.29l-1.72,8.05c-0.34,1.57,2.08,2.24,2.41.66,0.17-.79,1.82-9.51,2-9.51,1.61,0.07,1.61-2.44,0-2.5h0Z" transform="translate(-4350.33 -932.64)"/><path class="cls-2" d="M4462.21,1007.12a6.18,6.18,0,0,1-3,8c-2.16,1-4.72.58-6.94,1.56a10.91,10.91,0,0,0-6.25,8.1c-0.3,1.57,2.11,2.25,2.41.66,0.86-4.48,4-6.65,8.31-7.22a9.61,9.61,0,0,0,5.38-1.95,8.86,8.86,0,0,0,2.22-10.44c-0.65-1.47-2.8-.2-2.16,1.26h0Z" transform="translate(-4350.33 -932.64)"/><path class="cls-2" d="M4373.5,1002.45c-2.28,3.68.81,6.37,3.9,7.93,2.13,1.08,3.74,2.15,4,4.81,0.08,0.94,0,1.89.09,2.83a6.72,6.72,0,0,0,2,4.71,1.25,1.25,0,0,0,1.77-1.77c-2.33-2.25-.7-6.29-2-9.07-1.11-2.35-9.33-5.22-7.51-8.16a1.25,1.25,0,0,0-2.16-1.26h0Z" transform="translate(-4350.33 -932.64)"/></svg>