<svg id="Layer_1" data-name="Layer 1" xmlns="http://www.w3.org/2000/svg" viewBox="0 0 163.22 95.75"><defs><style>.cls-1{fill:#1d1d1d;}</style></defs><title>silbato</title><path class="cls-1" d="M2988.2,1228.53c0,0.72.09,1.46,0.17,2.21,0,0.13,0,.26,0,0.39a3.58,3.58,0,0,0,.22,1.26c1.28,8.51,5.51,17.81,12.77,22.21,5.89,5.61,14.53,5.46,22.61,4.26a353.82,353.82,0,0,0,36.92-7.52l0.11,0c6.81,4.6,13.86,10.21,21.47,12.89a3,3,0,0,0,4-1.8,468,468,0,0,0,62.51-13.42c3.08-.88,3-4.54,1.19-6.14,0.18-5.36.46-10.74,0.47-16.1,0-4.21-3.37-7-6.24-9.52a249.09,249.09,0,0,0-23.08-18.13,312.53,312.53,0,0,0-53.35-29.93l-0.2-.06a3.57,3.57,0,0,0-1.57-.41c-7.53-.28-15.66,2.43-22.81,4.46a230.5,230.5,0,0,0-27.26,9.32,36.78,36.78,0,0,0-17.15,14,59.36,59.36,0,0,0-8.66,19.31A31.76,31.76,0,0,0,2988.2,1228.53Zm99,9.59q28.11-4.61,56.35-8.26l-0.43,13.34s0,0.07,0,.11a468,468,0,0,1-55.39,11.85l-0.1-11.84A25.37,25.37,0,0,0,3087.18,1238.12Zm-50.82,7.75,0.06-.07c0.2-.26.42-0.57,0.65-0.92l0,1A2.46,2.46,0,0,0,3036.36,1245.87Zm-0.51-10.79c-0.34.39-.66,0.8-1,1.21,0.13-.53.24-1.07,0.34-1.61Zm8.66,5.57,0.32,0.2-0.32.2C3044.51,1240.92,3044.51,1240.78,3044.51,1240.65Zm8.46,5.44c-1.73.42-3.47,0.82-5.21,1.22a20.7,20.7,0,0,1,2.57-1.51,3.45,3.45,0,0,0,1-.75Zm-57.63-14.8c0-.06,0-0.11,0-0.17a60.25,60.25,0,0,1,1.38-12.5c3.38-9.16,11.87-17.4,22.24-16.82,11.77,0.66,22.42,8.64,32.37,14.29,3.93,2.24,7.46-3.81,3.53-6-13-7.41-29.86-20.08-45.67-13.6q-1.23.5-2.41,1.1c4.21-5,8.53-7.4,14.69-9.8a250,250,0,0,1,25.91-8.48c5.7-1.54,12-3.66,18-3.62a304.86,304.86,0,0,1,46.58,25.55,250.49,250.49,0,0,1,22.48,16.7,81.12,81.12,0,0,1,6.45,5.3q-29,3.78-57.79,8.52c-2.53-2-6-3.43-8.46-5.27a77.48,77.48,0,0,1-9-8.15c-3.12-3.27-8.07,1.69-4.95,4.95a76.69,76.69,0,0,0,15.84,12.9c2.42,1.45,4,2,4,5.18l0.05,6,0.07,8.46c-3-1.66-5.75-3.83-8.49-5.59l-11.43-7.35-22.87-14.71a3,3,0,0,0-3.78.19,3.8,3.8,0,0,0-5.43,3c-0.51,5.35-2.49,11.07-6.66,14.69s-11.11,5.95-16.31,2.92c-0.17-.1-0.33-0.23-0.5-0.33s-0.32-.43-0.47-0.66a3.36,3.36,0,0,0-2.42-1.58A24.79,24.79,0,0,1,2995.35,1231.29Z" transform="translate(-2988.17 -1168.64)"/><path class="cls-1" d="M3053.28,1189.26c3.71-4.33,10.83-5.21,16.15-4.86a3.44,3.44,0,0,1,2.53,1.26,46.14,46.14,0,0,1,5.4,3.75c2,1.59,4.39,3.56,4.18,6.36-0.25,3.27-3.13,3.9-5.79,4.38a30.55,30.55,0,0,0-8.7,3.08,3.35,3.35,0,0,1-3.31,0,4.46,4.46,0,0,1-1.51.07,2.89,2.89,0,0,1-2.4-.6C3056.27,1200,3049.14,1194.09,3053.28,1189.26Z" transform="translate(-2988.17 -1168.64)"/><path class="cls-1" d="M3138.81,1241.08c-14.66.91-28.69,6-43.44,6.33-4.52.09-4.51-6.91,0-7,14.71-.3,28.77-5.42,43.44-6.33C3143.32,1233.8,3143.29,1240.8,3138.81,1241.08Z" transform="translate(-2988.17 -1168.64)"/></svg>