<svg id="Layer_1" data-name="Layer 1" xmlns="http://www.w3.org/2000/svg" viewBox="0 0 492.29 494.95"><defs><style>.cls-1{fill:#333;}</style></defs><title>sirena</title><path class="cls-1" d="M5709,1265.54a54.36,54.36,0,0,0-7.79,23.88c-0.73,9.21,1.38,18.53,2.78,27.58,1.37,8.85,2.09,18.16,4.75,26.74,2.52,8.1,7.46,15.53,12.47,22.3,8.67,11.72,21.57,22.56,37.13,21.08,14.66-1.39,27.31-15.16,35.41-26.43a92.25,92.25,0,0,0,15.4-34.36c0.53-2.41.94-4.85,1.41-7.28,0.23-1.21.46-2.43,0.74-3.63l0.42-1.8a2.84,2.84,0,0,0-.75-3.91l0.74-2.18-0.38.31c-1.83,1.5.07,4.54,2.07,3.12l0.4-.29a1.87,1.87,0,0,0,.84-1.71,3,3,0,0,0-1.73-2.53,1.92,1.92,0,0,0-1.9.13c-4.45,2.72-4.43,12.57-5.37,17.2a89.43,89.43,0,0,1-7.15,21.28c-6.19,12.76-15.57,24.54-27.25,32.71-15.48,10.82-32.64,3.19-43.74-10a100,100,0,0,1-12.29-18.29c-4.17-8.08-5.07-17.1-6.46-26-1.47-9.36-3.57-18.89-4-28.38-0.45-10.39,3.35-18.91,6.51-28.55a1.24,1.24,0,0,0-2.23-1.07h0Z" transform="translate(-5501.12 -1201.14)"/><path class="cls-1" d="M5764.09,1315.6c6.5-5.25,12.06-7.17,20.42-5.85,1.63,0.26,2.61-2.22.94-2.86-7.77-3-18.54.14-23,7.25a1.16,1.16,0,0,0,1.68,1.46h0Z" transform="translate(-5501.12 -1201.14)"/><path class="cls-1" d="M5763.89,1315.6a26.7,26.7,0,0,1,10.66,1c1.85,0.61,3.2-2.15,1.33-2.77a21.74,21.74,0,0,0-12.48-.65,1.27,1.27,0,0,0,.49,2.45h0Z" transform="translate(-5501.12 -1201.14)"/><path class="cls-1" d="M5761.87,1314.66c1.9,1.91,3.84,3.76,5.78,5.63,1.17,1.13,2.85-.79,1.66-1.91-2-1.84-3.9-3.7-5.9-5.5a1.18,1.18,0,0,0-1.55,1.78h0Z" transform="translate(-5501.12 -1201.14)"/><path class="cls-1" d="M5742.8,1321.91c-0.69,3-1.24,6-2.05,9-0.63,2.32-2.24,5.2-1.88,7.67a3.34,3.34,0,0,0,2.5,2.93,10.45,10.45,0,0,0,3,.17,27.54,27.54,0,0,0,2.78-.23q2.08,0.35,1.48-1.75c-1.32,1.33.69,3.65,2.19,2.5a2.39,2.39,0,0,0,.87-3.17c-0.86-1.6-2.57-1.38-4.1-1.16-1.21.18-4.57,1.1-5.36-.42-0.35-.68,1.07-3.89,1.27-4.68a66.05,66.05,0,0,0,1.91-10.33,1.31,1.31,0,0,0-2.57-.49h0Z" transform="translate(-5501.12 -1201.14)"/><path class="cls-1" d="M5709.85,1241.44c6.45,19.17,21.55,37.61,41,44.22,21.39,7.28,45,8.42,60.48,27.14,1.45,1.76,4.42-.12,3-2-12.56-16.65-33.87-21.41-53-26-11.79-2.85-22-7.42-30.59-16.17-8.14-8.31-12.93-18.3-18.55-28.28-0.73-1.29-2.75-.23-2.3,1.13h0Z" transform="translate(-5501.12 -1201.14)"/><path class="cls-1" d="M5741.66,1227.82c2.77,15.47,15.13,26.79,28.38,34a134.5,134.5,0,0,0,53.55,15.34c2.09,0.16,2.76-3.06.61-3.26-29.73-2.77-71.12-13.76-80.05-46.56-0.38-1.39-2.76-.94-2.5.5h0Z" transform="translate(-5501.12 -1201.14)"/><path class="cls-1" d="M5790.75,1356c-3.32,13.11-4.8,32.67,9.76,39.9,1.92,1,3.09-1.82,1.4-2.92-12.87-8.3-10.32-23.45-8.85-36.54a1.18,1.18,0,0,0-2.31-.44h0Z" transform="translate(-5501.12 -1201.14)"/><path class="cls-1" d="M5794.82,1391.07c11.25,2.25,23.94,2.19,34.5,7,10.34,4.72,14,15,17.52,25,3.08,8.71,6.81,16.57,13,23.56a111.14,111.14,0,0,0,23.81,20.17c1.61,1,3.19-1.56,1.81-2.75-8.54-7.34-17.92-13.26-25-22.21-6.87-8.67-9.32-18.88-13.53-28.86-3.53-8.36-8.83-15.25-17.47-18.68-10.47-4.16-23-5-34.07-5.95-1.76-.15-2.32,2.39-0.52,2.75h0Z" transform="translate(-5501.12 -1201.14)"/><path class="cls-1" d="M5738.7,1405.81c3.76,12,9.72,23.54,14.65,35.05,3.31,7.72,6.25,17.65,14.7,21.17,2.09,0.87,3.62-2.23,1.53-3.2-8.92-4.13-12-17-15.66-25.34-4.17-9.56-7.84-19.7-12.94-28.8-0.73-1.3-2.7-.22-2.27,1.12h0Z" transform="translate(-5501.12 -1201.14)"/><path class="cls-1" d="M5754.42,1451.63c8.86,2.35,18.76,2.29,27.88,2.22,10.17-.07,20.32-0.79,30.47-1.28,20.49-1,39.82-.24,59.52,5.85,2.06,0.64,3.16-2.76,1.18-3.59-17.82-7.46-38.45-7.21-57.4-6.39-10.16.44-20.3,1.17-30.46,1.45-10.44.28-20.63-.67-31-1.08-1.71-.07-1.63,2.43-0.17,2.82h0Z" transform="translate(-5501.12 -1201.14)"/><path class="cls-1" d="M5723.9,1363.28c-12.46-3.61-24.47,5.36-29.61,16.19-6.24,13.15-3.44,28.45,1.35,41.57,8.78,24,27.33,48.42,50.82,59.75,1.84,0.89,3.85-1.9,2-3.11-9.52-6.39-18.55-12.54-26.43-21a110.39,110.39,0,0,1-19.83-29.78c-5.4-12-9.79-26.13-6.74-39.3a30.7,30.7,0,0,1,8.22-15c5.68-5.54,12.4-6.63,20-6.52,1.71,0,1.59-2.38.16-2.79h0Z" transform="translate(-5501.12 -1201.14)"/><path class="cls-1" d="M5745.57,1480.44c24.8-4.5,49.18-8.5,74.47-8.6a316,316,0,0,1,38.41,2.2c9.22,1.09,23.69,1.17,28.53,10.73,0.74,1.45,2.82,1,3.46-.24l0.91-1.69c1.2-2.23-2.2-3.73-3.49-1.67l-1,1.64,3.46-.24c-4.39-8.66-14.9-10.21-23.57-11.45a323.54,323.54,0,0,0-40.32-3.19c-27-.46-55.46,1.71-81.45,9.55-1.62.49-1.13,3.28,0.6,3h0Z" transform="translate(-5501.12 -1201.14)"/><path class="cls-1" d="M5872.85,1461c12.88,1.83,25,18.63,24.84,31.3a9.22,9.22,0,0,1-1,4.94l-4.15-1.05c-1.28-1.07-1.61-5-1.81-6.64-0.3-2.42.31-5.47-1.08-7.62-1.49-2.32-4.41-2.72-6.19-.53a1.7,1.7,0,0,0,2.56,2.22c0.39-.41,1.13,5.82,1.18,6.17a27.14,27.14,0,0,0,1.35,6c0.84,2.29,2.3,4.8,4.77,5.6,6.69,2.17,8.24-6.44,7.81-11-1.24-13.22-13.47-31.75-28.11-31.86a1.23,1.23,0,0,0-.14,2.43h0Z" transform="translate(-5501.12 -1201.14)"/><path class="cls-1" d="M5835,1473.48a108.5,108.5,0,0,0,27.19,22.92c5.06,3,10.65,5.53,16.56,6.07a21,21,0,0,0,6-.25c3.29-.64,6.1-2.65,9.44-3a1.88,1.88,0,0,0-.26-3.76c-4.67.07-8.45,3.24-13.27,3.25-6.25,0-12.3-3.1-17.56-6.19-9.74-5.72-17.59-13.51-26.15-20.74-1.08-.91-2.94.55-1.95,1.71h0Z" transform="translate(-5501.12 -1201.14)"/><path class="cls-1" d="M5880.85,1460.14c11.39-13.09,22.06-26.88,32.8-40.51a65.09,65.09,0,0,0,5-7c1.89-3.19,2.47-6.55,3.93-9.9,2.73-6.28,8-11.21,13.87-14.56,7-4,15-5.75,22.9-6.78,4.88-.63,20.26-4.36,22.64,2.13,1.85,5.06-4.74,9.17-8.46,10.47a37.06,37.06,0,0,1-9.26,1.65c-6,.49-12.19.44-18,2.29-2.41.76-1.15,4.48,1.26,3.72,10.89-3.44,24.41.39,33.81-7.48,3.31-2.77,5.91-7.52,4.45-11.91s-6.13-5.94-10.37-6.12c-7-.3-14.61.86-21.52,2.09a61.22,61.22,0,0,0-18.33,6,38.68,38.68,0,0,0-13.81,12.1c-3.75,5.54-4.62,12.15-8.58,17.6-11,15.16-23.52,29.2-34.51,44.4-1.07,1.48.94,3.32,2.18,1.89h0Z" transform="translate(-5501.12 -1201.14)"/><path class="cls-1" d="M5945.51,1400.92c-10.88,10.66-13.66,28-19.45,41.53-3.53,8.24-8.72,15-13.87,22.28a180.39,180.39,0,0,0-13.76,22.89c-1.07,2.12,2.1,3.55,3.28,1.57,5-8.39,9.53-16.94,15.34-24.86,4.6-6.26,8.88-12.41,12-19.57s5.29-14.42,8-21.62a116.18,116.18,0,0,1,10.65-20.8c0.82-1.32-1.18-2.37-2.16-1.42h0Z" transform="translate(-5501.12 -1201.14)"/><path class="cls-1" d="M5843.93,1452.63c3.93-3.08,2.44-10.28,1.64-14.57a44.15,44.15,0,0,0-8.79-19.22c-1.15-1.47-3.58.14-2.43,1.61a42.65,42.65,0,0,1,7.36,13.83c1.28,4.16,3.61,12.88.79,16.73-0.67.92,0.39,2.43,1.42,1.62h0Z" transform="translate(-5501.12 -1201.14)"/><path class="cls-1" d="M5828.39,1409.7a30.41,30.41,0,0,0-.72,8.22,1.24,1.24,0,0,0,2.46-.17,37.46,37.46,0,0,1,.4-7.64,1.09,1.09,0,0,0-2.14-.4h0Z" transform="translate(-5501.12 -1201.14)"/><path class="cls-1" d="M5800.79,1450.25c-1.28-6.81-3.06-13.77-1.4-20.68a18,18,0,0,1,4.66-8.72c1.27-1.24,2.9-1.8,3.2-3.67a1.92,1.92,0,0,0-1-2.05,2.17,2.17,0,0,0-2.35.21,1.91,1.91,0,0,0-.52,2.56l0.09,0.18c0.95,1.89,3.89.31,3.26-1.6l-0.06-.19-0.73,2.13-1.32.13-1-2.05c0.39-1.24-2.25,1.58-2.46,1.79a18.77,18.77,0,0,0-2.15,2.67,22.86,22.86,0,0,0-3.45,8.65c-1.31,7.05.38,14.49,2.3,21.27,0.47,1.67,3.34,1.14,3-.61h0Z" transform="translate(-5501.12 -1201.14)"/><path class="cls-1" d="M5795.29,1450.34c0.71-4.44,2.54-8.76,2.61-13.29s-1.7-8.94-3.39-13c-2.88-6.89-6.9-13.14-13.7-16.65l-1.22,3.73q1.35,0.39,2.71.71c2,0.51,3.22-2.87,1.17-3.57-1.05-.36-2.09-0.7-3.14-1-2.2-.7-3.15,2.75-1.22,3.73,6.27,3.23,9.85,9.27,12.53,15.56,1.64,3.85,3.17,7.7,2.91,12-0.23,3.83-1.6,7.49-2,11.3-0.18,1.76,2.45,2.32,2.74.52h0Z" transform="translate(-5501.12 -1201.14)"/><path class="cls-1" d="M5851.63,1431.26c1.93,0,1.71-3-.21-3s-1.71,3,.21,3h0Z" transform="translate(-5501.12 -1201.14)"/><path class="cls-1" d="M5707.92,1440.67c7.35,38.6,24.89,81.57,6.87,119.74a1.92,1.92,0,0,0,3.46,1.66c8.75-17.92,9.41-38.34,6.71-57.78-3-21.55-8.6-43.19-14.4-64.14-0.4-1.46-2.93-1-2.64.53h0Z" transform="translate(-5501.12 -1201.14)"/><path class="cls-1" d="M5711.76,1562.08c6.42,22.5,36.83,25.44,56.23,24.33,22.43-1.29,43.1-14,57.6-30.72,1.63-1.89-1.16-4.24-2.9-2.52-14.36,14.26-30.46,26.72-51.28,29-19.53,2.1-48.17-.19-57.06-20.93a1.37,1.37,0,0,0-2.6.88h0Z" transform="translate(-5501.12 -1201.14)"/><path class="cls-1" d="M5799.61,1471.15c7.89,15.11,29,13.33,37.14-.35,1.19-2-2.07-3.54-3.27-1.57-7.56,12.41-23.34,11.27-31.54.37a1.4,1.4,0,0,0-2.33,1.55h0Z" transform="translate(-5501.12 -1201.14)"/><path class="cls-1" d="M5759,1478.1c6.33,6.42,15.67,6.95,24.15,6.69,9.91-.31,14.76-6.21,21.23-13.09,1.59-1.69-1.08-4-2.7-2.35-2.69,2.66-5.19,5.57-8,8.12-3.34,3.06-7.21,3.66-11.57,3.78-4,.11-8.14.21-12-0.75-3.59-.89-6.44-3.08-9.85-4.34a1.18,1.18,0,0,0-1.28,1.94h0Z" transform="translate(-5501.12 -1201.14)"/><path class="cls-1" d="M5817.94,1479.66c-3.5,8-5.6,16.4-10,24-3.61,6.23-6.78,10.64-4.88,18.14a137.15,137.15,0,0,0,8.89,24.28c2.38,5,5.82,10.12,11.86,10.59,2.46,0.19,3.21-3.6.72-3.81-7.13-.59-9.7-9.6-11.92-15.19-2.43-6.11-6.59-14.12-6.56-20.78,0-6.1,5.92-12.43,8.32-17.84a90.42,90.42,0,0,0,6.17-18.55,1.38,1.38,0,0,0-2.59-.85h0Z" transform="translate(-5501.12 -1201.14)"/><path class="cls-1" d="M5783.59,1552.83c1.86,0.2,2.73,1.53,3,3.3,0.16,1.07.53,4.37-1,4.25-0.85-.07-0.79-0.5-0.72-1.31a10.38,10.38,0,0,1,.61-2.14,9.93,9.93,0,0,0,.57-3.58c-0.09-2.17-3.26-1.87-3.31.23-0.08,3.07-2.5,5.78-.58,8.82a4,4,0,0,0,6.37.42c3.56-3.72,1.26-14.16-5.09-12.51a1.31,1.31,0,0,0,.18,2.52h0Z" transform="translate(-5501.12 -1201.14)"/><path class="cls-1" d="M5715,1222.05c20.44-14.11,45.32-21.27,69.78-14,23.57,7,36.91,26.91,45.94,48.51,8.7,20.8,15.23,42.3,26.5,62,11,19.2,26,37,46,47.18A66.16,66.16,0,0,0,5938,1373c14.24-1,28.46-5.79,42.6-1.52,2.45,0.74,3.18-3.18.74-3.92-12.14-3.66-24.38-.92-36.61.7-12.86,1.71-25.06.65-37-4.79-22.39-10.23-38.34-30.45-49.73-51.67-19.88-37-25.25-93.19-71.73-107.44-24.42-7.49-53.71-1.77-73,15.18-1.4,1.23,0,3.63,1.66,2.5h0Z" transform="translate(-5501.12 -1201.14)"/><path class="cls-1" d="M5975.67,1370a24.55,24.55,0,0,1-14,7.51c-1.87.31-1.68,3.27,0.21,3a26.84,26.84,0,0,0,15.83-8.72,1.33,1.33,0,0,0-2-1.75h0Z" transform="translate(-5501.12 -1201.14)"/><path class="cls-1" d="M5824.62,1320.88c8.36,9.27,17.14,18.16,25.82,27.13,7.39,7.63,15,15.18,23.91,21,9.14,5.92,19.52,9.26,29.82,12.53,11,3.48,22.29,6.69,33.86,4.69,2.47-.43,2.26-4.34-0.28-3.94-11.34,1.77-22.12-1.23-32.85-4.63-10.92-3.46-21.82-7.05-31.27-13.72-17.69-12.47-31.56-30.33-47.16-45.18-1.35-1.28-3,.82-1.86,2.13h0Z" transform="translate(-5501.12 -1201.14)"/><path class="cls-1" d="M5901,1360.69c1.93,0,1.71-3-.21-3s-1.71,3,.21,3h0Z" transform="translate(-5501.12 -1201.14)"/><path class="cls-1" d="M5888,1373.67c4.37,7.51,9.16,14.34,12.36,22.52a97.37,97.37,0,0,1,5.86,25c0.25,2.24,3.67,2,3.5-.24-1.24-16.75-7.74-36.72-20.05-48.7-0.95-.92-2.28.42-1.67,1.47h0Z" transform="translate(-5501.12 -1201.14)"/><path class="cls-1" d="M5919,1459.46c1.72,7.53,3.63,15.09,3.52,22.87-0.1,7.42-2.15,14.68-5,21.5a183.59,183.59,0,0,1-9,18.06c-1.61,2.93-6.75,9.09-5.74,12.61a1.76,1.76,0,0,0,2.19,1.08l0.38-.1a1.7,1.7,0,0,0,1.15-1.73l-0.06-.29c-0.4-2.06-3.5-2-3.35.23l0,0.3,1.58-1.81-0.39.05,1.75,1.17c0.19,0.81,1.23-2,1.55-2.6,0.93-1.74,1.87-3.46,2.81-5.19,1.62-3,3.26-5.94,4.82-8.94a112.24,112.24,0,0,0,7.81-18c4.32-13.67,2.43-26.57-1.42-40.1-0.5-1.75-3-.82-2.63.89h0Z" transform="translate(-5501.12 -1201.14)"/><path class="cls-1" d="M5901.92,1533.6c-7.16-13.11-21.84-19.06-35.9-20.77-8.61-1-17.76-1.5-24.89-7.06s-12.62-14-18.57-20.89c-1.56-1.82-4.73.18-3.17,2.11,5.35,6.62,10.6,13.78,16.82,19.62,5.49,5.15,12.08,7.6,19.41,8.74,8.28,1.29,16.77,1.26,24.65,4.48s13.78,8.84,19.25,15.36a1.45,1.45,0,0,0,2.41-1.6h0Z" transform="translate(-5501.12 -1201.14)"/><path class="cls-1" d="M5827.19,1355.27c15.71,22.41,19.34,53.17,41.31,71.15,1.73,1.42,4-1.17,2.29-2.63-21.59-18.36-24.38-48.42-41.24-70.08-1.1-1.42-3.4.06-2.35,1.56h0Z" transform="translate(-5501.12 -1201.14)"/><path class="cls-1" d="M5870,1392.88l0.15-.23a1.21,1.21,0,0,0-.29-1.42,1.5,1.5,0,0,0-1.52-.55,1.28,1.28,0,0,0-1.14,1c-0.19,1.34.23,1.73,1,2.91,1.64,2.68,3.51,5.16,5,7.94a70.87,70.87,0,0,1,6.75,18.88c0.39,1.82,3.11.87,2.73-.92a69.58,69.58,0,0,0-5.44-16.14q-1.38-2.85-3-5.56c-0.31-.51-5.52-8.53-6.29-6.95-0.68,1.4,1.32,2.24,2.12,1h0Z" transform="translate(-5501.12 -1201.14)"/><path class="cls-1" d="M5909.89,1488c1.87,2-.4,8.14-1,10.41a84.42,84.42,0,0,1-3.26,10c-0.65,1.68,1.87,2.91,2.54,1.22a78.11,78.11,0,0,0,4.23-14.46c0.59-3.16,1.59-6.53-.89-9-1.15-1.16-2.73.73-1.65,1.89h0Z" transform="translate(-5501.12 -1201.14)"/><path class="cls-1" d="M5712.86,1218c-18.5,8.56-29.06,26.82-33.07,46.22-5.11,24.68,2.42,50.84-6.26,74.79-7.52,20.75-22,38-25.64,60.28-3.44,20.78.82,42.55,12.77,60a78.56,78.56,0,0,0,22.22,21.71c8.91,5.73,31.42,13.59,23,28.21-1.24,2.14,2.15,3.67,3.43,1.64,4.55-7.22,1.05-16.1-4.82-21.42-7.47-6.76-17.65-9.79-25.52-16.13a76.72,76.72,0,0,1-28.19-56.38,82.74,82.74,0,0,1,6.41-35.46c4.16-9.94,9.83-19.14,14.64-28.76s8.5-19.63,9.51-30.43c1.11-11.92-.16-23.88.1-35.81,0.56-25.48,8.49-53.27,32.85-65.67,1.58-.8.24-3.55-1.38-2.8h0Z" transform="translate(-5501.12 -1201.14)"/><path class="cls-1" d="M5710.08,1511.33c6.3-9.06,9.29-20.52,9.22-31.48,0-2.24-3.32-1.91-3.41.24-0.48,10.76-3.38,20.16-7.91,29.86-0.58,1.25,1.26,2.6,2.11,1.39h0Z" transform="translate(-5501.12 -1201.14)"/><path class="cls-1" d="M5672.39,1385.19c-6.14,2.67-7.57,10.85-8.39,16.8a59.8,59.8,0,0,0,2.13,25.24c4.92,16.47,16.49,31.12,30,41.52,1.79,1.38,4-1.15,2.32-2.67-11.11-9.81-21.28-20.41-27-34.35a60.31,60.31,0,0,1-4.65-22c-0.08-6.36.32-18.72,6.8-22.12,1.38-.72.23-3.09-1.21-2.46h0Z" transform="translate(-5501.12 -1201.14)"/><path class="cls-1" d="M5678.48,1412.16c0,10.6,6.71,21.2,15.17,27.21,1.6,1.14,3.64-1.12,2-2.34-8.59-6.51-12.61-14.66-14.68-25a1.27,1.27,0,0,0-2.53.18h0Z" transform="translate(-5501.12 -1201.14)"/><path class="cls-1" d="M5684.07,1336.54c3.8,11.7-1.72,21.94-8.19,31.42-1.17,1.72,1.24,3.9,2.49,2.16,7-9.78,13.55-22.41,8.23-34.44a1.33,1.33,0,0,0-2.52.85h0Z" transform="translate(-5501.12 -1201.14)"/><path class="cls-1" d="M5694.76,1254.62a162.37,162.37,0,0,0-5.17,25.1c-0.91,6.86-2.27,14.31.13,21a1.58,1.58,0,0,0,3-1c-2.49-7.2-.71-15.81.35-23.18s2.64-14.3,4.26-21.41c0.38-1.66-2.09-2.06-2.56-.48h0Z" transform="translate(-5501.12 -1201.14)"/><path class="cls-1" d="M5729.88,1298.62c-0.76-3.71-3.29-7.37-5.52-10.35-1.62-2.16-3.52-4-6.45-3.2-1.93.53-5.72,2.61-5.5,5.07,0.18,2.12,2.59,2.51,3.9,1.23s-0.67-3.62-2.25-2.57l-0.27.18,1.73-.12,0.9,1,0.71-.55c0.94-.16,2-1.12,3.16-0.73s2.33,2.79,2.88,3.57c1.69,2.39,2.9,5.13,4.64,7.46a1.18,1.18,0,0,0,2.09-1h0Z" transform="translate(-5501.12 -1201.14)"/><path class="cls-1" d="M5758.74,1299.15c4.11,3.38,11.22,2.83,15.6.31,1.63-.94.3-3.68-1.46-3a17.34,17.34,0,0,1-6.47,1.57c-2.31,0-4.31-.81-6.53-1.26a1.37,1.37,0,0,0-1.14,2.36h0Z" transform="translate(-5501.12 -1201.14)"/><path class="cls-1" d="M5731.53,1314.85c-2-3.69-5.21-9.31-9.68-10.42a5.68,5.68,0,0,0-4.51.77c-2.95,1.89-4.21,4.48-8.11,5.21-2.25.42-2.1,3.95,0.25,3.62a14,14,0,0,0,8.39-4.27c2.31-2.29,4.13-1.72,6.41.63a51.17,51.17,0,0,1,4.78,6.09,1.48,1.48,0,0,0,2.46-1.63h0Z" transform="translate(-5501.12 -1201.14)"/><path class="cls-1" d="M5729.52,1314.8c-2.7-.52-4,1.63-6.53,1.81-3.72.27-5.71-4.66-6.6-7.55-0.57-1.84-3.73-1.29-3.37.68,0.67,3.73,2.78,7.56,6.18,9.48a6.34,6.34,0,0,0,4.68.8c2-.48,3.41-2.53,5.49-2.44,1.62,0.07,1.69-2.48.16-2.78h0Z" transform="translate(-5501.12 -1201.14)"/><path class="cls-1" d="M5722.63,1310.33a3.09,3.09,0,0,0-2.24,3,1.46,1.46,0,0,0,2.89.17,3.75,3.75,0,0,1,.07-0.41,0.35,0.35,0,1,0,0,0q0.16-.56.11-0.31c-0.16.23,0.07,0,0,.05l0.3-.21a1.28,1.28,0,0,0,.43-1.63,1.3,1.3,0,0,0-1.55-.65h0Z" transform="translate(-5501.12 -1201.14)"/><path class="cls-1" d="M5760.36,1346.18a11.42,11.42,0,0,1-7.64,7.65c-3.09.92-6.11-.6-9.13,0.39-2.15.7-1,3.91,1.12,3.3s4.92,0.41,7.28,0a14.33,14.33,0,0,0,4.82-1.84,13.83,13.83,0,0,0,6.39-8.94c0.4-1.86-2.3-2.27-2.84-.54h0Z" transform="translate(-5501.12 -1201.14)"/><path class="cls-1" d="M5750.54,1363a29.26,29.26,0,0,1,5-2.19c1.92-.63.88-3.67-1-3a18.48,18.48,0,0,0-5.35,3,1.26,1.26,0,0,0,1.4,2.1h0Z" transform="translate(-5501.12 -1201.14)"/><path class="cls-1" d="M5810.48,1537.18c9.17,5.25,20.37,4.32,30.56,4.32,11.05,0,24.55.89,29.89,12.37,5.61,12.07-1.07,26.08-10.75,33.71-10.26,8.09-23.54,11.69-36,14.74a246.69,246.69,0,0,1-128.55-3.47c-12.47-3.74-25.81-8.11-35.85-16.73-3-2.54-6.73-5.93-8-9.74-1.59-4.7,2.39-7.67,6-9.56,7-3.71,15-6.18,22.61-8.48,16.24-4.92,32.8-7.26,49.7-8.24,2.42-.14,2.13-3.77-0.26-3.73a184.88,184.88,0,0,0-49,7.72,169.2,169.2,0,0,0-22.91,8.3c-4.57,2.09-9.85,5.28-10.48,10.78s3.84,10.29,7.44,13.85a61.62,61.62,0,0,0,17.34,11.5c14.32,6.7,30.16,10.9,45.62,13.95a250.48,250.48,0,0,0,96.92,0c24-4.76,60.73-13.52,62-44,0.55-13.4-8.45-23.34-21.33-25.79-14.58-2.77-29.45,1.08-43.83-3.74a1.26,1.26,0,0,0-1.09,2.28h0Z" transform="translate(-5501.12 -1201.14)"/><path class="cls-1" d="M5803.9,1529c21-2.29,42.81-5.37,63.45.91,17.21,5.24,33.08,19,37.09,37.07,4.4,19.85-9.92,35.77-26.47,44.26-9.15,4.7-19.17,7.5-29,10.49a212,212,0,0,0-30.07,11.61c-9.15,4.4-18.26,9.09-28.06,11.9-11.46,3.29-23.46,3.87-35.31,4-22.19.29-44.61-.2-66.44-4.51-19.46-3.84-38.49-11-54.56-22.77-14.84-10.91-31.27-28.46-31.87-48-0.82-26.61,29.19-35.64,50.23-38.57,25.65-3.57,51.38-6.6,77.06-9.89,2.4-.31,2.15-4.07-0.26-3.76-26,3.33-52,6.32-78,10-19,2.7-40.52,8.55-49.64,27.29s2.91,39.18,15.54,52.86c13.58,14.71,31.61,24.91,50.5,31.17,22.72,7.52,46.8,9.48,70.6,9.82,12.62,0.18,25.42.37,38-1.18,11.89-1.47,22.86-5.19,33.66-10.26,10.61-5,20.93-10.25,32.09-13.93s22.38-6.45,33-11.23c16.38-7.38,32.27-20.92,33.2-40.13,0.93-19.47-13.38-37-30-45.52-22.79-11.67-50.7-8.22-75-4.44-1.72.27-1.59,2.93,0.19,2.74h0Z" transform="translate(-5501.12 -1201.14)"/><path class="cls-1" d="M5927.44,1553.73c10.84,13.34,13.3,31.64,7.55,47.73-5.65,15.81-18.07,28-32.42,36.23-1.65.94,0,3.38,1.63,2.45,15.34-8.75,28.46-22.17,34-39.25,5.25-16.32,2.63-35.32-8.79-48.43-1-1.09-2.87.11-1.92,1.28h0Z" transform="translate(-5501.12 -1201.14)"/><path class="cls-1" d="M5577.78,1545.27a213.35,213.35,0,0,0-13.29,26.95c-3.59,8.62-6.81,17.8-5.87,27.28,1.65,16.56,13.41,31.74,27.22,40.33,1.6,1,3.42-1.73,1.84-2.8-13.32-8.94-25.44-23.49-25.95-40.28-0.29-9.56,3.66-18.76,7.34-27.39,3.34-7.84,7.2-15.38,11.13-22.94,0.8-1.54-1.54-2.61-2.41-1.15h0Z" transform="translate(-5501.12 -1201.14)"/><path class="cls-1" d="M5752.08,1695.06c21.27,2.63,43.31.05,63.78-6,2-.61,1-3.73-1.06-3.13-20.44,6-41,7.68-62.2,6.41-1.75-.1-2.36,2.54-0.52,2.76h0Z" transform="translate(-5501.12 -1201.14)"/><path class="cls-1" d="M5986.62,1544c9.68,32.59-.36,69.2-26.88,91-1.48,1.22.16,3.73,1.66,2.51,27-22,39.26-61.11,27.58-94.31a1.25,1.25,0,0,0-2.37.8h0Z" transform="translate(-5501.12 -1201.14)"/><path class="cls-1" d="M5522.84,1518.22c-19.64,21.33-26,53.48-18.88,81.16,0.49,1.91,3.39.92,2.9-1-7.19-27.91.31-56.16,17.89-78.52a1.27,1.27,0,0,0-1.91-1.66h0Z" transform="translate(-5501.12 -1201.14)"/></svg>