<svg id="Layer_1" data-name="Layer 1" xmlns="http://www.w3.org/2000/svg" viewBox="0 0 325.8 343.83"><defs><style>.cls-1{fill:none;stroke:#333;stroke-miterlimit:10;stroke-width:5.21px;}.cls-2{fill:#333;}</style></defs><title>sombrero</title><circle class="cls-1" cx="178.53" cy="227.53" r="113.7"/><circle class="cls-2" cx="228.17" cy="192.1" r="18.61"/><circle class="cls-2" cx="148.45" cy="218.75" r="18.61"/><path class="cls-2" d="M7176,1398.44c1-3.8,4.17-6.05,7.54-7.77,1.35-.69,9.21-4.49,10.31-3.09l-0.64-2.43-0.17.84c-0.63,3.14,4.19,4.49,4.82,1.33,1.47-7.41-8.72-4.28-12.29-3-6.19,2.28-12.54,6-14.39,12.76-0.85,3.11,4,4.43,4.82,1.33h0Z" transform="translate(-6941.49 -1136.82)"/><path class="cls-2" d="M7190.91,1392a4.36,4.36,0,0,0-3.25-.34,4.19,4.19,0,0,0-2.5,2,2.5,2.5,0,1,0,4.32,2.52,1.46,1.46,0,0,1,.12-0.22q-0.41.5-.15,0.23a1,1,0,1,0-.21.17,1.24,1.24,0,1,0-.26.1l0.24-.06a0.81,0.81,0,1,0-.29.06,1.86,1.86,0,1,0-.3,0,1,1,0,1,0-.25-0.12,2.5,2.5,0,1,0,2.52-4.32h0Z" transform="translate(-6941.49 -1136.82)"/><path class="cls-2" d="M7160.43,1379.74a30.93,30.93,0,0,0,4.27,23.83c1.75,2.69,6.08.18,4.32-2.52a25.82,25.82,0,0,1-3.77-20c0.68-3.14-4.14-4.48-4.82-1.33h0Z" transform="translate(-6941.49 -1136.82)"/><path class="cls-2" d="M7200.16,1377.88c2.67-.3,3.71,8.44,3.86,10.26,0.27,3.18,5.27,3.21,5,0-0.4-4.7-2-16-8.86-15.26-3.16.36-3.2,5.36,0,5h0Z" transform="translate(-6941.49 -1136.82)"/><path class="cls-2" d="M7123.58,1300.66c4.17,8.89,17.61,10.57,26.07,12.27a157,157,0,0,0,37.37,2.66c3.21-.13,3.22-5.13,0-5a152.54,152.54,0,0,1-32.29-1.79,142.87,142.87,0,0,1-14.86-3.39c-4.58-1.31-9.78-2.61-12-7.28-1.37-2.91-5.68-.38-4.32,2.52h0Z" transform="translate(-6941.49 -1136.82)"/><path class="cls-2" d="M7092,1319.33c-13.68-6.85-26.2,4.46-28.8,17.69-0.62,3.14,4.2,4.49,4.82,1.33,1.91-9.71,10.63-20.12,21.46-14.71,2.87,1.44,5.4-2.88,2.52-4.32h0Z" transform="translate(-6941.49 -1136.82)"/><path class="cls-2" d="M7190,1369c0.46-8.6,7.25-15.72,14.32-20,5.21-3.12,9.52-3.34,14.93-.6,3.26,1.65,6.24,3.44,9.84,4.25a28.4,28.4,0,0,0,17.53-1.71,27.89,27.89,0,0,0,7.72-5.12c3.08-2.82,5.94-6.79,10.58-6.19,3.18,0.41,3.15-4.6,0-5-8.21-1.05-12.46,7.66-18.87,11.06a23.2,23.2,0,0,1-13.83,2.43c-5.21-.69-9-3.76-13.75-5.64-15.06-6-32.72,12.17-33.48,26.46-0.17,3.22,4.83,3.21,5,0h0Z" transform="translate(-6941.49 -1136.82)"/><path class="cls-2" d="M7188.74,1367.44c-10.73-10.43-28.19-8.76-36.17,4.16-4.55,7.36-5.78,16.7-15.41,19.17-9.93,2.54-21.32,1.95-31.52,2.63-3.19.21-3.22,5.22,0,5,9.37-.63,18.89-0.85,28.22-2,6.41-.79,12-3,15.87-8.43,4.12-5.84,5.3-13.59,11-18.34,7.37-6.17,17.77-5.22,24.52,1.34,2.31,2.24,5.85-1.29,3.54-3.54h0Z" transform="translate(-6941.49 -1136.82)"/><path class="cls-2" d="M6951,1347.54c4.61,1.28,214.1-88.31,290.18-99.24,0,0,13.67-15.49-11.39-20l-62.93,20s-48.75-99-61.22-111.47c0,0-113.64,27.65-151.45,70.47l58.76,91.44-69.7,30S6936,1343.37,6951,1347.54Z" transform="translate(-6941.49 -1136.82)"/></svg>