<svg id="Layer_1" data-name="Layer 1" xmlns="http://www.w3.org/2000/svg" viewBox="0 0 219.05 219.05"><defs><style>.cls-1{fill:#333;}.cls-2,.cls-3{fill:none;stroke:#333;stroke-miterlimit:10;}.cls-2{stroke-width:5.24px;}.cls-3{stroke-width:8.39px;}</style></defs><title>trompa</title><path class="cls-1" d="M3750.18,878.7c2.87-8.93,13.34-12,21.63-9.23,8.49,2.82,16.14,10.66,19.85,18.69,2.21,4.78,2.47,9.7-.21,14.34-1.91,3.31-4.73,6-6.66,9.29-4.12,7-2.62,14.82-.83,22.31,2.28,9.53,4.2,19.61,3.58,29.46-0.72,11.37-8.18,16.47-18.91,17.14-9,.57-19.45.51-23.06-9.44-2.93-8.09-2.51-17.71-2.66-26.19-0.2-11.25.2-22.5,0.68-33.74,0.5-11.64.75-22.88,6.84-33.19a1.57,1.57,0,0,0-2.72-1.59c-5.87,9.92-6.65,20.53-7.14,31.8-0.6,13.55-1.13,27.12-.71,40.68,0.28,8.88-.26,20.47,5.22,28.12,5.17,7.22,14.8,7.14,22.83,6.74,8.32-.42,17.1-2.85,20.79-11.09,4.17-9.32,1.89-21.67.11-31.33-1.13-6.14-3.38-12.27-3.57-18.54-0.21-7.11,3.52-11.13,7.36-16.47,5.65-7.86,4.6-16.21-.6-24.07-5.52-8.33-14.42-16.25-24.81-17.07-8.65-.68-17.32,4.14-20,12.56-0.62,1.93,2.42,2.76,3,.84h0Z" transform="translate(-3580.22 -786.06)"/><path class="cls-1" d="M3754.31,893.53c3.17-7.22,10-20.58,20.12-15.3,9.1,4.74,8.17,18,3.78,25.48-3.6,6.09-6.57,10.84-5.29,18.2,1.61,9.28,4.45,17.27,3.26,26.92-0.84,6.8-3.72,19-12.42,19.56-11.53.76-11.23-16.24-11.44-23.76a229.56,229.56,0,0,1,.51-26.63c0.75-8.42,1.71-16.79,1.7-25.25a1.57,1.57,0,0,0-3.15,0c0,9.06-1.11,18-1.85,27a235.86,235.86,0,0,0-.22,28.84c0.29,7.07.72,15.14,6.55,20a11.19,11.19,0,0,0,13.84.76c11.81-8.07,11.33-28.18,8.26-40.29-1.32-5.2-3.33-10.55-1.55-15.9,1.38-4.15,4.63-7.48,6.36-11.47a23.06,23.06,0,0,0-.46-19.32c-3-5.86-8.64-9.56-15.26-7.88-8.33,2.1-12.31,10.17-15.47,17.38-0.81,1.84,1.9,3.44,2.72,1.59h0Z" transform="translate(-3580.22 -786.06)"/><path class="cls-1" d="M3753.19,902.1c6.93-2.16,17.83-3.12,24.37.62a1.6,1.6,0,0,0,1.91-.25l0.22-.25a1.61,1.61,0,0,0,.25-1.91l-0.15-.22c-1.13-1.67-3.85-.1-2.72,1.59l0.15,0.22,0.25-1.91-0.22.25,1.91-.25c-7.42-4.25-18.85-3.41-26.8-.93-1.93.6-1.1,3.64,0.84,3h0Z" transform="translate(-3580.22 -786.06)"/><path class="cls-1" d="M3772.46,890.22l-1.3,7.76c-0.33,2,2.7,2.83,3,.84l1.3-7.76c0.33-2-2.7-2.83-3-.84h0Z" transform="translate(-3580.22 -786.06)"/><path class="cls-1" d="M3762.21,888.59l-0.77,7.68c-0.2,2,2.95,2,3.15,0l0.77-7.68c0.2-2-2.95-2-3.15,0h0Z" transform="translate(-3580.22 -786.06)"/><path class="cls-1" d="M3752.43,892.08a17.65,17.65,0,0,0,.62,7.43c0.58,1.93,3.62,1.11,3-.84a15.47,15.47,0,0,1-.51-6.59c0.26-2-2.88-2-3.15,0h0Z" transform="translate(-3580.22 -786.06)"/><path class="cls-1" d="M3751.86,955.43c7.64,0.46,19.21,1.07,25.68-3.8l-1.91-2.47-0.77.88c-1.33,1.51.88,3.75,2.22,2.22l0.77-.88c1.1-1.25-.39-3.61-1.91-2.47-6,4.54-16.89,3.81-24.09,3.37-2-.12-2,3,0,3.15h0Z" transform="translate(-3580.22 -786.06)"/><path class="cls-1" d="M3756.38,956.43l2.54,11.67a1.59,1.59,0,0,0,2.63.69,2.28,2.28,0,0,0,.88-1.47c0.45-2-2.58-2.81-3-.84l-0.07.08,2.63,0.69-2.54-11.67c-0.43-2-3.46-1.14-3,.84h0Z" transform="translate(-3580.22 -786.06)"/><path class="cls-1" d="M3765.18,956.4c0.44,1.89.75,3.88,1.36,5.72,0.45,1.37,1.64,2.56,3.17,2.06,1.91-.63,1.09-3.67-0.84-3q1.07,0.69.65,0l-0.12-.51c-0.16-.58-0.28-1.18-0.41-1.77l-0.77-3.28c-0.46-2-3.5-1.14-3,.84h0Z" transform="translate(-3580.22 -786.06)"/><path class="cls-1" d="M3770.71,952.89a15.84,15.84,0,0,0,2,7.84c1,1.77,3.71.18,2.72-1.59a12.51,12.51,0,0,1-1.62-6.25,1.57,1.57,0,0,0-3.15,0h0Z" transform="translate(-3580.22 -786.06)"/><path class="cls-1" d="M3755.56,869.2l0.16,0.14a1.63,1.63,0,0,0,2.22,0,1.65,1.65,0,0,0,.69-1.62,1.63,1.63,0,0,0-1.57-1.57c-2.9-.28-5.7,3.37-8.13,4.73a54.05,54.05,0,0,1-14.57,5.42c-10.85,2.45-22.09,2.09-33.14,1.78a1.61,1.61,0,0,0-1.52,1.15l-0.56,1.52c-0.7,1.9,2.34,2.73,3,.84l0.56-1.52-1.52,1.15c10.51,0.29,21.11.56,31.49-1.38a61.78,61.78,0,0,0,12.52-3.68,50.73,50.73,0,0,0,6-3c0.89-.52,4.7-4,5.81-3.89l-1.57-1.57,0.23-.6h2.22l-0.16-.14c-1.49-1.37-3.72.85-2.22,2.22h0Z" transform="translate(-3580.22 -786.06)"/><path class="cls-1" d="M3753.82,980.56c-2.7-3-6.83-4.44-10.4-6.17-4.52-2.19-9.07-4.32-13.7-6.27a110.28,110.28,0,0,0-29.19-8.2,1.58,1.58,0,0,0-1.52,1.15,4.26,4.26,0,0,0,0,3,1.57,1.57,0,0,0,3-.84v-1.35l-1.52,1.15a104.54,104.54,0,0,1,26.67,7.39c4.4,1.8,8.71,3.8,13,5.86,3.74,1.8,8.58,3.32,11.41,6.48,1.35,1.51,3.57-.72,2.22-2.22h0Z" transform="translate(-3580.22 -786.06)"/><path class="cls-2" d="M3751.93,980.61" transform="translate(-3580.22 -786.06)"/><path class="cls-3" d="M3751.93,980.61a105.13,105.13,0,1,1,34.85-44" transform="translate(-3580.22 -786.06)"/><circle class="cls-1" cx="54.52" cy="72.35" r="13.02"/><circle class="cls-1" cx="152.48" cy="55.25" r="13.99"/></svg>