<svg id="Layer_1" data-name="Layer 1" xmlns="http://www.w3.org/2000/svg" viewBox="0 0 367.91 240.49"><defs><style>.cls-1,.cls-3{fill:none;stroke:#333;stroke-miterlimit:10;}.cls-1{stroke-width:8px;}.cls-2{fill:#333;}.cls-3{stroke-linecap:round;stroke-width:4px;}</style></defs><title>nipedo</title><circle class="cls-1" cx="180.85" cy="120.24" r="116.24"/><path class="cls-2" d="M3498.85,532.87a21.38,21.38,0,0,0-21.23,18.88h42.45A21.38,21.38,0,0,0,3498.85,532.87Z" transform="translate(-3365.38 -460.59)"/><path class="cls-2" d="M3595.61,532.87a21.38,21.38,0,0,0-21.23,18.88h42.45A21.38,21.38,0,0,0,3595.61,532.87Z" transform="translate(-3365.38 -460.59)"/><line class="cls-3" x1="124.85" y1="120.24" x2="236.85" y2="120.24"/><path class="cls-2" d="M3643.49,656.8a368.43,368.43,0,0,1,50.72-40.35c4.81-3.18.31-11-4.54-7.77a381.85,381.85,0,0,0-52.55,41.76c-4.21,4,2.16,10.35,6.36,6.36h0Z" transform="translate(-3365.38 -460.59)"/><path class="cls-2" d="M3697.18,611.59c6.83-1.92,14.05-1.06,19.86,3.22a22.23,22.23,0,0,1,3.62,3.39c1,1.19,1.7,3.08,2.79,4.09l0.69,1.37q1.58-1.18.24-.31c-0.82.71-3.17,2.1-4.17,1.29-3.66-3-10.12.86-7.07,5.45,1.46,2.2-.65,3.6-1.91,1.22a4.54,4.54,0,0,0-7.07-.91c-0.09.09-1.93-3.46-1.91-3.42-1.38-2.87-5-2.56-7.07-.91l-0.69.55,3.18-1.32c-1.25,0-4-4.83-4.66-5.9a29.71,29.71,0,0,1-3-7.33c-1.55-5.57-10.24-3.21-8.68,2.39,2,7.06,10.67,25.6,20.23,18l-7.07-.91c2.95,6.13,10.14,11.38,16,5.24l-7.07-.91c6.68,12.63,25.39,1.64,17.45-10.3l-7.07,5.45c5,4,10.55,3.15,15.68-.25,5.94-3.93,3.86-9.86.51-15a31.56,31.56,0,0,0-35.25-12.88c-5.57,1.56-3.2,10.25,2.39,8.68h0Z" transform="translate(-3365.38 -460.59)"/><path class="cls-2" d="M3399.39,622.54a169.43,169.43,0,0,1,27.8,12.32c8.88,4.9,15.51,12,22.11,19.56,3.82,4.37,10.16-2,6.36-6.36-7.1-8.12-14.4-15.7-23.93-21a182.55,182.55,0,0,0-29.95-13.22c-5.51-1.84-7.87,6.85-2.39,8.68h0Z" transform="translate(-3365.38 -460.59)"/><path class="cls-2" d="M3399.45,622.12c2.66,4.18-3.71,7.5-6.66,8.91-1.92.91-3.89,1.72-5.74,2.78a9.2,9.2,0,0,0-2.61,1.68c-0.83,1.13.81-.39,1.11-1.43,1.59-5.59-7-7.91-8.68-2.39l-0.24.79,2.07-2.69q2.5,0.33,1.11-1.38a6.94,6.94,0,0,0-1.26-1.95,10.53,10.53,0,0,0-2.18-2.27q-1.76-2.45-4.38.23a4.59,4.59,0,0,0,5.54-3.14,6.75,6.75,0,0,0,.31-3.57q0.11-2.23-.59-0.68-1.18,1.56,1.07-.33c3.26-1.49,5.92-3.41,9.65-3.67,6-.42,11.4,4.71,10.48,10.94-0.84,5.67,7.83,8.11,8.68,2.39,1.5-10.16-4.56-20.46-15.17-22.15-5.81-.92-11.63,1-16.66,3.81-2,1.14-4.76,2.55-5.9,4.73s0,4.21-.54,6.13l5.54-3.14c-3.62-.78-7,0.58-8.47,4.19-1.92,4.81,1.75,8,4.69,11.15,2.52,2.69,3,6.55,7.13,7.51a6.38,6.38,0,0,0,7.82-4.51l-8.68-2.39c-1.26,4.45-1.38,10,3.27,12.59,5.19,2.9,9.88-2,14.29-4.11,4.81-2.28,9.6-4.39,12.49-9.12,2.56-4.2,3-9.21.3-13.44-3.1-4.87-10.9-.36-7.77,4.54h0Z" transform="translate(-3365.38 -460.59)"/></svg>