<svg id="Layer_1" data-name="Layer 1" xmlns="http://www.w3.org/2000/svg" viewBox="0 0 874.78 292.6"><defs><style>.cls-1,.cls-3,.cls-4,.cls-5,.cls-6,.cls-7,.cls-8,.cls-9{fill:none;}.cls-1,.cls-3,.cls-6,.cls-7,.cls-8,.cls-9{stroke:#333;}.cls-1,.cls-5,.cls-6{stroke-linecap:round;stroke-linejoin:round;}.cls-1{stroke-width:1.06px;}.cls-2{fill:#333;}.cls-3,.cls-4,.cls-7,.cls-8,.cls-9{stroke-miterlimit:10;}.cls-3{stroke-width:1.88px;}.cls-4{stroke:#000;stroke-width:0.94px;}.cls-5{stroke:#575b58;}.cls-5,.cls-6{stroke-width:0.94px;}.cls-7{stroke-width:2.02px;}.cls-8{stroke-width:1.01px;}.cls-9{stroke-width:0.45px;}</style></defs><title>partidos_jugados</title><polyline class="cls-1" points="185.45 232.21 200.55 223.49 190.58 231.01 198.87 226.23"/><polyline class="cls-1" points="179.24 201.15 193.33 193.01 185.33 200.25 195.09 194.61 187.3 201.15 196.19 196.01 188.57 202.98 197.38 197.9 189.15 204.72 198.11 199.55 189.64 206.85 198.81 201.55 189.97 208.46 199.24 203.11 190.36 210.35 199.68 204.97 190.69 211.95 200.01 206.57 191.01 213.54 200.33 208.16 191.42 215.75 200.78 210.34 191.58 217.65 201.15 212.13 191.17 219.75 201.4 213.85"/><polyline class="cls-1" points="166.41 194.57 167.18 194.13 166.85 196.71 173.61 192.81 167.21 198.46 178.87 191.73 167.64 200.57 184.52 190.82 168.08 202.72 188.35 191.02 168.42 204.38 190.56 191.6 168.72 205.83 192.09 192.34 169.07 207.5 178.39 202.12 169.55 209.86 178.88 204.47 169.98 211.95 179.31 206.56 170.44 214.18 179.77 208.79 170.81 216.01 180.15 210.61 171.27 218.26 180.62 212.86 171.75 220.58 181.1 215.18 172.18 222.71 181.54 217.3 172.57 224.61 181.94 219.2 173.06 226.96 182.43 221.55 173.43 228.77 183.13 223.17 173.91 231.13 201.59 215.15 174.38 233.4 201.69 217.63 174.78 235.35 201.57 219.89 175.26 237.72 200.78 222.99 175.65 239.6 184.97 234.21 176.14 241.97 185.47 236.58 176.54 243.97 185.88 238.58 177.03 246.32 186.37 240.92 177.45 248.39 186.8 243 177.83 250.23 187.18 244.83 178.25 252.29 187.6 246.89 178.66 254.27 188.02 248.87 178.98 255.85 188.34 250.45 179.45 258.11 188.81 252.71 183.52 257.8 189.19 254.53 188.77 256.69 189.55 256.24"/><polyline class="cls-1" points="220.09 238.47 239.46 227.29 224.56 237.66 239.97 228.76 229.88 236.69 240.58 230.52 232.11 237.1 241.07 231.93 232.61 238.56 241.58 233.38 233.14 240.13 242.12 234.95 233.7 241.78 242.69 236.59 234.38 243.76 243.38 238.56 234.95 245.44 243.97 240.24 235.61 247.38 244.63 242.16 240.49 246.95 245.33 244.15 245.18 246.09 245.86 245.7"/><polyline class="cls-1" points="218.34 196.21 226.91 191.25 219.08 198.4 227.68 193.44 219.65 200.1 228.26 195.13 220.37 202.26 229.01 197.27 220.96 203.99 229.61 199 221.63 206.01 230.31 201 222.14 207.52 230.83 202.5 222.74 209.29 231.44 204.27 223.24 210.79 231.96 205.75 223.75 212.28 232.48 207.24 224.43 214.32 233.19 209.27 225 216 233.76 210.93 225.52 217.56 234.31 212.49 226.15 219.44 234.96 214.36 226.82 221.43 235.64 216.33 227.56 223.63 236.41 218.52 228.13 225.31 236.99 220.19 228.8 227.31 237.68 222.19"/><polyline class="cls-1" points="209.33 186.1 210.1 185.66 209.37 188.47 216.13 184.57 209.4 190.41 221.05 183.68 209.44 192.74 224.43 184.09 209.48 195.13 225.13 186.09 209.51 196.96 225.67 187.63 209.53 198.58 226.15 188.99 209.56 200.43 226.69 190.54 209.61 203.04 218.23 198.06 209.65 205.35 218.29 200.36 209.69 207.82 218.36 202.81 209.72 209.85 218.42 204.83 209.76 212.34 218.49 207.3 209.8 214.91 218.56 209.85 209.84 217.27 218.63 212.19 209.88 219.38 218.69 214.29 209.92 221.98 218.76 216.87 209.95 223.99 218.82 218.87 210 226.6 218.9 221.46 210.04 229.11 218.97 223.96 210.07 231.28 219.03 226.11 210.12 233.9 219.1 228.71 210.15 235.98 222.03 229.13 210.19 238.61 228.71 227.92 210.23 240.82 238.49 224.51 210.27 243.43 239.25 226.7 210.31 245.73 219.38 240.49 210.34 247.76 219.44 242.51 210.38 250.04 219.51 244.77 210.42 252.24 219.58 246.95 214.73 251.51 219.63 248.69 218.91 250.75 219.68 250.3"/><polyline class="cls-1" points="257.26 217.26 269.55 210.16 261.25 216.73 271.38 210.88 264.2 217.13 273.12 211.98 265.59 218.03 274.27 213.01 266.53 219.22 275.24 214.2 267.2 220.72 276.05 215.61 267.71 222.4 276.78 217.16 268.13 224.52 277.42 219.16 268.41 226.38 277.83 220.94 268.72 228.51 278.23 223.02 269.05 230.71 278.56 225.22 269.31 232.51 278.82 227.02 269.63 234.62 279.14 229.13 269.91 236.36 279.39 230.89 270.33 238.49 279.72 233.06 270.83 240.24 280.03 234.92 271.79 242.16 280.54 237.11 275.72 241.57 280.96 238.54 280.71 240.81 281.81 240.18"/><polyline class="cls-1" points="253.07 187.95 267.39 179.68 258.75 187.29 269.28 181.22 260.97 188.05 270.43 182.58 262.37 189.81 271.59 184.48 263.02 191.5 272.23 186.19 263.48 193.65 272.84 188.24 263.73 195.31 273.18 189.85 264.01 197.26 273.53 191.77 264.26 198.9 273.77 193.41 264.43 200.58 274.01 195.05 264.37 203.06 274.25 197.36 263.23 205.66 274.39 199.21"/><polyline class="cls-1" points="240.78 180.66 241.45 180.27 241.1 182.86 247.02 179.45 241.37 184.67 251.57 178.78 241.69 186.84 256.93 178.04 242.01 189.05 261.33 177.9 242.27 190.76 263.91 178.26 242.49 192.26 265.82 178.79 242.74 193.99 252.25 188.5 243.1 196.41 252.62 190.92 243.42 198.57 252.94 193.07 243.76 200.86 253.29 195.36 244.04 202.75 253.57 197.24 244.38 205.07 253.92 199.56 244.73 207.46 254.28 201.94 245.06 209.65 254.61 204.14 245.34 211.62 254.91 206.1 245.7 214.03 256.15 208 245.98 215.9 262.16 206.56 246.34 218.33 274.18 202.26 246.68 220.67 273.34 205.28 246.98 222.69 270.39 209.17 247.34 225.12 256.85 219.63 247.63 227.06 257.14 221.56 247.99 229.51 257.51 224.01 248.29 231.56 257.82 226.06 248.65 233.99 258.18 228.48 248.96 236.13 258.5 230.62 249.24 238.02 258.79 232.51 249.56 240.14 259.1 234.63 249.86 242.19 259.41 236.67 250.1 243.81 259.65 238.29 252.36 245.04 260 240.62 257.18 244.3 260.28 242.5"/><polyline class="cls-1" points="299.09 181.84 308.64 176.33 304.87 181.13 308.94 178.78 308.49 180.68 309.13 180.31"/><polyline class="cls-1" points="276.41 175.43 277.05 175.06 276.68 177.67 282.3 174.43 276.9 179.5 286.59 173.91 277.17 181.7 291.75 173.28 277.44 183.95 297.02 172.64 280.43 184.08 301.09 172.15 284.01 183.64 304.67 171.72 288.13 183.13 308.06 171.63 288.48 185.56 308.36 174.08 288.75 187.75 298.44 182.15 289.03 190.08 298.73 184.48 289.26 191.99 298.96 186.39 289.54 194.35 299.24 188.75 289.83 196.77 299.53 191.17 290.1 198.99 299.8 193.39 290.34 200.99 300.04 195.38 290.64 203.44 300.34 197.84 290.87 205.33 300.57 199.73 291.17 207.8 300.87 202.2 291.45 210.17 301.15 204.57 291.7 212.22 301.4 206.62 292 214.69 301.7 209.09 292.24 216.65 301.94 211.05 292.54 219.13 302.24 213.53 292.79 221.22 302.49 215.62 293.09 223.68 302.79 218.08 293.35 225.85 303.05 220.25 293.58 227.77 303.28 222.17 293.84 229.92 303.54 224.32 294.09 232 303.79 226.4 294.29 233.65 303.99 228.04 294.58 236.01 304.28 230.41 294.81 237.92 304.51 232.32 298.08 238.72 304.81 234.83 302.12 238.22 305.02 236.54"/><polyline class="cls-1" points="313.56 171.12 314.17 170.77 313.78 173.39 319.23 170.24 313.97 175.23 323.36 169.81 314.19 177.46 323.95 171.83 314.42 179.73 324.18 174.1 314.6 181.49 324.36 175.85 314.75 183.03 324.51 177.39 314.93 184.79 324.69 179.16 315.18 187.28 324.94 181.65 315.4 189.49 325.17 183.86 315.64 191.85 325.41 186.21 315.84 193.78 325.6 188.14 316.08 196.16 325.84 190.52 316.32 198.61 326.09 192.97 316.55 200.86 326.32 195.22 316.75 202.87 326.52 197.23 317 205.35 326.77 199.71 317.2 207.27 326.97 201.63 317.45 209.76 327.22 204.12 317.69 212.16 327.46 206.52 317.9 214.23 327.67 208.59 318.15 216.72 327.92 211.08 318.35 218.71 328.12 213.07 318.6 221.22 328.38 215.58 318.81 223.33 328.59 217.69 319.06 225.81 328.84 220.17 319.29 228.01 329.06 222.36 319.48 229.95 329.26 224.3 319.7 232.12 329.48 226.48 319.91 234.22 329.69 228.58 320.08 235.89 329.86 230.24 324.73 235.74 330.11 232.63 329.04 235.29 330.3 234.56"/><polyline class="cls-1" points="344.05 177.35 358.08 169.25 349.33 176.93 360.13 170.69 352.1 177.36 361.37 172.01 353.81 178.94 362.68 173.82 354.54 180.59 363.51 175.41 354.94 182.77 364.2 177.43 355.08 184.49 364.65 178.97 355.25 186.52 364.94 180.92 355.38 188.22 365.17 182.57 355.52 189.93 365.31 184.27 355.7 192.26 365.5 186.6 355.85 194.17 365.65 188.52 355.99 195.96 365.79 190.3 356.16 198.1 365.96 192.45 356.34 200.37 366.14 194.72 356.54 202.88 366.34 197.23 356.7 204.81 366.49 199.15 356.88 207.09 366.67 201.44 357.06 209.37 366.85 203.72 357.25 211.8 367.04 206.14 357.39 213.63 367.19 207.98 357.55 215.53 367.34 209.88 357.66 217.47 367.49 211.79 357.51 219.9 367.67 214.03 356.6 222.14 367.8 215.68"/><polyline class="cls-1" points="332.4 169.25 332.99 168.9 332.58 171.53 337.8 168.52 332.73 173.41 341.72 168.21 332.9 175.66 346.45 167.84 333.09 177.96 350.94 167.65 333.23 179.73 353.72 167.9 333.35 181.29 355.79 168.34 333.49 183.08 357.7 169.1 333.69 185.59 343.49 179.94 333.87 187.83 343.67 182.18 334.06 190.21 343.86 184.55 334.21 192.17 344.02 186.51 334.4 194.58 344.21 188.92 334.6 197.06 344.41 191.39 334.78 199.33 344.6 193.67 334.94 201.37 344.76 195.7 335.14 203.88 344.96 198.21 335.3 205.82 345.12 200.15 335.5 208.34 345.32 202.67 335.69 210.77 345.52 205.09 335.85 212.86 345.69 207.19 336.06 215.39 345.89 209.71 336.21 217.4 346.05 211.72 336.42 219.94 346.25 214.25 336.58 222.07 346.43 216.39 336.78 224.59 346.63 218.9 336.96 226.81 346.81 221.12 337.12 228.77 346.97 223.08 337.29 230.97 349.1 224.15 337.46 233.09 353.73 223.7 338.31 234.37 367.83 217.32 343.43 233.94 367.8 219.87 347.56 233.6 367.5 222.09 352.99 233.15 366.53 225.33 357.19 232.56 364.83 228.15"/><polyline class="cls-1" points="386.03 173.9 397.42 167.33 390.05 174.2 399.17 168.94 391.5 175.4 400.3 170.32 392.49 177.4 401.34 172.29 392.84 179.27 402.02 173.97 393.01 181.58 402.61 176.04 393.1 183.33 402.87 177.69 393.21 185.39 403.11 179.67 393.29 187.12 403.23 181.38 393.38 188.85 403.31 183.12 393.5 191.22 403.43 185.49 393.6 193.17 403.53 187.43 393.69 194.98 403.62 189.24 393.8 197.16 403.73 191.43 393.91 199.47 403.85 193.73 394.04 202.02 403.98 196.29 394.14 203.97 404.07 198.24 394.25 206.3 404.19 200.56 394.37 208.62 404.31 202.88 394.49 211.08 404.43 205.34 394.59 212.94 404.52 207.21 394.69 214.88 404.62 209.14 394.67 216.89 404.72 211.09 394.05 219.59 404.83 213.37"/><polyline class="cls-1" points="376.61 168.19 381.17 165.56 373.51 172.37 387.19 164.47 372.59 174.86 390.4 164.58 372.12 177.49 393.39 165.2 371.99 179.97 395.78 166.23 371.97 181.84 383.8 175 372.05 183.42 382.42 177.43 372.14 185.24 382.15 179.45 372.26 187.79 382.2 182.06 372.38 190.07 382.31 184.33 372.5 192.49 382.44 186.75 372.6 194.48 382.54 188.74 372.72 196.93 382.66 191.19 372.85 199.45 382.78 193.71 372.96 201.76 382.9 196.02 373.07 203.83 383 198.09 373.2 206.38 383.13 200.64 373.29 208.35 383.23 202.61 373.42 210.91 383.36 205.18 373.55 213.38 383.48 207.64 373.65 215.51 383.59 209.77 373.93 217.99 383.72 212.34 374.22 219.92 383.82 214.38 374.88 222.2 384.02 216.92 375.65 223.99 384.46 218.9 376.79 225.96 385.57 220.89 378.09 227.53 387.63 222.02 379.56 228.74 391.31 221.95 381.49 229.92 404.84 216.44 383.77 230.83 404.67 218.76 386.01 231.3 404.31 220.73 390.05 231.5 403.21 223.9 395.24 230.54 400.55 227.48"/><polyline class="cls-1" points="409.93 210.38 410.48 210.06 409.98 212.12 413.68 209.98 410.05 214.19 417.5 209.89 410.19 215.81 419.67 210.34 410.34 217.46 419.7 212.05 410.69 219.14 419.75 213.91 411.12 220.86 419.89 215.8 411.94 222.76 420.38 217.89 412.77 224.3 421.27 219.39 413.99 225.91 423.26 220.55 415.62 227.35 428.04 220.18 417.21 228.39 440.71 214.81 419.46 229.38 440.61 217.18 421.79 229.94 440.18 219.32 425.4 230.22 439.23 222.24 429.68 229.78 437.4 225.33"/><polyline class="cls-1" points="423.54 172.56 434.65 166.15 427.5 172.9 436.33 167.8 428.93 174.1 437.39 169.22 429.85 176.14 438.36 171.23 430.14 178.05 438.98 172.94 430.25 180.4 439.5 175.06 431.48 181.48 439.71 176.73 435.32 181.39 439.89 178.75 438.55 181.31 439.98 180.48"/><polyline class="cls-1" points="414.3 166.57 418.6 164.09 411.23 170.74 424.5 163.08 410.31 173.22 427.58 163.25 409.79 175.88 430.52 163.91 409.63 178.37 432.89 164.95 409.6 180.25 434.39 165.93 409.76 181.79 420.22 175.75 409.94 183.56 419.88 177.81 410.53 185.84 420 180.38 411.2 187.8 420.43 182.47 412.1 189.77 421.23 184.5 413.03 191.28 422.13 186.02 414.28 193.07 423.46 187.77 415.73 194.83 425.02 189.47 417.21 196.35 426.55 190.96 418.59 197.69 427.99 192.26 420.36 199.29 429.79 193.85 421.75 200.51 431.16 195.08 423.54 202.12 432.9 196.72 425.19 203.7 434.49 198.34 426.54 205.12 435.72 199.81 427.99 206.92 437.08 201.67 428.92 208.49 438.07 203.21 429.83 210.61 439.04 205.29 430.3 212.58 439.73 207.13 430.48 215.1 440.34 209.41 430.05 217.67 440.6 211.58"/><polyline class="cls-1" points="458.37 220.13 458.86 219.85 458.35 222.77 463.35 219.88 458.33 224.81 478.24 213.32 458.3 227.4 478.05 215.99 458.74 229.22 477.69 218.28 462.61 229.39 476.88 221.15 465.94 229.27 475.66 223.66"/><polyline class="cls-1" points="468.63 163.91 469.15 163.61 468.6 166.32 473.23 163.65 468.57 168.29 476.56 163.68 468.54 170.67 478.89 164.69 468.51 173.09 478.86 167.12 468.48 174.96 478.83 168.98 468.46 176.6 478.81 170.63 468.44 178.49 478.79 172.51 468.4 181.14 478.75 175.16 468.37 183.5 478.72 177.52 468.34 186.01 478.69 180.03 468.31 188.07 478.66 182.09 468.28 190.61 478.63 184.63 468.24 193.22 478.59 187.24 468.21 195.62 478.56 189.64 468.18 197.76 478.53 191.79 468.15 200.41 478.5 194.43 468.12 202.45 478.47 196.47 468.09 205.11 478.44 199.13 468.05 207.66 478.4 201.69 468.02 209.87 478.37 203.9 467.99 212.53 478.34 206.56 467.87 214.71 478.31 208.68 466.83 217.96 478.28 211.35"/><polyline class="cls-1" points="507.74 164.96 508.25 164.66 507.64 167.64 512.54 164.81 507.56 169.72 515.86 164.93 507.47 172.35 517.42 166.6 507.39 174.46 517.34 168.71 507.3 176.93 517.25 171.18 507.23 178.77 517.18 173.02 507.15 180.94 517.1 175.19 507.08 182.75 517.03 177.01 507.01 184.58 516.96 178.83 506.92 187.07 516.87 181.33 506.84 189.12 516.79 183.37 506.77 191.02 516.72 185.28 506.68 193.32 516.63 187.57 506.59 195.74 516.54 190 506.49 198.43 516.44 192.69 506.42 200.48 516.36 194.74 506.33 202.93 516.26 197.19 506.24 205.36 516.17 199.62 506.14 207.95 516.08 202.22 506.07 209.91 516 204.18 505.99 211.94 515.92 206.21 505.91 213.99 515.85 208.26 505.73 216.44 515.75 210.66 505.27 218.42 515.69 212.41"/><polyline class="cls-1" points="486.75 164.17 487.26 163.87 486.66 166.61 491.17 164.01 486.58 168.61 494.37 164.12 486.49 171.02 497 164.95 486.4 173.48 496.9 167.41 486.32 175.38 496.83 169.31 486.26 177.04 496.77 170.97 486.19 178.95 496.7 172.89 486.09 181.65 496.6 175.58 486 184.04 496.5 177.97 485.9 186.58 496.41 180.52 485.82 188.68 496.33 182.61 485.72 191.25 496.23 185.18 485.62 193.9 496.13 187.83 485.53 196.34 496.04 190.27 485.45 198.51 495.96 192.45 485.35 201.19 495.86 195.13 485.27 203.27 495.78 197.2 485.17 205.97 495.67 199.9 485.07 208.56 495.58 202.49 484.98 210.8 495.49 204.73 484.88 213.5 495.39 207.43 484.92 215.58 495.31 209.58 485.08 218.14 495.2 212.29 485.45 220.16 495.12 214.58 486.16 222.38 495.23 217.14 486.99 224.22 495.88 219.09 487.98 225.7 497.04 220.47 489.39 227.19 499.42 221.4 491.02 228.47 515.62 214.27 492.58 229.34 515.48 216.12 495.33 230.28 515.18 218.82 498.07 230.74 514.54 221.23 502.62 230.79 512.98 224.81"/><polyline class="cls-1" points="539.52 195.91 540.02 195.62 539.4 197.75 542.77 195.81 539.26 199.94 546.05 196.02 539.15 201.71 548.69 196.2 539.03 203.51 551.39 196.38 539.74 204.98 553.93 196.79 542.83 205.17 553.79 198.85 543.46 207.18 553.62 201.32 543.33 209.27 553.48 203.41 543.17 211.68 553.31 205.82 543 214.16 553.14 208.31 542.87 216.19 553 210.34 542.6 218.64 552.84 212.73 541.92 220.94 552.7 214.71"/><polyline class="cls-1" points="538.47 175.19 549.64 168.74 542.36 175.56 551.36 170.37 543.96 176.68 552.41 171.79 544.94 178.68 553.5 173.74 545.2 180.6 554.1 175.46 545.14 183.05 554.57 177.6 545.01 184.92 554.83 179.25 544.86 187.13 554.86 181.36 544.78 188.95 554.86 183.14 547.56 189.13 554.75 184.99 551.36 189.38 554.58 187.52 553.97 189.55 554.47 189.27"/><polyline class="cls-1" points="529.36 168.91 533.25 166.66 526.2 173.12 538.97 165.75 525.22 175.65 542.03 165.94 524.56 178.38 545.05 166.55 524.21 180.99 547.58 167.5 524.06 182.93 549.15 168.44 523.95 184.63 535.13 178.17 523.81 186.57 534.6 180.34 523.63 189.31 534.34 183.13 523.46 191.75 534.18 185.56 523.28 194.34 534 188.15 523.14 196.47 533.85 190.28 522.96 199.09 533.67 192.91 522.77 201.79 533.49 195.61 522.6 204.27 533.32 198.08 522.45 206.49 533.17 200.3 522.26 209.22 532.98 203.03 522.12 211.33 532.84 205.14 521.93 214.08 532.65 207.89 521.85 216.66 532.47 210.53 521.84 218.86 532.31 212.81 522.2 221.29 532.13 215.56 522.64 223.14 532.07 217.7 523.44 225.33 532.4 220.16 524.47 226.97 533.36 221.84 525.98 228.73 535.64 223.15 527.63 230.1 552.64 215.66 529.38 231.14 552.46 217.82 531.86 232.01 552.12 220.31 534.75 232.56 551.47 222.91 537.5 232.74 550.61 225.17 543.46 231.83 547.35 229.58"/><polyline class="cls-1" points="567.63 222.61 589.2 210.15 570.25 222.86 589.3 211.86 573.39 223.16 589.43 213.9 575.91 223.4 589.53 215.54 578.49 223.65 589.63 217.22 579.9 224.72 589.74 219.04 580 226.64 589.85 220.95 580.12 228.94 589.99 223.24 580.23 230.89 590.11 225.19 580.35 233.13 590.24 227.42 580.47 235.45 590.38 229.73 582.74 236.09 590.5 231.61 586.15 236.42 590.63 233.83 588.98 236.69 590.74 235.67"/><polyline class="cls-1" points="577.73 181.54 587.15 176.1 577.85 184.09 587.3 178.63 577.95 186.06 587.42 180.6 578.08 188.56 587.57 183.08 578.18 190.57 587.69 185.08 578.29 192.92 587.83 187.41 578.38 194.67 587.93 189.15 578.48 196.73 588.06 191.2 578.57 198.46 588.16 192.92 578.66 200.19 588.26 194.65 578.77 202.56 588.41 197 578.87 204.51 588.52 198.94 578.96 206.32 588.63 200.74 579.07 208.5 588.76 202.91 579.19 210.81 588.9 205.2 579.31 213.36 589.05 207.74"/><polyline class="cls-1" points="571.77 169.39 572.33 169.07 571.03 172.21 575.88 169.41 570.42 174.52 578.78 169.69 569.68 177.3 582.28 170.03 568.94 180.13 585.85 170.37 568.36 182.32 586.88 171.63 567.85 184.25 586.98 173.2 567.27 186.45 587.1 175 566.45 189.56 577.07 183.43 565.72 192.32 576.38 186.16 564.94 195.26 575.65 189.08 564.3 197.67 575.05 191.47 563.52 200.64 574.31 194.42 562.71 203.7 573.54 197.45 561.97 206.51 572.85 200.23 561.31 209.02 572.22 202.72 560.49 212.12 571.45 205.79 559.86 214.51 570.85 208.16 559.04 217.63 570.08 211.25 558.25 220.62 569.83 213.93 557.56 223.2 573.08 214.25 556.74 226.32 577 214.62 556.09 228.8 589.17 209.7 555.26 231.93 566.45 225.47 556.43 233.49 565.8 228.08 560.36 233.85 565.03 231.15 563.81 234.17 564.36 233.85"/><polyline class="cls-1" points="613.17 182.99 625.3 175.99 616.89 183.47 627.65 177.26 619.61 183.93 629.17 178.41 621.78 185.24 630.71 180.09 622.69 186.79 631.58 181.66 622.99 189.03 632.38 183.61 622.88 190.9 632.82 185.16 622.57 193.19 633.06 187.14 622.31 195.12 633.2 188.84 622.06 197.06 633.08 190.69 621.71 199.7 632.86 193.26 621.42 201.86 632.57 195.42 621.15 203.88 632.3 197.44 620.83 206.32 631.98 199.88 620.49 208.89 631.64 202.45 620.11 211.73 631.26 205.29 619.82 213.91 630.97 207.47 619.47 216.5 630.63 210.06 619.13 219.08 630.29 212.64 618.77 221.83 629.92 215.38 618.49 223.9 629.65 217.46 618.08 226.13 629.36 219.62 616.79 228.86 629.07 221.77"/><polyline class="cls-1" points="603.69 172.69 604.17 172.42 603.35 175.28 607.54 172.86 603.07 177.4 610.29 173.23 602.73 179.95 613.61 173.67 602.38 182.56 617 174.12 602.12 184.57 619.61 174.47 601.88 186.33 621.71 174.88 601.61 188.36 623.96 175.46 601.23 191.21 612.39 184.77 600.9 193.74 612.06 187.3 600.54 196.44 611.7 189.99 600.24 198.66 611.41 192.21 599.88 201.38 611.05 194.94 599.51 204.19 610.68 197.74 599.17 206.77 610.35 200.32 598.86 209.08 610.04 202.62 598.48 211.92 609.67 205.46 598.19 214.12 609.38 207.66 597.81 216.97 609 210.51 597.45 219.72 608.64 213.25 597.13 222.09 608.33 215.63 596.75 224.95 607.96 218.48 596.45 227.23 607.66 220.76 596.07 230.11 607.28 223.63 595.75 232.52 606.96 226.05 595.37 235.37 606.59 228.89 595.64 237.53 608.89 229.88 598.55 237.91 611.78 230.27 601.8 238.33 628.96 222.66 604.95 238.74 628.64 225.06 607.45 239.06 628.27 227.03 611.03 239.52 627.56 229.98 614.22 239.72 626.52 232.62 619.56 238.88 623.58 236.56"/><polyline class="cls-1" points="654.42 188.61 665.36 182.29 658.14 189.09 667.25 183.83 659.7 190.22 668.42 185.19 660.76 192.18 669.55 187.1 660.94 194.14 670.26 188.76 660.65 196.72 670.8 190.86 660.32 198.71 670.98 192.56 659.93 201.06 671.1 194.61 659.61 203.03 670.92 196.5 659.28 205 670.73 198.39 658.83 207.7 670.28 201.09 658.46 209.91 669.91 203.3 658.12 211.97 669.57 205.36 657.7 214.46 669.15 207.85 657.27 217.09 668.72 210.47 656.78 219.99 668.23 213.38 656.41 222.21 667.86 215.6 655.97 224.86 667.42 218.25 655.53 227.5 666.99 220.88 655.07 230.3 666.52 223.69 654.57 232.51 666.16 225.81 653.26 235.06 665.83 227.8"/><polyline class="cls-1" points="645.16 182.5 649.53 179.97 641.93 186.75 655.02 179.2 640.87 189.33 657.97 179.45 640.18 192.08 660.84 180.15 639.65 194.79 663.32 181.13 639.31 196.84 664.98 182.02 639.01 198.64 650.73 191.88 638.66 200.71 650.12 194.1 638.18 203.63 649.63 197.01 637.75 206.22 649.2 199.6 637.29 208.97 648.74 202.36 636.91 211.24 648.36 204.62 636.45 214.02 647.9 207.41 635.97 216.89 647.42 210.28 635.53 219.52 646.99 212.91 635.14 221.88 646.59 215.27 634.66 224.78 646.11 218.17 634.29 227.02 645.74 220.41 634.03 229.81 645.25 223.33 634.07 232.33 644.78 226.14 634.28 234.39 644.38 228.56 634.88 236.68 644.1 231.36 635.67 238.34 644.41 233.29 636.91 240.27 645.64 235.23 638.21 241.76 647.67 236.29 640.22 243.22 665.72 228.5 642.38 244.3 665.29 231.07 644.59 245.08 664.8 233.41 647.46 245.72 664.06 236.13 650.88 245.96 662.72 239.13 655.1 245.3 660.19 242.35"/><polyline class="cls-1" points="670.89 229.33 671.36 229.06 670.51 231.32 673.64 229.51 670.11 233.66 676.37 230.05 669.87 235.5 678.57 230.48 669.73 237.32 680.46 231.12 669.78 239.18 680.04 233.25 670.01 241.01 679.59 235.48 670.49 243.11 679.39 237.97 671.21 244.71 679.72 239.79 672.25 246.42 680.79 241.48 673.59 248.03 682.97 242.62 675.01 249.16 685.94 242.85 676.97 250.33 700.63 236.67 678.78 251.19 700.38 238.71 681.53 251.96 699.67 241.49 684.33 252.38 698.7 244.09 688.7 252.34 696.5 247.84"/><polyline class="cls-1" points="691.49 195.42 702.27 189.19 695.2 195.9 704.09 190.77 696.72 197.06 705.17 192.18 697.7 199.06 706.22 194.14 697.77 201.09 706.86 195.84 697.38 203.73 707.3 198 697.3 205.57 707.4 199.74 700.04 206.11 707.41 201.86 702.35 206.56 707.16 203.78 704.65 207.01 706.88 205.73"/><polyline class="cls-1" points="682.46 189.04 686.77 186.55 679.25 193.29 692.11 185.87 678.11 195.9 694.92 186.2 677.37 198.69 697.73 186.93 676.94 201.34 700.16 187.93 676.72 203.32 701.82 188.83 676.79 204.91 688.14 198.36 676.88 206.73 687.41 200.65 677.37 209.08 687.13 203.44 677.98 211.06 687.38 205.64 678.78 213.09 687.98 207.78 679.58 214.68 688.66 209.44 680.67 216.57 689.68 211.37 681.89 218.46 690.87 213.27 683.08 220.15 692.07 214.96 684.17 221.65 693.15 216.46 685.5 223.5 694.5 218.31 686.52 224.94 695.51 219.76 687.75 226.88 696.75 221.68 688.79 228.81 697.86 223.57 689.53 230.57 698.73 225.26 690.15 232.85 699.57 227.42 690.4 234.81 700.13 229.2 690.14 237.62 700.62 231.57 689.14 240.43 700.74 233.73"/><path class="cls-2" d="M522.85,200.35c6.73-7.25,16.17-10.75,25.07-14.57q16-6.87,32.17-13.36,30.77-12.35,62.08-23.32c3.4-1.19,1.94-6.64-1.5-5.43q-33.1,11.62-65.64,24.76-15.49,6.26-30.83,12.87c-9.1,3.92-18.45,7.66-25.33,15.07-2.47,2.65,1.51,6.65,4,4h0Z" transform="translate(186.18 -41.4)"/><path class="cls-2" d="M685.06,199.29a404.92,404.92,0,0,0-70.16,16.35c-3.43,1.13-2,6.57,1.5,5.43a404.92,404.92,0,0,1,70.16-16.35c3.58-.5,2.05-5.93-1.5-5.43h0Z" transform="translate(186.18 -41.4)"/><path class="cls-2" d="M-4.6,194.53a372.32,372.32,0,0,0-148.14-77.85c-3.51-.92-5,4.51-1.5,5.43A366,366,0,0,1-8.58,198.52c2.74,2.35,6.74-1.61,4-4h0Z" transform="translate(186.18 -41.4)"/><path class="cls-2" d="M-67.06,227.13a210.26,210.26,0,0,0-88.46-30.3c-3.6-.39-3.57,5.25,0,5.64A203.89,203.89,0,0,1-69.91,232c3.09,1.92,5.92-3,2.84-4.87h0Z" transform="translate(186.18 -41.4)"/><path class="cls-2" d="M-53.65,334a1263.07,1263.07,0,0,1,621-5.43c1.76,0.43,2.51-2.29.75-2.72A1266.9,1266.9,0,0,0-54.4,331.24a1.41,1.41,0,0,0,.75,2.72h0Z" transform="translate(186.18 -41.4)"/><path class="cls-2" d="M-32.48,134.23a18.18,18.18,0,0,0,2.55-6,11.26,11.26,0,0,0-.42-6.76,70.58,70.58,0,0,0-3.56-8.07c-1-2-2.1-4.42-3.73-6.06a1.09,1.09,0,0,0-.42-0.27l-0.06,0a95.7,95.7,0,0,0-17.81-5.8,76.27,76.27,0,0,0-8.87-1.43c-1.17-.12-2.49-0.3-3.44.57-1.21,1.11-2.36,2.29-3.53,3.45a1.09,1.09,0,0,0-1.14,1.54,143.32,143.32,0,0,0,10,16.86,0.91,0.91,0,0,0,.42,1.26c2.18,1.16,4.91,1.58,7.36,2.16v0a108.34,108.34,0,0,0,6,9.87c1.41,2.07,3.16,4,5.65,4.21,2.5,0.72,5.47-.26,7.65-1.74a1.09,1.09,0,0,0,.33-0.21l0.09-.08,0.53-.42A9.72,9.72,0,0,0-32.48,134.23ZM-58.9,118l-2.69,2.43a143.31,143.31,0,0,1-8.83-14.93l0,0,2.91-2.87q5,7.12,9.84,14.4A7.77,7.77,0,0,0-58.9,118ZM-49,130l0.22-.23c0,0.12-.06.24-0.07,0.34v0A0.75,0.75,0,0,0-49,130Zm2.9-1.93-0.29.41c0-.16.06-0.31,0.07-0.47Zm-3.36-.77,0-.11,0.11,0Zm-2.32-.71a1.06,1.06,0,0,0,0,.38,6.34,6.34,0,0,1,.19.89c-0.27-.47-0.54-0.95-0.81-1.42Zm9.88,11.29a1,1,0,0,0-.86-0.22l-0.25,0-0.18,0c-1.76-.54-2.68-2.59-2.73-4.28A6.79,6.79,0,0,1-44,128.81a1.16,1.16,0,0,0-.45-1.84,0.93,0.93,0,0,0-.74-0.89L-53.22,124l-4-1c-1-.25-2-0.43-3-0.75l1.92-1.74,1.35-1.22c0.71-.64,1.17-0.41,2-0.17a23.48,23.48,0,0,0,6.19.89,1.07,1.07,0,0,0,.09-2.14,23.73,23.73,0,0,1-3.71-.34c-0.92-.16-2-0.66-2.94-0.81q-4.91-7.48-10.08-14.78a24.84,24.84,0,0,1,2.53.35,76.7,76.7,0,0,1,8.42,1.6A93.35,93.35,0,0,1-39.07,109a21.49,21.49,0,0,1,2.93,4.81,76.55,76.55,0,0,1,3.47,7.59,10.07,10.07,0,0,1,.84,5.34q-0.11-.39-0.25-0.77c-1.82-4.91-8.17-6.07-12.54-7.46a1.07,1.07,0,0,0-.63,2c3.34,1.06,7.35,1.81,9.94,4.32,2.28,2.22,2.19,5.84.83,8.5a18.45,18.45,0,0,1-2.53,2.9l0,0A7.59,7.59,0,0,1-41.88,137.86Z" transform="translate(186.18 -41.4)"/><path class="cls-2" d="M-39.61,114.56c0.21-1.73-1.08-3.52-2.26-4.64a1.05,1.05,0,0,0-.81-0.31,14.13,14.13,0,0,0-2-.44,2.5,2.5,0,0,0-2.3.38c-0.69.74-.23,1.51,0.22,2.21a9.36,9.36,0,0,1,1.11,2.6,1,1,0,0,0,.69.74,1.37,1.37,0,0,0,.3.35,0.88,0.88,0,0,0,.63.42C-42.66,116.12-39.84,116.49-39.61,114.56Z" transform="translate(186.18 -41.4)"/><path class="cls-2" d="M-69,106.06c2.84,3.49,4.6,7.71,7.59,11.09a1.07,1.07,0,0,0,1.58-1.45c-3-3.37-4.75-7.6-7.59-11.09C-68.32,103.53-69.89,105-69,106.06Z" transform="translate(186.18 -41.4)"/><path class="cls-2" d="M626.51,124.1c0.09,0.2.18,0.41,0.29,0.61l0,0.11a1.09,1.09,0,0,0,.2.34c1.29,2.3,3.5,4.51,6.06,5,2.29,1,4.75,0,6.94-1.22a108.34,108.34,0,0,0,9.77-6.14l0,0c2.45,0.58,5.08,1.43,7.55,1.37a0.91,0.91,0,0,0,.94-0.94,143.32,143.32,0,0,0,16.46-10.6,1.09,1.09,0,0,0-.32-1.89c-0.53-1.56-1-3.13-1.6-4.66-0.45-1.21-1.72-1.63-2.82-2.05a76.27,76.27,0,0,0-8.57-2.7,95.7,95.7,0,0,0-18.52-2.81h-0.06a1.09,1.09,0,0,0-.49.05c-2.19.73-4.22,2.39-6.05,3.74a70.58,70.58,0,0,0-6.8,5.61,11.26,11.26,0,0,0-3.41,5.85,18.18,18.18,0,0,0-.4,6.47A9.72,9.72,0,0,0,626.51,124.1Zm29.4-7.94q7.56-4.36,15.26-8.45l1.32,3.87v0A143.31,143.31,0,0,1,657.9,121l-1.31-3.38A7.77,7.77,0,0,0,655.91,116.16Zm-13.72,7.71v0c0-.1.06-0.21,0.09-0.33l0.1,0.3Zm-1.31-3c-0.06.15-.1,0.3-0.15,0.45,0-.17,0-0.33-0.08-0.5Zm3.08,0.66,0.11,0-0.07.09Zm3,0.65-1.36.91a6.34,6.34,0,0,1,.57-0.71,1.06,1.06,0,0,0,.21-0.32Zm-18.11,2v-0.05a18.45,18.45,0,0,1-1-3.73c0-3,1.52-6.27,4.56-7.22,3.44-1.08,7.36.05,10.82,0.6a1.07,1.07,0,0,0,.36-2.11c-4.53-.72-10.72-2.53-14.56,1q-0.3.28-.57,0.58a10.07,10.07,0,0,1,3.15-4.4,76.55,76.55,0,0,1,6.51-5.23,21.49,21.49,0,0,1,4.78-3A93.35,93.35,0,0,1,659,102.9a76.7,76.7,0,0,1,8.24,2.36,24.84,24.84,0,0,1,2.42.82q-7.89,4.21-15.64,8.68c-0.94-.3-2.1-0.33-3-0.6a23.73,23.73,0,0,1-3.46-1.36,1.07,1.07,0,0,0-.88,2,23.48,23.48,0,0,0,5.93,2c0.85,0.15,1.37.15,1.71,1l0.66,1.7,0.94,2.42c-1-.16-2.06-0.48-3-0.68l-4.07-.87-8.14-1.74a0.93,0.93,0,0,0-1.06.46,1.16,1.16,0,0,0-1.23,1.44,6.79,6.79,0,0,1-.32,4.93c-0.8,1.49-2.54,2.9-4.36,2.6l-0.18,0-0.21-.14a1,1,0,0,0-.86-0.19A7.59,7.59,0,0,1,628.86,124.12Z" transform="translate(186.18 -41.4)"/><path class="cls-2" d="M640.92,105.82c0.59-1.64,2.54-2.66,4.1-3.14a1.05,1.05,0,0,1,.86.09,14.13,14.13,0,0,1,2,.49,2.5,2.5,0,0,1,1.88,1.37c0.28,1-.48,1.45-1.19,1.88a9.36,9.36,0,0,0-2.16,1.82,1,1,0,0,1-.95.35,1.37,1.37,0,0,1-.43.18,0.88,0.88,0,0,1-.75.09C642.94,108.59,640.25,107.65,640.92,105.82Z" transform="translate(186.18 -41.4)"/><path class="cls-2" d="M671,111.43c-4.1,1.84-7.57,4.83-11.76,6.5a1.07,1.07,0,0,1-.76-2c4.18-1.67,7.66-4.66,11.76-6.5C671.52,108.86,672.27,110.86,671,111.43Z" transform="translate(186.18 -41.4)"/><path class="cls-2" d="M-114.92,274.25a4.83,4.83,0,0,0-2-4.73c-1.94-1.29-3.82,1.14-5.76.64a13.89,13.89,0,0,1-3-1.51l-4-2.21c-2.48-1.36-5.06-2.62-7-4.76s-1.33-4.6-1.31-7.29a4.44,4.44,0,0,0-1-2.86,1.32,1.32,0,0,0-.92-1.16A90.44,90.44,0,0,0-157,246.83c-5.9-.82-11.84-1.88-17.78-2.37-4.32-.36-8.68.94-10.6,5.12a8.83,8.83,0,0,0,2.81,10.77l0.42,0.32a3.25,3.25,0,0,0,.75,3.64,1,1,0,0,0,1.17.18,5.79,5.79,0,0,0,1.77-1.21q1.52,1,3.09,1.94a2.79,2.79,0,0,0,.68,2.9,2.53,2.53,0,0,0,3.68-.33c1.2,0.69,2.39,1.38,3.57,2.08a3.3,3.3,0,0,0,.32,2.88,2,2,0,0,0,1.9,1,3.12,3.12,0,0,0,1.72-1.52l13.1,7.86c1.74,1,3.48,2.15,5.23,3.26a8.13,8.13,0,0,0-.42,1.58,2.17,2.17,0,0,0,.86,1.91c1.34,0.92,2.64,0,3.52-1,1,0.63,2.09,1.24,3.15,1.83a2.84,2.84,0,0,0,.81,3.59c1.36,1,2.81-.25,3.61-1.39,4.37,1.81,8.58.95,11.46-3,1.55-2.12,3-4.34,4.47-6.51C-116.44,278.56-115.08,276.5-114.92,274.25Zm-5.72,5.85c-0.76,1-1.55,2-2.22,3-0.42.61-.82,1.22-1.23,1.79C-123.69,283-122.28,280.71-120.63,280.11Zm-11.67-.56-0.35,1-0.05.08A6.6,6.6,0,0,1-132.3,279.55Zm3.6,1.85c0-.2,0-0.41,0-0.61v0a2.77,2.77,0,0,0,.28.54l-0.22.37C-128.68,281.59-128.69,281.49-128.7,281.4Zm-3.15-3.16-0.1.29a0.85,0.85,0,0,0,0-.19Zm-3.16,5.34a7.25,7.25,0,0,1-.65,2l-0.1.17-0.48-.3Zm0.94,3.14,0,0v0h0Zm3.47-2.09,0,0.1-0.13.23Zm-4.25-4.8a0.86,0.86,0,0,0,0-.26l0.26-.09Zm-2.81,2.79-0.49,1.66-0.41-.24C-138.31,283.61-138,283.1-137.66,282.6Zm11-5.1,0.16,0.07h0l-0.18.39C-126.65,277.81-126.65,277.66-126.65,277.5Zm-1.58-7.12c-1.88,3.51-3.79,6.27-7.75,7.58-2.43.8-4.9,1.71-6.17,3.9l-5.79-3.48a26,26,0,0,1,3.29-2.69,18.53,18.53,0,0,1,5.16-2,20.1,20.1,0,0,0,8.25-4.93l2.12,1.14Zm-13.52,1.18a0.79,0.79,0,0,0,.06.73l-0.15,0c-0.45.13-.88,0.29-1.29,0.46l1.43-1.35Zm2.2,0a12.26,12.26,0,0,1,.81-1.15l-0.3.69a1.16,1.16,0,0,0-.08.3Zm4.71-2.64a0.78,0.78,0,0,0,.1.18l-0.67.45Zm-0.29-2.46-0.13.13v0l0.14-.08h0Zm-7,2.67c0-.15.1-0.29,0.14-0.45a1.14,1.14,0,0,0,0-.24l0.58-.06Zm-2.88-.43,0-.14h0.17Zm-4.91,1.49q0.62-.8,1.19-1.64l0.07-.13,0.69,0h0.25Q-148.8,269.4-149.93,270.22Zm-9.61.63-0.37.35-0.2-.12Zm2.72,0.79-0.95.85-0.21-.13Zm2.3,0.84c-0.42.41-.85,0.8-1.29,1.19l-0.16-.09C-155.5,273.2-155,272.83-154.53,272.48Zm7.29-.17,0.09,0,0.67-.37-1,.89a20.83,20.83,0,0,0-3.37,3.87l-0.42-.25C-150,274.92-148.51,273.7-147.24,272.3Zm-36.23-18.64a6.16,6.16,0,0,1,2.71-5.5c2.21-1.44,5.21-1.1,7.69-.81,2,0.24,4,.51,6.07.79l-0.64,2.36a1,1,0,0,0,1.87.52l0.71-2.62,2.38,0.34a17.73,17.73,0,0,0-.25,3,1,1,0,0,0,1.94,0,16,16,0,0,1,.22-2.8l2.89,0.41a13.88,13.88,0,0,1-.68,2.53c-0.43,1.17,1.44,1.69,1.87.52a14.85,14.85,0,0,0,.72-2.78l2.67,0.39a11.58,11.58,0,0,1-.39,3.22,1,1,0,0,0,1.87.52,13.45,13.45,0,0,0,.47-3.43c0.86,0.15,1.71.3,2.57,0.47l-0.52,3.23c-0.2,1.22,1.67,1.76,1.87.52l0.54-3.36q2.54,0.57,5,1.34a1.53,1.53,0,0,0,.29.17c1.36,0.59.77,3,.64,4a8.62,8.62,0,0,0,.26,3.22,10.38,10.38,0,0,0,3.74,5.21c-8.14,3.9-18.48-1.65-26.19,4.05l-7.56-4.54c-2.6-1.56-5.18-3.14-7.72-4.79S-183.25,256.76-183.47,253.66Zm54.28,34.45h-0.58c0.2-1.78,1.55-3.35,2.44-4.85,1-1.66,1.9-3.37,2.72-5.12a16.29,16.29,0,0,0,1.74-5.25,8.41,8.41,0,0,0,.83.15,4.81,4.81,0,0,0,2.65-.7c2.35-1.18,1.73,2.19,1.36,3.25a12.65,12.65,0,0,1-1.2,2.45c-2.09-.32-3.7,1-4.92,2.67s-2.45,4.12-1.87,6.31A5.26,5.26,0,0,1-129.19,288.11Z" transform="translate(186.18 -41.4)"/><path class="cls-2" d="M634.49,283.89c1.16,1.69,2.28,3.43,3.49,5.08,2.24,3.06,5.53,3.74,8.94,2.33,0.62,0.89,1.75,1.86,2.82,1.08a2.22,2.22,0,0,0,.63-2.8c0.83-.46,1.65-0.94,2.46-1.43,0.69,0.82,1.7,1.52,2.75.8a1.69,1.69,0,0,0,.67-1.49,6.34,6.34,0,0,0-.33-1.24c1.37-.86,2.72-1.73,4.08-2.54l10.22-6.14a2.44,2.44,0,0,0,1.34,1.19,1.6,1.6,0,0,0,1.49-.79,2.57,2.57,0,0,0,.25-2.25l2.78-1.63a2,2,0,0,0,2.88.26,2.18,2.18,0,0,0,.53-2.26q1.22-.74,2.41-1.51a4.52,4.52,0,0,0,1.38.95,0.79,0.79,0,0,0,.91-0.14,2.54,2.54,0,0,0,.59-2.84l0.33-.25a6.89,6.89,0,0,0,2.19-8.41c-1.49-3.27-4.9-4.27-8.27-4-4.64.38-9.27,1.21-13.88,1.85a70.58,70.58,0,0,0-13.33,2.77,1,1,0,0,0-.72.9,3.46,3.46,0,0,0-.76,2.23c0,2.1.54,3.94-1,5.69a19.39,19.39,0,0,1-5.44,3.72l-3.13,1.72a10.84,10.84,0,0,1-2.36,1.18c-1.52.38-3-1.51-4.5-.5a3.77,3.77,0,0,0-1.58,3.69A10.24,10.24,0,0,0,634.49,283.89Zm5,3.54c-0.32-.45-0.63-0.92-1-1.4-0.52-.76-1.14-1.54-1.73-2.35C638.09,284.17,639.18,285.92,639.49,287.44Zm6.73-3.33,0-.06-0.27-.8A5.15,5.15,0,0,1,646.22,284.11Zm-3.14.81-0.18-.29a2.16,2.16,0,0,0,.22-0.42v0c0,0.16,0,.32,0,0.48S643.08,284.85,643.08,284.92Zm2.6-2.62a0.66,0.66,0,0,0,0,.15l-0.08-.23Zm3.31,5.55-0.38.23-0.08-.14a5.66,5.66,0,0,1-.51-1.56Zm-1.71,1v0h0Zm-2.62-1.39-0.1-.18,0-.08Zm3.07-4.27,0.21,0.07a0.67,0.67,0,0,0,0,.2Zm3.07,3.55-0.32.19-0.38-1.3C650.35,286,650.59,286.43,650.79,286.75ZM641.5,282l-0.14-.3h0l0.13-.05C641.5,281.78,641.5,281.9,641.5,282Zm1.95-6.32,1.65-.89a15.68,15.68,0,0,0,6.44,3.85,14.46,14.46,0,0,1,4,1.58,20.31,20.31,0,0,1,2.57,2.1l-4.52,2.71c-1-1.7-2.92-2.42-4.81-3-3.09-1-4.58-3.17-6-5.91Zm9.81,1.22,1.12,1.05c-0.33-.13-0.66-0.25-1-0.36l-0.12,0a0.61,0.61,0,0,0,.05-0.57Zm-2,0a0.91,0.91,0,0,0-.06-0.23l-0.24-.54a9.57,9.57,0,0,1,.63.9Zm-2.9-1.45-0.52-.35a0.61,0.61,0,0,0,.08-0.14Zm-0.22-2.4,0.11,0.06v0l-0.1-.1h0Zm4.87,1.5,0.45,0a0.89,0.89,0,0,0,0,.19c0,0.12.07,0.23,0.11,0.35Zm2.67,0.14h0.13l0,0.11Zm2.28-.07h0.2l0.54,0,0.06,0.1q0.45,0.66.93,1.28Q658.79,275.34,657.95,274.63Zm9.67,2-0.16.1-0.29-.28Zm-1.66,1-0.16.1-0.74-.66Zm-1.57.94-0.12.07c-0.34-.3-0.68-0.61-1-0.93Zm-3.67,2.2-0.32.2a16.25,16.25,0,0,0-2.63-3l-0.78-.69,0.52,0.29,0.07,0C658.56,278.69,659.74,279.64,660.71,280.79ZM681.88,268c-2,1.28-4,2.52-6,3.73l-5.9,3.54c-6-4.45-14.09-.12-20.44-3.16a8.1,8.1,0,0,0,2.92-4.07,6.73,6.73,0,0,0,.2-2.51c-0.09-.83-0.55-2.69.5-3.15a1.19,1.19,0,0,0,.23-0.13q1.95-.61,3.93-1l0.42,2.62c0.15,1,1.61.54,1.46-.41l-0.41-2.52c0.67-.13,1.33-0.25,2-0.36a10.49,10.49,0,0,0,.37,2.67,0.76,0.76,0,0,0,1.46-.41,9,9,0,0,1-.31-2.51l2.09-.31a11.59,11.59,0,0,0,.56,2.17c0.34,0.91,1.79.51,1.46-.41a10.84,10.84,0,0,1-.53-2l2.25-.32a12.49,12.49,0,0,1,.18,2.18,0.76,0.76,0,0,0,1.51,0,13.84,13.84,0,0,0-.19-2.38l1.86-.27,0.56,2a0.76,0.76,0,0,0,1.46-.41l-0.5-1.84c1.58-.22,3.16-0.43,4.74-0.61,1.94-.23,4.27-0.49,6,0.64a4.8,4.8,0,0,1,2.11,4.29C685.67,265.47,683.76,266.76,681.88,268ZM641,289.09c0.45-1.71-.48-3.55-1.46-4.92s-2.21-2.33-3.84-2.08a9.87,9.87,0,0,1-.93-1.91c-0.29-.83-0.77-3.46,1.06-2.54a3.76,3.76,0,0,0,2.07.54,6.56,6.56,0,0,0,.65-0.12,12.71,12.71,0,0,0,1.36,4.1c0.64,1.36,1.35,2.7,2.12,4s1.75,2.39,1.91,3.78h-0.45A4.11,4.11,0,0,1,641,289.09Z" transform="translate(186.18 -41.4)"/><path class="cls-3" d="M39.24,106.8s15.85-9,56.76,2.84,58.89,1.42,58.18,39-53.92,43.28-53.92,43.28-39,4.49-61.73-22S30,112.95,39.24,106.8Z" transform="translate(186.18 -41.4)"/><circle class="cls-3" cx="276.43" cy="113.47" r="24.83"/><path class="cls-3" d="M105.49,112.11s-6.89-15-6.89-16.66-8.34,0-8.34,0-2.48,9.07-6.17,11.15" transform="translate(186.18 -41.4)"/><path class="cls-2" d="M83.11,156s7.92-6.5,13.13,1.54-4.86,9.22-6,9.22S76,167.34,83.11,156Z" transform="translate(186.18 -41.4)"/><path class="cls-3" d="M154.19,145.59s-17-23.09-60.89-25.45S41.48,119.73,27,130" transform="translate(186.18 -41.4)"/><ellipse class="cls-2" cx="289" cy="103.14" rx="2.02" ry="2.89"/><ellipse class="cls-2" cx="265.17" cy="98.86" rx="2.02" ry="2.89"/><path class="cls-2" d="M97.2,144.54s6.5-4.54,11.37-1.08v-2.89s-4.6-4-11.37,1.17v2.8Z" transform="translate(186.18 -41.4)"/><path class="cls-2" d="M84,138.33s-3.69-5.76-9.31-2.66l0.47,2.78S77.54,136.73,81,140Z" transform="translate(186.18 -41.4)"/><circle class="cls-4" cx="624.51" cy="124.06" r="29.54"/><ellipse class="cls-2" cx="635.91" cy="114.41" rx="2.92" ry="3.8"/><ellipse class="cls-2" cx="428.09" cy="157.57" rx="2.92" ry="3.8" transform="translate(158.27 103.69) rotate(-18.64)"/><path class="cls-2" d="M455.15,150.33a88.86,88.86,0,0,0-35.48,4.12c-1.72.56-1,3.28,0.75,2.72a86.88,86.88,0,0,1,34.73-4c1.81,0.15,1.8-2.66,0-2.82h0Z" transform="translate(186.18 -41.4)"/><polyline class="cls-5" points="656.53 133.68 663.28 129.78 658.46 134.9 661.21 133.31"/><polyline class="cls-5" points="661.68 103.74 667.06 100.63 663.35 104.91 666.49 103.1"/><line class="cls-5" x1="655.69" y1="84.17" x2="657.77" y2="82.97"/><polyline class="cls-5" points="628.33 64.84 628.81 64.56 627.81 66.81 631.26 64.82 627.43 68.88 633.39 65.44 627.11 71.19 635.22 66.51 627.01 72.68 636.18 67.39 626.9 74.34 636.8 68.62 626.87 76.06 637.02 70.19 626.85 78.17 641.33 69.81 626.89 80.33 644.12 70.38 626.97 82.58 646.27 71.44 627.09 84.51 647.84 72.53 627.2 86.03 648.99 73.45 627.34 87.86 650.22 74.66 627.51 89.65 651.36 75.88 627.7 91.5 652.43 77.22 627.97 93.8 653.55 79.03 628.95 95.57 654.39 80.89 631.33 96.45 654.93 82.83 633.44 97.32 655.12 84.8 635.83 98.42 661.42 83.64 637.53 99.22 662.62 84.73 639.03 99.96 663.45 85.85 640.94 100.96 664.27 87.49 642.61 101.88 664.82 89.06 644.56 103.17 665.36 91.17 645.7 103.97 665.63 92.46 647.14 105.27 666.03 94.36 648.46 106.53 666.42 96.16 649.52 107.98 666.8 98 650.51 109.38 667.02 99.85 651.27 110.91 662.24 104.58 651.99 112.35 663.65 105.62 652.56 113.97 664.26 107.22 653.15 115.66 664.6 109.05 653.51 117.14 664.83 110.61 653.94 118.92 665.09 112.48 654.18 120.63 665.18 114.28 654.39 122.85 665.25 116.58 654.41 124.26 665.27 117.99 654.34 126.08 665.11 119.86 654.05 128.24 664.94 121.95 653.25 131.09 664.52 124.58 652.55 132.9 664.2 126.18 651.86 134.81 663.86 127.88 651.69 136.53 655.39 134.39 652.54 138.51 658.46 135.1 654.7 139.19 657.66 137.48"/><polyline class="cls-6" points="596.28 147.76 602.08 144.41 597.83 148.85 602.21 146.32 599.99 149.38 601.57 148.47"/><polyline class="cls-6" points="576.14 134.53 577.42 133.79 575.62 136.59 594.5 125.69 576.12 138.47 594.38 127.93 577.21 140.3 594.5 130.31 578.14 141.34 594.74 131.76 579.5 142.38 595.21 133.31 581.12 143.18 595.79 134.71 583.66 143.68 596.56 136.24 586.06 144.35 597.64 137.67 586.51 145.99 598.81 138.89 587.36 147.66 600.41 140.13 588.5 148.96 602 141.17 590.68 150.12 601.97 143.6"/><polyline class="cls-6" points="583.47 79.51 584.05 79.17 581.82 81.98 585.32 79.96 580.64 84.77 587.06 81.06 580.03 87.36 588.6 82.41 579.86 89.37 589.92 83.56 579.97 91.66 591.3 85.11 580.18 93.1 592.22 86.15 580.64 94.56 593.17 87.32 578.05 97.87 594.1 88.61 576.35 101.31 595.34 90.34 575.65 103.92 596.34 91.98 575.39 106.08 597.25 93.46 575.35 108.09 598.08 94.96 575.57 109.75 598.81 96.34 576.07 111.94 599.8 98.24 576.72 113.84 600.64 100.03 577.38 115.08 601.24 101.31 573.71 119.27 601.96 102.96 572.9 121.23 602.47 104.16 572.65 122.8 602.95 105.31 572.79 124.76 601.81 108 573.14 126.03 600.54 110.21 573.51 127.23 599.44 112.26 574.11 128.39 598.37 114.39 575.08 130.09 596.94 117.47 575.95 131.36 596.02 119.77 576.89 132.59 595.28 121.97 577.85 133.8 594.82 124.01"/><path d="M415.15,181.29c-0.29,1-.65,10-4.47,6.89a1.07,1.07,0,0,0-1.66.21c-3,5.82-7.79-.43-8.29-3.88a1.07,1.07,0,0,0-1.3-.74,7.34,7.34,0,0,1-6.25-1.51c-0.32-.27-4.47-6.68-1.72-6a1.07,1.07,0,0,0,1-1.77c-3.21-4-9.24-13.95-.46-16a1.07,1.07,0,0,0,.63-1.55,16.68,16.68,0,0,1-2.49-9.1c0.07-3,1.27-9,4.92-9.8a1.06,1.06,0,0,0,.74-1.3,15.58,15.58,0,0,1-.63-9.7,14.88,14.88,0,0,1,2-4.51l1.46-1.83q1.77-2.31,5-1a1.06,1.06,0,0,0,2,.53,20.11,20.11,0,0,1,8.79-9.65,20.37,20.37,0,0,1,6.26-2.2c1-.17,9.39-1,8.28,2-0.39,1.06,1,1.67,1.77,1a16.65,16.65,0,0,1,8.65-4.24,14.72,14.72,0,0,1,4.18-.11c2.13,0.23,9,1.33,5.41,6.21-0.81,1.11,1,2.13,1.82,1.07,2-2.6,6.08-2.21,8.46-.83a19.45,19.45,0,0,1,3.88,3.09c2.69,2.7,4.58,5.84,4.73,9.72a1.07,1.07,0,0,0,2,.53c2-3.39,6.59.58,7.46,2.92a28.91,28.91,0,0,1,.93,3.43c0.35,1.46.69,2.94,1,4.42l0.34,1.78q1.64,4.15-3.37,5.14L475,146.12c4.35,1.6,3.21,12.34,2.89,15.86-0.4,4.47-1.14,10.53-5.17,13.17a15.26,15.26,0,0,1-1.29,1c-5.34,2.45-4.8.45-3.73-2.42a23.53,23.53,0,0,0,1.58-8.63c-0.08-6.69-2.45-14.22-7.31-19s-12.12-7.8-18.41-10c-15.5-5.45-25.31,5.23-31.84,18.12-4.73,9.35-8.47,26.11,5.61,29.56l-0.63-1.55-1.19,2a1.06,1.06,0,0,0,1.82,1.07l1.19-2a1.07,1.07,0,0,0-.63-1.55c-12.31-3-8.67-17.67-4.73-25.69C417,148.36,422,139.33,431,137c5.46-1.39,10.91.49,15.87,2.68,4.25,1.87,8.87,3.87,12.45,6.87,8,6.67,9.19,18.25,6,27.44-0.92,2.63-1.78,7,2.21,7.69a5.88,5.88,0,0,0,4.91-2.27c0.32-.46.51-1.72,0.73-2,0.52-.71,1.67-1.07,2.32-1.67,4.3-3.93,4.67-12,4.71-17.45,0-4.31.36-12.42-4.62-14.25a1.07,1.07,0,0,0-1.19,1.55,3.88,3.88,0,0,0,5.82.78c3.31-2.71,1.24-8.69.51-12-0.81-3.67-1.65-8.91-5.55-10.7a5.37,5.37,0,0,0-7.11,2.08l2,0.53c-0.32-8.37-13.39-23-21-13l1.82,1.07c2.94-4-.64-7.9-4.66-9-6.08-1.66-12.34.5-16.91,4.58l1.77,1c2-5.51-8-5.17-10.87-4.65a22.33,22.33,0,0,0-16.31,12.82l2,0.53c0.56-6.44-7-2.36-9.08,0a17.26,17.26,0,0,0-3,17.6l0.74-1.3c-4,.85-5.63,5.79-6.22,9.4A18.51,18.51,0,0,0,390.83,158l0.63-1.55a7.84,7.84,0,0,0-6,6.86c-0.7,4.91,2.64,9.11,5.52,12.68l1-1.77c-3.84-.94-4.08,3.89-2.91,6.4A9.74,9.74,0,0,0,400,185.81l-1.3-.74c0.84,5.81,8.45,11.47,12.15,4.39l-1.66.21c1.63,1.35,3.77,3,6,1.75,3.34-1.84,1.26-6.84,2-9.58a1.06,1.06,0,0,0-2-.56h0Z" transform="translate(186.18 -41.4)"/><path class="cls-2" d="M422.88,171.06s23-1.71,32.28-4.55c0,0,5.69,11.42-12.84,14.24S422.88,171.06,422.88,171.06Z" transform="translate(186.18 -41.4)"/><circle class="cls-7" cx="260.57" cy="141.14" r="39.59" transform="matrix(1, -0.07, 0.07, 1, 176.92, -22.78)"/><path class="cls-7" d="M221.07,143.92s-55.08-.54-63.87-35.2c0,0,7.15-68.95,118.83-66.22s101.78,72.58,101.78,72.58,5.69,37.54-78.87,35.81" transform="translate(186.18 -41.4)"/><circle class="cls-2" cx="271.61" cy="126.49" r="5.12" transform="translate(177.97 -22.04) rotate(-4.02)"/><circle class="cls-2" cx="243.41" cy="125.73" r="5.12" transform="translate(177.96 -24.02) rotate(-4.02)"/><path class="cls-2" d="M267.13,123.66c3-3.53,8.64-4.16,12.9-5.11,1.91-.43,1.1-3.35-0.81-2.93-4.85,1.08-10.84,1.87-14.24,5.89-1.25,1.48.88,3.64,2.15,2.15h0Z" transform="translate(186.18 -41.4)"/><path class="cls-2" d="M250.36,120.37c-3.29-3.19-6.75-6.31-11.37-7.27-1.91-.4-2.72,2.53-0.81,2.93,4.12,0.86,7.1,3.65,10,6.49,1.4,1.36,3.55-.78,2.15-2.15h0Z" transform="translate(186.18 -41.4)"/><path class="cls-2" d="M237.62,149.22c2.63-2.7,8-4.55,11.29-2,1.52,1.2,3.68-.93,2.15-2.15-4.64-3.68-11.63-2.1-15.58,2a1.52,1.52,0,0,0,2.15,2.15h0Z" transform="translate(186.18 -41.4)"/><path class="cls-8" d="M221.08,138.29s-50.69-8.59-54.6-27.34,20.82-53.88,97.13-59.25S374,91.14,368.47,113.11s-14.71,30.44-68.8,34.24" transform="translate(186.18 -41.4)"/><path class="cls-2" d="M291.14,105.07A101.71,101.71,0,0,0,290,87.27L289,89.13c11.27-3.76,25.6-6.28,33.25-16.22l-2.83-.77a158,158,0,0,0-.78,27.31L319.71,98a173.15,173.15,0,0,0-30.4,7.61c-1.83.64-1,3.57,0.81,2.93a173.15,173.15,0,0,1,30.4-7.61,1.52,1.52,0,0,0,1.11-1.46,158,158,0,0,1,.78-27.31c0.2-1.69-2-1.79-2.83-.77-7,9-21.18,11.4-31.44,14.82a1.57,1.57,0,0,0-1.06,1.87,97.07,97.07,0,0,1,1,17c-0.05,2,3,2,3,0h0Z" transform="translate(186.18 -41.4)"/><path class="cls-2" d="M304.56,135.77a79.26,79.26,0,0,0,9.66-3.55c3.3-1.48,8-5.65,11.53-5.74,3-.07,6.83,3.26,9.82,4.43a47.28,47.28,0,0,0,11.09,2.74l-0.38-1.41c-6.37,3.06-13.45,8-20.71,6.73-6.61-1.12-13.18-2.76-19.75-4.13-1-.2-1.36,1.26-0.4,1.46,7.28,1.53,15.23,4.26,22.68,4.54,6.5,0.25,13.31-4.59,18.94-7.29,0.76-.37.27-1.33-0.38-1.41a44.19,44.19,0,0,1-14.46-4.38c-2.15-1.1-4.34-3.39-6.82-3.23s-5.88,3.36-8.15,4.55a75,75,0,0,1-13.08,5.23,0.76,0.76,0,0,0,.4,1.46h0Z" transform="translate(186.18 -41.4)"/><path class="cls-2" d="M241,101.88q0.27-9.13,1.38-18.17a1.54,1.54,0,0,0-1.11-1.46L212,71a1.52,1.52,0,0,0-1.92,1.46q1.09,10.42,3.1,20.69a1.5,1.5,0,0,0,1.06,1.06,76.18,76.18,0,0,1,22.52,10.31c1.63,1.09,3.15-1.54,1.53-2.62A77.63,77.63,0,0,0,220.71,93c-4.71-1.65-4.92-2-5.77-7.09-0.75-4.47-1.34-9-1.81-13.46l-1.92,1.46,29.28,11.28-1.11-1.46q-1.11,9.06-1.38,18.17c-0.06,2,3,2,3,0h0Z" transform="translate(186.18 -41.4)"/><path class="cls-2" d="M213.45,123.6c-3.49-3.1-7.68-8.63-12.64-9.31-2.21-.3-4.59.47-6.72,0.94L183,117.68a0.77,0.77,0,0,0-.18,1.39c3.67,2.69,8.28,7.72,12.89,8.55,1.71,0.31,3.67-.27,5.33-0.5,1.18-.17,10.37-0.21,10.84-1.19-0.42.88,0.89,1.65,1.31,0.77l0.12-.24a0.79,0.79,0,0,0-.27-1c-2.71-2-9,0-12.2.19-3.85.29-6.78-.16-9.91-2.44-2.45-1.79-4.89-3.6-7.34-5.4l-0.18,1.39c4.52-1,9.16-2.44,13.76-3,6.75-.86,10.69,4.49,15.26,8.55,0.73,0.65,1.81-.42,1.07-1.07h0Z" transform="translate(186.18 -41.4)"/><path class="cls-2" d="M246.7,133.71s7.1,0.8,11.34,5.92,5.14,5.7,6,6-11.95-.45-20.53-7.36c0,0-6.78,4.65-16,.44a8.37,8.37,0,0,1,6.13-4.54C238.09,133.37,241.32,131.3,246.7,133.71Z" transform="translate(186.18 -41.4)"/><path class="cls-2" d="M0.85,109.17A52.4,52.4,0,0,0-28.42,88.94a1.41,1.41,0,0,0-.75,2.72A49.36,49.36,0,0,1-1.58,110.59c1.05,1.46,3.5.05,2.43-1.42h0Z" transform="translate(186.18 -41.4)"/><path class="cls-2" d="M572.28,119.8a111.15,111.15,0,0,0-29.85,14.43c-1.49,1-.08,3.46,1.42,2.43A108.58,108.58,0,0,1,573,122.52c1.73-.54,1-3.26-0.75-2.72h0Z" transform="translate(186.18 -41.4)"/><polyline class="cls-9" points="696.48 145.38 688.83 165.51 675.49 161.93 678.9 141.06"/><path class="cls-2" d="M504.68,186.82c0.86,0.9,2,1.93,3.34,1.56a3.12,3.12,0,0,0,2.11-2.56l-0.5.2c1.67,0.93,3.52,0,3.33-2-0.14-1.51-1.85-4.12-3.59-3.13l0.51,0.29c0-2.41-2.14-5.19-4.75-3.72-0.57.32-1,.65-1.48,0.09-0.23-.26-0.33-0.65-0.55-0.93a1.65,1.65,0,0,0-1-.63c-1.27-.21-2.23.9-2.66,2l0.62-.08c-0.64-1.34-1.92-2.78-3.57-2.24a3.8,3.8,0,0,0-2.32,3.62l0.58-.24a1.45,1.45,0,0,0-2.23.48,2.92,2.92,0,0,0,.1,3.26,2.14,2.14,0,0,0,1.45.77c0.26,0,.54-0.06.79,0l1.22,0.42,0.24,0.3a2,2,0,0,0,2.9-.21l-0.41.05a10.14,10.14,0,0,0,3.89,1.83c0.36,0.06,3.06.06,3,.53s0.63,0.43.67,0c0.11-1-1.44-1-2.06-1.08a14.74,14.74,0,0,1-1.78-.16,10.35,10.35,0,0,1-3.4-1.71,0.34,0.34,0,0,0-.41.05,1.35,1.35,0,0,1-1.94.21c-0.16-.15-0.35-0.54-0.55-0.69a1.33,1.33,0,0,0-1-.3c-0.9,0-1.74.33-2.3-.66a2.32,2.32,0,0,1-.13-1.73c0.16-.5.8-1.46,1.41-0.88a0.34,0.34,0,0,0,.58-0.24,3.13,3.13,0,0,1,1.74-2.93c1.38-.52,2.37.79,2.89,1.89a0.34,0.34,0,0,0,.62-0.08,2.13,2.13,0,0,1,1.61-1.46c0.82-.06,1,0.66,1.4,1.23a1.23,1.23,0,0,0,1.39.76,9,9,0,0,0,1.21-.69,2.16,2.16,0,0,1,1.83,0,3.46,3.46,0,0,1,1.71,3.22,0.34,0.34,0,0,0,.51.29c1.16-.66,2.35,1.5,2.53,2.31a1.47,1.47,0,0,1-2.26,1.69,0.34,0.34,0,0,0-.5.2,2.47,2.47,0,0,1-1.64,2.09c-1.1.25-2-.66-2.68-1.39a0.34,0.34,0,0,0-.48.48h0Z" transform="translate(186.18 -41.4)"/><path class="cls-2" d="M491.57,190.26c1.32-1.29,3.11.49,4.52,0.72,1.61,0.26,3-.83,4.63-0.52a6.16,6.16,0,0,0,1.85.23c0.75-.09,1.36-0.61,2.11-0.72a20.64,20.64,0,0,1,2.45.26,7.9,7.9,0,0,0,2.42-.43,0.34,0.34,0,0,0-.18-0.65,7.32,7.32,0,0,1-3.34.32,4.1,4.1,0,0,0-2.21,0c-0.34.13-.65,0.37-1,0.47a3.38,3.38,0,0,1-1.57-.07,5.84,5.84,0,0,0-2-.18c-0.85.13-1.62,0.56-2.48,0.61a6.37,6.37,0,0,1-2.73-.88,2.65,2.65,0,0,0-3,.33,0.34,0.34,0,0,0,.48.48h0Z" transform="translate(186.18 -41.4)"/><path class="cls-2" d="M498.93,191.21l-1.67,5.13a0.34,0.34,0,0,0,.65.18l1.67-5.13a0.34,0.34,0,0,0-.65-0.18h0Z" transform="translate(186.18 -41.4)"/><path class="cls-2" d="M493.93,191.16l-0.56,5.36a0.34,0.34,0,0,0,.67,0l0.56-5.36a0.34,0.34,0,0,0-.67,0h0Z" transform="translate(186.18 -41.4)"/><path class="cls-2" d="M504.66,190.61c-2.76,2.71-3.92,6.44-4.89,10.08a0.34,0.34,0,0,0,.65.18c0.94-3.53,2-7.15,4.72-9.79a0.34,0.34,0,0,0-.48-0.48h0Z" transform="translate(186.18 -41.4)"/><path class="cls-2" d="M515,177.39l-2.24,1.38a0.34,0.34,0,0,0,.34.58l2.24-1.38a0.34,0.34,0,0,0-.34-0.58h0Z" transform="translate(186.18 -41.4)"/><path class="cls-2" d="M504.62,172.51a3.82,3.82,0,0,0-.77,2.43,0.34,0.34,0,0,0,.67,0,3.22,3.22,0,0,1,.67-2.09c0.26-.35-0.32-0.68-0.58-0.34h0Z" transform="translate(186.18 -41.4)"/><path class="cls-2" d="M494.92,174.65a2.7,2.7,0,0,0-1.38-1.83,0.34,0.34,0,0,0-.34.58,2.06,2.06,0,0,1,1.07,1.42c0.09,0.42.74,0.24,0.65-.18h0Z" transform="translate(186.18 -41.4)"/><polyline class="cls-9" points="210.9 139.88 220.93 158.93 209.41 166.56 196.02 150.2"/><path class="cls-2" d="M21,185.51c1.24,0,2.76-.21,3.38-1.47a3.12,3.12,0,0,0-.52-3.28l-0.18.5c1.8-.64,2.36-2.62.68-3.84-1.23-.89-4.31-1.35-4.72.62l0.55-.19c-1.83-1.57-5.3-1.83-5.93,1.1-0.14.64-.16,1.17-0.92,1.17-0.35,0-.7-0.19-1.06-0.2a1.65,1.65,0,0,0-1.16.36c-1,.81-0.8,2.27-0.29,3.29l0.35-.52c-1.43-.41-3.36-0.41-4,1.19a3.8,3.8,0,0,0,1.18,4.14l0.2-.59a1.45,1.45,0,0,0-1.11,2,2.92,2.92,0,0,0,2.51,2.09,2.14,2.14,0,0,0,1.54-.58c0.19-.18.31-0.45,0.5-0.61L13.1,190l0.38,0a2,2,0,0,0,1.76-2.31L15,188.1A10.14,10.14,0,0,0,19,186.39c0.28-.23,2.07-2.26,2.39-1.9s0.73-.19.45-0.51c-0.65-.72-1.71.4-2.17,0.83a14.74,14.74,0,0,1-1.3,1.23,10.35,10.35,0,0,1-3.53,1.42,0.34,0.34,0,0,0-.23.34,1.35,1.35,0,0,1-1.13,1.6c-0.22,0-.63-0.09-0.88,0a1.33,1.33,0,0,0-.86.52c-0.58.69-.9,1.53-2,1.29a2.32,2.32,0,0,1-1.39-1c-0.26-.45-0.56-1.56.28-1.64a0.34,0.34,0,0,0,.2-0.59,3.13,3.13,0,0,1-1-3.25c0.53-1.38,2.16-1.25,3.33-.91a0.34,0.34,0,0,0,.35-0.52,2.13,2.13,0,0,1,0-2.18c0.5-.66,1.18-0.34,1.85-0.24a1.23,1.23,0,0,0,1.49-.54,9,9,0,0,0,.28-1.37,2.16,2.16,0,0,1,1.22-1.37,3.46,3.46,0,0,1,3.54.85,0.34,0.34,0,0,0,.55-0.19c0.27-1.31,2.68-.76,3.4-0.37a1.47,1.47,0,0,1-.23,2.82,0.34,0.34,0,0,0-.18.5,2.47,2.47,0,0,1,.48,2.61c-0.54,1-1.81,1.05-2.81,1.09a0.34,0.34,0,0,0,0,.67h0Z" transform="translate(186.18 -41.4)"/><path class="cls-2" d="M14.93,197.62c-0.09-1.84,2.43-2,3.53-2.91,1.26-1,1.35-2.79,2.67-3.81a6.16,6.16,0,0,0,1.4-1.24c0.43-.62.45-1.42,0.86-2.06a20.64,20.64,0,0,1,1.82-1.66,7.9,7.9,0,0,0,1.28-2.1,0.34,0.34,0,0,0-.61-0.3,7.32,7.32,0,0,1-2,2.72,4.1,4.1,0,0,0-1.46,1.66c-0.13.34-.15,0.73-0.31,1.07a3.38,3.38,0,0,1-1.09,1.13,5.84,5.84,0,0,0-1.44,1.37c-0.46.72-.65,1.59-1.18,2.26A6.37,6.37,0,0,1,16,195.21a2.65,2.65,0,0,0-1.72,2.45,0.34,0.34,0,0,0,.67,0h0Z" transform="translate(186.18 -41.4)"/><path class="cls-2" d="M20.52,192.73l2.74,4.65a0.34,0.34,0,0,0,.56-0.37l-2.74-4.65a0.34,0.34,0,0,0-.56.37h0Z" transform="translate(186.18 -41.4)"/><path class="cls-2" d="M17.17,196.45l3.65,4a0.34,0.34,0,0,0,.47-0.48l-3.65-4a0.34,0.34,0,0,0-.47.48h0Z" transform="translate(186.18 -41.4)"/><path class="cls-2" d="M23.86,188c0.21,3.86,2.24,7.2,4.32,10.34a0.34,0.34,0,0,0,.56-0.37c-2-3-4-6.26-4.21-10a0.34,0.34,0,0,0-.67,0h0Z" transform="translate(186.18 -41.4)"/><path class="cls-2" d="M20.79,171.54l-0.45,2.59a0.34,0.34,0,0,0,.66.13l0.45-2.59a0.34,0.34,0,0,0-.66-0.13h0Z" transform="translate(186.18 -41.4)"/><path class="cls-2" d="M10.26,176.09a3.82,3.82,0,0,0,1.32,2.19,0.34,0.34,0,0,0,.45-0.51,3.22,3.22,0,0,1-1.12-1.89c-0.09-.43-0.73-0.21-0.64.21h0Z" transform="translate(186.18 -41.4)"/><path class="cls-2" d="M5.45,184.78a2.7,2.7,0,0,0-2.28-.18,0.34,0.34,0,0,0,.21.64,2.06,2.06,0,0,1,1.77.14c0.38,0.21.67-.39,0.3-0.61h0Z" transform="translate(186.18 -41.4)"/></svg>