<svg id="Layer_1" data-name="Layer 1" xmlns="http://www.w3.org/2000/svg" viewBox="0 0 42.56 105.79"><defs><style>.cls-1{fill:#4d4d4d;}</style></defs><title>flecha_slide_iz</title><path class="cls-1" d="M4879.7,1612.69c0.32-.14.94-0.61,0.72-0.67l-1.16.65Z" transform="translate(-4842.28 -1506.9)"/><path class="cls-1" d="M4881,1610.32a7.42,7.42,0,0,0-2.64,1.43c1.17-.55.76-0.21,2.13-0.88,0.23,0.06-.17.5-0.59,0.75,0.32-.14-0.08.39,0.66,0,0.71-.77.58-1-0.29-0.81A3.21,3.21,0,0,1,4881,1610.32Z" transform="translate(-4842.28 -1506.9)"/><path class="cls-1" d="M4872.94,1594.87l-0.07.18A0.26,0.26,0,0,0,4872.94,1594.87Z" transform="translate(-4842.28 -1506.9)"/><path class="cls-1" d="M4867.46,1585.61a0.31,0.31,0,0,0,.3-0.06A0.34,0.34,0,0,0,4867.46,1585.61Z" transform="translate(-4842.28 -1506.9)"/><path class="cls-1" d="M4867.62,1583.27a0.9,0.9,0,0,0,0,.14C4867.69,1583.31,4867.72,1583.24,4867.62,1583.27Z" transform="translate(-4842.28 -1506.9)"/><path class="cls-1" d="M4872.94,1594.87l0.18-.47C4872.75,1594.63,4872.94,1594.7,4872.94,1594.87Z" transform="translate(-4842.28 -1506.9)"/><path class="cls-1" d="M4877.06,1610.16a0.91,0.91,0,0,0,.38-0.07l-0.2,0Z" transform="translate(-4842.28 -1506.9)"/><path class="cls-1" d="M4876.5,1598.16l0.05,0.07,0.48-.24Z" transform="translate(-4842.28 -1506.9)"/><path class="cls-1" d="M4878.72,1601a7.79,7.79,0,0,0-1.37.77,1.7,1.7,0,0,1,.74-0.29C4878.27,1601.4,4878.47,1601.25,4878.72,1601Z" transform="translate(-4842.28 -1506.9)"/><path class="cls-1" d="M4880.35,1606.91h0Z" transform="translate(-4842.28 -1506.9)"/><path class="cls-1" d="M4875.23,1595.88l0.31-.25A2.54,2.54,0,0,0,4875.23,1595.88Z" transform="translate(-4842.28 -1506.9)"/><path class="cls-1" d="M4875.19,1509.76l0.17,0.11A0.24,0.24,0,0,0,4875.19,1509.76Z" transform="translate(-4842.28 -1506.9)"/><path class="cls-1" d="M4882.14,1509.14l0,0.08,0.53,0.34Z" transform="translate(-4842.28 -1506.9)"/><path class="cls-1" d="M4866.91,1579.69v0C4867.06,1579.72,4867,1579.69,4866.91,1579.69Z" transform="translate(-4842.28 -1506.9)"/><path class="cls-1" d="M4855.67,1559.74c-1-.24-0.79-1.16-2-1.31C4854.05,1558.62,4854.89,1559.76,4855.67,1559.74Z" transform="translate(-4842.28 -1506.9)"/><path class="cls-1" d="M4877.13,1610a0.31,0.31,0,0,1-.09-0.12A0.1,0.1,0,0,0,4877.13,1610Z" transform="translate(-4842.28 -1506.9)"/><path class="cls-1" d="M4853.65,1558.42h0Z" transform="translate(-4842.28 -1506.9)"/><path class="cls-1" d="M4862,1573.71a3.32,3.32,0,0,0-.36.34A2.24,2.24,0,0,0,4862,1573.71Z" transform="translate(-4842.28 -1506.9)"/><path class="cls-1" d="M4863.92,1579.36l0-.2A0.27,0.27,0,0,0,4863.92,1579.36Z" transform="translate(-4842.28 -1506.9)"/><path class="cls-1" d="M4859,1572.14c0-.11.14-0.22,0-0.22l-0.09.1C4859,1572,4859.07,1572,4859,1572.14Z" transform="translate(-4842.28 -1506.9)"/><path class="cls-1" d="M4857.21,1569.58l-0.15.18,0.11,0Z" transform="translate(-4842.28 -1506.9)"/><path class="cls-1" d="M4870.64,1518.06a9,9,0,0,1,.93.41C4870.86,1518.09,4870.87,1517.55,4870.64,1518.06Z" transform="translate(-4842.28 -1506.9)"/><path class="cls-1" d="M4877.58,1609.8a1,1,0,0,1-.45.2l0.11,0.05A1.8,1.8,0,0,0,4877.58,1609.8Z" transform="translate(-4842.28 -1506.9)"/><path class="cls-1" d="M4851.59,1577.06l-0.14-.5A0.8,0.8,0,0,0,4851.59,1577.06Z" transform="translate(-4842.28 -1506.9)"/><path class="cls-1" d="M4858.95,1537.08l-0.05-.17S4858.85,1537,4858.95,1537.08Z" transform="translate(-4842.28 -1506.9)"/><path class="cls-1" d="M4850.48,1575.44a2.41,2.41,0,0,0,.48-0.67,1.94,1.94,0,0,0-.27.12Z" transform="translate(-4842.28 -1506.9)"/><path class="cls-1" d="M4871.58,1518.48h0Z" transform="translate(-4842.28 -1506.9)"/><path class="cls-1" d="M4871,1514.3c-0.28.38,1.11,1,1.78,1.49,0.06,0.7-1.06-.36-1.8-0.59,0.15,0.51,1.15,1.45,1,1.64a1.69,1.69,0,0,1-.55-0.33c0.8,0.94-.54,1,0.49,2.11a2.18,2.18,0,0,1-.34-0.15,17.59,17.59,0,0,1,1.76,1c-0.09.19,0.58,0.83-.28,0.38a0.93,0.93,0,0,0-.46-0.52l0.24,0.41c-1.28-.57-0.25-0.51-1.12-1.05,0.15,0.6.86,1.64,0.35,1.71-1.19-.66,0-0.9-1.24-1.16l0.71-.16c-2-.8.29-0.18-1.84-1.09-0.69.36,0.19,1-.5,1.36,0.56,0.53,1,.55,1.53,1.08,0.64,1.53-3.3-1.17-2.13.38,0.67,0.63,2.09,1.6,1.06,1.55l-1.21-1c-0.47.47,1.68,1.49,0.44,1.52-0.45-.42-0.16-0.7-0.37-0.72-1.26-.27.57,0.73,0.39,1l-1.19-.66c-0.19.7,0.24,1.87,0,2.65a2.37,2.37,0,0,0-1.06-.66c0.06,1.18-1.24,1.67-2.42,2l0.81,0.92a1,1,0,0,1-.68-0.35c-0.57.07,0.62,0.41,0.92,0.8,0,0.22-.72-0.13-0.95-0.42,0.5,1.07.85,2.69-.58,2.6l-0.23-.3c-0.68.2,1.73,1.78,0.54,1.61l-0.13-.19c-1,.7-0.8,2.34-2.76,2.15,1.35,1-1.24.56,0.72,1.87-1.34-.06-1.6-0.45-2.75-0.08-0.22.15,1.05,1.09,1.1,1.48l-1-.65,0.88,1-1.37-.59,0.12,0.41a1.48,1.48,0,0,1,.89.29c0.24,0.67-1.3.47-1.84,0.14l0.33,1.45a2.15,2.15,0,0,1-.65-0.81c0.77,1.14-1.16-.6-0.45.45a3.94,3.94,0,0,1,.81.56,0.77,0.77,0,0,0-1,.85l-0.68-.52c-0.6.55-.53,1.61-1,2.35a2.44,2.44,0,0,1,1.7,1.08l-1.16-.6c0.6,0.57.56,0,1.22,0.84-0.3.2-1.37-.6-1.63-1l0.17,0.58a10.43,10.43,0,0,1-.87-0.66c0.6,0.57-1.47-.11-0.41.83l-0.34-.19a12.37,12.37,0,0,0-.63,2c0.95,0.61.59,0.71,1.25,1.37-0.58.25-1.64,0.28-1.9,0.87,0.24,0.67.74,0.61,1.2,1.14-0.89-.51-1.14.07-1.59-0.6a3.27,3.27,0,0,0-.14,2.19,2.07,2.07,0,0,1,.89.37c0.05,0.24-.57.11-1-0.17l-0.07-.1c0.73,1.73-3.85.53-2.49,2.39l-0.06-.1,0.47,1.34c-0.37.25-.52-0.62-1.22-0.7,0.94,1.72-1,1.16-.47,2.43-1.44-.54-1.69-0.05-1.83.53a2.16,2.16,0,0,1-1.7,1.87l0.71,0.21c0.45,0.6-.63.23-0.95,0.44,0.56,0.15.83-.13,1.08,0.22-0.45,1.58-1.63,2.84-3.2,4.41a28,28,0,0,0,1.39,4.33c0.3,0.6,1.27.39,2.06,0.25s1.38-.24,1,0.78l-0.69.16-0.7.14a5.68,5.68,0,0,1,.93.56l0.19,0.15,0.12,0.07,0.22,0.16a3.28,3.28,0,0,1,.64.83,2.29,2.29,0,0,0,1.62,1.38,1.2,1.2,0,0,1-.69.22c-0.63.78,0.55,0.89,1.2,0.45a3.17,3.17,0,0,1-.81.77c-0.31.55,1.41-.11,0.71,0.56a0.57,0.57,0,0,1-.39.11c0.49-.11.39,0.78,1.2,0-0.15.71,1,.51,0.64,1.22,1.17-.49,0,1,1.49.12-1.51,1-.7,1.55.18,1.33-0.51.22-.31,0.55-1,0.87,0.23,0.28.69,0.37,1.42-.21-1.41,1.78,2.2.12,0.12,2a11.38,11.38,0,0,1,3.42,1.35c-1.51,1-.75-0.78-2.29.32,1.13,0.34,2.71-.1,2.87.9-0.07.33-.72,0.33-1,0.44,1.13,0.34.87,1.56,2.14,1.67a1.05,1.05,0,0,1-.5.13c0.14,0.1,0,.46.66,0h-0.27c0.84-.89,2.41-0.88,2.95-1.21-2.09,1.11,0,1-2.72,2.32a1.94,1.94,0,0,0,1-.44,1.17,1.17,0,0,1-.88.66c0.69,0.22,1.3-.44,1.58,0a8.63,8.63,0,0,1-.93.44c0.79-.22,1.58-0.44,1.55.11a0.65,0.65,0,0,1-.51.22c0.53,0.56,2.43-.1,2.29,1-1.56.77-.31,0.56-1.51,1.44l0.62,0.12,0.5-.56c0.2,0.34,1.29,0,1.08.56l-0.67.11,0.65,0.45,0.23-.66c0.86-.11,1.53-1.1,1.49-0.44a2,2,0,0,1-.4,1h0c0.5-.11,1-0.23.89,0.22-0.35.33-1.4,0.89-1.63,1.11,1.14-.55.8,0.56,2,0a5.26,5.26,0,0,0-1.07.66l0.93-.44a1.63,1.63,0,0,1-.81.77c0.16,0.56,1.46-1.22,1.16-.22a1.88,1.88,0,0,1-.39.11c0,0.78,1.24.67,1.17,1.45-1.14,1-.6-0.22-1.53.66,0.71,0.56,2.5.45,2.68,1.34l0-.22c1.81-1.11-.51,1.11.55,0.89a3.14,3.14,0,0,0-.84.44c0,0.66,1.09.67,2.13,1l-0.51.22c-0.21.55,0.27,0.89,0.27,1.33a2,2,0,0,0,1.14-.55c-1.92,2.68,2.58.82,1,3.11a0.48,0.48,0,0,0-.5.12l0.89,0.41a3.72,3.72,0,0,0,.89-1,1.14,1.14,0,0,1,1.12-.09,2.53,2.53,0,0,0-1.55,1.27c0.22-.18.51-0.31,0.74-0.49-1.1,1.3,1.57-1,1,.13l-0.42.25c0.33,0,1-.15,1,0.13-0.82.69-.55,0.08-1.28,0.57,0.25,0.25,2.05-.59,1.35.27-0.33,0-.45-0.12-0.78-0.07-0.84,1-.56.84-0.58,1.16v0l-0.14.8,0.2-.31c2.54-1.22.91,0.43,2.75-.12-1.74.52-.88,0.49-1.9,1.14a2,2,0,0,1-.69.85c1-.33-0.38.81,1,0.32a1.53,1.53,0,0,1-.71.77c0.45,0.12.51-.45,0.93-0.71,1.41-.3-0.6,2,1.35,1.59,1,0.13,2.16-.51,3.06-0.36a2.21,2.21,0,0,1-1.27.66c-0.28.61,0,.76,0.51,0.77a2.5,2.5,0,0,0-.82.69c0.23,0.16,1.27-.66,1-0.05a12.89,12.89,0,0,1-1.44.67c0.47,0,1.24-.11,1.71-0.05a3.18,3.18,0,0,1-1.39.59,2.19,2.19,0,0,0,2-.11l0.19-.41a1.9,1.9,0,0,1-.94.61c-0.87.23,0.06-.57,0.37-0.81l0.33,0c1.75-1.49-.82-0.54-1-1l1.48-.79-1.4.4a2.67,2.67,0,0,1,1.36-.86c0.49-.73-0.65.1-0.05-0.65a0.44,0.44,0,0,1,.25-0.15l-0.59,0c0.32-.15.94-0.71,0.85-0.41,0.47-1-1.55-.05-0.63-0.94l0.11,0c-0.91-.33-1.05.63-2.57,1l2.26-2-1.05.63a0.54,0.54,0,0,1,.39-0.53c-0.86.22-.41,0.34-1.16,0.64,0.69-1-1-.6.51-1.77-0.84.41-.38,0.72-1.15,0.73,1.66-1.28-.57-0.2,0-1,1-.52.67,0.08,1.26-0.76-1.63.85-.07-0.8-0.53-0.85-1.21.81-.87-0.2-1.56-0.34,0.42-.25.12-1.24,0.28-1.93l0.21-.13c-1.26.76-1.31,0.2-1.76,0.08a3.41,3.41,0,0,1,1.49-.69l-0.19-.27a1.28,1.28,0,0,1-1,.17l1-.55c-0.3-.33-1.57,0-1.29-0.89-0.86.55-2.09,2-3,1.88a4.9,4.9,0,0,1,1.49-.88c-0.09,0-.48.11-0.35-0.11l0.9-.33c0.19-.45-0.72.33-0.77,0.11,0.65-.44.38-0.45,0.91-0.78,0.09,0-.17.33,0.13,0.22a1.84,1.84,0,0,1,.65-1.19,1.9,1.9,0,0,1-1.06.52c-0.3-.33.7-0.66,0.89-1.11-0.51.22-.21-0.33-1.18,0.33a1.74,1.74,0,0,1,.61-0.66c-0.56.1-.73-0.8-1.62,0.12l0,0.1h-0.06c-1.39,0-.34-1.67-1.18-2l0.33-.22c-0.62-.11-0.78-0.67-1.66-0.45a1.69,1.69,0,0,1,.84-0.89c-0.44-.11-0.83.11-0.57-0.67,0.76-.11.44-0.44,0.62,0,0-.56.49-1-0.67-0.78,0.93-.44.86-1,0.49-1l-0.42.67a0.65,0.65,0,0,1-.35-0.56l1.16-.66c0.82-1.67-3.2.21-1.35-1.89-0.9.33-.26,0.78-1.28,1.22-0.09-.45,1.24-1.89,1.17-2,0.28-.89-1.9.66-1.83-0.12a3.21,3.21,0,0,1-2,1c-0.09-.44,1.35-1.55,1.81-1.55,0.09,0.06,0,.19-0.14.27a0.8,0.8,0,0,0,.82-0.38l-0.42.22c0.28-.45-0.09-0.89.63-1.22a0.72,0.72,0,0,0-.79.66c0.26-.83-0.46-0.7-0.39-1.42a1.44,1.44,0,0,1-.62.53c0-1-.94.22-1.43-0.12,0.42-.67,1.49-0.89.67-1a2,2,0,0,1,1.39-.88c-1,.1,0-1.11-0.06-1.45H4868a0.41,0.41,0,0,1-.42-0.22l-0.7.66a0.58,0.58,0,0,1,.3-0.55,14.19,14.19,0,0,1-2.11,1.21c0.28-.44-0.78-0.23.21-1,0,0.78,1-.78,1.48-0.44-0.18,0-.25-0.11-0.2-0.34a0.5,0.5,0,0,1,.31-0.14c0.57-1.15-1.34.57-1.68,0,0.63-.33,1-0.89.84-0.89,0.14,0.22-.91.77-1.49,0.88,0.22-.65-0.59-0.14-0.66-0.35l-0.07.35a0.84,0.84,0,0,1-1,0c0.44-.33.46,0,0.6-0.22-1.21.44,0.65-1.33-.29-1.22,0.28-.44,1.09-0.77,1.25-1.11-1,.11.49-1-0.43-1a1.86,1.86,0,0,1-1.47.78l1,0.33-1.46.33c0.14,0.22.81,0.12,0.76,0.34a1.6,1.6,0,0,0-1.16.66c1-1.11-1.09-.11-0.53-1l2-1.33c0.52-1.11-1.62-.22-1.59-1.23l-0.19.45c-0.83.44-.39-0.34-0.85-0.34a4.59,4.59,0,0,0,1.15-1.09c-0.48.34-.29-0.52-1.63,0.32l0.65-.89c0-.78-2.28.66-2.41,0,0.81-.33,1.11-0.88,1.86-0.88-0.11-.18-0.1-0.41-0.55-0.11,0.34-.38-1.21.12-0.7-0.46-0.34.12-1,.57-1.11,0.34a1.75,1.75,0,0,1,.32-0.22,2.46,2.46,0,0,0-1.25.66c1.67-1.93-1.17-1.38.26-3a4.47,4.47,0,0,1-1.28-.85c0.21-.11.33-0.22,0.3-0.11,0.28-.89-2.07,1-1.76,0,0.86-1,.77-0.11,1-0.55,2.09-1.55-.74-0.45.27-1.67h0.19c0.54-.78-1.27-0.12-1.43-0.67a1.87,1.87,0,0,0,.33-0.22,3.42,3.42,0,0,1-2.67-.12,3.19,3.19,0,0,0,1.37-.77c-0.25-.11-1.33,1-1.83.77a5.11,5.11,0,0,1,1.59-1.47l0.18,0.16c1.14-.87-0.2-0.2-0.06-0.44l0.57-.28c-0.32-.12-1.84.45-2,0l-0.45.18c-0.88.1-.7,0-0.46-0.15s0.56-.23-0.15-0.24l0.83-.19,0.84-.18a9.34,9.34,0,0,1-2.38-.49,0.57,0.57,0,0,1-.08-0.12l0.63,0.11a22.82,22.82,0,0,0,2.48.3,1.56,1.56,0,0,0-1.12-.33l-0.18,0,0.07,0c0.24,0,.59.07,0.36,0.12a10.08,10.08,0,0,1-1.17-.11c-0.66-.13-0.87-0.38-0.69-0.63,1.7,0.17,2,0,2.24-.12s0.38-.37,1.57,0c-0.47-.32-0.23-0.47.06-0.48a0.54,0.54,0,0,0,.3-0.12l0.35-.22a1.36,1.36,0,0,0,.52-0.59c-2.22-.94.11-0.3-2-1.54,0-.3.08-0.36,0.23-0.29l1.64,0.13c0.7,0.22.33,0.49,0.81,0.76,0.45-.36,1,0.35,1.74.39-0.78-.4-1-0.83-0.51-0.91l-1.19-.22c-0.7-1.34,2.09.53,1.41-.81l0.52,0.61c-0.18-.58.79-1.23-0.67-2.6a1.77,1.77,0,0,1,1,.61c0.75-.65-0.66-2.89.76-2.88l0.47,0.38c-0.05-.24-0.79-0.86-0.16-0.72a1.31,1.31,0,0,0,.54.33c-0.12-.19-0.64-1-0.22-1l0.46,0.53c1.15-.37-0.64-2.07-0.58-2.94a2.86,2.86,0,0,0,2.8.47l0.21,0.14c0.75-.8-0.27-2.32-0.33-3.53,1.95,0.49,1.79-1.35,3.22-1.62a2.42,2.42,0,0,1-1.21-1c0.43,0-.69-1.19.66-0.31l-0.07.05c1.44,0.69,1.33.06,1.57-.23l-1.76-1.17c3.12,0.8.4-2.77,3-1.77-0.32-.48-0.16-0.72-0.49-1.2l1,0.61a2,2,0,0,0,1.08-1.43l0.6,0.57c0.3-.35-2.46-2.22-2.3-2.61l1.5,0.79c0.4-.69,2.08-0.58,1.2-2.06a1.5,1.5,0,0,1,.6.57c0.24-.29,1.74-0.62-0.3-1.74,1.29,0.79.56-.62,0.22-1.33l0.91,0.65c-1-1.06-1.34-1.28-1.41-1.92,0.19,0,.81.38,0.49,0.37,0.71,0-.73-0.82,0-0.92l0.51,0.53c0.29-.3-0.05-0.48-0.63-1.11-0.24-.46.65-0.51,1.54,0-0.49-.37-1.07-1-0.69-1.05a1.54,1.54,0,0,1,.57.47c1-.18-0.56-1.55.62-1.37a2.31,2.31,0,0,0,.61.28,1.62,1.62,0,0,1-.64.71c0.87,0.54,1.26.27,2.28,1.32-0.47-.71-1.58-2.12-0.94-2.23a3,3,0,0,1,.33.14l0.07,0.1c0.14,0,.11-0.16,0-0.32a0.67,0.67,0,0,0,.45-0.14c0.75,0.41.66-.19,0.81-0.35-1-.58-0.66-0.73-1.59-1,0.09,0,.09.11,0.05,0.26a0.26,0.26,0,0,0,0,.14l-0.08-.07a4.12,4.12,0,0,1-.23.5c-0.39-.45-0.7-0.86,0-0.73-0.55-.48-1.12-1-1.38-1.22,1.49,0.58,2.52.53,3.38,1-0.18-.9.49-1.56-1.08-3-0.13-.31.63,0.13,0.95,0.25a1.19,1.19,0,0,0,.25.51c-0.26-.61.42-1.07-0.78-1.93,0.82-.06,1,0.95,1.15.26l0.34,0.31c2.69,0.15-2.07-3.79,1.26-3.41a1.06,1.06,0,0,1-.53-0.13c2-.69.73-3.54,3.39-3.79,0.61-.17-0.17-0.71-0.62-1.33l1.08,0.56-0.93-1.15c-0.5-1.12,3.14.57,2-1.19l-0.75-.34c0.29-.18.11-1.09,0.88-0.55-0.11-.11-0.66-0.53-0.24-0.41l0.54,0.33-0.52-1.22c0.7-.26,2.08,1.41,2.64.74a4.12,4.12,0,0,0-1.5-1.87,1.19,1.19,0,0,1-1.05-.26l-0.12-.42c-1.55-1-3-2.23-4.53-2.31l0.7,1-0.85-.34,0.18-.39c-0.85-.25-0.29.28,0.06,0.7a2.77,2.77,0,0,0-1-.35l1.25,1.36c-0.65-.34-1.11-1-1.62-0.89,0.58,0.63,1.5.68,1.76,1.29-0.84-.24-1.39-0.67-0.93,0a1.79,1.79,0,0,1-.77-0.64c0.35,0.52-.15.69,0.63,1.33-1-.34-0.22.86-1.7-0.09a3,3,0,0,1,.88,1.34c-1.57-1.47-.56.67-2.42-0.63,1.44,1.27.12,1.4,0.72,2.43-0.11-.11-0.34-0.32-0.23-0.31a2.67,2.67,0,0,1-1.24-.07,8,8,0,0,1,2,2.2c-1.48-.48-1.44-1.17-2.73-1.84,1.09,0.66.72,1.23,1.69,1.68a4.88,4.88,0,0,1-1.7-.59c1.64,1.08.14,0.41,1,1.25-1-.15-1.61-0.88-1.35-0.17A1.75,1.75,0,0,1,4871,1514.3Zm-3,11.13h0l0.07-.23S4868.1,1525.31,4868.08,1525.43Zm-0.47.79a1,1,0,0,0,.25-0.32,1,1,0,0,1,.6.49A1.65,1.65,0,0,0,4867.61,1526.22Zm7.64,2.47c0.06,0.21-.16.13-0.36,0a0.81,0.81,0,0,0,0-.29l-0.11-.09A5.12,5.12,0,0,1,4875.25,1528.69Z" transform="translate(-4842.28 -1506.9)"/><path class="cls-1" d="M4874.14,1527.69a0.24,0.24,0,0,1,0-.09l-0.26-.06,0.27,0.23Z" transform="translate(-4842.28 -1506.9)"/><path class="cls-1" d="M4872.86,1595.08v0a0.68,0.68,0,0,1-.11.12Z" transform="translate(-4842.28 -1506.9)"/><polygon class="cls-1" points="16.74 29.01 16.99 29.16 16.82 28.95 16.74 29.01"/><path class="cls-1" d="M4872.56,1601.46a1,1,0,0,0-.2.22A1.28,1.28,0,0,0,4872.56,1601.46Z" transform="translate(-4842.28 -1506.9)"/><path class="cls-1" d="M4873.6,1603.42l-0.15.48A1.45,1.45,0,0,0,4873.6,1603.42Z" transform="translate(-4842.28 -1506.9)"/><path class="cls-1" d="M4874.1,1605.13l0.42-.25h0Z" transform="translate(-4842.28 -1506.9)"/><path class="cls-1" d="M4857.78,1583.71a0.12,0.12,0,0,0-.08,0C4857.44,1583.69,4857.57,1583.72,4857.78,1583.71Z" transform="translate(-4842.28 -1506.9)"/><path class="cls-1" d="M4864.48,1588.82a3.12,3.12,0,0,1-.58.09C4863.91,1589.08,4864,1589.18,4864.48,1588.82Z" transform="translate(-4842.28 -1506.9)"/><path class="cls-1" d="M4851.61,1577.12h0l0,0v0.06Z" transform="translate(-4842.28 -1506.9)"/><path class="cls-1" d="M4863.7,1588.59c-0.1.24,0,.32,0.19,0.32C4863.89,1588.77,4863.91,1588.59,4863.7,1588.59Z" transform="translate(-4842.28 -1506.9)"/><path class="cls-1" d="M4877.83,1611.46v0.09l0.15-.09h-0.16Z" transform="translate(-4842.28 -1506.9)"/><path class="cls-1" d="M4878,1611.46h0.16S4878.1,1611.4,4878,1611.46Z" transform="translate(-4842.28 -1506.9)"/><path class="cls-1" d="M4878.49,1611.46h-0.34C4878.19,1611.52,4878.2,1611.6,4878.49,1611.46Z" transform="translate(-4842.28 -1506.9)"/><path class="cls-1" d="M4877,1609.32l-0.35.21A3,3,0,0,0,4877,1609.32Z" transform="translate(-4842.28 -1506.9)"/><path class="cls-1" d="M4876.51,1608.83c0,0.19-.49.83-0.15,0.87l0.28-.17C4876.08,1609.79,4877.16,1608.56,4876.51,1608.83Z" transform="translate(-4842.28 -1506.9)"/><path class="cls-1" d="M4879.05,1603.63l0.05,0.65a1.17,1.17,0,0,1,.94-0.61C4880.71,1602.35,4879.33,1604.35,4879.05,1603.63Z" transform="translate(-4842.28 -1506.9)"/><path class="cls-1" d="M4878.57,1601.82c0.34,0.14.52-.36,0.73-0.49A0.68,0.68,0,0,0,4878.57,1601.82Z" transform="translate(-4842.28 -1506.9)"/><path class="cls-1" d="M4871.34,1591.29l0.86-.55C4871.95,1590.62,4871.87,1591,4871.34,1591.29Z" transform="translate(-4842.28 -1506.9)"/><polygon class="cls-1" points="23.32 85.36 22.93 85.91 23.76 85.47 23.32 85.36"/><polygon class="cls-1" points="28.51 80.05 28.69 80.05 28.16 79.94 28.51 80.05"/><path class="cls-1" d="M4858.34,1569.47l-1,.77C4857.62,1570.25,4858.81,1569.48,4858.34,1569.47Z" transform="translate(-4842.28 -1506.9)"/><path class="cls-1" d="M4852.59,1563.37c0.6-.24,1-0.41.28-0.33C4852.83,1563.14,4852.39,1563.37,4852.59,1563.37Z" transform="translate(-4842.28 -1506.9)"/><polygon class="cls-1" points="24.01 36.44 24.27 36.83 24.16 36.34 24.01 36.44"/></svg>