<svg id="Layer_1" data-name="Layer 1" xmlns="http://www.w3.org/2000/svg" viewBox="0 0 41.03 102.8"><defs><style>.cls-1{fill:#4d4d4d;}</style></defs><title>flecha_slide_der</title><path class="cls-1" d="M4846.26,1609.68c0.25,0.25.91,0.66,0.88,0.43l-1-.85Z" transform="translate(-4844.72 -1507.53)"/><path class="cls-1" d="M4849,1610.08a7.43,7.43,0,0,0-2.28-1.95c0.93,0.89.47,0.63,1.59,1.67,0,0.23-.53,0-0.91-0.29,0.24,0.24-.4.06,0.23,0.61,1,0.39,1.18.17,0.65-.56A3.21,3.21,0,0,1,4849,1610.08Z" transform="translate(-4844.72 -1507.53)"/><path class="cls-1" d="M4860.47,1597h-0.19A0.26,0.26,0,0,0,4860.47,1597Z" transform="translate(-4844.72 -1507.53)"/><path class="cls-1" d="M4867.15,1588.54a0.31,0.31,0,0,0,.17.26A0.34,0.34,0,0,0,4867.15,1588.54Z" transform="translate(-4844.72 -1507.53)"/><path class="cls-1" d="M4869.39,1587.85l-0.14,0C4869.37,1587.92,4869.45,1587.93,4869.39,1587.85Z" transform="translate(-4844.72 -1507.53)"/><path class="cls-1" d="M4860.47,1597H4861C4860.63,1596.71,4860.63,1596.91,4860.47,1597Z" transform="translate(-4844.72 -1507.53)"/><path class="cls-1" d="M4847.68,1606.31a0.9,0.9,0,0,0,.2.33,0.85,0.85,0,0,1,0-.2Z" transform="translate(-4844.72 -1507.53)"/><path class="cls-1" d="M4858.67,1601.48l0,0.07,0.4,0.36Z" transform="translate(-4844.72 -1507.53)"/><path class="cls-1" d="M4856.79,1604.59a7.77,7.77,0,0,0-1.21-1,1.7,1.7,0,0,1,.53.58C4856.28,1604.29,4856.5,1604.43,4856.79,1604.59Z" transform="translate(-4844.72 -1507.53)"/><path class="cls-1" d="M4851.9,1608.21l0.07,0.17S4851.93,1608.27,4851.9,1608.21Z" transform="translate(-4844.72 -1507.53)"/><path class="cls-1" d="M4860.35,1599.47l0.35,0.2A2.54,2.54,0,0,0,4860.35,1599.47Z" transform="translate(-4844.72 -1507.53)"/><path class="cls-1" d="M4846.21,1515.35l0.17-.11A0.24,0.24,0,0,0,4846.21,1515.35Z" transform="translate(-4844.72 -1507.53)"/><path class="cls-1" d="M4848.7,1508.83l0.08,0,0.54-.32Z" transform="translate(-4844.72 -1507.53)"/><path class="cls-1" d="M4872.47,1585.9h0C4872.5,1586,4872.51,1586,4872.47,1585.9Z" transform="translate(-4844.72 -1507.53)"/><path class="cls-1" d="M4882.57,1554.81c-0.67.83-1.4,0.2-2.06,1.24C4880.85,1555.77,4882.24,1555.52,4882.57,1554.81Z" transform="translate(-4844.72 -1507.53)"/><path class="cls-1" d="M4847.85,1606.31a0.31,0.31,0,0,1,.08-0.13A0.1,0.1,0,0,0,4847.85,1606.31Z" transform="translate(-4844.72 -1507.53)"/><path class="cls-1" d="M4880.5,1556h0l-0.06.1Z" transform="translate(-4844.72 -1507.53)"/><path class="cls-1" d="M4876.29,1579.15a3.3,3.3,0,0,0-.45-0.21A2.24,2.24,0,0,0,4876.29,1579.15Z" transform="translate(-4844.72 -1507.53)"/><path class="cls-1" d="M4871.71,1583l0.2,0A0.28,0.28,0,0,0,4871.71,1583Z" transform="translate(-4844.72 -1507.53)"/><path class="cls-1" d="M4876.68,1575.79c0.11,0,.26.05,0.19-0.12l-0.13-.05C4876.84,1575.73,4876.87,1575.82,4876.68,1575.79Z" transform="translate(-4844.72 -1507.53)"/><path class="cls-1" d="M4878.43,1573.22l-0.22-.08v0.12Z" transform="translate(-4844.72 -1507.53)"/><path class="cls-1" d="M4851.68,1523.08a9,9,0,0,1,.78-0.66C4851.81,1522.89,4851.32,1522.65,4851.68,1523.08Z" transform="translate(-4844.72 -1507.53)"/><path class="cls-1" d="M4848.2,1606.66a1,1,0,0,1-.35-0.35,0.4,0.4,0,0,0,0,.12A1.8,1.8,0,0,0,4848.2,1606.66Z" transform="translate(-4844.72 -1507.53)"/><path class="cls-1" d="M4869.44,1570.66l0.42-.31A0.8,0.8,0,0,0,4869.44,1570.66Z" transform="translate(-4844.72 -1507.53)"/><path class="cls-1" d="M4863.64,1541.93l-0.17,0C4863.47,1542,4863.52,1542,4863.64,1541.93Z" transform="translate(-4844.72 -1507.53)"/><path class="cls-1" d="M4870.55,1569a2.41,2.41,0,0,0,.8.21,2,2,0,0,0-.21-0.21h-0.59Z" transform="translate(-4844.72 -1507.53)"/><path class="cls-1" d="M4852.47,1522.42h0Z" transform="translate(-4844.72 -1507.53)"/><path class="cls-1" d="M4848.48,1521.07c0.22,0.42,1.34-.58,2.12-0.94,0.65,0.25-.78.8-1.32,1.36,0.52,0.09,1.81-.4,1.9-0.15a1.69,1.69,0,0,1-.53.35c1.19-.31.63,0.9,2.11,0.49a2.2,2.2,0,0,1-.28.24,17.6,17.6,0,0,1,1.69-1.13c0.13,0.17,1-.16.22,0.42a0.92,0.92,0,0,0-.67.18l0.47,0c-1.07.9-.57,0-1.44,0.54,0.61,0.13,1.85-.06,1.69.43-1.12.78-.8-0.41-1.59,0.6l0.17-.71c-1.61,1.47,0-.34-1.79,1.18,0,0.78,1,.27,1,1.05,0.72-.27.92-0.63,1.64-0.91,1.66,0.09-2.5,2.45-.59,2.08,0.86-.33,2.36-1.18,1.85-0.27l-1.39.67c0.22,0.63,2.07-.85,1.56.27-0.58.22-.7-0.16-0.81,0-0.79,1,.9-0.2,1.08.09l-1.12.78c0.55,0.48,1.79.6,2.4,1.12a2.37,2.37,0,0,0-1.05.66c1.09,0.46,1,1.84.77,3.06l1.18-.32a1,1,0,0,1-.61.46c-0.18.54,0.64-.38,1.13-0.47,0.18,0.13-.43.59-0.8,0.67,1.18,0,2.79.42,2.08,1.66l-0.37.07c-0.12.7,2.36-.77,1.69,0.22l-0.23,0c0.18,1.24,1.76,1.74.72,3.42,1.52-.76,0,1.36,2,0.17-0.65,1.17-1.1,1.24-1.28,2.44,0,0.27,1.44-.47,1.81-0.34l-1,.66,1.31-.33-1.13,1,0.42,0.07a1.48,1.48,0,0,1,.65-0.67c0.71,0.08-.15,1.38-0.68,1.72l1.44,0.34a2.15,2.15,0,0,1-1,.23c1.37-.19-1,0.77.2,0.6a4,4,0,0,1,.86-0.48,0.77,0.77,0,0,0,.3,1.31l-0.76.38c0.23,0.78,1.22,1.18,1.67,1.93a2.44,2.44,0,0,1,1.71-1.05l-1.05.78c0.77-.29.27-0.49,1.29-0.72,0,0.36-1.14,1-1.6,1l0.59,0.1a10.38,10.38,0,0,1-1,.5c0.77-.29-0.74,1.28.57,0.73l-0.32.22a12.33,12.33,0,0,0,1.48,1.42c1-.58.9-0.21,1.78-0.52,0,0.64-.47,1.6-0.05,2.08,0.71,0.08.88-.39,1.55-0.58-0.85.57-.44,1.06-1.23,1.17a3.27,3.27,0,0,0,1.9,1.09,2.07,2.07,0,0,1,.72-0.64c0.23,0.06-.15.56-0.59,0.8l-0.11,0c1.87,0.1-1.22,3.69,1.05,3.29l-0.11,0,1.41,0.17c0.07,0.44-.78.2-1.16,0.79,2-.09.59,1.42,2,1.48-1.12,1.06-.79,1.49-0.32,1.87,0.56,0.54.82,0.34,0,.8l0.66-.29c0.67-.24-0.35.2-0.51,0.27,0.53-.19.59-0.27,1-0.38,0.58,0.06.47,0.51,0,.65a3,3,0,0,1-1.56,0c-0.09,0,.78.33,1.43,0.67s1.09,0.66.27,0.36l-0.55-.36-0.57-.34a1.8,1.8,0,0,1,.35.29,0.28,0.28,0,0,1,0,.06l0,0.14a1.75,1.75,0,0,1-.07.26,3.28,3.28,0,0,1-.55.89,2.29,2.29,0,0,0-.71,2,1.19,1.19,0,0,1-.45-0.57c-1-.31-0.63.84,0,1.28a3.17,3.17,0,0,1-1-.48c-0.63-.09.61,1.28-0.27,0.86a0.57,0.57,0,0,1-.24-0.33c0.28,0.42-.59.64,0.43,1.12-0.72.12-.14,1.07-0.91,1,0.87,0.92-1,.37.42,1.43-1.47-1.05-1.7-.1-1.18.64-0.39-.4-0.62-0.09-1.18-0.62-0.19.31-.1,0.78,0.71,1.25-2.16-.67.68,2.09-1.82,0.83a11.38,11.38,0,0,1,0,3.67c-1.47-1.05.46-1-1.13-2,0.09,1.18,1.07,2.49.19,3-0.34.05-.57-0.55-0.78-0.79,0.09,1.18-1.14,1.37-.79,2.6a1.05,1.05,0,0,1-.3-0.42c0,0.17-.43.16,0.26,0.61l-0.09-.26c1.13,0.46,1.69,1.94,2.19,2.31-1.78-1.56-.94.33-3.15-1.71a1.94,1.94,0,0,0,.78.79,1.17,1.17,0,0,1-.94-0.59c0,0.73.88,1.05,0.56,1.47a8.64,8.64,0,0,1-.75-0.71c0.49,0.66,1,1.31.45,1.49a0.65,0.65,0,0,1-.39-0.4c-0.33.69,1,2.23-.12,2.5-1.28-1.18-.63-0.09-1.88-0.9l0.11,0.62,0.7,0.26c-0.24.31,0.46,1.21-.14,1.21l-0.34-.59-0.18.77,0.7,0c0.41,0.76,1.58,1,.94,1.23a2,2,0,0,1-1.08,0h0c0.28,0.43.58,0.88,0.11,0.91-0.44-.21-1.33-1-1.62-1.12,0.92,0.86-.23,1,0.72,1.91a5.24,5.24,0,0,0-1-.76l0.75,0.71a1.63,1.63,0,0,1-1-.48c-0.46.35,1.66,0.93,0.62,1a1.9,1.9,0,0,1-.24-0.33c-0.72.3-.18,1.4-0.93,1.61-1.34-.71,0-0.64-1.17-1.19-0.26.87,0.47,2.49-.29,3l0.22,0c1.68,1.3-1.22-.08-0.63.83a3.14,3.14,0,0,0-.71-0.62c-0.6.28-.23,1.26-0.17,2.35l-0.39-.4c-0.59,0-.73.57-1.14,0.73a2,2,0,0,0,.92.86c-3.19-.83.16,2.71-2.54,2.06a0.48,0.48,0,0,0-.29-0.43l-0.07,1a3.72,3.72,0,0,0,1.22.49,1.14,1.14,0,0,1,.49,1,2.53,2.53,0,0,0-1.74-1c0.25,0.14.47,0.36,0.72,0.51-1.61-.57,1.49,1.11.23,1l-0.38-.3c0.08,0.33.49,0.86,0.23,1-0.94-.52-0.27-0.48-1-1-0.14.32,1.29,1.7,0.23,1.36-0.16-.29,0-0.46-0.21-0.75-1.23-.43-1-0.22-1.29-0.13h0l-0.8.16,0.36,0.07c2.05,1.93-.08,1,1.1,2.52-1.11-1.44-.77-0.64-1.75-1.36a2,2,0,0,1-1-.34c0.65,0.78-.89-0.06.07,1.07a1.52,1.52,0,0,1-1-.39c0.05,0.47.61,0.32,1,.62,0.79,1.21-2.06.15-1,1.83,0.24,1,1.25,1.83,1.43,2.73a2.21,2.21,0,0,1-1.07-.95c-0.67,0-.73.23-0.54,0.75a2.5,2.5,0,0,0-.94-0.52c-0.06.27,1.07,0.95,0.4,0.9a12.82,12.82,0,0,1-1.14-1.1c0.12,0.46.55,1.12,0.66,1.58a3.18,3.18,0,0,1-1-1.09,2.18,2.18,0,0,0,.81,1.81l0.45,0a1.9,1.9,0,0,1-.91-0.66c-0.52-.73.56-0.15,0.89,0.06l0.08,0.33c2,1.1.21-1,.58-1.25l1.26,1.1-0.87-1.17a2.68,2.68,0,0,1,1.3,1c0.86,0.2-.32-0.57.59-0.28a0.44,0.44,0,0,1,.23.17l-0.23-.54c0.25,0.25,1,.62.69,0.65,1.11,0.07-.51-1.47.65-0.93l0.06,0.1c0-1-1-.75-1.81-2.06l2.71,1.38-1-.76c0.08,0,.25-0.12.64,0.18-0.52-.72-0.47-0.26-1-0.85,1.14,0.31.19-1.19,1.84-.16-0.69-.64-0.8-0.1-1.1-0.81,1.79,1.09,0-.6,1-0.36,0.83,0.7.16,0.66,1.16,0.91-1.38-1.21.73-.35,0.61-0.8-1.19-.83-0.13-0.89-0.24-1.58,0.39,0.3,1.2-.34,1.9-0.43l0.19,0.15c-1.16-.91-0.65-1.15-0.7-1.62a3.41,3.41,0,0,1,1.18,1.14l0.18-.28a1.28,1.28,0,0,1-.5-0.83l0.86,0.69c0.2-.4-0.56-1.47.37-1.53-0.83-.61-2.61-1.24-2.83-2.13a4.9,4.9,0,0,1,1.36,1.07c0-.08-0.27-0.41,0-0.37l0.63,0.73c0.48,0-.56-0.55-0.37-0.68,0.65,0.45.55,0.19,1.05,0.57,0,0.09-.37,0-0.16.21a1.84,1.84,0,0,1,1.34.18,1.9,1.9,0,0,1-.86-0.8c0.2-.4.87,0.41,1.35,0.43-0.39-.4.24-0.31-0.73-1a1.74,1.74,0,0,1,.84.33c-0.3-.48.49-1-0.7-1.47h-0.1s0,0,0-.06h0c-0.54-1.29,1.44-.91,1.44-1.82l0.33,0.22c-0.12-.62.34-1-0.18-1.71a1.69,1.69,0,0,1,1.13.46c-0.05-.45-0.4-0.73.42-0.77,0.37,0.67.57,0.25,0.22,0.58,0.53-.17,1.11.1,0.49-0.9,0.74,0.71,1.24.45,1.11,0.1l-0.77-.15a0.65,0.65,0,0,1,.39-0.52l1,0.85c1.85,0.17-1.34-2.91,1.28-1.94-0.63-.72-0.82,0-1.6-0.76,0.38-.24,2.21.48,2.28,0.38,0.93-.05-1.3-1.54-0.55-1.75a3.21,3.21,0,0,1-1.63-1.49c0.38-.24,1.93.7,2.1,1.14,0,0.11-.18.06-0.31,0a0.8,0.8,0,0,0,.65.63l-0.36-.31c0.52,0.1.8-.4,1.37,0.15a0.72,0.72,0,0,0-.9-0.5c0.87-.05.49-0.68,1.18-0.87a1.44,1.44,0,0,1-.72-0.39c0.94-.33-0.54-0.8-0.4-1.37,0.77,0.15,1.36,1.07,1.17.27a2,2,0,0,1,1.32,1c-0.47-.93,1-0.43,1.33-0.58l0.17,0.44a0.41,0.41,0,0,1,.06-0.47l-0.87-.41a0.58,0.58,0,0,1,.63.09,14.19,14.19,0,0,1-1.89-1.54c0.51,0.1-.07-0.81,1-0.16-0.72.3,1.08,0.66,0.94,1.23-0.06-.17,0-0.28.24-0.31a0.5,0.5,0,0,1,.24.24c1.28,0.12-1-1-.62-1.56,0.54,0.47,1.19.64,1.13,0.47-0.16.21-1-.57-1.36-1.07,0.69,0-.08-0.6.09-0.75l-0.35.06a0.84,0.84,0,0,1-.36-1c0.47,0.29.17,0.43,0.42,0.48-0.85-1,1.48.13,1-.71,0.51,0.1,1.11.74,1.48,0.77-0.48-.93,1.11.1,0.78-0.76a1.86,1.86,0,0,1-1.25-1.09l0.06,1.09-0.83-1.24c-0.16.21,0.18,0.79,0,.83a1.6,1.6,0,0,0-1-.85c1.38,0.52-.29-1.06.75-0.85l1.94,1.35c1.22,0.08-.37-1.6.57-1.93l-0.49,0c-0.71-.62.17-0.48,0-0.92a4.59,4.59,0,0,0,1.43.68c-0.49-.32.38-0.46-0.88-1.41l1.06,0.29c0.72-.3-1.43-1.89-0.86-2.25,0.6,0.64,1.22.72,1.49,1.42,0.13-.17.35-0.24-0.1-0.55,0.48,0.18-.55-1.08.18-0.81-0.24-.27-0.9-0.76-0.71-0.92a1.75,1.75,0,0,1,.32.22,2.46,2.46,0,0,0-1.07-.93c2.4,0.86.87-1.59,2.93-.85a4.47,4.47,0,0,1,.33-1.5c0.18,0.16.32,0.22,0.21,0.24,0.93-.06-1.67-1.57-0.63-1.65,1.24,0.45.37,0.68,0.89,0.78,2.19,1.4.15-.85,1.65-0.35l0.07,0.17c0.92,0.22-.35-1.23.11-1.58a1.87,1.87,0,0,0,.32.22,3.42,3.42,0,0,1-.85-2.53,3.19,3.19,0,0,0,1.22,1c0-.28-1.41-0.88-1.38-1.43a9.62,9.62,0,0,1,2.2.59l-0.32.57c1.39,0.49.46-.75,0.85-0.89l0.53,0.32c0.45-1-1.06-1.58-.41-2.34l-0.54-.05c-0.65-.43-0.38-0.43,0-0.45s0.74,0,.26-0.37l1.8,0.16c-0.16-.36-0.79-1.09-1-1.52l-0.28-.19a6.34,6.34,0,0,1,.82.2,3.43,3.43,0,0,1,1.37,1.32c0.23-.31.61-1.06,0-1.29l-0.22-.05,0.11,0.05c0.13,0.12.35,0.27,0,.37a6.21,6.21,0,0,1-.83-0.39,3,3,0,0,1-1.71-1c1.75-.09,1.7-0.53,1.5-1a1.16,1.16,0,0,1,.47-1.74,2.48,2.48,0,0,1-1.42-1.88,1.64,1.64,0,0,1-.08-0.49c0-.14,0-0.28,0-0.41a1.37,1.37,0,0,0-.3-0.73c-1.82,1.58-.22-0.23-2.26,1.12-0.27-.13-0.28-0.23-0.16-0.33l0.84-1.42c0.51-.53.58-0.08,1-0.39-0.13-.56.76-0.74,1.12-1.4-0.7.53-1.16,0.5-1,.06l-0.72,1c-1.51,0,1.39-1.65-.11-1.62l0.78-.2c-0.59-.1-0.76-1.25-2.63-0.53a1.77,1.77,0,0,1,1-.59c-0.25-1-2.89-.68-2.25-1.94l0.54-.26c-0.24-.06-1.12.33-0.72-0.17a1.31,1.31,0,0,0,.53-0.34c-0.22,0-1.14.16-1-.23l0.68-.19c0.18-1.2-2.14-.33-2.9-0.77a2.86,2.86,0,0,0,1.65-2.31l0.22-.12c-0.38-1-2.2-.77-3.32-1.25,1.29-1.54-.43-2.2,0-3.61a2.42,2.42,0,0,1-1.42.65c0.18-.39-1.38.1,0-0.72l0,0.09c1.25-1,.64-1.17.48-1.51l-1.82,1.07c2.09-2.46-2.31-1.57-.26-3.49-0.57.08-.72-0.17-1.29-0.09l1-.59a2,2,0,0,0-.81-1.6l0.77-.29c-0.18-.42-3.07,1.24-3.35.92l1.37-1c-0.44-.66.39-2.13-1.33-2a1.5,1.5,0,0,1,.77-0.29c-0.16-.34.2-1.83-1.69-0.49,1.28-.81-0.31-0.77-1.1-0.79l1-.53c-1.4.45-1.74,0.64-2.34,0.42,0.06-.18.7-0.56,0.54-0.28,0.28-.65-1.06.3-0.81-0.43l0.7-.22c-0.15-.39-0.45-0.16-1.28.08-0.52,0-.17-0.81.65-1.4-0.55.28-1.37,0.52-1.25,0.16a1.54,1.54,0,0,1,.67-0.3c0.28-1-1.64-.18-1-1.16a2.33,2.33,0,0,0,.52-0.42,1.62,1.62,0,0,1,.36.89c0.87-.54.79-1,2.18-1.47-0.84.11-2.59,0.49-2.41-.13a2.94,2.94,0,0,1,.27-0.24l0.12,0c0-.14-0.09-0.16-0.28-0.14a0.67,0.67,0,0,0,.07-0.47c0.69-.49.12-0.67,0-0.88-0.94.61-.94,0.27-1.59,1,0.05-.07.14,0,0.25,0.06a0.25,0.25,0,0,0,.15,0l-0.09,0a4.19,4.19,0,0,1,.35.42c-0.58.16-1.08,0.26-.68-0.28-0.67.29-1.37,0.58-1.7,0.7,1.17-1.09,1.58-2,2.36-2.61-0.89-.24-1.19-1.12-3.21-0.36-0.33,0,.4-0.51.64-0.74a1.19,1.19,0,0,0,.57,0c-0.66,0-.78-0.85-2.08-0.14,0.31-.76,1.3-0.49.74-0.92l0.43-.16c1.31-2.35-4.32.2-2.51-2.63a1.06,1.06,0,0,1-.35.42c0.26-2.1-2.86-2.21-1.92-4.71,0.12-.62-0.71-0.16-1.47,0l1-.72-1.44.33c-1.23,0,1.89-2.57-.21-2.28l-0.63.53c0-.34-0.93-0.58-0.11-1-0.14.05-.77,0.36-0.48,0l0.53-.34-1.32-.07c0.07-.74,2.18-1.25,1.82-2a4.12,4.12,0,0,0-2.34.53,1.19,1.19,0,0,1-.69.83l-0.43-.07c-1.61.94-3.34,1.76-4.07,3.06l1.23-.18-0.68.62L4845,1512c-0.59.65,0.12,0.38,0.65,0.25a2.77,2.77,0,0,0-.73.71l1.77-.52c-0.59.44-1.34,0.58-1.51,1.07,0.82-.24,1.27-1.05,1.93-1-0.59.65-1.21,1-.45,0.81a1.79,1.79,0,0,1-.91.42c0.62-.09.56,0.43,1.47,0-0.75.77,0.68,0.57-.83,1.49a3,3,0,0,1,1.59-.2c-2,.76.35,0.8-1.63,1.9,1.77-.74,1.31.51,2.5,0.42-0.14.05-.44,0.16-0.38,0.07a2.67,2.67,0,0,1-.6,1.09,8,8,0,0,1,2.87-.87c-1.08,1.12-1.68.78-2.85,1.65,1.07-.69,1.43-0.11,2.25-0.78a4.89,4.89,0,0,1-1.28,1.27c1.69-1,.43.05,1.57-0.38-0.6.87-1.5,1.06-.75,1.14A1.75,1.75,0,0,1,4848.48,1521.07Zm8.7,7.54h0l-0.17-.16Zm0.5,0.77a1,1,0,0,0-.17-0.36,1,1,0,0,1,.7-0.33A1.65,1.65,0,0,0,4857.69,1529.38Zm5.57-5.79c0.21,0,.05.2-0.13,0.34a0.81,0.81,0,0,0-.25-0.15l-0.13.06A5.18,5.18,0,0,1,4863.26,1523.59Z" transform="translate(-4844.72 -1507.53)"/><path class="cls-1" d="M4861.87,1524.15a0.24,0.24,0,0,1-.1,0l-0.17.21,0.33-.14Z" transform="translate(-4844.72 -1507.53)"/><path class="cls-1" d="M4860.24,1597h0l-0.15-.06Z" transform="translate(-4844.72 -1507.53)"/><polygon class="cls-1" points="17.91 33.82 18.15 33.67 17.89 33.73 17.91 33.82"/><path class="cls-1" d="M4854.18,1599a1,1,0,0,0-.27-0.11A1.28,1.28,0,0,0,4854.18,1599Z" transform="translate(-4844.72 -1507.53)"/><path class="cls-1" d="M4852.73,1600.66l-0.51,0A1.46,1.46,0,0,0,4852.73,1600.66Z" transform="translate(-4844.72 -1507.53)"/><path class="cls-1" d="M4851.31,1601.74c0.15,0.13.27,0.22,0.38,0.3h0Z" transform="translate(-4844.72 -1507.53)"/><path class="cls-1" d="M4865.45,1578.82a0.12,0.12,0,0,0,0-.08C4865.35,1578.49,4865.36,1578.63,4865.45,1578.82Z" transform="translate(-4844.72 -1507.53)"/><path class="cls-1" d="M4863.08,1586.91a3.15,3.15,0,0,1-.29-0.51C4862.64,1586.46,4862.56,1586.54,4863.08,1586.91Z" transform="translate(-4844.72 -1507.53)"/><path class="cls-1" d="M4869.39,1570.69h0l0,0Z" transform="translate(-4844.72 -1507.53)"/><path class="cls-1" d="M4863,1586.1c-0.27,0-.29.12-0.23,0.3C4862.92,1586.34,4863.09,1586.29,4863,1586.1Z" transform="translate(-4844.72 -1507.53)"/><path class="cls-1" d="M4846.74,1607.49l-0.08,0,0.14,0.11Z" transform="translate(-4844.72 -1507.53)"/><path class="cls-1" d="M4846.8,1607.64l0.06,0.15S4846.89,1607.72,4846.8,1607.64Z" transform="translate(-4844.72 -1507.53)"/><path class="cls-1" d="M4847,1608.11l-0.13-.32C4846.82,1607.84,4846.74,1607.89,4847,1608.11Z" transform="translate(-4844.72 -1507.53)"/><path class="cls-1" d="M4848.43,1605.94l-0.32-.25A3,3,0,0,0,4848.43,1605.94Z" transform="translate(-4844.72 -1507.53)"/><path class="cls-1" d="M4848.72,1605.31c-0.17.08-.95-0.16-0.87,0.17l0.26,0.2C4847.67,1605.26,4849.2,1605.83,4848.72,1605.31Z" transform="translate(-4844.72 -1507.53)"/><path class="cls-1" d="M4854.48,1605.82l-0.59.29a1.17,1.17,0,0,1,.91.66C4856.28,1606.91,4853.92,1606.34,4854.48,1605.82Z" transform="translate(-4844.72 -1507.53)"/><path class="cls-1" d="M4856,1604.72c0,0.37.52,0.35,0.71,0.51A0.68,0.68,0,0,0,4856,1604.72Z" transform="translate(-4844.72 -1507.53)"/><path class="cls-1" d="M4863.24,1594.2l0.83,0.6C4864.08,1594.52,4863.74,1594.57,4863.24,1594.2Z" transform="translate(-4844.72 -1507.53)"/><polygon class="cls-1" points="15.55 81.66 14.89 81.49 15.61 82.11 15.55 81.66"/><polygon class="cls-1" points="22.37 84.6 22.43 84.77 22.35 84.23 22.37 84.6"/><path class="cls-1" d="M4878.94,1574.24l-1.08-.65C4878,1573.84,4879.1,1574.67,4878.94,1574.24Z" transform="translate(-4844.72 -1507.53)"/><path class="cls-1" d="M4883.68,1565.07c0.72,0.07,1.38-.19.87-0.53C4884.27,1564.79,4883.6,1564.9,4883.68,1565.07Z" transform="translate(-4844.72 -1507.53)"/><polygon class="cls-1" points="27.78 30.55 28.23 30.48 27.75 30.37 27.78 30.55"/></svg>