<svg id="Layer_1_copy" data-name="Layer 1 copy" xmlns="http://www.w3.org/2000/svg" viewBox="0 0 97.61 125.28"><defs><style>.cls-1,.cls-2{fill:none;stroke:#394170;stroke-linecap:round;stroke-linejoin:round;}.cls-1{stroke-width:1.13px;}.cls-2{stroke-width:1.13px;}</style></defs><title>chivas</title><g id="_Group_" data-name="&lt;Group&gt;"><polyline class="cls-1" points="79.4 25.57 81.64 24.28 80.27 26.24 82.74 24.81 81.1 26.89 83.63 25.42 82.27 27.95 84.66 26.57 82.96 28.76 85.25 27.43 83.42 29.38 85.61 28.11 83.86 30.25 86.03 28.99 84.07 30.76 86.18 29.54 84.35 32.62 86.57 31.34 84.19 33.59 86.63 32.18 83.31 35.61 86.58 33.72 81.84 38.43 86.09 35.98 82.35 38.87 85.73 36.92 83.3 39.71 84.06 39.27"/><polyline class="cls-1" points="75.33 25.8 78.27 24.11 74.68 27.02 80 23.95 74.64 28.07 79.17 25.45 75.1 29.23 79.35 26.78 76.4 30.16 79.49 28.38 77.61 30.36 79.19 29.45"/></g><g id="_Group_2" data-name="&lt;Group&gt;"><polyline class="cls-1" points="32.81 19.17 35.64 17.53 33.99 19.66 36.58 18.16 33.34 21.16 37.29 18.88 33.39 22.87 38.08 20.16 34.2 23.61 38.28 21.25 35.24 23.89 38.09 22.24"/><polyline class="cls-1" points="27.72 19.01 31.4 16.88 26.41 20.61 33.1 16.74 25.62 22.09 34.43 17 25 23.88 28.5 21.85 24.71 25.72 27.3 24.22 24.76 27.33 27.26 25.88 24.91 28.12 27.41 26.68 25.41 29.64 27.89 28.21 25.99 31 28.57 29.51"/></g><g id="_Group_4" data-name="&lt;Group&gt;"><polyline class="cls-1" points="17.2 52.53 17.84 52.16 17.74 53.39 20.07 52.05"/><polyline class="cls-1" points="16.89 48.45 18.21 47.69 17.77 48.79 18.92 48.13 18.55 49.38 19.58 48.78 19.38 50.64 20.34 50.09 19.3 51.34 20.44 50.69"/><polyline class="cls-1" points="14.76 48.47 16.73 47.33 14.44 50.71 15.47 50.11 14.72 51.22 15.74 50.62"/></g><g id="_Group_5" data-name="&lt;Group&gt;"><polyline class="cls-1" points="13.23 52.88 14.39 52.2 14.2 53.49 15.36 52.81 15.59 54.37 16.75 53.7 16.65 55.04 17.81 54.37 17.13 55.34 17.7 55.01"/><polyline class="cls-1" points="12.42 51.68 13.02 51.33 11.56 53.02 13.72 51.77 10.91 54.97 11.89 54.4"/></g><g id="_Group_6" data-name="&lt;Group&gt;"><polyline class="cls-1" points="11.1 57.36 12.39 56.62 13.14 58.24 14.38 57.53 14.3 58.79 15.55 58.07 14.94 59.09 15.45 58.8"/><polyline class="cls-1" points="9.16 57.17 10.9 56.17 8.65 59.2 9.77 58.56 9.09 60.05 10.13 59.46 9.89 60.65 11.08 59.96 10.81 61.11 12.04 60.4 11.46 61.42 12.7 60.71 13.33 62.3 13.96 61.95"/></g><g id="_Group_7" data-name="&lt;Group&gt;"><polyline class="cls-2" points="11.19 63.4 12.55 62.62 11.82 63.58 13.18 62.8 11.98 64.58 13.18 63.89 11.76 65.25 12.98 64.55"/><polyline class="cls-2" points="8.56 62.58 9.89 61.81 9.59 63.74 11.87 62.42 9.31 64.6 10.54 63.89"/><polyline class="cls-2" points="7.41 61.48 7.9 61.2 6.87 63.22 8.08 62.52 6.58 64.27 7.75 63.59 7.07 65.93 8.23 65.26 9.74 66.1 10.52 65.64 10.98 66.93 12.44 66.09"/></g><g id="_Group_8" data-name="&lt;Group&gt;"><polyline class="cls-2" points="6.77 70.49 8.44 69.53 8.03 70.63 9.71 69.66 10.23 70.86 11.53 70.11 10.23 72.5 11.34 71.87"/><polyline class="cls-2" points="5.33 69.55 5.84 69.25 5.12 71.74 6.1 71.17 5.36 73 6.22 72.5 6.34 73.97 7.62 73.23 7.07 74.26 8.68 73.33 9.06 74.43 10.91 73.36"/></g><g id="_Group_9" data-name="&lt;Group&gt;"><polyline class="cls-1" points="9.19 76.31 11.05 75.23 10.04 76.72 11.07 76.12 10.06 77.64 11.1 77.04 10.09 78.52 11.12 77.92 10.54 79.53 11.15 79.19"/><polyline class="cls-1" points="6.39 76.36 8.53 75.13 7.45 76.32 9.56 75.1 7.57 77.08 8.59 76.49 7.58 77.67 8.61 77.08 7.61 78.41 8.63 77.82 7.63 79.26 8.65 78.67"/><polyline class="cls-1" points="4.76 75.54 5.34 75.2 4.79 77.3 5.8 76.72 4.81 78.01 5.82 77.42 4.92 79.77 5.87 79.22"/></g><g id="_Group_10" data-name="&lt;Group&gt;"><polyline class="cls-2" points="9.33 81.35 11.19 80.28 10.53 82.57 11.45 82.05"/><polyline class="cls-2" points="5.03 81.17 5.76 80.75 6.83 81.72 9.56 80.14 7.71 82.83 8.59 82.32 8.14 84.02 9.15 83.44 9.72 84.67 11.27 83.78"/></g><g id="_Group_11" data-name="&lt;Group&gt;"><polyline class="cls-2" points="9.75 86.28 11.29 85.39 11.44 86.82 12.28 86.33 11.8 87.9 12.71 87.37 11.63 88.62 12.78 87.96"/><polyline class="cls-2" points="6.85 86.59 9.26 85.2 6.4 88.04 7.67 87.31 6.58 89.11 7.44 88.62 6.98 89.9 7.88 89.38 8.22 90.8 10.17 89.67 9.99 90.86 12.34 89.5"/></g><g id="_Group_12" data-name="&lt;Group&gt;"><polyline class="cls-2" points="13.12 91.66 13.99 91.15 13.84 93.16 14.67 92.69"/><polyline class="cls-2" points="11.86 94.6 12.65 94.14 13.1 95.32 14.77 94.36"/><polyline class="cls-2" points="7.95 92.93 10.91 91.22 10.68 92.63 13.86 90.8 10.96 93.24 11.78 92.77 9.85 95.68 11.59 94.67 9.91 97.19 10.4 96.91"/></g><g id="_Group_13" data-name="&lt;Group&gt;"><polyline class="cls-1" points="14.79 95.19 15.69 94.67 13.33 97.9 16.55 96.04 11.38 99.67 16.85 96.51 11.69 100.15 17.16 96.99 17 98.7 17.91 98.17"/></g><g id="_Group_14" data-name="&lt;Group&gt;"><polyline class="cls-1" points="18.69 100.06 19.07 99.83 17.68 101.86 19.7 100.69 16.06 104.75 18 103.63 16.32 106.19 21.89 102.97 20.42 104.72 22.45 103.55"/><polyline class="cls-1" points="16.36 100.06 18.44 98.86 13.4 102.66 18.93 99.47 13.76 103.13 15.77 101.97"/></g><g id="_Group_15" data-name="&lt;Group&gt;"><polyline class="cls-2" points="23.03 105.68 24.13 105.05 24.03 106.16 24.88 105.68 24.52 107.19 25.44 106.66 23.89 108.74 25.51 107.81"/><polyline class="cls-2" points="20.29 105.92 22.58 104.6 19.57 107.06 23.59 104.75 19.39 108.37 20.58 107.68 19.82 109.52 20.68 109.02 20.33 110.13 21.26 109.59 21.99 110.87 24.95 109.16"/></g><g id="_Group_16" data-name="&lt;Group&gt;"><polyline class="cls-1" points="29.27 112.75 29.8 112.45 29.94 113.69 30.99 113.08 30.1 114.14 31.48 113.34"/><polyline class="cls-1" points="29.76 110.29 30.94 109.6 30.68 110.75 31.72 110.15 31.07 111.14 32.04 110.58 31.83 112.26 32.37 111.95"/><polyline class="cls-1" points="27.18 110.45 29.32 109.22 26.67 111.42 30.3 109.33 26.41 113.61 27.48 112.99 26.95 114.56 27.87 114.02 28.13 115.42 29.53 114.61 29.99 115.75 30.86 115.24"/></g><g id="_Group_17" data-name="&lt;Group&gt;"><polyline class="cls-1" points="36.64 112.68 37.14 112.39 36.17 113.97 37.76 113.06 35.86 114.83 37.44 113.92 35.31 116.27 36.92 115.34"/><polyline class="cls-1" points="33.29 111.45 33.8 111.15 32.96 112.34 34.53 111.43 32.69 113.07 34.26 112.16 31.96 115.17 33.47 114.3 31.9 116.37 33.03 115.72 32.36 117.2 33.43 116.58 33.95 117.96 36.46 116.52"/></g><g id="_Group_18" data-name="&lt;Group&gt;"><polyline class="cls-2" points="40.4 114.93 41.38 114.36 40.61 116.54 41.63 115.95"/><polyline class="cls-2" points="38.8 117.88 40.1 117.13 40.61 118.24 41.89 117.5 41.04 119.71 42.14 119.08 41.88 120 42.26 119.79"/><polyline class="cls-2" points="39.73 113.73 40.49 113.3 38.63 115.45 41.32 113.9 37 118 39.09 116.8 37.21 119 37.94 118.58"/></g><g id="_Group_19" data-name="&lt;Group&gt;"><polyline class="cls-2" points="45.16 115.03 46.49 114.26 46.93 116.05 47.86 115.51 47.01 117.48 48.13 116.83 46.87 118.25 48.16 117.5"/><polyline class="cls-2" points="43.47 114.28 43.99 113.98 43.33 116.08 44.49 115.41 43.21 117.51 44.39 116.83 43.05 119.52 44.26 118.82 43 120.14 44.45 119.31 45.29 120.32 47.85 118.84"/></g><g id="_Group_20" data-name="&lt;Group&gt;"><polyline class="cls-2" points="51.2 115.77 52.12 115.23 51.84 117.25 52.8 116.7 51.07 119 53.28 117.72 52.55 118.99 53.59 118.39 53.17 120.31 54.2 119.71"/><polyline class="cls-2" points="50.3 114.61 51.09 114.16 49.73 116.47 50.99 115.74 49.29 117.92 50.65 117.13 49.09 118.57 50.49 117.77 48.86 119.32 51.16 118 48.47 120.62 49.86 119.82"/></g><g id="_Group_21" data-name="&lt;Group&gt;"><polyline class="cls-1" points="54.04 114.25 54.88 113.76 54.37 115.98 55.44 115.37 54.6 117.22 55.68 116.59 54.92 118.91 56.01 118.28 55.05 119.6 56.43 118.81 58.43 119.47 59.22 119.01"/></g><g id="_Group_22" data-name="&lt;Group&gt;"><polyline class="cls-2" points="62.13 116.91 63.99 115.84 64.04 117.77 65.09 117.17"/><polyline class="cls-2" points="61.01 113.91 61.95 113.37 61.9 115.04 62.87 114.48 62.28 115.52 63.26 114.96"/><polyline class="cls-2" points="59.85 112.93 61.03 112.25 59.8 114.28 60.8 113.69 59.77 115.12 60.81 114.52 59.74 115.73 60.82 115.11 59.66 117.81 63.69 115.48 59.6 119.2 60.74 118.54"/></g><g id="_Group_23" data-name="&lt;Group&gt;"><polyline class="cls-1" points="64.75 115.75 65.74 115.19 65.19 116.34 66.3 115.69 66.27 116.8 68.13 115.73"/><polyline class="cls-1" points="65.31 110.73 66.31 110.15 66.06 112.33 67.06 111.75 66.61 113.51 67.61 112.93 67.09 114.61 68.08 114.04"/></g><g id="_Group_24" data-name="&lt;Group&gt;"><polyline class="cls-2" points="72.6 112.11 73.72 111.47 73.38 112.69 74.51 112.05"/><polyline class="cls-2" points="69.72 109.85 70.74 109.27 70.56 110.5 71.6 109.9 71.34 111.1 72.4 110.49"/><polyline class="cls-2" points="68.3 109.1 69.55 108.38 68.45 109.82 70.16 108.84 68.63 110.66 69.57 110.12 68.99 112.36 69.98 111.8 69.31 113.84 70.28 113.28 69.59 115.13 70.61 114.54"/></g><g id="_Group_25" data-name="&lt;Group&gt;"><polyline class="cls-2" points="75.72 108.43 77.1 107.63 76.84 108.75 78.18 107.97 77.92 109.09 79.22 108.34"/><polyline class="cls-2" points="74.84 105.75 75.94 105.11 75.28 106.14 76.26 105.57 74.99 107.28 76.43 106.45"/><polyline class="cls-2" points="72.34 106.02 74.82 104.59 72.07 108.02 73.08 107.43 72.91 109.01 76.16 107.14 73.41 109.59 74.43 109 74.22 110.55 75.23 109.97 74.68 111.08 75.69 110.5 75.08 111.55 76.1 110.96"/></g><g id="_Group_26" data-name="&lt;Group&gt;"><polyline class="cls-2" points="81.47 104.3 82.81 103.53 82.28 104.61 83.17 104.09"/><polyline class="cls-2" points="78.13 102.88 79.29 102.21 78.79 103.16 79.98 102.47 79.55 104.45 81.8 103.15"/><polyline class="cls-2" points="76.56 102.09 77.52 101.53 77.05 103.67 77.94 103.16 77.76 105.01 78.66 104.48 78.13 105.71 82.26 103.33 78.44 106.31 80.09 105.36 79.28 107.89 80.2 107.35"/></g><g id="_Group_27" data-name="&lt;Group&gt;"><polyline class="cls-1" points="83.45 100.19 84.04 99.85 84.29 101.03 86.15 99.95"/><polyline class="cls-1" points="85.22 97.73 86.24 97.14 85.46 99.08 86.73 98.35"/><polyline class="cls-1" points="80.84 96.28 82.66 95.22 80.46 98.54 81.42 97.99 81.32 99.29 85.78 96.72"/></g><g id="_Group_28" data-name="&lt;Group&gt;"><line class="cls-2" x1="89.46" y1="90.81" x2="90.74" y2="90.07"/><polyline class="cls-2" points="85.86 90.69 87.68 89.64 87.69 91.1 90.27 89.61 87.39 92 88.73 91.22"/><polyline class="cls-2" points="84.04 90.07 84.77 89.65 84.14 91.15 86.75 89.65 85.06 91.95 86 91.4 85.77 92.57 86.73 92.02 86.84 93.5 88.18 92.73 87.68 94.24 88.69 93.65 88.22 94.71 89.14 94.18"/></g><g id="_Group_29" data-name="&lt;Group&gt;"><polyline class="cls-2" points="88.83 80.2 90.43 79.28 90.11 80.35 91.32 79.66 91.19 80.84 92.09 80.32 91.47 81.39 92.34 80.89 91.38 82.78 92.42 82.19"/><polyline class="cls-2" points="86.64 80.16 88.48 79.1 86.36 80.88 89.46 79.09 86.16 82.01 87.22 81.4 86.55 83.72 88.2 82.76 87.62 83.84 89.27 82.89 90.27 84.16 92.34 82.96 91.09 84.25 92.28 83.57"/></g><g id="_Group_30" data-name="&lt;Group&gt;"><polyline class="cls-1" points="91.78 74.16 92.37 73.81 91.8 75.81 92.83 75.22 91.81 76.85 92.84 76.26"/><polyline class="cls-1" points="88.98 74.52 89.58 74.17 89 75.84 90.03 75.25 89.02 76.87 90.05 76.27"/><polyline class="cls-1" points="86.53 74.3 87.12 73.96 86.53 75.31 87.55 74.73 86.54 76.51 87.57 75.92 86.69 78.42 88.81 77.19 88.52 78.4 90.59 77.2 91.69 78.37 92.86 77.69"/></g><g id="_Group_31" data-name="&lt;Group&gt;"><polyline class="cls-1" points="89.6 66.23 90.06 65.97 90.74 67.6 91.75 67.02 91.08 68.38 92.06 67.82"/><polyline class="cls-1" points="85.98 67.35 87.14 66.68 85.73 69.19 86.78 68.58 86.02 69.9 86.91 69.39 87.36 71.06 89.09 70.06 89.42 71.21 91.69 69.9"/></g><g id="_Group_32" data-name="&lt;Group&gt;"><polyline class="cls-1" points="89.83 64.04 90.86 63.44 90.05 64.81 91.1 64.2"/></g><g id="_Group_33" data-name="&lt;Group&gt;"><polyline class="cls-1" points="82.95 60.24 83.47 59.94 83.2 60.86 84.92 59.86 86.28 60.9 88.41 59.67 87.84 60.78 89.54 59.8 84.43 64.01 89.86 60.87 84.62 64.47 87.88 62.59"/></g><g id="_Group_34" data-name="&lt;Group&gt;"><polyline class="cls-1" points="87.25 57.54 88.26 56.96 87.52 58.09 88.55 57.5"/></g><g id="_Group_35" data-name="&lt;Group&gt;"><polyline class="cls-1" points="27.16 33.66 29.4 32.36 27.58 34.63 29.64 33.44"/></g><g id="_Group_36" data-name="&lt;Group&gt;"><polyline class="cls-1" points="62.64 30.44 62.87 30.31 63.08 31.35 64.13 30.74 63.87 32.15 65.49 31.21 65.61 32.8 66.94 32.03 66.57 33.16 67.27 32.76 68.17 33.86 69.74 32.95 69.78 34.63 70.39 34.28 70.5 34.98 70.69 34.87"/></g><g id="_Group_37" data-name="&lt;Group&gt;"><polyline class="cls-1" points="79.84 40.08 80.25 39.85 79.77 41.38 81.11 40.61 80.93 42.42 81.68 41.99"/></g><g id="_Group_38" data-name="&lt;Group&gt;"><polyline class="cls-1" points="84.78 45.62 85.53 45.19 85.2 47.16 86.48 46.42 85.62 47.7 86.9 46.96 85.96 48.15 87.25 47.41 86.33 48.64 87.62 47.89 86.67 49.07 87.96 48.33 87.66 50.37 88.89 49.66 88.4 51.59 89.64 50.88 88.78 52.24 90.03 51.51 89.68 53.78 90.97 53.03 90.18 54.64 91.44 53.91 90.6 55.36 91.81 54.67 90.83 55.88 92.05 55.18 91.21 56.75 92.46 56.03 91.42 57.25 92.69 56.51 91.75 57.99 93.04 57.24 92.12 58.85 93.44 58.09 92.31 59.31 93.61 58.56 92.61 59.98 93.85 59.26 93.13 61.47 94.38 60.75 93.4 62.37 94.69 61.62 93.79 63.71 95.15 62.92 94.3 65.44 95.57 64.71 94.56 66.5 95.83 65.77 94.81 68.01 96.18 67.22 94.89 68.51 96.29 67.7 95.15 70.09 96.51 69.31 95.24 70.61 96.58 69.83 95.39 71.49 96.69 70.73 95.48 73.09 96.89 72.28 95.54 74.55 97 73.71 95.59 76.07 97.02 75.25 95.62 76.69 97.03 75.87 95.64 77.76 97.05 76.95 95.47 79.65 97.03 78.75 95.32 81.4 96.86 80.51 95.17 83.1 96.7 82.21 95.03 84 96.62 83.09 94.89 84.7 96.55 83.74 94.63 85.9 96.31 84.94 94.38 87.1 96.05 86.13 94.11 88.34 95.79 87.37 93.73 89.68 95.51 88.65 92.92 92.08 94.81 90.99 92.36 93.76 94.24 92.67 91.67 95.28 93.77 94.08 91.11 96.48 93.29 95.22 90.67 97.41 92.85 96.15 90.29 98.22 92.47 96.96 89.73 99.26 92.01 97.94 88.17 101.78 90.8 100.27 86.8 103.84 89.58 102.23 84.92 106.24 88.25 104.32 82.58 108.85 86.46 106.61 77.51 113.43 83.47 109.99"/><polyline class="cls-1" points="20.46 37.5 23.01 36.03 14.85 42.2 22.69 37.67 13.51 43.65 18.79 40.6 10.41 47.31 13.99 45.24 8.88 49.36 12.02 47.55 7.55 51.5 10.24 49.95 6.09 53.98 8.62 52.52 5.24 55.76 7.46 54.48 3.98 58.56 6.12 57.32 3.38 60.22 5.31 59.11 2.89 61.72 4.76 60.64 2.47 63 4.34 61.92 1.97 64.86 3.7 63.86 1.59 66.66 3.26 65.69 1.44 67.37 3.11 66.41 1.05 69.36 2.69 68.41 0.85 71.42 2.38 70.53 0.69 73.09 2.22 72.21 0.57 74.37 2.1 73.48 0.56 76.16 1.99 75.34 0.59 77.58 2.02 76.76 0.61 78.53 2.04 77.71 0.63 79.16 2.05 78.34 0.71 80.75 2.08 79.96 0.82 81.55 2.17 80.77 0.95 82.48 2.3 81.7 1.12 83.73 2.47 82.96 1.31 85.13 2.66 84.35 1.57 86.42 2.87 85.67 1.71 86.94 3 86.2 1.86 87.54 3.15 86.8 2.32 89.34 3.61 88.59 2.67 90.72 3.96 89.97 2.97 91.57 4.23 90.84 3.19 92.17 4.45 91.44 3.58 93.22 4.85 92.49 3.84 93.89 5.1 93.17 4.27 95.05 5.54 94.32 4.64 95.99 5.89 95.27 4.96 96.62 6.21 95.9 5.58 97.84 6.83 97.12 5.98 98.63 7.23 97.91 6.25 99.15 7.49 98.43 6.61 99.87 7.86 99.15 7.32 101.12 8.56 100.4 7.65 101.62 8.89 100.9 8.19 102.45 9.44 101.73 9.07 103.8 10.32 103.08 9.33 104.2 10.58 103.48 9.85 104.99 11.11 104.27 10.75 106.09 12.01 105.37 11.62 107.16 12.88 106.43 12.37 108.08 13.63 107.35 12.97 108.81 14.24 108.08 13.52 109.41 14.81 108.66 14.54 110.41 15.84 109.66 15.19 111.04 16.48 110.3 16.15 111.97 17.44 111.23 17.5 113.21 18.84 112.44 18.74 114.18 20.08 113.41 19.6 114.86 20.95 114.08 20.02 115.19 21.37 114.41 21.41 116.24 22.82 115.43 22.3 116.8 23.72 115.98 23.71 117.66 25.12 116.85 25.3 118.65 26.75 117.81 26.1 119.1 27.61 118.22 26.93 119.49 28.45 118.62 28.3 120.13 29.82 119.26 29.27 120.59 30.79 119.71 30.18 121.02 31.76 120.11 31.29 121.47 32.94 120.51 32.01 121.71 33.66 120.75 32.68 121.94 34.34 120.98 33.83 122.33 35.49 121.37 35.7 122.96 37.51 121.91 38.09 123.5 39.95 122.43 39.28 123.75 41.13 122.68 40.66 124.05 42.67 122.89 43.07 124.38 45.22 123.13 44.18 124.48 46.33 123.24 45.67 124.62 47.96 123.3 48.86 124.72 51.44 123.22 50.18 124.69 52.83 123.16 52.74 124.62 56.03 122.72 57.31 124 61.65 121.49 63.4 122.51 81.3 112.17 68.27 120.67 77.21 115.51"/></g><g id="_Group_39" data-name="&lt;Group&gt;"><polyline class="cls-1" points="40.38 29.44 41.64 28.71 40.63 30.39 42.36 29.4 43.12 29.98 46 28.32 46.61 29.71 47.95 28.94"/></g><g id="_Group_41" data-name="&lt;Group&gt;"><polyline class="cls-1" points="70.08 50.33 70.35 50.17 70.11 51.58 71.21 50.94 71.33 52.73 72.46 52.08 72.41 53.75 72.92 53.45"/></g><g id="_Group_42" data-name="&lt;Group&gt;"><polyline class="cls-1" points="77.04 57.87 77.2 57.78 77 58.49 77.46 58.23 76.97 59.47 77.88 58.94 77.69 61.1 78.78 60.47 78.39 62.48 79.48 61.84 78.72 63.12 79.77 62.51 79.31 64.55 80.38 63.92 79.63 65.47 80.77 64.81 79.88 66.22 81.01 65.56 80.16 67.01 81.25 66.38 80.63 68.7 81.74 68.06 80.91 70.12 82.08 69.45 81.23 71.78 82.36 71.13 81.36 72.45 82.46 71.81 81.42 73.62 82.64 72.91 81.47 74.42 82.7 73.71 81.56 76.23 82.76 75.54 81.51 77.91 82.82 77.16 81.4 79.25 82.72 78.49 81.29 80.61 82.6 79.85 81.17 81.69 82.5 80.91 81 82.41 82.44 81.58 80.8 83.31 82.25 82.47 80.38 85.2 81.83 84.37 80.04 86.37 81.58 85.48 79.7 87.27 81.37 86.31 79.11 88.87 80.78 87.91 78.19 90.92 80.07 89.83 77.26 92.68 79.26 91.52 75.55 95.33 77.99 93.92 74.4 96.95 76.96 95.47 69.75 101.61 74.16 99.07"/><polyline class="cls-1" points="25.84 51.48 26.58 51.05 22.19 55.39 25.58 53.44 21.02 56.92 23.87 55.27 19.21 59.71 21.56 58.35 18.71 60.71 20.77 59.53 17.63 62.92 19.55 61.81 16.89 64.87 18.58 63.9 16.55 65.82 18.22 64.86 16.31 66.53 17.96 65.58 15.77 68.58 17.24 67.73 15.27 70.9 16.72 70.06 15.06 72.67 16.36 71.92 14.95 73.97 16.25 73.22 14.84 75.26 16.14 74.51 14.81 76.49 16.03 75.79 14.89 78.11 16.09 77.42 14.95 79.28 16.15 78.58 15.01 80.38 16.2 79.69 15.27 81.87 16.4 81.22 15.49 83.03 16.62 82.38 15.72 84.29 16.85 83.64 16.08 85.63 17.17 85 16.34 86.41 17.43 85.78 16.49 86.88 17.58 86.25 16.95 88.31 18.04 87.68 17.31 89.28 18.38 88.66 17.63 89.96 18.7 89.35 17.98 90.69 19.05 90.08 18.61 92.02 19.68 91.41 18.84 92.51 19.91 91.89 19.57 93.76 20.64 93.15 20.01 94.46 21.08 93.84 20.78 95.66 21.85 95.04 21.59 96.85 22.68 96.22 22.41 97.83 23.49 97.2 22.78 98.26 23.86 97.64 23.12 98.67 24.2 98.05 24.12 99.87 25.23 99.24 25.45 101.12 26.57 100.47 26.35 101.95 27.47 101.31 27.26 102.79 28.41 102.13 27.92 103.29 29.09 102.61 28.93 104.01 30.1 103.33 29.38 104.33 30.55 103.65 29.89 104.69 31.06 104.01 30.73 105.29 31.95 104.59 31.55 105.77 32.81 105.04 32.27 106.14 33.52 105.42 32.82 106.44 34.08 105.71 33.93 107.03 35.19 106.3 35.56 107.79 36.95 106.99 36.67 108.19 38.05 107.39 37.98 108.68 39.37 107.88 38.57 108.9 40.04 108.05 40.36 109.38 41.93 108.47 41.76 109.69 43.34 108.78 42.91 109.95 44.62 108.96 44.27 110.17 46.14 109.09 45.92 110.31 47.78 109.23 47.28 110.42 49.36 109.22 49.49 110.44 51.83 109.09 51.97 110.32 54.89 108.64 54.39 109.98 57.99 107.9 58.81 108.93 72.06 101.28 62.13 107.73 69.29 103.6"/></g><g id="_Group_43" data-name="&lt;Group&gt;"><polyline class="cls-1" points="32.08 47.21 35.53 45.21 32.28 47.95 35.96 45.82"/></g><g id="_Group_44" data-name="&lt;Group&gt;"><polyline class="cls-1" points="28.64 58.82 28.94 58.65 28.38 60.53 28.59 60.41 28.13 62.13 28.39 61.98 27.84 64.06 28.46 63.7 27.52 66.13 33.35 62.76 27.34 67.31 33.17 63.94 27.06 69.12 32.9 65.75 26.72 71.37 32.55 68 26.48 72.91 32.63 69.35 26.17 74.92 33.13 70.91 25.92 76.56 33.31 72.3 25.8 77.38 33.19 73.11 25.67 78.19 33.06 73.92 25.4 79.97 32.79 75.7 25.23 81.06 32.62 76.79 24.99 82.66 32.38 78.39 24.73 84.36 32.12 80.09 24.61 85.13 32 80.86 24.48 85.98 31.87 81.71 24.31 87.1 31.7 82.83 24.18 87.91 31.57 83.64 23.85 90.08 31.24 85.82 23.67 91.28 31.06 87.01 23.49 92.41 30.89 88.14 23.29 93.75 30.68 89.48 24.34 95.19 30.34 91.72 24.64 95.57 30.24 92.33 24.95 95.97 30.14 92.97 25.67 96.87 29.92 94.42 26.66 97.91 29.65 96.19 27.45 98.67 29.45 97.51 28.43 99.61 29.19 99.18 28.83 99.99 29.09 99.84"/><polyline class="cls-1" points="32.84 50.4 35.48 48.87 33.03 51.52 35.27 50.22 33.24 52.75 35.05 51.71 33.38 54.13 34.8 53.31 33.45 54.91 34.66 54.21 33.47 56.72 34.36 56.21 33.38 58.18 34.12 57.76 33.05 60.07 33.84 59.62 32.6 61.4 33.66 60.79 31.65 63.04 33.47 61.99"/></g><g id="_Group_45" data-name="&lt;Group&gt;"><polyline class="cls-1" points="21.94 61.34 22.13 61.23 21.39 62.41 22 62.06 20.63 63.89 21.82 63.2 19.74 66.22 21.52 65.2 19 68.56 21.2 67.28 18.76 69.63 21.04 68.31 18.27 71.89 20.71 70.48 18.1 73.91 20.39 72.59 17.94 76.04 20.04 74.82 17.97 76.86 19.9 75.75 18.01 77.63 19.77 76.61 18.07 79.11 19.51 78.28 18.21 80.43 19.28 79.81 18.52 82.18 18.95 81.93 18.68 83.11 18.78 83.05"/></g><g id="_Group_46" data-name="&lt;Group&gt;"><polyline class="cls-1" points="50.55 85.19 52 84.35 50.3 86.8 57.69 82.54 50.16 87.72 57.55 83.45 49.97 88.94 57.37 84.67 49.82 89.92 57.22 85.64 49.67 90.91 57.06 86.64 49.56 91.64 56.95 87.37 49.28 93.41 56.68 89.14 49.09 94.7 56.49 90.43 48.94 95.69 56.34 91.42 48.61 97.83 56.01 93.55 48.27 100.04 55.67 95.77 47.96 102.06 55.37 97.78 47.82 102.99 55.23 98.71 47.72 103.63 55.13 99.35 47.55 104.77 54.96 100.49 47.23 106.86 54.64 102.58 48.75 107.33 54.41 104.07 50.96 107.27 54.21 105.39 52.83 107.06 54.06 106.34"/></g><g id="_Group_47" data-name="&lt;Group&gt;"><polyline class="cls-1" points="38.37 79.4 38.64 79.25 38.25 80.15 39.08 79.68 38.08 81.28 39.75 80.32 37.97 82.04 40.21 80.74 37.72 83.63 41.24 81.59 37.53 84.86 42.05 82.25 37.34 86.11 42.93 82.88 37 88.32 44.52 83.98 36.81 89.58 44.4 85.2 36.68 90.41 44.27 86.03 36.47 91.77 44.07 87.39 36.18 93.67 43.78 89.28 36.08 94.36 43.68 89.97 35.78 96.32 43.38 91.93 35.54 97.85 43.15 93.46 35.23 99.91 42.84 95.51 34.94 101.78 42.55 97.38 34.79 102.79 42.4 98.39 34.7 103.38 42.31 98.98 35.4 104.28 42.09 100.41 36.78 104.89 41.86 101.95 38.14 105.44 41.64 103.43 40.14 106.08 41.34 105.39 40.82 106.3 41.24 106.05"/></g><g id="_Group_48" data-name="&lt;Group&gt;"><polyline class="cls-1" points="78.73 69.41 78.84 69.35 78.55 70.56 79.01 70.3 78.28 72.33 79.28 71.75 78.09 73.59 79.47 72.79 77.81 75.39 79.56 74.38 77.51 77.39 79.65 76.16 77.19 79.48 79.6 78.08 77.03 80.53 79.51 79.1 76.9 81.36 79.44 79.89 76.7 82.67 79.33 81.15 76.52 83.83 79.07 82.36 76.34 85 78.79 83.58 76.04 86.95 78.27 85.66 75.78 88.69 77.52 87.68 75.68 89.32 77.25 88.41 75.38 91.26 76.06 90.87 75.25 92.08 75.49 91.95"/></g><g id="_Group_49" data-name="&lt;Group&gt;"><polyline class="cls-1" points="72.4 65.69 73.23 65.21 72.19 67.72 72.91 67.31 72.02 68.56 72.78 68.12 71.41 70.28 72.55 69.62"/><polyline class="cls-1" points="69.52 53.98 69.78 53.83 69.25 55.71 70.79 54.82 69.15 56.41 71.2 55.22 68.97 57.57 71.24 56.26 68.65 59.63 69.92 58.9 68.44 61.02 69.21 60.57 68.1 63.22 68.47 63.01 67.91 64.48 68.24 64.29 67.56 66.73 68.14 66.4 67.33 68.23 68.3 67.67 67.15 69.45 68.55 68.64 66.86 71.34 69.22 69.98 66.6 73.02 69.98 71.07 66.3 74.1 72.41 70.58 64.67 77.04 72.07 72.77 64.34 79.19 71.74 74.92 64.01 81.38 71.41 77.11 63.9 82.1 71.3 77.83 63.75 83.09 71.15 78.82 63.65 83.73 71.05 79.46 63.41 85.33 70.8 81.06 63.24 86.43 70.64 82.16 63.12 87.22 70.52 82.95 62.91 88.58 70.31 84.31 62.64 90.33 70.04 86.06 62.35 92.19 69.75 87.91 62.2 93.17 69.6 88.9 61.87 95.38 69.27 91.11 61.65 96.79 69.05 92.52 61.38 98.55 68.78 94.28 61.12 100.22 68.53 95.95 60.95 101.34 68.36 97.07 60.61 103.57 68.02 99.29 60.41 104.92 67.81 100.64"/></g><polyline class="cls-2" points="62.17 71.9 67.12 69.04 63.06 72.8 63.43 72.58"/><polyline class="cls-2" points="64.19 72.22 66.87 70.68 63.74 74.12 66.59 72.48 64.28 75.42 66 74.44"/><polyline class="cls-2" points="65.15 57.33 69.28 54.95 65.91 57.89 69.11 56.04"/><polyline class="cls-2" points="67.17 57.66 69.03 56.59 67.59 58.09 68.92 57.32 66.9 59.98 68.67 58.96 67.08 60.43 68.57 59.57"/><polyline class="cls-2" points="67.92 39.22 69.85 38.1 68.81 40.12 69.19 39.9"/><polyline class="cls-2" points="69.95 39.55 71.9 38.42 69.39 41.09 73.57 38.67 69.75 42.05 72.39 40.53 70.04 42.74 71.76 41.75"/><polyline class="cls-2" points="43.2 38.86 47.69 36.27 43.98 38.98 48.16 36.57 45.3 39.18 48.95 37.08 46.09 39.3 49.43 37.38 46.83 39.42 49.88 37.66 47.78 39.56 50.45 38.02 48.55 39.68 50.91 38.31 49.83 39.87 51.68 38.8 52.53 40.28 53.31 39.83 54.53 40.59 55.26 40.17 55.53 40.74 58.2 39.19 57.08 40.97 62.79 37.67 58.74 41.23 65.35 37.41 61.48 41.64 68.08 37.83 64.29 42.07 67.76 40.06 65.75 43.06 66.89 42.4 65.6 44.03 68.75 42.21 65.49 44.76 68.96 42.76 65.36 45.67 70.01 42.99 65.12 47.28 71.08 43.84 64.98 48.21 70.85 44.81 64.7 50.08 70.54 46.71 64.49 51.47 70.33 48.1 64.21 53.36 70.04 49.99 63.9 55.42 69.73 52.06 63.61 57.38 69.43 54.02 63.37 58.96 64.93 58.05 63.03 61.13 64.12 60.51 62.81 62.58 66.11 60.67 62.48 64.75 68.3 61.39 62.17 66.77 67.99 63.41 61.83 69 67.65 65.64 61.63 70.28 67.45 66.92 61.13 71.89 67.23 68.37 59.56 73.94 61.93 72.57"/><polyline class="cls-2" points="47.15 79.61 48.43 78.87 48.06 80.51 48.44 80.3"/><polyline class="cls-2" points="49.2 79.94 54.14 77.08 48.68 81.68 62.09 73.94 48.93 82.28 61.21 75.2 49.29 83.14 63.1 75.16"/><polyline class="cls-2" points="34.83 67.71 38.57 65.55 35.52 68.11 38.44 66.42 35.71 68.61 36.09 68.39"/><polyline class="cls-2" points="36.85 68.03 38.33 67.18 36.52 70.23 38.51 69.08 36.94 71.23 38.9 70.1"/><polyline class="cls-2" points="36.35 52.92 40.91 50.29 37.21 53.77 37.68 53.51"/><polyline class="cls-2" points="38.36 53.25 40.66 51.92 38.14 54.4 40.48 53.05 38.26 55.97 40.21 54.84 38.46 56.45 40.11 55.49"/><polyline class="cls-2" points="39.11 34.8 41.04 33.69 40.01 35.7 40.38 35.49"/><polyline class="cls-2" points="41.14 35.13 43.1 34 40.67 36.98 44.93 34.52 41.11 38.04 46.01 35.21"/><polyline class="cls-2" points="36.07 33.15 36.37 32.97 36.41 33.88 37.65 33.17 36.72 34.79 39.14 33.4 36.97 35.89 38.63 34.93 37.11 37.87 39.2 36.67 37.01 39.13 38.67 38.17 36.73 41.29 46.61 35.59 36.58 42.31 47.37 36.08 36.45 43.14 42.54 39.63 36.29 44.2 42.38 40.69 36.01 46.03 42.1 42.51 35.67 48.21 41.77 44.69 35.52 49.25 41.61 45.73 35.4 49.99 41.5 46.47 35.29 50.72 41.39 47.2 34.97 52.82 41.07 49.3 34.73 54.41 36.11 53.61 34.45 56.18 35.98 55.3 34.3 57.22 35.9 56.29 34.05 58.84 37.91 56.61 33.84 60.19 39.93 56.67 33.59 61.78 39.69 58.26 33.33 63.54 39.42 60.02 33.12 64.91 39.22 61.38 33 65.65 39.1 62.13 32.73 67.46 38.83 63.94 32.58 68.63 35.5 66.95 33.03 70.4 34.99 69.27 33.43 71.47 34.16 71.05 33.63 71.94 35.68 70.76 34.42 73.52 39.22 70.75 34.84 74.24 39.68 71.45 35.46 75.23 40.37 72.4 36.47 76.64 41.55 73.71 37.61 77.99 42.89 74.95 38.7 79.19 44.2 76.02 39.22 79.69 44.79 76.47 40.55 80.91 46.34 77.57 41.59 81.77 47.52 78.34 42.2 82.26 46.66 79.68 42.73 82.64 46.91 80.23 43.61 83.26 47.31 81.12 44.83 84.09 46.74 82.98 46.35 85.01 49.19 83.37 47.89 85.41 65.44 75.28 53.11 83.87 62.66 78.36"/><g id="_Group_50" data-name="&lt;Group&gt;"><polyline class="cls-1" points="44.81 33.03 46.51 32.05 46.38 34.03 47.87 33.17 47.34 34.64 48.77 33.81 49.01 35.7 50.54 34.82 49.96 36.3 51.64 35.34 50.58 36.7 52.44 35.62 51.27 37.14 53.38 35.92 52.74 38.07 55.71 36.36 53.38 38.48 56.97 36.41 54.62 39.13 59.75 36.16 59.56 37.48 63.95 34.95 63.38 36.22 64.5 35.57"/></g><g id="_Group_51" data-name="&lt;Group&gt;"><polyline class="cls-1" points="49.52 28.93 50.41 28.42 47.44 31.39 51.66 28.95 48.11 31.94 52.45 29.44 49.2 32.74 53.58 30.22 49.64 33.05 53.92 30.58 50.26 33.4 54.34 31.04 52.02 34.27 58.56 30.49 53.13 34.71 61.21 30.05 55.17 35.18 61.78 31.36 57.39 35.3 62.32 32.45 60.48 34.88 62.94 33.45"/></g><g id="_Group_52" data-name="&lt;Group&gt;"><polyline class="cls-1" points="51.04 26.8 51.57 26.5 51.78 27.76 52.62 27.27 53.01 28.42 53.92 27.9 54.27 29.32 55.87 28.4 54.91 29.96 57.61 28.41 59.94 28.95 60.74 28.49"/></g><g id="_Group_53" data-name="&lt;Group&gt;"><polyline class="cls-1" points="49.82 21.46 50.13 21.29 50 22.09 51 21.51 50.35 23.05 52.23 21.96 50.78 23.82 53.2 22.43 51.82 25.17 54.77 23.47 53.2 26.23 55.99 24.62 55.13 27.04 61.09 23.6 57.83 27.23 62.93 24.28"/></g><g id="_Group_54" data-name="&lt;Group&gt;"><polyline class="cls-1" points="49.91 18.01 50.51 17.66 49.65 19.77 53.39 17.61 50.53 20.2 56.15 16.96 52.69 20.91 59.22 17.14 53.95 21.54 60.22 17.92 55.44 22.5 61.77 18.84 56.37 23.4 63.22 19.44 58.77 23.05 64.39 19.8 62.02 22.23 64.33 20.9 63.51 22.21 64.14 21.85"/></g><g id="_Group_55" data-name="&lt;Group&gt;"><polyline class="cls-1" points="51.78 14.79 55.26 12.78 50.72 16.16 56.84 12.63 53.3 16.44 59.32 12.97 54.84 16.14 59.96 13.19 58.84 15.14 61.11 13.83 59.96 16.22 62.35 14.84 61.08 17.08 63.13 15.9 61.64 17.43 63.48 16.37 62.49 17.9 63.83 17.13 63.91 18.43 64.19 18.27"/></g><g id="_Group_56" data-name="&lt;Group&gt;"><polyline class="cls-1" points="63.7 13.48 67.35 11.37 64.02 15.18 67.86 12.96 64.33 15.6 66.43 14.39"/></g><g id="_Group_57" data-name="&lt;Group&gt;"><polyline class="cls-1" points="66.8 10.31 68.87 9.12 68.62 10.13 69.1 9.85"/><polyline class="cls-1" points="62.13 7.05 65.59 5.05 60.54 8.91 66.21 5.64 59.4 11.02 67.09 6.58 59.21 11.71 67.43 6.97 61.24 12.55 68.45 8.38 62.04 13.05 63.06 12.47"/></g><g id="_Group_58" data-name="&lt;Group&gt;"><polyline class="cls-1" points="56.13 7.53 56.96 7.05 55.52 9.62 60.81 6.57 55.54 11.56 58.67 9.75 57.22 11.41 58.19 10.85"/></g><g id="_Group_59" data-name="&lt;Group&gt;"><polyline class="cls-1" points="54.49 4.38 59.18 1.67 54.57 5.38 62.92 0.56 56.46 5.3 64.38 0.73 59.6 4.91 64.14 2.29 61.39 4.5 64.04 2.97"/></g><g id="_Group_60" data-name="&lt;Group&gt;"><polyline class="cls-1" points="33.46 31.06 40.73 26.86 34.86 31.14 40.13 28.1 36.34 30.93 39.28 29.23"/><polyline class="cls-1" points="44.32 24.61 46.18 23.54 44.85 24.88 46.17 24.12 45.39 25.36 46.03 24.99"/><polyline class="cls-1" points="41.11 26.42 43.88 24.82 42.13 27.61 43.8 26.65 42.52 28.07 43.64 27.43"/><polyline class="cls-1" points="29.39 22.28 32.53 20.47 28.28 24.38 32.25 22.08 28.23 24.98 32.29 22.64 28.26 25.94 32.57 23.45 28.49 27 33.29 24.23 28.67 27.5 33.81 24.53 28.91 28.11 34.65 24.8 29.75 29.57 44.91 20.82 30.36 30.42 45.52 21.66 30.39 32 46.05 22.96 30.54 33.21 32.3 32.2 31.38 34.34 32.13 33.91 32.09 34.73 32.35 34.58"/><polyline class="cls-1" points="31 15.99 35.57 13.35 33.33 15.76 36.69 13.83 35.66 16.42 38.54 14.76 36.26 16.74 39.09 15.11 37.52 17.69 40.47 15.99 38.3 18.58 41.59 16.68 39.11 20.16 43.48 17.64 39.28 21.65 45.16 18.25 38.99 22.69 46.38 18.42 38.51 23.5 47.13 18.53"/><polyline class="cls-1" points="24.89 15.62 29.07 13.21 23.45 17.26 31.13 12.82 21.93 20.03 34.1 13 21.34 22.26 25.96 19.6 21.21 22.95 25.3 20.59 21.1 23.57 24.89 21.38 21.13 25.36 24.04 23.68 21.16 26.57 23.81 25.05 21.25 27.07 23.73 25.64 21.51 28.56 23.77 27.25 21.78 29.84 24.01 28.55 22.23 31.34 24.5 30.02 22.69 32.75 25.08 31.37 23.06 33.68 25.48 32.28 23.71 35.25 26.16 33.83 24.02 35.88 26.45 34.48 24.7 37.23 27.04 35.88 25.05 37.87 27.32 36.56 25.93 39.37 27.98 38.19 26.61 40.69 28.52 39.58 27.17 42.06 29.04 40.98 27.52 43.17 29.43 42.07 27.68 43.77 29.64 42.64 27.79 44.48 29.86 43.28 28.02 46.11 30.34 44.77 28.07 47.26 30.65 45.76 28.09 47.85 30.81 46.28 27.87 49.99 31.28 48.02 27.67 50.76 31.43 48.59 27.25 52.5 31.73 49.91 27.37 53.6 31.95 50.96 27.63 54.1 32.08 51.54 28.43 54.78 32.23 52.59 28.52 55.67 32.35 53.46 28.66 56.72 32.47 54.52 29.72 58 32.54 56.37 29.9 58.92 32.48 57.42 29.55 60.63 32.31 59.04 29.36 62.17 31.84 60.74 29.37 63.22 31 62.27"/></g><g id="_Group_61" data-name="&lt;Group&gt;"><polyline class="cls-1" points="80.47 27.95 80.67 27.83 80.41 28.8 81.22 28.34 79.9 30.16 81.93 28.99"/><polyline class="cls-1" points="77.91 23.18 82.71 20.41 81.39 23.2 84.83 21.21 82.88 23.77 86 21.97 84 24.47 87.05 22.71 84.91 25.36 87.9 23.64 85.86 26.56 88.84 24.84 86.35 27.39 89.32 25.67 86.99 28.92 90 27.18 87.18 29.46 90.18 27.73 87.47 30.89 90.55 29.12 87.61 31.84 90.66 30.07 87.61 33.72 90.71 31.93 87.38 35.06 90.57 33.22 87.07 36.2 90.43 34.26 85.7 38.82 89.67 36.53 83.63 41.22 88.9 38.18 80.53 44.84 87.26 40.96 79.11 46.59 86.15 42.52 77.88 48.14 84.83 44.12 76.42 50.05 82.56 46.51 75.12 51.89 79.73 49.24 73.85 53.79 78.28 51.23 72.03 56.83 76.97 53.98 71.01 58.84 76.41 55.73 70.59 59.71 76.25 56.45 69.75 61.96 76.03 58.33 69.2 64.25 75.73 60.48 69.1 65.63 73.64 63.01 69.09 66.68 71.45 65.32 69.32 67.74 71.35 66.57 69.71 68.85 71.13 68.03 69.97 69.31 70.96 68.74 70.27 69.83 70.66 69.6"/><polyline class="cls-1" points="66.9 21.9 67.33 21.65 67.57 23.21 69.88 21.88 68.44 24.04 72.81 21.51 66.98 25.92 76.08 20.67 66.26 28.23 80.32 20.11 67.93 28.22 81.69 20.28 68.22 28.92 74.49 25.3 67.82 30.7 73.64 27.34 68.19 32.34 73.9 29.04 70.75 31.72 74.25 29.7 70.91 32.72 74.9 30.42 71.48 34.34 76.76 31.29 71.76 34.78 77.68 31.36 72.55 35.76 82.61 29.96 73.97 36.79 83.25 31.43 76.16 37.57 83.2 33.5 77.06 38.21 82.52 35.06 77.06 40.15 79.1 38.97 76.66 41.55 78.69 40.38"/></g><g id="_Group_62" data-name="&lt;Group&gt;"><line class="cls-1" x1="48.75" y1="66.5" x2="49.05" y2="66.33"/><polyline class="cls-1" points="43.47 67.49 44.8 66.72 45.55 68.23 46.24 67.82 46.63 68.77 48.89 67.46"/><polyline class="cls-1" points="46.56 63.96 47.84 63.22 47.59 64.08 49.57 62.93"/><line class="cls-1" x1="46.84" y1="59.13" x2="47.73" y2="58.61"/><polyline class="cls-1" points="43.28 58.4 45.1 57.35 42.76 59.67 46.05 57.77 42.69 60.55 46.86 58.14 42.91 61.65 46.07 59.83 43.26 63.02 46.76 60.99"/><polyline class="cls-1" points="40.78 57.47 41.3 57.18 40.88 58.05 41.61 57.64 41.13 58.64 41.77 58.28 41.4 59.42 41.69 59.25 40.86 61.77 41.27 61.53 40.6 62.63 41.14 62.32 40.52 64.45 41.24 64.04 40.88 65.81 47.61 61.92 40.81 66.61 50.02 61.29 40.59 68.38 44.32 66.22 40.7 68.87 41.53 68.38 41.4 70.02 42.16 69.58 42.6 70.5 43.05 70.25"/></g><g id="_Group_63" data-name="&lt;Group&gt;"><polyline class="cls-1" points="56.19 72.55 59.27 70.78 57.31 72.62 58.8 71.76"/><polyline class="cls-1" points="61.09 61.03 62.21 60.38 60.84 61.97 61.85 61.38 60.6 63.99 60.88 63.83 60.45 65.04 60.85 64.81 60.17 66.4 60.81 66.03"/><polyline class="cls-1" points="51.56 67.06 51.94 66.84 52.03 68.78 52.83 68.33 53.32 69.82 58.72 66.7 55.5 69.22 59.27 67.04 56.61 69.49 60.5 67.24 57.2 69.87 59.7 68.43 58.24 70.98 59.35 70.34"/><polyline class="cls-1" points="52.12 63.57 52.34 63.44 53.23 64.61 59.54 60.96 55.06 65.22 59.69 62.55 55.86 66.65 58.19 65.31 56.44 67.59 58.44 66.44"/><polyline class="cls-1" points="54.98 60.21 56.05 59.59 56.46 60.7 58.55 59.5 56.49 61.29 58.97 59.86"/><polyline class="cls-1" points="55.33 61.75 55.73 61.52 55.46 62.28 59.21 60.12"/><polyline class="cls-1" points="52.32 61.38 52.58 61.23 52.49 61.98 52.95 61.72 53.35 62.83 53.69 62.63 53.86 63.52 54.98 62.88"/></g><g id="_Group_64" data-name="&lt;Group&gt;"><polyline class="cls-1" points="51.23 56.56 51.7 56.29 51.06 57.63 52.57 56.77 50.97 58.23 52.48 57.36 50.7 60.02 52.2 59.15 50.42 61.84 51.92 60.97 50.22 63.15 51.72 62.28 50.04 64.3 51.55 63.43 49.93 65.05 51.43 64.18 49.61 67.13 51.12 66.26 49.47 68.05 50.97 67.18 49.3 69.17 50.8 68.3 48.44 70.56 50.65 69.28 47.47 73.15 51.07 71.07 48.11 73.53 51.33 71.67 50.08 73.91 52.04 72.78"/></g><g id="_Group_65" data-name="&lt;Group&gt;"><polyline class="cls-1" points="39.93 37.42 40.62 37.02 40.57 38.4 41.05 38.12"/><polyline class="cls-1" points="38.8 35.09 39.14 34.89 39.04 35.65 39.75 35.23 39.41 36.52 41.57 35.27 38.7 38.1 39.48 37.65"/></g><g id="_Group_66" data-name="&lt;Group&gt;"><polyline class="cls-1" points="68.73 41.84 69.43 41.44 69.01 42.7 69.76 42.27"/><polyline class="cls-1" points="67.6 39.5 67.95 39.3 68.03 41.16 70.39 39.8 67.5 42.51 68.28 42.06"/></g><g id="_Group_67" data-name="&lt;Group&gt;"><polyline class="cls-1" points="37.15 55.54 37.84 55.14 37.29 55.99 38.02 55.58 37.48 56.47 38.21 56.05"/><polyline class="cls-1" points="36.02 53.2 36.37 53.01 36.51 54.34 37.18 53.95 35.92 56.21 36.7 55.76"/></g><g id="_Group_68" data-name="&lt;Group&gt;"><polyline class="cls-1" points="65.96 59.95 66.65 59.55 66.16 60.6 66.9 60.17 66.64 60.93 67.09 60.67"/><polyline class="cls-1" points="64.83 57.62 65.17 57.42 65.39 58.94 66.05 58.56 64.72 60.63 65.5 60.18"/></g><g id="_Group_69" data-name="&lt;Group&gt;"><polyline class="cls-1" points="35.63 70.33 36.33 69.92 35.87 71.06 36.61 70.63 36.45 71.32 36.8 71.12"/><polyline class="cls-1" points="34.5 67.99 34.85 67.79 35.1 69.39 37.23 68.17 34.4 71 35.18 70.55"/></g><g id="_Group_70" data-name="&lt;Group&gt;"><polyline class="cls-1" points="62.98 74.52 63.67 74.11 63.25 75.36 63.99 74.92"/><polyline class="cls-1" points="61.85 72.18 62.19 71.98 62.33 73.78 64.7 72.41 61.75 75.19 62.53 74.74"/></g><g id="_Group_71" data-name="&lt;Group&gt;"><polyline class="cls-1" points="47.98 82.23 48.67 81.83 48.14 82.74 48.87 82.32 48.8 83.23 49.15 83.03"/><polyline class="cls-1" points="46.85 79.9 47.2 79.7 47.36 81.08 48.02 80.7 46.82 82.11 49.16 80.76 46.75 82.91 47.53 82.45"/></g><g id="_Group_72" data-name="&lt;Group&gt;"><polyline class="cls-1" points="46 46.71 49.32 44.79 44.85 48.75 52.21 44.5 44.73 50.64 54.73 44.88 44.94 51.27 55.61 45.1 45.4 52.36 56.9 45.72 46.4 53.64 58.38 46.72 47.21 54.31 59.13 47.43 48.36 55.05 59.89 48.4 49.03 55.41 60.16 48.98 50.29 55.85 60.53 49.94 51.14 56.11 60.58 50.66 52.53 56.32 60.6 51.67 55.98 55.97 59.34 54.03"/></g></svg>