<svg id="Layer_1_copy" data-name="Layer 1 copy" xmlns="http://www.w3.org/2000/svg" viewBox="0 0 60.94 60.96"><defs><style>.cls-1{fill:none;stroke:#cf2f3a;stroke-linecap:round;stroke-linejoin:round;stroke-width:0.56px;}</style></defs><title>cruzazul</title><g id="_Group_" data-name="&lt;Group&gt;"><polyline id="_Path_" data-name="&lt;Path&gt;" class="cls-1" points="27.05 21.01 31.49 18.44 28.33 20.59 32.06 18.44 29.01 20.51 32.61 18.44 30.8 20.38 34.18 18.43 31.54 20.47 35.06 18.43 32.41 20.57 36.12 18.43 32.97 20.68 36.87 18.43 33.88 21 38.35 18.42 34.45 21.2 39.28 18.42 34.79 21.32 39.83 18.42 35.09 21.48 40.4 18.41 35.57 21.78 41.4 18.41 36.33 22.26 42.36 18.78 36.93 22.69 42.36 19.55 37.47 23.23 42.36 20.41 37.7 23.46 42.36 20.77 38.2 23.96 42.36 21.55 38.48 24.29 42.36 22.05 38.88 24.92 42.36 22.91 39.1 25.27 42.36 23.39 39.31 25.61 42.37 23.84 39.49 25.88 42.37 24.22 39.8 26.65 42.37 25.17 40.02 27.28 42.37 25.92 40.13 27.57 42.37 26.28 40.22 27.82 42.37 26.58 40.38 28.59 42.37 27.44 40.41 28.84 42.37 27.71 40.5 29.58 42.37 28.5 40.54 29.96 42.37 28.91 40.55 30.92 42.37 29.87 40.44 31.86 42.38 30.75 40.33 32.79 42.38 31.61 39.9 34.02 42.38 32.59 39.73 34.49 42.38 32.96 38.91 35.96 42.38 33.96 37.49 37.69 42.38 34.87"/><polyline id="_Path_2" data-name="&lt;Path&gt;" class="cls-1" points="18.54 18.61 18.82 18.45 18.54 19.53 20.42 18.45 18.54 20.55 22.18 18.45 18.54 21.3 23.49 18.45 18.54 22.05 24.77 18.45 18.54 23.02 26.47 18.44 18.54 23.33 27 18.44 18.54 24.01 28.18 18.44 18.54 24.38 28.82 18.44 18.54 25.08 30.04 18.44 18.54 25.45 30.67 18.44 18.54 26.05 23.56 23.16 18.54 26.67 22.37 24.46 18.54 27.69 21.36 26.06 18.53 28.55 20.98 27.14 18.53 29.32 20.63 28.11 18.53 29.78 20.56 28.61 18.53 30.78 20.44 29.68 18.53 31.07 20.4 29.98 18.53 31.54 20.35 30.49 18.53 32.19 20.42 31.1 18.53 33.02 20.51 31.88 18.53 33.28 20.54 32.13 18.53 34.26 20.69 33.01 18.53 34.97 20.9 33.6 18.53 35.51 21.06 34.04 18.53 36.17 21.26 34.6 18.53 36.91 21.54 35.17 18.52 37.94 22.01 35.92 18.52 38.58 22.31 36.4 18.52 39.15 22.57 36.81 18.52 39.52 22.81 37.04 18.52 40.1 23.18 37.41 18.52 41.05 23.78 38.01 18.52 41.65 24.16 38.39 18.52 42.46 24.83 38.81 19.29 42.53 25.26 39.09 20.89 42.53 26.02 39.57 22.02 42.53 26.71 39.82 23.54 42.53 27.65 40.15 24.54 42.52 28.31 40.35 25.2 42.52 28.86 40.41 26.03 42.52 29.55 40.49 26.85 42.52 30.23 40.57 28.49 42.52 32.15 40.41 30.25 42.52 42.38 35.51 31.94 42.51 42.38 36.48 32.49 42.51 42.38 36.8 33.6 42.51 42.39 37.44 35.35 42.51 42.39 38.45 37 42.51 42.39 39.4 38.29 42.5 42.39 40.13 39.73 42.5 42.39 40.97 40.46 42.5 42.39 41.38 41.42 42.5 42.39 41.94 41.94 42.5 42.39 42.23"/><polyline id="_Path_3" data-name="&lt;Path&gt;" class="cls-1" points="33.27 32.8 38.23 29.93 34.12 32.8 38.23 30.42 34.76 32.8 38.24 30.79 35.28 32.79 38.24 31.08 35.76 32.79 38.24 31.36 37.5 32.78 38.24 32.35 37.97 32.78 38.25 32.62"/><polyline id="_Path_4" data-name="&lt;Path&gt;" class="cls-1" points="22.77 27.9 23.05 27.73 22.78 28.22 23.63 27.73 22.78 28.54 24.17 27.73 22.78 29.44 25.75 27.72 22.79 29.94 26.64 27.72 22.79 30.55 27.7 27.71 22.79 30.98 33.01 25.08 22.8 31.82 33.01 25.93 22.8 32.36 33.02 26.46 22.8 32.67 33.02 26.77 23.16 32.79 33.02 27.1 24.16 32.79 33.02 27.67 25.77 32.78 34.5 27.74 27.12 32.77 35.85 27.73 28 33.12 37.34 27.73 28 33.48 37.98 27.72 28.01 34.26 38.23 28.36 28.01 34.76 38.23 28.86 28.01 35.62 38.23 29.72 28.02 36.09 32.99 33.22 28.02 36.55 32.99 33.68 28.02 36.92 32.99 34.05 28.02 37.87 33 35 28.94 38.1 33 35.76 29.57 38.09 33 36.11 30.1 38.09 33 36.41 31.59 38.08 33.01 37.27 32.06 38.08 33.01 37.54 32.73 38.08 33.01 37.92"/><polyline id="_Path_5" data-name="&lt;Path&gt;" class="cls-1" points="28.04 22.6 28.32 22.44 28.04 23.52 29.93 22.43 28.04 24.54 31.71 22.42 28.04 25.3 33 22.43 28.04 26.04 33 23.17 28.04 27.01 33.01 24.14 28.04 27.32 33.01 24.45"/><polyline id="_Path_6" data-name="&lt;Path&gt;" class="cls-1" points="41.58 14.36 42.02 14.11 42.19 14.64 42.55 14.43 42.39 14.93 42.79 14.7 42.5 15.13 42.9 14.9 42.6 15.65 43.01 15.41 42.44 16.5 42.97 16.2"/><polyline id="_Path_7" data-name="&lt;Path&gt;" class="cls-1" points="40.41 14.54 41.26 14.05 40.06 15.21 40.66 14.87 39.97 15.62 40.46 15.33 40.08 16.43 40.47 16.2 40.43 17.03 40.79 16.82 40.65 17.28 41.08 17.03 41.47 17.52 42.85 16.73"/><polyline id="_Path_8" data-name="&lt;Path&gt;" class="cls-1" points="39.2 14.2 39.59 13.98 39.08 14.59 39.75 14.2 38.95 14.96 39.62 14.57 38.66 15.85 39.3 15.48 38.56 16.19 39.17 15.84 38.38 16.75 38.97 16.42"/><polyline id="_Path_9" data-name="&lt;Path&gt;" class="cls-1" points="36.94 14.14 37.19 13.99 37.19 14.9 37.63 14.64 37.47 15.74 37.9 15.49 37.62 16.23 38.05 15.98 37.77 16.66 38.17 16.42 37.86 16.95 38.26 16.73 37.99 17.36 38.8 16.89 38.29 17.51 38.66 17.3"/><polyline id="_Path_10" data-name="&lt;Path&gt;" class="cls-1" points="36.05 14.16 36.36 13.98 36.05 14.9 36.55 14.61 36.05 15.86 36.56 15.56 36.05 16.28 36.56 15.99 36.05 17.03 36.57 16.73 36.27 17.51 36.57 17.34"/><polyline id="_Path_11" data-name="&lt;Path&gt;" class="cls-1" points="34.99 14.43 35.72 14.01 35.47 14.43 35.74 14.27"/><polyline id="_Path_12" data-name="&lt;Path&gt;" class="cls-1" points="33.12 14.16 33.4 13.99 33.39 14.42 34.15 13.99 34.17 14.82 34.66 14.54 34.17 15.71 34.66 15.42 34.17 16.16 34.66 15.87 34.17 16.86 34.66 16.58 34.38 17.51 34.68 17.34"/><polyline id="_Path_13" data-name="&lt;Path&gt;" class="cls-1" points="31.7 14.35 32.19 14.07 32.43 14.94 32.8 14.73 31.88 16.06 32.38 15.77 32.28 16.55 32.66 16.34 32.44 17.15 32.83 16.92 32.53 17.41 32.91 17.2"/><polyline id="_Path_14" data-name="&lt;Path&gt;" class="cls-1" points="30.77 14.24 31.1 14.05 30.77 15.1 31.22 14.84 30.77 15.84 31.25 15.55 30.77 16.42 31.2 16.17 30.76 17.34 31.2 17.09"/><polyline id="_Path_15" data-name="&lt;Path&gt;" class="cls-1" points="28.68 14.35 29.12 14.1 29.32 14.68 29.69 14.46 29.61 15.19 30.01 14.96 29.69 15.59 30.1 15.35 29.66 15.99 30.17 15.7 29.61 16.32 30.1 16.04"/><polyline id="_Path_16" data-name="&lt;Path&gt;" class="cls-1" points="27.51 14.53 28.36 14.04 27.14 15.28 27.68 14.96 27.07 15.95 27.5 15.7 27.13 16.2 27.53 15.97 27.28 16.74 27.67 16.52 27.68 17.18 28.03 16.97 28.03 17.37 28.47 17.12 28.49 17.49 29.96 16.64"/><polyline id="_Path_17" data-name="&lt;Path&gt;" class="cls-1" points="25.45 14.35 25.93 14.07 25.87 14.47 26.28 14.24 26.15 14.89 26.51 14.69 25.55 16.07 26.43 15.56"/><polyline id="_Path_18" data-name="&lt;Path&gt;" class="cls-1" points="24.52 14.23 24.85 14.04 24.52 15.2 24.97 14.94 24.52 15.72 24.99 15.45 24.52 16.47 24.95 16.22 24.52 16.8 24.95 16.55 24.52 17.45 24.95 17.2"/><polyline id="_Path_19" data-name="&lt;Path&gt;" class="cls-1" points="22.79 15.87 23.51 15.45 23.55 15.87 23.82 15.71"/><polyline id="_Path_20" data-name="&lt;Path&gt;" class="cls-1" points="22.8 14.41 23.57 13.96 23.63 14.41 23.9 14.26"/><polyline id="_Path_21" data-name="&lt;Path&gt;" class="cls-1" points="21.97 14.15 22.25 13.98 21.97 14.64 23.12 13.97 21.97 15 22.47 14.71 21.97 15.3 22.48 15 21.97 15.58 22.49 15.27 21.97 16.57 22.47 16.28 21.96 17.12 22.49 16.82 21.96 17.39 22.53 17.06 22.98 17.5 23.73 17.06 23.7 17.49 23.98 17.33"/><polyline id="_Path_22" data-name="&lt;Path&gt;" class="cls-1" points="19.56 14.33 20.04 14.05 20.01 14.4 20.44 14.14 20.33 14.52 20.72 14.3 20.87 15.11 21.26 14.89 20.95 15.58 21.36 15.34 20.87 16.23 21.37 15.94"/><polyline id="_Path_23" data-name="&lt;Path&gt;" class="cls-1" points="18.59 14.22 18.91 14.04 18.59 15.14 19.04 14.89 18.59 16.16 19.06 15.89 18.59 16.92 19.07 16.64 18.88 17.49 19.49 17.14 19.93 17.41 21.08 16.74"/><polyline id="_Path_24" data-name="&lt;Path&gt;" class="cls-1" points="20.08 43.86 20.81 43.44 20.67 43.84 21.14 43.57"/><polyline id="_Path_25" data-name="&lt;Path&gt;" class="cls-1" points="18.97 43.99 19.82 43.5 18.48 45.19 19.07 44.86 18.68 46.1 19.13 45.84 19.12 46.6 19.55 46.35 19.86 46.91 20.55 46.51 20.62 46.95 21.09 46.68"/><polyline id="_Path_26" data-name="&lt;Path&gt;" class="cls-1" points="22.62 43.79 23.1 43.51 23.01 43.89 23.41 43.66 23.23 44.07 23.58 43.87 22.48 45.41 23.69 44.71 23.01 45.61 23.33 45.43 23.24 46.09 23.61 45.87 23.33 46.47 23.71 46.24 23.62 46.91 23.86 46.77"/><polyline id="_Path_27" data-name="&lt;Path&gt;" class="cls-1" points="21.68 43.68 22.01 43.49 21.68 44.6 22.13 44.34 21.68 45.62 22.64 45.07 21.68 46.38 22.11 46.13 21.81 46.95 22.12 46.77"/><polyline id="_Path_28" data-name="&lt;Path&gt;" class="cls-1" points="26.45 43.6 26.76 43.43 26.45 43.93 26.98 43.63 26.46 44.24 26.98 43.94 26.47 45.13 26.98 44.84 26.44 45.66 26.97 45.35 26.32 46.11 26.93 45.76"/><polyline id="_Path_29" data-name="&lt;Path&gt;" class="cls-1" points="24.39 43.6 24.7 43.42 24.39 44.52 24.88 44.24 24.39 45.54 24.88 45.25 24.51 46.22 24.99 45.94 24.89 46.74 25.4 46.45 25.79 46.98 26.71 46.45"/><polyline id="_Path_30" data-name="&lt;Path&gt;" class="cls-1" points="27.63 43.6 27.91 43.44 28.77 43.87 29.54 43.42 28.6 44.98 29.52 44.45 27.75 46.23 28.67 45.7 27.76 46.97 28.53 46.52 29.48 46.95 30.04 46.63"/><polyline id="_Path_31" data-name="&lt;Path&gt;" class="cls-1" points="32.85 44.06 33.21 43.85 32.98 44.47 33.36 44.25 33.09 44.77 33.47 44.55 33.17 45.02 33.56 44.8 33.25 45.25 33.64 45.02"/><polyline id="_Path_32" data-name="&lt;Path&gt;" class="cls-1" points="32.47 45.86 33.23 45.42 33.07 45.84 33.79 45.43 33.43 45.95 33.88 45.69 33.71 46.69 34.16 46.43 34.01 46.94 34.28 46.78"/><polyline id="_Path_33" data-name="&lt;Path&gt;" class="cls-1" points="32.49 43.68 32.87 43.45 32.09 44.83 32.6 44.53 31.66 46.09 32.75 45.46 31.5 46.94 31.9 46.71"/><polyline id="_Path_34" data-name="&lt;Path&gt;" class="cls-1" points="34.67 43.61 34.96 43.45 35.82 43.87 36.59 43.43 35.65 44.99 36.57 44.46 34.79 46.24 35.72 45.7 34.8 46.97 35.57 46.53 36.52 46.95 37.08 46.63"/><polyline id="_Path_35" data-name="&lt;Path&gt;" class="cls-1" points="39.63 43.62 39.94 43.44 39.64 43.94 40.16 43.64 39.64 44.25 40.16 43.95 39.66 45.15 40.16 44.86 39.62 45.67 40.16 45.37 39.51 46.12 40.11 45.77"/><polyline id="_Path_36" data-name="&lt;Path&gt;" class="cls-1" points="37.57 43.61 37.88 43.44 37.57 44.54 38.06 44.25 37.58 45.55 38.06 45.27 37.7 46.23 38.18 45.96 38.08 46.76 38.58 46.47 38.98 46.99 39.89 46.46"/><polyline id="_Path_37" data-name="&lt;Path&gt;" class="cls-1" points="40.88 43.62 41.19 43.44 40.88 44.54 41.38 44.25 40.88 45.56 41.37 45.27 40.88 46.31 41.37 46.02 41 46.98 41.78 46.53 42.59 46.96 42.87 46.8"/><polyline id="_Path_38" data-name="&lt;Path&gt;" class="cls-1" points="46.92 51.33 47.72 50.87 46.83 52.04 48.28 51.2 47.2 52.48 48.47 51.75 47.52 52.66 48.31 52.2"/><polyline id="_Path_39" data-name="&lt;Path&gt;" class="cls-1" points="47.86 50.03 57.07 44.71 48.58 50.11 56.72 45.41 49.06 50.44 56.14 46.35 49.38 50.94 55.38 47.48 49.44 51.83 54.33 49.01 48.95 52.66 53.34 50.13"/><polyline id="_Path_40" data-name="&lt;Path&gt;" class="cls-1" points="41.04 53.54 57.38 44.11 41.68 53.51 46.38 50.8 42.2 53.77 45.85 51.66"/><polyline id="_Path_41" data-name="&lt;Path&gt;" class="cls-1" points="40.28 54.76 41.14 54.27 40.49 55.57 45.84 52.49 40.78 55.91 41.82 55.31"/><polyline id="_Path_42" data-name="&lt;Path&gt;" class="cls-1" points="42.46 54.97 45.99 52.93 42.77 55.56 46.57 53.37 42.63 55.96 46.91 53.49"/><polyline id="_Path_43" data-name="&lt;Path&gt;" class="cls-1" points="35.24 55.38 58.39 42.02 35.63 55.77 58.01 42.85 35.7 56.12 57.73 43.4 35.84 56.89 39.26 54.91 35.9 57.2 39.19 55.3 36.05 58 39.43 56.06"/><polyline id="_Path_44" data-name="&lt;Path&gt;" class="cls-1" points="57.14 22.98 59.35 21.7 57.29 23.35 59.48 22.08 57.4 23.63 59.58 22.36 57.63 24.19 59.72 22.98 58.09 24.5 59.83 23.5 58.72 24.64 59.92 23.95 58.02 25.93 60.08 24.74 58.07 26.52 60.19 25.3 58.14 27.19 60.32 25.93"/><polyline id="_Path_45" data-name="&lt;Path&gt;" class="cls-1" points="54.8 24.32 56.9 23.11 55.35 24.29 56.63 23.55 55.9 24.26 56.37 23.99"/><polyline id="_Path_46" data-name="&lt;Path&gt;" class="cls-1" points="52.04 13.56 54.49 12.14 52.58 14.13 54.92 12.78 53.5 14.59 55.4 13.5 54.43 14.46 55.59 13.78 54.63 14.62 55.73 13.99 54.21 15.35 55.97 14.34 53.99 16.12 56.28 14.8 54.1 16.34 56.41 15 54.24 16.63 56.59 15.27 54.41 16.95 56.75 15.6 54.58 17.31 56.93 15.95"/><line id="_Path_47" data-name="&lt;Path&gt;" class="cls-1" x1="52.54" y1="17.46" x2="53.14" y2="17.12"/><polyline id="_Path_48" data-name="&lt;Path&gt;" class="cls-1" points="44.21 6.58 46.78 5.09 44.59 6.76 47.1 5.31 45.37 7.14 47.76 5.76 46.92 6.96 48.33 6.14 46.77 8.03 49.09 6.68 47.29 8.56 49.66 7.19 47.48 8.73 49.86 7.36 47.83 9.04 50.2 7.67"/><polyline id="_Path_49" data-name="&lt;Path&gt;" class="cls-1" points="46.22 9.73 46.71 9.45 45.73 10.86 50.62 8.03"/><polyline id="_Path_50" data-name="&lt;Path&gt;" class="cls-1" points="34.2 3.54 38.14 1.26 35.29 3.61 35.76 3.34"/><polyline id="_Path_51" data-name="&lt;Path&gt;" class="cls-1" points="36.6 2.41 38.47 1.33 36.75 3 39.21 1.58 36.9 3.59 39.94 1.83 37.63 4.18 41.04 2.22 38.06 4.86 42.03 2.56 37.12 5.83 42.47 2.75 37.1 6.52 43.09 3.06 37.09 6.98 43.52 3.27"/><polyline id="_Path_52" data-name="&lt;Path&gt;" class="cls-1" points="25.51 2.46 29.17 0.35 25.79 2.81 30.18 0.28 26.13 3.24 31.21 0.31 26.97 3.62 32.55 0.4 27.74 3.57 33.17 0.44 27.44 4.54 34.41 0.52 27.23 5.22 35.16 0.65 27.41 5.68 35.88 0.8 27.66 6.3 36.84 1"/><polyline id="_Path_53" data-name="&lt;Path&gt;" class="cls-1" points="21.35 9.48 26.88 6.29 23.42 8.64 27.28 6.41 25.13 8.22 37.43 1.12 27.11 7.79 34 3.81 28.39 7.69 34.32 4.26 29.21 7.62 34.52 4.55 30.1 7.55 34.74 4.87 30.78 7.54 34.59 5.34 31.68 7.62 34.29 6.11 32.44 7.68 34.77 6.33 33.05 7.73 35.84 6.12 34.13 7.82 36.35 6.53 34.86 7.98 36.77 6.88 35.76 8.2 43.94 3.48 36.67 8.43 44.63 3.83 37.74 8.69 45.44 4.24 38.7 9.1 46.26 4.74 39.5 9.44 44.05 6.81 40 9.65 44.15 7.25 40.46 9.84 44.24 7.67 41.1 10.12 44.03 8.43 41.76 10.54 43.69 9.42 42.07 10.73 44.23 9.48 42.45 10.97 44.84 9.59 42.7 11.12 44.96 9.81 43.13 11.39 45.17 10.21 43.67 11.72 45.44 10.7 44.06 11.97 45.63 11.06 44.7 12.52 51.35 8.68 44.99 12.77 51.64 8.93 45.69 13.37 52.26 9.57 46.14 13.76 52.65 10.01 46.8 14.36 53.22 10.65 47.29 14.92 53.72 11.2 47.59 15.27 54.03 11.55 48.09 15.85 51.86 13.67 48.47 16.3 51.73 14.42 48.79 16.68 50.23 15.85 49.11 17.1 50.78 16.13 49.53 17.77 51.55 16.6 49.84 18.28 51.62 17.25 49.97 18.48 51.65 17.52 50.16 18.78 51.69 17.89 50.4 19.16 53.73 17.24 50.84 19.88 57.09 16.26 51.1 20.47 57.38 16.84 51.28 20.89 57.58 17.25 51.54 21.52 57.88 17.85 51.65 21.78 58.01 18.11 51.75 22.01 58.12 18.33 52.08 22.8 58.46 19.12 52.32 23.47 58.7 19.79 52.42 23.87 58.83 20.16 52.56 24.43 59.02 20.69 52.63 24.75 59.13 21 52.82 25.5 54.6 24.47 52.92 25.9 54.87 24.78 53.03 26.34 55.17 25.11 53.16 27.17 55.56 25.79 53.22 27.86 55.33 26.64 53.28 28.69 56.79 26.67 53.31 29.05 57.09 26.87 53.34 29.38 57.37 27.05 53.36 29.68 57.63 27.22 53.42 30.43 60.42 26.39 53.41 30.76 60.44 26.7 53.32 31.8 60.5 27.66 53.28 32.28 60.53 28.1 53.25 32.68 60.55 28.47 53.22 33.1 60.58 28.85 53.17 33.68 60.62 29.38 53.1 34.33 60.66 29.97 52.84 35.38 60.66 30.86 52.6 36.35 60.61 31.72 52.38 37.22 60.55 32.5 52 38.33 60.49 33.43 51.79 38.84 60.46 33.83 51.32 39.95 60.39 34.71 50.81 41.11 60.18 35.7 50.27 41.98 60.05 36.33 49.96 42.48 59.98 36.7 49.1 43.87 59.77 37.7 47.66 45.58 59.53 38.73 45.32 47.89 59.12 39.92 44.14 48.9 58.98 40.34"/><polyline id="_Path_54" data-name="&lt;Path&gt;" class="cls-1" points="27.92 55.65 31.98 53.3 28.89 56.04 33.9 53.15 29.16 56.4 35.3 52.85 29.35 56.63 29.73 56.41"/><polyline id="_Path_55" data-name="&lt;Path&gt;" class="cls-1" points="30.53 55.82 35.94 52.7 31.23 56.2 39.02 51.71 30.19 57.27 58.84 40.73 30.22 57.67 58.66 41.25 30.42 57.89 58.52 41.67 30.65 58.15 34.66 55.84 31.21 58.78 34.81 56.71"/><line id="_Path_56" data-name="&lt;Path&gt;" class="cls-1" x1="29.13" y1="58.2" x2="29.45" y2="58.02"/><polyline id="_Path_57" data-name="&lt;Path&gt;" class="cls-1" points="21.45 54.41 24.6 52.6 21.98 54.58 25.17 52.74 22.38 54.7 25.6 52.84 23.36 55.01 26.66 53.1 23.72 55.61 27.86 53.22"/><polyline id="_Path_58" data-name="&lt;Path&gt;" class="cls-1" points="21.87 55.51 22.09 55.38 21.92 55.79 22.45 55.48 22.26 55.89 22.79 55.59 23.07 56.15 23.63 55.83 23.31 56.29 28.54 53.27 23.2 56.73 29.12 53.32"/><polyline id="_Path_59" data-name="&lt;Path&gt;" class="cls-1" points="21.41 56.63 21.63 56.5 22.15 57.11 22.7 56.79 22.93 57.66 30.29 53.41"/><polyline id="_Path_60" data-name="&lt;Path&gt;" class="cls-1" points="14.88 51.02 17.63 49.44 15.55 51.38 18.25 49.82 15.42 52.41 19.04 50.31 15.33 52.88 19.4 50.54 15.26 53.28 15.78 52.98"/><polyline id="_Path_61" data-name="&lt;Path&gt;" class="cls-1" points="16.86 52.24 19.6 50.66 17.36 52.54 20.12 50.95 17.53 53.34 21.02 51.33 17.45 53.66 21.3 51.44 17.17 54.8 22.27 51.86 17.08 55.19 22.61 52 16.98 55.6 22.96 52.15"/><line id="_Path_62" data-name="&lt;Path&gt;" class="cls-1" x1="16.2" y1="53.74" x2="16.65" y2="53.48"/><line id="_Path_63" data-name="&lt;Path&gt;" class="cls-1" x1="14.26" y1="52.57" x2="14.67" y2="52.33"/><polyline id="_Path_64" data-name="&lt;Path&gt;" class="cls-1" points="4.58 22.75 10.42 19.38 4.97 23.38 9.8 20.59 5.3 23.93 9.39 21.57 6.09 24.06 9.06 22.35 6.53 24.73 8.62 23.52 6.02 25.7 8.42 24.32 6.18 26.25 8.24 25.06 6.36 26.88 8.03 25.91"/><line id="_Path_65" data-name="&lt;Path&gt;" class="cls-1" x1="2.67" y1="24.44" x2="4.05" y2="23.65"/><line id="_Path_66" data-name="&lt;Path&gt;" class="cls-1" x1="24.01" y1="4.22" x2="25.03" y2="3.64"/><polyline id="_Path_67" data-name="&lt;Path&gt;" class="cls-1" points="15.07 6.48 24.82 0.85 15.78 6.88 26.83 0.5 16.2 7.11 27.75 0.44 17.78 6.79 25.36 2.42 17.66 7.43 25.18 3.09 17.77 8.38 23.91 4.83 18.28 8.88 24.56 5.25 18.62 9.21 24.75 5.67"/><polyline id="_Path_68" data-name="&lt;Path&gt;" class="cls-1" points="16.88 9.76 17.35 9.49 16.42 10.67 24.76 5.86"/><polyline id="_Path_69" data-name="&lt;Path&gt;" class="cls-1" points="7.11 14.26 15.44 9.46 7.81 14.35 9.27 13.5 8.24 14.4 8.75 14.11"/><polyline id="_Path_70" data-name="&lt;Path&gt;" class="cls-1" points="9.61 13.29 15.66 9.8 9.66 13.59 15.78 10.06 9.72 13.87 15.89 10.3 9.87 14.68 16.22 11.02 10.22 14.99 24.77 6.59 10.83 15.25 26.53 6.18 11.26 15.43 16.16 12.6 9.88 17.07 13.71 14.86 9.84 17.63 12.8 15.92"/><polyline id="_Path_71" data-name="&lt;Path&gt;" class="cls-1" points="13.59 5.49 17.35 3.32 9.47 8.79 22.27 1.4 7.49 10.95 14.88 6.68 6.3 12.39 14.99 7.37 5.48 13.61 15.01 8.1 4.39 15.21 14.58 9.33 4.17 15.64 15 9.39 3.7 16.6 7.02 14.68 3.43 17.12 7.19 14.95 2.93 18.11 7.5 15.47 2.68 18.63 7.55 15.81 2.4 19.39 7.17 16.64 2.13 20.17 7.41 17.12 1.69 21.44 8.95 17.25 1.33 22.5 9.52 17.78 1.15 23.38 11.73 17.27 1.04 23.9 11.29 17.98 0.81 25.03 4.28 23.02 0.74 25.36 4.14 23.39 0.63 25.89 2.5 24.81 0.52 26.61 2.98 25.18 0.46 27.47 3.51 25.71 0.44 27.75 3.49 25.99 0.38 28.76 3.42 27 0.32 29.5 5.33 26.61 0.29 30.06 5.87 26.83 0.28 30.73 7.93 26.31 0.33 31.44 7.79 27.13 0.39 32.42 7.7 28.2 0.43 33.05 7.65 28.88 0.47 33.59 7.6 29.47 0.49 33.95 7.57 29.86 0.53 34.51 7.52 30.47 0.7 35.36 7.59 31.38 0.81 35.9 7.64 31.95 0.95 36.62 7.7 32.72 1.05 37.09 7.74 33.22 1.22 37.91 7.81 34.1 1.34 38.49 7.94 34.68 1.59 39.22 8.13 35.44 1.76 39.7 8.25 35.95 1.87 40.02 8.34 36.28 2 40.41 8.44 36.7 2.14 40.81 8.54 37.11 2.41 41.6 8.78 37.92 2.73 42.42 9.12 38.73 3.11 43.18 9.45 39.52 3.23 43.42 9.55 39.77 3.48 43.92 9.77 40.29 3.87 44.7 10.13 41.09 4.24 45.44 10.56 41.79 4.57 45.99 10.9 42.34 4.97 46.59 11.28 42.95 5.17 46.89 11.47 43.26 5.44 47.29 11.72 43.66 5.59 47.5 11.86 43.88 5.89 47.95 12.2 44.31 6.34 48.61 12.72 44.93 6.48 48.83 12.89 45.12 6.75 49.15 13.17 45.45 7.02 49.46 13.43 45.76 7.61 50.13 14.01 46.43 8.03 50.61 14.47 46.89 8.42 51.05 14.93 47.29 8.83 51.52 15.42 47.72 9.25 51.96 15.9 48.12 9.76 52.41 16.41 48.57 10.36 52.93 17.04 49.07 10.84 53.36 14.03 51.52 11.2 53.68 12.46 52.95 11.5 53.94 12.71 53.25 11.72 54.14 12.95 53.43 12.44 54.68 14.43 53.53 12.76 54.89 14.34 53.98 13.02 55.07 14.44 54.25 13.24 55.22 14.66 54.41 14.04 55.76 16.4 54.4 14.58 56.13 16.19 55.2 15.06 56.45 16.57 55.58 15.61 56.75 23.34 52.28 16.31 57.11 24.27 52.51 16.96 57.43 20.92 55.14 17.53 57.72 20.67 55.9 18.33 58.12 20.31 56.98 18.61 58.26 20.32 57.27 19.02 58.42 20.75 57.42 19.79 58.69 21.52 57.69 20.49 58.93 22.22 57.93 21.01 59.11 22.74 58.11 21.47 59.27 27.55 55.76 22.08 59.48 27.87 56.14 23.25 59.77 28.41 56.79 24.41 60.01 28.27 57.78 25.48 60.23 28.03 58.76 26.33 60.4 29.76 58.42 27.09 60.46 30.02 58.76 28.2 60.53 30.96 58.94 28.91 60.58 34.88 57.13 29.38 60.61 34.92 57.41 30.48 60.68 35.03 58.06 32.23 60.57 36.06 58.36 33.46 60.49 40.06 56.68 34.06 60.45 40.36 56.81 36.13 60.09 47.56 53.49 38.1 59.69 51.98 51.68 39.61 59.22 50.77 52.78 43.6 57.63 47.36 55.45"/></g></svg>