<svg id="Layer_1_copy" data-name="Layer 1 copy" xmlns="http://www.w3.org/2000/svg" viewBox="0 0 61.7 71.93"><defs><style>.cls-1{fill:none;stroke:#cf2f3a;stroke-linecap:round;stroke-linejoin:round;stroke-width:0.79px;}</style></defs><title>monterrey</title><polyline class="cls-1" points="48.73 7.68 51.61 6.01 50.05 8.18 52.88 6.55 50.72 8.44 53.51 6.83 52.14 9.03 54.88 7.45 52.93 9.37 55.65 7.8 54.25 9.97 56.95 8.41 55.31 10.46 57.99 8.92 56.66 11.11 59.31 9.58 57.72 11.64 60.37 10.12 58.66 12.53 61.3 11.01 58.66 13.25 61.3 11.72 58.65 14.11 61.3 12.58 58.64 14.52 61.29 12.99 58.64 15.02 61.28 13.5 58.63 15.48 61.27 13.96 58.62 16.88 61.24 15.37 58.61 17.69 61.23 16.18 58.56 18.67 61.21 17.14 58.53 19.35 61.2 17.81 58.45 20.83 61.15 19.27 58.42 21.52 61.1 19.97 58.39 22.02 61.07 20.47 58.34 23 61 21.46 58.21 24.32 60.92 22.75 58.12 25.29 60.85 23.71 58.08 25.7 60.83 24.12 58.01 26.48 60.77 24.89 57.85 27.95 60.6 26.36 57.63 29.48 60.41 27.88 57.42 30.96 60.22 29.35 57.15 32.48 60.04 30.82 57.05 33.01 59.94 31.34 56.92 33.68 59.81 32.01 56.83 34.12 59.72 32.46 56.49 35.65 59.41 33.97 56.31 36.35 59.27 34.64 56.08 37.23 59.1 35.49 55.84 38.18 58.92 36.4"/><polyline class="cls-1" points="24.25 4.23 30.89 0.4 27.14 3.6 32.36 0.59 28.56 3.35 33.12 0.71 31.16 3.05 34.72 0.99 32.71 3.28 36.18 1.27 33.8 3.46 37.2 1.5 35.02 3.69 38.36 1.76 36.52 4 39.8 2.1 37.66 4.25 40.89 2.39 38.13 4.89 41.98 2.67 38.13 5.66 42.86 2.93 38.14 6.56 43.88 3.24 38.14 7.61 45.08 3.6 38.14 8.45 46.02 3.9 38.15 8.91 46.52 4.08 38.15 9.81 47.49 4.42 38.15 11.22 48.99 4.97 38.16 11.81 49.59 5.21 38.16 12.72 50.54 5.58 38.16 14.16 48.4 8.25 38.17 15.09 48.4 9.18 38.17 16.22 48.4 10.31"/><polyline class="cls-1" points="14.88 18.27 23.4 13.36 16.3 18.27 23.41 14.16 17.14 18.27 23.41 14.65 18.86 18.27 23.42 15.63 19.53 18.26 23.43 16.01 21.84 18.26 24.3 16.84 23.17 18.26 25.64 16.83 24.78 18.25 27.13 16.9 25.97 18.25 27.42 17.42 26.44 18.37 27.58 17.71 26.78 18.99 27.93 18.33 27.19 19.7 28.32 19.05 27.45 20.17 28.59 19.52 27.96 21.07 29.08 20.42 28.16 21.42 29.28 20.77 28.34 21.73 29.45 21.09 28.74 22.44 29.85 21.8 29.29 23.42 30.39 22.79 29.79 24.31 32.91 22.51 30.4 25.39 31.72 24.63 30.75 26.01 31.04 25.84"/><polyline class="cls-1" points="34.37 17.18 34.97 16.84 33.91 18.04 36.01 16.82 33.57 18.64 36.75 16.81 32.95 19.78 35.15 18.51 32.38 20.82 34.56 19.56 31.75 21.97 33.91 20.72 31.28 22.83 33.42 21.59"/><polyline class="cls-1" points="35.68 18.28 48.4 10.94 38.17 18.28 48.4 12.37 40.63 18.27 48.4 13.78 41.61 18.27 48.4 14.34 43.42 18.26 48.4 15.39 45.69 18.26 48.4 16.69 46.43 18.25 48.49 17.06 47.18 18.25 48.61 17.43 47.65 19.28 48.98 18.51 47.77 19.63 49.1 18.86 48.03 20.39 49.36 19.63 48.33 21.26 49.66 20.49 48.57 21.96 49.9 21.2 48.8 22.63 50.13 21.86 48.94 23.03 50.26 22.27 49.09 23.45 50.41 22.69 49.4 24.36 50.72 23.6 49.56 24.84 50.88 24.08 49.74 25.35 51.05 24.59 50.15 26.55 51.46 25.79 50.34 27.11 51.65 26.35 50.6 27.87 51.91 27.12 50.99 29 52.3 28.25 51.39 30.16 52.69 29.41 51.63 30.85 52.93 30.1 51.8 31.36 53.1 30.61 52.02 31.98 53.31 31.23 52.25 32.65 53.54 31.91 52.41 33.13 53.71 32.39 52.58 33.6 53.87 32.86 52.93 34.64 54.22 33.89 53.17 35.32 54.45 34.58 53.49 36.26 54.77 35.52 53.86 37.33 55.14 36.59 54 37.75 55.28 37.01 54.16 38.23 55.44 37.49 54.37 38.82 55.65 38.08 54.58 39.43 58.74 37.03"/><polyline class="cls-1" points="49.41 42.62 54.55 39.65 53.41 41.51 58.24 38.73 54.4 42.28 57.76 40.34 53.61 44.16 57.2 42.09 52.65 46.09 56.47 43.89 52.08 47.17 56.06 44.88 50.86 49.21 55.35 46.61 49.54 51.23 54.37 48.44 48.66 52.5 53.77 49.55"/><polyline class="cls-1" points="41.17 36.39 41.32 36.3 40.81 37.57 41.62 37.1 40.35 39.1 41.99 38.15 39.9 40.57 42.36 39.15 39.67 41.33 42.55 39.67 39.37 42.33 42.8 40.35"/><polyline class="cls-1" points="23.91 44.07 26.37 42.65 25.2 44.07 27.67 42.64 27.27 44.06 29.73 42.64 29.01 44.06 31.48 42.63 30.67 44.06 33.15 42.63 31.94 44.05 34.41 42.62 33.65 44.05 36.13 42.62 34.98 44.05 37.46 42.62 36.03 44.05 38.51 42.61 37.76 44.04 43.04 41 38.12 44.91 43.36 41.88 38.12 46.08 44.18 42.58 38.12 46.72 46.33 41.98 38.13 47.46 48.82 41.29 38.13 47.97 50.53 40.81 38.13 49.15 48.4 43.22 38.13 49.91 48.4 43.99 38.13 50.48 48.4 44.55 38.14 51.84 48.4 45.92 38.14 53.28 48.4 47.36 38.15 53.68 48.4 47.76 38.15 54.39 48.4 48.47 38.15 54.97 48.4 49.05 38.15 56.2 48.4 50.28 38.16 57.49 48.4 51.57 38.16 57.99 48.4 52.07 38.16 59.01 53.42 50.2 38.16 59.65 52.91 51.14 38.16 60.14 52.37 51.94 38.17 60.64 51.78 52.78 38.17 61.25 51.08 53.8 38.17 62.06 50.14 55.15 38.17 63.05 48.58 57.04 33.7 66.71 46.7 59.2"/><polyline class="cls-1" points="20.35 36.4 20.51 36.3 20.11 37.05 20.64 36.74 19.62 38.45 20.93 37.69 19.26 39.44 21.14 38.36 18.68 41.06 21.48 39.45 18.2 42.43 21.76 40.37"/><polyline class="cls-1" points="7.22 41.27 9.01 40.23 8.83 41.7 10.62 40.67 10.05 42.03 11.83 41 10.74 42.22 12.51 41.19 11.38 42.39 13.15 41.36 12.21 42.61 13.97 41.59 12.97 42.81 14.73 41.8 13.11 44.08 16.31 42.23 13.11 45.29 17.74 42.62 13.12 46.32 22.01 41.18 13.12 47.48 22.32 42.17 13.13 48.75 23.7 42.65 13.13 49.61 25.19 42.65 13.14 51.03 23.38 45.12 13.14 51.55 23.38 45.65 13.15 52.44 23.38 46.53"/><polyline class="cls-1" points="6.85 10.24 20.16 2.56 13.07 7.79 23.64 1.69 13.07 8.74 26.27 1.13 13.09 10.18 29.81 0.53 13.1 11.05 23.38 5.11 13.11 12.27 23.38 6.33 13.11 12.74 23.39 6.81 13.12 13.82 23.39 7.9 13.13 14.81 23.39 8.88 13.13 15.31 23.4 9.38 13.14 16.53 23.4 10.61 12.7 18.1 23.41 11.92 12.52 18.63 23.41 12.35 12.22 19.5 23.41 13.04 12 20.16 14.13 18.93 11.67 21.14 13.8 19.91 11.48 21.68 13.61 20.45 11.25 22.37 13.38 21.14 10.8 23.68 12.94 22.45 10.19 25.48 12.33 24.24 9.68 26.98 11.82 25.74 9.47 27.61 11.61 26.37 9.09 28.7 11.24 27.47 8.64 30.04 10.79 28.8 8.35 30.89 10.5 29.64 8.19 31.38 10.33 30.14 7.64 32.99 9.79 31.75 7.43 33.6 9.58 32.36 7.26 34.1 9.41 32.86 7.07 34.65 9.23 33.41 6.62 35.97 8.78 34.72 6.28 36.97 8.44 35.72 5.96 37.91 8.12 36.66"/><polyline class="cls-1" points="0.4 10.84 3.83 8.86 0.4 11.75 10.94 5.66 0.4 12.63 15.27 4.05 0.43 13.84 3 12.35 0.45 15.03 3.02 13.55 0.46 15.7 3.04 14.21 0.49 17.06 3.06 15.58 0.5 17.9 3.07 16.42 0.52 18.65 3.08 17.17 0.57 19.68 3.11 18.21 0.65 20.9 3.18 19.44 0.73 22.22 3.24 20.77 0.8 23.25 3.3 21.81 0.87 24.25 3.35 22.82 0.91 24.77 3.4 23.33 1.03 26.07 3.52 24.63 1.16 27.05 3.61 25.63 1.31 28.22 3.72 26.83 1.47 29.44 3.87 28.05 1.64 30.78 4.06 29.39 1.69 31.15 4.11 29.76 1.88 32.2 4.26 30.82 2.07 33.07 4.41 31.72 2.33 34.29 4.64 32.96 2.56 35.36 4.85 34.03 2.69 36 4.98 34.68 2.89 36.91 5.2 35.58 3.16 37.91 5.46 36.59 3.36 38.53 5.62 37.23 3.57 39.19 5.79 37.91 3.7 39.6 7.96 37.14 4.01 40.58 7.47 38.59 4.13 40.96 7.29 39.14 4.39 41.77 7.69 39.87 4.56 42.31 8.44 40.07 4.8 42.99 7.05 41.69 5.21 43.93 7.44 42.64 5.54 44.68 7.76 43.4 5.75 45.19 7.97 43.9 6.04 45.85 8.26 44.58 6.32 46.49 8.58 45.19 6.79 47.45 9.07 46.13 7.14 48.1 9.41 46.79 7.47 48.69 9.73 47.39 7.94 49.53 10.22 48.21 8.5 50.54 10.83 49.19 9.11 51.55 11.45 50.2 9.77 52.51 12.11 51.16 10.42 53.45 12.76 52.1 11.02 54.31 23.38 47.18 11.75 55.32 23.38 48.6 12.24 55.89 23.38 49.46 12.88 56.65 23.38 50.58 13.35 57.2 23.38 51.41 14.15 58.15 23.39 52.82 14.74 58.84 23.39 53.84 14.97 59.09 23.39 54.23 15.89 59.99 23.39 55.66 16.7 60.78 23.39 56.92 17 61.08 23.39 57.4 17.78 61.84 23.39 58.6 18.48 62.53 23.39 59.7 19.33 63.26 23.39 60.92 19.83 63.67 23.4 61.61 20.18 63.96 23.4 62.1 21.2 64.8 23.57 63.43 21.89 65.38 24.3 63.99 22.66 66.02 25.1 64.61 23.69 66.81 26.15 65.39 24.79 67.62 27.26 66.19 25.52 68.13 27.99 66.7 26.3 68.67 28.78 67.24 26.68 68.94 29.17 67.5 27.53 69.51 30.03 68.06 27.99 69.81 30.5 68.36 28.55 70.17 45.63 60.31 29.11 70.54 43.72 62.1 30.01 71.11 39.72 65.5 30.69 71.53 33.7 69.79"/></svg>