<svg id="Layer_1_copy" data-name="Layer 1 copy" xmlns="http://www.w3.org/2000/svg" viewBox="0 0 76.23 98.15"><defs><style>.cls-1,.cls-2,.cls-3{fill:none;stroke-linecap:round;stroke-linejoin:round;}.cls-1,.cls-2{stroke:#394170;}.cls-1,.cls-3{stroke-width:1.05px;}.cls-2{stroke-width:1.05px;}.cls-3{stroke:#fff;}</style></defs><title>pachuca</title><line class="cls-1" x1="34.33" y1="2.76" x2="38.2" y2="0.52"/><polyline class="cls-1" points="2.58 12.11 5.09 10.66 3.87 12.09 6.39 10.64 5.95 12.09 8.5 10.62 9.21 12.07 11.8 10.58 10.73 12.05 13.31 10.56 12.2 12 14.81 10.49 13.66 11.95 16.43 10.35 16.59 11.74 19.9 9.83 18.47 11.48 22.58 9.11 22.93 10.42 39.28 0.98"/><polyline class="cls-1" points="38.36 2.06 39.78 1.24 39.96 2.99 41.37 2.18 40.89 3.55 42.28 2.75 42.24 4.35 43.59 3.57 43.36 5 44.66 4.25 44.66 5.74 45.99 4.98 45.15 6.03 46.5 5.25 46.16 6.59 47.53 5.8 46.63 6.84 48 6.05 47.37 7.24 48.75 6.44 48.4 7.78 49.83 6.96 49.69 8.41 51.14 7.58 50.19 8.65 51.64 7.81 51.69 9.34 53.2 8.47 53.43 10.04 55.03 9.12 54.33 10.35 55.92 9.43 56.44 10.97 58.23 9.95 57.09 11.12 58.91 10.07 59.4 11.55 61.43 10.38 61.48 11.8 63.61 10.57 62.26 11.87 64.45 10.6 64.23 11.98 66.47 10.69 66.02 12.05 68.36 10.7 68.67 12.08 71.07 10.7 71.41 12.09 73.8 10.71 74.26 12.34 75.54 11.6 74.28 13.98 75.66 13.19 74.3 15.76 75.66 14.98 74.31 16.5 75.66 15.72 74.34 18.13 75.66 17.37 74.36 19.53 75.66 18.78 74.38 21.33 75.66 20.59 74.39 22.45 75.66 21.72 74.39 23.46 75.66 22.73 74.4 24.78 75.66 24.05 74.41 26.05 75.66 25.33 74.42 27.24 75.66 26.53 74.42 28.42 75.66 27.71 74.42 29.07 75.66 28.35 74.4 30.38 75.66 29.65 74.39 31.26 75.67 30.53 74.38 33.15 75.68 32.4 74.36 35.05 75.7 34.27 74.31 36.28 75.71 35.48 74.23 37.87 75.54 37.11 74.16 39.55 75.53 38.76 74.12 40.34 75.51 39.54 74.06 41.71 75.47 40.9 73.92 43.38 75.37 42.54 73.78 44.77 75.24 43.92 73.7 45.55 75.16 44.71 73.61 46.44 75.07 45.59 73.43 48.16 74.89 47.32 73.17 50.16 74.64 49.31 73.07 50.72 74.55 49.86 72.82 52.11 74.34 51.23 72.6 53.32 74.15 52.43 72.31 54.96 73.88 54.05 72.03 56.41 73.54 55.54 71.85 57.06 73.39 56.16 71.29 59.06 72.94 58.11 70.65 61.34 72.33 60.37 70.44 62.11 72.12 61.14 69.94 63.59 71.73 62.56 69.5 64.75 71.32 63.7 68.75 66.7 70.65 65.6 68.01 68.3 70.03 67.13 67.12 70.14 69.26 68.91 66.34 71.65 68.6 70.35 65.58 72.92 67.97 71.54 64.85 74.14 67.36 72.69 63.69 75.94 66.35 74.4 62.01 78.21 65.03 76.46 60.18 80.42 63.57 78.47 56.58 84.17 61.09 81.57 49.63 89.88 57.52 85.33"/><polyline class="cls-1" points="0.66 11.51 2.07 10.69 0.52 13.14 1.89 12.35 0.52 14.13 1.89 13.34 0.52 15.43 1.89 14.64 0.53 17.16 1.89 16.38 0.53 17.93 1.89 17.14 0.53 19.69 1.88 18.91 0.53 20.51 1.88 19.73 0.53 22.15 1.88 21.37 0.53 23.7 1.88 22.92 0.53 24.91 1.88 24.13 0.53 26.35 1.87 25.57 0.53 27.73 1.87 26.95 0.53 28.32 1.87 27.54 0.53 30.03 1.89 29.24 0.53 31.63 1.92 30.82 0.54 32.85 1.94 32.04 0.6 34.27 1.96 33.49 0.64 34.94 1.97 34.17 0.7 36.35 2.01 35.59 0.74 37.2 2.06 36.44 0.77 37.87 2.09 37.1 0.82 39.07 2.15 38.3 0.85 39.6 2.18 38.83 0.89 40.43 2.22 39.66 0.93 41.3 2.27 40.53 0.99 42.57 2.33 41.79 1.11 43.74 2.44 42.98 1.23 44.86 2.56 44.09 1.29 45.49 2.63 44.72 1.36 46.11 2.69 45.34 1.44 46.93 2.78 46.15 1.5 47.48 2.84 46.71 1.62 48.37 2.93 47.61 1.84 50 3.12 49.26 1.95 50.85 3.27 50.09 2.2 52.59 3.58 51.8 2.54 54.12 3.86 53.35 2.76 55.13 4.05 54.38 2.97 56.1 4.23 55.37 3.23 57.31 4.51 56.57 3.68 58.86 4.95 58.13 4.05 60.12 5.3 59.4 4.48 61.57 5.71 60.86 5.01 63.09 6.15 62.44 5.37 64.12 6.53 63.45 5.67 64.97 6.85 64.29 5.97 65.81 7.16 65.12 6.5 67.04 7.65 66.38 7.08 68.37 8.23 67.7 7.33 68.96 8.51 68.28 7.72 69.85 8.93 69.15 8.41 71.11 9.56 70.45 9.11 72.38 10.24 71.73 9.62 73.32 10.79 72.64 10.31 74.54 11.51 73.85 10.86 75.47 12.06 74.78 11.36 76.27 12.58 75.56 12.04 77.32 13.33 76.57 12.38 77.78 13.67 77.04 13.11 78.72 14.37 77.99 13.44 79.14 14.68 78.42 14.11 80.01 15.35 79.3 14.51 80.51 15.78 79.78 15.37 81.48 16.64 80.75 16.32 82.55 17.59 81.82 16.99 83.32 18.27 82.58 17.4 83.73 18.67 83 18.06 84.38 19.35 83.63 18.41 84.73 19.72 83.98 19.27 85.58 20.61 84.81 19.99 86.27 21.34 85.49 20.66 86.83 21.97 86.08 21.56 87.58 22.86 86.83 21.96 87.91 23.28 87.15 23.28 89 24.65 88.21 23.86 89.48 25.25 88.68 25.02 90.36 26.4 89.56 25.85 90.92 27.2 90.14 26.97 91.69 28.36 90.88 27.45 92.02 28.86 91.2 28.38 92.65 29.82 91.82 29.7 93.47 31.12 92.65 30.82 94.12 32.21 93.32 32.07 94.85 33.52 94.02 32.64 95.18 34.11 94.33 33.43 95.64 34.93 94.77 34.59 96.23 36.06 95.38 35.94 96.9 37.37 96.07 36.76 97.29 38.47 96.3 38.81 97.63 51.1 90.54"/><polyline class="cls-2" points="29.41 23.49 29.77 23.29 29.32 24.12 30.35 23.53 28.98 25.17 31.22 23.88"/><polyline class="cls-2" points="28.43 18.32 31.06 16.8 29.34 19.49 31.48 18.25"/><polyline class="cls-2" points="25.82 16.68 28.4 15.19 24.63 18.76 30.25 15.52 24.24 20.21 30.84 16.4 24.05 21.68 26.59 20.21 23.99 22.69 26.43 21.28 24.1 24.44 26.41 23.11 24.31 25.4 26.47 24.16 24.43 25.84 26.59 24.59 25.03 27.26 27.47 25.85 25.71 28.13 31.44 24.82 27.35 28.9 30.85 26.88 28.39 28.95 30.33 27.83"/><polyline class="cls-2" points="35.79 22.52 40.37 19.88 37.38 22.45 40.36 20.73 37.89 23.63 40.35 22.21 37.89 24.47 40.35 23.05 37.9 24.99 40.35 23.58 37.9 26.33 40.34 24.92 37.9 28.2 40.33 26.8 39.58 28.73 40.32 28.3"/><polyline class="cls-2" points="37.97 13.5 38.44 13.23 37.97 14.04 39.27 13.29 37.97 15.43 40.4 14.02 37.97 15.99 40.4 14.58 37.96 16.95 40.4 15.54 37.96 17.55 40.39 16.15 37.96 18.32 40.39 16.92"/><polyline class="cls-2" points="32.91 14.3 33.8 13.78 32.9 15.96 35.29 14.58 32.89 17.25 35.29 15.86 32.88 18.96 35.29 17.57 32.87 20.36 35.59 18.79 32.87 21.66 40.38 17.32 32.86 23.09 40.38 18.75 32.85 23.93 35.22 22.57 32.84 25.67 35.22 24.3 32.84 27.42 35.22 26.05 33.54 28.75 35.22 27.78 34.68 28.73 35.23 28.41"/><polyline class="cls-2" points="47.18 15.37 47.56 15.15 47.17 16.31 48.7 15.42 47.16 17.65 49.58 16.26 47.15 18.93 49.56 17.54 47.14 19.63 49.55 18.24 47.12 21.52 49.52 20.14 47.11 23.05 49.5 21.67 47.02 24.41 49.48 22.98 46.78 25.06 49.47 23.51"/><polyline class="cls-2" points="42.09 14.03 42.46 13.82 42.08 14.67 43.23 14.01 42.07 15.92 44.48 14.53 42.06 16.91 44.46 15.52 42.04 18.05 44.45 16.66 42.03 19.21 44.43 17.82 42.02 20.51 44.41 19.13 42 21.49 44.4 20.11 42 22.99 44.38 21.62 42.11 24.44 44.36 23.14 42.31 25.57 44.48 24.31 42.48 26.15 44.66 24.89 42.67 26.83 45.06 25.45 43.39 28.05 49.35 24.61 44.57 28.8 49.09 26.19 46.38 28.94 48.3 27.83"/><polyline class="cls-1" points="11.86 25.01 15.25 23.06 13.06 24.89 14.86 23.84"/><polyline class="cls-1" points="11.98 20.65 14.59 19.14 13.04 21.1 15.17 19.87 13.2 21.88 15.41 20.61"/><polyline class="cls-1" points="8.9 19.12 9.45 18.81 8.9 19.89 10.84 18.77 8.9 20.66 12.24 18.73 8.9 21.34 13.39 18.75 8.9 23.11 11.25 21.75 8.9 24.1 11.28 22.72 8.9 25.81 15.39 22.06 8.9 26.62 11.23 25.27 8.9 27.54 11.24 26.19 8.9 28.07 11.25 26.71 10.16 28.81 11.28 28.17"/><polyline class="cls-1" points="18.49 26.96 22.57 24.61 19.7 26.89 22.71 25.15 20.92 27.8 23.08 26.56 21.08 28.5 23.26 27.25 23.11 28.76 23.59 28.48"/><polyline class="cls-1" points="19.41 20.79 21.29 19.7 19.77 22.32 21.68 21.22 20.08 23.66 22.03 22.54 20.19 24.12 22.15 22.99"/><polyline class="cls-1" points="18.01 18.27 18.76 17.84 17.54 19.99 20.87 18.07 17.08 21.67 21.2 19.3 16.55 23.64 18.94 22.26 16.14 25.13 18.66 23.67 15.94 25.87 18.53 24.38 15.47 27.57 22.31 23.62 15.89 28.77 17.76 27.69 17.04 28.77 17.63 28.43"/><polyline class="cls-2" points="56.28 24.48 56.62 24.28 55.98 25.51 57.41 24.68"/><polyline class="cls-2" points="54.89 19.5 57.2 18.17 55.44 19.74 57.46 18.58 56.28 21.15 58.17 20.06 57.7 21.13 58.39 20.72"/><polyline class="cls-2" points="51.98 17.77 53.84 16.7 51.15 19.93 55.9 17.18 50.91 21.86 53.62 20.3 50.94 23.44 53.3 22.08 50.98 24.18 53.27 22.86 51.33 25.82 53.41 24.62 51.68 26.76 53.73 25.58 52.56 28.13 58.01 24.98 53.13 28.56 58.37 25.54 54.17 28.9 58.03 26.68 55.48 28.93 57.41 27.81"/><polyline class="cls-1" points="62.21 27.08 66.28 24.73 64.53 27.16 66.63 25.95 64.84 28.39 66.98 27.15 66.9 28.8 67.37 28.53"/><polyline class="cls-1" points="63.3 21.41 65.05 20.4 63.51 22.41 65.32 21.36 63.76 23.56 65.64 22.48 64 24.69 65.95 23.57"/><polyline class="cls-1" points="61.88 18.91 62.48 18.56 61.59 19.9 63.79 18.62 61.16 21.35 64.74 19.27 60.76 22.68 63.12 21.31 60.18 24.61 62.68 23.16 59.78 25.94 62.38 24.44 59.47 26.99 63.03 24.94 59.21 27.86 66.05 23.91 59.41 28.83 61.58 27.57 60.79 28.78 61.41 28.43"/><polyline class="cls-1" points="7.73 16.71 11.05 14.79 10.61 16.69 14.09 14.68 12.38 16.66 16.02 14.56 13.34 16.65 17.18 14.43 15.22 16.61 19.53 14.12 17.25 16.51 22.59 13.42 21.12 16.11 39.13 5.71 25.65 14.98 40.4 6.46"/><polyline class="cls-1" points="38.42 8.1 40.82 6.71 39.57 8.77 41.96 7.38 40.34 9.22 42.75 7.83 41.79 10.06 44.22 8.66 43.09 10.8 45.54 9.38 44.63 11.67 47.14 10.22 46.09 12.44 48.64 10.97 47.13 12.99 49.75 11.48 48.65 13.71 51.32 12.16 49.32 14.02 52.05 12.45 50.89 14.66 53.69 13.04 52.4 15.21 55.28 13.54 53.44 15.53 56.44 13.8 54.62 15.82 57.65 14.07 55.26 15.96 58.32 14.19 56.93 16.26 60.1 14.43 58.9 16.51 62.16 14.62 60.48 16.6 63.72 14.73 62.99 16.7 66.28 14.8 64.69 16.73 67.98 14.83 66.36 16.74 69.7 14.81 68.08 16.75 71.46 14.79 69.05 17.87 71.58 16.41 69.07 19.3 71.59 17.85 69.08 20.01 71.6 18.56 69.1 21.73 71.61 20.28 69.11 22.72 71.61 21.27 69.13 24.24 71.63 22.8 69.14 25.17 71.63 23.73 69.15 26.5 71.64 25.07 69.16 27.12 71.65 25.69 69.17 28.04 71.65 26.61 69.19 29.42 71.66 27.99 69.2 30.18 71.67 28.75"/><polyline class="cls-1" points="47.22 31.65 49.19 30.51 49.01 31.65 50.98 30.51 50.4 31.65 52.37 30.5 52.82 31.64 54.8 30.5 53.69 31.64 55.67 30.5 55.49 31.64 57.47 30.5 57.9 31.64 59.88 30.49 59.33 31.64 61.31 30.49 61.56 31.63 63.54 30.49 64.05 31.63 66.03 30.48 66.85 31.63 68.83 30.48 69.05 31.83 71.65 30.33 69.08 33.59 71.62 32.13 69.1 34.79 71.61 33.34"/><polyline class="cls-1" points="37.39 37.64 46.56 32.34 39.3 37.27 46.58 33.06 40 37.56 46.59 33.76 40.39 38.45 46.61 34.86 41.71 38.63 47.8 35.12 42.67 39.8 50.8 35.11 42.6 41 52.81 35.11 43.18 42.59 56.14 35.1 43.57 43.34 57.85 35.1 43.86 43.92 59.13 35.1 44.51 45.22 62.05 35.1 44.97 46.49 64.71 35.09 45.33 47.5 66.83 35.09 45.09 49.52 71.6 34.21 44.92 50.14 71.59 34.74 44.48 51.79 71.55 36.16 44.67 53.25 71.47 37.77 44.89 54.59 71.4 39.28 45.01 55.32 71.36 40.11 45.63 55.98 71.31 41.15 46.23 57.31 71.2 42.9 46.69 58.34 71.06 44.27 46.87 58.76 71 44.83 47.17 59.42 70.91 45.71 47.15 60.08 70.84 46.4 46.54 61.6 70.71 47.64 46.63 63.25 70.49 49.48 46.74 65.06 70.12 51.56 46.84 66.81 69.76 53.58 46.88 67.6 69.6 54.48 46.91 68.12 69.49 55.09 47.19 69.83 68.93 57.28 47.31 71.5 68.35 59.35 47.41 72.92 67.87 61.11 47.53 74.44 67.17 63.11 47.83 75.04 66.77 64.11 48.55 76.16 65.99 66.09"/><polyline class="cls-1" points="7.62 31.65 9.59 30.51 10.3 31.65 12.28 30.51 11.17 31.65 13.14 30.51 12.14 31.65 14.11 30.51 15.28 31.64 17.24 30.51 18.22 31.64 20.17 30.51 19.45 31.64 21.4 30.51 21.64 31.63 23.59 30.51 24.75 31.63 26.69 30.51 26.11 31.63 28.04 30.51 29.25 31.62 31.18 30.51 29.47 33.16 34.06 30.51 29.5 34.65 36.67 30.51"/><polyline class="cls-1" points="4.65 15.15 5.18 14.85 4.65 16.4 7.35 14.84 4.65 18.23 7.06 16.83 4.64 19.93 7.07 18.52 4.64 20.75 7.07 19.35 4.64 21.71 7.08 20.3 4.63 23.63 7.09 22.21 4.63 24.56 7.1 23.14 4.63 26.05 7.11 24.62 4.64 27.55 7.11 26.12 4.66 29.42 7.13 28 4.67 31.14 7.13 29.71 4.68 32.07 7.38 30.51 4.74 33.85 6.97 32.56 4.75 34.4 6.98 33.11 4.78 35.25 7 33.97 4.82 36.37 7.02 35.1 4.86 37.8 9.51 35.11 4.97 39.54 12.65 35.11 5.04 40.52 14.41 35.11 5.13 41.8 16.72 35.1 5.2 42.77 18.48 35.1 5.26 43.66 20.09 35.1 5.31 44.25 21.16 35.1 5.45 45.43 23.36 35.09 5.57 46.39 25.14 35.09 5.65 46.99 26.26 35.09 5.84 48.55 29.15 35.09 6.04 50.13 40.01 30.51 6.16 50.79 41.28 30.51 6.36 51.8 43.24 30.51 6.68 53.48 46.46 30.51 6.96 54.88 36.05 38.08 7.18 56.04 33.44 40.88 7.54 57.3 33.66 42.22 7.82 58.26 33.48 43.44 8.01 58.94 32.48 44.81 8.43 60.39 31.65 46.99 8.73 61.47 31.94 48.08 9.3 62.94 31.89 49.9 9.62 63.73 31.79 50.93 9.84 64.3 31.71 51.67 10.27 65.35 31.58 53.05 10.71 66.46 31.43 54.5 11.13 67.48 31.3 55.83 11.75 68.62 30.33 57.89 12 69.08 29.36 59.05 12.36 69.74 29.42 59.89 12.61 70.2 29.63 60.38 13.09 71.08 30.26 61.16 13.68 72.16 30.14 62.66 14.1 72.89 30.06 63.67 14.41 73.33 30 64.32 15.09 74.26 29.89 65.71 15.67 75.08 29.79 66.93 16.57 76.32 29.58 68.81 17.35 77.4 29.09 70.62 17.95 78.11 28.95 71.75 18.68 78.9 28.8 73.06 19.27 79.53 28.68 74.1 20.18 80.52 28.09 75.95 20.77 81.16 28.5 76.71 21.83 82.28 31.1 76.93 22.54 82.88 32.63 77.06 23.66 83.83 35.05 77.26 24.39 84.45 36.61 77.39 25.07 85.04 38.09 77.52 25.68 85.55 39.39 77.63 26.31 86.09 41.41 77.37 27.14 86.69 43.79 77.07 27.93 87.22 46.02 76.78 28.37 87.53 47.26 76.62 29.5 88.3 65.29 67.63 30.21 88.78 64.63 68.91 31.13 89.4 63.78 70.56 32.18 90.1 62.62 72.53 33.4 90.77 61.13 74.76 35.05 91.68 58.51 78.13 36.2 92.3 56.13 80.8 37.82 93.2 49.95 86.19"/><g id="_Group_" data-name="&lt;Group&gt;"><polyline class="cls-3" points="12.96 41.39 13.87 40.87 14.38 41.61 14.95 41.28 14.84 41.88 15.39 41.56 15.31 42.32 15.81 42.04 15.95 43.86 16.46 43.57 15.84 44.45 16.49 44.07 15 45.92 16.25 45.2"/><polyline class="cls-3" points="10.68 42.04 12.73 40.85 10.13 43.09 10.99 42.59 10.13 44.95 10.69 44.63 11.01 46.3 11.57 45.97 11.5 46.64 11.74 46.5"/></g><g id="_Group_2" data-name="&lt;Group&gt;"><polyline class="cls-3" points="11.74 49.16 13.09 48.38 13.7 48.91 15.05 48.13 16.11 48.6 16.73 48.24"/><polyline class="cls-3" points="10.48 49 11.12 48.63 10.55 49.54 12.41 48.47 10.73 51.06 11.27 50.75"/></g><g id="_Group_3" data-name="&lt;Group&gt;"><polyline class="cls-3" points="13.72 53.25 15.34 52.31 16.52 52.66 17.27 52.22"/><polyline class="cls-3" points="11.49 53.85 13.42 52.73 11.43 55.49 11.95 55.19 12.39 56.62 13.13 56.19 15.13 56.46 16.73 55.53 16.62 56.14 17.93 55.39"/></g><g id="_Group_4" data-name="&lt;Group&gt;"><polyline class="cls-3" points="17.45 58.24 18.5 57.63 18.44 59.57 18.95 59.27"/><line class="cls-3" x1="16.78" y1="60.86" x2="17.51" y2="60.44"/><polyline class="cls-3" points="14.78 59.13 17.03 57.83 15.82 59.83 16.29 59.56 15.95 60.44 16.58 60.07"/><polyline class="cls-3" points="12.61 59.62 13.79 58.94 12.89 60.46 13.31 60.21 13.08 60.93 13.49 60.7 14.27 62.13 15.09 61.65"/></g><g id="_Group_5" data-name="&lt;Group&gt;"><polyline class="cls-3" points="20.93 65.06 21.39 64.8 21.7 66.45 22.11 66.22 21.88 67.44 22.36 67.16 21.48 68.67 22.25 68.22"/><polyline class="cls-3" points="15.7 67.48 21.14 64.34 16.41 68.61 16.82 68.37 16.88 69.32 17.32 69.07 17.94 70.19 18.49 69.87 19.05 70.38 22.03 68.66"/></g><g id="_Group_6" data-name="&lt;Group&gt;"><polyline class="cls-3" points="22.08 72.1 22.58 71.81 22.63 72.77 23.13 72.48 23.11 73.36 23.61 73.07 23.45 73.77 23.95 73.48"/><polyline class="cls-3" points="24.31 70.31 24.82 70.02 24.69 70.78 25.19 70.49 25.12 71.3 25.62 71.01 25.68 71.99 26.18 71.7"/><polyline class="cls-3" points="22.88 70.39 24.4 69.51 19.86 73.94 20.36 73.65 20.24 74.39 20.73 74.11 20.78 75.06 21.28 74.78 21.2 75.57 21.7 75.28"/></g><g id="_Group_7" data-name="&lt;Group&gt;"><polyline class="cls-3" points="62.53 46.43 63.33 45.97 64.4 47.02 64.88 46.74 65.25 48.12 65.67 47.88 65.36 49.54 65.9 49.23 64.95 50.51 65.71 50.07"/><polyline class="cls-3" points="60.14 47.16 62.26 45.94 59.5 48.9 60.01 48.61 59.75 50.25 60.17 50.01 60.3 51.13 60.76 50.86 61.76 52.02 62.38 51.66 63.18 52.14 65.26 50.94"/></g><g id="_Group_8" data-name="&lt;Group&gt;"><polyline class="cls-3" points="63.09 54.91 63.65 54.59 63.99 55.48 64.4 55.25 63.93 57.2 64.49 56.88"/><polyline class="cls-3" points="60.29 54.6 60.84 54.28 60.94 55.02 61.38 54.76 61 56.56 61.58 56.23"/><polyline class="cls-3" points="58.67 54.89 60.09 54.07 58.47 56.92 59.16 56.53 60.32 57.34 61.51 56.66 61.25 57.55 61.9 57.18 61.9 57.7 62.55 57.32 63.59 58.08 64.35 57.64"/></g><g id="_Group_9" data-name="&lt;Group&gt;"><polyline class="cls-3" points="57.93 60.27 58.62 59.88 59.92 60.96 60.61 60.56 60.86 61.28 61.55 60.88 62.42 61.81 63.1 61.42"/><polyline class="cls-3" points="57.56 58.58 58.04 58.3 56.89 60.49 58.2 59.73 56.88 61.25 57.34 60.98"/></g><g id="_Group_10" data-name="&lt;Group&gt;"><polyline class="cls-3" points="54.38 65.98 54.84 65.72 54.71 66.31 55.33 65.96 55.51 66.7 56.12 66.35 56.41 67.15 57.01 66.8 57.98 67.91 58.6 67.55 58.63 68.14 59.58 67.59"/><polyline class="cls-3" points="55.91 62.95 56.4 62.66 57.34 63.77 57.93 63.43 58.04 64.11 58.62 63.77 58.68 64.42 59.26 64.09 59.31 64.74 59.87 64.42 60.32 65.46 60.82 65.17 60.58 66.16 61.16 65.83 60.45 66.87 61.2 66.44"/></g><g id="_Group_11" data-name="&lt;Group&gt;"><polyline class="cls-3" points="55.41 69.65 56 69.31 54.69 70.72 55.87 70.04"/><polyline class="cls-3" points="53.09 68.06 53.69 67.71 52.05 69.55 53.23 68.87 52.73 70.83 53.3 70.51 53.57 71.41 54.15 71.08 54.43 72 54.97 71.69 55.29 72.6 55.84 72.28 56 73.08 56.56 72.76 56.63 73.51 57.16 73.21"/></g><g id="_Group_12" data-name="&lt;Group&gt;"><polyline class="cls-3" points="65.74 41.39 66.29 41.07 65.72 42.68 66.31 42.34"/><polyline class="cls-3" points="59.98 43.45 60.49 43.16 61.12 43.77 62.12 43.2 62.24 43.8 63.24 43.23 65.12 43.87 66.29 43.2"/></g></svg>