<svg id="Layer_1_copy" data-name="Layer 1 copy" xmlns="http://www.w3.org/2000/svg" viewBox="0 0 51.48 68.63"><defs><style>.cls-1,.cls-2,.cls-3{fill:none;stroke:#cf2f3a;stroke-linecap:round;stroke-linejoin:round;}.cls-1{stroke-width:1.01px;}.cls-2{stroke-width:0.29px;}.cls-3{stroke-width:0.29px;}</style></defs><title>santos</title><polyline class="cls-1" points="25.57 8 26.79 7.29 26.25 9.03 27.64 8.23 27.43 9.09 27.88 8.84"/><polyline class="cls-1" points="30.97 6.45 33.34 5.08 32.19 6.68 34.51 5.34 33.74 7.37 36.24 5.93 35.12 8.2 37.75 6.68 36.18 8.93 36.61 8.68"/><polyline class="cls-1" points="27.64 6.48 30.56 4.79 28.89 7.61 30.75 6.54 29.89 8.54 31.86 7.41 30.62 9.51 32.77 8.27 31.48 10.64 33.69 9.37"/><polyline class="cls-1" points="25.63 4.64 26.05 4.4 26 5.32 26.94 4.78"/><polyline class="cls-1" points="23.41 6.48 24.88 5.64 23.35 7.88 28.72 4.78 23.53 9.12 24.59 8.51"/><line class="cls-1" x1="26.47" y1="2.59" x2="27.01" y2="2.28"/><line class="cls-1" x1="24.89" y1="0.82" x2="25.44" y2="0.5"/><polyline class="cls-1" points="23.74 1.98 24.24 1.69 24.92 3.08 26.99 1.89 24.93 4.13 25.82 3.61"/><polyline class="cls-1" points="12.17 7.4 15.24 5.63 13.72 8.04 19.23 4.87 14.23 8.77 21.15 4.77 19.67 6.8 23.2 4.76 17.33 9.83 22.88 6.63 18.84 10.49 19.89 9.88"/><line class="cls-1" x1="33.82" y1="14.14" x2="37.42" y2="12.06"/><polyline class="cls-1" points="34.94 11.19 38.63 9.06 34.89 12.54 37.95 10.78"/><line class="cls-1" x1="33" y1="12.51" x2="33.7" y2="12.11"/><polyline class="cls-1" points="30.74 12.06 31.6 11.57 30.9 12.8 31.79 12.29"/><line class="cls-1" x1="27.87" y1="12.51" x2="28.56" y2="12.11"/><line class="cls-1" x1="25.63" y1="14.13" x2="27.37" y2="13.13"/><polyline class="cls-1" points="23.25 11.01 25.55 9.68 24.14 11.74 26.47 10.4 24.32 12.44 27.23 10.76"/><line class="cls-1" x1="21.55" y1="14.1" x2="23.21" y2="13.14"/><line class="cls-1" x1="21.9" y1="12.51" x2="22.59" y2="12.11"/><polyline class="cls-1" points="18.79 12.04 19.61 11.57 17.48 14.2 19.89 12.81"/><line class="cls-1" x1="16.76" y1="12.51" x2="17.45" y2="12.11"/><polyline class="cls-1" points="12.2 9.25 12.37 9.15 12.59 10.2 13.46 9.69 13.1 11.45 14.9 10.41 13.34 12.05 15.59 10.75 13.8 13.17 15.86 11.98 14.22 14.22 15.95 13.22 14.63 15.21 18.12 13.19 15.87 15.39 17.21 14.61 18.43 15.38 22.74 12.89 20.56 15.38 26.42 12 22.75 15.37 26.6 13.15 25.99 15.37 29.82 13.16 29.26 15.36 33.09 13.15 31.17 15.36 33.3 14.13 32.55 15.36 37.17 12.69 33.9 15.35 36.77 13.7 35.61 15.35 36.26 14.97"/><polyline class="cls-1" points="16.88 19.94 19.29 18.55 18.69 20.24 22.79 17.88 18.33 21.59 25.09 17.69 18.54 23.25 27.95 17.82 19.4 23.53 29.12 17.91 21.15 24.09 31.17 18.3 22.88 24.64 33.06 18.77 23.71 24.91 33.92 19.01 25.03 25.33 33.75 20.29 27.7 25.49 34.31 21.67 30.03 24.92 34.57 22.3 34.25 23.89 35.02 23.44"/><polyline class="cls-1" points="33.69 19.54 34.31 19.18 34.8 20 35.41 19.65 35.85 20.45 36.46 20.09 37.34 21.14 37.9 20.82 38.29 21.72 38.84 21.4 39.11 22.22 39.66 21.91 40.25 22.93 40.78 22.63 41.4 23.91 41.92 23.61 42.05 24.46 42.57 24.17 42.85 25.14 43.36 24.85 43.37 25.67 43.88 25.38 43.82 26.18 44.32 25.89 44.85 27.36 45.34 27.08 45.58 28.23 46.08 27.94 46.27 29.31 46.76 29.03 46.8 30.14 47.28 29.86 47.38 31.05 47.85 30.78"/><polyline class="cls-1" points="42.49 29.81 42.79 29.63 42.48 30.66 43.69 29.97 42.48 31.64 44.72 30.35 42.47 32.97 46.11 30.87 42.46 34.46 48.11 31.2 42.45 36 48.65 32.43 42.45 37.19 49.06 33.38 42.51 38.53 49.52 34.48 43.29 39.92 49.99 36.05 44.02 41.24 50.37 37.57 44.39 41.91 50.56 38.35 44.73 42.53 50.69 39.09 45.28 43.52 50.8 40.34 45.98 44.78 49.21 42.92 46.58 45.85 47.13 45.53"/><polyline class="cls-1" points="50.41 41.71 50.88 41.44 50.4 43.49 50.98 43.15 50.32 44.42 50.91 44.08 50.23 45.57 50.81 45.23 49.94 47.58 50.62 47.18 49.69 48.67 50.35 48.29 49.41 49.83 50.06 49.45 48.95 51.2 49.75 50.74 48.11 53.28 48.88 52.83 47.21 54.97 48.23 54.38 46.37 56.4 47.35 55.83 45.27 57.9 46.51 57.18 44.12 59.33 45.5 58.53"/><polyline class="cls-1" points="34.84 57.71 36.62 56.68 32.44 60.61 43.56 54.19 31.17 62.16 43.64 54.96 29.81 63.81 43.65 55.82 30.63 64.37 43.66 56.85 32.33 64.9 43.67 58.36 33.24 65.19 43.67 59.17 34.18 65.48 44.79 59.36"/><polyline class="cls-1" points="16 64.81 19.62 62.72 19.17 63.85 20.08 63.33"/><polyline class="cls-1" points="6.6 53.32 6.9 53.15 6.61 54.34 7.95 53.57 6.63 56.14 9.8 54.31 6.65 57.69 11.4 54.95"/><polyline class="cls-1" points="1.22 42.32 9.15 37.74 1.67 42.85 9.13 38.54 2.65 44.01 7.66 41.11 3.42 44.9 6.53 43.11 3.96 45.54 5.72 44.52 4.46 46.13 4.97 45.84"/><polyline class="cls-1" points="10.31 22.96 16.03 19.66 6.16 27.05 7.67 26.18 4.22 29.82 5.26 29.22 3.21 31.51 4.22 30.93 2.48 33.24 7.86 30.13 1.71 35.13 9.08 30.88 1.35 36.58 9.09 32.11 1.09 37.66 9.1 33.03 0.76 39.36 9.12 34.53 0.61 41.27 9.14 36.35 0.5 42.55 1.05 42.23 0.54 43.65 1.07 43.34 0.6 44.47 1.15 44.16 0.72 45.96 1.28 45.64 0.91 47.39 1.41 47.1 1.1 48.19 1.6 47.9 1.36 49.23 1.88 48.94 1.59 50.15 2.12 49.85 1.8 50.95 2.33 50.64 2.4 52.39 2.88 52.11 2.82 53.37 3.33 53.08 3.4 54.65 3.92 54.35 3.86 55.41 4.31 55.15 4.35 56.19 4.83 55.91 4.9 57.08 5.42 56.78 5.26 57.66 5.81 57.34 5.7 58.22 6.21 57.93 6.47 59.11 12.75 55.49 7.26 60.03 14.15 56.05 8.08 60.93 15.19 56.82 8.86 61.6 15.78 57.6 9.75 62.36 16.45 58.49 10.39 62.91 16.93 59.13 11.65 63.79 17.77 60.26 12.34 64.22 18.21 60.84 13.85 65.16 19.16 62.1 14.75 65.6 15.32 65.28 16.16 66.19 16.76 65.84 17.64 66.82 18.29 66.44 19.14 67.22 19.83 66.82 20.27 67.5 20.98 67.09 21.97 67.86 22.8 67.38 24.07 68.03 24.91 67.54 25.29 68.13 26.25 67.57 27.07 68.06 28.13 67.45 30.76 67.6 32.39 66.66 33.4 66.95 42.48 61.71"/><g id="_Group_" data-name="&lt;Group&gt;"><polyline id="_Path_" data-name="&lt;Path&gt;" class="cls-1" points="20.38 59.54 20.67 59.37 21.23 60.16 22.7 59.31 21.24 60.93 23.91 59.38 22.81 61.33 23.25 61.08"/><line id="_Path_2" data-name="&lt;Path&gt;" class="cls-1" x1="22.11" y1="58.26" x2="22.31" y2="58.14"/><polyline id="_Path_3" data-name="&lt;Path&gt;" class="cls-1" points="26.4 59.54 26.69 59.37 27.25 60.16 28.72 59.31 27.26 60.93 29.94 59.38 28.83 61.33 29.27 61.08"/><line id="_Path_4" data-name="&lt;Path&gt;" class="cls-1" x1="28.14" y1="58.26" x2="28.34" y2="58.14"/></g><g id="_Group_2" data-name="&lt;Group&gt;"><polyline class="cls-2" points="24 43.69 25.32 42.94 24.1 43.74 25.39 43 24.49 44.06 26.09 43.14 24.82 44.38 25.15 44.19"/><polyline class="cls-2" points="28.64 38.53 28.81 38.43 28.61 38.56 28.82 38.44"/><polyline class="cls-2" points="26.54 39.08 27.71 38.41 26.81 39.35 27.96 38.69 27.04 39.58 28.86 38.52 27.04 39.81 28.75 38.83 27.04 40.03 28.2 39.36 27.05 40.92 28.01 40.36 27.05 41.52 28.01 40.96 27.05 41.72 28.01 41.16 27.05 42.59 28.01 42.04 27.08 43.22 28.11 42.62 27.21 43.75 28.37 43.08 27.36 43.95 28.57 43.26 27.47 44.1 28.94 43.25 27.51 44.15 28.96 43.31 27.76 44.39 28.11 44.19"/><polyline class="cls-2" points="26.99 38.17 27.34 37.97 26.35 38.79 27.51 38.12 25.57 39.53 27.65 38.33 25.4 39.69 26.42 39.1 25.36 39.73 26.39 39.13"/><polyline class="cls-2" points="23.7 39.1 24.88 38.42 23.73 39.13 24.9 38.45 23.86 39.28 25 38.63 24.17 39.89 25.13 39.33 24.17 40.66 25.86 39.68 24.17 41.52 25.14 40.96 24.17 41.84 25.14 41.28 24.18 42.52 25.15 41.95 23.98 43.12 25.15 42.45 23.41 44.11 23.48 44.07"/><polyline class="cls-2" points="24.1 38.16 24.44 37.97 23.32 39.27 23.58 39.12"/></g><g id="_Group_3" data-name="&lt;Group&gt;"><polyline class="cls-2" points="31.35 38.84 32.28 38.3 31.95 38.82 32.14 38.71"/><polyline class="cls-2" points="29.66 38.82 31.23 37.91 30.07 39.47 32.33 38.17 30.08 40.03 31.2 39.39 30.08 40.14 31.2 39.49 30.08 40.56 31.2 39.92 30.08 40.99 31.2 40.34 30.09 41.82 31.2 41.18 30.09 41.86 31.2 41.22 30.09 42.12 31.2 41.48 30.09 42.23 31.2 41.58 29.2 43.43 31.21 42.27 30.15 43.66 31.47 42.9 30.47 43.92 31.82 43.14 30.86 44.27 31.37 43.97 30.89 44.27 31.31 44.03"/><polyline class="cls-2" points="29.37 38.02 29.56 37.91 29.09 38.89 31.22 37.66 29.14 39.04 29.4 38.89"/><polyline class="cls-2" points="30.68 35.26 31.2 34.97 30.11 36.11 31.2 35.48 30.1 36.55 31.21 35.91 30.1 37.2 31.21 36.55 30.1 37.28 31.21 36.63 30.1 37.68 31.22 37.03 30.1 37.81 31.22 37.16"/></g><g id="_Group_4" data-name="&lt;Group&gt;"><polyline class="cls-2" points="28.01 29.14 28.16 29.05 28.02 29.55 28.91 29.03 28.02 29.78 29.16 29.13 28.03 30.58 29.16 29.93 28.03 30.83 29.16 30.18 28.04 31.15 29.16 30.5 27.96 31.57 29.16 30.88 27.87 31.88 29.16 31.14"/><polyline class="cls-2" points="25.31 29.14 25.46 29.05 25.31 29.36 25.86 29.04 25.31 29.54 26.18 29.03 25.31 30.16 26.43 29.52 25.31 30.69 26.43 30.04 25.33 31.44 26.43 30.8 25.35 31.66 26.43 31.03 25.38 31.9 26.43 31.29 25.39 32.06 26.47 31.44 25.55 32.37 26.58 31.78 25.76 32.71 26.86 32.07 26.07 32.88 27.27 32.19 26.27 32.99 29.16 31.32 27.6 33.1 28.93 32.33 27.95 33.05 28.78 32.58"/></g><g id="_Group_5" data-name="&lt;Group&gt;"><polyline class="cls-2" points="22.16 29.14 22.31 29.05 22.16 29.17 22.37 29.05 22.16 29.88 23.27 29.24 22.16 30.22 23.27 29.58 22.16 30.82 23.27 30.18 22.16 30.97 23.28 30.33 22.16 31.02 23.28 30.38 22.16 31.82 23.28 31.17 22.16 31.95 23.29 31.31 22.16 31.98 23.29 31.34 22.16 32.1 23.29 31.45 22.16 32.55 23.29 31.9 22.6 33.1 24.34 32.09 23.12 33.1 24.87 32.09 23.28 33.09 25.03 32.08 23.38 33.09 25.08 32.11 24.91 33.08 25.11 32.97 24.97 33.08 25.11 32.99"/></g><g id="_Group_6" data-name="&lt;Group&gt;"><polyline class="cls-2" points="20.59 31.68 20.74 31.6 20.48 31.92 21.05 31.59 20.46 31.96 21.11 31.59"/><polyline class="cls-2" points="19.79 29.96 21.02 29.25 20.6 30.37 21.57 29.81 21.6 30.45 21.72 30.39"/><polyline class="cls-2" points="18.4 29.64 19.31 29.11 18.02 30.55 20.57 29.08 17.95 31.19 19.12 30.52 18 31.46 19.08 30.84 18.15 32.09 19.17 31.5 18.59 32.69 19.62 32.1 18.84 32.85 19.95 32.21 19.21 33.03 21.73 31.57 19.49 33.07 21.7 31.79 20.59 33.06 21.36 32.62"/></g><g id="_Group_7" data-name="&lt;Group&gt;"><polyline class="cls-2" points="14.4 47.98 14.55 47.89 14.4 48.07 14.71 47.89 14.4 48.31 15.16 47.87 14.4 49.22 15.41 48.64 14.4 49.3 15.41 48.72 14.4 50.05 15.42 49.46 14.4 50.65 15.42 50.06 14.4 51.04 15.43 50.45 14.4 51.54 15.64 50.83 14.93 51.78 16.62 50.81 15.14 51.78 16.83 50.8 15.3 51.78 17 50.8 16 51.77 17.03 51.18 16.29 51.77 17.03 51.34 16.61 51.76 17.04 51.52 16.9 51.76 17.04 51.68"/></g><g id="_Group_8" data-name="&lt;Group&gt;"><polyline class="cls-2" points="27.85 47.98 28 47.89 27.86 48.26 28.52 47.88 27.86 48.87 28.89 48.28 27.87 49.11 28.89 48.52 27.87 49.14 28.89 48.55 27.88 49.93 28.89 49.35 27.87 50.12 28.89 49.53 27.74 50.61 28.89 49.94"/><polyline class="cls-2" points="25.46 47.98 25.61 47.89 25.46 48.08 25.79 47.89 25.46 48.62 26.48 48.03 25.46 48.69 26.48 48.1 25.46 48.99 26.48 48.41 25.46 49.33 26.48 48.74 25.46 49.37 26.48 48.78 25.46 49.89 26.48 49.3 25.46 50.06 26.48 49.47 25.53 50.76 26.51 50.2 25.72 51.16 26.63 50.63 25.82 51.32 26.78 50.77 26.55 51.75 28.84 50.42 27.11 51.82 28.79 50.85 27.45 51.79 28.66 51.09 27.75 51.75 28.54 51.29"/></g><g id="_Group_9" data-name="&lt;Group&gt;"><polyline class="cls-2" points="32.13 47.98 32.28 47.89 32.14 48.1 32.51 47.88 32.15 48.74 33.07 48.21 32.15 49.07 33.08 48.53 32.15 49.25 33.08 48.72 32.16 50.05 33.08 49.52 32.16 50.21 33.08 49.67"/><polyline class="cls-2" points="30.6 49.41 31.4 48.95 30.93 50.05 31.73 49.59 31.16 50.5 31.97 50.04 31.23 50.62 32.03 50.15 31.41 50.97 33.09 50 31.55 51.23 33.09 50.34 31.69 51.49 33.09 50.68 32.22 51.77 33.1 51.26 32.91 51.76 33.1 51.65 32.95 51.76 33.1 51.68"/><polyline class="cls-2" points="29.61 47.98 29.75 47.9 29.61 48.62 30.84 47.9 29.61 49.14 31.06 48.3 29.61 50.01 30.52 49.49 29.61 50.75 30.52 50.22 29.61 51.53 30.53 51 29.61 51.73 30.54 51.19 30.18 51.77 30.54 51.56 30.39 51.76 30.54 51.68"/></g><g id="_Group_10" data-name="&lt;Group&gt;"><polyline class="cls-2" points="23.31 49.64 23.45 49.55 23.33 50.25 24.57 49.53 23.87 50.44 24.87 49.86 23.89 50.68 24.87 50.11"/><polyline class="cls-2" points="23.2 48.66 24.21 48.08 23.66 48.83 24.53 48.33 23.82 49.18 24.75 48.64 24.19 49.23 24.8 48.88 24.75 49.22 24.86 49.15"/><polyline class="cls-2" points="21.75 48.44 22.6 47.95 21.53 48.81 23.18 47.86 21.37 49.27 23.74 47.91 21.36 49.37 23.87 47.92 21.34 49.5 23.99 47.97 21.34 50.17 22.37 49.58 21.48 50.82 22.38 50.3 21.89 51.39 22.8 50.86 22.35 51.69 24.88 50.23 22.62 51.73 24.88 50.42 22.74 51.74 24.88 50.51 23.69 51.63 24.89 50.94 24.1 51.6 24.89 51.15 24.12 51.7 24.89 51.25 24.74 51.77 24.89 51.69"/></g><polyline class="cls-3" points="35.52 43.46 36.77 42.74 36.76 43.25 37.06 43.08"/><polyline class="cls-3" points="34.71 38.81 35.85 38.16 34.82 38.87 35.92 38.24 35.45 39.26 36.44 38.69 35.89 39.54 37.47 38.63 35.91 40 36.75 39.52 35.91 40.78 36.75 40.3 35.92 41.58 36.76 41.1 35.92 42.44 36.76 41.96 35.93 42.58 36.76 42.09 35.93 42.9 36.76 42.42"/><polyline class="cls-3" points="32.85 43.42 34.17 42.66 33.51 43.87 34.83 43.11 33.99 44.28 34.65 43.9 34.11 44.28 34.39 44.12"/><polyline class="cls-3" points="32.64 39.12 32.88 38.98 32.74 39.31 33.43 38.91 32.92 39.71 35.79 38.05 32.92 40.43 34 39.81 32.92 41.1 34 40.48 32.93 41.84 34.01 41.22 32.93 42.07 34.01 41.45 32.93 42.11 34.01 41.48 32.93 42.37 34.01 41.74 32.27 43.63 34.08 42.59 32.31 43.67 32.59 43.51"/><polyline class="cls-3" points="21.27 42.85 22.24 42.29 21.37 43.57 22.49 42.92 21.54 43.84 22.75 43.15 21.77 44.08 23.13 43.29 21.93 44.26 22.31 44.04"/><polyline class="cls-3" points="19.74 39.38 21.73 38.23 19.92 39.34 21.76 38.28"/><polyline class="cls-3" points="20.8 38.98 21.83 38.38 20.93 39.1 21.94 38.52 21.06 39.21 22.05 38.64 21.37 39.76 23.03 38.8 21.37 40.02 22.25 39.51 21.37 40.25 22.22 39.76 21.37 40.67 22.23 40.18 21.38 41.46 22.23 40.97 21.38 41.66 22.23 41.17 21.38 42.15 22.23 41.66 20.85 42.74 22.24 41.94 20.53 43 22.24 42.02"/><polyline class="cls-3" points="20.18 40.8 20.41 40.67 20.57 41.26 20.69 41.19"/><polyline class="cls-3" points="21.27 38.13 21.53 37.99 21.03 38.41 21.65 38.05"/><polyline class="cls-3" points="18.66 38.24 19.08 37.99 18.55 38.64 19.43 38.13 18.85 39.29 19.58 38.87 18.86 39.31 19.56 38.9 19.11 39.63 21.61 38.19 19.21 39.76 19.53 39.57 19.62 40.27 19.94 40.09 18.43 41.82 19.52 41.19 18.17 42.29 19.22 41.69 18.09 42.88 19.19 42.24 18.17 43.29 19.32 42.63 18.21 43.37 19.36 42.71 18.45 43.75 19.68 43.04 18.75 44.07 20.14 43.26 19.18 44.26 19.82 43.9"/><polyline class="cls-3" points="41.21 43.34 42.14 42.81 41.8 43.17 42.22 42.93 41.85 43.16 42.22 42.94"/><polyline class="cls-3" points="40.34 40.99 41.39 40.38 41.13 41.41 41.97 40.92 41.15 42.12 41.98 41.64 41.16 42.42 41.99 41.95 41.17 42.83 41.99 42.36 41.18 42.92 42 42.44"/><polyline class="cls-3" points="38.67 43.58 40.31 42.64 39.51 43.79 40.91 42.98 40.03 44.1 40.43 43.87"/><polyline class="cls-3" points="39.37 38.7 40.45 38.07 39.45 38.76 40.55 38.13 39.81 39.02 41.14 38.26 40.57 38.99 41.95 38.19"/><polyline class="cls-3" points="41.48 38.56 41.85 38.34 40.57 39.9 40.88 39.72 40.28 40.33 40.58 40.16"/><polyline class="cls-3" points="37.77 38.9 38.07 38.73 38.05 39.18 40.22 37.93 38.09 39.44 39.14 38.83 38.11 40.29 39.17 39.68 37.82 41.01 39.19 40.22 38.39 41.35 39.93 40.47 39.26 41.35 40.95 40.38 38.64 42.59 39.2 42.27 37.77 43.97 40.15 42.6 37.83 44.02 38.13 43.84"/><polyline class="cls-3" points="9.57 43.06 10.98 42.25 8.7 44.13 12.4 41.99 8.46 44.55 9.7 43.83 8.29 45.52 8.91 45.16 8.47 46.11 8.94 45.84 8.52 46.27 9.03 45.97 8.85 46.44 9.36 46.15 9.16 46.57 11.15 45.43 9.54 46.54 10.71 45.87"/><polyline class="cls-3" points="15.35 38.85 16.55 38.15 15.76 38.98 16.87 38.34 15.99 39.07 17.02 38.47 16.64 39.39 17.46 38.92 16.7 39.43 17.49 38.98 17.1 39.82 17.71 39.47 17.21 39.98 17.74 39.67 17.27 40.05 17.76 39.77 17.36 40.34 17.8 40.09 17.39 41.07 17.78 40.85 17.31 41.41 17.68 41.19 17.11 41.79 17.54 41.54 16.63 42.38 17.19 42.06 16.12 42.9 16.84 42.48 15.92 43.09 16.7 42.63"/><polyline class="cls-3" points="12.84 43.27 14.35 42.4 13.02 43.35 14.52 42.48 13.17 43.41 14.63 42.57 13.69 43.64 15.03 42.86 13.98 43.82 15.3 43.06 14.11 43.9 15.42 43.15 14.17 43.95 15.48 43.19 14.86 44.26 15.1 44.12"/><polyline class="cls-3" points="11.21 42.91 12.74 42.02 12.59 43 13.94 42.22 12.58 43.09 14.03 42.26 12.3 43.6 12.65 43.4 11.59 44.64 11.99 44.41 10.76 45.5 11.44 45.11"/><polyline class="cls-3" points="14.39 40.61 15.83 39.78 15.19 40.85 16.42 40.14 15.22 40.86 16.44 40.15 15.4 40.93 16.54 40.27 16.19 41.36 16.8 41.01 16.25 41.47 16.78 41.16 16.13 42.22 16.34 42.1"/><polyline class="cls-3" points="10.45 36.9 10.56 36.83 10.27 37.51 10.64 37.29 10.28 38.37 10.93 37.99 10.62 39.06 11.58 38.51 10.8 39.23 11.83 38.64 11.19 39.58 12.43 38.87 11.69 39.84 13.03 39.07 11.86 39.92 13.24 39.13 12.38 40.09 13.8 39.27 13.28 40.37 14.91 39.43 13.81 40.52 15.39 39.61 13.76 40.97 14.24 40.69 13.32 41.91 13.8 41.63 13.3 41.95 13.78 41.67"/><polyline class="cls-3" points="17.01 35.8 17.75 35.38 16.38 36.49 17.01 36.12 15.59 37.56 16.12 37.25"/><polyline class="cls-3" points="16.43 34.43 16.73 34.25 16.21 34.62 16.77 34.3"/><polyline class="cls-3" points="12.6 34.51 13.6 33.93 13.75 34.68 14.69 34.14 14.23 35.08 15.33 34.44 14.42 35.32 15.61 34.63 14.53 35.47 15.78 34.74 14.58 35.53 15.85 34.79 14.64 35.62 16.81 34.36 14.83 35.96 15.46 35.59 14.88 36.04 15.14 35.88"/><polyline class="cls-3" points="11.78 34.63 12.76 34.07 11.18 35.62 11.68 35.34 11.14 36.26 11.72 35.92 11.17 36.42 11.77 36.07 11.25 36.86 12.06 36.39 11.47 37.26 12.45 36.7 12.04 37.81 13.29 37.09 12.26 37.92 13.55 37.18 12.83 38.19 14.23 37.38 13.77 38.5 15.21 37.66 14.5 38.7 15.93 37.88 14.64 39.19 15.11 38.92 14.58 39.33 15.05 39.06"/><polyline class="cls-3" points="31.24 31.33 33.2 30.2 32 31.36 32.92 30.82 32.37 31.67 33.12 31.24 32.28 31.94 33.19 31.41"/><polyline class="cls-3" points="31.27 29.82 32.42 29.15 31.43 29.81 32.52 29.17 32.04 29.86 32.88 29.37 32.12 29.95 32.98 29.46 32.14 30.36 33.16 29.77"/><polyline class="cls-3" points="29.84 29.17 29.98 29.09 29.84 29.76 31.02 29.09 29.84 30.04 31.5 29.09 29.84 30.73 31 30.06 29.84 31.17 31.03 30.48 29.84 31.58 31.61 30.56 29.84 32.45 31.01 31.78 29.84 32.52 31.02 31.85 30.4 33.09 32.19 32.06 30.62 33.08 33.25 31.56 32.31 33.01 33.21 32.49 32.52 32.96 33.12 32.62"/><polyline class="cls-3" points="34.7 51 36.74 49.83 36.15 51.05 37.03 50.53 36.42 51.72 37.31 51.2 37.38 51.73 37.5 51.66"/><polyline class="cls-3" points="35.53 48.92 36.2 48.53 35.74 49.48 36.43 49.08 35.94 50 36.64 49.59"/><polyline class="cls-3" points="34.87 48.03 35.07 47.92 34.6 48.68 35.95 47.91 34.22 49.61 35.46 48.89 34.09 49.9 35.37 49.16 33.77 50.68 35.14 49.89 33.56 51.18 35.47 50.09 34.04 51.74 34.4 51.53 34.19 51.73 34.37 51.63"/><polyline class="cls-3" points="18.65 51 20.68 49.83 19.55 50.98 20.85 50.23 20.15 51.21 21.05 50.69 20.32 51.6 21.21 51.09 20.99 51.74 21.39 51.52 21.32 51.73 21.45 51.66"/><polyline class="cls-3" points="19.47 48.92 20.14 48.53 19.56 49.17 20.25 48.77 19.73 49.59 20.42 49.19 19.82 49.84 20.52 49.44 19.88 50 20.59 49.59"/><polyline class="cls-3" points="18.81 48.03 19.01 47.92 18.75 48.19 19.22 47.91 18.5 48.78 19.92 47.96 18.43 48.96 19.96 48.07 18.32 49.2 20.03 48.22 18.06 49.84 19.32 49.11 17.68 50.74 19.06 49.95 17.26 51.77 18.48 51.06 17.74 51.75 18.38 51.38 17.87 51.74 18.35 51.46 17.97 51.74 18.33 51.53 18.12 51.73 18.3 51.63"/></svg>