<svg id="Layer_1" data-name="Layer 1" xmlns="http://www.w3.org/2000/svg" viewBox="0 0 832.65 343.19"><defs><style>.cls-1{fill:#333;}.cls-2{fill:none;stroke:#333;stroke-linecap:round;stroke-linejoin:round;stroke-width:1.25px;}.cls-3{fill:#1d1d1d;}</style></defs><title>goles_equipo</title><path class="cls-1" d="M967.92,1583.81a1544.81,1544.81,0,0,1,759.52-6.65c2.15,0.53,3.07-2.8.92-3.32A1549.49,1549.49,0,0,0,967,1580.48c-2.14.56-1.23,3.89,0.92,3.32h0Z" transform="translate(-942.93 -1240.68)"/><polyline class="cls-2" points="144.09 265.61 144.91 265.14 144.41 267.5 149.94 264.31 144.72 269.37 154.88 263.5 145.14 271.89 159.3 263.72 145.47 273.9 159.63 265.73 147.31 274.81 159.92 267.52 150.76 275.56 160.33 270.04 151.06 277.34 160.62 271.82 151.51 280.09 161.07 274.57 151.91 282.49 161.46 276.98 152.22 284.36 161.76 278.85 152.53 286.23 162.07 280.72 152.81 289.37 162.56 283.74 152.15 292.02 162.83 285.86"/><polyline class="cls-2" points="139.37 244.03 151.2 237.2 143.91 244.61 153.14 239.28 145.16 245.83 154.05 240.7 146.1 247.77 155.04 242.61 146.65 250.1 155.9 244.76 147.04 252.53 156.48 247.09 147.42 254.84 156.96 249.33 149.02 256.97 157.43 252.11 155.6 255.88 157.84 254.59"/><polyline class="cls-2" points="128.91 238.14 133.94 235.24 125.53 242.99 141.29 233.89 124.5 246.87 145.99 234.46 124.36 249.15 148.37 235.29 124.48 252.16 150.91 236.91 124.67 253.98 135.34 247.82 125.01 256.08 135.21 250.19 125.41 258.57 135.51 252.74 125.77 260.76 135.87 254.93 126.17 263.2 136.26 257.37 126.49 265.2 136.59 259.37 126.81 267.18 136.91 261.35 127.14 269.15 137.23 263.32 127.61 272.07 137.71 266.24 127.9 273.84 137.99 268.01 128.3 276.32 138.4 270.49 128.65 278.48 138.75 272.65 128.99 280.56 139.09 274.73 129.39 283.02 139.49 277.19 129.73 285.12 139.83 279.29 130.13 287.55 140.22 281.72 130.47 289.63 140.56 283.8 131.12 292.54 141.05 286.81 131.69 294.46 141.39 288.86 132.35 296.11 141.83 290.63 133.08 297.6 142.49 292.16 134.14 299.25 143.71 293.73 135.45 300.76 146.06 294.64 137.68 302.59 163.05 287.95 140.44 303.93 162.99 290.91 143.67 304.65 162.51 293.77 149.51 304.5 160.59 298.11"/><polyline class="cls-2" points="178.7 238.06 190.79 231.08 183.19 238.68 192.8 233.13 184.44 239.89 193.71 234.54 185.4 241.83 194.78 236.41 185.91 244.18 195.61 238.57 186.25 246.64 196.23 240.88 186.58 248.98 196.7 243.13 186.97 251.8 197.1 245.95 187.32 254.31 197.45 248.46 187.57 256.09 197.7 250.25 187.84 258.05 197.97 252.2 188.11 260 198.24 254.15 188.46 262.53 198.59 256.68 188.81 265.06 198.94 259.21 189.06 266.84 199.19 260.99 189.31 268.63 199.44 262.78 189.7 271.4 199.83 265.55 190.05 273.96 200.18 268.11 190.35 276.13 200.49 270.28 190.65 278.25 200.78 272.4 190.95 280.38 201.08 274.53 191.18 283.1 201.44 277.17 190.31 286.75 201.79 280.12"/><polyline class="cls-2" points="168.33 232.26 173.48 229.29 164.9 237.14 180.72 228.01 163.8 241.05 185.53 228.5 163.66 243.34 187.94 229.32 163.77 246.36 176.13 239.22 163.93 248.19 174.58 242.04 164.23 250.32 174.45 244.42 164.58 252.83 174.71 246.98 164.89 255.05 175.02 249.21 165.23 257.52 175.36 251.67 165.51 259.54 175.64 253.69 165.79 261.55 175.92 255.7 166.07 263.55 176.2 257.7 166.48 266.5 176.61 260.66 166.73 268.29 176.86 262.44 167.08 270.81 177.21 264.96 167.39 272.99 177.52 267.14 167.68 275.1 177.81 269.26 168.03 277.6 178.16 271.75 168.32 279.72 178.45 273.87 168.66 282.18 178.79 276.33 169 284.27 179.09 278.44 169.61 287.19 179.51 281.48 170.27 289.07 179.85 283.53 170.91 290.72 180.29 285.31 171.75 292.15 180.99 286.81 172.82 293.8 182.44 288.24 174.24 295.24 185.02 289.02 176.63 296.98 201.97 282.36 179.56 298.22 201.82 285.37 182.97 298.84 201.24 288.29 189.37 298.37 198.94 292.84"/><polyline class="cls-2" points="202.71 225.98 203.46 225.55 203.03 228.69 209.79 224.79 203.39 231.76 213.67 225.83 203.63 233.83 213.91 227.89 203.97 236.72 214.25 230.78 204.18 238.52 214.46 232.58 204.43 240.67 214.71 234.73 204.73 243.22 215.01 237.28 204.99 245.47 215.28 239.53 205.28 247.96 215.57 242.03 205.52 250.01 215.81 244.07 205.76 252.04 216.05 246.1 206 254.06 216.29 248.12 206.35 257.05 216.64 251.11 206.56 258.87 216.85 252.92 206.86 261.41 217.15 255.47 207.12 263.62 217.41 257.68 207.37 265.76 217.66 259.81 207.66 268.28 217.96 262.33 207.91 270.42 218.21 264.48 208.2 272.91 218.5 266.97 208.45 275.05 218.75 269.1 208.81 278.13 219.12 272.18 209.06 280.24 219.36 274.29 209.28 282.13 219.59 276.18 209.49 283.92 219.8 277.97 209.74 286.05 220.05 280.1 209.99 288.17 220.29 282.22 210.33 291.09 223.73 283.36 210.65 293.83 230.12 282.6 213.98 294.5 235.76 281.93 221 293.67 238.58 283.52 226.61 293.01 238.87 285.93 231.42 292.44 239.12 288 237.24 291.75 239.42 290.49"/><polyline class="cls-2" points="252.68 259.69 266.3 251.83 257.01 259.26 266.49 253.79 261.27 258.84 266.68 255.72 266.19 258.36 266.9 257.95"/><polyline class="cls-2" points="249.87 230.43 267.18 220.44 256.55 229.77 267.48 223.47 260.6 229.38 267.66 225.3 265.79 228.87 267.89 227.66"/><polyline class="cls-2" points="237.35 222 238.07 221.58 237.62 224.74 244.1 221 237.91 227.85 250.93 220.33 238.11 229.94 255.52 219.89 238.4 232.86 261.94 219.26 238.57 234.68 265.95 218.87 238.78 236.86 249.16 230.87 239.03 239.43 249.41 233.44 239.25 241.71 249.63 235.71 239.49 244.23 249.88 238.24 239.69 246.3 250.08 240.31 239.89 248.36 250.28 242.36 240.08 250.4 250.48 244.4 240.37 253.43 250.77 247.42 240.55 255.26 250.95 249.25 240.8 257.83 255.32 249.44 241.01 260.07 260.25 248.96 241.22 262.23 265.01 248.49 241.47 264.78 266.17 250.52 241.67 266.95 252.05 260.96 241.92 269.47 252.29 263.47 242.12 271.63 252.51 265.64 242.42 274.74 252.81 268.74 242.63 276.87 253.02 270.88 242.81 278.79 253.21 272.79 242.99 280.6 253.38 274.6 243.19 282.75 253.59 276.75 243.4 284.9 253.8 278.89 243.68 287.85 257.73 279.75 243.95 290.63 263.83 279.15 248.45 290.62 269.23 278.62 255.16 289.97 272.88 279.74 260.53 289.45 273.12 282.18 265.13 289 273.32 284.26 270.69 288.46 273.58 286.79"/><polyline class="cls-2" points="276.87 267.19 277.56 266.8 277.03 269.18 281.71 266.48 277.19 271.12 285.79 266.16 277.56 273.69 287.3 268.06 277.94 275.67 287.45 270.17 278.44 277.34 287.67 272.01 279.36 279.56 288.3 274.4 280.14 281.05 289.18 275.83 281.79 283.12 291.87 277.3 283.63 284.69 309.73 269.62 285.34 285.75 309.75 271.65 287.38 286.61 309.59 273.79 291.86 287.33 308.75 277.58 296.15 287.13 307.29 280.7"/><polyline class="cls-2" points="289.53 226.3 301.34 219.48 294.08 226.88 303.29 221.56 295.3 228.11 304.23 222.96 296.19 230.09 305.22 224.87 296.6 232.49 305.94 227.1 296.8 235.04 306.51 229.43 300.99 235.15 306.84 231.77 306.41 234.73 307.1 234.33"/><polyline class="cls-2" points="279.42 220.17 284.25 217.38 276.09 225 291.22 216.26 275.06 228.87 296.01 216.78 274.77 231.24 298.35 217.62 274.8 234.31 300.96 219.2 274.98 236.13 285.88 229.84 275.28 238.25 285.62 232.28 275.94 240.59 285.89 234.84 276.69 242.56 286.43 236.94 277.7 244.64 287.37 239.06 278.71 246.24 288.42 240.63 279.83 247.76 289.63 242.1 281.05 249.22 290.95 243.5 283.06 251.25 293.12 245.44 284.38 252.42 294.51 246.57 286.29 254.03 296.48 248.15 288.01 255.4 298.2 249.52 289.67 256.72 299.82 250.86 291.6 258.3 301.65 252.5 293.15 259.7 303.09 253.96 294.82 261.39 304.62 255.73 296.1 262.94 305.81 257.33 297.57 265.37 307.27 259.77 298.33 267.18 308.08 261.55 298.69 269 308.66 263.24 298.9 270.79 309.13 264.88 298.73 273.16 309.48 266.95"/><polyline class="cls-2" points="342.62 257.46 362.1 246.22 346.58 257.25 361.24 248.79 350.94 256.77 359.5 251.83"/><polyline class="cls-2" points="341.29 223.88 355.21 215.84 347.11 223.73 357.63 217.66 349.18 224.48 358.71 218.97 350.63 226.13 359.92 220.76 351.25 228.41 360.91 222.83 351.48 230.94 361.55 225.13 351.58 233.41 361.99 227.4 351.71 236.38 362.3 230.27 351.82 239.03 362.41 232.91 351.88 240.92 362.49 234.79 351.74 243.12 362.58 236.86 350.78 245.66 362.67 238.79"/><polyline class="cls-2" points="329.24 214.88 329.9 214.5 329.36 217.71 335.33 214.26 329.5 220.9 341.46 214 329.59 223.05 345.55 213.84 329.72 226.06 350.29 214.19 329.81 227.94 352.69 214.73 329.9 230.18 340.49 224.07 330.02 232.83 340.61 226.72 330.12 235.18 340.72 229.06 330.23 237.78 340.83 231.66 330.32 239.91 340.93 233.78 330.41 242.03 341.03 235.9 330.5 244.13 341.12 238 330.64 247.25 341.27 241.11 330.72 249.13 341.35 242.99 330.83 251.78 341.47 245.64 330.93 254.09 342.21 247.58 331.03 256.31 346.48 247.39 331.14 258.94 362.66 240.74 331.24 261.18 362.61 243.06 331.35 263.77 341.94 257.65 331.44 265.99 342.04 259.88 331.58 269.2 342.18 263.08 331.68 271.39 342.28 265.27 331.76 273.37 342.37 267.25 331.84 275.24 342.45 269.11 331.94 277.45 342.56 271.32 332.03 279.66 342.66 273.52 332.16 282.7 342.79 276.57 334.96 284.02 342.92 279.42 339.86 283.78 343.04 281.94"/><polyline class="cls-2" points="382.47 221.84 394.46 214.92 387.02 222.42 396.58 216.9 388.31 223.62 397.62 218.24 389.23 225.57 398.62 220.15 389.62 227.99 399.48 222.3 389.71 230.6 400.07 224.62 389.77 233.09 400.35 226.99 389.83 236.11 400.54 229.92 389.88 238.79 400.6 232.6 389.92 240.69 400.64 234.51 389.96 242.78 400.68 236.6 390.01 244.87 400.72 238.68 390.06 247.56 400.78 241.38 390.12 250.27 400.83 244.08 390.16 252.17 400.87 245.98 390.2 254.08 400.91 247.89 390.26 257.03 400.97 250.84 390.31 259.76 401.03 253.58 390.36 262.09 401.08 255.9 390.41 264.35 401.12 258.16 390.42 266.64 401.17 260.43 389.94 269.77 401.23 263.26"/><polyline class="cls-2" points="372.47 215.7 377.26 212.94 368.97 220.62 384.13 211.87 367.8 224.57 388.87 212.41 367.5 226.95 391.37 213.17 367.38 230.1 394.17 214.64 367.42 232.01 378.58 225.56 367.47 234.28 378.24 228.06 367.52 236.96 378.24 230.78 367.57 239.34 378.29 233.15 367.63 241.97 378.34 235.78 367.67 244.13 378.38 237.94 367.71 246.27 378.43 240.09 367.76 248.41 378.47 242.22 367.82 251.56 378.54 245.38 367.86 253.47 378.58 247.29 367.92 256.15 378.63 249.97 367.96 258.49 378.68 252.3 368.01 260.74 378.73 254.56 368.07 263.4 378.78 257.22 368.11 265.67 378.83 259.48 368.32 268.2 378.88 262.11 368.59 270.33 378.93 264.36 369.32 273.19 379.09 267.55 370.14 274.97 379.5 269.57 370.95 276.53 380.26 271.15 371.97 277.85 381.49 272.35 373.37 279.31 384.07 273.14 375.01 280.63 401.25 265.48 377.98 282.04 401.1 268.69 381.65 282.85 400.49 271.97 385.94 282.95 399.24 275.27 391.38 281.94 396.18 279.18"/><polyline class="cls-2" points="419.97 253.53 439.61 242.19 423.56 253.53 437.05 245.75 426.27 254.01 435.39 248.74 428.57 255.45 437.44 250.33 429.56 257.08 438.68 251.82 430.02 258.78 439.54 253.28 430.32 261.36 440.36 255.56 430.38 263.26 440.75 257.28 430.37 266.29 441.11 260.09 430.37 268.92 441.22 262.65 430.36 270.97 441.22 264.7 430.36 273.02 441.21 266.75 430.4 276.3 441.2 270.06 430.55 278.49 441.2 272.34 430.82 280.25 441.21 274.25 432.35 281.95 441.27 276.8 436.12 281.95 441.51 278.83 441.75 281.94 442.32 281.62"/><polyline class="cls-2" points="420.16 222.13 434.21 214.01 425.58 222.2 436.78 215.74 427.84 222.83 438 216.97 429.36 224.45 439.19 218.77 430.13 226.64 440.11 220.88 430.37 229.17 440.73 223.19 430.37 231.69 441.08 225.51 430.36 234.75 441.22 228.48 430.25 237.52 441.21 231.19 429.85 239.69 441.21 233.13"/><polyline class="cls-2" points="408.6 212.58 409.22 212.22 408.59 215.49 414.22 212.24 408.58 218.77 419.87 212.25 408.58 220.98 423.67 212.26 408.57 224.07 428.64 212.48 408.56 226 431.14 212.96 408.56 228.3 433.65 213.81 408.55 231.02 419.42 224.74 408.54 233.42 419.42 227.15 408.54 236.09 419.42 229.81 408.53 238.28 419.42 232 408.52 240.45 419.42 234.16 408.52 242.62 419.42 236.32 408.51 245.81 419.42 239.52 408.5 247.75 419.42 241.45 408.5 250.47 420.32 243.64 408.49 252.83 424.51 243.59 408.48 255.12 441.05 236.31 408.48 257.81 440.58 239.28 408.47 260.11 419.33 253.84 408.46 262.77 419.33 256.5 408.46 265.06 419.33 258.78 408.45 268.35 419.32 262.07 408.44 270.6 419.32 264.32 408.44 272.63 419.32 266.34 408.43 274.54 419.32 268.25 408.42 276.82 419.32 270.53 408.42 279.08 419.32 272.79 408.93 281.91 419.31 275.91 414.02 281.89 419.31 278.84 418.53 281.88 419.31 281.43"/><polyline class="cls-2" points="475.86 252.47 490.62 243.95 479.26 252.58 490.55 246.06 482.61 252.69 490.49 248.14 487.15 252.84 490.4 250.97"/><polyline class="cls-2" points="476.87 223.1 493.16 213.69 482.12 223.27 495.48 215.56 485.3 223.38 495.42 217.53 489.38 223.51 495.34 220.06 493.71 223.65 495.26 222.76"/><polyline class="cls-2" points="465.71 213.15 466.31 212.8 465.61 216.1 471.06 212.96 465.5 219.45 476.43 213.13 465.42 221.69 480.04 213.25 465.31 224.84 485.09 213.42 465.24 226.81 488.24 213.53 465.16 229.15 492 213.65 465.07 231.92 476.2 225.5 464.98 234.37 476.12 227.94 464.89 237.09 476.03 230.66 464.81 239.32 475.96 232.89 464.74 241.53 475.88 235.1 464.66 243.74 475.81 237.3 464.55 246.99 475.71 240.55 464.48 248.97 475.64 242.52 464.39 251.73 480.08 242.67 464.31 254.14 483.96 242.8 464.23 256.47 487.7 242.92 464.13 259.22 475.26 252.79 464.05 261.55 475.18 255.13 463.96 264.26 475.09 257.83 463.88 266.59 475.02 260.16 463.76 269.94 474.91 263.51 463.68 272.24 474.83 265.8 463.61 274.31 474.76 267.87 463.55 276.25 474.7 269.82 463.47 278.57 474.62 272.13 463.39 280.88 477.07 272.98 465.92 282.54 482.19 273.15 470.71 282.7 486.99 273.31 474.95 282.84 491.23 273.44 480.23 283.02 493.43 275.39 484.45 283.16 493.35 278.02 488.07 283.28 493.28 280.27 492.44 283.42 493.19 282.99"/><polyline class="cls-2" points="517.1 224.19 528.93 217.36 521.48 224.87 531.08 219.33 522.85 226.02 532.06 220.7 523.74 227.99 533.17 222.55 524.03 230.47 533.99 224.72 523.95 233.18 534.5 227.08 523.8 235.79 534.8 229.44 523.62 238.94 534.83 232.47 523.47 241.74 534.69 235.26 523.35 243.73 534.58 237.25 523.23 245.92 534.45 239.44 523.1 248.1 534.33 241.62 522.94 250.92 534.17 244.44 522.78 253.75 534.01 247.27 522.67 255.74 533.89 249.26 522.56 257.74 533.78 251.26 522.38 260.82 533.61 254.34 522.22 263.68 533.44 257.2 522.08 266.11 533.31 259.63 521.95 268.48 533.17 262 521.65 270.95 533.04 264.38 520.33 273.87 532.91 266.6"/><polyline class="cls-2" points="507.04 217.92 511.7 215.23 503.55 222.83 518.31 214.31 502.23 226.87 523.1 214.82 501.93 229.25 525.55 215.61 501.63 232.5 528.39 217.06 501.52 234.49 513.15 227.78 501.39 236.87 512.64 230.37 501.23 239.68 512.45 233.2 501.09 242.16 512.31 235.68 500.93 244.92 512.16 238.44 500.8 247.18 512.03 240.69 500.68 249.42 511.9 242.94 500.55 251.65 511.77 245.17 500.36 254.95 511.59 248.47 500.25 256.95 511.47 250.47 500.09 259.75 511.31 253.28 499.95 262.2 511.18 255.72 499.82 264.56 511.04 258.07 499.68 267.32 510.88 260.86 499.71 269.6 510.75 263.23 499.93 272.13 510.59 265.97 500.29 274.2 510.46 268.33 501.26 276.93 510.72 271.46 502.21 278.63 511.45 273.29 503.18 280.1 512.68 274.61 504.43 281.29 514.65 275.39 506.07 282.6 532.88 267.13 508.04 283.73 532.71 269.49 511.46 284.88 532.25 272.88 515.64 285.39 531.13 276.45 520.67 285.08 530.56 279.37 524.08 286.33 534.12 280.54 525.81 287.91 533.98 283.19 527.83 288.95 533.87 285.47 531.14 289.71 533.73 288.22"/><polyline class="cls-2" points="565.83 218.69 566.41 218.35 565.57 222.05 571.31 218.73 565.4 224.08 574.27 218.96 565.2 226.69 576.06 220.42 564.98 229.46 575.84 223.19 564.75 232.25 575.61 225.98 564.54 234.9 575.4 228.63 564.29 238.09 575.15 231.82 564.06 240.93 574.92 234.67 563.9 242.95 574.76 236.69 563.73 245.17 574.58 238.91 563.55 247.38 574.4 241.12 563.32 250.24 574.17 243.98 563.1 253.11 573.94 246.85 562.94 255.12 573.78 248.86 562.77 257.15 573.62 250.89 562.53 260.28 573.37 254.02 562.3 263.18 573.14 256.92 562.1 265.64 572.94 259.38 561.91 268.04 572.75 261.79 561.72 270.45 572.55 264.19 561.34 273.52 572.32 267.19 560.02 276.57 572.12 269.58"/><polyline class="cls-2" points="543.61 216.91 544.19 216.58 543.37 219.95 548.62 216.92 543.1 223.39 553.63 217.31 542.91 225.7 554.38 219.08 542.65 228.93 554.12 222.31 542.49 230.95 553.95 224.33 542.3 233.36 553.76 226.74 542.07 236.21 553.53 229.59 541.87 238.73 553.33 232.11 541.64 241.52 553.11 234.9 541.46 243.81 552.92 237.19 541.28 246.09 552.74 239.47 541.1 248.35 552.56 241.73 540.83 251.7 552.29 245.08 540.67 253.72 552.13 247.1 540.44 256.57 551.9 249.95 540.24 259.05 551.71 252.43 540.05 261.44 551.51 254.82 539.82 264.26 551.29 257.64 539.63 266.66 551.1 260.04 539.41 269.45 550.87 262.83 539.38 271.75 550.68 265.22 539.57 274.92 550.41 268.66 539.87 277 550.22 271.02 540.44 278.69 550.22 273.05 541.04 280.26 550.54 274.77 542.05 281.94 551.46 276.51 543.31 283.48 553.26 277.74 545.49 285.34 572.09 269.99 548.12 286.75 571.77 273.1 551 287.67 571.36 275.92 555.68 288.2 570.01 279.93 561.09 287.65 567.18 284.14"/><polyline class="cls-2" points="584.54 220.36 585.11 220.03 584.24 223.44 589.43 220.44 583.9 226.91 594.3 220.9 583.67 229.24 595.28 222.54 583.36 232.51 594.96 225.81 583.16 234.55 594.76 227.85 582.92 236.99 594.53 230.28 582.64 239.87 594.25 233.16 582.39 242.41 594 235.71 582.11 245.24 593.73 238.53 581.89 247.55 593.5 240.85 581.66 249.85 593.28 243.14 581.44 252.14 593.06 245.43 581.11 255.52 592.73 248.81 580.91 257.57 592.53 250.86 580.63 260.45 592.25 253.74 580.39 262.95 592.01 256.24 580.15 265.37 591.77 258.66 579.87 268.22 591.5 261.51 579.63 270.65 591.26 263.93 579.36 273.46 590.99 266.75 579.12 275.88 590.75 269.17 578.78 279.36 590.41 272.64 578.55 281.74 590.18 275.03 578.34 283.89 589.97 277.18 578.14 285.92 589.78 279.2 577.91 288.32 589.54 281.6 579.71 289.55 589.31 284 584.35 289.99 588.99 287.31 588.15 290.35 588.73 290.02"/><polyline class="cls-2" points="610.67 266.42 633.17 253.44 613.72 266.74 632.72 255.77 616.86 266.96 631.85 258.31 622.19 266.66 629.22 262.6"/><polyline class="cls-2" points="614.59 233.05 627.3 225.71 619.25 233.56 629.92 227.41 621.49 234.21 631.11 228.66 623.16 235.73 632.43 230.39 623.84 237.99 633.5 232.41 623.83 240.65 634.19 234.68 623.53 243.35 634.53 237 623.16 246.62 634.65 239.98 622.82 249.52 634.5 242.78 622.55 251.6 634.27 244.84 621.94 254.08 634.01 247.11"/><polyline class="cls-2" points="604.27 222.32 604.84 222 603.92 225.43 609.03 222.48 603.52 228.94 613.77 223.02 603.25 231.3 616.95 223.39 602.87 234.6 621.3 223.96 602.63 236.66 623.81 224.43 602.35 239.12 626.27 225.31 602.02 242.03 613.71 235.28 601.73 244.6 613.42 237.85 601.4 247.46 613.1 240.7 601.13 249.8 612.84 243.04 600.87 252.12 612.58 245.35 600.6 254.43 612.32 247.66 600.21 257.85 611.94 251.07 599.97 259.92 611.71 253.14 599.64 262.82 611.39 256.04 599.35 265.35 614.08 256.85 599.07 267.8 617.51 257.15 598.74 270.68 633.62 250.54 598.46 273.13 610.14 266.39 598.14 275.98 609.83 269.23 597.86 278.42 609.55 271.67 597.46 281.94 609.16 275.18 597.18 284.35 608.89 277.58 596.93 286.51 608.65 279.75 596.7 288.56 608.42 281.79 596.42 290.99 608.15 284.22 599.46 291.5 607.88 286.64 604 292 607.5 289.98"/><polyline class="cls-2" points="655.16 237.54 666.75 230.85 659.43 238.29 668.97 232.78 660.83 239.42 670.1 234.07 661.77 241.36 671.14 235.95 661.95 243.9 671.96 238.12 661.67 246.73 672.52 240.46 661.29 249.47 672.74 242.86 660.84 252.78 672.62 245.98 660.43 255.73 672.32 248.86 660.14 257.82 672.03 250.96 659.83 260.12 671.71 253.26 659.51 262.41 671.4 255.54 659.1 265.38 670.99 258.51 658.69 268.35 670.58 261.48 658.41 270.44 670.29 263.57 658.12 272.54 670 265.67 657.67 275.78 669.56 268.92 657.26 278.78 669.14 271.92 656.91 281.34 668.79 274.47 656.44 283.9 668.45 276.96 655.05 286.92 668.12 279.37"/><polyline class="cls-2" points="645.14 231.16 649.79 228.47 641.57 236.12 656.24 227.65 640.23 240.17 660.81 228.29 639.71 242.67 663.31 229.05 639.24 246.03 666.19 230.47 638.95 248.12 651.15 241.08 638.6 250.62 650.49 243.76 638.2 253.57 650.08 246.71 637.84 256.18 649.73 249.32 637.44 259.08 649.33 252.21 637.11 261.45 649 254.59 636.79 263.8 648.68 256.94 636.47 266.15 648.35 259.29 635.99 269.62 647.88 262.75 635.7 271.72 647.59 264.86 635.3 274.67 647.18 267.8 634.94 277.23 646.83 270.37 634.67 279.67 646.49 272.85 634.48 282.47 646.09 275.77 634.64 284.67 645.74 278.26 635.03 287.1 645.36 281.13 635.6 289.06 645.29 283.46 636.9 291.59 646.11 286.27 638.11 293.14 647.55 287.69 639.33 294.46 649.69 288.48 640.84 295.5 668.06 279.78 642.85 296.61 667.72 282.25 645.14 297.55 667.27 284.77 649.14 298.36 666.27 288.47 654.2 298.37 664.19 292.6"/><path class="cls-1" d="M1589.7,1371.43c1.24,1.8,2.42,3.65,3.71,5.41,2.39,3.26,5.89,4,9.52,2.48,0.66,0.95,1.87,2,3,1.15a2.36,2.36,0,0,0,.67-3c0.88-.49,1.75-1,2.62-1.52,0.73,0.88,1.81,1.62,2.93.85a1.8,1.8,0,0,0,.72-1.59,6.76,6.76,0,0,0-.35-1.32c1.45-.92,2.9-1.84,4.35-2.71l10.89-6.53a2.6,2.6,0,0,0,1.43,1.27,1.7,1.7,0,0,0,1.58-.84,2.74,2.74,0,0,0,.27-2.4c1-.58,2-1.15,3-1.73a2.1,2.1,0,0,0,3.06.28,2.32,2.32,0,0,0,.56-2.41q1.3-.79,2.57-1.61a4.81,4.81,0,0,0,1.47,1,0.84,0.84,0,0,0,1-.15,2.7,2.7,0,0,0,.63-3l0.35-.27a7.34,7.34,0,0,0,2.34-9c-1.59-3.48-5.21-4.55-8.8-4.25-4.94.41-9.87,1.29-14.77,2a75.15,75.15,0,0,0-14.19,3,1.1,1.1,0,0,0-.77,1,3.69,3.69,0,0,0-.81,2.38c0,2.23.57,4.2-1.09,6.06s-3.73,2.83-5.79,4l-3.34,1.83a11.54,11.54,0,0,1-2.51,1.26c-1.62.41-3.17-1.6-4.79-.54a4,4,0,0,0-1.69,3.93A10.9,10.9,0,0,0,1589.7,1371.43Zm5.32,3.77c-0.34-.48-0.67-1-1-1.49-0.55-.81-1.21-1.64-1.84-2.5C1593.53,1371.72,1594.7,1373.59,1595,1375.21Zm7.16-3.54,0-.06-0.29-.85A5.48,5.48,0,0,1,1602.18,1371.66Zm-3.34.86-0.19-.31a2.3,2.3,0,0,0,.24-0.45v0c0,0.17,0,.34,0,0.51S1598.85,1372.45,1598.84,1372.53Zm2.76-2.79a0.7,0.7,0,0,0,0,.16l-0.08-.24Zm3.53,5.91-0.4.25-0.08-.14a6,6,0,0,1-.54-1.66Zm-1.82,1.07v0l0,0h0Zm-2.79-1.48-0.1-.19,0-.08Zm3.27-4.55,0.22,0.07a0.72,0.72,0,0,0,0,.22Zm3.27,3.79-0.34.2-0.41-1.38C1606.59,1373.7,1606.85,1374.13,1607.05,1374.47Zm-9.9-5-0.15-.32h0l0.13-.05C1597.16,1369.18,1597.16,1369.31,1597.16,1369.44Zm2.07-6.72,1.76-.95a16.7,16.7,0,0,0,6.86,4.1,15.39,15.39,0,0,1,4.28,1.68,21.63,21.63,0,0,1,2.73,2.24l-4.81,2.89c-1.06-1.81-3.11-2.57-5.13-3.24-3.29-1.09-4.88-3.38-6.44-6.3Zm10.45,1.3,1.19,1.12c-0.35-.14-0.7-0.27-1.07-0.38l-0.13,0a0.65,0.65,0,0,0,.05-0.6Zm-2.14,0a1,1,0,0,0-.07-0.25l-0.25-.58a10.19,10.19,0,0,1,.67,1Zm-3.08-1.54-0.56-.37a0.64,0.64,0,0,0,.08-0.15Zm-0.23-2.56,0.12,0.07v0l-0.11-.11h0Zm5.18,1.6,0.48,0.05a1,1,0,0,0,0,.2c0,0.13.08,0.25,0.12,0.37Zm2.84,0.15h0.14l0,0.12Zm2.43-.07h0.21l0.57,0,0.06,0.11q0.48,0.7,1,1.36Q1615.57,1362.32,1614.67,1361.57Zm10.29,2.15-0.17.1-0.3-.29Zm-1.77,1.06-0.18.11-0.79-.7Zm-1.67,1-0.13.08c-0.37-.32-0.73-0.65-1.07-1C1620.73,1365.17,1621.13,1365.48,1621.52,1365.78Zm-3.91,2.35-0.35.21a17.3,17.3,0,0,0-2.8-3.21l-0.83-.74,0.56,0.31,0.07,0C1615.32,1365.89,1616.58,1366.9,1617.62,1368.13Zm22.54-13.66c-2.11,1.37-4.26,2.68-6.42,4l-6.28,3.77c-6.41-4.74-15-.13-21.76-3.37a8.63,8.63,0,0,0,3.11-4.33,7.16,7.16,0,0,0,.22-2.67c-0.1-.88-0.59-2.86.54-3.35a1.27,1.27,0,0,0,.24-0.14q2.07-.65,4.19-1.12l0.45,2.79c0.16,1,1.71.58,1.55-.43l-0.43-2.69c0.71-.14,1.42-0.27,2.13-0.39a11.17,11.17,0,0,0,.39,2.85,0.81,0.81,0,0,0,1.55-.44,9.62,9.62,0,0,1-.33-2.68l2.22-.33a12.34,12.34,0,0,0,.6,2.31c0.36,1,1.91.54,1.55-.43a11.54,11.54,0,0,1-.56-2.1l2.4-.34a13.3,13.3,0,0,1,.19,2.33,0.81,0.81,0,0,0,1.61,0,14.73,14.73,0,0,0-.21-2.53l2-.28,0.59,2.18a0.81,0.81,0,0,0,1.55-.43l-0.54-2c1.68-.23,3.36-0.46,5-0.65,2.06-.24,4.55-0.52,6.39.68a5.12,5.12,0,0,1,2.25,4.57C1644.19,1351.82,1642.16,1353.18,1640.16,1354.47ZM1596.63,1377c0.48-1.82-.51-3.78-1.56-5.24s-2.35-2.48-4.09-2.22a10.51,10.51,0,0,1-1-2c-0.31-.89-0.82-3.68,1.13-2.7a4,4,0,0,0,2.2.58,7,7,0,0,0,.69-0.13,13.53,13.53,0,0,0,1.45,4.36c0.68,1.45,1.43,2.88,2.26,4.25s1.86,2.55,2,4h-0.48A4.37,4.37,0,0,1,1596.63,1377Z" transform="translate(-942.93 -1240.68)"/><path class="cls-1" d="M1131.11,1358a4,4,0,0,0-1.69-3.93c-1.61-1.07-3.17.95-4.79,0.54a11.54,11.54,0,0,1-2.51-1.26l-3.34-1.83c-2.06-1.13-4.2-2.18-5.79-4s-1.1-3.82-1.09-6.06a3.69,3.69,0,0,0-.81-2.38,1.1,1.1,0,0,0-.77-1,75.15,75.15,0,0,0-14.19-3c-4.91-.68-9.84-1.56-14.77-2-3.59-.3-7.21.78-8.8,4.25a7.34,7.34,0,0,0,2.34,9l0.35,0.27a2.7,2.7,0,0,0,.63,3,0.84,0.84,0,0,0,1,.15,4.81,4.81,0,0,0,1.47-1q1.27,0.83,2.57,1.61a2.32,2.32,0,0,0,.56,2.41,2.1,2.1,0,0,0,3.06-.28c1,0.58,2,1.15,3,1.73a2.74,2.74,0,0,0,.27,2.4,1.7,1.7,0,0,0,1.58.84,2.6,2.6,0,0,0,1.43-1.27l10.89,6.53c1.45,0.87,2.9,1.79,4.35,2.71a6.76,6.76,0,0,0-.35,1.32,1.8,1.8,0,0,0,.72,1.59c1.11,0.77,2.2,0,2.93-.85,0.87,0.52,1.74,1,2.62,1.52a2.36,2.36,0,0,0,.67,3c1.13,0.83,2.34-.21,3-1.15,3.63,1.51,7.13.79,9.52-2.48,1.29-1.76,2.48-3.61,3.71-5.41A10.9,10.9,0,0,0,1131.11,1358Zm-4.75,4.86c-0.63.86-1.29,1.69-1.84,2.5-0.35.51-.68,1-1,1.49C1123.82,1365.25,1125,1363.38,1126.36,1362.87Zm-9.69-.46-0.29.85,0,0.06A5.48,5.48,0,0,1,1116.66,1362.41Zm3,1.54c0-.17,0-0.34,0-0.51v0a2.3,2.3,0,0,0,.24.45l-0.19.31C1119.67,1364.11,1119.66,1364,1119.65,1363.95Zm-2.62-2.63-0.08.24a0.7,0.7,0,0,0,0-.16Zm-2.63,4.43a6,6,0,0,1-.54,1.66l-0.08.14-0.4-.25Zm0.78,2.61,0,0v0h0Zm2.88-1.74,0,0.08-0.1.19Zm-3.53-4a0.72,0.72,0,0,0,0-.22l0.22-.07Zm-2.33,2.32-0.41,1.38-0.34-.2C1111.67,1365.79,1111.93,1365.36,1112.21,1364.95Zm9.15-4.24,0.13,0.05h0l-0.15.32C1121.36,1361,1121.35,1360.84,1121.35,1360.71Zm-1.32-5.92c-1.56,2.92-3.15,5.21-6.44,6.3-2,.67-4.07,1.42-5.13,3.24l-4.81-2.89a21.63,21.63,0,0,1,2.73-2.24,15.39,15.39,0,0,1,4.28-1.68,16.7,16.7,0,0,0,6.86-4.1l1.76,0.95Zm-11.24,1a0.65,0.65,0,0,0,.05.6l-0.13,0c-0.37.11-.73,0.24-1.07,0.38l1.19-1.12Zm1.82,0a10.19,10.19,0,0,1,.67-1l-0.25.58a1,1,0,0,0-.07.25Zm3.91-2.19a0.64,0.64,0,0,0,.08.15l-0.56.37Zm-0.24-2-0.11.11v0l0.12-.07h0Zm-5.81,2.22c0-.12.08-0.24,0.12-0.37a1,1,0,0,0,0-.2l0.48-.05Zm-2.39-.36,0-.12h0.14Zm-4.08,1.24q0.51-.67,1-1.36l0.06-.11,0.57,0h0.21Q1102.95,1354,1102,1354.66Zm-8,.53-0.3.29-0.17-.1Zm2.26,0.66-0.79.7-0.18-.11Zm1.91,0.69c-0.35.34-.71,0.66-1.07,1l-0.13-.08C1097.39,1357.13,1097.79,1356.83,1098.19,1356.53Zm6.06-.14,0.07,0,0.56-.31-0.83.74a17.3,17.3,0,0,0-2.8,3.21l-0.35-.21C1101.93,1358.56,1103.19,1357.55,1104.25,1356.39Zm-30.1-15.49a5.12,5.12,0,0,1,2.25-4.57c1.84-1.2,4.33-.92,6.39-0.68,1.68,0.2,3.36.42,5,.65l-0.54,2a0.81,0.81,0,0,0,1.55.43l0.59-2.18,2,0.28a14.73,14.73,0,0,0-.21,2.53,0.81,0.81,0,0,0,1.61,0,13.3,13.3,0,0,1,.19-2.33l2.4,0.34a11.54,11.54,0,0,1-.56,2.1c-0.36,1,1.19,1.41,1.55.43a12.34,12.34,0,0,0,.6-2.31l2.22,0.33a9.62,9.62,0,0,1-.33,2.68,0.81,0.81,0,0,0,1.55.44,11.17,11.17,0,0,0,.39-2.85c0.71,0.12,1.42.25,2.13,0.39l-0.43,2.69c-0.16,1,1.39,1.46,1.55.43l0.45-2.79q2.11,0.47,4.19,1.12a1.27,1.27,0,0,0,.24.14c1.13,0.49.64,2.47,0.54,3.35a7.16,7.16,0,0,0,.22,2.67,8.63,8.63,0,0,0,3.11,4.33c-6.76,3.24-15.35-1.37-21.76,3.37l-6.28-3.77c-2.16-1.3-4.31-2.61-6.42-4S1074.33,1343.48,1074.15,1340.9Zm45.1,28.62h-0.48c0.17-1.48,1.29-2.79,2-4s1.58-2.8,2.26-4.25a13.53,13.53,0,0,0,1.45-4.36,7,7,0,0,0,.69.13,4,4,0,0,0,2.2-.58c2-1,1.44,1.82,1.13,2.7a10.51,10.51,0,0,1-1,2c-1.74-.26-3.07.8-4.09,2.22s-2,3.42-1.56,5.24A4.37,4.37,0,0,1,1119.25,1369.52Z" transform="translate(-942.93 -1240.68)"/><path class="cls-1" d="M1383.62,1282.14c-12.09,0-14.5-.23-27.3-7.92-11.41,7.71-14.3,7.92-27.46,7.92,0,1.45,0,4.88,0,4.88q0,2,0,4.1c0,10,.33,20.23,3.4,29.32,3.89,11.51,11.54,19.76,24,26,12.59-6.14,20.28-14.34,24.15-25.8,2.84-8.42,3.28-17.79,3.28-27.13,0-2.06,0-4.11,0-6.15C1383.65,1287.31,1383.63,1283.62,1383.62,1282.14Z" transform="translate(-942.93 -1240.68)"/><path class="cls-1" d="M1389.9,1290v-13.1c0-.94-1.18-1.17-1.91-1.17h-6.12l-3.26-.13a36,36,0,0,1-5.92-.82,50.59,50.59,0,0,1-10.32-4.66c-0.58-.32-5.33-3.51-6.11-3.51a1.27,1.27,0,0,0-.65.16c-2.87,2-5.77,3.88-8.52,5.48a24.88,24.88,0,0,1-12.24,3.35l-11,.13a1.44,1.44,0,0,0-1.24,1.09v18.52l0.4,8.79a80.93,80.93,0,0,0,2,13.46,55.86,55.86,0,0,0,6,14.79c0.62,1,1.23,2.18,2,3.2a54.45,54.45,0,0,0,6.91,7.77,58.83,58.83,0,0,0,12.13,8.46,31.69,31.69,0,0,0,4.24,2c1.23,0,9.27-4.83,9.84-5.22,1.56-1.07,3.08-2.24,4.53-3.33a48.12,48.12,0,0,0,13.08-16.3,51.33,51.33,0,0,0,2.66-6.73c0.77-2.57,1.43-5.25,2-7.73a92.06,92.06,0,0,0,1.29-10c0.09-.92.12-2.07,0.15-3.2a16.82,16.82,0,0,1,.13-3C1390,1297.67,1389.9,1298.1,1389.9,1290Zm-33.17,58.53-0.47.22-0.47-.23c-29.32-14.26-29.21-38.3-29.11-61.56v-7h1.08c14.08,0,16.24,0,27.9-7.93l0.57-.39,0.59,0.36c13.19,8,14.86,8,27.85,8h1.07l0.05,7.3C1386,1310.47,1386.29,1334.43,1356.73,1348.57Z" transform="translate(-942.93 -1240.68)"/><path class="cls-1" d="M1590.45,1435.15l104.62-43.62c1.76-.73,1-3.64-0.8-2.89l-104.62,43.62c-1.76.73-1,3.64,0.8,2.89h0Z" transform="translate(-942.93 -1240.68)"/><path class="cls-1" d="M1773.69,1427.55a470.74,470.74,0,0,0-98.46,30c-1.77.76-.24,3.34,1.51,2.59a467.41,467.41,0,0,1,97.74-29.65c1.9-.36,1.09-3.25-0.8-2.89h0Z" transform="translate(-942.93 -1240.68)"/><path class="cls-1" d="M943.7,1400.37a875.16,875.16,0,0,1,90.09,48.73c1.65,1,3.15-1.57,1.51-2.59a875.16,875.16,0,0,0-90.09-48.73c-1.74-.81-3.26,1.77-1.51,2.59h0Z" transform="translate(-942.93 -1240.68)"/><path class="cls-1" d="M1384.66,1241.36l-6.63,10c-1.07,1.61,1.53,3.12,2.59,1.51l6.63-10c1.07-1.61-1.53-3.12-2.59-1.51h0Z" transform="translate(-942.93 -1240.68)"/><path class="cls-1" d="M1411.24,1267.43l-11.37,10.23c-1.44,1.29.69,3.41,2.12,2.12l11.37-10.23c1.44-1.29-.69-3.41-2.12-2.12h0Z" transform="translate(-942.93 -1240.68)"/><path class="cls-1" d="M1333.93,1255.11l-7.83-11.29c-1.09-1.58-3.69-.08-2.59,1.51l7.83,11.29c1.09,1.58,3.69.08,2.59-1.51h0Z" transform="translate(-942.93 -1240.68)"/><path class="cls-1" d="M1294.43,1273l10.73,10.79a1.5,1.5,0,0,0,2.12-2.12l-10.73-10.79a1.5,1.5,0,0,0-2.12,2.12h0Z" transform="translate(-942.93 -1240.68)"/><path class="cls-3" d="M1394.87,1401.13c-0.53-4.39-.39-9.78-3.91-13-3.14-2.88-8.05-2.79-12-2.84q-17.83-.22-35.66.55c-5.32.22-10.71,0.37-15.85,1.87-1.9.56-3.72,1.28-4.78,3-1.16,1.92-.9,5.05-1.1,7.2-1,10.93-1.77,21.88-2.11,32.86,0,1.62,2.45,1.61,2.5,0,0-.3,0-0.59,0-0.89a66.38,66.38,0,0,0,9.62-7.24,2.14,2.14,0,0,0,.55.48c1.47,0.87,3.24.64,4.88,0.65h7.15l14.3,0,14.3,0c2.33,0,4.66,0,7-.17,1.47-.1,4,0,5.17-1l0,0a68.58,68.58,0,0,0,9.8,6.49h0c0,0.56,0,1.12.07,1.68,0.05,1.61,2.56,1.62,2.5,0C1397,1420.86,1396.06,1411,1394.87,1401.13Zm-4.35,22.46q-1.21-.82-2.38-1.69a0.54,0.54,0,0,0,0-.21c-0.3-1-.54-2-0.75-3l3.18,0.5Q1390.57,1421.39,1390.53,1423.6Zm-3.36-6c-0.14-.85-0.26-1.7-0.36-2.55h3.68q0,1.54.07,3.09Zm-25.87,3.54q0.1-1.35.18-2.7l4.92-.19q0.23,1.58.5,3.15h-5.56A0.45,0.45,0,0,0,1361.3,1421.09Zm0.24-3.78q0.08-1.59.14-3.17l4.22-.12q0.15,1.56.36,3.12Zm-6.41,4h-5.25q0-1.23,0-2.46l5.22-.22Q1355.09,1420,1355.13,1421.33Zm-5.32-3.54q0-1.68-.11-3.36l5.26-.12q0,1.63.08,3.26Zm-8.54,3.52h-3.21l0.2-.72a0.51,0.51,0,0,0-.41-0.65v-0.54l3.6-.17Q1341.35,1420.28,1341.26,1421.32Zm-3.45-3-0.07-3.69,4-.06q-0.09,1.79-.22,3.58Zm-12,2.2q0.25-1.9.5-3.79l2.32-.28q0,1.47,0,2.93Zm2.75,0q0,0.77,0,1.53c-1.06.9-2.15,1.78-3.27,2.62l0.39-2.94Zm-1.53-25.4q0,1.58-.08,3.16-1.34-.89-2.73-1.71l0.19-2a13.82,13.82,0,0,1,.21-1.69Q1325.81,1394,1327,1395.15Zm6.14-2.54,1.61,2.65-3.83.36q-1.22-1.34-2.51-2.6Zm20.24-2.33c-0.06-.66,0-1.49-0.12-2.26q3.63-.1,7.25-0.16l-0.29,2.32q-3.42.07-6.83,0.19v-0.08Zm13.53-2.5q0,1.15.06,2.31-2.84,0-5.68.06l0.29-2.31Zm23.73,3.91a9.58,9.58,0,0,1,1,3.11l-1.74,1.21q-0.24-1.67-.51-3.34l1.13-1.1Zm1.59,8.17,0.2,1.65q-0.86.33-1.73,0.63-0.26-2.48-.6-4.94l1.75-1.21C1392,1397.3,1392.07,1398.65,1392.21,1399.85Zm-18.7,12.84c0-1.38,0-2.75-.11-4.12l3.53-.11c0,1.37,0,2.74,0,4.11Zm-50-8.45q1.52,0.17,3,.43-0.22,2.61-.5,5.21h-3Q1323.27,1407.06,1323.5,1404.24Zm4.54-8q0.9,0.94,1.77,1.92-0.16,1-.29,2-0.78-.57-1.56-1.11Q1328,1397.62,1328,1396.22Zm60.43-2.7q0.25,1.57.47,3.14-1.66,1.12-3.35,2.2l-0.18-2.67Q1387,1394.9,1388.47,1393.53Zm-46.53,6.25q0,1.48,0,3h-4.46l-0.05-2.78Zm5.71-.22q0.15,1.59.28,3.18h-4.87q0-1.5,0-3Zm23.21-.76q0.51,2,.84,3.94h-5.09q0-.9.06-1.8a5.65,5.65,0,0,0-.26-2Zm5.14-.1c0.26,1.34.46,2.68,0.6,4h-3.82q-0.32-2-.82-4Zm3.75,0,0.66,4.07h-2.74c-0.14-1.35-.32-2.7-0.58-4Zm4.65-1.63,0.17,2.49-2,1.2-0.33-2.06Q1383.35,1397.85,1384.4,1397Zm-1.6,4.84,1.85-1.13q0.1,1.53.21,3.06c-0.56.13-1.12,0.24-1.69,0.35Zm-17.54-2.93a7.55,7.55,0,0,1,.32,3.8h-3.88c0-.1,0-0.2,0-0.31a28.32,28.32,0,0,0-.06-3.38Zm-4.76.15a19.5,19.5,0,0,1,.06,2c0,0.57,0,1.13.06,1.7h-5.39q-0.23-1.73-.56-3.44Zm-6.92.24q0.34,1.69.57,3.4H1349q-0.13-1.61-.28-3.22Zm-17.18.66,0,2.74h-3.09q0.17-1.33.39-2.65Zm-5.13-.13q-0.11.71-.21,1.42l-0.56-.43q0.1-.82.23-1.64Zm-0.38,2.65c-0.08.66-.15,1.32-0.22,2l-0.54-.14c0.06-.76.14-1.51,0.22-2.27Zm-0.32,3.07q-0.18,2.15-.24,4.32h-0.52q0.08-2.23.24-4.45Zm2.67-1.77h3.23l0.09,4.86-3.71.12C1332.92,1407.12,1333.05,1405.45,1333.24,1403.8Zm4.31,0H1342q0,2.35,0,4.69l-4.31.14Zm5.52,0H1348q0.17,2.24.31,4.49l-5.3.17Q1343.07,1406.13,1343.07,1403.8Zm6,0h5.2c0.17,1.42.3,2.85,0.4,4.29l-5.29.17Q1349.26,1406,1349.09,1403.8Zm6.27,0h5.3c0,1.36.05,2.73,0.05,4.09l-5,.16C1355.65,1406.63,1355.53,1405.21,1355.36,1403.8Zm6.37,0h3.77c0,0.11,0,.22,0,0.32,0,1.21,0,2.42,0,3.63l-3.72.12Q1361.79,1405.83,1361.73,1403.8Zm4.85,3.71c0-1.24,0-2.47,0-3.71h5.28c0.18,1.24.31,2.49,0.4,3.73l-5.67.18C1366.59,1407.64,1366.58,1407.58,1366.58,1407.51Zm6.36-3.71h3.76c0.1,1.19.16,2.39,0.2,3.59l-3.57.11C1373.24,1406.26,1373.12,1405,1372.94,1403.8Zm4.82,0h2.82l0.56,3.45-3.18.1C1377.93,1406.17,1377.86,1405,1377.77,1403.8Zm5.57,1.4,1.59-.32q0.14,2,.28,4l-1.27.06Zm2.9,3.13q-0.14-1.85-.26-3.7,1.91-.46,3.78-1.06,0.24,2.41.4,4.82-1.94.26-3.89,0.4Zm-0.34-4.78q-0.12-1.73-.23-3.46,1.73-1.1,3.43-2.24,0.31,2.31.55,4.63Q1387.79,1403.07,1385.9,1403.54Zm-4.53-7.32a1.27,1.27,0,0,0-.47-0.09h-1.27q0.27-1,.55-2H1384Q1382.7,1395.21,1381.37,1396.22Zm-2.86-.06-3.71,0q-0.15-1-.26-2l4.53-.05C1378.88,1394.83,1378.7,1395.49,1378.52,1396.16Zm-4.79.06-5.72.12q0-1,0-2,2.71-.08,5.43-0.12C1373.54,1394.9,1373.63,1395.56,1373.73,1396.23Zm-6.79.15-6.54.2a0.57,0.57,0,0,0,.09-0.25l0.22-1.72q3.13-.13,6.26-0.22Q1367,1395.38,1366.94,1396.38Zm-7.47.23-5.51.2-0.17-1.86q2.92-.16,5.84-0.29l-0.21,1.67A0.47,0.47,0,0,0,1359.46,1396.61Zm-6.58.24-5.6.22c-0.06-.57-0.12-1.14-0.19-1.71q2.81-.19,5.62-0.35Zm-6.68.22v0l-4.61.18a0.53,0.53,0,0,0,0-.33l-0.27-1.18,4.67-.35C1346.1,1396,1346.16,1396.51,1346.21,1397.06Zm-5.62.18,0,0.08-3.31.13-0.78-1.28,3.74-.31Zm-4.51.25-3.44.13-0.87-1,3.57-.33Zm-6.73,3.84q-0.16,1.38-.28,2.77l-1.42-.3q0.14-1.76.23-3.53Q1328.64,1400.79,1329.36,1401.33Zm-0.36,3.85c-0.12,1.56-.2,3.13-0.26,4.7h-1.65q0.27-2.5.48-5Zm-3.1,5.78q-0.27,2.42-.58,4.83l-2.68.33q0.16-2.58.34-5.16h2.92Zm1.07,0h1.73c0,1.48-.08,3-0.1,4.43l-2.2.27Q1326.7,1413.3,1327,1411Zm2.8,0h0.54c0,0.47,0,.93,0,1.4,0,0.94,0,1.88.09,2.82l-0.71.09C1329.69,1413.82,1329.72,1412.39,1329.77,1411Zm3,0.72c0-.6,0-1.21,0-1.81l3.76-.12,0.07,3.85-3.82,0C1332.82,1413,1332.8,1412.32,1332.8,1411.67Zm4.85-2,4.27-.14q-0.05,2-.14,3.94l-4.05.06Zm5.34-.17,5.39-.17q0.11,2,.2,4l-5.74.11Q1342.94,1411.51,1343,1409.53Zm6.46-.2,5.29-.17c0.08,1.36.13,2.72,0.18,4.09l-5.27.12Q1349.57,1411.35,1349.46,1409.33Zm6.36-.2,4.9-.15c0,0.36,0,.73,0,1.09q0,1.52-.06,3l-4.66.12C1356,1411.86,1355.89,1410.49,1355.82,1409.13Zm6,0.24c0-.14,0-0.29,0-0.43l3.76-.12q0,0.7.06,1.4,0.07,1.37.19,2.73l-4.08.12C1361.75,1411.84,1361.78,1410.6,1361.79,1409.37Zm4.84-.59,5.71-.18c0.08,1.37.11,2.75,0.11,4.13l-5.56.18Q1366.71,1410.85,1366.63,1408.78Zm11.37-.36,3.32-.11,0.16,1c0.05,0.32.29,1.54,0.58,3.07l-4,.16C1378,1411.16,1378,1409.79,1378,1408.42Zm6.34,3-0.23-1.45,1.17-.06c0.1,1.33.2,2.67,0.34,4h-0.87Zm2-1.58q1.95-.14,3.88-0.4,0.14,2.24.22,4.48h-3.76C1386.55,1412.57,1386.45,1411.21,1386.35,1409.85Zm4.94-.55q1-.15,2-0.32,0.27,2.47.52,5h-2.27Q1391.44,1411.62,1391.29,1409.31Zm1.87-1.39-1.94.32q-0.18-2.51-.43-5c0.59-.2,1.17-0.41,1.75-0.64Q1392.86,1405.25,1393.17,1407.92Zm-7.93-14.84h-4.73c0.17-.59.35-1.18,0.53-1.77q3,0.08,5.93.21Q1386.11,1392.31,1385.23,1393.08Zm-5.85,0-4.95.05q-0.08-1-.13-2,2.8,0,5.61.1C1379.74,1391.88,1379.56,1392.48,1379.38,1393.09Zm-6,.07-5.32.12q0-1.06,0-2.13,2.6,0,5.2,0C1373.27,1391.83,1373.31,1392.5,1373.37,1393.16Zm-6.39.15q-3.07.09-6.13,0.22l0.29-2.31q2.91-.05,5.83-0.06Q1367,1392.23,1367,1393.31Zm-6.91-2.07-0.3,2.34q-3,.13-6.08.3l-0.22-2.45Q1356.76,1391.3,1360.06,1391.24Zm-7.59,1.07,0.15,1.63q-2.82.16-5.65,0.35-0.16-1.29-.35-2.57,2.9-.15,5.81-0.25C1352.45,1391.82,1352.46,1392.12,1352.47,1392.31Zm-6.56,2.05-4.79.36-0.6-2.65,5-.3Q1345.75,1393.06,1345.91,1394.36Zm-5.87.44-4.12.35-0.88-1.45c-0.21-.34-0.5-0.75-0.81-1.19q2.6-.2,5.2-0.38Zm-13.18,4.76q-0.1,2-.25,4-1.5-.26-3-0.43,0.19-2.27.4-4.55l0.08-.85Q1325.49,1398.64,1326.86,1399.56Zm-4.29,17.63,2.6-.32q-0.27,2.07-.54,4.13l-2.33,1Q1322.42,1419.58,1322.57,1417.19Zm7.08-.87,0.79-.1q0.08,1.14.18,2.29l-1,.42Q1329.63,1417.64,1329.65,1416.33Zm3.41,1.46c-0.09-1-.15-2.06-0.2-3.09l3.81,0,0.07,3.73-3.62.17C1333.1,1418.29,1333.08,1418,1333.06,1417.78Zm9.73-3.22,5.83-.11q0.06,1.69.11,3.39l-6.15.27Q1342.7,1416.34,1342.79,1414.57Zm13.23-.27,4.59-.12q-0.06,1.59-.14,3.19l-4.37.18Q1356.07,1415.92,1356,1414.29Zm11-.31,5.46-.18q0,1.55-.09,3.1l-5,.19Q1367.13,1415.54,1367,1414Zm6.53-.22,3.48-.13c0,1,0,2.07,0,3.1l-3.57.12Q1373.49,1415.32,1373.51,1413.77Zm4.54-.17,4.2-.17c0.19,1,.39,2.1.56,3.11l-4.74.16C1378.06,1415.67,1378.06,1414.63,1378.05,1413.6Zm6.87,1.41h0.81c0.09,0.79.2,1.59,0.32,2.37l-0.77-.12Zm6.63,0h2.34q0.17,1.83.31,3.67l-2.58-.41Q1391.61,1416.63,1391.56,1415Zm-2.7-25.3-0.8.78q-3.34-.14-6.68-0.24,0.39-1.22.8-2.44c1,0.09,2.05.23,3.06,0.41A8.67,8.67,0,0,1,1388.86,1389.7Zm-7.78-2q-0.42,1.24-.81,2.49-3-.08-6-0.11,0-1.22,0-2.45C1376.55,1387.6,1378.83,1387.58,1381.07,1387.73Zm-7.86,0q0,1.21,0,2.41-2.59,0-5.18,0,0-1.16-.06-2.31h1C1370.35,1387.75,1371.78,1387.72,1373.22,1387.68Zm-21,.35a15.44,15.44,0,0,1,.22,2.35q-3,.11-5.94.26-0.19-1.22-.4-2.44l5.06-.14Zm-7.21.2q0.22,1.24.41,2.47l-5.12.3-0.58-2.56C1341.46,1388.35,1343.22,1388.28,1345,1388.23Zm-6.38.29,0.58,2.56q-2.83.19-5.66,0.42a8.17,8.17,0,0,1-1.19-2.35l1.67-.2C1335.54,1388.75,1337.07,1388.62,1338.61,1388.52Zm-7.32.77a7.52,7.52,0,0,0,1.18,2.29l-4.8.42a0.56,0.56,0,0,0-.25.08q-0.67-.62-1.35-1.23A15,15,0,0,1,1331.28,1389.29Zm-9,33.86,2.22-.92q-0.22,1.67-.44,3.34c-0.64.46-1.29,0.91-2,1.33Q1322.15,1425,1322.24,1423.15Zm7.85-2.47-0.51.45q0-.52,0-1l1.13-.47c0,0.24,0,.48.07,0.73A1.25,1.25,0,0,0,1330.09,1420.68Zm3.28-.07a6.67,6.67,0,0,1-.17-1l3.56-.16,0,1.86h-1.2C1334.89,1421.31,1333.62,1421.56,1333.36,1420.61Zm9.35,0.71a1.94,1.94,0,0,0,0-.37,0.52,0.52,0,0,0-.32-0.46c0-.43.07-0.86,0.1-1.29l6.26-.27q0,1.2,0,2.41h-6.09Zm13.83,0a0.55,0.55,0,0,0-.36-0.41q0-1.16-.06-2.32l4.28-.17q-0.09,1.45-.2,2.91h-3.66Zm11.45,0q-0.28-1.59-.51-3.19l4.83-.18q-0.07,1.38-.16,2.75a0.46,0.46,0,0,0-.18.41v0.21h-4Zm5.18,0q0.12-1.71.21-3.42l3.64-.13c0,1.17.05,2.34,0.11,3.5C1375.81,1421.36,1374.49,1421.37,1373.17,1421.36Zm10.14-.64a15.63,15.63,0,0,1-5.11.56c-0.06-1.17-.09-2.34-0.11-3.51l4.91-.17A11.15,11.15,0,0,1,1383.31,1420.72Zm2.46-.33a18.9,18.9,0,0,0-.29-2v-0.06l0.78,0.12c0.15,0.8.32,1.59,0.53,2.38l-0.23-.18A1.3,1.3,0,0,0,1385.77,1420.39Zm5.81,3.91q0.06-2.48,0-5l2.65,0.42q0.23,3.2.39,6.41Q1393.1,1425.28,1391.59,1424.3Z" transform="translate(-942.93 -1240.68)"/><path class="cls-1" d="M1204.4,1426.1a10.51,10.51,0,0,0,.34-4.86,3.14,3.14,0,0,0,.21-0.38,0.43,0.43,0,0,0-.42-0.59,10.33,10.33,0,0,0-1.27-2.9,0.62,0.62,0,0,0-.43-0.62l-0.12-.17a16.57,16.57,0,0,0-7.8-5.22,12.48,12.48,0,0,0-6.46-.21,0.55,0.55,0,0,0-.45.11h0a12,12,0,0,0-7.44,5,10.81,10.81,0,0,0,0,11.44A13.88,13.88,0,0,0,1191,1434l0.37,0a0.58,0.58,0,0,0,.78,0,14,14,0,0,0,8.5-2.73,0.54,0.54,0,0,0,.8-0.66l0.35-.32a10,10,0,0,0,2.35-3.47A0.56,0.56,0,0,0,1204.4,1426.1Zm-0.89-1.44,0,0-0.24.14,0.33-.47Q1203.54,1424.51,1203.51,1424.66Zm-2.92-2.43,0,0h0Zm2.85-1.38-0.7.46,0.65-.68Zm-2.18,2.54-0.1.1-0.06-.07Zm1.91,0-0.83,1.19-0.36-.3h0C1202.29,1424.07,1202.77,1423.7,1203.17,1423.42Zm-12-10.41,0.13-.08a3.66,3.66,0,0,0-.37.58l-0.22-.22Zm2,1.1q0.29-.31.55-0.63l0,0,1-.43-0.14.1a12.7,12.7,0,0,1-1.5,1.12Zm-1.45.26-0.13-.15,0.31-.09Zm1.41,0.73-0.27.23-0.21-.12A1.26,1.26,0,0,0,1193.17,1415.1Zm1.51-.05a0.32,0.32,0,0,0,0,.18,4.11,4.11,0,0,1-.45.16Zm2.84-1.15a0.32,0.32,0,0,0,0-.18l0.18,0.11Zm-3.9-1.73h0a7.9,7.9,0,0,0-.65.71l-0.75.28,0.07-.08a7,7,0,0,0,.78-0.67,0.9,0.9,0,0,0,.15-0.32Zm-9.25,7.3,0.07,0-0.11.08Zm-2.95-2.21-0.11.1,0.07-.12Zm1.9,1.84,0.6-.38-0.11.11Zm0.67-3.66,0.4-.39,0,0.15Zm-1-.27H1183l-0.6.52Q1182.67,1415.44,1182.94,1415.18Zm-1.9,2.71a0.46,0.46,0,0,0,.14.19l-0.32.24C1180.91,1418.18,1181,1418,1181,1417.89Zm-0.55,1.53a0.51,0.51,0,0,0,.24,0l0.05,0a1.08,1.08,0,0,0,.07.25,0.45,0.45,0,0,0,.08.12,7.3,7.3,0,0,0-.65.57Q1180.37,1419.88,1180.49,1419.42Zm2.59,0.75,0,0-0.15,0Zm1-.38a0.33,0.33,0,0,0,0,.09l-0.14.05Zm-1.57,8.54a1,1,0,0,0,.81,0l-0.42.46Zm-0.85-1.17,0.05,0,0,0.06Zm3.47,2.68a0.42,0.42,0,0,0-.2-0.1l0.41-.35C1185.22,1429.53,1185.15,1429.68,1185.08,1429.84Zm-1.61-.42,0.28-.13-0.21.2Zm0.89,0.72a0.33,0.33,0,0,0,0,.07l-0.05,0Zm1.79-2.31a0.69,0.69,0,0,0-.15-0.33,0.89,0.89,0,0,1,.36.24Zm-0.85-.42-0.15.11a0.72,0.72,0,0,0,.09-0.2l0.15,0Zm-3.25.42h0.1a0.34,0.34,0,0,0,0,.14Zm15.46,2.56c0,0.31-.12.62-0.15,0.94l-0.41.15A2.65,2.65,0,0,1,1197.52,1430.38Zm-3.65.71c-0.06.17-.13,0.35-0.2,0.52a3.25,3.25,0,0,1,.12-0.42Zm0.46,1.53,0,0.18-0.1,0Zm1.24-.35c0,0.09,0,.18,0,0.27l-0.09,0Zm1.23-2.35,0.06-.22,0.14,0Zm3.67,0a15.3,15.3,0,0,0-2.52-1.07c-0.79-.26-2.27-0.78-3.06-0.41a6.58,6.58,0,0,0-2.14,2.07,12.14,12.14,0,0,0-1.42,2.38,12.54,12.54,0,0,1-2.93-.59l-0.44-3.18c-0.1-.68-0.06-1.76-0.73-2.26a5.89,5.89,0,0,0-2.59-.82l-3.9-.73a9.76,9.76,0,0,1-.58-2.86l3.57-1.35a4.77,4.77,0,0,0,2.52-1.53,2.91,2.91,0,0,0,.09-2.36l0.2-.26c0.19-.26-0.14-0.63-0.45-0.59-0.3-1-.63-1.9-0.94-2.85a11.45,11.45,0,0,1,1.08-.53,0.66,0.66,0,0,0,.37-0.06,10.65,10.65,0,0,1,1.54-.57l0.09,0,2.21,2.19c0.68,0.67,1.47,1.74,2.52,2a4.17,4.17,0,0,0,2.65-.48l3.22-1.47c0.52,0.37,1,.77,1.51,1.17a9.62,9.62,0,0,1,1.51,1.6c-1.25,1.42-2.46,3.28-2.47,5.12,0,0.85.86,1.65,1.43,2.26a10.86,10.86,0,0,0,2.21,1.75l0,0.1A9.26,9.26,0,0,1,1200.47,1430Z" transform="translate(-942.93 -1240.68)"/><path class="cls-1" d="M1197.19,1421.76l-3.33-3.9a0.69,0.69,0,0,0-.89-0.13,4.3,4.3,0,0,0-3.34.85c-1.1.65-2.77,1.18-2.91,2.54a8.6,8.6,0,0,0,.54,3.74,3.68,3.68,0,0,0,2.56,2.37,18.24,18.24,0,0,0,2,.47,4.55,4.55,0,0,0,2,.24,3.49,3.49,0,0,0,1.47-1.22c0.5-.55,1-1.14,1.41-1.73a4.66,4.66,0,0,0,1.1-1.73A1.8,1.8,0,0,0,1197.19,1421.76Zm-7.06-1.76,1.74-.63a24.93,24.93,0,0,1-2.8,1.11c-0.67.21-.41,0.1-0.13,0Zm-0.8,3.56,2.24-1,0.22-.09-0.69.47-2.16,1Zm3.41-4.58a0.36,0.36,0,0,0,.06-0.15l0.06,0,0.13,0Zm-4,2.37a3.43,3.43,0,0,0,.44-0.08l-0.42.19v-0.11Zm-0.72,1.84,0,0v0h0Zm7.64-1.14-0.22.11a3,3,0,0,0,.19-0.34l0-.08,0.23,0.27A0.49,0.49,0,0,0,1195.67,1422.06Zm-1.58-2.16-0.25.08,0.19-.15,0.06,0.07h0Zm2.42,3a0.39,0.39,0,0,0-.28.07l-0.08.05a0.35,0.35,0,0,0,0-.27l0.1-.1a0.4,0.4,0,0,0,.09-0.15A0.76,0.76,0,0,1,1196.51,1422.92Zm-3.17,4h-0.07l1-.8A1.89,1.89,0,0,1,1193.34,1426.88Z" transform="translate(-942.93 -1240.68)"/><path class="cls-1" d="M1236.16,1388.09a6.84,6.84,0,0,0,.22-3.16,2,2,0,0,0,.14-0.25,0.28,0.28,0,0,0-.27-0.38,6.73,6.73,0,0,0-.82-1.89,0.41,0.41,0,0,0-.28-0.4l-0.08-.11a10.79,10.79,0,0,0-5.08-3.4,8.12,8.12,0,0,0-4.2-.14,0.36,0.36,0,0,0-.29.07h0a7.84,7.84,0,0,0-4.84,3.23,7,7,0,0,0,0,7.45,9,9,0,0,0,6.77,4.13l0.24,0a0.38,0.38,0,0,0,.51,0,9.11,9.11,0,0,0,5.53-1.78,0.35,0.35,0,0,0,.52-0.43l0.23-.21a6.53,6.53,0,0,0,1.53-2.26A0.36,0.36,0,0,0,1236.16,1388.09Zm-0.58-.94h0l-0.16.09,0.22-.31Zm-1.9-1.58h0Zm1.85-.9-0.46.3,0.42-.44Zm-1.42,1.65-0.06.07,0,0Zm1.24,0-0.54.78-0.23-.2h0C1234.79,1386.76,1235.1,1386.53,1235.36,1386.34Zm-7.79-6.78,0.09-.05a2.38,2.38,0,0,0-.24.38l-0.14-.14Zm1.3,0.71,0.36-.41h0l0.64-.28-0.09.07a8.26,8.26,0,0,1-1,.73Zm-0.94.17-0.09-.1,0.2-.06Zm0.92,0.48-0.17.15-0.14-.08A0.82,0.82,0,0,0,1228.85,1380.93Zm1,0a0.21,0.21,0,0,0,0,.12l-0.29.11Zm1.85-.75a0.21,0.21,0,0,0,0-.12l0.11,0.07Zm-2.54-1.12h0a5.15,5.15,0,0,0-.42.46l-0.49.18,0,0a4.55,4.55,0,0,0,.51-0.43,0.59,0.59,0,0,0,.09-0.21Zm-6,4.75,0,0-0.07.05Zm-1.92-1.44-0.07.06,0-.08Zm1.24,1.2,0.39-.24-0.07.07Zm0.43-2.38,0.26-.26,0,0.1Zm-0.68-.17h0.06l-0.39.34Zm-1.24,1.76a0.3,0.3,0,0,0,.09.12l-0.21.16Zm-0.36,1a0.33,0.33,0,0,0,.16,0h0a0.7,0.7,0,0,0,0,.16,0.29,0.29,0,0,0,.05.08,4.75,4.75,0,0,0-.42.37Q1220.51,1384,1220.59,1383.74Zm1.68,0.49h0l-0.1,0Zm0.63-.25a0.22,0.22,0,0,0,0,.06l-0.09,0Zm-1,5.56a0.63,0.63,0,0,0,.53,0l-0.27.3Zm-0.55-.76h0l0,0Zm2.26,1.74a0.27,0.27,0,0,0-.13-0.06l0.27-.23Zm-1-.27,0.18-.08-0.13.13Zm0.58,0.47v0l0,0Zm1.17-1.51a0.45,0.45,0,0,0-.1-0.22,0.58,0.58,0,0,1,.23.16Zm-0.55-.28-0.1.07a0.47,0.47,0,0,0,.06-0.13l0.1,0Zm-2.11.27h0.06a0.22,0.22,0,0,0,0,.09Zm10.06,1.67c0,0.2-.08.4-0.1,0.61l-0.27.1A1.73,1.73,0,0,1,1231.68,1390.87Zm-2.38.46c0,0.11-.09.23-0.13,0.34a2.11,2.11,0,0,1,.08-0.27Zm0.3,1,0,0.12h-0.07Zm0.81-.23c0,0.06,0,.12,0,0.17h-0.06Zm0.8-1.53,0-.14,0.09,0Zm2.39,0a10,10,0,0,0-1.64-.7,3.37,3.37,0,0,0-2-.27,4.28,4.28,0,0,0-1.4,1.35,7.91,7.91,0,0,0-.92,1.55,8.16,8.16,0,0,1-1.91-.38l-0.29-2.07a2.11,2.11,0,0,0-.48-1.47,3.83,3.83,0,0,0-1.68-.54l-2.54-.48a6.35,6.35,0,0,1-.37-1.86l2.32-.88a3.1,3.1,0,0,0,1.64-1,1.89,1.89,0,0,0,.06-1.54l0.13-.17c0.12-.17-0.09-0.41-0.29-0.38-0.19-.62-0.41-1.24-0.61-1.85a7.45,7.45,0,0,1,.7-0.34,0.43,0.43,0,0,0,.24,0,6.94,6.94,0,0,1,1-.37h0.06l1.44,1.42a3.85,3.85,0,0,0,1.64,1.27,2.71,2.71,0,0,0,1.72-.31l2.1-1c0.34,0.24.67,0.5,1,.76a6.26,6.26,0,0,1,1,1,5.53,5.53,0,0,0-1.61,3.33,2.59,2.59,0,0,0,.93,1.47,7.07,7.07,0,0,0,1.44,1.14l0,0.06A6,6,0,0,1,1233.6,1390.6Z" transform="translate(-942.93 -1240.68)"/><path class="cls-1" d="M1231.46,1385.26l-2.17-2.54a0.45,0.45,0,0,0-.58-0.08,2.8,2.8,0,0,0-2.18.55c-0.72.42-1.8,0.77-1.89,1.65a5.6,5.6,0,0,0,.35,2.43,2.4,2.4,0,0,0,1.66,1.54,11.88,11.88,0,0,0,1.3.3,3,3,0,0,0,1.31.16,2.27,2.27,0,0,0,1-.8c0.33-.36.63-0.74,0.92-1.13a3,3,0,0,0,.71-1.13A1.17,1.17,0,0,0,1231.46,1385.26Zm-4.6-1.14,1.13-.41a16.23,16.23,0,0,1-1.82.72c-0.43.13-.27,0.07-0.08,0Zm-0.52,2.32,1.46-.67,0.14-.06-0.45.3-1.4.65Zm2.22-3a0.23,0.23,0,0,0,0-.1h0l0.08,0ZM1226,1385l0.28-.05-0.28.13V1385Zm-0.47,1.2h0Zm5-.74-0.14.07a1.92,1.92,0,0,0,.13-0.22l0-.05,0.15,0.18A0.32,0.32,0,0,0,1230.48,1385.45Zm-1-1.4-0.16.05,0.12-.1,0,0h0Zm1.57,2a0.25,0.25,0,0,0-.18,0l0,0a0.23,0.23,0,0,0,0-.18l0.07-.07a0.26,0.26,0,0,0,.06-0.1A0.49,0.49,0,0,1,1231,1386Zm-2.06,2.58h0l0.65-.52A1.23,1.23,0,0,1,1229,1388.6Z" transform="translate(-942.93 -1240.68)"/><path class="cls-1" d="M1261.2,1429.3a6.84,6.84,0,0,0,.22-3.16,2,2,0,0,0,.14-0.25,0.28,0.28,0,0,0-.27-0.38,6.73,6.73,0,0,0-.82-1.89,0.41,0.41,0,0,0-.28-0.4l-0.08-.11a10.79,10.79,0,0,0-5.08-3.4,8.12,8.12,0,0,0-4.2-.14,0.36,0.36,0,0,0-.29.07h0a7.84,7.84,0,0,0-4.84,3.23,7,7,0,0,0,0,7.45,9,9,0,0,0,6.77,4.13l0.24,0a0.38,0.38,0,0,0,.51,0,9.11,9.11,0,0,0,5.53-1.78,0.35,0.35,0,0,0,.52-0.43l0.23-.21a6.53,6.53,0,0,0,1.53-2.26A0.36,0.36,0,0,0,1261.2,1429.3Zm-0.58-.94h0l-0.16.09,0.22-.31Zm-1.9-1.58h0Zm1.85-.9-0.46.3,0.42-.44Zm-1.42,1.65-0.06.07,0,0Zm1.24,0-0.54.78-0.23-.2h0C1259.83,1428,1260.14,1427.74,1260.4,1427.55Zm-7.79-6.78,0.09-.05a2.38,2.38,0,0,0-.24.38l-0.14-.14Zm1.3,0.71,0.36-.41h0l0.64-.28-0.09.07a8.26,8.26,0,0,1-1,.73Zm-0.94.17-0.09-.1,0.2-.06Zm0.92,0.48-0.17.15-0.14-.08A0.82,0.82,0,0,0,1253.89,1422.14Zm1,0a0.21,0.21,0,0,0,0,.12l-0.29.11Zm1.85-.75a0.21,0.21,0,0,0,0-.12l0.11,0.07Zm-2.54-1.12h0a5.15,5.15,0,0,0-.42.46l-0.49.18,0,0a4.55,4.55,0,0,0,.51-0.43,0.59,0.59,0,0,0,.09-0.21Zm-6,4.75,0,0-0.07.05Zm-1.92-1.44-0.07.06,0-.08Zm1.24,1.2,0.39-.24-0.07.07Zm0.43-2.38,0.26-.26,0,0.1Zm-0.68-.17h0.06l-0.39.34ZM1246,1424a0.3,0.3,0,0,0,.09.12l-0.21.16Zm-0.36,1a0.33,0.33,0,0,0,.16,0h0a0.7,0.7,0,0,0,0,.16,0.29,0.29,0,0,0,.05.08,4.75,4.75,0,0,0-.42.37Q1245.55,1425.25,1245.63,1425Zm1.68,0.49h0l-0.1,0Zm0.63-.25a0.22,0.22,0,0,0,0,.06l-0.09,0Zm-1,5.56a0.63,0.63,0,0,0,.53,0l-0.27.3Zm-0.55-.76h0l0,0Zm2.26,1.74a0.27,0.27,0,0,0-.13-0.06l0.27-.23Zm-1-.27,0.18-.08-0.13.13Zm0.58,0.47v0l0,0Zm1.17-1.51a0.45,0.45,0,0,0-.1-0.22,0.58,0.58,0,0,1,.23.16Zm-0.55-.28-0.1.07a0.47,0.47,0,0,0,.06-0.13l0.1,0Zm-2.11.27h0.06a0.22,0.22,0,0,0,0,.09Zm10.06,1.67c0,0.2-.08.4-0.1,0.61l-0.27.1A1.73,1.73,0,0,1,1256.72,1432.08Zm-2.38.46c0,0.11-.09.23-0.13,0.34a2.11,2.11,0,0,1,.08-0.27Zm0.3,1,0,0.12h-0.07Zm0.81-.23c0,0.06,0,.12,0,0.17h-0.06Zm0.8-1.53,0-.14,0.09,0Zm2.39,0a10,10,0,0,0-1.64-.7,3.37,3.37,0,0,0-2-.27,4.28,4.28,0,0,0-1.4,1.35,7.91,7.91,0,0,0-.92,1.55,8.16,8.16,0,0,1-1.91-.38l-0.29-2.07a2.11,2.11,0,0,0-.48-1.47,3.83,3.83,0,0,0-1.68-.54l-2.54-.48a6.35,6.35,0,0,1-.37-1.86l2.32-.88a3.1,3.1,0,0,0,1.64-1,1.89,1.89,0,0,0,.06-1.54l0.13-.17c0.12-.17-0.09-0.41-0.29-0.38-0.19-.62-0.41-1.24-0.61-1.85a7.45,7.45,0,0,1,.7-0.34,0.43,0.43,0,0,0,.24,0,6.94,6.94,0,0,1,1-.37h0.06l1.44,1.42a3.85,3.85,0,0,0,1.64,1.27,2.71,2.71,0,0,0,1.72-.31l2.1-1c0.34,0.24.67,0.5,1,.76a6.26,6.26,0,0,1,1,1,5.53,5.53,0,0,0-1.61,3.33,2.59,2.59,0,0,0,.93,1.47,7.07,7.07,0,0,0,1.44,1.14l0,0.06A6,6,0,0,1,1258.64,1431.82Z" transform="translate(-942.93 -1240.68)"/><path class="cls-1" d="M1256.51,1426.48l-2.17-2.54a0.45,0.45,0,0,0-.58-0.08,2.8,2.8,0,0,0-2.18.55c-0.72.42-1.8,0.77-1.89,1.65a5.6,5.6,0,0,0,.35,2.43,2.4,2.4,0,0,0,1.66,1.54,11.88,11.88,0,0,0,1.3.3,3,3,0,0,0,1.31.16,2.27,2.27,0,0,0,1-.8c0.33-.36.63-0.74,0.92-1.13a3,3,0,0,0,.71-1.13A1.17,1.17,0,0,0,1256.51,1426.48Zm-4.6-1.14,1.13-.41a16.23,16.23,0,0,1-1.82.72c-0.43.13-.27,0.07-0.08,0Zm-0.52,2.32,1.46-.67,0.14-.06-0.45.3-1.4.65Zm2.22-3a0.23,0.23,0,0,0,0-.1h0l0.08,0Zm-2.59,1.54,0.28-.05-0.28.13v-0.07Zm-0.47,1.2h0Zm5-.74-0.14.07a1.92,1.92,0,0,0,.13-0.22l0-.05,0.15,0.18A0.32,0.32,0,0,0,1255.52,1426.67Zm-1-1.4-0.16.05,0.12-.1,0,0h0Zm1.57,2a0.25,0.25,0,0,0-.18,0l0,0a0.23,0.23,0,0,0,0-.18l0.07-.07a0.26,0.26,0,0,0,.06-0.1A0.49,0.49,0,0,1,1256.06,1427.23Zm-2.06,2.58h0l0.65-.52A1.23,1.23,0,0,1,1254,1429.81Z" transform="translate(-942.93 -1240.68)"/><path class="cls-1" d="M1278.28,1359.51a6.84,6.84,0,0,0,.22-3.16,2,2,0,0,0,.14-0.25,0.28,0.28,0,0,0-.27-0.38,6.73,6.73,0,0,0-.82-1.89,0.41,0.41,0,0,0-.28-0.4l-0.08-.11a10.79,10.79,0,0,0-5.08-3.4,8.12,8.12,0,0,0-4.2-.14,0.36,0.36,0,0,0-.29.07h0a7.84,7.84,0,0,0-4.84,3.23,7,7,0,0,0,0,7.45,9,9,0,0,0,6.77,4.13l0.24,0a0.38,0.38,0,0,0,.51,0,9.11,9.11,0,0,0,5.53-1.78,0.35,0.35,0,0,0,.52-0.43l0.23-.21a6.53,6.53,0,0,0,1.53-2.26A0.36,0.36,0,0,0,1278.28,1359.51Zm-0.58-.94h0l-0.16.09,0.22-.31Zm-1.9-1.58h0Zm1.85-.9-0.46.3,0.42-.44Zm-1.42,1.65-0.06.07,0,0Zm1.24,0-0.54.78-0.23-.2h0C1276.91,1358.19,1277.22,1357.95,1277.48,1357.77Zm-7.79-6.78,0.09-.05a2.38,2.38,0,0,0-.24.38l-0.14-.14Zm1.3,0.71,0.36-.41h0l0.64-.28-0.09.07a8.26,8.26,0,0,1-1,.73Zm-0.94.17-0.09-.1,0.2-.06Zm0.92,0.48-0.17.15-0.14-.08A0.82,0.82,0,0,0,1271,1352.35Zm1,0a0.21,0.21,0,0,0,0,.12l-0.29.11Zm1.85-.75a0.21,0.21,0,0,0,0-.12l0.11,0.07Zm-2.54-1.12h0a5.15,5.15,0,0,0-.42.46l-0.49.18,0,0a4.55,4.55,0,0,0,.51-0.43,0.59,0.59,0,0,0,.09-0.21Zm-6,4.75,0,0-0.07.05Zm-1.92-1.44-0.07.06,0-.08Zm1.24,1.2,0.39-.24-0.07.07Zm0.43-2.38,0.26-.26,0,0.1Zm-0.68-.17h0.06l-0.39.34Zm-1.24,1.76a0.3,0.3,0,0,0,.09.12l-0.21.16Zm-0.36,1a0.33,0.33,0,0,0,.16,0h0a0.7,0.7,0,0,0,0,.16,0.29,0.29,0,0,0,.05.08,4.75,4.75,0,0,0-.42.37Q1262.64,1355.46,1262.72,1355.16Zm1.68,0.49h0l-0.1,0Zm0.63-.25a0.22,0.22,0,0,0,0,.06l-0.09,0Zm-1,5.56a0.63,0.63,0,0,0,.53,0l-0.27.3Zm-0.55-.76h0l0,0Zm2.26,1.74a0.27,0.27,0,0,0-.13-0.06l0.27-.23Zm-1-.27,0.18-.08-0.13.13Zm0.58,0.47v0l0,0Zm1.17-1.51a0.45,0.45,0,0,0-.1-0.22,0.58,0.58,0,0,1,.23.16Zm-0.55-.28-0.1.07a0.47,0.47,0,0,0,.06-0.13l0.1,0Zm-2.11.27h0.06a0.22,0.22,0,0,0,0,.09Zm10.06,1.67c0,0.2-.08.4-0.1,0.61l-0.27.1A1.73,1.73,0,0,1,1273.8,1362.29Zm-2.38.46c0,0.11-.09.23-0.13,0.34a2.11,2.11,0,0,1,.08-0.27Zm0.3,1,0,0.12h-0.07Zm0.81-.23c0,0.06,0,.12,0,0.17h-0.06Zm0.8-1.53,0-.14,0.09,0Zm2.39,0a10,10,0,0,0-1.64-.7,3.37,3.37,0,0,0-2-.27,4.28,4.28,0,0,0-1.4,1.35,7.91,7.91,0,0,0-.92,1.55,8.16,8.16,0,0,1-1.91-.38l-0.29-2.07a2.11,2.11,0,0,0-.48-1.47,3.83,3.83,0,0,0-1.68-.54l-2.54-.48a6.35,6.35,0,0,1-.37-1.86l2.32-.88a3.1,3.1,0,0,0,1.64-1,1.89,1.89,0,0,0,.06-1.54l0.13-.17c0.12-.17-0.09-0.41-0.29-0.38-0.19-.62-0.41-1.24-0.61-1.85a7.45,7.45,0,0,1,.7-0.34,0.43,0.43,0,0,0,.24,0,6.94,6.94,0,0,1,1-.37h0.06l1.44,1.42a3.85,3.85,0,0,0,1.64,1.27,2.71,2.71,0,0,0,1.72-.31l2.1-1c0.34,0.24.67,0.5,1,.76a6.26,6.26,0,0,1,1,1,5.53,5.53,0,0,0-1.61,3.33,2.59,2.59,0,0,0,.93,1.47,7.07,7.07,0,0,0,1.44,1.14l0,0.06A6,6,0,0,1,1275.72,1362Z" transform="translate(-942.93 -1240.68)"/><path class="cls-1" d="M1273.59,1356.69l-2.17-2.54a0.45,0.45,0,0,0-.58-0.08,2.8,2.8,0,0,0-2.18.55c-0.72.42-1.8,0.77-1.89,1.65a5.6,5.6,0,0,0,.35,2.43,2.4,2.4,0,0,0,1.66,1.54,11.88,11.88,0,0,0,1.3.3,3,3,0,0,0,1.31.16,2.27,2.27,0,0,0,1-.8c0.33-.36.63-0.74,0.92-1.13a3,3,0,0,0,.71-1.13A1.17,1.17,0,0,0,1273.59,1356.69Zm-4.6-1.14,1.13-.41a16.23,16.23,0,0,1-1.82.72c-0.43.13-.27,0.07-0.08,0Zm-0.52,2.32,1.46-.67,0.14-.06-0.45.3-1.4.65Zm2.22-3a0.23,0.23,0,0,0,0-.1h0l0.08,0Zm-2.59,1.54,0.28-.05-0.28.13v-0.07Zm-0.47,1.2h0Zm5-.74-0.14.07a1.92,1.92,0,0,0,.13-0.22l0-.05,0.15,0.18A0.32,0.32,0,0,0,1272.6,1356.88Zm-1-1.4-0.16.05,0.12-.1,0,0h0Zm1.57,2a0.25,0.25,0,0,0-.18,0l0,0a0.23,0.23,0,0,0,0-.18l0.07-.07a0.26,0.26,0,0,0,.06-0.1A0.49,0.49,0,0,1,1273.14,1357.44Zm-2.06,2.58h0l0.65-.52A1.23,1.23,0,0,1,1271.08,1360Z" transform="translate(-942.93 -1240.68)"/><path class="cls-1" d="M1311.27,1415.22a10.61,10.61,0,0,0,.34-4.9,3.17,3.17,0,0,0,.21-0.38,0.43,0.43,0,0,0-.42-0.59,10.43,10.43,0,0,0-1.28-2.93,0.63,0.63,0,0,0-.43-0.62l-0.12-.17a16.72,16.72,0,0,0-7.88-5.27,12.59,12.59,0,0,0-6.52-.22,0.55,0.55,0,0,0-.45.11h0a12.16,12.16,0,0,0-7.51,5,10.92,10.92,0,0,0,0,11.55,14,14,0,0,0,10.49,6.4l0.38,0a0.59,0.59,0,0,0,.79,0,14.12,14.12,0,0,0,8.58-2.76,0.55,0.55,0,0,0,.81-0.66l0.35-.32A10.12,10.12,0,0,0,1311,1416,0.56,0.56,0,0,0,1311.27,1415.22Zm-0.9-1.45,0,0-0.24.14,0.33-.48Q1310.4,1413.61,1310.37,1413.77Zm-2.95-2.45,0,0h0Zm2.88-1.39-0.71.47,0.65-.69Zm-2.2,2.56-0.1.11-0.06-.08Zm1.93,0-0.84,1.21-0.36-.31h0C1309.13,1413.17,1309.62,1412.8,1310,1412.52ZM1297.95,1402l0.13-.08a3.69,3.69,0,0,0-.37.59l-0.22-.22Zm2,1.11q0.29-.31.56-0.63l0,0,1-.44-0.14.1a12.81,12.81,0,0,1-1.51,1.13Zm-1.46.27-0.13-.15,0.31-.09Zm1.42,0.74-0.27.23-0.21-.12A1.27,1.27,0,0,0,1299.93,1404.12Zm1.52-.05a0.32,0.32,0,0,0,0,.18,4.15,4.15,0,0,1-.45.16Zm2.86-1.16a0.32,0.32,0,0,0,0-.19l0.18,0.11Zm-3.94-1.74h0a8,8,0,0,0-.66.72l-0.76.28,0.07-.08a7.05,7.05,0,0,0,.79-0.67,0.91,0.91,0,0,0,.15-0.32Zm-9.34,7.37,0.07,0-0.11.08Zm-3-2.23-0.11.1,0.07-.12Zm1.92,1.86,0.6-.38-0.11.12Zm0.67-3.69,0.4-.4,0,0.15Zm-1.06-.27h0.09l-0.6.53Q1289.34,1404.46,1289.6,1404.2Zm-1.92,2.73a0.46,0.46,0,0,0,.14.19l-0.32.24C1287.56,1407.22,1287.62,1407.08,1287.68,1406.94Zm-0.56,1.54a0.51,0.51,0,0,0,.24,0l0.05,0a1.09,1.09,0,0,0,.07.25,0.45,0.45,0,0,0,.08.12,7.37,7.37,0,0,0-.65.58Q1287,1408.94,1287.13,1408.48Zm2.61,0.76,0,0-0.16.05Zm1-.39a0.33,0.33,0,0,0,0,.1l-0.14.05Zm-1.58,8.63a1,1,0,0,0,.82,0l-0.42.47Zm-0.86-1.19,0.06,0,0,0.06Zm3.5,2.7a0.42,0.42,0,0,0-.2-0.1l0.41-.36C1291.91,1418.69,1291.83,1418.84,1291.77,1419Zm-1.63-.42,0.28-.13-0.21.2Zm0.9,0.72a0.33,0.33,0,0,0,0,.07l-0.05,0Zm1.81-2.34a0.7,0.7,0,0,0-.15-0.33,0.9,0.9,0,0,1,.36.24Zm-0.86-.43-0.15.11a0.73,0.73,0,0,0,.09-0.2l0.15,0Zm-3.28.43h0.1a0.34,0.34,0,0,0,0,.14Zm15.6,2.58c0,0.31-.12.62-0.15,0.95l-0.42.15A2.68,2.68,0,0,1,1304.32,1419.54Zm-3.69.71c-0.06.18-.13,0.35-0.2,0.53a3.28,3.28,0,0,1,.12-0.42Zm0.46,1.54,0,0.18-0.1,0Zm1.25-.35c0,0.09,0,.18,0,0.27l-0.09,0Zm1.24-2.37,0.06-.22,0.14,0Zm3.71,0a15.45,15.45,0,0,0-2.54-1.08c-0.8-.26-2.29-0.79-3.09-0.41a6.64,6.64,0,0,0-2.16,2.09,12.26,12.26,0,0,0-1.43,2.4,12.66,12.66,0,0,1-3-.59l-0.45-3.21c-0.1-.69-0.06-1.77-0.74-2.28a5.94,5.94,0,0,0-2.61-.83l-3.94-.74a9.85,9.85,0,0,1-.58-2.89l3.6-1.36a4.81,4.81,0,0,0,2.54-1.55,2.93,2.93,0,0,0,.09-2.39l0.2-.26c0.19-.26-0.14-0.63-0.46-0.59-0.3-1-.63-1.92-1-2.87a11.56,11.56,0,0,1,1.09-.53,0.66,0.66,0,0,0,.37-0.06,10.75,10.75,0,0,1,1.55-.58l0.09,0,2.23,2.21c0.69,0.68,1.49,1.76,2.54,2a4.21,4.21,0,0,0,2.67-.49l3.25-1.49c0.53,0.38,1,.78,1.52,1.19a9.71,9.71,0,0,1,1.52,1.61c-1.26,1.43-2.48,3.31-2.49,5.17,0,0.86.87,1.67,1.44,2.28a11,11,0,0,0,2.23,1.77l0,0.1A9.35,9.35,0,0,1,1307.29,1419.12Z" transform="translate(-942.93 -1240.68)"/><path class="cls-1" d="M1304,1410.84l-3.36-3.93a0.69,0.69,0,0,0-.89-0.13,4.34,4.34,0,0,0-3.37.86c-1.11.65-2.8,1.19-2.94,2.56a8.69,8.69,0,0,0,.54,3.77,3.72,3.72,0,0,0,2.58,2.39,18.41,18.41,0,0,0,2,.47,4.6,4.6,0,0,0,2,.24,3.53,3.53,0,0,0,1.48-1.23c0.51-.56,1-1.15,1.42-1.75a4.7,4.7,0,0,0,1.11-1.75A1.82,1.82,0,0,0,1304,1410.84Zm-7.13-1.77,1.75-.64a25.16,25.16,0,0,1-2.82,1.12c-0.67.21-.42,0.1-0.13,0Zm-0.81,3.59,2.27-1,0.22-.09-0.7.47-2.18,1Zm3.44-4.63a0.36,0.36,0,0,0,.06-0.16l0.06,0,0.13,0Zm-4,2.39a3.46,3.46,0,0,0,.44-0.08l-0.43.2v-0.11Zm-0.73,1.85,0,0v0h0Zm7.71-1.15-0.22.11a3,3,0,0,0,.19-0.35l0-.08,0.23,0.27A0.5,0.5,0,0,0,1302.45,1411.14Zm-1.59-2.18-0.25.08,0.19-.16,0.06,0.07h0Zm2.44,3a0.39,0.39,0,0,0-.28.07l-0.08.05a0.35,0.35,0,0,0,0-.28l0.1-.1a0.4,0.4,0,0,0,.09-0.15A0.76,0.76,0,0,1,1303.3,1412Zm-3.2,4H1300l1-.81A1.91,1.91,0,0,1,1300.1,1416Z" transform="translate(-942.93 -1240.68)"/><path class="cls-1" d="M993.74,1387.65c20.39,5.8,39.41,14.24,56.88,26.31,0.87,0.6,2.36-1.21,1.34-1.93a163,163,0,0,0-57.33-26c-0.72-.16-1.76,1.35-0.9,1.6h0Z" transform="translate(-942.93 -1240.68)"/><path class="cls-1" d="M1182.21,1402.93a22.36,22.36,0,0,1,12.64,1.87c0.77,0.35,1.91-1.11,1-1.5a23.84,23.84,0,0,0-13.4-1.92c-0.82.12-1.4,1.7-.29,1.55h0Z" transform="translate(-942.93 -1240.68)"/><path class="cls-1" d="M1165,1420c1,0,2,0,3,0a1.29,1.29,0,0,0,1.18-.78,0.64,0.64,0,0,0-.42-1c-1,0-2,0-3,0a1.34,1.34,0,0,0-1.22.81c-0.15.36-.09,1,0.44,1h0Z" transform="translate(-942.93 -1240.68)"/><path class="cls-1" d="M1171.26,1430.64c-5.35-3.35-12.18-4.55-18.41-4.57-1.17,0-2.5,2.31-1,2.32,6.53,0.07,12.12,1.77,18.2,4,0.89,0.32,2.19-1.13,1.21-1.74h0Z" transform="translate(-942.93 -1240.68)"/><path class="cls-1" d="M1243.14,1346a12.21,12.21,0,0,1,7.52,3c0.84,0.73,2.48-.91,1.66-1.6a13.32,13.32,0,0,0-8.42-3.18c-0.87,0-1.91,1.69-.76,1.75h0Z" transform="translate(-942.93 -1240.68)"/><path class="cls-1" d="M1248.17,1337a22.68,22.68,0,0,1,9.58,5c0.76,0.67,2.26-.81,1.52-1.47a22.74,22.74,0,0,0-10.34-5.29c-0.88-.2-1.88,1.47-0.76,1.75h0Z" transform="translate(-942.93 -1240.68)"/><path class="cls-1" d="M1252.23,1361.17a28.41,28.41,0,0,0-10.33-3.76c-0.92-.15-1.95,1.63-0.78,1.8a28.32,28.32,0,0,1,10,3.48c0.74,0.42,1.9-1,1.06-1.52h0Z" transform="translate(-942.93 -1240.68)"/><path class="cls-1" d="M1279.53,1384.42a113,113,0,0,1,19.79,10.4c0.91,0.59,2.42-1.26,1.36-2a101.5,101.5,0,0,0-20-10.16c-0.89-.34-2.21,1.31-1.2,1.72h0Z" transform="translate(-942.93 -1240.68)"/><path class="cls-1" d="M1264.89,1398.57a14,14,0,0,1,10.44,3.9c0.68,0.65,2.08-.72,1.41-1.36a14.73,14.73,0,0,0-11.55-4.14c-0.85.07-1.46,1.64-.3,1.6h0Z" transform="translate(-942.93 -1240.68)"/><path class="cls-1" d="M1279,1416.73a21.61,21.61,0,0,0-12.64-4.65c-0.87,0-1.85,1.66-.74,1.71a21.07,21.07,0,0,1,12,4.31c0.75,0.57,2.14-.81,1.42-1.37h0Z" transform="translate(-942.93 -1240.68)"/><path class="cls-1" d="M1416.44,1387.4a6.84,6.84,0,0,0-.45-3.14,2,2,0,0,0,.08-0.27,0.28,0.28,0,0,0-.35-0.32,6.73,6.73,0,0,0-1.2-1.67,0.41,0.41,0,0,0-.36-0.33l-0.1-.09a10.79,10.79,0,0,0-5.68-2.25,8.12,8.12,0,0,0-4.14.75,0.36,0.36,0,0,0-.27.13h0a7.84,7.84,0,0,0-4.06,4.17,7,7,0,0,0,1.57,7.28,9,9,0,0,0,7.48,2.61l0.24,0a0.38,0.38,0,0,0,.5-0.09,9.11,9.11,0,0,0,5-2.9,0.35,0.35,0,0,0,.42-0.53l0.18-.25a6.53,6.53,0,0,0,1-2.53A0.36,0.36,0,0,0,1416.44,1387.4Zm-0.76-.79,0,0-0.13.12,0.15-.35Q1415.68,1386.5,1415.68,1386.61Zm-2.19-1.15h0Zm1.62-1.27-0.38.39,0.32-.52Zm-1,1.91,0,0.08-0.05,0Zm1.22-.24-0.37.87-0.27-.15h0C1414.82,1386.4,1415.08,1386.1,1415.29,1385.86Zm-9-5,0.07-.07a2.38,2.38,0,0,0-.15.42l-0.17-.11Zm1.43,0.42q0.14-.23.26-0.47v0l0.56-.41-0.07.08a8.26,8.26,0,0,1-.8.91Zm-0.89.37-0.1-.07,0.18-.1Zm1,0.27-0.14.18-0.15,0A0.82,0.82,0,0,0,1407.79,1381.94Zm1-.24a0.21,0.21,0,0,0,0,.12l-0.26.16Zm1.65-1.12a0.21,0.21,0,0,0,0-.12l0.13,0Zm-2.72-.56h0a5.15,5.15,0,0,0-.32.54l-0.44.28,0-.06a4.55,4.55,0,0,0,.41-0.53,0.59,0.59,0,0,0,0-.22h0.24Zm-4.89,5.91,0,0-0.06.07Zm-2.18-1-0.06.08,0-.09h0Zm1.46,0.91,0.33-.32-0.06.09Zm-0.08-2.42,0.2-.31,0.05,0.09Zm-0.7,0h0.06l-0.31.42Q1401.15,1383.59,1401.29,1383.39Zm-0.84,2a0.3,0.3,0,0,0,.11.1l-0.17.2C1400.41,1385.57,1400.43,1385.47,1400.45,1385.37Zm-0.14,1a0.33,0.33,0,0,0,.15,0l0,0a0.7,0.7,0,0,0,.08.15l0.07,0.07a4.75,4.75,0,0,0-.33.45Q1400.29,1386.73,1400.31,1386.42Zm1.75,0.12h0l-0.09.05Zm0.56-.37a0.22,0.22,0,0,0,0,.06l-0.08.05Zm0.17,5.65a0.63,0.63,0,0,0,.52-0.11l-0.2.35Zm-0.7-.63,0,0v0Zm2.57,1.23a0.27,0.27,0,0,0-.14,0l0.21-.28C1404.7,1392.21,1404.68,1392.32,1404.66,1392.42Zm-1.08,0,0.16-.12-0.1.15Zm0.67,0.33,0,0,0,0Zm0.82-1.72a0.45,0.45,0,0,0-.14-0.19,0.58,0.58,0,0,1,.26.1Zm-0.6-.15-0.08.09a0.47,0.47,0,0,0,0-.14h0.1Zm-2,.71,0.05,0h0a0.22,0.22,0,0,0,0,.09Zm10.19-.49c0,0.19,0,.41,0,0.62l-0.24.15A1.73,1.73,0,0,1,1412.65,1391.07Zm-2.23.95c0,0.12,0,.24-0.06.36a2.11,2.11,0,0,1,0-.28Zm0.5,0.91,0,0.11-0.06,0Zm0.74-.39,0,0.17-0.05,0C1411.65,1392.66,1411.65,1392.6,1411.66,1392.53Zm0.46-1.66s0-.1,0-0.15h0.09Zm2.35-.47a10,10,0,0,0-1.75-.34,3.37,3.37,0,0,0-2,.16,4.28,4.28,0,0,0-1.08,1.61,7.91,7.91,0,0,0-.58,1.71,8.16,8.16,0,0,1-1.95,0l-0.72-2a2.11,2.11,0,0,0-.77-1.34,3.83,3.83,0,0,0-1.76-.17l-2.59.07a6.35,6.35,0,0,1-.76-1.74l2.09-1.34a3.1,3.1,0,0,0,1.39-1.32,1.89,1.89,0,0,0-.27-1.52l0.09-.19c0.09-.19-0.18-0.38-0.37-0.31-0.32-.57-0.66-1.12-1-1.68a7.45,7.45,0,0,1,.62-0.48,0.43,0.43,0,0,0,.22-0.09,6.94,6.94,0,0,1,.9-0.57l0.05,0L1406,1382a3.85,3.85,0,0,0,1.87.9,2.71,2.71,0,0,0,1.62-.67l1.85-1.38c0.38,0.17.76,0.35,1.12,0.54a6.26,6.26,0,0,1,1.18.81,5.53,5.53,0,0,0-.87,3.59,2.59,2.59,0,0,0,1.22,1.24,7.07,7.07,0,0,0,1.64.81v0.07A6,6,0,0,1,1414.46,1390.4Z" transform="translate(-942.93 -1240.68)"/><path class="cls-1" d="M1411.26,1385.63l-2.65-2a0.45,0.45,0,0,0-.58,0,2.8,2.8,0,0,0-2,1c-0.61.56-1.6,1.13-1.5,2a5.6,5.6,0,0,0,.85,2.31,2.4,2.4,0,0,0,2,1.16,11.88,11.88,0,0,0,1.34,0,3,3,0,0,0,1.32-.12,2.27,2.27,0,0,0,.77-1c0.24-.42.46-0.86,0.66-1.3a3,3,0,0,0,.46-1.25A1.17,1.17,0,0,0,1411.26,1385.63Zm-4.73-.15,1-.64a16.23,16.23,0,0,1-1.63,1.09c-0.4.22-.25,0.12-0.08,0Zm0,2.38,1.29-1,0.13-.09-0.38.39-1.24.93Zm1.54-3.38a0.23,0.23,0,0,0,0-.11h0.13Zm-2.21,2.05,0.27-.11-0.24.18Zm-0.21,1.27h0Zm4.71-1.77-0.13.1a1.92,1.92,0,0,0,.08-0.24,0.28,0.28,0,0,0,0-.05l0.18,0.14A0.32,0.32,0,0,0,1410.33,1386Zm-1.3-1.16-0.15.09,0.1-.12,0,0h0Zm2,1.59a0.25,0.25,0,0,0-.17.08l0,0a0.23,0.23,0,0,0-.05-0.17l0.05-.08a0.26,0.26,0,0,0,0-.11A0.49,0.49,0,0,1,1411,1386.46Zm-1.47,3h0l0.53-.65A1.23,1.23,0,0,1,1409.51,1389.41Z" transform="translate(-942.93 -1240.68)"/><path class="cls-1" d="M1524.84,1414.55a6.84,6.84,0,0,0-.45-3.14,2,2,0,0,0,.08-0.27,0.28,0.28,0,0,0-.35-0.32,6.73,6.73,0,0,0-1.2-1.67,0.41,0.41,0,0,0-.36-0.33l-0.1-.09a10.79,10.79,0,0,0-5.68-2.25,8.12,8.12,0,0,0-4.14.75,0.36,0.36,0,0,0-.27.13h0a7.84,7.84,0,0,0-4.06,4.17,7,7,0,0,0,1.57,7.28,9,9,0,0,0,7.48,2.61l0.24,0a0.38,0.38,0,0,0,.5-0.09,9.11,9.11,0,0,0,5-2.9,0.35,0.35,0,0,0,.42-0.53l0.18-.25a6.53,6.53,0,0,0,1-2.53A0.36,0.36,0,0,0,1524.84,1414.55Zm-0.76-.79,0,0-0.13.12,0.15-.35Q1524.07,1413.65,1524.08,1413.75Zm-2.19-1.15h0Zm1.62-1.27-0.38.39,0.32-.52Zm-1,1.91,0,0.08-0.05,0Zm1.22-.24-0.37.87-0.27-.15h0C1523.22,1413.54,1523.47,1413.24,1523.69,1413Zm-9-5,0.07-.07a2.38,2.38,0,0,0-.15.42l-0.17-.11Zm1.43,0.42q0.14-.23.26-0.47v0l0.56-.41-0.07.08a8.26,8.26,0,0,1-.8.91Zm-0.89.37-0.1-.07,0.18-.1Zm1,0.27-0.14.18-0.15,0A0.82,0.82,0,0,0,1516.18,1409.09Zm1-.24a0.21,0.21,0,0,0,0,.12l-0.26.16Zm1.65-1.12a0.21,0.21,0,0,0,0-.12l0.13,0Zm-2.72-.56h0a5.15,5.15,0,0,0-.32.54l-0.44.28,0-.06a4.55,4.55,0,0,0,.41-0.53,0.59,0.59,0,0,0,0-.22h0.24Zm-4.89,5.91,0,0-0.06.07Zm-2.18-1-0.06.08,0-.09h0Zm1.46,0.91,0.33-.32-0.06.09Zm-0.08-2.42,0.2-.31,0.05,0.09Zm-0.7,0h0.06l-0.31.42Q1509.55,1410.74,1509.68,1410.54Zm-0.84,2a0.3,0.3,0,0,0,.11.1l-0.17.2C1508.8,1412.72,1508.82,1412.62,1508.85,1412.52Zm-0.14,1a0.33,0.33,0,0,0,.15,0l0,0a0.7,0.7,0,0,0,.08.15l0.07,0.07a4.75,4.75,0,0,0-.33.45Q1508.69,1413.88,1508.7,1413.57Zm1.75,0.12h0l-0.09.05Zm0.56-.37a0.22,0.22,0,0,0,0,.06l-0.08.05Zm0.17,5.65a0.63,0.63,0,0,0,.52-0.11l-0.2.35Zm-0.7-.63,0,0v0Zm2.57,1.23a0.27,0.27,0,0,0-.14,0l0.21-.28C1513.1,1419.36,1513.08,1419.46,1513.05,1419.57Zm-1.08,0,0.16-.12-0.1.15Zm0.67,0.33,0,0,0,0Zm0.82-1.72a0.45,0.45,0,0,0-.14-0.19,0.58,0.58,0,0,1,.26.1Zm-0.6-.15-0.08.09a0.47,0.47,0,0,0,0-.14h0.1Zm-2,.71,0.05,0h0a0.22,0.22,0,0,0,0,.09Zm10.19-.49c0,0.19,0,.41,0,0.62l-0.24.15A1.73,1.73,0,0,1,1521,1418.21Zm-2.23.95c0,0.12,0,.24-0.06.36a2.11,2.11,0,0,1,0-.28Zm0.5,0.91,0,0.11-0.06,0Zm0.74-.39,0,0.17-0.05,0C1520,1419.81,1520.05,1419.75,1520.06,1419.68Zm0.46-1.66s0-.1,0-0.15h0.09Zm2.35-.47a10,10,0,0,0-1.75-.34,3.37,3.37,0,0,0-2,.16A4.28,4.28,0,0,0,1518,1419a7.91,7.91,0,0,0-.58,1.71,8.16,8.16,0,0,1-1.95,0l-0.72-2a2.11,2.11,0,0,0-.77-1.34,3.83,3.83,0,0,0-1.76-.17l-2.59.07a6.35,6.35,0,0,1-.76-1.74l2.09-1.34a3.1,3.1,0,0,0,1.39-1.32,1.89,1.89,0,0,0-.27-1.52l0.09-.19c0.09-.19-0.18-0.38-0.37-0.31-0.32-.57-0.66-1.12-1-1.68a7.45,7.45,0,0,1,.62-0.48,0.43,0.43,0,0,0,.22-0.09,6.94,6.94,0,0,1,.9-0.57l0.05,0,1.71,1.09a3.85,3.85,0,0,0,1.87.9,2.71,2.71,0,0,0,1.62-.67l1.85-1.38c0.38,0.17.76,0.35,1.12,0.54a6.26,6.26,0,0,1,1.18.81,5.53,5.53,0,0,0-.87,3.59,2.59,2.59,0,0,0,1.22,1.24,7.07,7.07,0,0,0,1.64.81V1415A6,6,0,0,1,1522.86,1417.55Z" transform="translate(-942.93 -1240.68)"/><path class="cls-1" d="M1519.65,1412.78l-2.65-2a0.45,0.45,0,0,0-.58,0,2.8,2.8,0,0,0-2,1c-0.61.56-1.6,1.13-1.5,2a5.6,5.6,0,0,0,.85,2.31,2.4,2.4,0,0,0,2,1.16,11.88,11.88,0,0,0,1.34,0,3,3,0,0,0,1.32-.12,2.27,2.27,0,0,0,.77-1c0.24-.42.46-0.86,0.66-1.3a3,3,0,0,0,.46-1.25A1.17,1.17,0,0,0,1519.65,1412.78Zm-4.73-.15,1-.64a16.23,16.23,0,0,1-1.63,1.09c-0.4.22-.25,0.12-0.08,0Zm0,2.38,1.29-1,0.13-.09-0.38.39-1.24.93Zm1.54-3.38a0.23,0.23,0,0,0,0-.11h0.13Zm-2.21,2.05,0.27-.11-0.24.18Zm-0.21,1.27h0Zm4.71-1.77-0.13.1a1.92,1.92,0,0,0,.08-0.24,0.28,0.28,0,0,0,0-.05l0.18,0.14A0.32,0.32,0,0,0,1518.73,1413.17Zm-1.3-1.16-0.15.09,0.1-.12,0,0h0Zm2,1.59a0.25,0.25,0,0,0-.17.08l0,0a0.23,0.23,0,0,0-.05-0.17l0.05-.08a0.26,0.26,0,0,0,0-.11A0.49,0.49,0,0,1,1519.38,1413.6Zm-1.47,3h0l0.53-.65A1.23,1.23,0,0,1,1517.9,1416.56Z" transform="translate(-942.93 -1240.68)"/><path class="cls-1" d="M1502,1339.28a9.64,9.64,0,0,0-1.4-4.24,2.88,2.88,0,0,0,0-.39,0.39,0.39,0,0,0-.56-0.35,9.47,9.47,0,0,0-2.08-2,0.57,0.57,0,0,0-.58-0.37l-0.16-.1a15.19,15.19,0,0,0-8.44-1.71,11.44,11.44,0,0,0-5.55,2.07,0.5,0.5,0,0,0-.34.25h0a11,11,0,0,0-4.59,6.8,9.92,9.92,0,0,0,4,9.71,12.73,12.73,0,0,0,11,1.76l0.33-.11a0.53,0.53,0,0,0,.67-0.25,12.83,12.83,0,0,0,6.26-5.28,0.5,0.5,0,0,0,.45-0.84l0.18-.39a9.19,9.19,0,0,0,.78-3.76A0.51,0.51,0,0,0,1502,1339.28Zm-1.26-.91,0,0-0.16.21,0.12-.52Zm-3.32-1v0h0Zm1.94-2.16c-0.15.21-.29,0.42-0.43,0.64l0.31-.8Zm-1,2.91,0,0.12-0.08,0Zm1.63-.64-0.29,1.3-0.41-.13h0C1499.55,1338.29,1499.83,1337.81,1500.07,1337.43Zm-13.78-4.66,0.08-.12a3.35,3.35,0,0,0-.11.62l-0.26-.11C1486.1,1333,1486.19,1332.91,1486.29,1332.77Zm2.08,0.23q0.14-.36.25-0.72v0q0.35-.35.68-0.71l-0.08.13a11.64,11.64,0,0,1-.88,1.47Zm-1.14.73-0.16-.08,0.23-.19C1487.28,1333.56,1487.26,1333.64,1487.24,1333.73Zm1.45,0.13-0.15.29-0.22,0A1.15,1.15,0,0,0,1488.69,1333.86Zm1.26-.57a0.29,0.29,0,0,0,.05.16,3.77,3.77,0,0,1-.33.29Zm2-2a0.29,0.29,0,0,0-.07-0.15l0.19,0Zm-3.91-.1h0a7.25,7.25,0,0,0-.3.83l-0.54.5,0-.09a6.41,6.41,0,0,0,.43-0.84,0.83,0.83,0,0,0,0-.32Zm-5.3,9.41,0-.05-0.07.11Zm-3.27-.85-0.06.12v-0.13h0Zm2.26,0.9,0.37-.53-0.06.14Zm-0.71-3.34,0.2-.47,0.09,0.11Zm-1,.14,0.08,0q-0.15.33-.32,0.65Q1479.9,1337.8,1480,1337.49Zm-0.67,3a0.42,0.42,0,0,0,.18.11l-0.19.31C1479.36,1340.73,1479.36,1340.59,1479.37,1340.45Zm0.07,1.49a0.47,0.47,0,0,0,.2-0.09l0,0a1,1,0,0,0,.15.18,0.41,0.41,0,0,0,.11.08,6.69,6.69,0,0,0-.35.71Q1479.49,1342.37,1479.44,1341.94Zm2.45-.26h0l-0.11.1Zm0.68-.66a0.3,0.3,0,0,0,0,.09l-0.1.09Zm1.65,7.79a0.89,0.89,0,0,0,.69-0.29l-0.19.54Zm-1.13-.7,0,0v0.06Zm3.87,1.06a0.38,0.38,0,0,0-.2,0l0.23-.44C1487,1348.87,1487,1349,1487,1349.17Zm-1.51.2,0.19-.2-0.11.24Zm1,0.3,0,0.05-0.06,0Zm0.71-2.59a0.64,0.64,0,0,0-.24-0.23,0.82,0.82,0,0,1,.39.08Zm-0.87-.06-0.09.14a0.66,0.66,0,0,0,0-.2l0.14,0Zm-2.61,1.49,0.07,0h0a0.31,0.31,0,0,0,.05.12Zm14-3.21c0.11,0.26.11,0.57,0.2,0.85l-0.3.27A2.43,2.43,0,0,1,1497.7,1345.3Zm-2.85,1.87c0,0.17,0,.34,0,0.51a3,3,0,0,1,0-.39Zm0.92,1.13,0.08,0.15-0.08.05Q1495.77,1348.4,1495.77,1348.31Zm0.93-.72,0.09,0.23-0.07,0C1496.71,1347.77,1496.7,1347.67,1496.7,1347.58Zm0.22-2.42,0-.2H1497A1.62,1.62,0,0,0,1496.92,1345.16Zm3.13-1.24a14,14,0,0,0-2.51,0c-0.76.06-2.19,0.12-2.74,0.72a6,6,0,0,0-1.1,2.5,11.14,11.14,0,0,0-.37,2.51,11.5,11.5,0,0,1-2.69.52l-1.48-2.55c-0.32-.55-0.66-1.47-1.41-1.66a5.4,5.4,0,0,0-2.48.2l-3.57.74a9,9,0,0,1-1.48-2.23l2.56-2.38a4.37,4.37,0,0,0,1.6-2.18,2.66,2.66,0,0,0-.75-2l0.08-.29c0.07-.29-0.34-0.48-0.59-0.34-0.58-.7-1.19-1.39-1.79-2.09a10.5,10.5,0,0,1,.73-0.82,0.6,0.6,0,0,0,.29-0.18,9.77,9.77,0,0,1,1.11-1l0.07,0,2.64,1.09c0.81,0.33,1.86,1,2.81.78a3.82,3.82,0,0,0,2.08-1.33c0.75-.79,1.48-1.58,2.22-2.37,0.57,0.13,1.14.3,1.69,0.47a8.82,8.82,0,0,1,1.84.83,7.79,7.79,0,0,0-.31,5.2,3.65,3.65,0,0,0,2,1.42,10,10,0,0,0,2.48.72s0,0.07,0,.1A8.49,8.49,0,0,1,1500.05,1343.93Z" transform="translate(-942.93 -1240.68)"/><path class="cls-1" d="M1494.42,1338.11l-4.18-2.14a0.63,0.63,0,0,0-.8.2,4,4,0,0,0-2.54,1.88c-0.71.93-1.94,2-1.59,3.16a7.89,7.89,0,0,0,1.76,3,3.38,3.38,0,0,0,3,1.12,16.73,16.73,0,0,0,1.86-.3,4.18,4.18,0,0,0,1.79-.5,3.2,3.2,0,0,0,.82-1.55c0.23-.65.42-1.3,0.59-2a4.27,4.27,0,0,0,.33-1.85A1.65,1.65,0,0,0,1494.42,1338.11Zm-6.6,1c0.41-.39.83-0.77,1.25-1.14a22.86,22.86,0,0,1-2,1.91c-0.49.41-.32,0.23-0.11,0Zm0.56,3.3,1.55-1.65,0.16-.16-0.42.64-1.48,1.59C1488.23,1342.66,1488.3,1342.52,1488.37,1342.38Zm1.3-5.08a0.33,0.33,0,0,0,0-.15h0.06l0.12,0Zm-2.55,3.4a3.15,3.15,0,0,0,.34-0.22l-0.29.31Zm0,1.81v0h0Zm6.08-3.62-0.15.17a2.71,2.71,0,0,0,0-.36,0.4,0.4,0,0,0,0-.08l0.29,0.15A0.45,0.45,0,0,0,1493.23,1338.89Zm-2.09-1.28-0.18.16,0.11-.2,0.08,0h0Zm3.1,1.72a0.36,0.36,0,0,0-.21.16l0,0.07a0.32,0.32,0,0,0-.11-0.22l0.05-.12a0.36,0.36,0,0,0,0-.16A0.69,0.69,0,0,1,1494.24,1339.33Zm-1.31,4.47-0.06,0,0.57-1A1.74,1.74,0,0,1,1492.94,1343.79Z" transform="translate(-942.93 -1240.68)"/><path class="cls-1" d="M1484.69,1394.5a14.72,14.72,0,0,0-1-6.75,4.4,4.4,0,0,0,.17-0.58,0.6,0.6,0,0,0-.74-0.68,14.47,14.47,0,0,0-2.59-3.6,0.87,0.87,0,0,0-.76-0.72l-0.22-.19a23.2,23.2,0,0,0-12.22-4.85,17.47,17.47,0,0,0-8.9,1.61,0.77,0.77,0,0,0-.58.28h0a16.87,16.87,0,0,0-8.73,9c-2.1,5.29-.57,11.42,3.37,15.67a19.45,19.45,0,0,0,16.1,5.62l0.52-.07a0.81,0.81,0,0,0,1.08-.19,19.59,19.59,0,0,0,10.84-6.24,0.76,0.76,0,0,0,.91-1.13l0.38-.54a14,14,0,0,0,2.19-5.45A0.78,0.78,0,0,0,1484.69,1394.5Zm-1.64-1.71,0,0-0.29.27,0.31-.75Q1483,1392.57,1483.05,1392.79Zm-4.71-2.47,0,0v0h0Zm3.49-2.72c-0.28.27-.55,0.55-0.82,0.84l0.69-1.12Zm-2.24,4.11-0.1.17-0.11-.08Zm2.62-.52-0.79,1.88-0.58-.31h0C1481.2,1392.34,1481.75,1391.7,1482.22,1391.2Zm-19.46-10.73,0.16-.15a5.12,5.12,0,0,0-.33.91l-0.36-.23C1462.41,1380.83,1462.58,1380.65,1462.77,1380.46Zm3.07,0.91q0.3-.5.57-1l0,0q0.62-.43,1.21-0.88l-0.16.18a17.78,17.78,0,0,1-1.72,2Zm-1.91.79-0.22-.16,0.39-.22Zm2.15,0.59-0.3.39-0.32-.1A1.76,1.76,0,0,0,1466.07,1382.75Zm2.05-.52a0.45,0.45,0,0,0,0,.25,5.76,5.76,0,0,1-.57.35Zm3.55-2.41a0.45,0.45,0,0,0-.06-0.25l0.27,0.09Zm-5.85-1.21h0.07a11.07,11.07,0,0,0-.68,1.17l-0.95.6,0.07-.12a9.79,9.79,0,0,0,.87-1.14,1.26,1.26,0,0,0,.11-0.48Zm-10.52,12.72,0.08-.07-0.13.14Zm-4.69-2.16-0.12.17,0.05-.19Zm3.15,2,0.71-.69-0.12.19Zm-0.16-5.21,0.43-.66,0.11,0.19Zm-1.51-.06h0.13q-0.32.45-.66,0.89Q1451.8,1386.3,1452.09,1385.87Zm-1.8,4.27a0.64,0.64,0,0,0,.24.22l-0.37.42C1450.2,1390.57,1450.24,1390.35,1450.28,1390.14Zm-0.3,2.26a0.71,0.71,0,0,0,.33-0.08l0.07,0a1.51,1.51,0,0,0,.17.31,0.62,0.62,0,0,0,.14.14,10.22,10.22,0,0,0-.72,1Q1449.95,1393.05,1450,1392.4Zm3.76,0.27,0,0-0.2.11Zm1.21-.81a0.46,0.46,0,0,0,0,.13l-0.18.11Zm0.37,12.16a1.36,1.36,0,0,0,1.11-.25l-0.44.76Zm-1.51-1.36,0.07,0,0,0.09Zm5.54,2.64a0.59,0.59,0,0,0-.3-0.07l0.46-.6C1459.44,1404.85,1459.38,1405.08,1459.34,1405.3Zm-2.33-.1,0.35-.26-0.22.33Zm1.43,0.72,0,0.09-0.08,0Zm1.77-3.7a1,1,0,0,0-.3-0.41,1.25,1.25,0,0,1,.56.22Zm-1.28-.33-0.18.19a1,1,0,0,0,.07-0.3H1459Zm-4.32,1.53,0.12,0h0a0.48,0.48,0,0,0,0,.19Zm21.92-1c0.09,0.42,0,.88.07,1.33-0.17.12-.34,0.23-0.52,0.33A3.72,3.72,0,0,1,1476.53,1402.38Zm-4.79,2c0,0.26-.08.52-0.12,0.77a4.55,4.55,0,0,1,0-.6Zm1.08,2,0.09,0.24-0.14.05Zm1.59-.84c0,0.12,0,.24.07,0.37l-0.11.06C1474.37,1405.82,1474.39,1405.68,1474.4,1405.54Zm1-3.57c0-.1,0-0.21,0-0.31l0.2,0A2.47,2.47,0,0,0,1475.39,1402Zm5-1a21.43,21.43,0,0,0-3.76-.72c-1.16-.12-3.33-0.41-4.31.34A9.22,9.22,0,0,0,1470,1404a17,17,0,0,0-1.24,3.68,17.56,17.56,0,0,1-4.19.06l-1.54-4.23c-0.33-.91-0.6-2.39-1.67-2.88a8.24,8.24,0,0,0-3.79-.36l-5.56.15a13.67,13.67,0,0,1-1.63-3.75l4.49-2.89c1.25-.8,2.45-1.49,3-2.84a4.07,4.07,0,0,0-.58-3.26l0.2-.42c0.19-.41-0.38-0.82-0.79-0.67-0.69-1.22-1.42-2.42-2.13-3.62a16,16,0,0,1,1.32-1,0.92,0.92,0,0,0,.48-0.19,14.92,14.92,0,0,1,1.94-1.23l0.12-.06,3.67,2.35c1.13,0.72,2.53,2,4,1.94a5.84,5.84,0,0,0,3.48-1.44c1.33-1,2.65-2,4-3,0.83,0.36,1.63.75,2.41,1.16a13.47,13.47,0,0,1,2.54,1.75c-1.3,2.31-2.4,5.22-1.87,7.73,0.25,1.16,1.66,2,2.62,2.67a15.22,15.22,0,0,0,3.54,1.75l0,0.15A13,13,0,0,1,1480.44,1401Z" transform="translate(-942.93 -1240.68)"/><path class="cls-1" d="M1473.53,1390.69l-5.71-4.35a1,1,0,0,0-1.25.08c-1.8-.12-3.14,1.06-4.33,2.15s-3.45,2.44-3.24,4.33a12.05,12.05,0,0,0,1.83,5,5.16,5.16,0,0,0,4.2,2.49,25.55,25.55,0,0,0,2.88.05,6.38,6.38,0,0,0,2.83-.27,4.89,4.89,0,0,0,1.65-2.11c0.53-.91,1-1.84,1.42-2.79a6.53,6.53,0,0,0,1-2.7A2.52,2.52,0,0,0,1473.53,1390.69Zm-10.19-.33c0.72-.47,1.46-0.93,2.19-1.38a34.91,34.91,0,0,1-3.5,2.34c-0.85.48-.54,0.26-0.18,0Zm0,5.11,2.77-2.07,0.28-.19-0.81.84-2.66,2C1463,1395.85,1463.15,1395.66,1463.3,1395.47Zm3.32-7.28a0.5,0.5,0,0,0,0-.23h0.27Zm-4.75,4.42a4.81,4.81,0,0,0,.57-0.24l-0.52.39Zm-0.45,2.73,0,0v0h0Zm10.12-3.8-0.27.21a4.13,4.13,0,0,0,.16-0.53,0.61,0.61,0,0,0,0-.12l0.4,0.3A0.69,0.69,0,0,0,1471.54,1391.54Zm-2.79-2.49-0.32.18,0.21-.27,0.11,0.08h0Zm4.2,3.42a0.54,0.54,0,0,0-.36.18l-0.09.09a0.49,0.49,0,0,0-.11-0.37l0.11-.17a0.55,0.55,0,0,0,.08-0.24A1.06,1.06,0,0,1,1472.94,1392.47Zm-3.17,6.36-0.1,0,1.14-1.39A2.65,2.65,0,0,1,1469.77,1398.83Z" transform="translate(-942.93 -1240.68)"/><path class="cls-1" d="M1424.81,1422.93a8.13,8.13,0,0,0-.53-3.73,2.43,2.43,0,0,0,.1-0.32,0.33,0.33,0,0,0-.41-0.38,8,8,0,0,0-1.43-2,0.48,0.48,0,0,0-.42-0.4L1422,1416a12.82,12.82,0,0,0-6.75-2.68,9.66,9.66,0,0,0-4.92.89,0.42,0.42,0,0,0-.32.15h0a9.32,9.32,0,0,0-4.82,5A8.37,8.37,0,0,0,1407,1428a10.75,10.75,0,0,0,8.9,3.11l0.29,0a0.45,0.45,0,0,0,.6-0.1,10.83,10.83,0,0,0,6-3.45,0.42,0.42,0,0,0,.5-0.63l0.21-.3a7.76,7.76,0,0,0,1.21-3A0.43,0.43,0,0,0,1424.81,1422.93Zm-0.91-.94,0,0-0.16.15,0.17-.41Q1423.9,1421.86,1423.91,1422Zm-2.6-1.36v0h0Zm1.93-1.51-0.45.46,0.38-.62Zm-1.24,2.27-0.06.09-0.06,0Zm1.45-.29-0.44,1-0.32-.17h0C1422.88,1421.73,1423.19,1421.38,1423.45,1421.1Zm-10.75-5.93,0.09-.08a2.83,2.83,0,0,0-.18.5l-0.2-.13Zm1.69,0.5q0.17-.28.32-0.56v0l0.67-.49-0.09.1a9.83,9.83,0,0,1-1,1.09Zm-1.05.44-0.12-.09,0.22-.12Zm1.19,0.32-0.17.22-0.18-.06A1,1,0,0,0,1414.52,1416.43Zm1.13-.28a0.25,0.25,0,0,0,0,.14l-0.31.2Zm2-1.33a0.25,0.25,0,0,0,0-.14l0.15,0.05Zm-3.24-.67h0a6.12,6.12,0,0,0-.38.64l-0.52.33,0-.07a5.41,5.41,0,0,0,.48-0.63,0.7,0.7,0,0,0,.06-0.27h0.28Zm-5.81,7,0,0-0.07.08ZM1406,1420l-0.07.09,0-.1h0Zm1.74,1.08,0.39-.38-0.07.1Zm-0.09-2.88,0.24-.36,0.06,0.1Zm-0.83,0h0.07l-0.37.49Q1406.64,1418.4,1406.79,1418.16Zm-1,2.36a0.36,0.36,0,0,0,.13.12l-0.2.23C1405.75,1420.75,1405.77,1420.63,1405.8,1420.52Zm-0.17,1.25a0.39,0.39,0,0,0,.18,0l0,0a0.84,0.84,0,0,0,.09.17L1406,1422a5.65,5.65,0,0,0-.4.54Q1405.61,1422.13,1405.63,1421.76Zm2.08,0.15h0l-0.11.06Zm0.67-.45a0.26,0.26,0,0,0,0,.07l-0.1.06Zm0.2,6.72a0.75,0.75,0,0,0,.61-0.14l-0.24.42Zm-0.84-.75,0,0v0.05Zm3.06,1.46a0.32,0.32,0,0,0-.17,0l0.25-.33C1410.86,1428.65,1410.83,1428.77,1410.8,1428.9Zm-1.29-.06,0.19-.14-0.12.18Zm0.79,0.4,0,0,0,0Zm1-2a0.54,0.54,0,0,0-.16-0.23,0.69,0.69,0,0,1,.31.12Zm-0.71-.18-0.1.11a0.56,0.56,0,0,0,0-.16h0.12Zm-2.39.85,0.06,0h0a0.26,0.26,0,0,0,0,.11Zm12.11-.58c0,0.23,0,.49,0,0.73l-0.29.18A2.05,2.05,0,0,1,1420.3,1427.28Zm-2.65,1.13c0,0.14,0,.28-0.07.43a2.51,2.51,0,0,1,0-.33Zm0.6,1.08,0,0.13-0.08,0Zm0.88-.46,0,0.2-0.06,0C1419.11,1429.18,1419.12,1429.1,1419.13,1429Zm0.55-2c0-.06,0-0.12,0-0.17h0.11Zm2.79-.56a11.84,11.84,0,0,0-2.08-.4,4,4,0,0,0-2.38.19,5.09,5.09,0,0,0-1.29,1.92,9.4,9.4,0,0,0-.69,2,9.71,9.71,0,0,1-2.31,0l-0.85-2.34a2.51,2.51,0,0,0-.92-1.59,4.56,4.56,0,0,0-2.09-.2l-3.07.08a7.55,7.55,0,0,1-.9-2.07l2.48-1.6A3.69,3.69,0,0,0,1410,1421a2.25,2.25,0,0,0-.32-1.8l0.11-.23c0.1-.23-0.21-0.45-0.44-0.37-0.38-.67-0.78-1.34-1.18-2a8.86,8.86,0,0,1,.73-0.58,0.51,0.51,0,0,0,.27-0.1,8.25,8.25,0,0,1,1.07-.68l0.06,0,2,1.3a4.57,4.57,0,0,0,2.22,1.07,3.23,3.23,0,0,0,1.92-.8l2.2-1.64c0.46,0.2.9,0.42,1.33,0.64a7.44,7.44,0,0,1,1.4,1,6.58,6.58,0,0,0-1,4.27,3.08,3.08,0,0,0,1.45,1.48,8.41,8.41,0,0,0,2,1v0.08A7.17,7.17,0,0,1,1422.46,1426.49Z" transform="translate(-942.93 -1240.68)"/><path class="cls-1" d="M1418.65,1420.82l-3.15-2.41a0.53,0.53,0,0,0-.69,0,3.33,3.33,0,0,0-2.39,1.19c-0.73.67-1.9,1.35-1.79,2.39a6.66,6.66,0,0,0,1,2.74,2.85,2.85,0,0,0,2.32,1.38,14.12,14.12,0,0,0,1.59,0,3.52,3.52,0,0,0,1.56-.15,2.7,2.7,0,0,0,.91-1.16c0.29-.5.54-1,0.79-1.54a3.61,3.61,0,0,0,.55-1.49A1.39,1.39,0,0,0,1418.65,1420.82Zm-5.63-.18,1.21-.76a19.29,19.29,0,0,1-1.94,1.29c-0.47.26-.3,0.15-0.1,0Zm0,2.82,1.53-1.14,0.15-.11-0.45.47-1.47,1.1Zm1.84-4a0.28,0.28,0,0,0,0-.13H1415Zm-2.63,2.44,0.32-.13-0.29.22Zm-0.25,1.51v0h0Zm5.59-2.1-0.15.12a2.28,2.28,0,0,0,.09-0.29,0.34,0.34,0,0,0,0-.07l0.22,0.17A0.38,0.38,0,0,0,1417.54,1421.29Zm-1.54-1.38-0.18.1,0.12-.15,0.06,0h0Zm2.32,1.89a0.3,0.3,0,0,0-.2.1l0,0.05a0.27,0.27,0,0,0-.06-0.2l0.06-.09a0.31,0.31,0,0,0,0-.13A0.58,0.58,0,0,1,1418.32,1421.8Zm-1.75,3.52h-0.06l0.63-.77A1.46,1.46,0,0,1,1416.57,1425.32Z" transform="translate(-942.93 -1240.68)"/><path class="cls-1" d="M1476.21,1367a25.81,25.81,0,0,0-20.06,8.75c-1,1.1.17,2.36,1.2,1.24a24.23,24.23,0,0,1,18-8c0.94,0,2.12-1.9.84-1.94h0Z" transform="translate(-942.93 -1240.68)"/><path class="cls-1" d="M1484.75,1383.95a110.86,110.86,0,0,0,11.1-4.61c1.08-.47,1.29-2.53-0.15-1.9a121.15,121.15,0,0,0-11.29,5.1c-0.77.43-.75,1.75,0.34,1.42h0Z" transform="translate(-942.93 -1240.68)"/><path class="cls-1" d="M1487,1403.69c4.29-3.58,8.52-6.45,13.9-8.16,1.16-.37,1.37-2.42-0.15-1.94-5.45,1.73-10.95,4.69-14.76,9-0.84,1,0,1.88,1,1.05h0Z" transform="translate(-942.93 -1240.68)"/><path class="cls-1" d="M1514.11,1405.83c4-.85,8-1.83,12-2.82,0.94-.23,1.64-2.17.35-1.86-4.1,1-8.19,2-12.26,3.07-0.75.21-1.18,1.83-.09,1.6h0Z" transform="translate(-942.93 -1240.68)"/><path class="cls-1" d="M1527.11,1410.75c2.42-.52,4.82-1.29,7.2-2,1-.27,1.12-1.94-0.13-1.58-2.33.68-4.71,1.28-7,2.09-0.63.22-1.1,1.67-.09,1.45h0Z" transform="translate(-942.93 -1240.68)"/><path class="cls-1" d="M1420.68,1377.89a14.86,14.86,0,0,1,12.37-2.39c1.12,0.27,2.4-1.88,1-2.23a15.93,15.93,0,0,0-14.17,3.36c-0.83.69-.16,2,0.83,1.27h0Z" transform="translate(-942.93 -1240.68)"/><path class="cls-1" d="M1422.38,1389.1c1.34-.31,2.67-0.64,4-1a1.21,1.21,0,0,0,.94-0.9,0.54,0.54,0,0,0-.64-0.66c-1.34.31-2.67,0.64-4,1a1.22,1.22,0,0,0-.94.9,0.54,0.54,0,0,0,.64.66h0Z" transform="translate(-942.93 -1240.68)"/></svg>