<svg id="Layer_1" data-name="Layer 1" xmlns="http://www.w3.org/2000/svg" viewBox="0 0 746.43 269.11"><defs><style>.cls-1{fill:#333;}.cls-2,.cls-3,.cls-4{fill:none;stroke:#333;}.cls-2{stroke-linecap:round;stroke-linejoin:round;stroke-width:1.25px;}.cls-3,.cls-4{stroke-miterlimit:10;}.cls-3{stroke-width:3px;}</style></defs><title>goles_zona</title><path class="cls-1" d="M214.86,1623.94A1553.21,1553.21,0,0,1,627,1605.16q58.58,5.15,116.65,14.75c2.17,0.36,3.1-3,.92-3.32a1555,1555,0,0,0-415.19-12.42q-58,6.06-115.4,16.45c-2.18.39-1.26,3.72,0.92,3.32h0Z" transform="translate(-97.19 -1354.86)"/><polyline class="cls-2" points="143.26 209.89 144.06 209.44 143.55 211.8 148.91 208.7 143.84 213.68 153.7 207.98 144.22 216.22 158.46 208 144.53 218.25 158.76 210.03 146.42 219.12 159.03 211.84 149.79 219.93 159.41 214.37 150.06 221.71 159.68 216.16 150.48 224.49 160.09 218.94 150.85 226.91 160.45 221.36 151.13 228.79 160.73 223.25 151.41 230.67 161.01 225.13 151.64 233.85 161.46 228.18 150.89 236.55 161.71 230.31"/><polyline class="cls-2" points="138.71 188.28 150.59 181.41 143.28 188.84 152.55 183.49 144.53 190.06 153.44 184.92 145.49 191.99 154.44 186.83 146.02 194.33 155.27 188.99 146.38 196.79 155.85 191.32 146.73 199.11 156.32 193.57 148.14 201.34 156.75 196.37 154.51 200.38 157.13 198.86"/><polyline class="cls-2" points="128.31 182.35 133.33 179.46 124.93 187.21 140.61 178.16 123.89 191.09 145.36 178.69 123.75 193.37 147.76 179.51 123.86 196.39 150.31 181.12 124.03 198.22 134.75 192.03 124.34 200.34 134.59 194.42 124.72 202.84 134.86 196.98 125.04 205.05 135.19 199.19 125.41 207.5 135.56 201.65 125.71 209.52 135.86 203.66 126 211.51 136.15 205.65 126.3 213.5 136.45 207.64 126.74 216.44 136.89 210.58 127 218.22 137.15 212.36 127.37 220.72 137.52 214.86 127.7 222.9 137.85 217.04 128.01 225 138.16 219.14 128.38 227.48 138.53 221.62 128.69 229.59 138.84 223.73 129.06 232.03 139.2 226.17 129.38 234.13 139.52 228.28 130.01 237.05 139.97 231.3 130.61 238.95 140.3 233.36 131.25 240.61 140.71 235.15 132.03 242.07 141.4 236.66 133.06 243.75 142.74 238.16 134.43 245.22 145.18 239.01 136.72 247.02 161.91 232.48 139.54 248.31 161.8 235.46 142.86 248.98 161.28 238.35 149 248.67 159.19 242.78"/><polyline class="cls-2" points="178.16 182.85 190.27 175.85 182.67 183.44 192.27 177.9 183.93 184.66 193.21 179.3 184.89 186.59 194.29 181.16 185.39 188.95 195.09 183.34 185.7 191.43 195.72 185.65 185.99 193.79 196.16 187.92 186.35 196.63 196.53 190.75 186.66 199.16 196.85 193.28 186.89 200.96 197.08 195.08 187.13 202.93 197.32 197.05 187.38 204.9 197.57 199.01 187.7 207.44 197.89 201.56 188.02 209.99 198.21 204.11 188.24 211.79 198.43 205.91 188.47 213.59 198.66 207.71 188.81 216.38 199 210.49 189.14 218.96 199.33 213.07 189.41 221.15 199.6 215.26 189.68 223.28 199.87 217.4 189.95 225.43 200.13 219.54 190.13 228.17 200.47 222.21 188.96 231.95 200.78 225.13"/><polyline class="cls-2" points="167.79 177.06 173.03 174.03 164.39 181.91 180.16 172.81 163.32 185.81 185.02 173.28 163.15 188.12 187.39 174.12 163.24 191.14 175.66 183.98 163.4 192.98 174.09 186.81 163.67 195.12 173.94 189.19 163.98 197.66 174.17 191.77 164.26 199.9 174.45 194.01 164.57 202.38 174.76 196.5 164.83 204.42 175.02 198.54 165.08 206.44 175.27 200.56 165.33 208.46 175.52 202.57 165.71 211.43 175.89 205.55 165.93 213.24 176.12 207.35 166.25 215.77 176.44 209.89 166.52 217.97 176.71 212.09 166.79 220.1 176.98 214.22 167.1 222.61 177.29 216.73 167.37 224.75 177.56 218.86 167.68 227.22 177.87 221.34 168.01 229.31 178.13 223.47 168.6 232.26 178.52 226.53 169.28 234.11 178.85 228.59 169.94 235.76 179.32 230.34 170.8 237.18 180.07 231.82 171.93 238.79 181.59 233.22 173.33 240.25 184.42 233.85 175.77 241.96 200.92 227.44 178.77 243.16 200.73 230.48 182.27 243.72 200.09 233.43 188.91 243.11 197.58 238.11"/><polyline class="cls-2" points="202.41 171.07 203.14 170.65 202.69 173.81 209.29 170 203.01 176.9 213.36 170.93 203.23 178.98 213.57 173.01 203.53 181.9 213.87 175.92 203.72 183.71 214.06 177.74 203.94 185.88 214.29 179.91 204.2 188.44 214.55 182.47 204.44 190.71 214.79 184.74 204.7 193.23 215.05 187.25 204.91 195.29 215.26 189.31 205.12 197.33 215.47 191.36 205.33 199.37 215.69 193.4 205.64 202.39 216 196.41 205.83 204.21 216.19 198.23 206.09 206.77 216.45 200.79 206.32 209 216.68 203.02 206.55 211.16 216.91 205.17 206.81 213.69 217.17 207.71 207.03 215.86 217.39 209.88 207.29 218.36 217.65 212.38 207.51 220.52 217.88 214.54 207.83 223.62 218.2 217.63 208.05 225.74 218.42 219.76 208.25 227.65 218.62 221.67 208.44 229.46 218.8 223.47 208.66 231.6 219.03 225.61 208.88 233.74 219.25 227.75 209.18 236.68 223.01 228.7 209.47 239.44 229.21 228.05 213.58 239.66 234.68 227.47 220.39 238.95 237.49 229.08 225.84 238.38 237.75 231.5 230.5 237.89 237.97 233.59 236.15 237.31 238.23 236.1"/><polyline class="cls-2" points="251.9 205.47 265.62 197.55 256.1 205.12 265.79 199.52 260.24 204.77 265.95 201.47 265.46 204.33 266.16 203.92"/><polyline class="cls-2" points="249.49 176.18 266.93 166.11 255.98 175.63 267.19 169.16 259.92 175.3 267.35 171.01 264.95 174.88 267.55 173.38"/><polyline class="cls-2" points="237.11 167.57 237.81 167.17 237.34 170.34 243.68 166.68 237.6 173.47 250.31 166.13 237.77 175.57 254.77 165.76 238.01 178.52 261.02 165.24 238.16 180.36 264.91 164.91 238.34 182.55 248.79 176.52 238.56 185.14 249 179.11 238.75 187.44 249.19 181.4 238.96 189.98 249.41 183.95 239.13 192.07 249.58 186.03 239.3 194.14 249.76 188.1 239.47 196.2 249.93 190.16 239.72 199.25 250.18 193.2 239.87 201.09 250.34 195.05 240.08 203.68 254.66 195.27 240.27 205.94 259.45 194.87 240.45 208.12 264.07 194.48 240.66 210.69 265.52 196.33 240.84 212.87 251.28 206.84 241.04 215.41 251.49 209.38 241.22 217.59 251.68 211.56 241.48 220.72 251.94 214.69 241.66 222.87 252.12 216.83 241.82 224.81 252.28 218.77 241.97 226.63 252.43 220.59 242.15 228.8 252.61 222.75 242.32 230.96 252.79 224.91 242.57 233.94 257.07 225.56 242.84 236.71 263 225.07 248.07 236.27 268.25 224.63 254.6 235.73 271.83 225.78 259.82 235.3 272.04 228.24 264.28 234.92 272.22 230.34 269.69 234.47 272.44 232.89"/><polyline class="cls-2" points="276.03 213.31 276.7 212.92 276.16 215.3 280.74 212.66 276.3 217.27 284.71 212.41 276.63 219.85 286.43 214.19 276.99 221.84 286.56 216.31 277.48 223.52 286.74 218.17 278.38 225.75 287.33 220.59 279.13 227.26 288.17 222.04 280.76 229.34 290.75 223.57 282.58 230.92 308.85 215.75 284.27 231.99 308.84 217.8 286.29 232.87 308.72 219.92 290.67 233.65 307.92 223.68 294.8 233.54 306.56 226.75"/><polyline class="cls-2" points="289.17 172.6 300.96 165.79 293.71 173.18 302.92 167.86 294.94 174.41 303.89 169.25 295.82 176.39 304.85 171.18 296.22 178.8 305.58 173.4 296.39 181.37 306.15 175.73 300.36 181.6 306.45 178.09 306.03 181.24 306.7 180.85"/><polyline class="cls-2" points="279.06 166.47 283.98 163.64 275.76 171.28 290.86 162.57 274.71 175.16 295.6 163.1 274.42 177.54 297.97 163.94 274.4 180.63 300.6 165.51 274.59 182.45 285.53 176.13 274.88 184.58 285.25 178.59 275.53 186.92 285.5 181.16 276.28 188.89 286.03 183.26 277.29 190.97 286.96 185.39 278.27 192.59 287.99 186.98 279.4 194.1 289.19 188.46 280.62 195.56 290.49 189.86 282.61 197.61 292.63 191.82 283.9 198.79 293.99 192.97 285.8 200.41 295.94 194.56 287.49 201.8 297.62 195.95 289.12 203.14 299.22 197.31 291.02 204.73 301.02 198.96 292.54 206.15 302.43 200.44 294.15 207.87 303.93 202.22 295.39 209.44 305.1 203.83 296.8 211.91 306.52 206.3 297.53 213.74 307.31 208.09 297.85 215.58 307.87 209.8 298 217.4 308.32 211.44 297.74 219.82 308.63 213.53"/><polyline class="cls-2" points="341.86 204.48 361.58 193.09 345.72 204.32 360.78 195.63 349.93 203.93 359.14 198.61"/><polyline class="cls-2" points="340.98 170.89 354.78 162.92 346.68 170.8 357.22 164.72 348.8 171.52 358.33 166.01 350.25 173.17 359.56 167.79 350.89 175.44 360.53 169.88 351.09 177.99 361.18 172.16 351.16 180.47 361.63 174.43 351.25 183.47 361.9 177.32 351.33 186.14 361.99 179.98 351.36 188.05 362.05 181.88 351.19 190.26 362.11 183.96 350.22 192.75 362.17 185.85"/><polyline class="cls-2" points="329.08 161.72 329.73 161.34 329.17 164.57 335.02 161.19 329.26 167.79 341 161.01 329.32 169.96 345.02 160.89 329.41 172.99 349.78 161.23 329.47 174.88 352.19 161.77 329.53 177.14 340.2 170.99 329.61 179.81 340.28 173.65 329.68 182.18 340.36 176.01 329.76 184.8 340.44 178.63 329.82 186.94 340.51 180.77 329.89 189.08 340.58 182.9 329.95 191.2 340.65 185.02 330.04 194.34 340.75 188.16 330.1 196.24 340.81 190.06 330.18 198.91 340.89 192.72 330.24 201.23 341.76 194.58 330.31 203.48 345.93 194.46 330.39 206.12 362.15 187.78 330.45 208.38 362.07 190.12 330.53 210.99 341.19 204.83 330.6 213.23 341.27 207.07 330.69 216.46 341.37 210.3 330.76 218.67 341.44 212.51 330.81 220.67 341.5 214.5 330.87 222.54 341.56 216.37 330.94 224.78 341.63 218.6 331 227 341.7 220.82 331.09 230.07 341.8 223.89 334.74 230.89 341.89 226.76 339.51 230.73 341.97 229.3"/><polyline class="cls-2" points="382.16 169.42 394.12 162.51 386.69 170.01 396.25 164.49 387.98 171.2 397.27 165.84 388.9 173.16 398.3 167.73 389.28 175.58 399.16 169.88 389.34 178.21 399.72 172.22 389.36 180.72 400 174.58 389.38 183.76 400.18 177.53 389.4 186.46 400.19 180.23 389.41 188.38 400.21 182.15 389.42 190.49 400.22 184.26 389.44 192.59 400.24 186.35 389.45 195.31 400.25 189.08 389.47 198.03 400.27 191.8 389.49 199.95 400.28 193.72 389.5 201.88 400.3 195.64 389.52 204.85 400.32 198.62 389.54 207.6 400.34 201.37 389.55 209.95 400.35 203.71 389.57 212.23 400.37 206 389.53 214.55 400.38 208.28 388.93 217.75 400.4 211.13"/><polyline class="cls-2" points="372.21 163.21 376.93 160.49 368.67 168.15 383.76 159.44 367.47 172.12 388.47 160 367.17 174.5 391 160.74 367.02 177.67 393.81 162.21 367.03 179.59 378.27 173.1 367.05 181.88 377.89 175.62 367.07 184.59 377.86 178.35 367.08 186.98 377.88 180.74 367.1 189.63 377.9 183.4 367.12 191.81 377.91 185.58 367.13 193.97 377.93 187.74 367.14 196.12 377.94 189.89 367.17 199.3 377.96 193.07 367.18 201.23 377.98 194.99 367.2 203.93 378 197.7 367.21 206.28 378.01 200.05 367.23 208.56 378.03 202.32 367.25 211.24 378.04 205 367.28 213.51 378.06 207.28 367.47 216.05 378.08 209.93 367.78 218.16 378.09 212.21 368.54 221.01 378.24 215.41 369.35 222.79 378.68 217.4 370.22 224.31 379.51 218.95 371.23 225.64 380.81 220.11 372.7 227.06 383.6 220.77 374.42 228.33 400.4 213.33 377.48 229.68 400.19 216.57 381.24 230.44 399.52 219.89 385.63 230.5 398.17 223.25 390.5 229.57 395.22 226.85"/><polyline class="cls-2" points="419.26 201.61 439.26 190.06 422.79 201.65 437.31 193.26 425.48 202.14 434.54 196.9 427.77 203.58 436.62 198.47 428.76 205.21 437.89 199.94 429.23 206.9 438.73 201.42 429.51 209.49 439.56 203.69 429.56 211.41 439.97 205.4 429.5 214.46 440.32 208.22 429.46 217.11 440.39 210.8 429.43 219.18 440.37 212.86 429.39 221.25 440.34 214.93 429.39 224.55 440.28 218.26 429.51 226.76 440.25 220.56 429.77 228.52 440.23 222.48 431.35 230.2 440.24 225.06 435.03 230.25 440.46 227.11 440.54 230.32 441.21 229.93"/><polyline class="cls-2" points="419.88 170.21 433.78 162.19 425.2 170.34 436.43 163.86 427.46 170.98 437.63 165.11 429.02 172.57 438.85 166.9 429.79 174.77 439.78 169 430 177.31 440.41 171.3 429.98 179.84 440.76 173.62 429.93 182.92 440.87 176.6 429.78 185.72 440.83 179.34 429.34 187.9 440.8 181.29"/><polyline class="cls-2" points="408.48 160.51 409.09 160.16 408.43 163.44 413.97 160.24 408.37 166.75 419.49 160.33 408.33 168.97 423.2 160.39 408.28 172.09 428.1 160.65 408.25 174.03 430.62 161.12 408.21 176.35 433.17 161.94 408.17 179.09 419.12 172.77 408.13 181.52 419.09 175.19 408.08 184.21 419.05 177.88 408.05 186.42 419.02 180.08 408.01 188.6 418.99 182.26 407.97 190.79 418.96 184.44 407.92 194.01 418.92 187.66 407.89 195.96 418.89 189.61 407.84 198.7 419.92 191.73 407.8 201.09 424.02 191.72 407.76 203.39 440.62 184.42 407.72 206.1 440.13 187.39 407.68 208.42 418.63 202.1 407.64 211.1 418.59 204.78 407.6 213.41 418.56 207.08 407.55 216.72 418.51 210.39 407.51 218.99 418.48 212.66 407.47 221.04 418.45 214.7 407.44 222.97 418.42 216.63 407.4 225.26 418.39 218.92 407.37 227.55 418.35 221.2 408.79 229.84 418.31 224.35 413.77 229.9 418.26 227.3 417.62 229.94 418.23 229.58"/><polyline class="cls-2" points="464.88 161.82 465.47 161.48 464.74 164.81 470.11 161.7 464.57 168.18 475.36 161.95 464.46 170.44 478.89 162.11 467.91 171.54 483.83 162.35 471 171.68 486.91 162.49 474.68 171.85 490.59 162.66 479.03 172.06 494.94 162.87 482.88 172.24 495.8 164.78 482.99 174.84 495.67 167.52 481.57 177.84 495.56 169.77 480.16 180.82 495.45 172 478.75 183.8 494.43 174.75 476.68 188.19 492.36 179.14 475.42 190.85 491.1 181.79 473.65 194.58 489.33 185.53 472.12 197.83 487.79 188.78 470.63 200.97 486.31 191.92 468.88 204.67 484.56 195.62 467.39 207.82 483.07 198.77 465.66 211.48 481.34 202.43 464.17 214.62 479.85 205.57 462.04 219.14 477.72 210.08 460.98 222 476.25 213.18 460.88 224.08 474.93 215.97 460.79 226.04 473.69 218.6 460.68 228.38 472.32 221.66 460.56 230.71 475.94 221.83 465.03 231.25 480.94 222.06 469.72 231.47 485.64 222.28 473.86 231.67 489.78 222.47 479.02 231.91 492.96 223.86 483.15 232.1 492.84 226.51 486.69 232.27 492.74 228.78 490.96 232.47 492.61 231.52"/><polyline class="cls-2" points="516.96 173.62 528.72 166.83 521.3 174.32 530.88 168.79 522.69 175.46 531.9 170.14 523.57 177.44 533.02 171.98 523.85 179.92 533.81 174.17 523.74 182.65 534.33 176.53 523.55 185.28 534.63 178.88 523.33 188.46 534.62 181.94 523.13 191.28 534.45 184.74 522.98 193.29 534.31 186.75 522.83 195.5 534.16 188.96 522.67 197.7 534 191.16 522.47 200.54 533.8 194 522.27 203.4 533.6 196.85 522.13 205.4 533.46 198.86 521.99 207.42 533.31 200.88 521.77 210.53 533.09 203.99 521.56 213.41 532.89 206.87 521.39 215.86 532.72 209.32 521.22 218.25 532.55 211.71 520.84 220.77 532.38 214.1"/><polyline class="cls-2" points="506.75 167.41 511.45 164.7 503.38 172.26 518.1 163.76 502.07 176.29 522.87 164.28 501.74 178.69 525.32 165.07 501.41 181.96 528.17 166.51 501.27 183.97 512.99 177.2 501.1 186.36 512.45 179.81 500.9 189.19 512.23 182.65 500.72 191.7 512.05 185.16 500.53 194.48 511.86 187.94 500.37 196.75 511.69 190.21 500.21 199.01 511.54 192.47 500.05 201.27 511.38 194.73 499.81 204.59 511.14 198.05 499.67 206.61 511 200.07 499.47 209.44 510.8 202.9 499.3 211.9 510.63 205.36 499.13 214.28 510.46 207.74 498.99 217.05 510.26 210.54 498.99 219.34 510.09 212.93 499.26 221.84 509.89 215.7 499.64 223.91 509.76 218.06 500.63 226.62 510.06 221.18 501.65 228.28 510.86 222.96 502.69 229.71 512.25 224.19 503.93 230.9 514.39 224.86 505.67 232.16 532.19 216.86 507.69 233.26 531.97 219.25 511.25 234.33 531.45 222.67 515.54 234.78 530.23 226.3 521 234.22 527.4 230.52"/><polyline class="cls-2" points="568.95 169.1 569.52 168.77 568.75 171.3 572.62 169.06 568.54 173.46 575.67 169.34 568.27 176.39 578.61 170.42 568.05 178.71 578.38 172.75 567.85 180.79 578.19 174.82 567.58 183.7 577.91 177.73 567.38 185.75 577.72 179.79 567.08 188.95 577.42 182.98 566.82 191.73 577.15 185.76 566.62 193.89 576.95 187.93 566.41 196.05 576.75 190.09 566.08 199.55 576.42 193.58 565.86 201.96 576.19 195.99 565.67 203.98 576 198.01 565.41 206.72 575.74 200.75 565.19 209.01 575.52 203.05"/><polyline class="cls-2" points="552.18 186.7 560.21 182.06 552.68 189.62 560.71 184.98 552.98 191.38 561.01 186.74 553.37 193.65 561.39 189.01 553.78 196.05 561.8 191.42 554.19 198.47 562.22 193.84 554.58 200.77 562.61 196.14 555.06 203.55 563.08 198.91 555.48 206.01 563.5 201.38 555.78 207.77 563.8 203.14 556.11 209.7 564.13 205.06 556.44 211.61 564.46 206.98 556.86 214.1 564.88 209.47 557.29 216.59 575.22 206.24 557.59 218.34 575.03 208.27 557.89 220.1 574.84 210.31 558.35 222.82 574.54 213.47 558.78 225.33 574.26 216.4 559.15 227.47 574.02 218.88 559.5 229.56 573.8 221.31 559.86 231.65 573.57 223.74 560.3 234.25 573.28 226.76 560.79 237.11 572.97 230.09 564.42 238.3 572.64 233.56 568.57 238.68 572.36 236.49 571.59 238.97 572.16 238.63"/><polyline class="cls-2" points="544.09 166.74 544.66 166.41 543.79 169.81 548.98 166.82 543.47 173.28 553.87 167.27 543.25 175.61 557.15 167.58 542.93 178.87 558.17 170.08 542.74 180.91 558.47 171.83 542.51 183.34 558.83 173.92 542.24 186.22 559.25 176.4 542 188.76 559.62 178.58 541.73 191.58 560.03 181.01 541.51 193.89 551.93 187.87 541.29 196.18 551.71 190.16 541.08 198.47 551.5 192.45 540.75 201.84 551.18 195.83 540.56 203.89 550.99 197.87 540.29 206.76 550.72 200.74 540.05 209.26 550.48 203.24 539.82 211.67 550.25 205.65 539.55 214.52 549.98 208.5 539.32 216.94 549.75 210.92 539.05 219.75 549.49 213.73 538.83 222.17 549.26 216.15 538.5 225.65 548.93 219.62 538.27 228.03 548.71 222 538.07 230.17 548.51 224.14 537.87 232.19 548.32 226.16 537.65 234.59 548.09 228.56 539.27 235.92 547.87 230.96 543.93 236.35 547.55 234.26 546.79 236.61 547.36 236.28"/><polyline class="cls-2" points="590.5 228.41 613.59 215.09 593.49 228.76 613.67 217.11 596.44 229.1 613.75 219.11 600.43 229.57 613.86 221.81 603.41 230.05 613.95 223.97 603.47 231.98 614.03 225.88 603.56 234.68 614.13 228.57 603.63 236.58 614.21 230.47 603.72 239.54 614.33 233.42 603.81 242.12 614.43 235.99 605.86 242.99 614.51 237.99 608.81 243.33 614.6 239.99 613.58 243.88 614.73 243.22"/><polyline class="cls-2" points="602.04 185.09 612.14 179.26 602.13 188.24 612.27 182.39 602.19 190.15 612.35 184.29 602.26 192.59 612.44 186.72 602.34 195.19 612.55 189.3 602.42 197.81 612.65 191.9 602.5 200.29 612.75 194.37 602.59 203.29 612.87 197.35 602.67 205.95 612.98 200 602.72 207.85 613.06 201.88 602.78 209.93 613.14 203.95 602.85 212 613.22 206.01 602.93 214.69 613.33 208.68 603.01 217.37 613.44 211.35 603.07 219.26 613.51 213.23"/><polyline class="cls-2" points="595.97 172.09 596.61 171.72 594.98 175.56 600.78 172.21 593.86 179.48 605.51 172.76 593.1 182.12 608.68 173.13 592.05 185.82 611.95 174.33 591.39 188.12 612.03 176.21 590.61 190.87 612.12 178.45 589.68 194.12 601.19 187.48 588.86 197 600.41 190.33 587.95 200.19 599.55 193.49 587.2 202.81 598.84 196.09 586.46 205.4 598.14 198.66 585.72 207.99 597.44 201.22 584.63 211.81 596.41 205.01 583.97 214.12 595.79 207.3 583.04 217.37 594.91 210.52 582.24 220.2 594.15 213.33 581.46 222.93 593.41 216.03 580.54 226.15 592.58 219.2 579.76 228.9 595.88 219.59 578.85 232.08 599.71 220.03 578.07 234.81 603 220.42 576.95 238.74 589.07 231.74 579.03 239.79 588.35 234.41 581.97 240.12 587.7 236.81 584.74 240.43 587.09 239.07"/><path class="cls-3" d="M570.17,1501.54L586.9,1467s-101.9-32.71-218.57,0l15.79,34.5" transform="translate(-97.19 -1354.86)"/><path class="cls-3" d="M619.1,1506.88l25.46-81.14s-155-76.94-332.51,0l24,81.14" transform="translate(-97.19 -1354.86)"/><path class="cls-3" d="M419.67,1396.69c0-22.28,27.76-40.33,62-40.33s62,18.06,62,40.33" transform="translate(-97.19 -1354.86)"/><path class="cls-1" d="M801.72,1475.45A535.78,535.78,0,0,1,728.5,1511c-1.78.7-1,3.6,0.8,2.89A540.87,540.87,0,0,0,803.23,1478a1.5,1.5,0,0,0-1.51-2.59h0Z" transform="translate(-97.19 -1354.86)"/><path class="cls-1" d="M841.34,1512.57a484.79,484.79,0,0,1-74.95,30c-1.84.57-1.06,3.46,0.8,2.89a489.53,489.53,0,0,0,75.67-30.34c1.73-.87.21-3.45-1.51-2.59h0Z" transform="translate(-97.19 -1354.86)"/><path class="cls-1" d="M137.57,1478a540.87,540.87,0,0,0,73.93,35.84c1.8,0.71,2.58-2.19.8-2.89a535.78,535.78,0,0,1-73.22-35.54,1.5,1.5,0,0,0-1.51,2.59h0Z" transform="translate(-97.19 -1354.86)"/><path class="cls-1" d="M97.95,1515.16a489.53,489.53,0,0,0,75.67,30.34c1.85,0.57,2.64-2.33.8-2.89a484.79,484.79,0,0,1-74.95-30c-1.72-.86-3.24,1.72-1.51,2.59h0Z" transform="translate(-97.19 -1354.86)"/><circle class="cls-1" cx="384.28" cy="58.99" r="3.85"/><line class="cls-3" x1="164.09" y1="159.01" x2="97.46" y2="1.5"/><path class="cls-4" d="M253.12,1494.59s23.21-2.68,29.88,15.87" transform="translate(-97.19 -1354.86)"/><line class="cls-3" x1="589.79" y1="159.01" x2="656.41" y2="1.5"/><path class="cls-4" d="M695.13,1494.59s-23.21-2.68-29.88,15.87" transform="translate(-97.19 -1354.86)"/></svg>