<svg id="Layer_1" data-name="Layer 1" xmlns="http://www.w3.org/2000/svg" viewBox="0 0 806.73 285.95"><defs><style>.cls-1,.cls-3,.cls-4,.cls-5{fill:#333;}.cls-2{fill:none;stroke:#333;stroke-linecap:round;stroke-linejoin:round;stroke-width:1.2px;}.cls-3{font-size:25.04px;}.cls-3,.cls-4,.cls-5{font-family:Hand Of Sean (Demo);}.cls-4{font-size:25.04px;}.cls-5{font-size:15.82px;}</style></defs><title>incondicionales</title><path class="cls-1" d="M-54.43,763.07a1491.41,1491.41,0,0,1,733.26-6.42c2.08,0.51,3-2.7.88-3.21a1495.93,1495.93,0,0,0-735,6.42c-2.07.54-1.19,3.75,0.88,3.21h0Z" transform="translate(125.83 -477.18)"/><polyline class="cls-2" points="121.71 190.59 122.56 190.1 122.2 193.11 129.92 188.65 122.75 195.95 132.39 190.39 123.12 197.87 132.76 192.3 123.64 200.55 133.28 194.98 123.97 202.22 133.61 196.65 124.35 204.21 134 198.65 124.81 206.57 134.45 201 125.21 208.66 134.86 203.09 125.66 210.97 135.31 205.4 126.03 212.87 135.68 207.3 126.39 214.75 136.04 209.18 126.76 216.63 136.41 211.06 127.29 219.4 136.94 213.83 127.62 221.08 137.27 215.51 128.07 223.44 137.73 217.86 128.47 225.49 138.13 219.91 128.85 227.47 138.51 221.89 129.31 229.8 138.96 224.23 129.69 231.79 139.35 226.22 130.14 234.1 139.8 228.52 130.52 236.08 140.18 230.51 131.08 238.93 140.74 233.36 131.45 240.89 141.12 235.31 131.79 242.65 141.46 237.07 132.12 244.31 141.78 238.73 132.5 246.28 142.16 240.7 132.88 248.24 142.54 242.66 133.4 250.95 144.25 244.69 133.9 253.5 151.65 243.25 134.33 255.74 158.19 241.97 140.79 255.12 160.47 243.76 147.3 253.86 160.91 246 152.87 252.77 161.29 247.91 159.61 251.46 161.74 250.23"/><polyline class="cls-2" points="170.96 190.08 182.5 183.42 175.22 190.72 184.44 185.39 176.41 191.9 185.35 186.74 177.31 193.78 186.35 188.57 177.85 196.02 187.21 190.62 178.25 198.36 187.8 192.85 178.63 200.58 188.29 195 179.09 203.26 188.75 197.68 179.5 205.64 189.16 200.06 179.79 207.34 189.45 201.76 180.11 209.19 189.77 203.62 180.42 211.04 190.08 205.47 180.84 213.45 190.49 207.87 181.25 215.85 190.91 210.27 181.53 217.54 191.19 211.96 181.83 219.24 191.49 213.66 182.28 221.86 191.93 216.28 182.69 224.29 192.35 218.71 183.04 226.35 192.7 220.78 183.39 228.37 193.05 222.79 183.73 230.39 193.39 224.81 184.06 232.96 193.82 227.32 183.57 236.28 194.23 230.12"/><polyline class="cls-2" points="160.85 184.52 165.84 181.64 157.48 189.26 172.93 180.34 156.48 193.01 177.48 180.88 156.35 195.21 179.79 181.67 156.48 198.11 168.29 191.29 156.66 199.87 166.84 193.99 157 201.89 166.75 196.26 157.41 204.28 167.07 198.7 157.77 206.39 167.43 200.81 158.17 208.73 167.83 203.15 158.5 210.65 168.16 205.07 158.82 212.55 168.48 206.98 159.15 214.45 168.81 208.88 159.63 217.26 169.29 211.68 159.92 218.96 169.58 213.38 160.33 221.34 169.99 215.76 160.68 223.41 170.34 217.84 161.03 225.42 170.68 219.84 161.43 227.78 171.09 222.21 161.78 229.8 171.43 224.22 162.18 232.13 171.83 226.55 162.52 234.14 172.18 228.56 163.17 236.93 172.67 231.45 163.72 238.78 173.01 233.42 164.39 240.36 173.44 235.13 165.09 241.79 174.08 236.6 166.15 243.37 175.25 238.12 167.43 244.82 177.42 239.06 169.6 246.58 194.44 232.24 172.27 247.87 194.38 235.1 175.38 248.57 193.91 237.87 181 248.43 192.23 241.95"/><polyline class="cls-2" points="198.77 224.52 199.53 224.08 199.05 226.36 204.22 223.37 199.34 228.17 208.6 222.82 199.84 230.55 208.96 225.28 200.31 232.41 209.25 227.24 200.91 233.96 209.62 228.93 201.9 236.04 210.47 231.09 202.75 237.42 211.56 232.34 204.46 239.35 215.12 233.2 206.34 240.8 230.75 226.71 208.1 241.76 230.72 228.71 210.26 242.49 230.57 230.76 215.2 242.83 229.4 234.63 220.49 241.97 226.95 238.24"/><polyline class="cls-2" points="208.59 184.14 219.91 177.6 212.9 184.74 221.77 179.62 214.06 185.95 222.61 181.01 214.91 187.86 223.56 182.86 215.4 190.13 224.36 184.96 215.75 192.5 224.9 187.21 221.25 191.76 225.35 189.39"/><polyline class="cls-2" points="198.48 178.44 203.31 175.66 195.36 183.05 210.34 174.4 194.41 186.76 214.9 174.93 194.26 188.97 217.19 175.73 194.38 191.88 219.63 177.31 194.53 193.65 204.85 187.69 194.96 195.62 204.72 189.99 195.6 197.88 205.09 192.4 196.31 199.78 205.67 194.38 197.37 201.75 206.68 196.37 198.37 203.28 207.79 197.84 199.45 204.75 209.03 199.22 200.72 206.1 210.39 200.52 202.75 208.01 212.66 202.29 204.08 209.11 214.12 203.31 206.06 210.59 216.19 204.74 207.84 211.84 218 205.97 209.59 213.03 219.71 207.19 211.63 214.45 221.63 208.68 213.31 215.69 223.15 210.01 215.14 217.2 224.77 211.64 216.57 218.58 226.03 213.12 218.28 220.76 227.59 215.39 219.13 222.44 228.49 217.04 219.72 224.06 229.14 218.62 220.14 225.66 229.71 220.14 220.32 227.75 230.16 222.07 219.9 230.18 230.53 224.04"/><polyline class="cls-2" points="245.24 170.54 245.97 170.12 245.56 173.16 252.15 169.35 245.92 176.12 255.82 170.4 246.16 178.1 256.06 172.38 246.5 180.89 256.4 175.17 246.71 182.62 256.62 176.9 246.96 184.7 256.87 178.98 247.26 187.15 257.17 181.43 247.52 189.31 257.43 183.59 247.81 191.72 257.72 186 248.05 193.69 257.96 187.97 248.29 195.65 258.2 189.92 248.53 197.59 258.44 191.87 248.88 200.47 258.79 194.75 249.09 202.22 259 196.49 249.39 204.67 259.3 198.94 249.64 206.8 259.56 201.07 249.89 208.86 259.81 203.13 250.19 211.28 260.11 205.56 250.44 213.35 260.36 207.62 250.73 215.75 260.65 210.02 250.98 217.81 260.9 212.08 251.34 220.77 261.26 215.04 251.59 222.8 261.51 217.07 251.81 224.63 261.74 218.9 252.02 226.35 261.94 220.62 252.27 228.4 262.19 222.67 252.52 230.44 262.44 224.71 252.86 233.26 262.79 227.52 253.18 235.9 263.11 230.16 256.16 236.68 263.39 232.5 263.02 235.82 263.75 235.4"/><polyline class="cls-2" points="288.15 165.74 288.86 165.34 288.35 167.63 293.11 164.88 288.55 169.49 297.29 164.44 288.81 172.01 297.72 166.87 289.01 174.02 297.93 168.87 289.2 175.8 298.11 170.66 289.46 178.31 298.37 173.17 289.65 180.08 298.56 174.94 289.93 182.83 298.84 177.69 290.18 185.22 299.09 180.08 290.37 187.09 299.28 181.95 290.57 188.95 299.48 183.81 290.88 191.96 299.79 186.82 291.1 194.03 300 188.89 291.28 195.78 300.18 190.63 291.52 198.14 300.43 193 291.73 200.11 300.63 194.97 292.04 203.07 300.94 197.93 292.23 204.91 301.13 199.76"/><polyline class="cls-2" points="275.61 185.61 282.97 181.36 276.58 188.14 283.94 183.89 277.17 189.67 284.53 185.42 277.93 191.64 285.29 187.39 278.73 193.73 286.09 189.48 279.54 195.83 286.89 191.58 280.3 197.83 287.66 193.58 281.23 200.24 288.58 195.99 282.05 202.38 289.41 198.13 282.64 203.9 289.99 199.66 283.28 205.57 290.63 201.33 283.92 207.24 291.27 202.99 284.75 209.4 292.1 205.15 285.58 211.56 301.4 202.42 286.16 213.08 301.58 204.17 286.75 214.61 301.77 205.93 287.65 216.97 302.05 208.65 288.49 219.15 302.31 211.17 289.21 221.01 302.53 213.31 289.9 222.82 302.75 215.4 290.6 224.63 302.96 217.49 291.47 226.89 303.23 220.09 292.42 229.38 303.53 222.96 293.42 231.97 303.84 225.95 297.93 232.05 304.1 228.48 303.67 231.44 304.37 231.04"/><polyline class="cls-2" points="264.17 168.22 264.87 167.81 264.44 170.86 270.79 167.19 264.75 173.84 277.31 166.59 264.96 175.85 277.98 168.33 265.25 178.66 278.91 170.77 265.43 180.42 279.5 172.29 265.64 182.51 280.19 174.11 265.9 184.99 281.02 176.26 266.12 187.17 281.75 178.16 266.38 189.6 282.55 180.26 266.58 191.59 275.56 186.41 266.78 193.57 275.76 188.38 266.99 195.54 275.97 190.35 267.29 198.44 276.27 193.26 267.47 200.21 276.45 195.02 267.72 202.68 276.71 197.49 267.95 204.83 276.93 199.64 268.16 206.91 277.15 201.72 268.41 209.36 277.4 204.17 268.63 211.45 277.62 206.26 268.88 213.87 277.87 208.68 269.09 215.95 278.09 210.76 269.4 218.94 278.4 213.75 269.61 220.99 278.61 215.8 269.8 222.84 278.8 217.65 269.98 224.58 278.98 219.38 270.2 226.65 279.2 221.45 270.41 228.71 279.41 223.51 270.7 231.56 279.7 226.36 270.98 234.22 279.98 229.02 274.96 234.42 280.23 231.38 279.74 233.91 280.45 233.5"/><polyline class="cls-2" points="330.27 204.47 330.95 204.08 330.43 206.38 334.99 203.75 330.59 208.26 338.97 203.42 330.8 210.81 340.35 205.3 330.96 212.84 340.5 207.33 331.03 214.7 340.65 209.14 330.67 217.57 340.85 211.69"/><polyline class="cls-2" points="321.07 171.43 332.6 164.78 325.54 171.94 334.51 166.77 326.78 173.1 335.44 168.1 327.7 174.97 336.41 169.94 328.14 177.27 337.13 172.08 328.35 179.72 337.69 174.32 328.53 182.05 338.02 176.57 329.22 184.6 338.3 179.35 334.5 184.16 338.51 181.85"/><polyline class="cls-2" points="311.21 165.57 315.92 162.85 307.97 170.24 322.71 161.72 306.98 173.97 327.38 162.2 306.69 176.26 329.67 163 306.73 179.22 332.22 164.5 306.84 181.02 317.44 174.9 307 183.14 317.18 177.27 307.2 185.65 317.3 179.82 307.38 187.87 317.47 182.04 307.57 190.33 317.67 184.5 307.73 192.34 317.82 186.52 307.89 194.35 317.98 188.52 308.05 196.34 318.14 190.51 308.28 199.29 318.37 193.46 308.42 201.07 318.51 195.25 308.62 203.58 318.71 197.75 308.79 205.76 318.88 199.93 308.96 207.87 319.05 202.04 309.15 210.35 319.25 204.52 309.32 212.47 319.42 206.64 309.53 214.91 319.61 209.09 309.82 216.95 319.78 211.2 310.44 219.76 320.01 214.23 311.01 221.61 320.31 216.24 311.76 223.12 320.84 217.88 312.51 224.54 321.7 219.23 313.75 226.02 323.49 220.39 315.18 227.38 327.1 220.49 317.69 228.94 340.94 215.52 320.82 229.96 340.59 218.54 324.5 230.33 339.77 221.51 331.72 229.2 336.42 226.49"/><polyline class="cls-2" points="359.03 168.81 370.64 162.1 363.42 169.37 372.65 164.04 364.66 170.52 373.68 165.32 365.57 172.4 374.63 167.17 365.99 174.71 375.43 169.26 366.15 177.19 376.05 171.47 366.28 179.55 376.34 173.74 366.44 182.4 376.59 176.54 366.58 184.94 376.73 179.08 366.69 186.74 376.83 180.88 366.8 188.72 376.94 182.86 366.91 190.69 377.06 184.83 367.05 193.24 377.2 187.38 367.19 195.8 377.34 189.94 367.3 197.6 377.44 191.74 367.4 199.41 377.55 193.55 367.55 202.2 377.7 196.34 367.7 204.78 377.85 198.92 367.82 206.98 377.97 201.12 367.94 209.12 378.09 203.26 368.06 211.27 378.21 205.41 367.86 214.14 378.36 208.08 366.88 216.53 378.46 209.84"/><polyline class="cls-2" points="349.16 163.1 354.13 160.23 345.92 167.77 360.8 159.18 344.87 171.54 365.42 159.67 344.59 173.83 367.77 160.44 344.55 176.83 357.03 169.63 344.65 178.63 355.23 172.52 344.77 180.78 354.98 174.89 344.91 183.32 355.06 177.46 345.04 185.56 355.19 179.71 345.18 188.06 355.33 182.2 345.29 190.1 355.44 184.24 345.41 192.13 355.56 186.27 345.52 194.15 355.67 188.29 345.69 197.13 355.84 191.27 345.79 198.94 355.94 193.08 345.93 201.48 356.08 195.62 346.06 203.69 356.2 197.83 346.18 205.82 356.32 199.96 346.32 208.34 356.47 202.48 346.44 210.48 356.59 204.62 346.65 212.92 356.73 207.1 346.91 214.98 356.85 209.24 347.61 217.74 357.05 212.29 348.26 219.54 357.36 214.29 349.04 221.05 357.97 215.89 349.92 222.38 358.98 217.15 351.15 223.86 361.03 218.16 352.75 225.13 378.47 210.28 355.43 226.59 378.43 213.31 358.73 227.51 377.99 216.39 362.59 227.78 377 219.46 368.89 226.72 373.87 223.85"/><polyline class="cls-2" points="407.77 158.2 408.4 157.84 407.84 160.16 412.09 157.71 407.9 162.1 415.73 157.58 407.99 164.72 417.21 159.4 408.06 166.81 417.28 161.48 408.12 168.67 417.34 163.34 408.2 171.28 417.43 165.95 408.26 173.12 417.49 167.79 408.36 175.98 417.58 170.66 408.44 178.47 417.66 173.15 408.5 180.41 417.72 175.09 408.56 182.35 417.79 177.02 408.67 185.48 417.89 180.16 408.74 187.64 417.96 182.31 408.8 189.45 418.02 184.12 408.88 191.9 418.1 186.58 408.94 193.96 418.16 188.64 409.05 197.04 418.26 191.72"/><polyline class="cls-2" points="393.85 177.12 401.32 172.81 394.66 179.75 402.12 175.44 395.14 181.34 402.61 177.03 395.76 183.39 403.23 179.08 396.43 185.56 403.89 181.25 397.09 187.74 404.55 183.43 397.72 189.81 405.18 185.51 398.49 192.32 405.94 188.01 399.17 194.54 406.62 190.24 399.65 196.13 407.1 191.82 400.18 197.86 407.63 193.56 400.7 199.59 408.16 195.29 401.39 201.84 408.84 197.53 402.07 204.08 418.36 194.68 402.55 205.66 418.42 196.5 403.04 207.25 418.48 198.33 403.79 209.7 418.57 201.16 404.48 211.97 418.65 203.78 405.07 213.9 418.73 206.01 405.64 215.78 418.8 208.18 406.21 217.66 418.87 210.36 406.93 220.01 418.96 213.06 407.72 222.59 419.05 216.05 408.75 225.16 419.15 219.16 413.69 224.99 419.24 221.79 418.7 224.82 419.33 224.46"/><polyline class="cls-2" points="383.67 158.97 384.3 158.61 383.76 161.72 389.45 158.44 383.86 164.83 395.27 158.24 383.93 166.92 397.19 159.26 384.02 169.84 397.96 161.79 384.08 171.66 398.45 163.37 384.15 173.84 399.02 165.26 384.23 176.42 399.7 167.49 384.3 178.69 400.3 169.46 384.38 181.22 400.97 171.65 384.45 183.29 393.75 177.93 384.52 185.35 393.81 179.98 384.58 187.4 393.88 182.03 384.68 190.42 393.98 185.05 384.74 192.25 394.04 186.88 384.82 194.83 394.12 189.46 384.89 197.07 394.2 191.69 384.96 199.23 394.27 193.86 385.04 201.78 394.35 196.41 385.11 203.95 394.42 198.58 385.19 206.47 394.5 201.09 385.26 208.63 394.57 203.26 385.36 211.75 394.67 206.37 385.43 213.88 394.74 208.5 385.49 215.8 394.81 210.42 385.55 217.61 394.87 212.23 385.62 219.76 394.94 214.38 385.69 221.91 395.01 216.53 385.78 224.87 395.1 219.48 389.08 225.79 395.19 222.26 393.69 225.63 395.27 224.71"/><polyline class="cls-2" points="437.36 166.87 451.02 158.98 442.81 166.81 453.56 160.61 445.23 167.29 454.82 161.75 446.94 168.7 456.06 163.44 447.83 170.74 457.04 165.42 448.12 173.14 457.79 167.56 448.16 175.56 458.28 169.72 448.18 178.49 458.52 172.52 448.2 181.1 458.62 175.08 448.21 182.95 458.63 176.94 448.23 184.98 458.65 178.97 448.25 187.01 458.66 180.99 448.26 189.63 458.68 183.62 448.29 192.26 458.7 186.25 448.3 194.11 458.71 188.1 448.31 195.97 458.73 189.96 448.33 198.84 458.75 192.83 448.36 201.5 458.77 195.48 448.37 203.76 458.79 197.74 448.39 205.96 458.8 199.95 448.4 208.17 458.82 202.15 448.1 211.1 458.84 204.9"/><polyline class="cls-2" points="426.09 157.77 426.7 157.42 426.11 160.56 431.61 157.39 426.14 163.71 437.17 157.34 426.15 165.83 440.9 157.31 426.18 168.79 445.74 157.5 426.19 170.65 448.16 157.96 426.21 172.85 450.6 158.77 426.23 175.46 436.65 169.45 426.24 177.77 436.67 171.76 426.26 180.34 436.69 174.32 426.28 182.44 436.71 176.41 426.3 184.52 436.73 178.5 426.31 186.6 436.74 180.57 426.33 189.66 436.77 183.64 426.35 191.52 436.79 185.5 426.37 194.13 436.81 188.1 426.38 196.4 436.83 190.37 426.4 198.59 436.85 192.56 426.42 201.18 436.87 195.15 426.44 203.38 436.89 197.35 426.46 205.94 436.91 199.9 426.47 208.13 436.93 202.09 426.5 211.29 436.96 205.25 426.51 213.45 436.98 207.41 426.53 215.4 437 209.36 426.54 217.24 437.01 211.19 426.56 219.42 437.03 213.37 426.58 221.59 437.9 215.05 426.6 224.59 443.23 214.99 431.4 224.64 458.81 208.82 435.82 224.59 458.66 211.41 441.31 224.53 457.95 214.93 446.05 224.29 456.36 218.34"/><polyline class="cls-2" points="466.19 157.61 466.79 157.26 466.16 160.42 471.57 157.29 466.13 163.6 476.71 157.49 466.11 165.74 476.69 159.63 466.08 168.74 476.66 162.63 466.06 170.61 476.64 164.5 466.04 172.84 476.62 166.73 466.01 175.48 476.6 169.36 465.99 177.81 476.58 171.69 465.96 180.4 476.55 174.28 465.94 182.52 476.53 176.4 465.92 184.62 476.51 178.51 465.9 186.72 476.49 180.6 465.87 189.82 476.46 183.7 465.85 191.7 476.44 185.58 465.82 194.33 476.42 188.22 465.8 196.63 476.4 190.51 465.78 198.84 476.38 192.72 465.75 201.45 476.35 195.33 465.73 203.68 476.33 197.56 465.71 206.26 476.31 200.14 465.68 208.47 476.29 202.35 465.65 211.66 476.26 205.54 465.63 213.85 476.24 207.73 465.61 215.82 476.22 209.69 465.59 217.67 476.2 211.55 465.57 219.88 476.18 213.75 465.55 222.07 476.16 215.95 466.45 224.56 476.13 218.98 471.29 224.6 476.1 221.82 475.48 224.63 476.08 224.28"/><polyline class="cls-2" points="504.82 200.56 505.41 200.22 504.77 202.58 508.74 200.29 504.73 204.58 512.01 200.37 504.66 207.29 514.77 201.46 504.61 209.45 514.72 203.62 504.43 211.45 514.66 205.54 503.18 214.55 514.6 207.96"/><polyline class="cls-2" points="498.7 166.74 510.06 160.18 503.05 167.32 512.07 162.12 504.34 168.45 512.98 163.46 505.21 170.35 513.94 165.31 505.54 172.72 514.73 167.41 505.52 175.29 515.18 169.72 505.46 177.77 515.4 172.03 505.55 180.66 515.49 174.92 509.91 180.76 515.43 177.57 513 180.83 515.38 179.46"/><polyline class="cls-2" points="489.13 160.52 493.57 157.96 485.72 165.29 499.94 157.08 484.52 169.15 504.47 157.63 484.21 171.45 506.91 158.34 483.99 174.56 509.58 159.78 483.94 176.44 495.1 170 483.88 178.7 494.62 172.49 483.81 181.36 494.5 175.19 483.75 183.72 494.44 177.54 483.68 186.33 494.37 180.16 483.62 188.47 494.31 182.3 483.56 190.6 494.25 184.43 483.5 192.72 494.19 186.54 483.42 195.84 494.11 189.67 483.37 197.74 494.06 191.57 483.3 200.4 493.99 194.23 483.24 202.72 493.93 196.55 483.18 204.96 493.87 198.78 483.11 207.59 493.8 201.42 483.13 209.79 493.74 203.67 483.23 212.3 493.67 206.27 483.61 214.29 493.61 208.51 484.39 217 493.69 211.63 485.12 218.76 494.24 213.49 486.07 220.16 495.23 214.87 487.07 221.43 496.8 215.81 488.55 222.77 500.04 216.13 490.38 223.9 514.51 209.97 493.49 225.11 514.21 213.15 497.3 225.74 513.39 216.45 501.73 225.68 511.6 219.99"/><polyline class="cls-2" points="523.28 158.96 523.86 158.63 523.15 161.83 528.38 158.81 523.01 165.08 533.5 159.02 522.92 167.26 533.72 161.02 522.78 170.31 533.59 164.08 522.7 172.22 533.51 165.98 522.6 174.5 533.41 168.26 522.49 177.19 533.29 170.95 522.38 179.56 533.19 173.32 522.27 182.21 533.08 175.96 522.17 184.37 532.98 178.13 522.08 186.51 532.89 180.27 521.99 188.66 532.8 182.41 521.85 191.82 532.66 185.57 521.76 193.73 532.58 187.49 521.65 196.42 532.46 190.17 521.54 198.76 532.36 192.51 521.45 201.02 532.27 194.77 521.33 203.68 532.15 197.44 521.23 205.95 532.05 199.7 521.12 208.58 531.94 202.33 521.02 210.84 531.84 204.59 520.88 214.09 531.7 207.84 520.78 216.32 531.61 210.07 520.69 218.33 531.52 212.08 520.61 220.22 531.44 213.97 520.51 222.47 531.34 216.22 520.41 224.71 531.24 218.46 523.46 225.97 531.11 221.55 528.03 226.16 530.99 224.45"/><polyline class="cls-2" points="555.45 169.15 566.84 162.58 559.66 169.81 568.91 164.47 560.99 170.92 569.88 165.79 561.84 172.83 570.95 167.57 562.12 175.22 571.73 169.67 562.04 177.84 572.23 171.95 561.88 180.37 572.51 174.23 561.7 183.42 572.54 177.16 561.53 186.13 572.39 179.86 561.41 188.06 572.27 181.79 561.29 190.17 572.15 183.9 561.16 192.28 572.02 186.01 560.99 195.02 571.85 188.75 560.83 197.75 571.69 191.48 560.71 199.68 571.57 193.41 560.59 201.61 571.45 195.34 560.41 204.6 571.27 198.33 560.24 207.36 571.1 201.09 560.1 209.72 570.96 203.45 559.96 212.01 570.82 205.74 559.65 214.4 570.68 208.04 558.39 217.11 570.56 210.09"/><polyline class="cls-2" points="545.69 163.12 550.19 160.52 542.35 167.84 556.59 159.63 541.08 171.74 561.22 160.11 540.78 174.04 563.57 160.88 540.49 177.19 566.32 162.28 540.37 179.12 551.62 172.62 540.23 181.41 551.12 175.13 540.07 184.13 550.93 177.86 539.92 186.53 550.78 180.26 539.76 189.2 550.62 182.93 539.63 191.39 550.49 185.12 539.5 193.56 550.36 187.29 539.36 195.72 550.23 189.45 539.17 198.91 550.03 192.64 539.05 200.85 549.91 194.57 538.89 203.56 549.75 197.29 538.74 205.93 549.61 199.65 538.61 208.21 549.47 201.94 538.47 210.88 549.3 204.63 538.49 213.08 549.16 206.92 538.72 215.52 549 209.58 539.06 217.52 548.87 211.86 540.02 220.14 549.14 214.88 540.95 221.77 549.86 216.63 541.9 223.18 551.07 217.89 543.11 224.33 553.04 218.59 544.73 225.59 570.52 210.69 546.62 226.68 570.34 212.99 549.98 227.75 569.89 216.25 554.06 228.22 568.81 219.71 559.2 227.75 566.32 223.64"/><polyline class="cls-2" points="605.55 164.29 606.11 163.97 605.38 166.39 609.15 164.21 605.2 168.46 612.14 164.46 604.97 171.27 614.88 165.55 604.78 173.51 614.69 167.79 604.61 175.5 614.52 169.78 604.38 178.29 614.28 172.57 604.21 180.26 614.12 174.54 603.95 183.33 613.86 177.61 603.73 185.99 613.63 180.27 603.55 188.07 613.46 182.35 603.38 190.15 613.28 184.43 603.1 193.5 613 187.78 602.9 195.81 612.81 190.09 602.74 197.75 612.64 192.03 602.52 200.38 612.42 194.66 602.33 202.58 612.23 196.87"/><polyline class="cls-2" points="589.53 181.44 597.25 176.97 590.04 184.24 597.76 179.78 590.34 185.93 598.07 181.47 590.74 188.11 598.46 183.65 591.16 190.42 598.88 185.96 591.58 192.74 599.3 188.29 591.98 194.95 599.7 190.49 592.46 197.62 600.18 193.16 592.89 199.99 600.61 195.53 593.19 201.67 600.91 197.21 593.53 203.52 601.25 199.06 593.86 205.36 601.58 200.91 594.3 207.75 602.01 203.29 594.73 210.14 611.95 200.19 595.03 211.82 611.79 202.15 595.34 213.51 611.62 204.11 595.81 216.12 611.37 207.14 596.25 218.54 611.13 209.94 596.62 220.59 610.93 212.33 596.99 222.59 610.73 214.66 597.35 224.6 610.53 216.99 597.8 227.09 610.29 219.88 598.3 229.85 610.02 223.08 601.59 231.12 609.74 226.41 605.65 231.46 609.5 229.23 608.76 231.71 609.32 231.39"/><polyline class="cls-2" points="581.52 162.25 582.08 161.93 581.27 165.19 586.32 162.28 580.99 168.52 591.11 162.68 580.8 170.76 594.33 162.95 580.54 173.89 595.17 165.44 580.37 175.84 595.47 167.12 580.17 178.17 595.84 169.13 579.94 180.93 596.27 171.5 579.73 183.37 596.65 173.6 579.5 186.08 597.07 175.94 579.31 188.29 589.3 182.53 579.13 190.5 589.12 184.73 578.94 192.69 588.93 186.92 578.67 195.93 588.66 190.16 578.5 197.89 588.49 192.12 578.26 200.65 588.26 194.88 578.06 203.04 588.06 197.27 577.87 205.36 587.86 199.59 577.63 208.09 587.63 202.32 577.44 210.42 587.44 204.64 577.21 213.12 587.21 207.34 577.01 215.43 587.02 209.66 576.73 218.77 586.74 212.99 576.53 221.05 586.54 215.27 576.36 223.11 586.37 217.33 576.19 225.05 586.21 219.27 576 227.35 586.01 221.57 576.88 229.03 585.82 223.87 581.45 229.41 585.55 227.03 584.8 229.68 585.36 229.36"/><polyline class="cls-2" points="626.93 221.35 649.1 208.55 629.86 221.66 649.2 210.49 632.75 221.96 649.29 212.41 636.66 222.37 649.42 215.01 639.41 222.92 649.53 217.07 639.49 224.76 649.62 218.91 639.6 227.36 649.75 221.5 639.68 229.19 649.85 223.32 639.8 232.03 649.99 226.15 639.91 234.5 650.11 228.61 641.99 235.28 650.21 230.53 644.89 235.58 650.31 232.45 649.56 236.07 650.46 235.55"/><polyline class="cls-2" points="637.64 179.41 647.34 173.81 637.76 182.43 647.5 176.81 637.84 184.26 647.59 178.63 637.93 186.61 647.7 180.97 638.03 189.1 647.83 183.45 638.13 191.62 647.96 185.94 638.23 194 648.08 188.31 638.34 196.88 648.22 191.17 638.45 199.43 648.35 193.72 638.52 201.25 648.44 195.53 638.6 203.25 648.54 197.51 638.68 205.24 648.64 199.49 638.78 207.81 648.77 202.05 638.89 210.39 648.9 204.61 638.96 212.21 648.99 206.42"/><polyline class="cls-2" points="631.65 166.91 632.28 166.55 630.74 170.24 636.37 166.99 629.71 174 641 167.48 629.02 176.53 644.11 167.81 628.04 180.06 647.11 169.06 627.44 182.27 647.2 170.86 626.72 184.91 647.32 173.01 625.86 188.03 636.85 181.68 625.1 190.78 636.14 184.41 624.26 193.84 635.35 187.44 623.58 196.35 634.7 189.93 622.89 198.83 634.05 192.39 622.21 201.31 633.41 194.85 621.21 204.97 632.46 198.48 620.6 207.19 631.88 200.68 619.75 210.31 631.08 203.76 619 213.01 630.37 206.45 618.28 215.63 629.69 209.04 617.44 218.72 628.89 212.1 616.71 221.35 631.64 212.73 615.88 224.4 635.39 213.13 615.16 227.01 638.62 213.47 614.13 230.78 625.7 224.1 615.16 232.36 625.03 226.66 618.04 232.65 624.44 228.96 620.75 232.93 623.87 231.13"/><polyline class="cls-2" points="663.77 170.49 664.31 170.18 663.37 173.52 668.27 170.69 662.91 176.94 672.75 171.26 662.61 179.25 674.1 172.61 662.19 182.47 673.68 175.84 661.92 184.48 673.41 177.85 661.61 186.88 673.1 180.25 661.23 189.72 672.72 183.09 660.9 192.23 672.39 185.59 660.53 195.02 672.03 188.38 660.23 197.3 671.73 190.66 659.93 199.56 671.43 192.93 659.64 201.82 671.14 195.18 659.2 205.16 670.7 198.52 658.93 207.18 670.43 200.54 658.56 210.01 670.06 203.37 658.23 212.48 669.74 205.84 657.92 214.87 669.42 208.22 657.55 217.68 669.05 211.03 657.23 220.07 668.74 213.43 656.86 222.85 668.38 216.2 656.55 225.23 668.06 218.59 656.1 228.66 667.61 222.02 655.79 231.02 667.3 224.37 655.51 233.13 667.03 226.48 655.25 235.13 666.76 228.48 655.88 236.96 669.52 229.08 658.97 237.36 672.61 229.48 663.22 237.91 676.87 230.03 667.21 238.44 680.87 230.55 670.74 238.9 683.93 231.28 675.13 239.47 683.5 234.65 678.65 239.93 683.15 237.34 681.66 240.32 682.85 239.64"/><polyline class="cls-2" points="702.33 213.79 715.64 206.1 705.08 214.21 717.58 206.99 707.78 214.62 717.26 209.14 711.46 215.17 716.82 212.07 714.37 215.61 716.47 214.4"/><polyline class="cls-2" points="706.63 185.74 719.94 178.06 710.87 186.39 724.18 178.7 713.44 186.78 725.55 179.79 716.74 187.28 725.15 182.42 720.24 187.81 724.73 185.21 723.76 188.34 724.31 188.03"/><polyline class="cls-2" points="697.15 174.98 697.68 174.67 696.68 178.05 701.52 175.25 696.14 181.52 705.86 175.91 695.79 183.85 708.77 176.36 695.29 187.12 712.85 176.98 694.97 189.16 715.4 177.37 694.6 191.59 718.44 177.83 694.16 194.47 705.84 187.73 693.77 197.02 705.46 190.27 693.34 199.84 705.03 193.09 692.98 202.15 704.68 195.4 692.63 204.45 704.33 197.69 692.28 206.74 703.98 199.98 691.76 210.12 703.47 203.36 691.45 212.17 704.79 204.47 691.01 215.04 708.38 205.01 690.63 217.54 711.51 205.48 690.25 219.96 714.54 205.94 689.82 222.81 701.5 216.06 689.45 225.24 701.13 218.49 689.01 228.05 700.7 221.3 688.64 230.47 700.34 223.72 688.11 233.94 699.81 227.19 687.75 236.33 699.45 229.57 687.42 238.47 699.13 231.72 687.11 240.5 699.51 233.34 689.23 241.46 702.51 233.79 692.23 241.92 705.51 234.25 696.36 242.55 709.65 234.87 700.23 243.14 713.52 235.46 703.65 243.66 716.93 235.99 707.92 244.31 716.42 239.4 711.33 244.83 716.01 242.13 714.25 245.27 715.66 244.46"/><polyline class="cls-2" points="723.43 226.64 723.95 226.34 723.05 228.86 726.62 226.8 722.73 231.01 729.25 227.25 722.42 233.87 732.82 227.87 722.48 235.96 732.98 229.9 722.61 237.78 732.61 232.01 723.16 240.12 732.28 234.85 723.77 241.64 732.49 236.61 725.02 243.84 733.8 238.76 726.44 245.56 736.16 239.94 727.92 246.68 739.36 240.07 729.55 247.7 754.06 233.56 732.82 249.01 753.5 237.07 735.46 249.68 752.84 239.65 738.2 249.94 751.84 242.07 743.52 249.38 748.8 246.33"/><polyline class="cls-2" points="743.95 191.36 754.94 185.02 748.03 192.1 756.99 186.93 749.34 193.22 758.02 188.2 750.18 195.13 758.94 190.08 750.23 197.66 759.65 192.22 749.83 200.46 760.08 194.54 751.49 201.94 760.18 196.92 755.42 202.61 759.92 200.01 758.91 203.22 759.53 202.86"/><polyline class="cls-2" points="734.47 184.95 738.98 182.34 731.06 189.72 744.97 181.69 729.69 193.67 749.23 182.39 729.12 196.13 751.6 183.15 728.79 199.3 754.33 184.55 728.86 201.12 740.38 194.47 729.05 203.22 739.62 197.12 729.52 205.57 739.44 199.85 730.15 207.53 739.76 201.98 731.04 209.59 740.43 204.17 731.87 211.22 741.17 205.85 732.78 212.79 742.03 207.45 733.79 214.29 743.03 208.96 735.35 216.47 744.59 211.14 736.33 217.77 745.56 212.44 737.72 219.59 746.96 214.26 738.91 221.18 748.14 215.85 740.01 222.75 749.24 217.42 741.21 224.66 750.47 219.31 742.11 226.35 751.43 220.97 742.9 228.46 752.37 222.99 743.33 230.41 753.05 224.8 743.42 233.53 753.77 227.55 743 235.95 754.09 229.54 741.7 238.6 754.15 231.41"/><polygon class="cls-1" points="465.77 51.92 509.44 57.88 478.15 88.91 485.97 132.28 446.79 112.12 407.96 132.96 415.03 89.46 383.2 58.97 426.76 52.26 445.92 12.57 465.77 51.92"/><polygon class="cls-1" points="609.98 82.39 642.34 86.81 619.15 109.81 624.96 141.95 595.91 127 567.14 142.45 572.38 110.22 548.8 87.62 581.08 82.65 595.27 53.23 609.98 82.39"/><polygon class="cls-1" points="301.64 82.39 334 86.81 310.81 109.81 316.61 141.95 287.57 127 258.8 142.45 264.04 110.22 240.46 87.62 272.73 82.65 286.93 53.23 301.64 82.39"/><path class="cls-1" d="M651.31,605.26c0.35-5.93.12-12.75-5-16.69-4.13-3.15-9.31-2.41-12.75,1.37-8.57,9.43-4.15,25.45,2.93,34.23,1.17,1.45,3.21-.61,2-2-5.43-6.74-8.32-16.41-5.69-24.91,1.59-5.15,6.27-10.37,11.8-6.18,4.35,3.3,4.1,9.33,3.81,14.22-0.11,1.86,2.79,1.86,2.9,0h0Z" transform="translate(125.83 -477.18)"/><path class="cls-1" d="M649.95,609.25c2.67-3.31,5-8.4,8.84-10.42,7.2-3.77,10.41,5.84,7.46,11s-9.59,7.18-14.78,9l-19,6.76c-1.74.62-1,3.42,0.77,2.79,9-3.2,18.73-5.74,27.28-10.06C666,615.52,671,610.71,670.3,604c-0.45-4.55-3.49-8.93-8.41-9-6.8,0-10.33,7.62-14,12.14-1.16,1.44.88,3.5,2,2h0Z" transform="translate(125.83 -477.18)"/><path class="cls-1" d="M598.71,560.4c0.19-3.46.08-7.52-3-9.82a5.35,5.35,0,0,0-7.06.37c-5.75,5.3-2.85,15.33,1.28,20.58,0.68,0.86,1.88-.35,1.2-1.2-3-3.86-4.73-9.12-3.51-14a8.17,8.17,0,0,1,1.34-3,2.52,2.52,0,0,1,1.94-1.48q1.72-1.62,3.24.45c3,1.94,3,4.8,2.82,8.16-0.06,1.1,1.64,1.09,1.7,0h0Z" transform="translate(125.83 -477.18)"/><path class="cls-1" d="M597.91,562.75c1.43-1.79,2.62-4.23,4.5-5.55,5.81-4.09,6.92,4.47,3.77,7.47-2.25,2.14-5.46,3-8.31,4.05l-10.27,3.65c-1,.36-0.58,2,0.45,1.64,5.63-2,12.23-3.42,17.32-6.62,2.87-1.8,5-4.62,4.44-8.15-0.38-2.38-2-4.61-4.53-4.83-4.14-.36-6.45,4.46-8.59,7.14-0.68.85,0.52,2.06,1.2,1.2h0Z" transform="translate(125.83 -477.18)"/><path class="cls-1" d="M66.45,585.7c-2.3-1.47-5.12-2.94-7.84-1.64a4.07,4.07,0,0,0-2.24,4.76c1.4,5.81,9.13,7.7,14.21,6.89,0.83-.13.48-1.39-0.35-1.26-3.68.59-7.92-.25-10.67-2.93-2-1.94-3.39-5.74.69-6.57,2-.41,3.94.84,5.55,1.87a0.65,0.65,0,0,0,.66-1.13h0Z" transform="translate(125.83 -477.18)"/><path class="cls-1" d="M67.71,587.11c-0.16-.39-0.32-0.78-0.48-1.16-1-2.39-1.53-2.43-.21-5q0.17-2.91,2.06-1.83a2.12,2.12,0,0,1,1.72,1c1.24,1.22,1.5,3.1,1.5,4.8,0,4.14-1.34,8.61-2,12.68-0.14.82,1.11,1.17,1.26,0.35,0.77-4.4,2.14-9.11,2.09-13.6,0-2.67-1-5.37-3.63-6.43a4.15,4.15,0,0,0-5,1c-2,2.61.42,6.11,1.43,8.55,0.32,0.76,1.58.43,1.26-.35h0Z" transform="translate(125.83 -477.18)"/><path class="cls-1" d="M-9.34,616.12c0.38-4.48.77-9.35,3.18-13.29s8.82-7.26,12.91-3.47c3.47,3.21,1.81,12.1,1.77,16.39L8.38,630.67a1.45,1.45,0,0,0,2.9,0c0.08-8.58.6-17.29,0.22-25.86-0.21-4.75-2.24-8.77-7.23-9.68-12.39-2.26-15.72,11.79-16.49,21-0.16,1.86,2.74,1.85,2.9,0h0Z" transform="translate(125.83 -477.18)"/><path class="cls-1" d="M-13.66,612c-4.82-1.88-13.08-3.73-17.57.06-4,3.36-2.92,9.59-.48,13.48,3.36,5.34,9.25,7.88,15.16,9.28,8.77,2.07,17.83,3.28,26.7,4.86,1.82,0.32,2.6-2.47.77-2.79-9.8-1.74-20.39-2.6-29.86-5.72-5.32-1.75-10.95-5.25-11.85-11.26-1.39-9.22,11.12-7.15,16.36-5.11,1.74,0.68,2.49-2.12.77-2.79h0Z" transform="translate(125.83 -477.18)"/><path class="cls-1" d="M580.89,513.82a371,371,0,0,0-36.45,43.71c-1.08,1.52,1.43,3,2.5,1.46a366.07,366.07,0,0,1,36-43.13,1.45,1.45,0,0,0-2-2h0Z" transform="translate(125.83 -477.18)"/><path class="cls-1" d="M444.64,477.94L423.7,526.89c-0.73,1.69,1.77,3.17,2.5,1.46l20.95-48.95c0.73-1.69-1.77-3.17-2.5-1.46h0Z" transform="translate(125.83 -477.18)"/><path class="cls-1" d="M198.23,496.78l15.94,33.3c0.8,1.68,3.3.21,2.5-1.46l-15.94-33.3c-0.8-1.68-3.3-.21-2.5,1.46h0Z" transform="translate(125.83 -477.18)"/><path class="cls-1" d="M35.67,516.44q35,30.14,67.07,63.37a1.45,1.45,0,0,0,2-2q-32.07-33.2-67.07-63.37c-1.41-1.21-3.46.83-2,2h0Z" transform="translate(125.83 -477.18)"/><text class="cls-3" transform="translate(8.77 101) rotate(-20.23)">mis chavos</text><text class="cls-4" transform="matrix(0.86, 0.51, -0.51, 0.86, 732.09, 44.58)">xoxo</text><text class="cls-5" transform="matrix(0.86, 0.51, -0.51, 0.86, 151.1, 128.36)">xoxo</text></svg>