<svg id="Layer_1" data-name="Layer 1" xmlns="http://www.w3.org/2000/svg" viewBox="0 0 513.92 235.46"><defs><style>.cls-1,.cls-2,.cls-7,.cls-8,.cls-9{fill:none;stroke:#333;}.cls-1,.cls-8,.cls-9{stroke-linecap:round;}.cls-1,.cls-9{stroke-linejoin:round;}.cls-1{stroke-width:1.23px;}.cls-2,.cls-7,.cls-8{stroke-miterlimit:10;}.cls-2{stroke-width:2.95px;}.cls-3{fill:#1d1d1d;}.cls-4{fill:#333;}.cls-5,.cls-6{fill:#fff;}.cls-6{fill-rule:evenodd;}.cls-7{stroke-width:1.09px;}.cls-8{stroke-width:0.52px;}.cls-9{stroke-width:0.38px;}</style></defs><title>penales</title><polyline class="cls-1" points="149.33 188.98 167.88 178.27 153.49 188.62 167.01 180.81 158.63 187.66 164.52 184.26"/><polyline class="cls-1" points="146.97 155.98 160.88 147.95 152.97 155.68 163.2 149.77 154.92 156.46 164.29 151.05 156.28 158.12 165.43 152.84 156.91 160.36 166.4 154.88 157.19 162.82 167.07 157.12 157.37 165.2 167.49 159.36 157.59 168.08 167.84 162.16 157.78 170.64 168.03 164.72 157.88 172.47 168.17 166.54 157.82 174.6 168.32 168.53 156.91 177.18 168.47 170.51"/><polyline class="cls-1" points="134.8 147.49 135.48 147.1 135 150.23 141.16 146.67 135.24 153.32 147.58 146.19 135.39 155.4 151.73 145.97 135.61 158.31 156.38 146.32 135.75 160.13 158.61 146.93 135.91 162.3 146.16 156.37 136.1 164.86 146.36 158.93 136.27 167.13 146.54 161.2 136.46 169.64 146.73 163.71 136.61 171.71 146.89 165.77 136.76 173.75 147.05 167.81 136.92 175.79 147.21 169.85 137.14 178.8 147.44 172.86 137.28 180.63 147.58 174.68 137.47 183.19 147.78 177.24 137.64 185.42 148.25 179.29 137.8 187.57 152.72 178.96 137.99 190.11 168.49 172.5 138.15 192.27 168.46 174.77 138.34 194.78 168.06 177.62 138.5 196.94 148.76 191.01 138.73 200.03 149 194.1 138.89 202.16 149.16 196.23 139.03 204.07 149.31 198.14 139.17 205.87 149.45 199.94 139.33 208.01 149.62 202.08 139.49 210.15 149.78 204.21 139.71 213.1 150.01 207.15 140.52 215.51 150.22 209.91 145.65 215.1 150.41 212.35 149.88 214.76 150.56 214.36"/><polyline class="cls-1" points="186.21 182.43 199.96 174.49 190.12 182.21 200.07 176.47 193.97 182 200.18 178.42 199.19 181.71 200.32 181.06"/><polyline class="cls-1" points="184.68 153.53 202.13 143.45 190.72 153.2 202.31 146.51 194.37 153 202.41 148.36 199.06 152.74 202.54 150.73"/><polyline class="cls-1" points="172.79 144.71 173.44 144.33 172.93 147.48 178.9 144.04 173.1 150.61 185.07 143.7 173.21 152.72 189.21 143.48 173.37 155.66 195.02 143.16 173.47 157.5 198.64 142.97 173.58 159.7 184.01 153.68 173.72 162.29 184.15 156.27 173.84 164.59 184.28 158.56 173.98 167.13 184.42 161.11 174.09 169.22 184.53 163.19 174.2 171.29 184.64 165.26 174.31 173.36 184.75 167.32 174.47 176.41 184.92 170.37 174.57 178.25 185.02 172.22 174.71 180.84 189.21 172.47 174.82 183.1 193.67 172.22 174.94 185.28 197.97 171.99 175.08 187.85 199.9 173.52 175.19 190.04 185.62 184.02 175.33 192.58 185.76 186.55 175.44 194.76 185.88 188.73 175.61 197.9 186.05 191.87 175.72 200.04 186.17 194.02 175.83 201.98 186.27 195.95 175.92 203.81 186.37 197.77 176.04 205.97 186.49 199.94 176.15 208.14 186.61 202.1 176.31 211.12 191.57 202.31 178.38 212.81 197.09 202 183.25 212.54 201.96 201.74 189.31 212.22 205.29 202.99 194.16 211.95 205.43 205.45 198.31 211.73 205.55 207.55 203.34 211.46 205.69 210.1"/><polyline class="cls-1" points="234.52 142.1 235.16 141.73 234.58 144.1 238.91 141.6 234.64 146.08 242.6 141.48 234.72 148.76 244.15 143.32 234.79 150.89 244.21 145.45 234.85 152.79 244.27 147.35 234.93 155.45 244.35 150.01 234.99 157.33 244.4 151.89 235.07 160.25 244.49 154.81 235.15 162.79 244.57 157.36 235.21 164.78 244.63 159.34 235.27 166.75 244.69 161.32 235.37 169.95 244.78 164.51 235.44 172.15 244.85 166.72 235.49 174 244.91 168.57 235.57 176.51 244.98 171.08 235.63 178.61 245.04 173.18 235.73 181.76 245.14 176.32"/><polyline class="cls-1" points="220.28 161.36 227.9 156.96 221.09 164.04 228.71 159.65 221.59 165.67 229.2 161.27 222.22 167.75 229.83 163.36 222.88 169.97 230.5 165.57 223.56 172.2 231.17 167.81 224.2 174.32 231.81 169.92 224.97 176.87 232.58 172.48 225.66 179.15 233.27 174.75 226.15 180.76 233.76 176.37 226.68 182.54 234.29 178.14 227.22 184.3 234.82 179.91 227.91 186.59 235.52 182.2 228.6 188.88 245.23 179.29 229.09 190.5 245.28 181.15 229.58 192.12 245.34 183.02 230.34 194.62 245.43 185.91 231.04 196.94 245.51 188.58 231.63 198.91 245.58 190.86 232.21 200.83 245.64 193.08 232.8 202.75 245.71 195.3 233.52 205.15 245.79 198.06 234.32 207.79 245.88 201.11 235.43 210.38 245.98 204.28 240.44 210.22 246.06 206.97 245.5 210.06 246.14 209.69"/><polyline class="cls-1" points="209.94 142.82 210.58 142.46 210.02 145.63 215.81 142.29 210.12 148.8 221.71 142.11 210.18 150.94 223.72 143.12 210.27 153.92 224.5 145.7 210.32 155.78 224.99 147.32 210.39 158.01 225.57 149.24 210.47 160.64 226.26 151.52 210.54 162.96 226.87 153.54 210.61 165.54 227.54 155.77 210.68 167.66 220.17 162.18 210.74 169.76 220.23 164.28 210.8 171.85 220.3 166.37 210.89 174.94 220.39 169.45 210.95 176.81 220.45 171.32 211.03 179.44 220.53 173.95 211.09 181.72 220.6 176.24 211.16 183.93 220.66 178.44 211.24 186.54 220.74 181.05 211.3 188.75 220.81 183.27 211.38 191.32 220.89 185.84 211.44 193.54 220.95 188.04 211.54 196.71 221.05 191.22 211.6 198.89 221.12 193.4 211.66 200.85 221.18 195.36 211.72 202.7 221.23 197.21 211.78 204.9 221.3 199.41 211.85 207.09 221.36 201.6 211.94 210.11 221.46 204.62 215.45 210.97 221.54 207.45 220.12 210.81 221.62 209.95"/><polyline class="cls-1" points="262.92 197.43 284.32 185.08 266.51 197.4 284.63 186.94 270.05 197.36 284.93 188.77 274.86 197.32 285.35 191.26 275.86 198.91 285.68 193.24 276.14 200.68 285.97 195 276.53 203.16 286.38 197.47 276.81 204.91 286.67 199.22 277.25 207.63 287.13 201.93 277.96 209.81 287.52 204.29 281.52 209.77 287.82 206.13 285.06 209.74 288.13 207.97"/><polyline class="cls-1" points="268.77 153.64 278.18 148.21 269.22 156.53 278.65 151.09 269.5 158.29 278.95 152.83 269.85 160.53 279.32 155.07 270.22 162.92 279.71 157.44 270.6 165.33 280.11 159.83 270.95 167.61 280.49 162.1 271.38 170.36 280.95 164.84 271.76 172.81 281.35 167.27 272.03 174.55 281.64 169 272.33 176.46 281.96 170.91 272.63 178.37 282.27 172.8 273.01 180.83 282.68 175.25 273.4 183.3 283.09 177.71 273.67 185.04 283.38 179.43 273.94 186.79 283.67 181.17"/><polyline class="cls-1" points="261.26 141.69 261.95 141.29 260.78 144.82 266.96 141.25 260.23 148.37 272.64 141.2 259.86 150.75 276.45 141.17 259.35 154.08 277.43 143.65 259.03 156.16 277.72 145.37 258.64 158.65 278.06 147.43 258.19 161.58 268.29 155.75 257.79 164.18 267.93 158.33 257.34 167.06 267.52 161.19 256.98 169.42 267.19 163.53 256.62 171.77 266.86 165.85 256.26 174.1 266.53 168.17 255.72 177.55 266.04 171.6 255.4 179.64 265.75 173.67 254.95 182.58 265.33 176.58 254.55 185.13 264.97 179.12 254.17 187.6 264.62 181.56 253.72 190.5 264.21 184.45 253.34 192.98 263.86 186.91 252.9 195.85 266.23 188.16 252.51 198.32 270.18 188.12 251.97 201.87 284.03 183.36 251.59 204.3 262.19 198.18 251.25 206.49 261.89 200.35 250.93 208.56 261.61 202.4 252.39 209.95 261.26 204.83 256.33 209.9 260.93 207.25 259.94 209.86 260.62 209.47"/><polyline class="cls-1" points="294.23 141.58 294.84 141.23 294.18 144.46 299.67 141.3 294.13 147.72 304.97 141.46 294.1 149.91 304.93 143.65 294.04 152.98 304.88 146.72 294.01 154.89 304.85 148.63 293.98 157.17 304.82 150.91 293.93 159.87 304.77 153.61 293.89 162.26 304.74 156 293.85 164.91 304.69 158.65 293.81 167.08 304.66 160.82 293.78 169.24 304.62 162.97 293.74 171.38 304.59 165.12 293.69 174.56 304.54 168.29 293.66 176.48 304.51 170.21 293.61 179.18 304.47 172.91 293.58 181.53 304.43 175.26 293.54 183.79 304.39 177.53 293.5 186.47 304.35 180.2 293.46 188.75 304.31 182.48 293.41 191.38 304.27 185.12 293.38 193.65 304.24 187.38 293.32 196.92 304.18 190.65 293.29 199.16 304.15 192.88 293.25 201.17 304.12 194.9 293.22 203.07 304.09 196.79 293.19 205.32 304.05 199.05 293.15 207.57 305.79 200.28 294.48 209.88 310.98 200.35 299.35 209.95 315.84 200.43 303.64 210.02 320.15 200.49 309 210.1 321.73 202.75 313.28 210.16 321.69 205.31 316.95 210.22 321.66 207.5 321.03 210.28 321.63 209.94"/><polyline class="cls-1" points="338.41 180.98 352.97 172.57 341.74 181.1 352.9 174.66 345.02 181.21 352.83 176.71 349.48 181.37 352.73 179.49"/><polyline class="cls-1" points="339.49 152.06 355.45 142.84 344.63 152.24 357.84 144.62 347.75 152.35 357.77 146.57 351.75 152.5 357.69 149.07 355.99 152.65 357.6 151.72"/><polyline class="cls-1" points="328.53 142.23 329.12 141.89 328.42 145.15 333.78 142.06 328.3 148.45 339.04 142.25 328.22 150.66 342.57 142.38 328.11 153.77 347.52 142.56 328.03 155.71 350.61 142.67 327.95 158.02 354.3 142.8 327.85 160.75 338.82 154.41 327.76 163.17 338.74 156.83 327.66 165.85 338.64 159.51 327.57 168.05 338.56 161.7 327.49 170.23 338.49 163.88 327.41 172.4 338.41 166.05 327.29 175.61 338.3 169.26 327.22 177.56 338.25 171.19 327.12 180.29 342.62 171.34 327.03 182.66 346.41 171.47 326.95 184.96 350.08 171.6 326.85 187.67 337.82 181.33 326.76 189.97 337.74 183.63 326.66 192.65 337.64 186.31 326.58 194.94 337.56 188.6 326.45 198.25 337.44 191.9 326.37 200.51 337.36 194.16 326.29 202.55 337.29 196.2 326.22 204.47 337.22 198.12 326.14 206.75 337.14 200.4 326.05 209.03 339.66 201.18 328.73 210.56 344.67 201.35 333.43 210.73 349.38 201.52 337.58 210.88 353.53 201.67 342.76 211.06 355.65 203.62 346.9 211.21 355.56 206.21 350.44 211.34 355.49 208.43 354.73 211.5 355.39 211.11"/><polyline class="cls-1" points="361.2 191.49 361.78 191.16 361.09 193.6 365 191.34 361 195.66 368.17 191.52 361.02 198.37 371.33 192.42 361.23 200.42 371.2 194.66 361.51 202.19 371.09 196.66 362.24 204.48 371.25 199.28 362.89 206.02 371.75 200.91 364.27 208.19 373.51 202.86 365.93 209.82 376.71 203.6 367.49 210.94 393.06 196.18 369.24 211.94 392.93 198.26 372.97 213.04 392.36 201.85 376.13 213.46 391.56 204.55 379.5 213.39 390.24 207.2"/><polyline class="cls-1" points="378.33 153.23 389.79 146.62 382.64 153.9 391.82 148.6 383.93 155.06 392.69 150 384.73 157.05 393.67 151.89 384.97 159.52 394.44 154.05 384.86 162.2 394.85 156.43 387.36 163.25 395.05 158.81 392.1 163.51 395.05 161.8"/><polyline class="cls-1" points="368.65 146.81 373.17 144.2 365.21 151.65 379.46 143.42 363.93 155.62 384.09 143.98 363.6 157.97 386.48 144.77 363.4 161.13 389.2 146.23 363.42 163.01 374.76 156.46 363.72 165.1 374.23 159.04 364.25 167.47 374.25 161.7 364.9 169.46 374.64 163.83 365.85 171.54 375.42 166.01 366.78 173.15 376.26 167.68 367.79 174.7 377.31 169.21 368.9 176.19 378.45 170.68 370.68 178.3 380.27 172.76 371.83 179.54 381.43 174 373.47 181.27 383.09 175.71 374.91 182.76 384.52 177.22 376.28 184.22 385.87 178.68 377.82 185.98 387.38 180.46 379.05 187.53 388.56 182.03 380.32 189.41 389.8 183.93 381.18 191.16 390.74 185.64 382.04 193.89 391.85 188.23 382.25 195.99 392.42 190.12 382.21 198.01 392.76 191.91 381.75 200.15 393.02 193.64"/><path class="cls-2" d="M1191.26,1048.78c70-8.63,183.88-16.7,303.66-.38" transform="translate(-1075.22 -814.79)"/><path class="cls-3" d="M1451.08,870.19c-1.68-10.33-1.25-23-12.42-30.61-10-6.79-25.62-6.57-38.26-6.68q-56.73-.52-113.44,1.3c-16.91.53-34.07,0.87-50.43,4.41-6,1.31-11.84,3-15.21,7.16-3.69,4.53-2.88,11.9-3.51,17-3.2,25.75-5.63,51.53-6.7,77.38-0.16,3.8,7.81,3.79,8,0,0-.7.07-1.4,0.1-2.1a218.18,218.18,0,0,0,30.6-17,6.66,6.66,0,0,0,1.76,1.12c4.67,2,10.3,1.52,15.51,1.52l22.75,0,45.5,0,45.5,0c7.41,0,14.81,0,22.2-.4,4.68-.24,12.7,0,16.46-2.44l0.14-.1a235.78,235.78,0,0,0,31.19,15.29h0c0.07,1.32.15,2.64,0.21,4,0.17,3.79,8.14,3.8,8,0C1457.94,916.63,1454.87,893.43,1451.08,870.19Zm-13.82,52.9q-3.85-1.92-7.58-4a1,1,0,0,0-.07-0.5,59.79,59.79,0,0,1-2.37-7.14l10.13,1.19Q1437.4,917.88,1437.26,923.09Zm-10.68-14.23c-0.45-2-.83-4-1.15-6h11.7q0.15,3.63.21,7.27Zm-82.3,8.33q0.32-3.18.57-6.36l15.66-.45q0.72,3.71,1.6,7.41l-17.67,0A0.83,0.83,0,0,0,1344.28,917.19Zm0.76-8.89q0.27-3.74.44-7.47l13.41-.29q0.48,3.68,1.14,7.34Zm-20.39,9.46-16.71,0c0-1.93-.08-3.86-0.13-5.78l16.62-.52Q1324.52,914.61,1324.65,917.76Zm-16.93-8.32q-0.14-4-.34-7.92l16.73-.28q0.14,3.84.25,7.68Zm-27.18,8.28h-10.22L1271,916c0.31-.82-0.44-1.39-1.31-1.53l0-1.27,11.46-.39Q1280.82,915.27,1280.54,917.71Zm-11-7-0.21-8.69,12.66-.14q-0.29,4.22-.68,8.43Zm-38.31,5.19q0.8-4.47,1.58-8.93l7.37-.67q-0.07,3.45-.15,6.89Zm8.74,0q0,1.81-.1,3.61c-3.36,2.12-6.83,4.19-10.39,6.17q0.61-3.47,1.23-6.93Zm-4.86-59.82q-0.05,3.72-.25,7.44-4.28-2.09-8.7-4c0.2-1.6.4-3.21,0.6-4.81a24.57,24.57,0,0,1,.66-4Q1231.38,853.33,1235.11,856.09Zm19.53-6,5.12,6.24q-6.1.41-12.19,0.85-3.88-3.15-8-6.13Q1247.11,850.55,1254.64,850.1Zm64.37-5.5c-0.19-1.55-.08-3.5-0.38-5.33q11.54-.24,23.07-0.38l-0.93,5.46q-10.87.16-21.74,0.44Zm43-5.88q0.13,2.72.2,5.43-9,0-18.06.14l0.93-5.44Q1353.6,838.76,1362.06,838.72Zm75.49,9.2a18.92,18.92,0,0,1,3.32,7.32q-2.76,1.44-5.54,2.84-0.76-3.94-1.63-7.88,1.81-1.28,3.6-2.58Zm5.07,19.24,0.63,3.88q-2.73.78-5.49,1.49-0.83-5.83-1.91-11.64c1.87-.94,3.73-1.9,5.58-2.86C1441.95,861.16,1442.16,864.33,1442.62,867.16Zm-59.48,30.25c0-3.24-.11-6.48-0.35-9.71l11.24-.26c0.11,3.22.13,6.45,0.14,9.68ZM1224,877.5q4.83,0.4,9.6,1-0.69,6.14-1.59,12.26h-9.41Q1223.28,884.14,1224,877.5Zm14.44-18.88q2.87,2.22,5.63,4.52-0.51,2.32-.93,4.65-2.47-1.33-5-2.61Q1238.38,861.9,1238.47,858.62Zm192.25-6.35q0.79,3.69,1.49,7.39-5.29,2.64-10.66,5.17-0.28-3.14-.56-6.28Q1426,855.5,1430.72,852.27Zm-148,14.71q0.1,3.48.13,7h-14.2l-0.16-6.55Zm18.15-.52q0.47,3.74.87,7.48h-15.48q0-3.53-.13-7.05Zm73.82-1.79a83.35,83.35,0,0,1,2.66,9.27h-16.2q0.08-2.12.18-4.23a10.1,10.1,0,0,0-.81-4.78Q1367.6,864.78,1374.68,864.66Zm16.36-.22a81,81,0,0,1,1.9,9.5h-12.15a85.38,85.38,0,0,0-2.6-9.33Q1384.62,864.51,1391,864.44Zm11.92-.1,2.1,9.59h-8.73a84,84,0,0,0-1.83-9.52Zm14.78-3.84q0.26,2.94.53,5.87-3.09,1.44-6.22,2.84l-1.06-4.86Q1414.41,862.46,1417.75,860.5Zm-5.1,11.4c2-.88,3.93-1.76,5.88-2.66q0.32,3.6.65,7.2c-1.78.3-3.57,0.56-5.36,0.82ZM1356.87,865c1.67,2.49,1.37,5.91,1,8.94h-12.35c0-.24,0-0.48,0-0.72-0.1-2.27.34-5.31-.2-8Zm-15.13.34a34.05,34.05,0,0,1,.19,4.6c0.08,1.33.13,2.66,0.19,4H1325q-0.74-4.08-1.79-8.11Zm-22,.58q1.07,4,1.82,8h-16.39q-0.41-3.79-.89-7.58Zm-54.65,1.56,0.16,6.46h-9.82c0.36-2.08.77-4.16,1.23-6.23Zm-16.33-.31q-0.36,1.67-.68,3.35l-1.78-1q0.33-1.94.72-3.87C1247.58,866.15,1248.17,866.65,1248.74,867.17Zm-1.2,6.23c-0.26,1.55-.49,3.11-0.69,4.67l-1.72-.32c0.2-1.78.44-3.56,0.7-5.34Zm-1,7.22q-0.58,5.07-.76,10.16h-1.67c0.18-3.5.43-7,.77-10.48Zm8.48-4.16h10.29l0.28,11.46-11.79.28C1254,884.27,1254.41,880.36,1255,876.46Zm13.7,0h14.15q0,5.53-.16,11.05l-13.71.32Zm17.57,0H1302q0.55,5.29,1,10.58l-16.87.4Q1286.28,881.95,1286.27,876.46Zm19.16,0H1322c0.54,3.35.95,6.72,1.26,10.1l-16.83.39Q1306,881.71,1305.43,876.46Zm20,0h16.85v0c0.12,3.21.16,6.42,0.17,9.63l-15.79.37C1326.31,883.13,1325.92,879.79,1325.39,876.46Zm20.25,0h12c0,0.26,0,.51,0,0.75-0.07,2.85,0,5.7.08,8.54l-11.85.28C1345.83,882.84,1345.76,879.65,1345.64,876.46Zm15.43,8.74c-0.11-2.92-.08-5.83,0-8.74h16.8c0.57,2.92,1,5.85,1.28,8.79l-18.05.42C1361.09,885.52,1361.08,885.36,1361.07,885.2Zm20.25-8.74h12c0.32,2.81.52,5.63,0.65,8.45l-11.37.27C1382.27,882.26,1381.87,879.36,1381.32,876.46Zm15.34,0h9l1.78,8.13-10.11.24C1397.17,882,1397,879.24,1396.66,876.46Zm17.71,3.29q2.54-.35,5.05-0.76,0.44,4.69.9,9.38-2,.09-4,0.14Zm9.24,7.37q-0.44-4.35-.84-8.71,6.08-1.09,12-2.5,0.75,5.67,1.29,11.35-6.17.6-12.38,0.94Zm-1.07-11.26q-0.37-4.07-.73-8.15,5.5-2.58,10.91-5.27,1,5.44,1.75,10.9Q1428.56,874.76,1422.54,875.85Zm-14.41-17.24a5.33,5.33,0,0,0-1.5-.2l-4,0q0.86-2.35,1.76-4.69,6,0,12.06,0Q1412.36,856.25,1408.13,858.62Zm-9.09-.14c-3.94,0-7.87.05-11.81,0.1q-0.49-2.34-.83-4.69,7.21-.08,14.41-0.12C1400.21,855.33,1399.61,856.9,1399,858.48Zm-15.23.15q-9.1.12-18.19,0.29,0.08-2.35.11-4.7,8.63-.18,17.26-0.28C1383.22,855.5,1383.5,857.06,1383.82,858.63Zm-21.61.36q-10.4.21-20.79,0.46a1.15,1.15,0,0,0,.3-0.58l0.69-4.05q10-.31,19.92-0.52Q1362.28,856.64,1362.21,859Zm-23.77.54-17.51.46-0.54-4.39q9.29-.38,18.59-0.67l-0.67,3.94A0.86,0.86,0,0,0,1338.43,859.53Zm-20.92.56-17.82.51c-0.18-1.35-.39-2.69-0.59-4q8.94-.45,17.88-0.82Zm-21.24.51s0,0.06,0,.09l-14.67.42a1,1,0,0,0,.08-0.77l-0.86-2.79q7.43-.43,14.86-0.81C1295.91,858,1296.11,859.31,1296.28,860.59Zm-17.86.41a1.13,1.13,0,0,0,.09.19l-10.52.3-2.47-3q5.95-.39,11.9-0.74Zm-14.34.6-10.95.3q-1.36-1.2-2.75-2.38l11.35-.78Zm-21.39,9q-0.51,3.25-.89,6.52-2.25-.38-4.52-0.71,0.43-4.15.73-8.3Q1240.36,869.38,1242.68,870.65Zm-1.16,9.06c-0.37,3.68-.63,7.38-0.82,11.08h-5.25q0.87-5.89,1.54-11.8Q1239.26,879.32,1241.52,879.7Zm-9.87,13.6q-0.87,5.69-1.85,11.38l-8.52.77q0.51-6.08,1.09-12.15h9.28Zm3.41,0h5.51c-0.15,3.48-.25,7-0.33,10.43l-7,.63Q1234.21,898.85,1235.06,893.31Zm8.91,0h1.71c0,1.1,0,2.19,0,3.29,0,2.21.12,4.42,0.27,6.63l-2.27.21C1243.73,900.06,1243.83,896.69,1244,893.31Zm9.64,1.69c0-1.42,0-2.85.06-4.27l12-.28,0.22,9.06-12.15.1C1253.66,898.07,1253.62,896.53,1253.61,895Zm15.44-4.63,13.57-.32q-0.17,4.64-.46,9.28l-12.89.15Zm17-.4,17.15-.4q0.36,4.74.64,9.48l-18.25.25Q1285.87,894.63,1286,890Zm20.56-.48,16.84-.39c0.25,3.2.42,6.41,0.56,9.62l-16.76.28Q1307,894.23,1306.6,889.48Zm20.23-.47,15.57-.37c0,0.86,0,1.72,0,2.58q0,3.57-.18,7.14l-14.82.29C1327.26,895.43,1327.08,892.22,1326.83,889Zm19,0.57c0-.34,0-0.68,0-1l12-.28q0.09,1.65.2,3.3c0.14,2.14.35,4.29,0.59,6.42l-13,.28C1345.72,895.39,1345.8,892.49,1345.83,889.58Zm15.39-1.38,18.16-.43c0.25,3.23.35,6.47,0.35,9.72l-17.7.43Q1361.48,893.08,1361.22,888.2Zm36.18-.85,10.55-.25,0.5,2.3c0.16,0.75.92,3.62,1.83,7.23l-12.73.37C1397.55,893.79,1397.51,890.57,1397.4,887.35Zm20.18,7.08-0.75-3.41,3.73-.13c0.31,3.13.64,6.29,1.07,9.44h-2.76Zm6.38-3.71q6.19-.34,12.35-0.94,0.45,5.27.71,10.56h-12C1424.61,897.12,1424.28,893.91,1424,890.71Zm15.72-1.28q3.17-.34,6.33-0.76c0.58,3.88,1.13,7.77,1.64,11.66h-7.23Q1440.16,894.87,1439.69,889.43Zm6-3.26q-3.08.41-6.18,0.74-0.56-5.91-1.36-11.8c1.86-.47,3.71-1,5.56-1.5Q1444.68,879.89,1445.64,886.17Zm-25.23-34.95q-7.52,0-15,0c0.56-1.39,1.11-2.78,1.69-4.17q9.43,0.19,18.87.48Q1423.21,849.41,1420.42,851.22Zm-18.61,0q-7.87,0-15.74.13c-0.18-1.54-.31-3.08-0.4-4.62q8.92,0.08,17.84.24C1402.93,848.4,1402.37,849.82,1401.8,851.23Zm-19.14.17q-8.46.11-16.92,0.28,0-2.51,0-5,8.27,0,16.54,0C1382.36,848.28,1382.49,849.84,1382.67,851.41Zm-20.33.36q-9.75.22-19.5,0.51l0.93-5.44q9.27-.12,18.54-0.15Q1362.35,849.22,1362.33,851.76Zm-22-4.88-0.94,5.5q-9.67.31-19.34,0.7l-0.71-5.78Q1329.85,847,1340.35,846.88Zm-24.15,2.51,0.47,3.84q-9,.38-18,0.82-0.5-3-1.1-6.06,9.24-.35,18.48-0.59C1316.12,848.25,1316.14,849,1316.2,849.39Zm-20.87,4.83q-7.62.39-15.24,0.84l-1.92-6.24q8-.38,16-0.7Q1294.81,851.17,1295.32,854.23Zm-18.67,1q-6.55.39-13.1,0.83l-2.79-3.4c-0.66-.81-1.58-1.76-2.57-2.8q8.26-.48,16.53-0.9Zm-41.94,11.22q-0.31,4.76-.8,9.52-4.77-.61-9.6-1,0.61-5.35,1.26-10.7c0.08-.66.17-1.33,0.25-2Q1230.34,864.31,1234.71,866.48ZM1221.06,908l8.28-.75q-0.85,4.87-1.73,9.73l-7.4,2.28Q1220.6,913.63,1221.06,908Zm22.54-2,2.52-.23q0.24,2.69.58,5.38l-3.23,1Q1243.54,909,1243.6,906Zm10.84,3.43c-0.29-2.42-.49-4.84-0.62-7.27l12.11-.1,0.22,8.78-11.53.39C1254.56,910.58,1254.51,910,1254.44,909.39Zm31-7.58,18.55-.25q0.21,4,.35,8l-19.57.63Q1285.12,906,1285.41,901.82Zm42.09-.64,14.6-.29q-0.18,3.75-.45,7.5l-13.89.41Q1327.63,905,1327.5,901.18Zm34.86-.73,17.36-.43q-0.06,3.65-.27,7.31l-16,.44Q1362.84,904.12,1362.36,900.45Zm20.76-.52,11.06-.3c0,2.44,0,4.87,0,7.31l-11.37.29Q1383.06,903.58,1383.12,899.93Zm14.45-.39,13.36-.39c0.6,2.39,1.23,4.94,1.78,7.33l-15.09.39C1397.59,904.42,1397.58,902,1397.57,899.54Zm21.86,3.32H1422c0.29,1.87.63,3.73,1,5.59l-2.45-.29Zm21.1,0H1448c0.36,2.88.7,5.75,1,8.63l-8.21-1Q1440.7,906.69,1440.54,902.85Zm-8.6-59.59q-1.26.93-2.55,1.84-10.62-.34-21.25-0.56,1.24-2.88,2.55-5.74c3.28,0.22,6.53.53,9.73,1A33.48,33.48,0,0,1,1431.94,843.27Zm-24.76-4.66q-1.33,2.93-2.59,5.87-9.51-.18-19-0.26-0.08-2.88,0-5.78C1392.79,838.32,1400,838.27,1407.17,838.61Zm-25-.11q-0.11,2.85,0,5.68-8.24-.06-16.48,0-0.07-2.72-.2-5.44l3.14,0C1373.07,838.68,1377.61,838.59,1382.18,838.5Zm-66.87.84a27.24,27.24,0,0,1,.69,5.54q-9.46.26-18.91,0.61-0.6-2.88-1.29-5.76c5.38-.11,10.74-0.2,16.08-0.32Zm-22.94.46q0.7,2.91,1.32,5.83-8.15.32-16.3,0.71l-1.85-6C1281.15,840.08,1286.76,839.92,1292.38,839.8Zm-20.29.68,1.86,6q-9,.45-18,1a17.94,17.94,0,0,1-3.77-5.55l5.32-.48C1262.34,841,1267.21,840.72,1272.09,840.47Zm-23.3,1.82c0.63,1.91,2.2,3.7,3.74,5.4q-7.63.47-15.25,1a2.23,2.23,0,0,0-.78.19q-2.12-1.47-4.3-2.89C1236.86,844,1242.94,843,1248.79,842.3ZM1220,922l7.08-2.18q-0.71,3.94-1.4,7.88-3.07,1.63-6.21,3.14Q1219.74,926.46,1220,922Zm25-5.81-1.63,1.06c0-.81,0-1.62.06-2.44l3.61-1.11c0.06,0.56.13,1.13,0.22,1.72A4.73,4.73,0,0,0,1245,916.23Zm10.42-.17a12.07,12.07,0,0,1-.55-2.34l11.34-.38,0.11,4.37h-3.82C1260.27,917.69,1256.21,918.29,1255.41,916.05Zm29.74,1.67a3.39,3.39,0,0,0,0-.88,1.31,1.31,0,0,0-1-1.09c0.11-1,.23-2,0.33-3l19.9-.65c0.06,1.89.1,3.78,0.13,5.67Zm44,0a1.5,1.5,0,0,0-1.13-1q-0.11-2.72-.19-5.46l13.62-.41q-0.28,3.43-.63,6.85h-11.66Zm36.41,0q-0.9-3.75-1.63-7.51l15.35-.43q-0.22,3.24-.52,6.49a1,1,0,0,0-.57,1l0,0.5h-12.66Zm16.47,0c0.26-2.68.48-5.37,0.67-8.05l11.57-.3c0.06,2.75.17,5.5,0.36,8.25C1390.43,917.82,1386.23,917.83,1382,917.82Zm32.27-1.5c-4.64,1.38-11,1.24-16.27,1.33-0.19-2.75-.3-5.51-0.36-8.26l15.61-.4C1414.19,913.06,1414.73,916.19,1414.3,916.32Zm7.83-.78a33.85,33.85,0,0,0-.94-4.63l0-.14,2.49,0.29c0.47,1.88,1,3.75,1.67,5.59l-0.75-.43A5.06,5.06,0,0,0,1422.13,915.54Zm18.49,9.2q0.19-5.84.15-11.67l8.43,1q0.73,7.55,1.23,15.1Q1445.44,927,1440.63,924.74Z" transform="translate(-1075.22 -814.79)"/><path class="cls-4" d="M1163.89,831.79a9.73,9.73,0,0,0-2.64,3.65,2.91,2.91,0,0,0-.35.2,0.4,0.4,0,0,0,0,.67,9.56,9.56,0,0,0-.42,2.9,0.58,0.58,0,0,0,0,.69c0,0.06,0,.13,0,0.19a15.34,15.34,0,0,0,3.58,7.92,11.55,11.55,0,0,0,5,3.33,0.51,0.51,0,0,0,.4.13h0a11.15,11.15,0,0,0,8.27-.26,10,10,0,0,0,5.59-9,12.85,12.85,0,0,0-5.07-10.06l-0.28-.21a0.54,0.54,0,0,0-.6-0.41,13,13,0,0,0-8-2,0.5,0.5,0,0,0-1,.12l-0.43.08a9.28,9.28,0,0,0-3.54,1.58A0.52,0.52,0,0,0,1163.89,831.79Zm0,1.57h0.3l-0.49.21Zm1.11,3.33h0Zm-2.91-.31,0.78,0-0.84.22Zm3-.93,0.13,0v0.09Zm-1.49-1,1.24-.53c0,0.14.09,0.27,0.13,0.41h0C1164.56,834.43,1164,834.48,1163.55,834.5Zm4.32,14h-0.14a3.39,3.39,0,0,0,.58-0.28l0.07,0.28h-0.5Zm-1-1.84-0.74.22h0l-1-.14h0.16a11.75,11.75,0,0,1,1.72-.14Zm1.27,0.5,0,0.18-0.29-.08Zm-0.75-1.26,0.32,0,0.11,0.2A1.17,1.17,0,0,0,1167.35,845.93Zm-1.21-.7a0.29,0.29,0,0,0,.1-0.14l0.43,0.09Zm-2.79-.48a0.3,0.3,0,0,0-.09.15l-0.09-.17Zm2.23,3.27,0,0a7.32,7.32,0,0,0,.86-0.24l0.73,0.15-0.09,0a6.47,6.47,0,0,0-.94.14,0.84,0.84,0,0,0-.27.18Zm10.84-1.22h0Zm1.24,3.18,0.14,0-0.11.06Zm-0.6-2.38h-0.65l0.15,0Zm-2.31,2.55-0.51.12,0-.14Zm0.69,0.72-0.07-.05,0.73-.12Zm2.82-1.2a0.42,0.42,0,0,0,0-.21l0.37,0Zm1.18-.93a0.47,0.47,0,0,0-.19-0.11h0a1,1,0,0,0,.06-0.23,0.41,0.41,0,0,0,0-.13,6.75,6.75,0,0,0,.79-0.13Q1179.74,848.44,1179.43,848.74Zm-1.67-1.85v0l0.15,0h-0.13Zm-0.94-.17,0.06-.06,0.14,0Zm5.41-6a0.9,0.9,0,0,0-.64-0.39l0.55-.16C1182.17,840.39,1182.2,840.58,1182.23,840.76Zm0.1,1.34h-0.05l0.05,0S1182.32,842.09,1182.32,842.1Zm-1.42-3.8a0.39,0.39,0,0,0,.11.17l-0.49.08Zm1.06,1.12-0.28,0,0.26-.05Zm-0.35-1,0-.06,0,0.06h0Zm-2.54.94a0.64,0.64,0,0,0,0,.33,0.83,0.83,0,0,1-.16-0.36Zm0.46,0.75h0.17a0.67,0.67,0,0,0-.17.11l-0.1-.1h0.1Zm2.76,1.26-0.07,0h0a0.32,0.32,0,0,0,.07-0.11v0.15Zm-10.9-9.57c0.15-.24.4-0.43,0.58-0.66l0.4,0.08A2.46,2.46,0,0,1,1171.39,831.8Zm3.22,1.23,0.41-.31a3,3,0,0,1-.29.27Zm0.39-1.42,0.07-.15,0.09,0Zm-1.14-.33,0.14-.2,0.08,0Zm-2.11,1.24-0.15.14-0.09-.1Zm-2.86-1.84a14.17,14.17,0,0,0,1.46,2.07c0.49,0.59,1.4,1.72,2.2,1.82a6.09,6.09,0,0,0,2.7-.58,11.24,11.24,0,0,0,2.28-1.18,11.61,11.61,0,0,1,2,1.89l-1.21,2.72c-0.26.58-.81,1.41-0.53,2.13a5.45,5.45,0,0,0,1.63,1.91l2.71,2.48a9,9,0,0,1-.95,2.53l-3.46-.69a4.42,4.42,0,0,0-2.73,0,2.69,2.69,0,0,0-1.22,1.82l-0.28.11c-0.28.11-.2,0.56,0.07,0.68-0.23.89-.44,1.8-0.65,2.7a10.6,10.6,0,0,1-1.11-.11,0.61,0.61,0,0,0-.32-0.13,9.86,9.86,0,0,1-1.49-.3l-0.08,0-0.67-2.8c-0.21-.86-0.31-2.09-1-2.77a3.86,3.86,0,0,0-2.32-.91l-3.25-.42c-0.23-.55-0.43-1.11-0.61-1.66a8.9,8.9,0,0,1-.41-2,7.87,7.87,0,0,0,4.44-2.82,3.69,3.69,0,0,0,0-2.47,10.06,10.06,0,0,0-.88-2.46l0.08-.06A8.58,8.58,0,0,1,1168.88,830.68Z" transform="translate(-1075.22 -814.79)"/><path class="cls-4" d="M1167.44,838.73l0.71,4.69a0.64,0.64,0,0,0,.63.53,4,4,0,0,0,3,1c1.18,0,2.76.42,3.53-.57a8,8,0,0,0,1.41-3.2,3.41,3.41,0,0,0-.85-3.11,16.89,16.89,0,0,0-1.35-1.35,4.22,4.22,0,0,0-1.47-1.17,3.23,3.23,0,0,0-1.75.24c-0.67.19-1.31,0.42-2,.67a4.31,4.31,0,0,0-1.71.83A1.67,1.67,0,0,0,1167.44,838.73Zm4.69,4.83-1.68-.35a23.08,23.08,0,0,1,2.74.5c0.63,0.16.38,0.12,0.09,0.07Zm2.37-2.41-2.27-.29-0.22,0,0.77,0,2.18,0.27Zm-4.92,1.94a0.33,0.33,0,0,0-.12.09l0,0-0.09-.09Zm4.29,0.08a3.18,3.18,0,0,0-.38-0.15l0.43,0.05Zm1.47-1.09h0v0h0Zm-6.56-2.84,0.23,0-0.32.18-0.06,0,0-.33A0.46,0.46,0,0,0,1168.78,839.24Zm0.18,2.47,0.24,0.06-0.23,0v-0.09h0Zm-0.42-3.55a0.36,0.36,0,0,0,.25.08h0.08a0.33,0.33,0,0,0-.12.23l-0.13,0a0.37,0.37,0,0,0-.15.07A0.7,0.7,0,0,1,1168.54,838.16Zm4.43-1.57,0.06,0-1.18.14A1.75,1.75,0,0,1,1173,836.59Z" transform="translate(-1075.22 -814.79)"/><path class="cls-4" d="M1166.05,850.9c-4.94-3.15-10-6.09-15.08-9-1.21-.7-3.13,1.68-1.74,2.5,5,3,10.1,6,15.27,8.76,1.1,0.59,2.76-1.46,1.56-2.23h0Z" transform="translate(-1075.22 -814.79)"/><path class="cls-4" d="M1157.63,833c-2.88-1.86-6-3.37-9-5-1.13-.61-2.89,1.6-1.59,2.28,3,1.6,6.07,3.38,9.22,4.74,1,0.45,2.52-1.31,1.42-2h0Z" transform="translate(-1075.22 -814.79)"/><path class="cls-4" d="M1160.64,817.94l-3.09-2.94c-0.85-.8-2.59.89-1.76,1.7l3,3c0.86,0.84,2.67-.93,1.81-1.75h0Z" transform="translate(-1075.22 -814.79)"/><path class="cls-4" d="M1095.95,870.08a11.86,11.86,0,0,0-1.15,5.37,3.54,3.54,0,0,0-.29.39,0.48,0.48,0,0,0,.37.72,11.66,11.66,0,0,0,1,3.44,0.7,0.7,0,0,0,.38.76l0.11,0.21a18.69,18.69,0,0,0,7.89,7.06,14.08,14.08,0,0,0,7.18,1.26,0.62,0.62,0,0,0,.52,0h0a13.59,13.59,0,0,0,9.1-4.36,12.2,12.2,0,0,0,1.81-12.78,15.66,15.66,0,0,0-10.61-8.72l-0.41-.09a0.66,0.66,0,0,0-.87-0.16,15.78,15.78,0,0,0-9.93,1.71,0.61,0.61,0,0,0-1,.61l-0.44.3a11.31,11.31,0,0,0-3.17,3.51A0.63,0.63,0,0,0,1095.95,870.08Zm0.77,1.75,0,0,0.29-.12-0.44.48Zm2.88,3.17,0,0v0h0Zm-3.4,1.09,0.85-.41-0.83.66C1096.21,876.25,1096.2,876.17,1096.19,876.08Zm2.84-2.49,0.13-.1,0.06,0.09H1099Zm-2.13-.33,1.12-1.2,0.35,0.4h0C1098,872.68,1097.39,873,1096.9,873.26Zm11.73,13.52-0.16.07a4.13,4.13,0,0,0,.5-0.59l0.21,0.27Zm-2.06-1.54q-0.37.3-.71,0.61l0,0q-0.59.15-1.16,0.33l0.17-.09a14.32,14.32,0,0,1,1.85-1Zm1.66-.07,0.13,0.18-0.36.05Zm-1.46-1,0.34-.21,0.21,0.17A1.42,1.42,0,0,0,1106.77,884.13Zm-1.69-.18a0.36,0.36,0,0,0,0-.2,4.64,4.64,0,0,1,.53-0.11Zm-3.35.84a0.36,0.36,0,0,0,0,.21l-0.18-.15Zm4.09,2.54-0.05,0a8.92,8.92,0,0,0,.84-0.69l0.88-.19-0.09.08a7.88,7.88,0,0,0-1,.62,1,1,0,0,0-.21.33Zm11.49-6.7-0.08,0,0.14-.07Zm2.94,2.93,0.14-.09-0.09.13Zm-1.84-2.36-0.72.32,0.15-.11Zm-1.32,4-0.51.38,0-.17Zm1.13,0.46-0.1,0,0.75-.49Q1118.54,885.41,1118.2,885.66Zm2.55-2.73a0.52,0.52,0,0,0-.12-0.23l0.39-.22Zm0.86-1.62a0.57,0.57,0,0,0-.27,0h-0.06a1.22,1.22,0,0,0,0-.29,0.5,0.5,0,0,0-.07-0.15,8.23,8.23,0,0,0,.81-0.53Q1121.82,880.82,1121.61,881.31Zm-2.77-1.25,0,0,0.18,0Zm-1.14.27a0.37,0.37,0,0,0,0-.1l0.16,0Zm3.1-9.3a1.1,1.1,0,0,0-.91-0.12l0.54-.45C1120.57,870.66,1120.69,870.85,1120.81,871Zm0.77,1.45h-0.06l0-.06Zm-3.45-3.54a0.47,0.47,0,0,0,.21.14l-0.51.33Q1118,869.19,1118.12,869Zm1.73,0.72-0.33.1,0.26-.19Zm-0.88-.94a0.37,0.37,0,0,0,0-.08l0.05,0.05Zm-2.37,2.3a0.78,0.78,0,0,0,.11.39,1,1,0,0,1-.36-0.32Zm0.88,0.61,0.19-.1a0.82,0.82,0,0,0-.13.21l-0.16-.06Zm3.69,0h-0.11a0.38,0.38,0,0,0,0-.16Zm-16.86-5.3c0-.34.23-0.67,0.32-1l0.49-.11A3,3,0,0,1,1104.31,866.39Zm4.19-.21c0.1-.19.2-0.37,0.31-0.55a3.66,3.66,0,0,1-.2.45Zm-0.27-1.78q0-.11,0-0.21h0.12Zm-1.44.19,0.05-.3h0.1Zm-1.74,2.43-0.1.23-0.15-.07Zm-4.1-.64a17.26,17.26,0,0,0,2.64,1.59c0.84,0.41,2.41,1.23,3.35.94a7.42,7.42,0,0,0,2.72-2,13.7,13.7,0,0,0,2-2.43,14.15,14.15,0,0,1,3.18,1.12v3.63c0,0.78-.21,2,0.46,2.64a6.64,6.64,0,0,0,2.76,1.33l4.25,1.43a11,11,0,0,1,.19,3.29l-4.2.94a5.38,5.38,0,0,0-3.06,1.31,3.28,3.28,0,0,0-.47,2.63l-0.26.26c-0.25.26,0.06,0.72,0.41,0.73,0.18,1.11.4,2.22,0.6,3.33a12.92,12.92,0,0,1-1.29.42,0.74,0.74,0,0,0-.42,0,12,12,0,0,1-1.81.39h-0.1l-2.12-2.79c-0.65-.86-1.37-2.18-2.5-2.58a4.7,4.7,0,0,0-3,.12l-3.83,1.14c-0.53-.5-1-1-1.5-1.55a10.85,10.85,0,0,1-1.44-2c1.62-1.39,3.27-3.28,3.56-5.33,0.14-.95-0.7-2-1.24-2.75a12.26,12.26,0,0,0-2.19-2.31l0.06-.1A10.45,10.45,0,0,1,1101,866.38Z" transform="translate(-1075.22 -814.79)"/><path class="cls-4" d="M1103.33,876.06l3.11,4.88a0.78,0.78,0,0,0,1,.28c1.33,0.59,2.67.07,3.87-.42s3.28-.88,3.65-2.37a9.71,9.71,0,0,0,0-4.26,4.15,4.15,0,0,0-2.48-3,20.58,20.58,0,0,0-2.16-.84,5.14,5.14,0,0,0-2.21-.59,3.94,3.94,0,0,0-1.83,1.13c-0.65.54-1.26,1.12-1.85,1.71a5.26,5.26,0,0,0-1.5,1.76A2,2,0,0,0,1103.33,876.06Zm7.61,3.08c-0.68.15-1.36,0.3-2,.43a28.12,28.12,0,0,1,3.3-.79c0.78-.12.48-0.05,0.14,0Zm1.46-3.85-2.67.79-0.26.07,0.85-.41,2.56-.77Zm-4.53,4.58a0.4,0.4,0,0,0-.09.16l-0.07,0-0.14-.05Zm4.82-2a3.87,3.87,0,0,0-.5,0l0.5-.15v0.13Zm1.1-1.94,0,0s0,0,0,0h0Zm-8.71.06,0.26-.08a3.33,3.33,0,0,0-.27.35l0,0.08-0.22-.34A0.56,0.56,0,0,0,1105.07,876Zm1.42,2.66,0.29-.05-0.24.14-0.06-.09h0Zm-2.22-3.75a0.44,0.44,0,0,0,.32,0l0.09,0a0.4,0.4,0,0,0,0,.31l-0.13.1a0.45,0.45,0,0,0-.13.16A0.85,0.85,0,0,1,1104.27,874.88Zm4.17-3.93h0.08l-1.25.73A2.14,2.14,0,0,1,1108.43,870.95Z" transform="translate(-1075.22 -814.79)"/><path class="cls-4" d="M1108.08,890.49c-7-1.05-14.14-1.83-21.22-2.62-1.66-.18-3.52,3-1.41,3.24,7.11,0.84,14.23,1.69,21.37,2.27,1.44,0.12,3.17-2.61,1.25-2.89h0Z" transform="translate(-1075.22 -814.79)"/><path class="cls-4" d="M1089.87,874.72c-4.13-.6-8.35-0.77-12.51-1.1-1.53-.12-3.19,2.83-1.29,3,4.2,0.29,8.44.73,12.65,0.76,1.24,0,2.94-2.37,1.14-2.63h0Z" transform="translate(-1075.22 -814.79)"/><path class="cls-4" d="M1085.79,856.42l-4.9-1.76c-1.26-.45-3.09,1.87-1.68,2.41l4.86,1.83c1.31,0.49,3.16-2,1.73-2.47h0Z" transform="translate(-1075.22 -814.79)"/><path class="cls-4" d="M1499.9,831.31a9.28,9.28,0,0,0-3.54-1.58l-0.43-.08a0.5,0.5,0,0,0-1-.12,13,13,0,0,0-8,2,0.54,0.54,0,0,0-.6.41l-0.28.21a12.85,12.85,0,0,0-5.07,10.06,10,10,0,0,0,5.59,9,11.15,11.15,0,0,0,8.27.26h0a0.51,0.51,0,0,0,.4-0.13,11.55,11.55,0,0,0,5-3.33,15.34,15.34,0,0,0,3.58-7.92c0-.06,0-0.13,0-0.19a0.58,0.58,0,0,0,0-.69,9.56,9.56,0,0,0-.42-2.9,0.4,0.4,0,0,0,0-.67,2.91,2.91,0,0,0-.35-0.2,9.73,9.73,0,0,0-2.64-3.65A0.52,0.52,0,0,0,1499.9,831.31Zm0.8,2.27-0.49-.21h0.3Zm-1.32,3.12h0Zm3-.12-0.84-.22,0.78,0Zm-3.16-1.07v-0.09l0.13,0Zm0.26-1.12h0c0-.14.09-0.28,0.13-0.41l1.24,0.53C1500.39,834.48,1499.83,834.43,1499.47,834.39ZM1496,848.53l0.07-.28a3.39,3.39,0,0,0,.58.28H1496Zm1.41-1.91a11.75,11.75,0,0,1,1.72.14h0.16l-1,.14h0l-0.74-.22Zm-0.89.67-0.29.08,0-.18Zm0.07-1.22,0.11-.2,0.32,0A1.17,1.17,0,0,0,1496.62,846.08Zm1.11-.89,0.43-.09a0.29,0.29,0,0,0,.1.14Zm3.5-.46-0.09.17a0.3,0.3,0,0,0-.09-0.15Zm-2.65,3.51a0.84,0.84,0,0,0-.27-0.18,6.47,6.47,0,0,0-.94-0.14l-0.09,0,0.73-.15a7.32,7.32,0,0,0,.86.24l0,0Zm-10.65-1.45h0Zm-1.2,3.23-0.11-.06,0.14,0Zm1.13-2.45,0.15,0h-0.65Zm2.28,2.56,0,0.14-0.51-.12Zm-1.82.57,0.73,0.12-0.07.05Zm-2.51-1.27,0.37,0a0.42,0.42,0,0,0,0,.21Zm-1.44-1.31a6.75,6.75,0,0,0,.79.13,0.41,0.41,0,0,0,0,.13,1,1,0,0,0,.06.23h0a0.47,0.47,0,0,0-.19.11Q1484.65,848.44,1484.36,848.12Zm2.14-1.22,0.15,0v0h-0.13Zm0.88-.22,0.14,0,0.06,0.06Zm-5.13-6.47,0.55,0.16a0.9,0.9,0,0,0-.64.39C1482.19,840.58,1482.22,840.39,1482.25,840.21Zm-0.18,1.85,0.05,0h-0.05S1482.07,842.07,1482.07,842.06Zm1.8-3.51-0.49-.08a0.39,0.39,0,0,0,.11-0.17Zm-1.42.78,0.26,0.05-0.28,0Zm0.28-.91,0-.06,0,0.06h0Zm2.79,0.91a0.83,0.83,0,0,1-.16.36,0.64,0.64,0,0,0,0-.33Zm-0.57.78-0.1.1a0.67,0.67,0,0,0-.17-0.11H1485Zm-2.85,1.11a0.32,0.32,0,0,0,.07.11h0l-0.07,0v-0.15Zm9.91-10,0.4-.08c0.18,0.24.43,0.42,0.58,0.66A2.46,2.46,0,0,1,1492,831.22Zm-2.36,1.77a3,3,0,0,1-.29-0.27l0.41,0.31Zm-0.43-1.5,0.09,0,0.07,0.15Zm1.09-.4,0.08,0,0.14,0.2Zm2.57,1.46-0.09.1-0.15-.14Zm6.24-.42,0.08,0.06a10.06,10.06,0,0,0-.88,2.46,3.69,3.69,0,0,0,0,2.47,7.87,7.87,0,0,0,4.44,2.82,8.9,8.9,0,0,1-.41,2c-0.18.55-.38,1.11-0.61,1.66l-3.25.42a3.86,3.86,0,0,0-2.32.91c-0.71.68-.82,1.91-1,2.77l-0.67,2.8-0.08,0a9.86,9.86,0,0,1-1.49.3,0.61,0.61,0,0,0-.32.13,10.6,10.6,0,0,1-1.11.11c-0.22-.9-0.42-1.81-0.65-2.7,0.26-.12.35-0.57,0.07-0.68l-0.28-.11a2.69,2.69,0,0,0-1.22-1.82,4.42,4.42,0,0,0-2.73,0l-3.46.69a9,9,0,0,1-.95-2.53l2.71-2.48a5.45,5.45,0,0,0,1.63-1.91c0.28-.73-0.27-1.55-0.53-2.13l-1.21-2.72a11.61,11.61,0,0,1,2-1.89,11.24,11.24,0,0,0,2.28,1.18,6.09,6.09,0,0,0,2.7.58c0.81-.09,1.71-1.23,2.2-1.82a14.17,14.17,0,0,0,1.46-2.07A8.58,8.58,0,0,1,1499.13,832.14Z" transform="translate(-1075.22 -814.79)"/><path class="cls-4" d="M1496.7,837.27a4.31,4.31,0,0,0-1.71-.83c-0.64-.25-1.29-0.48-2-0.67a3.23,3.23,0,0,0-1.75-.24,4.22,4.22,0,0,0-1.47,1.17,16.89,16.89,0,0,0-1.35,1.35,3.41,3.41,0,0,0-.85,3.11,8,8,0,0,0,1.41,3.2c0.77,1,2.34.6,3.53,0.57a4,4,0,0,0,3-1,0.64,0.64,0,0,0,.63-0.53l0.71-4.69A1.67,1.67,0,0,0,1496.7,837.27Zm-5.61,6.52c-0.28.05-.53,0.09,0.09-0.07a23.08,23.08,0,0,1,2.74-.5l-1.68.35Zm-1.68-2.71,2.18-.27,0.77,0-0.22,0-2.27.29Zm5.63,2-0.09.09,0,0a0.33,0.33,0,0,0-.12-0.09Zm-4.58,0,0.43-.05a3.18,3.18,0,0,0-.38.15Zm-1.44-1v0h0Zm6.78-2.93,0,0.33-0.06,0-0.32-.18,0.23,0A0.46,0.46,0,0,0,1495.82,839.17Zm-0.39,2.54v0.09l-0.23,0,0.24-.06h0Zm0.48-3.15a0.37,0.37,0,0,0-.15-0.07l-0.13,0a0.33,0.33,0,0,0-.12-0.23h0.08a0.36,0.36,0,0,0,.25-0.08A0.7,0.7,0,0,1,1495.91,838.56Zm-3.37-1.81-1.18-.14,0.06,0A1.75,1.75,0,0,1,1492.54,836.76Z" transform="translate(-1075.22 -814.79)"/><path class="cls-4" d="M1499.51,852.95c5.13-2.82,10.18-5.8,15.22-8.78,1.49-.88.88-3.12-0.88-2.1-5.07,3-10.15,5.9-15.13,9-1.31.82-.81,2.75,0.79,1.87h0Z" transform="translate(-1075.22 -814.79)"/><path class="cls-4" d="M1507.55,835.06c3.23-1.46,6.33-3.25,9.46-4.91,1.4-.74.83-2.8-0.81-1.92-3,1.63-6.16,3.17-9.09,5-0.91.56-1,2.48,0.44,1.85h0Z" transform="translate(-1075.22 -814.79)"/><path class="cls-4" d="M1505.27,819.46l3.05-3a0.92,0.92,0,1,0-1.21-1.25l-3.08,2.95a0.95,0.95,0,1,0,1.24,1.29h0Z" transform="translate(-1075.22 -814.79)"/><path class="cls-4" d="M1568,869.24a11.31,11.31,0,0,0-3.17-3.51l-0.44-.3a0.61,0.61,0,0,0-1-.61,15.78,15.78,0,0,0-9.93-1.71,0.66,0.66,0,0,0-.87.16l-0.41.09a15.66,15.66,0,0,0-10.61,8.72,12.2,12.2,0,0,0,1.81,12.78,13.59,13.59,0,0,0,9.1,4.36h0a0.62,0.62,0,0,0,.52,0,14.08,14.08,0,0,0,7.18-1.26,18.69,18.69,0,0,0,7.89-7.06l0.11-.21a0.7,0.7,0,0,0,.38-0.76,11.66,11.66,0,0,0,1-3.44,0.48,0.48,0,0,0,.37-0.72,3.54,3.54,0,0,0-.29-0.39,11.86,11.86,0,0,0-1.15-5.37A0.63,0.63,0,0,0,1568,869.24Zm-0.22,2.92-0.44-.48,0.29,0.12,0,0Zm-3,2.83v0l0,0h0Zm3.4,1.34-0.83-.66,0.85,0.41C1568.19,876.17,1568.18,876.25,1568.17,876.34Zm-3-2.75,0.06-.09,0.13,0.1h-0.18Zm0.84-1.12h0l0.35-.4,1.12,1.2C1567,873,1566.4,872.68,1566,872.47Zm-10.81,14.07,0.21-.27a4.13,4.13,0,0,0,.5.59l-0.16-.07Zm2.51-1.43a14.32,14.32,0,0,1,1.85,1l0.17,0.09q-0.58-.18-1.16-0.33l0,0q-0.35-.32-0.71-0.61Zm-1.32.31-0.36-.05,0.13-.18Zm0.68-1.32,0.21-.17,0.34,0.21A1.42,1.42,0,0,0,1557.07,884.09Zm1.68-.45a4.64,4.64,0,0,1,.53.11,0.36,0.36,0,0,0,0,.2Zm4.13,1.21-0.18.15a0.36,0.36,0,0,0,0-.21Zm-4.69,2.61a1,1,0,0,0-.21-0.33,7.88,7.88,0,0,0-1-.62l-0.09-.08,0.88,0.19a8.92,8.92,0,0,0,.84.69l-0.05,0ZM1547,880.6l0.14,0.07-0.08,0Zm-2.93,3-0.09-.13,0.14,0.09Zm2.46-2.18,0.15,0.11-0.72-.32Zm1.28,4,0,0.17-0.51-.38Zm-2.31-.26,0.75,0.49-0.1,0Q1545.85,885.41,1545.54,885.14Zm-2.17-2.66,0.39,0.22a0.52,0.52,0,0,0-.12.23Zm-1-2.17a8.23,8.23,0,0,0,.81.53,0.5,0.5,0,0,0-.07.15,1.22,1.22,0,0,0,0,.29h-0.06a0.57,0.57,0,0,0-.27,0Q1542.57,880.83,1542.41,880.32Zm3-.31,0.18,0,0,0Zm1.09,0.19,0.16,0a0.37,0.37,0,0,0,0,.1Zm-2.53-9.73,0.54,0.45a1.1,1.1,0,0,0-.91.12C1543.7,870.85,1543.83,870.66,1544,870.47Zm-1.11,2,0,0.06h-0.06Zm3.74-3-0.51-.33a0.47,0.47,0,0,0,.21-0.14Q1546.42,869.19,1546.58,869.42Zm-2,.17,0.26,0.19-0.33-.1Zm0.77-.88,0.05-.05a0.37,0.37,0,0,0,0,.08Zm2.66,2.39a1,1,0,0,1-.36.32,0.78,0.78,0,0,0,.11-0.39Zm-1,.59-0.16.06a0.82,0.82,0,0,0-.13-0.21l0.19,0.1Zm-3.72-.17a0.38,0.38,0,0,0,0,.16h-0.11Zm16-6.27,0.49,0.11c0.08,0.35.27,0.68,0.32,1A3,3,0,0,1,1559.28,865.26Zm-3.5.81a3.66,3.66,0,0,1-.2-0.45c0.11,0.18.21,0.37,0.31,0.55Zm0.26-1.88h0.12q0,0.1,0,.21Zm1.4,0.09h0.1l0.05,0.3Zm2.14,2.9-0.15.07-0.1-.23Zm7.16,2.61,0.06,0.1a12.26,12.26,0,0,0-2.19,2.31c-0.54.76-1.38,1.8-1.24,2.75,0.3,2,1.94,3.94,3.56,5.33a10.85,10.85,0,0,1-1.44,2c-0.47.53-1,1-1.5,1.55l-3.83-1.14a4.7,4.7,0,0,0-3-.12c-1.13.4-1.85,1.72-2.5,2.58l-2.12,2.79h-0.1a12,12,0,0,1-1.81-.39,0.74,0.74,0,0,0-.42,0,12.92,12.92,0,0,1-1.29-.42c0.2-1.11.42-2.22,0.6-3.33,0.36,0,.67-0.47.41-0.73l-0.26-.26a3.28,3.28,0,0,0-.47-2.63,5.38,5.38,0,0,0-3.06-1.31l-4.2-.94a11,11,0,0,1,.19-3.29l4.25-1.43a6.64,6.64,0,0,0,2.76-1.33c0.67-.67.46-1.86,0.46-2.64v-3.63a14.15,14.15,0,0,1,3.18-1.12,13.7,13.7,0,0,0,2,2.43,7.42,7.42,0,0,0,2.72,2c0.94,0.29,2.51-.53,3.35-0.94a17.26,17.26,0,0,0,2.64-1.59A10.45,10.45,0,0,1,1566.75,869.78Z" transform="translate(-1075.22 -814.79)"/><path class="cls-4" d="M1561.52,874.31a5.26,5.26,0,0,0-1.5-1.76c-0.59-.59-1.2-1.17-1.85-1.71a3.94,3.94,0,0,0-1.83-1.13,5.14,5.14,0,0,0-2.21.59,20.58,20.58,0,0,0-2.16.84,4.15,4.15,0,0,0-2.48,3,9.71,9.71,0,0,0,0,4.26c0.37,1.49,2.32,1.83,3.65,2.37s2.54,1,3.87.42a0.78,0.78,0,0,0,1-.28l3.11-4.88A2,2,0,0,0,1561.52,874.31Zm-9.46,4.5c-0.34-.08-0.64-0.16.14,0a28.12,28.12,0,0,1,3.3.79c-0.68-.14-1.36-0.28-2-0.43Zm-0.54-3.84,2.56,0.77,0.85,0.41-0.26-.07-2.67-.79Zm5.3,5-0.14.05-0.07,0a0.4,0.4,0,0,0-.09-0.16Zm-5.11-2.23,0.5,0.15a3.87,3.87,0,0,0-.5,0v-0.13Zm-1.12-1.8s0,0,0,0l0,0h0Zm9,0.07-0.22.34,0-.08a3.33,3.33,0,0,0-.27-0.35l0.26,0.08A0.56,0.56,0,0,0,1559.59,876Zm-1.68,2.64-0.06.09-0.24-.14,0.29,0.05h0Zm2.08-3.27a0.45,0.45,0,0,0-.13-0.16l-0.13-.1a0.4,0.4,0,0,0,0-.31l0.09,0a0.44,0.44,0,0,0,.32,0A0.85,0.85,0,0,1,1560,875.36Zm-2.86-3.67-1.25-.73H1556A2.14,2.14,0,0,1,1557.12,871.69Z" transform="translate(-1075.22 -814.79)"/><path class="cls-4" d="M1556.67,893.37c7.1-.59,14.19-1.43,21.26-2.27,1.71-.2,2.92-3.48.6-3.22-7.12.79-14.24,1.58-21.33,2.61-1.49.22-2.64,3-.54,2.87h0Z" transform="translate(-1075.22 -814.79)"/><path class="cls-4" d="M1574.52,877.35c4.29,0,8.6-.48,12.88-0.77,1.58-.11,2.68-3.11.55-2.94-4.2.33-8.44,0.52-12.61,1.09-1.07.15-2.46,2.63-.82,2.62h0Z" transform="translate(-1075.22 -814.79)"/><path class="cls-4" d="M1579.56,858.86l4.88-1.83a1.83,1.83,0,0,0,1.2-1.69,0.94,0.94,0,0,0-1.39-.67l-4.88,1.76c-1.43.52-1.68,3.13,0.19,2.43h0Z" transform="translate(-1075.22 -814.79)"/><circle class="cls-5" cx="257.51" cy="16.35" r="15.07"/><path class="cls-5" d="M1350.65,863.37c0-.88-0.06-1.77-0.16-2.68l0.14,0a18.29,18.29,0,0,0-7.19-11.23l-0.7-.17,0,0q-1-.46-2-0.86h0a27.27,27.27,0,0,0-21-.19,89.31,89.31,0,0,0-4.42,12h0c-1.29,10.71,7.23,22.11-.87,33.05l0.75,0.31,15.22,3.31a32.43,32.43,0,0,0,15.37-2.53l0.71-.25C1345.38,883.64,1350.84,874.15,1350.65,863.37Z" transform="translate(-1075.22 -814.79)"/><path class="cls-5" d="M1320.13,852.5c-7.64-4.23-16.61-4.85-22.91-11.52-6.07-6.43-10.69-14.18-20.65-13.94-5.32.13-5.34,8.43,0,8.29,4.95-.13,8.07,3.4,11,6.93,2.68,3.24,5.35,6.25,8.93,8.53,6.2,3.95,15.12,6.56,22.49,6,2.16-.16,3.29-3.12,1.16-4.3h0Z" transform="translate(-1075.22 -814.79)"/><path class="cls-5" d="M1318.41,855.95c-2.78,1.06-5.13,2.42-8.2,2.51a63.39,63.39,0,0,1-12-1.12c-6.14-1-12.37-2.32-18,1.08-3.79,2.28-.47,7.71,3.42,5.86,6.91-3.29,16.4.11,23.78-.09,4.78-.13,11.77-1.37,12.46-7.13a1.15,1.15,0,0,0-1.45-1.11h0Z" transform="translate(-1075.22 -814.79)"/><path class="cls-6" d="M1278.51,829.32c-2.5-.75-3.57-3.36-5.48-5a7.84,7.84,0,0,0-3.49-1.7,4.12,4.12,0,0,0-2.95.3,1.65,1.65,0,0,0-.61,2.4,4.38,4.38,0,0,0-5.55.16,3.44,3.44,0,0,0,.22,5,4.38,4.38,0,0,0,5.55-.24,2.56,2.56,0,0,0-2.75,2.89,3.57,3.57,0,0,0,3.66,2.39,5.43,5.43,0,0,0,4-2.25,1.42,1.42,0,0,0,1.05,1.94,2.76,2.76,0,0,0,2.48-.76,6.8,6.8,0,0,0,1.36-2.14" transform="translate(-1075.22 -814.79)"/><path class="cls-6" d="M1280.5,858.5c0.21,0,0-.35-0.16-0.43-2-.81-4.08-1.63-6.15-1.17a7.75,7.75,0,0,0-4.85,4.3,5.31,5.31,0,0,0-.71,2.42,2.4,2.4,0,0,0,1.16,2.13,1.58,1.58,0,0,0,2.15-.69c-1,.82-2.2,1.94-1.93,3.24a2.33,2.33,0,0,0,1.63,1.64,4.9,4.9,0,0,0,2.4,0,11.26,11.26,0,0,0,3.41-1.26c-0.53,1,.66,2.29,1.82,2.19a3.45,3.45,0,0,0,2.54-2.13c0.51-1,.76-2.2,1.35-3.2s1.6-2.26.93-3.27" transform="translate(-1075.22 -814.79)"/><path class="cls-5" d="M1316.86,863.35c-2.72,2.15-4.69,4-8.13,5.08a76.39,76.39,0,0,1-11.46,2.3c-5.74.82-11.79,1.55-15.83,6.18-2.85,3.27,1.58,7.8,4.8,4.8,5.44-5.08,15.16-5,22-7.11,4.65-1.46,11.66-4.79,10.53-10.74a1.16,1.16,0,0,0-1.92-.51h0Z" transform="translate(-1075.22 -814.79)"/><path class="cls-6" d="M1281.65,877c0.2-.09-0.07-0.34-0.29-0.36-2.11-.18-4.38-0.33-6.22.73a7.75,7.75,0,0,0-3.34,5.56,5.31,5.31,0,0,0,.05,2.52,2.4,2.4,0,0,0,1.75,1.68,1.58,1.58,0,0,0,1.84-1.31c-0.74,1.1-1.51,2.51-.87,3.67a2.33,2.33,0,0,0,2,1.08,4.9,4.9,0,0,0,2.3-.7,11.26,11.26,0,0,0,2.88-2.23c-0.2,1.14,1.32,2,2.39,1.54a3.45,3.45,0,0,0,1.78-2.8c0.17-1.15.07-2.33,0.33-3.45s0.84-2.64-.09-3.4" transform="translate(-1075.22 -814.79)"/><path class="cls-5" d="M1344.56,860c7.37,0.54,16.28-2.07,22.49-6a36.08,36.08,0,0,0,8.46-8c3-3.7,6.25-7.64,11.45-7.5s5.33-8.16,0-8.29c-10-.24-14.58,7.51-20.65,13.94-6.31,6.68-15.27,7.3-22.91,11.52-2.12,1.18-1,4.14,1.16,4.3h0Z" transform="translate(-1075.22 -814.79)"/><path class="cls-5" d="M1346.7,860c1.23,6,9.42,6.15,14.14,5.7,7.38-.71,15.93-4.33,23.11-1.65,3.58,1.34,6.06-4.52,2.61-6.2-6-2.92-11.9-1.3-18,.27a72.44,72.44,0,0,1-11.17,2.16c-3.52.32-6-.77-9.23-1.69a1.16,1.16,0,0,0-1.41,1.41h0Z" transform="translate(-1075.22 -814.79)"/><path class="cls-6" d="M1385,832.52c2.5-.75,3.57-3.36,5.48-5a7.84,7.84,0,0,1,3.49-1.7,4.12,4.12,0,0,1,2.95.3,1.65,1.65,0,0,1,.61,2.4,4.38,4.38,0,0,1,5.55.16,3.44,3.44,0,0,1-.22,5,4.38,4.38,0,0,1-5.55-.24,2.56,2.56,0,0,1,2.75,2.89,3.57,3.57,0,0,1-3.66,2.39,5.43,5.43,0,0,1-4-2.25,1.42,1.42,0,0,1-1.05,1.94,2.76,2.76,0,0,1-2.48-.76,6.8,6.8,0,0,1-1.36-2.14" transform="translate(-1075.22 -814.79)"/><path class="cls-6" d="M1386,857.84c-0.21,0-.06-0.35.13-0.44,1.88-1,3.92-2,6-1.7a7.75,7.75,0,0,1,5.21,3.86,5.31,5.31,0,0,1,.91,2.35,2.4,2.4,0,0,1-1,2.22,1.58,1.58,0,0,1-2.2-.5c1.11,0.73,2.36,1.74,2.2,3.06a2.33,2.33,0,0,1-1.48,1.78,4.9,4.9,0,0,1-2.39.23,11.26,11.26,0,0,1-3.51-1c0.62,1-.46,2.34-1.62,2.34a3.45,3.45,0,0,1-2.72-1.91c-0.59-1-.95-2.12-1.62-3.07s-1.78-2.12-1.21-3.18" transform="translate(-1075.22 -814.79)"/><path class="cls-5" d="M1349.38,864.47c-1.17,5.95,5.86,9.32,10.49,10.8,6.85,2.2,16.54,2.13,22,7.25,3.21,3,7.63-1.51,4.8-4.8-4-4.7-10.2-5.43-16-6.29a89.72,89.72,0,0,1-10.58-2.15c-3.77-1-5.83-3-8.76-5.31a1.16,1.16,0,0,0-1.92.51h0Z" transform="translate(-1075.22 -814.79)"/><path class="cls-6" d="M1386.43,877.85c-0.19-.09.08-0.34,0.29-0.36,2.11-.17,4.38-0.3,6.21.77a7.75,7.75,0,0,1,3.3,5.58,5.31,5.31,0,0,1-.07,2.52,2.4,2.4,0,0,1-1.76,1.67,1.58,1.58,0,0,1-1.83-1.32c0.74,1.1,1.5,2.52.84,3.68a2.33,2.33,0,0,1-2.05,1.06,4.9,4.9,0,0,1-2.29-.71,11.26,11.26,0,0,1-2.86-2.25c0.19,1.14-1.33,2-2.4,1.53a3.45,3.45,0,0,1-1.77-2.81c-0.16-1.15-.05-2.33-0.31-3.45s-0.83-2.64.11-3.4" transform="translate(-1075.22 -814.79)"/><path class="cls-5" d="M1356.77,935.48c3.08-5.81.75-14.69-1-20.63-1.13-3.8-2.54-7.5-4-11.17s-2.57-7.77-4.9-10.82c-2.54-3.33-7.23-1.37-6.63,2.79,0.48,3.33,2.35,6.51,3.68,9.61,1.53,3.58,3.12,7.15,4.42,10.82a82.52,82.52,0,0,1,2.92,10.38c0.65,3,.67,6.24,2.13,9a2,2,0,0,0,3.44,0h0Z" transform="translate(-1075.22 -814.79)"/><path class="cls-5" d="M1311,935.48c1.46-2.76,1.49-6,2.13-9a81.78,81.78,0,0,1,2.92-10.38c1.31-3.67,2.89-7.24,4.42-10.82,1.32-3.09,3.2-6.28,3.68-9.61,0.6-4.14-4.07-6.14-6.63-2.79-2.33,3-3.45,7.28-4.9,10.82s-2.91,7.37-4,11.17c-1.77,5.94-4.1,14.82-1,20.63a2,2,0,0,0,3.44,0h0Z" transform="translate(-1075.22 -814.79)"/><path class="cls-6" d="M1357.17,934.57a19.12,19.12,0,0,0,7.72,2.57c1.37,0.15,3.07.35,3.56,1.64a2.71,2.71,0,0,1-.81,2.67,5.08,5.08,0,0,1-5.39,1.4,6.52,6.52,0,0,0-1.78-.65c-1.22-.1-2.17,1-3.19,1.65a0.72,0.72,0,0,1-.42.16,0.76,0.76,0,0,1-.4-0.19l-2.58-1.95a4,4,0,0,1-1.27-1.31c-0.18-.35-0.25-0.75-0.43-1.1a6.47,6.47,0,0,0-.66-0.86,4.3,4.3,0,0,1,.59-5.71" transform="translate(-1075.22 -814.79)"/><path class="cls-6" d="M1306.39,933.1c-0.94,3.09-3.34,6.14-6.56,6.28-1.17,0-2.37-.3-3.51,0s-2.11,1.7-1.39,2.63a2.2,2.2,0,0,0,.48.43,10.35,10.35,0,0,0,10.71.64,4.1,4.1,0,0,1,.81-0.38,3.76,3.76,0,0,1,1.56,0,19,19,0,0,0,8.31-.68,0.48,0.48,0,0,0,.26-0.89c-2.12-2.85-5.24-5.14-6.17-8.57" transform="translate(-1075.22 -814.79)"/><circle class="cls-7" cx="257.51" cy="16.55" r="15.07"/><path class="cls-4" d="M1337.23,829.52a2.77,2.77,0,0,0,2.75-2.45h-5.5A2.77,2.77,0,0,0,1337.23,829.52Z" transform="translate(-1075.22 -814.79)"/><path class="cls-4" d="M1327.71,829.52a2.77,2.77,0,0,0,2.75-2.45H1325A2.77,2.77,0,0,0,1327.71,829.52Z" transform="translate(-1075.22 -814.79)"/><path class="cls-8" d="M1328.81,834.78s5.82-.63,8.16.4" transform="translate(-1075.22 -814.79)"/><path class="cls-4" d="M1339.08,834a6.89,6.89,0,0,1-.31,4.68c-0.1.23,0.24,0.43,0.34,0.2a7.33,7.33,0,0,0,.35-5,0.19,0.19,0,0,0-.38.1h0Z" transform="translate(-1075.22 -814.79)"/><path class="cls-4" d="M1325.89,832.62c-0.24,1.43-.53,3.45.34,4.71,0.14,0.21.48,0,.34-0.2-0.78-1.14-.52-3.12-0.3-4.41,0-.24-0.33-0.35-0.38-0.1h0Z" transform="translate(-1075.22 -814.79)"/><path class="cls-4" d="M1333.82,835.67a1.14,1.14,0,0,1-.2-0.12,2.85,2.85,0,0,0-.81,0,11.94,11.94,0,0,0-1.61.16c-0.25,0-.14.42,0.1,0.38a11.1,11.1,0,0,1,1.8-.15,1.25,1.25,0,0,1,.42.05,0.63,0.63,0,0,0,.3.09,0.19,0.19,0,0,0,0-.39h0Z" transform="translate(-1075.22 -814.79)"/><rect class="cls-4" x="249.36" y="11.86" width="16.28" height="0.42"/><polyline class="cls-9" points="244.5 33.84 244.97 33.57 244.02 34.94 247.97 32.66 243.68 35.74 249.7 32.26 243.28 36.7 251.4 32.01 243.03 37.29 252.45 31.86 242.77 37.96 253.5 31.77 242.51 38.63 254.38 31.77 242.08 39.74 255.85 31.79 241.69 40.84 257.32 31.81 241.37 41.75 258.3 31.98 241.03 42.71 259.32 32.15 240.73 43.69 260.4 32.34 240.42 44.73 261.53 32.54 240.24 45.32 262.06 32.72 240.13 45.99 262.72 32.95 240.12 46.45 263.22 33.11 240.11 47.31 264.15 33.43 240.09 48.03 264.92 33.69 240.08 48.68 265.62 33.93 240.12 49.32 266.28 34.21 240.17 49.91 266.9 34.48 240.24 50.61 267.65 34.79 240.31 51.37 268.46 35.12 240.36 51.93 268.89 35.46 240.42 52.34 269.21 35.72 240.51 52.87 269.6 36.08 240.59 53.31 269.93 36.37 240.72 54.05 270.45 36.88 240.83 54.67 270.87 37.33 240.94 55.29 271.28 37.77 241.08 55.95 271.7 38.27 241.19 56.48 272 38.68 241.3 57 272.31 39.09 241.39 57.46 272.59 39.45 241.51 58 272.87 39.89 241.67 58.78 273.25 40.54 241.75 59.18 273.45 40.88 241.89 59.91 273.81 41.48 242.01 60.52 274.04 42.03 242.11 61.04 274.24 42.49 242.19 61.46 274.4 42.86 242.33 62.2 274.68 43.53 242.43 62.93 274.88 44.2 242.49 63.38 275 44.61 242.56 63.88 275.13 45.08 242.67 64.6 275.31 45.75 242.73 65.34 275.26 46.56 242.77 66.11 275.31 47.33 242.82 66.89 275.36 48.1 242.85 67.4 275.39 48.61 242.83 68.09 275.38 49.3 242.79 68.76 275.35 49.97 242.76 69.31 275.33 50.5 242.72 69.86 275.3 51.05 242.61 70.79 275.27 51.94 242.49 71.38 275.24 52.47 242.32 72.18 275.17 53.22 242.17 72.91 275.07 53.91 242.01 73.44 275 54.4 241.74 74.12 274.92 54.96 241.41 74.94 274.82 55.66 241.16 75.58 274.74 56.19 240.74 76.39 274.64 56.82 240.06 77.5 274.47 57.63 239.59 78.25 274.36 58.18 239.8 78.88 274.18 59.03 240.5 79.07 274.04 59.7 241.52 79.29 273.85 60.63 242.44 79.49 273.65 61.47 243.4 79.7 273.44 62.35 244.35 79.91 273.23 63.23 245.16 80.08 273.05 63.98 245.9 80.24 272.9 64.65 246.5 80.38 272.77 65.21 247.46 80.58 272.58 66.08 248.1 80.72 272.45 66.67 248.84 80.89 272.29 67.34 249.85 81.11 272.1 68.26 250.9 81.33 271.94 69.19 251.52 81.47 271.84 69.73 252.39 81.66 271.71 70.51 253.49 81.9 271.54 71.48 254.47 82.11 271.44 72.31 255.23 82.28 271.38 72.95 256.07 82.29 271.34 73.48 257.36 82.3 271.27 74.27 258.31 82.31 271.22 74.85 259.89 82.25 271.16 75.74 261.62 82.09 271.2 76.56 263.34 81.9 271.23 77.34 264.98 81.54 271.26 77.92 267.03 81.07 271.29 78.61 269.91 80.01 271.32 79.2"/><polyline class="cls-9" points="198.67 13.64 200.22 12.74 197.78 15.03 202 12.6 197.57 15.67 202.8 12.66 197.5 16.26 203.63 12.72 197.47 16.84 204.49 12.79 197.54 17.37 205.19 12.95 197.61 17.88 205.84 13.13 197.85 18.44 206.65 13.36 198.03 18.86 207.26 13.53 198.5 19.45 208.14 13.88 198.84 19.83 208.67 14.15 199.49 20.19 209.36 14.49 199.94 20.44 209.84 14.73 201.13 20.61 210.58 15.16 201.85 20.7 210.97 15.44 203.12 20.84 211.65 15.92 204.12 21.02 212.24 16.33 204.94 21.33 212.82 16.78 205.73 21.63 213.34 17.24 206.23 21.84 213.67 17.54 206.72 22.14 214.07 17.9 207.27 22.49 214.52 18.31 207.85 22.86 214.99 18.73 208.27 23.13 215.3 19.07 208.75 23.53 215.72 19.5 209.22 23.94 216.14 19.95 209.72 24.36 216.58 20.41 210.21 24.78 217.01 20.86 210.7 25.28 217.47 21.37 211.05 25.64 217.79 21.75 211.38 25.97 218.1 22.09 211.86 26.47 218.55 22.6 212.32 26.97 219 23.11 212.7 27.4 219.38 23.54 213.09 27.85 219.77 23.99 213.48 28.29 220.16 24.43 213.8 28.66 220.48 24.8 214.13 29.03 220.81 25.17 214.56 29.54 221.25 25.68 214.94 29.97 221.68 26.08 215.44 30.55 222.24 26.63 215.89 31.07 222.75 27.11 216.4 31.62 223.3 27.64 216.9 32.18 223.87 28.16 217.21 32.52 224.26 28.44 217.73 33.06 224.92 28.91 218.06 33.38 225.32 29.19 218.5 33.8 225.84 29.56 218.81 34.1 226.21 29.83 219.39 34.65 226.95 30.28 219.94 35.06 227.61 30.64 220.28 35.32 228 30.86 220.92 35.81 228.77 31.27 221.26 36.06 229.18 31.5 221.88 36.42 229.85 31.82 222.35 36.68 230.38 32.05 223.04 37.07 231.15 32.39 223.71 37.44 231.9 32.72 224.3 37.77 232.56 33 225.12 38.17 233.47 33.35 225.88 38.49 234.27 33.65 226.38 38.71 234.8 33.85 226.89 38.93 235.33 34.06 227.37 39.14 235.84 34.25 228.17 39.48 236.69 34.56 228.95 39.74 237.44 34.84 229.56 39.94 238.03 35.05 230.19 40.14 238.63 35.27 230.96 40.39 239.34 35.55 231.59 40.59 239.93 35.78 232.38 40.81 240.62 36.05 233.17 40.99 241.28 36.31 234.03 41.18 241.98 36.6 235 41.4 242.72 36.94 236.03 41.62 243.51 37.3 236.87 41.73 244.09 37.56 237.95 41.86 244.82 37.9 238.61 41.94 245.17 38.15 239.67 42.07 245.67 38.61 241.09 42.13 245.97 39.31 242.5 42.16 245.97 40.15 243.63 42.18 245.6 41.04"/><polyline class="cls-9" points="204.65 44.22 206.01 43.44 203.62 45.56 209.38 42.23 203.44 46.12 210.64 41.96 203.44 46.88 212.2 41.82 203.5 47.3 213.14 41.74 203.74 47.9 214.35 41.77 203.99 48.39 215.41 41.8 204.31 48.76 216.25 41.86 204.65 49.16 217.13 41.96 205.07 49.41 217.84 42.04 205.6 49.72 218.72 42.14 206.53 49.9 219.71 42.3 207.45 49.85 220.35 42.4 209.29 49.29 221.04 42.5 211.41 48.63 221.81 42.63 212.9 48.41 222.66 42.77 214.26 48.26 223.52 42.91 215.61 48.23 224.53 43.08 216.99 48.21 225.59 43.25 217.75 48.26 226.28 43.34 218.47 48.31 226.94 43.42 219.56 48.38 227.94 43.54 220.72 48.49 229.05 43.68 221.42 48.57 229.74 43.77 222.28 48.66 230.66 43.82 223.54 48.81 232.09 43.87 224.46 48.92 233.14 43.91 225.31 49.03 234.12 43.95 226.41 49.15 235.7 43.79 227.56 49.27 237.78 43.37 228.38 49.35 240.04 42.62 229.15 49.41 242.7 41.58 230.24 49.45 244.02 41.5 231.16 49.49 244.37 41.86 232.26 49.48 244.55 42.39 233.91 49.4 244.41 43.34 234.95 49.29 244.22 43.94 236.62 49.03 243.87 44.84 238.01 48.72 243.25 45.69 240.22 47.93 241.92 46.95"/><path class="cls-4" d="M1278.7,828.86c-3.75-1.56-4.79-6-9.15-6.73-2.39-.41-5.28.72-4.22,3.56l1-.77c-2.9-1.92-7.79-.74-7.55,3.4s5.19,4.75,7.91,2.63a0.69,0.69,0,0,0-.48-1.17c-2.48.23-4.46,2.48-2.88,4.87,2.07,3.13,6.34,1.58,8.31-.68l-1.14-.66a2.19,2.19,0,0,0,1.71,2.81c2.2,0.5,3.62-1.58,4.43-3.24,0.38-.79-0.79-1.48-1.18-0.69q-0.69,2.18-3.64,1.49c0.09-.6-0.64-1.24-1.14-0.66a3.28,3.28,0,0,1-1.69,1.32q-2.63,2.22-2.77-3.18l-0.48-1.17q-5.54,3.11-4.27-4.22a3.74,3.74,0,0,1,4.19.35,0.69,0.69,0,0,0,1-.77c-1.22-3.27,4.5-1.31,5.27-.8a16,16,0,0,1,2.85,2.95,9.2,9.2,0,0,0,3.56,2.71c0.81,0.34,1.17-1,.36-1.32h0Z" transform="translate(-1075.22 -814.79)"/><path class="cls-4" d="M1281.05,858.85l0.07-.19a0.57,0.57,0,0,0-.15-0.56c-1.46-1.48-5-2-6.94-1.55a8.31,8.31,0,0,0-5.2,4.56c-0.81,1.61-1.36,4.12.55,5.25a2.19,2.19,0,0,0,3-.81c0.4-.56-0.44-1.09-0.9-0.7-1.63,1.38-3.2,3.61-1,5.34,2,1.61,5.31.2,7.24-.79l-0.84-.65c-0.46,2.32,1.9,3.6,3.82,2.37,1.31-.84,1.71-2.27,2.29-3.62,0.76-1.79,2.19-3.17,1.64-5.16a0.57,0.57,0,0,0-1.11.31c0.35,1.28-.78,2.61-1.29,3.67q-0.18.43-.35,0.88-0.41,2.93-3.89,1.86a0.58,0.58,0,0,0-.84-0.65,7,7,0,0,1-2.83,1.1q-1.31.53-1.53-1.6-2.07-1.4-.46-2.24l-0.9-.7-1.61-3.28a7,7,0,0,1,.87-1.36,6.67,6.67,0,0,1,2.25-2.13,6.36,6.36,0,0,1,4.21-.43,17.94,17.94,0,0,0,2.8.78c-0.26.69,0.85,1,1.11,0.31h0Z" transform="translate(-1075.22 -814.79)"/><polyline class="cls-9" points="241.13 49.2 242.28 48.53 238.09 51.52 243.06 48.65"/><polyline class="cls-9" points="213.53 65.48 233.91 53.72 216.63 64.31 243.33 48.89 218.3 63.82 243.52 49.26 219.69 63.46 243.55 49.69 221.68 62.98 243.58 50.34 223.57 62.56 243.61 50.98 225.39 62.15 243.58 51.65 227.13 61.76 243.42 52.35 228.88 61.34 243.27 53.03 231.49 60.67 242.72 54.18 234.35 59.79 241.78 55.5 237.21 58.67 240.12 56.99"/><polyline class="cls-9" points="208.54 60.37 211.22 58.82 206.82 61.88 213.88 57.81 205.61 63.47 216.62 57.11 205.42 64.37 218.68 56.72 205.47 65.15 220.59 56.42 205.68 65.91 222.63 56.12 205.92 66.35 223.96 55.93 206.17 66.72 225.2 55.73 206.48 67.03 226.43 55.52 206.9 67.41 227.97 55.24 207.62 67.79 230.21 54.75 208.6 67.98 232.43 54.22"/><path class="cls-4" d="M1282.22,877.22V877a0.57,0.57,0,0,0-.28-0.5c-1.73-.92-5-0.45-6.68.38a8,8,0,0,0-4,6.09c-0.27,1.61-.19,3.76,1.48,4.64a2.23,2.23,0,0,0,3.27-1.44,0.58,0.58,0,0,0-1-.44c-1.14,1.8-2,4.4.58,5.41,2.41,0.94,5.12-1.36,6.67-2.9l-1-.41c0.26,2.39,3,2.91,4.46,1,1.05-1.37.88-3.21,1.08-4.82s1-3.18-.06-4.63c-0.43-.59-1.43,0-1,0.58,0.75,1,0,2.83-.13,4q-0.07.87-.1,1.73,0.25,2.7-3.11,2.12a0.58,0.58,0,0,0-1-.41c-0.65.64-1.48,1.77-2.37,1.91q-1.09.9-2-1.05-2.42-.69-1.13-2l-1-.44q-3.2-.53-2.49-2.66a7.17,7.17,0,0,1,.37-1.57,5.93,5.93,0,0,1,5.84-4.35c0.36,0,2.45.19,2.47-.09a0.57,0.57,0,0,0,1.15,0h0Z" transform="translate(-1075.22 -814.79)"/><polyline class="cls-9" points="307.5 24.78 315.62 20.09 309.82 24.06 315.53 20.76 311.07 23.92 315.32 21.47 312.69 23.71 314.66 22.57"/><polyline class="cls-9" points="267.79 41.48 269.12 40.72 267.2 42.35 272.73 39.15 267.11 42.96 275.57 38.07 267.17 43.55 278.67 36.91 267.5 44.24 285.85 33.64 267.96 44.76 315.04 17.58 268.41 45.13 315.25 18.08 269.34 45.38 315.5 18.73 270.45 45.36 315.58 19.31 271.59 45.34 315.64 19.9 272.59 45.32 303.44 27.5 274.04 45.2 301.63 29.27 275.56 45.01 300.27 30.74 277.15 44.81 299 32.19 278.55 44.5 298.15 33.18 280.33 44.1 297.02 34.47 282.05 43.62 296.06 35.53 283.96 43 294.95 36.66 287.77 41.46 292.68 38.62"/><polyline class="cls-9" points="301.97 18.75 304.18 17.48 298.35 21.72 308.06 16.11 297.18 22.91 309.25 15.94 296.03 24.12 310.35 15.86 295.01 25.27 311.48 15.77 294 26.43 312.32 15.85 293.01 27.55 313.05 15.98 291.75 28.97 313.68 16.31 290.37 30.29 314.14 16.57 287.42 32.65 314.55 16.99"/><polyline class="cls-9" points="271.72 44.48 272.48 44.04 271.51 45.34 273.47 44.21 271.63 45.73 273.99 44.36 271.88 46.34 274.86 44.62 272.03 46.72 275.39 44.78 272.28 47.3 276.24 45.02 272.64 47.73 276.98 45.23 272.96 48.1 277.64 45.4 273.3 48.5 278.43 45.54 273.63 48.81 279.08 45.66 274.12 49.14 279.96 45.76 274.7 49.53 281.19 45.78 275.09 49.77 281.99 45.79 275.61 49.98 283.08 45.66 276.19 50.21 284.37 45.49 276.84 50.47 285.79 45.3 277.62 50.65 287.44 44.98 278.56 50.86 289.5 44.54 279.64 51.02 291.81 43.99 280.36 51.09 293.32 43.61 281.05 51.16 294.71 43.27 282.21 51.18 296.81 42.75 283.6 51.17 298.89 42.33 284.5 51.13 300.12 42.11 285.76 50.99 301.38 41.97 287.67 50.76 303.16 41.82 289.31 50.46 304.26 41.83 290.82 50.18 305.28 41.84 292.84 49.77 306.36 41.97 294.88 49.38 307.41 42.15 296.32 49.1 308.15 42.27 297.53 48.91 308.75 42.43 299.06 48.7 309.47 42.69 300.27 48.56 310.07 42.9 301.48 48.5 310.75 43.15 303.08 48.44 311.57 43.53 303.83 48.5 311.95 43.81 304.9 48.58 312.38 44.26 305.66 48.64 312.6 44.63 306.59 48.84 312.82 45.24 307.36 49.03 312.92 45.82 307.89 49.17 312.88 46.29 308.89 49.41 312.66 47.23 309.71 49.54 312.24 48.08"/><path class="cls-4" d="M1385.19,833.38a9.31,9.31,0,0,0,3.56-2.71,22.15,22.15,0,0,1,2.19-2.38,5.31,5.31,0,0,1,2.25-1.36q2.49-1.3,3.68,1.59a0.69,0.69,0,0,0,1,.77,3.74,3.74,0,0,1,4.19-.35q1.27,7.34-4.27,4.22l-0.48,1.17q-0.14,5.4-2.77,3.18a3.28,3.28,0,0,1-1.69-1.32c-0.5-.57-1.24.06-1.14,0.66q-2.95.69-3.64-1.49c-0.39-.79-1.57-0.1-1.18.69,0.82,1.69,2.22,3.71,4.43,3.24,1.52-.32,1.92-1.46,1.71-2.81l-1.14.66c2,2.25,6.25,3.83,8.31.68,1.55-2.38-.39-4.65-2.88-4.87a0.69,0.69,0,0,0-.48,1.17c2.72,2.12,7.67,1.54,7.91-2.63s-4.66-5.31-7.55-3.4l1,0.77c1.05-2.82-1.82-4-4.22-3.56-4.38.73-5.38,5.17-9.15,6.73-0.8.33-.45,1.66,0.36,1.32h0Z" transform="translate(-1075.22 -814.79)"/><path class="cls-4" d="M1386.5,857.75c0.16,0.34,3.1-1,3.66-1.12a5.41,5.41,0,0,1,4,.61,8.26,8.26,0,0,1,1.78,1.56,6.72,6.72,0,0,1,1.26,1.94q1.26,1.7-1.7,2.68l-0.7.9q2.25,0.82.31,2.48-0.37,2.34-2.44,1.4a12.93,12.93,0,0,1-2.61-.83,0.58,0.58,0,0,0-.71.71q-2.95,1.44-3.7-.78-0.27-.59-0.57-1.18c-0.57-1.09-2-2.54-1.8-3.86,0.13-.72-1-1-1.11-0.31-0.35,1.88.82,2.78,1.73,4.36s1.3,3.21,2.89,4.07c2,1.06,4.33-.31,3.66-2.62l-0.71.71c2.14,0.88,6.05,2,7.68-.44,1.3-2-.55-3.65-2.06-4.71-0.56-.4-1.09.44-0.7,0.9a2.22,2.22,0,0,0,3.6-.09c1.17-1.56.28-3.62-.67-5a8.13,8.13,0,0,0-5.31-3.78c-1.95-.28-5.49.53-6.8,2.1a0.61,0.61,0,0,0-.09.7l0.09,0.19c0.31,0.67,1.3.09,1-.58h0Z" transform="translate(-1075.22 -814.79)"/><polyline class="cls-9" points="274.38 49.52 275.06 49.13 274.17 50.16 275.75 49.25 274.12 51.07 276.47 49.72 274.08 51.9 277.05 50.18 274.21 52.63 277.64 50.65 274.38 53.41 278.29 51.15 274.5 53.91 278.73 51.48 274.71 54.31 279.12 51.77 274.91 54.69 279.49 52.04 275.16 55.16 279.98 52.38 275.56 55.73 280.64 52.8 276 56.23 281.27 53.19 276.35 56.62 281.79 53.48 276.68 56.95 282.29 53.71 277.3 57.43 283.09 54.09 277.93 57.9 283.94 54.43 278.48 58.26 284.7 54.67 279.1 58.61 285.49 54.92 279.76 58.98 286.37 55.16 280.49 59.33 287.35 55.37 281.03 59.56 288.03 55.52 281.66 59.84 288.84 55.69 282.31 60.11 289.65 55.87 283.17 60.4 290.64 56.09 283.88 60.65 291.48 56.26 284.57 60.89 292.34 56.4 285.38 61.12 293.29 56.55 286.1 61.33 294.13 56.69 286.83 61.54 294.99 56.83 287.37 61.69 295.61 56.93 288.24 61.91 296.58 57.09 289.15 62.13 297.61 57.25 290.2 62.4 298.78 57.44 291.16 62.62 299.83 57.62 292.23 62.87 300.93 57.85 292.91 63.02 301.63 57.99 293.77 63.22 302.47 58.2 294.58 63.41 303.22 58.42 295.37 63.59 303.95 58.64 296.12 63.77 304.65 58.84 296.69 63.9 305.12 59.04 297.75 64.17 305.99 59.42 298.8 64.45 306.86 59.79 299.81 64.71 307.6 60.22 300.62 64.97 308.2 60.59 301.4 65.22 308.78 60.96 302.36 65.53 309.46 61.43 303.11 65.84 309.95 61.89 303.86 66.17 310.46 62.37 304.55 66.48 310.93 62.81 305.2 66.84 311.39 63.27 305.73 67.22 311.7 63.77 306.32 67.64 312.03 64.34 306.92 68.05 312.16 65.02 307.55 68.47 312.17 65.8 308.54 68.77 311.87 66.85 309.73 68.7 311.07 67.92"/><path class="cls-4" d="M1387,878c0,0.24,2.4.11,2.47,0.11a6.12,6.12,0,0,1,3.75,1.27,6.67,6.67,0,0,1,2.06,3.12l0.23,0.82q1.14,2.67-2.38,3.4l-1,.44c1,1.68-1.31,3.8-3.1,3a8.87,8.87,0,0,1-2.36-1.92,0.58,0.58,0,0,0-1,.41q-3.36.56-3.1-2.15,0-.87-0.09-1.74c-0.14-1.13-.86-3-0.1-4,0.44-.59-0.55-1.17-1-0.58-0.95,1.27-.41,2.4-0.17,3.84,0.31,1.83-.07,4,1.14,5.61,1.43,1.87,4.18,1.37,4.46-1l-1,.41c1.56,1.57,4.22,3.86,6.65,2.93,2.59-1,1.74-3.61.61-5.41a0.58,0.58,0,0,0-1,.44,2.22,2.22,0,0,0,3.2,1.48c1.72-.87,1.83-3,1.57-4.66a8.27,8.27,0,0,0-3.57-5.92c-1.74-1-5.26-1.57-7.09-.61a0.57,0.57,0,0,0-.28.5V878a0.57,0.57,0,0,0,1.15,0h0Z" transform="translate(-1075.22 -814.79)"/><polyline class="cls-9" points="266.05 77.67 267.46 76.85 265.32 78.72 268.79 76.72 265.02 79.61 269.7 76.91 265.03 80.42 270.46 77.28 265.08 81.2 271 77.79 265.2 81.62 271.3 78.1 265.38 82.31 271.72 78.65 265.54 82.88 272.01 79.14 265.66 83.35 272.25 79.55 265.8 83.86 272.51 79.98 265.98 84.53 272.86 80.55 266.19 85.21 273.21 81.15 266.42 85.81 273.54 81.69 266.64 86.38 273.83 82.22 266.8 86.79 274.02 82.63 266.94 87.16 274.18 82.98 267.09 87.53 274.35 83.34 267.34 88.18 274.64 83.97 267.56 88.75 274.89 84.52 267.81 89.3 275.14 85.06 268.08 89.9 275.42 85.67 268.26 90.28 275.6 86.05 268.55 90.93 275.86 86.7 268.76 91.39 276.05 87.19 269.04 92 276.29 87.82 269.34 92.66 276.55 88.5 269.54 93.09 276.71 88.95 269.75 93.55 276.9 89.43 269.98 94.02 277.08 89.92 270.25 94.61 277.31 90.53 270.57 95.31 277.56 91.27 270.85 95.9 277.77 91.9 271.04 96.3 277.92 92.33 271.3 96.91 278.13 92.97 271.45 97.27 278.25 93.35 271.67 97.8 278.44 93.9 271.9 98.35 278.63 94.47 272.15 98.94 278.83 95.08 272.36 99.44 278.99 95.61 272.51 99.82 279.12 96.01 272.78 100.53 279.35 96.74 272.92 100.97 279.48 97.18 273.15 101.71 279.71 97.92 273.31 102.21 279.87 98.42 273.46 102.7 280.02 98.91 273.61 103.2 280.18 99.41 273.84 103.93 280.4 100.14 274 104.5 280.56 100.71 274.13 105.07 280.73 101.26 274.3 105.81 280.94 101.98 274.41 106.31 281.07 102.47 274.51 106.74 281.18 102.89 274.68 107.49 281.37 103.63 274.82 108.1 281.53 104.23 274.98 108.83 281.71 104.94 275.13 109.56 281.86 105.66 275.24 110.12 281.98 106.23 275.39 110.86 282.13 106.98 275.52 111.49 282.25 107.6 275.62 111.98 282.35 108.09 275.71 112.42 282.42 108.55 275.81 112.86 282.48 109.01 275.91 113.29 282.53 109.47 276.09 114.02 282.63 110.24 276.23 114.61 282.71 110.87 276.33 115.07 282.77 111.35 276.43 115.48 282.78 111.82 276.56 116.03 282.8 112.44 276.66 116.46 282.81 112.91 276.88 117.13 282.83 113.7 277.05 117.65 282.84 114.3 277.27 118.34 282.78 115.16 277.49 119.01 282.69 116.01 277.63 119.45 282.63 116.56 277.83 120.05 282.55 117.32 278.07 120.61 282.36 118.12 278.32 121.02 282.18 118.79 278.93 121.53 281.89 119.81 279.45 121.72 281.73 120.41 280.29 121.7 281.27 121.14"/><polyline class="cls-9" points="243.09 77.56 244.46 76.77 242.05 78.83 245.75 76.69 241.58 79.61 246.38 76.84 240.87 80.81 247.15 77.18 240.17 81.97 247.75 77.59 239.79 82.76 248.07 77.98 239.32 83.78 248.47 78.5 238.86 84.78 248.68 79.11 238.41 85.75 248.86 79.72 237.96 86.84 248.84 80.56 237.54 87.94 248.71 81.49 237.32 88.53 248.56 82.04 236.94 89.53 248.32 82.96 236.66 90.25 248.14 83.63 236.37 91.1 247.92 84.43 236.12 91.85 247.7 85.16 235.88 92.58 247.41 85.92 235.68 93.16 247.17 86.53 235.38 94.07 246.8 87.48 235.07 95.02 246.42 88.47 234.88 95.6 246.15 89.09 234.62 96.44 245.73 90.03 234.43 97.07 245.41 90.73 234.11 98.09 244.89 91.86 233.87 98.86 244.5 92.72 233.69 99.43 244.2 93.36 233.52 100.01 243.89 94.02 233.22 101 243.37 95.14 233.01 101.7 243 95.93 232.84 102.33 242.68 96.65 232.6 103.23 242.26 97.65 232.42 103.93 241.93 98.44 232.21 104.77 241.54 99.38 232.03 105.53 241.18 100.24 231.84 106.47 240.87 101.26 231.7 107.18 240.63 102.03 231.54 108 240.36 102.9 231.45 108.59 240.15 103.56 231.38 109.1 239.97 104.14 231.27 109.98 239.75 105.09 231.21 110.47 239.63 105.62 231.15 110.97 239.5 106.15 231.09 111.69 239.32 106.94 231.08 112.33 239.16 107.67 231.06 112.79 239.04 108.19 231.05 113.3 238.92 108.76 231.03 114.09 238.74 109.64 231.07 114.93 238.53 110.62 231.11 115.36 238.43 111.14 231.17 115.88 238.3 111.76 231.22 116.42 238.17 112.41 231.31 117.23 237.94 113.4 231.43 117.84 237.75 114.19 231.63 118.57 237.52 115.17 231.82 119.25 237.3 116.08 232 119.87 237.06 116.94 232.21 120.51 236.75 117.89 232.54 121.04 236.47 118.77 233.08 121.5 236.15 119.73 233.98 121.78 235.69 120.8"/><path class="cls-4" d="M1356.88,935.27a22.14,22.14,0,0,0,6.7,2.47c2.34,0.44,3.2-.6,2.13,2.65q-0.1,4-4,1.78a4.39,4.39,0,0,0-1-.31c-1.33.14-2.8,1.71-3.87,1.67s-4.15-4.21-4-4c-1.3-2.05-2.32-3.74-.22-6a0.57,0.57,0,0,0-.81-0.81c-2.61,2.83-1.43,6.59,1.06,9.21,0.82,0.86,2.94,2.89,4.1,2.89a3.54,3.54,0,0,0,1.46-.8c1.44-.69,2.68-0.43,4.24-0.26,2.47,0.27,7.54-1.12,6.46-4.75a3,3,0,0,0-2.28-1.93,39.9,39.9,0,0,0-4-.66,20.69,20.69,0,0,1-5.27-2.12,0.57,0.57,0,0,0-.58,1h0Z" transform="translate(-1075.22 -814.79)"/><path class="cls-4" d="M1305.84,933.15c-0.85,2.34-2.35,5-5,5.69-1.28.35-2.68-.17-4,0.1a3,3,0,0,0-2.38,1.3c-1,1.7.21,2.75,1.66,3.54,2.94,1.6,6,1.38,9.09.51,3.63-1,8.93.39,12.25-1.86a0.59,0.59,0,0,0,.26-0.65c-1-3.46-5.06-5.58-6.35-9.17-0.25-.69-1.36-0.39-1.11.31,0.7,2,5.68,7.26,5.23,8.45-0.73,1.92-5.24,1-7.06,1-2.24-.07-2.49.7-4.86,1.28a10.32,10.32,0,0,1-4.67,0q-3.16.07-1.85-2.2-0.28-1.71.94-1.34c1.2-.5,2.8.12,4.18-0.54,2.46-1.17,3.82-3.63,4.71-6.08,0.25-.7-0.86-1-1.11-0.31h0Z" transform="translate(-1075.22 -814.79)"/><path class="cls-4" d="M1150.77,931.76c7.53,3.46,13.55,11.69,19.8,17.09A247.63,247.63,0,0,0,1191,964.7c1.52,1.06,2.95-1.43,1.45-2.47a239.58,239.58,0,0,1-22.63-17.8c-5.59-5-10.74-12-17.65-15.14-1.66-.76-3.12,1.7-1.45,2.47h0Z" transform="translate(-1075.22 -814.79)"/><path class="cls-4" d="M1137.75,969.5l33.53,22.14c1.54,1,3-1.46,1.45-2.47L1139.19,967c-1.54-1-3,1.46-1.45,2.47h0Z" transform="translate(-1075.22 -814.79)"/><path class="cls-4" d="M1525.34,931q-22.78,17.41-44.25,36.42c-1.23,1.09.58,2.9,1.81,1.81q21.21-18.8,43.74-36c1.29-1,0-3.21-1.29-2.21h0Z" transform="translate(-1075.22 -814.79)"/><path class="cls-4" d="M1545.24,963.43c-8.13,1.72-15.58,6.94-22.69,11q-12.29,7.11-24.24,14.79c-1.38.89-.1,3.1,1.29,2.21q11.16-7.15,22.6-13.84c7.37-4.29,15.29-10,23.71-11.74,1.61-.34.93-2.81-0.68-2.47h0Z" transform="translate(-1075.22 -814.79)"/><path class="cls-4" d="M1546.26,966.7a1.28,1.28,0,0,0,0-2.56,1.28,1.28,0,0,0,0,2.56h0Z" transform="translate(-1075.22 -814.79)"/></svg>