<svg id="Layer_1" data-name="Layer 1" xmlns="http://www.w3.org/2000/svg" viewBox="0 0 775.45 317.55"><defs><style>.cls-1{fill:#333;}.cls-2{fill:none;stroke:#333;stroke-linecap:round;stroke-linejoin:round;stroke-width:1.25px;}.cls-3{fill:#1d1d1d;}</style></defs><title>totalgoles</title><path class="cls-1" d="M214.86,1197.56A1553.21,1553.21,0,0,1,627,1178.79q58.58,5.15,116.65,14.75c2.17,0.36,3.1-3,.92-3.32a1555,1555,0,0,0-415.19-12.42q-58,6.06-115.4,16.45c-2.18.39-1.26,3.72,0.92,3.32h0Z" transform="translate(-67.19 -880.05)"/><polyline class="cls-2" points="185.72 235.03 195.64 229.3 193.13 233.95 196.07 232.25"/><polyline class="cls-2" points="161.4 228.8 162.18 228.35 161.78 231.48 168.86 227.39 162.21 234.51 176.41 226.31 162.5 236.54 181.49 225.58 165.49 237.9 188.6 224.56 169.94 237.26 193.03 223.92 174.13 237.14 195.03 225.07 174.49 239.65 195.39 227.58 174.8 241.87 185 235.98 175.16 244.33 185.35 238.44 175.44 246.35 185.64 240.46 175.73 248.35 185.93 242.46 176.01 250.34 186.21 244.46 176.44 253.29 186.63 247.41 176.69 255.08 186.89 249.19 177.05 257.59 187.25 251.7 177.36 259.77 187.56 253.88 177.66 261.88 187.86 255.99 178.02 264.36 188.22 258.47 178.32 266.48 188.52 260.59 178.67 268.93 188.87 263.04 178.97 271.04 189.17 265.15 179.41 274.07 189.61 268.19 179.71 276.15 189.9 270.26 179.97 278.02 190.17 272.14 180.23 279.79 190.42 273.9 180.53 281.89 190.72 276 180.82 283.98 191.02 278.09 181.24 286.86 191.44 280.97 181.62 289.56 191.82 283.68 181.97 291.95 192.16 286.07 182.39 294.93 192.59 289.04 186.15 295.34 192.93 291.43 191.26 294.6 193.22 293.46"/><polyline class="cls-2" points="216.76 230.23 228.87 223.23 221.29 230.82 230.88 225.28 222.54 232.03 231.83 226.67 223.51 233.96 232.92 228.53 224 236.32 233.71 230.72 224.3 238.81 234.33 233.02 224.58 241.18 234.77 235.29 224.92 244.03 235.13 238.13 225.23 246.56 235.44 240.67 225.44 248.36 235.65 242.47 225.68 250.34 235.89 244.45 225.92 252.31 236.13 246.42 226.22 254.87 236.43 248.97 226.53 257.43 236.74 251.53 226.75 259.22 236.96 253.33 226.96 261.03 237.17 255.14 227.3 263.82 237.51 257.93 227.61 266.41 237.82 260.52 227.87 268.61 238.08 262.71 228.13 270.75 238.34 264.86 228.39 272.9 238.6 267 228.56 275.66 238.92 269.68 227.38 279.35 239.21 272.52"/><polyline class="cls-2" points="206.38 224.44 211.67 221.39 203.01 229.29 218.77 220.19 201.94 233.18 223.64 220.66 201.76 235.49 225.99 221.5 201.85 238.52 214.29 231.35 202 240.36 212.71 234.18 202.26 242.51 212.55 236.57 202.57 245.05 212.78 239.16 202.84 247.3 213.05 241.4 203.14 249.79 213.35 243.9 203.38 251.83 213.59 245.94 203.63 253.86 213.84 247.97 203.87 255.88 214.08 249.99 204.23 258.87 214.44 252.97 204.44 260.67 214.65 254.78 204.75 263.21 214.96 257.32 205.01 265.42 215.22 259.53 205.27 267.55 215.48 261.66 205.57 270.07 215.78 264.18 205.83 272.21 216.04 266.32 206.13 274.7 216.34 268.8 206.46 276.79 216.59 270.94 207.06 279.73 216.96 274.01 207.73 281.59 217.29 276.07 208.41 283.23 217.78 277.81 209.26 284.64 218.54 279.28 210.41 286.25 220.09 280.66 211.8 287.71 223 281.24 214.26 289.41 239.35 274.92 217.29 290.59 239.14 277.97 220.81 291.14 238.48 280.94 227.54 290.48 235.89 285.66"/><polyline class="cls-2" points="261.94 226.16 272.13 220.28 268.66 225.49 272.44 223.3"/><polyline class="cls-2" points="238 218.86 238.72 218.44 238.27 221.6 244.78 217.85 238.57 224.71 251.62 217.18 238.78 226.79 256.22 216.72 241.83 228.12 262.66 216.09 245.86 227.71 266.68 215.69 250.32 227.43 271.48 215.22 250.58 230 271.88 217.71 250.8 232.28 261.19 226.28 251.05 234.8 261.44 228.8 251.25 236.87 261.64 230.87 251.45 238.92 261.84 232.92 251.65 240.97 262.04 234.97 251.95 243.99 262.34 237.99 252.13 245.82 262.52 239.81 252.38 248.39 262.77 242.38 252.6 250.62 262.99 244.62 252.81 252.78 263.2 246.78 253.06 255.33 263.45 249.32 253.27 257.5 263.67 251.49 253.52 260.01 263.91 254.01 253.73 262.17 264.12 256.17 254.03 265.28 264.43 259.28 254.24 267.41 264.64 261.41 254.43 269.32 264.82 263.32 254.61 271.13 265 265.13 254.82 273.28 265.21 267.28 255.03 275.42 265.42 269.42 255.32 278.38 265.71 272.38 255.59 281.15 265.98 275.15 255.83 283.6 266.22 277.6 256.13 286.65 266.52 280.65 261.23 286.28 266.76 283.09 265.85 285.82 266.97 285.18"/><polyline class="cls-2" points="287.81 271.19 308.94 258.99 291.99 270.85 309.38 260.81 296.1 270.52 309.81 262.6 300.67 270.65 310.4 265.03 301.12 272.59 310.87 266.97 301.53 274.32 311.28 268.69 302.09 276.75 311.87 271.1 302.49 278.46 312.28 272.81 303.12 281.12 312.92 275.46 305.22 282.53 313.47 277.77 309.36 282.19 313.91 279.56 313.48 281.85 314.34 281.36"/><polyline class="cls-2" points="290.45 226.41 299.78 221.03 291.11 229.24 300.46 223.84 291.5 230.95 300.87 225.54 292.01 233.15 301.4 227.73 292.55 235.48 301.96 230.05 293.09 237.83 302.52 232.38 293.6 240.06 303.06 234.6 294.22 242.75 303.7 237.28 294.77 245.14 304.28 239.65 295.16 246.84 304.69 241.35 295.59 248.71 305.13 243.2 296.02 250.57 305.58 245.05 296.58 252.98 306.16 247.45 297.13 255.4 306.74 249.85 297.52 257.09 307.14 251.54 297.92 258.8 307.55 253.24 298.33 260.6 307.99 255.03"/><polyline class="cls-2" points="281.98 214.83 282.74 214.39 281.73 217.87 288.57 213.92 281.45 221.31 295.17 213.39 281.26 223.62 298.07 213.92 281 226.86 298.73 216.62 280.83 228.88 299.14 218.31 280.63 231.29 299.63 220.32 280.4 234.14 290.13 228.53 280.2 236.66 289.96 231.03 279.97 239.46 289.76 233.81 279.78 241.76 289.6 236.08 279.59 244.03 289.45 238.34 279.41 246.3 289.29 240.59 279.13 249.65 289.06 243.92 278.97 251.68 288.92 245.93 278.74 254.53 288.72 248.76 278.53 257 288.55 251.22 278.34 259.4 288.38 253.6 278.11 262.22 288.19 256.4 277.91 264.63 288.02 258.79 277.68 267.42 287.83 261.56 277.49 269.81 292 261.43 277.2 273.26 308.08 255.43 277.01 275.62 308.56 257.41 276.84 277.75 287.05 271.85 276.67 279.75 286.91 273.84 276.48 282.13 286.75 276.2 276.29 284.51 286.59 278.56 282.04 284.31 286.38 281.81"/><polyline class="cls-2" points="315.32 212.33 315.99 211.94 315.47 215.14 321.58 211.62 315.65 218.31 326.23 212.21 315.77 220.45 326.35 214.34 315.93 223.44 326.51 217.33 316.04 225.3 326.62 219.19 316.16 227.53 326.74 221.42 316.31 230.16 326.89 224.05 316.44 232.49 327.02 226.38 316.58 235.07 327.17 228.96 316.69 237.19 327.28 231.08 316.81 239.29 327.4 233.18 316.93 241.38 327.52 235.27 317.1 244.48 327.69 238.36 317.2 246.35 327.8 240.24 317.35 248.98 327.94 242.87 317.48 251.27 328.07 245.15 317.6 253.48 328.19 247.36 317.74 256.09 328.34 249.97 317.86 258.31 328.46 252.19 318.01 260.88 328.61 254.76 318.13 263.1 328.73 256.98 318.31 266.28 328.91 260.15 318.43 268.46 329.03 262.33 318.54 270.42 329.14 264.3 318.64 272.27 329.24 266.15 318.76 274.47 329.37 268.35 318.88 276.67 329.49 270.54 319.05 279.69 334.47 270.78 321.01 281.49 340.1 270.46 325.97 281.2 345.07 270.18 332.16 280.86 347.61 271.94 337.11 280.58 347.75 274.44 341.35 280.34 347.88 276.57 346.48 280.05 348.03 279.15"/><polyline class="cls-2" points="377.98 219.11 392.3 210.85 383.77 218.97 394.9 212.55 386.28 219.47 396.15 213.76 388 220.96 397.48 215.49 388.91 223.08 398.46 217.56 389.24 225.55 399.21 219.79 389.3 228.04 399.75 222.01 389.38 231.04 400.01 224.91 389.44 233.72 400.13 227.54 389.49 235.62 400.18 229.44 389.54 237.71 400.23 231.53 389.59 239.78 400.28 233.61 389.66 242.48 400.35 236.3 389.72 245.17 400.42 239 389.77 247.07 400.46 240.9 389.82 248.97 400.51 242.8 389.89 251.92 400.58 245.75 389.95 254.65 400.65 248.47 390.01 256.96 400.7 250.79 390.07 259.22 400.76 253.05 390.12 261.49 400.81 255.31 389.94 264.45 400.88 258.13 388.84 267.11 400.93 260.13"/><polyline class="cls-2" points="366.13 209.88 366.77 209.51 366.2 212.74 372.02 209.38 366.28 215.97 377.95 209.24 366.34 218.15 381.93 209.14 366.41 221.19 387.03 209.28 366.46 223.09 389.47 209.8 366.51 225.35 377.2 219.18 366.58 228.03 377.27 221.85 366.64 230.4 377.33 224.22 366.7 233.03 377.4 226.85 366.75 235.18 377.46 229 366.81 237.32 377.51 231.14 366.86 239.45 377.57 233.27 366.94 242.6 377.65 236.41 366.98 244.5 377.7 238.32 367.05 247.18 377.76 240.99 367.1 249.51 377.82 243.32 367.16 251.76 377.88 245.57 367.22 254.41 377.95 248.22 367.28 256.67 378.01 250.48 367.34 259.29 378.08 253.09 367.4 261.54 378.13 255.34 367.48 264.78 378.22 258.58 367.53 267 378.27 260.8 367.58 269 378.33 262.79 367.63 270.88 378.37 264.68 367.68 273.12 378.43 266.91 367.74 275.35 378.7 269.02 367.81 278.43 384.34 268.88 371.74 279.08 400.92 262.24 376.45 278.95 400.81 264.89 382.32 278.79 400.14 268.5 387.3 278.5 398.65 271.94"/><polyline class="cls-2" points="419.52 247.91 433.93 239.59 423.13 247.89 433.94 241.66 426.69 247.88 433.95 243.69 431.53 247.86 433.96 246.46"/><polyline class="cls-2" points="419.47 218.51 436.77 208.52 425.05 218.5 437.76 211.15 428.43 218.48 437.77 213.09 432.76 218.47 437.79 215.57 437.18 218.45 437.8 218.09"/><polyline class="cls-2" points="407.92 208.96 408.55 208.6 407.93 211.86 413.59 208.59 407.93 215.13 419.3 208.57 407.94 217.33 423.13 208.56 407.94 220.41 428.5 208.54 407.95 222.34 431.85 208.53 407.95 224.63 435.85 208.52 407.95 227.35 418.85 221.06 407.96 229.75 418.86 223.45 407.96 232.41 418.87 226.12 407.97 234.59 418.87 228.29 407.97 236.76 418.88 230.46 407.98 238.91 418.89 232.62 407.98 242.1 418.9 235.8 407.99 244.03 418.9 237.73 407.99 246.75 423.21 237.96 408 249.1 427.33 237.94 408 251.38 431.31 237.93 408 254.07 433.93 239.11 408.01 256.36 418.9 250.07 408.01 259.01 418.91 252.72 408.02 261.3 418.92 255 408.02 264.58 418.93 258.28 408.03 266.82 418.94 260.53 408.03 268.85 418.94 262.55 408.04 270.76 418.95 264.45 408.04 273.02 418.96 266.72 408.04 275.29 420.03 268.36 408.19 278.32 425.47 268.34 413.29 278.31 430.57 268.33 417.79 278.29 435.08 268.31 423.4 278.28 437.87 269.92 427.89 278.26 437.88 272.49 431.73 278.25 437.89 274.69 436.38 278.24 437.91 277.36"/><polyline class="cls-2" points="477.16 240.6 477.77 240.25 477.11 242.71 481.19 240.35 477.05 244.78 484.57 240.44 476.98 247.59 489.15 240.57 476.92 249.83 492.48 240.85 479.62 250.23 492.42 242.84 481.82 251.72 492.33 245.65 481.77 253.69 492.28 247.62 481.69 256.75 492.19 250.69 481.61 259.43 492.11 253.37 481.56 261.51 492.05 255.45 481.46 263.6 491.99 257.53 480.43 267.5 491.89 260.89"/><polyline class="cls-2" points="475.51 218.56 487.28 211.76 480.01 219.16 489.36 213.77 481.35 220.33 490.3 215.16 482.25 222.3 491.3 217.08 482.58 224.75 492.12 219.25 482.56 227.43 492.58 221.64 482.49 229.99 492.81 224.04 482.58 232.99 492.88 227.04 487.07 233.11 492.81 229.79 490.26 233.19 492.77 231.75"/><polyline class="cls-2" points="465.59 212.11 470.2 209.45 462.06 217.05 476.77 208.55 460.81 221.04 481.47 209.12 460.49 223.43 483.99 209.87 460.26 226.65 486.77 211.35 460.2 228.61 471.79 221.92 460.13 230.95 471.28 224.51 460.05 233.71 471.14 227.31 459.98 236.16 471.07 229.75 459.9 238.87 470.99 232.46 459.83 241.09 470.93 234.69 459.77 243.29 470.86 236.89 459.7 245.49 470.8 239.09 459.61 248.74 470.7 242.34 459.55 250.71 470.64 244.3 459.47 253.47 470.56 247.06 459.4 255.87 470.49 249.47 459.33 258.19 470.42 251.79 459.25 260.93 470.34 254.52 459.28 263.21 470.27 256.86 459.38 265.8 470.2 259.56 459.77 267.86 470.13 261.88 460.6 270.67 470.22 265.11 461.36 272.48 470.8 267.02 462.34 273.93 471.85 268.45 463.39 275.24 473.5 269.41 464.92 276.63 476.9 269.71 466.83 277.79 491.77 263.39 470.07 279.04 491.46 266.69 474.03 279.68 490.59 270.12 478.63 279.61 488.68 273.81"/><polyline class="cls-2" points="515.35 220.13 527.2 213.28 519.74 220.79 529.34 215.25 521.11 221.95 530.33 216.63 522 223.92 531.42 218.48 522.3 226.39 532.25 220.64 522.22 229.1 532.76 223.01 522.09 231.7 533.06 225.37 521.92 234.84 533.11 228.39 521.78 237.64 532.97 231.18 521.67 239.63 532.87 233.16 521.56 241.81 532.75 235.35 521.44 243.98 532.64 237.52 521.3 246.8 532.49 240.34 521.15 249.62 532.34 243.16 521.04 251.6 532.24 245.14 520.94 253.59 532.13 247.13 520.78 256.67 531.97 250.21 520.63 259.53 531.82 253.06 520.5 261.95 531.7 255.49 520.38 264.31 531.57 257.85 520.1 266.77 531.45 260.22 518.76 269.8 531.33 262.55"/><polyline class="cls-2" points="505.32 213.84 509.99 211.14 501.81 218.77 516.58 210.24 500.5 222.8 521.37 210.75 500.19 225.18 523.83 211.53 499.91 228.43 526.67 212.98 499.81 230.41 511.41 223.72 499.68 232.78 510.91 226.3 499.53 235.59 510.73 229.12 499.4 238.06 510.6 231.6 499.26 240.81 510.45 234.35 499.14 243.06 510.34 236.6 499.02 245.3 510.22 238.84 498.91 247.53 510.1 241.06 498.74 250.82 509.93 244.35 498.63 252.81 509.83 246.35 498.48 255.61 509.68 249.15 498.36 258.05 509.55 251.58 498.23 260.4 509.43 253.94 498.1 263.17 509.28 256.71 498.14 265.44 509.16 259.07 498.34 267.98 509.01 261.81 498.71 270.05 508.89 264.17 499.67 272.78 509.13 267.31 500.59 274.5 509.84 269.15 501.56 275.96 511.04 270.49 502.78 277.16 512.93 271.31 504.4 278.5 531.3 262.97 506.38 279.62 531.14 265.33 509.77 280.79 530.73 268.68 513.88 281.34 529.69 272.21 519.08 280.93 527.31 276.17"/><polyline class="cls-2" points="542.24 212.79 542.82 212.45 542.01 215.82 547.29 212.77 541.76 219.24 552.34 213.13 541.59 221.54 553 214.95 541.35 224.77 552.77 218.17 541.2 226.78 552.62 220.18 541.02 229.18 552.44 222.58 540.81 232.01 552.24 225.42 540.63 234.52 552.05 227.93 540.42 237.31 551.85 230.71 540.25 239.59 551.68 232.99 540.08 241.86 551.51 235.26 539.92 244.11 551.35 237.51 539.67 247.45 551.1 240.85 539.52 249.47 550.95 242.87 539.31 252.3 550.75 245.7 539.13 254.77 550.56 248.17 538.95 257.15 550.39 250.55 538.74 259.96 550.18 253.36 538.57 262.36 550.01 255.75 538.36 265.13 549.8 258.53 538.18 267.52 549.63 260.91 537.93 270.95 549.38 264.34 537.76 273.3 549.2 266.69 537.6 275.42 549.05 268.81 537.45 277.41 548.9 270.8 537.28 279.78 549.24 272.88 537.42 281.96 552.72 273.13 542.22 282.31 557.53 273.48 546.72 282.64 562.03 273.8 550.7 282.93 566.01 274.09 555.66 283.29 566.5 277.03 559.62 283.58 566.31 279.72 563.01 283.83 566.15 282.02"/><polyline class="cls-2" points="584.69 255.3 599.57 246.71 587.78 255.59 599.9 248.59 590.83 255.87 599.7 250.75 594.96 256.25 599.43 253.67 598.25 256.56 599.22 256"/><polyline class="cls-2" points="587.47 226.04 602.35 217.45 592.25 226.49 606.69 218.15 595.14 226.76 606.5 220.2 598.85 227.1 606.26 222.82 602.79 227.47 606 225.62"/><polyline class="cls-2" points="576.98 215.45 577.55 215.12 576.69 218.52 581.87 215.53 576.36 221.99 586.76 215.99 576.14 224.32 590.04 216.3 575.83 227.58 594.63 216.73 575.64 229.62 597.5 217 575.41 232.05 600.92 217.32 575.13 234.93 586.72 228.24 574.89 237.47 586.48 230.77 574.63 240.29 586.22 233.59 574.41 242.6 586 235.9 574.19 244.89 585.79 238.19 573.97 247.18 585.58 240.48 573.65 250.56 585.26 243.85 573.46 252.6 585.87 245.44 573.18 255.47 589.92 245.81 572.95 257.97 593.44 246.14 572.72 260.38 596.85 246.45 572.45 263.23 584.03 256.54 572.22 265.66 583.81 258.96 571.95 268.47 583.54 261.77 571.72 270.88 583.32 264.19 571.39 274.36 582.99 267.66 571.16 276.74 582.77 270.04 570.96 278.88 582.57 272.18 570.77 280.9 582.38 274.2 570.54 283.3 583.63 275.75 572.16 284.63 587.01 276.06 576.81 285.07 591.66 276.49 581.17 285.48 596.03 276.9 585.02 285.84 599.88 277.26 589.82 286.29 600.83 279.94 593.67 286.65 600.58 282.66 596.95 286.96 600.37 284.99"/><polyline class="cls-2" points="607.25 267.32 607.82 266.99 607.01 269.53 610.82 267.33 606.81 271.69 613.77 267.67 606.66 274.55 617.54 268.26 606.79 276.67 617.27 270.62 606.99 278.52 617.02 272.73 607.66 280.88 616.94 275.53 608.3 282.46 617.3 277.26 609.63 284.71 618.84 279.39 611.22 286.42 621.61 280.42 612.77 287.57 639.36 272.22 614.5 288.62 639.26 274.32 618.06 289.87 638.67 277.96 621 290.44 637.86 280.71 624.11 290.56 636.72 283.28 629.36 289.66 633.86 287.06"/><polyline class="cls-2" points="626.58 229.59 638.12 222.93 630.91 230.29 640.2 224.93 632.27 231.45 641.19 226.3 633.09 233.46 642.23 228.19 633.24 236.02 642.91 230.44 632.99 238.83 643.34 232.85 635.06 240.15 643.54 235.26 639.47 240.66 643.37 238.41 642.61 241.01 643.16 240.69"/><polyline class="cls-2" points="616.7 223.01 621.17 220.43 613.22 227.92 627.64 219.6 611.94 231.94 632.23 220.22 611.49 234.4 634.66 221.02 611.23 237.64 637.46 222.49 611.25 239.55 622.99 232.77 611.46 241.73 622.31 235.46 612 244.13 622.23 238.22 612.67 246.14 622.59 240.42 613.6 248.28 623.33 242.66 614.48 249.95 624.13 244.38 615.5 251.53 625.1 245.99 616.57 253.07 626.2 247.51 618.29 255.27 627.93 249.71 619.37 256.58 629.02 251.01 620.93 258.39 630.58 252.82 622.28 259.98 631.92 254.41 623.56 261.52 633.17 255.97 624.96 263.4 634.58 257.85 626.03 265.07 635.67 259.51 627.1 267.11 636.8 261.51 627.83 268.98 637.64 263.31 628.35 271.96 638.58 266.05 628.33 274.22 639.06 268.03 627.9 276.49 639.26 269.94"/><path class="cls-3" d="M542.4,1018c-0.92-7.6-.68-16.93-6.76-22.51-5.44-5-13.94-4.83-20.83-4.92q-30.88-.38-61.75,1c-9.21.39-18.55,0.64-27.45,3.24-3.29,1-6.45,2.22-8.28,5.27-2,3.33-1.57,8.75-1.91,12.47-1.74,18.93-3.06,37.89-3.65,56.9-0.09,2.8,4.25,2.79,4.34,0,0-.52,0-1,0.05-1.54a115,115,0,0,0,16.66-12.53,3.7,3.7,0,0,0,1,.82c2.54,1.5,5.61,1.12,8.45,1.12l12.38,0,24.77,0,24.77,0c4,0,8.06,0,12.09-.29,2.55-.17,6.92,0,9-1.8l0.08-.07a118.76,118.76,0,0,0,17,11.25h0c0,1,.08,1.94.12,2.92,0.09,2.79,4.43,2.8,4.34,0C546.14,1052.1,544.46,1035,542.4,1018Zm-7.52,38.9q-2.1-1.41-4.13-2.92a0.94,0.94,0,0,0,0-.36c-0.52-1.72-.94-3.48-1.29-5.25l5.51,0.87Q535,1053,534.88,1056.85Zm-5.81-10.46c-0.25-1.46-.45-2.94-0.63-4.42h6.37q0.08,2.67.11,5.34Zm-44.8,6.13q0.17-2.34.31-4.68l8.52-.33q0.39,2.73.87,5.45h-9.62A0.78,0.78,0,0,0,484.26,1052.51Zm0.41-6.54q0.14-2.75.24-5.5l7.3-.22q0.26,2.7.62,5.4Zm-11.1,7h-9.09q0-2.13-.07-4.25l9-.38Q473.51,1050.61,473.58,1052.93Zm-9.22-6.12q-0.08-2.91-.19-5.82l9.11-.21q0.08,2.83.14,5.65Zm-14.79,6.09H444l0.35-1.25a0.88,0.88,0,0,0-.71-1.12l0-.93,6.24-.29Q449.72,1051.1,449.57,1052.9Zm-6-5.17-0.12-6.39,6.89-.1q-0.16,3.1-.37,6.2Zm-20.86,3.81q0.44-3.28.86-6.57l4-.49q0,2.54-.08,5.07Zm4.76,0q0,1.33-.06,2.65c-1.83,1.56-3.72,3.08-5.66,4.54q0.33-2.55.67-5.1Zm-2.65-44q0,2.74-.13,5.47-2.33-1.53-4.74-3,0.16-1.77.33-3.54a23.94,23.94,0,0,1,.36-2.92Q422.81,1005.56,424.84,1007.58Zm10.63-4.41,2.79,4.59-6.64.63q-2.11-2.32-4.35-4.51Q431.37,1003.51,435.47,1003.18Zm35-4c-0.1-1.14,0-2.58-.21-3.92q6.28-.17,12.56-0.28l-0.51,4q-5.92.12-11.83,0.32v-0.14Zm23.43-4.32q0.07,2,.11,4-4.92,0-9.83.1l0.51-4Q489.34,994.84,493.95,994.81Zm41.09,6.76a16.58,16.58,0,0,1,1.81,5.39q-1.5,1.06-3,2.09-0.41-2.9-.89-5.79,1-.94,2-1.9Zm2.76,14.15,0.34,2.85q-1.49.57-3,1.1-0.45-4.29-1-8.56c1-.69,2-1.4,3-2.1C537.43,1011.31,537.55,1013.64,537.8,1015.72ZM505.42,1038c0-2.38-.06-4.76-0.19-7.14l6.12-.19c0.06,2.37.07,4.74,0.08,7.12Zm-86.61-14.64q2.63,0.29,5.23.75-0.37,4.51-.87,9H418Q418.4,1028.21,418.8,1023.33Zm7.86-13.88q1.56,1.63,3.06,3.33-0.28,1.7-.51,3.42-1.34-1-2.71-1.92Q426.62,1011.86,426.67,1009.45Zm104.65-4.67q0.43,2.71.81,5.43-2.88,1.94-5.8,3.8-0.15-2.31-.31-4.62Q528.73,1007.15,531.32,1004.78Zm-80.57,10.81q0.05,2.56.07,5.12h-7.73l-0.09-4.82Zm9.88-.39q0.25,2.75.48,5.5h-8.43q0-2.59-.07-5.19Zm40.19-1.32q0.88,3.39,1.45,6.82h-8.82q0-1.56.1-3.11a9.78,9.78,0,0,0-.44-3.52Zm8.9-.16c0.45,2.32.79,4.65,1,7h-6.61q-0.56-3.44-1.42-6.86Zm6.49-.07,1.14,7.05h-4.75c-0.24-2.34-.56-4.68-1-7Zm8-2.82,0.29,4.32c-1.12.7-2.25,1.4-3.38,2.09l-0.58-3.57Q522.44,1012.27,524.26,1010.83Zm-2.78,8.39c1.07-.65,2.14-1.3,3.2-2q0.18,2.65.36,5.29c-1,.22-1.94.41-2.92,0.6Zm-30.37-5.08c0.91,1.83.75,4.34,0.56,6.57H485c0-.18,0-0.35,0-0.53a49,49,0,0,0-.11-5.85Zm-8.24.25a33.77,33.77,0,0,1,.11,3.38c0,1,.07,2,0.1,2.94h-9.34q-0.4-3-1-6Zm-12,.42q0.58,2.93,1,5.89H463q-0.23-2.79-.48-5.57ZM441.15,1016l0.09,4.75h-5.35q0.29-2.3.67-4.58Zm-8.89-.23q-0.19,1.23-.37,2.46l-1-.74q0.18-1.43.39-2.84Zm-0.65,4.58c-0.14,1.14-.26,2.29-0.38,3.43l-0.94-.23c0.11-1.31.24-2.62,0.38-3.92Zm-0.55,5.31q-0.31,3.73-.42,7.47h-0.91q0.15-3.86.42-7.71Zm4.62-3.06h5.6l0.15,8.42-6.42.2C435.12,1028.31,435.34,1025.43,435.67,1022.56Zm7.46,0h7.7q0,4.07-.09,8.13l-7.47.24Zm9.56,0h8.57q0.3,3.89.53,7.78l-9.18.29Q452.69,1026.6,452.69,1022.56Zm10.43,0h9c0.3,2.47.52,4.94,0.68,7.43l-9.16.29Q463.41,1026.42,463.12,1022.56Zm10.87,0h9.17v0c0.07,2.36.09,4.72,0.09,7.08l-8.6.27C474.48,1027.47,474.27,1025,474,1022.56Zm11,0h6.53c0,0.19,0,.38,0,0.55,0,2.09,0,4.19,0,6.28l-6.45.2Q485.11,1026.08,485,1022.56Zm8.4,6.43c-0.06-2.14,0-4.29,0-6.43h9.14c0.31,2.15.54,4.3,0.7,6.47l-9.83.31C493.42,1029.22,493.41,1029.11,493.41,1029Zm11-6.43h6.51c0.17,2.07.28,4.14,0.35,6.21l-6.19.2C504.94,1026.83,504.73,1024.69,504.43,1022.56Zm8.35,0h4.88l1,6-5.5.17C513.06,1026.66,512.95,1024.61,512.78,1022.56Zm9.64,2.42q1.38-.26,2.75-0.56,0.24,3.45.49,6.9l-2.2.1Zm5,5.42q-0.24-3.2-.46-6.4,3.31-.8,6.55-1.84,0.41,4.17.7,8.34-3.36.44-6.74,0.69Zm-0.58-8.28q-0.2-3-.4-6,3-1.9,5.94-3.87,0.53,4,1,8Q530.14,1021.31,526.87,1022.12ZM519,1009.44a2.21,2.21,0,0,0-.82-0.15l-2.2,0q0.47-1.73,1-3.45h6.56Q521.32,1007.7,519,1009.44Zm-4.95-.1c-2.14,0-4.29,0-6.43.07q-0.26-1.72-.45-3.45,3.92-.06,7.85-0.09C514.71,1007,514.39,1008.18,514.08,1009.34Zm-8.29.11q-5,.09-9.9.21,0-1.73.06-3.46,4.7-.13,9.4-0.21C505.46,1007.15,505.62,1008.3,505.79,1009.45Zm-11.76.27q-5.66.15-11.32,0.34a1,1,0,0,0,.16-0.43l0.38-3q5.42-.23,10.84-0.38Q494.07,1008,494,1009.72Zm-12.94.4-9.53.34-0.3-3.23q5.06-.28,10.12-0.49l-0.37,2.9A0.81,0.81,0,0,0,481.08,1010.11Zm-11.39.41-9.7.37c-0.1-1-.21-2-0.32-3q4.86-.33,9.73-0.6Zm-11.56.38s0,0,0,.07l-8,.31a0.92,0.92,0,0,0,0-.57l-0.47-2q4-.32,8.09-0.6C457.93,1009,458,1009.95,458.14,1010.9Zm-9.72.3a1,1,0,0,0,0,.14l-5.73.22-1.34-2.22,6.48-.54Zm-7.81.44-6,.22q-0.74-.88-1.5-1.75l6.18-.58ZM429,1018.29q-0.28,2.39-.48,4.79-1.23-.28-2.46-0.52,0.24-3.05.4-6.11Q427.7,1017.35,429,1018.29Zm-0.63,6.66c-0.2,2.71-.34,5.42-0.45,8.14H425q0.47-4.33.84-8.68Q427.1,1024.67,428.33,1024.95ZM423,1035q-0.47,4.19-1,8.37l-4.64.57q0.28-4.47.6-8.94H423Zm1.86,0h3c-0.08,2.56-.14,5.12-0.18,7.67l-3.8.46Q424.35,1039,424.81,1035Zm4.85,0h0.93c0,0.81,0,1.61,0,2.42,0,1.63.07,3.25,0.15,4.88l-1.24.15C429.53,1039.92,429.58,1037.44,429.66,1035Zm5.25,1.24c0-1,0-2.09,0-3.14l6.51-.21,0.12,6.66-6.61.08C434.94,1038.45,434.91,1037.32,434.91,1036.19Zm8.4-3.41,7.39-.23q-0.09,3.41-.25,6.83l-7,.11Zm9.25-.29,9.34-.3q0.2,3.48.35,7l-9.93.18Q452.47,1035.92,452.56,1032.49Zm11.19-.35,9.17-.29c0.14,2.36.23,4.72,0.3,7.08l-9.12.21Q464,1035.63,463.75,1032.14Zm11-.35,8.48-.27c0,0.63,0,1.26,0,1.89q0,2.63-.1,5.25l-8.07.21C475,1036.52,474.9,1034.15,474.77,1031.79Zm10.34,0.42c0-.25,0-0.5,0-0.75l6.51-.21q0,1.22.11,2.43,0.12,2.36.32,4.72l-7.06.21C485,1036.48,485.09,1034.35,485.11,1032.21Zm8.38-1,9.89-.31c0.14,2.38.19,4.76,0.19,7.15l-9.63.32Q493.63,1034.78,493.49,1031.2Zm19.7-.62,5.74-.18,0.27,1.69c0.09,0.55.5,2.67,1,5.32l-6.93.27C513.26,1035.31,513.24,1032.94,513.18,1030.57Zm11,5.2-0.41-2.51,2-.1c0.17,2.3.35,4.62,0.58,6.94h-1.5Zm3.47-2.73q3.37-.25,6.72-0.69,0.24,3.88.39,7.76h-6.51C528,1037.76,527.81,1035.39,527.64,1033Zm8.56-.94q1.73-.25,3.45-0.56,0.47,4.28.89,8.57H536.6Q536.46,1036.1,536.2,1032.1Zm3.24-2.4q-1.68.3-3.36,0.55-0.3-4.34-.74-8.68c1-.35,2-0.72,3-1.1Q538.92,1025.08,539.44,1029.7ZM525.71,1004q-4.1,0-8.19,0c0.3-1,.61-2,0.92-3.07q5.14,0.14,10.27.36Q527.23,1002.67,525.71,1004Zm-10.13,0q-4.28,0-8.57.09-0.15-1.7-.22-3.39,4.86,0.06,9.71.18C516.19,1001.93,515.88,1003,515.58,1004Zm-10.42.13q-4.61.08-9.21,0.2,0-1.84,0-3.69,4.5,0,9,0C505,1001.84,505.06,1003,505.16,1004.14Zm-11.07.26q-5.31.16-10.61,0.37l0.51-4q5-.09,10.09-0.11Q494.1,1002.53,494.09,1004.4Zm-12-3.59-0.51,4q-5.26.23-10.53,0.51l-0.39-4.25Q476.41,1000.93,482.12,1000.81ZM469,1002.66l0.26,2.82q-4.89.28-9.78,0.6-0.27-2.23-.6-4.46,5-.25,10.06-0.44C468.93,1001.82,468.95,1002.33,469,1002.66Zm-11.36,3.56q-4.15.29-8.29,0.61l-1-4.59q4.37-.28,8.73-0.51Q457.34,1004,457.61,1006.22Zm-10.17.76q-3.57.29-7.13,0.61l-1.52-2.5c-0.36-.6-0.86-1.3-1.4-2.06q4.5-.35,9-0.66Zm-22.83,8.25q-0.17,3.5-.44,7-2.6-.45-5.23-0.74,0.33-3.94.69-7.87c0-.49.09-1,0.14-1.47Q422.24,1013.63,424.62,1015.23Zm-7.43,30.53,4.51-.55q-0.46,3.58-.94,7.16l-4,1.67Q416.94,1049.9,417.19,1045.76Zm12.27-1.5,1.37-.17q0.13,2,.32,4l-1.76.73Q429.43,1046.53,429.46,1044.26Zm5.9,2.52c-0.16-1.78-.27-3.56-0.34-5.34l6.59-.07,0.12,6.46-6.28.29C435.42,1047.66,435.4,1047.21,435.36,1046.78Zm16.86-5.57,10.1-.19q0.11,2.93.19,5.86l-10.66.47Q452.06,1044.28,452.22,1041.21Zm22.91-.47,7.95-.21q-0.1,2.76-.25,5.52l-7.56.3Q475.2,1043.55,475.13,1040.74Zm19-.54,9.45-.31q0,2.68-.15,5.37l-8.69.33Q494.37,1042.9,494.11,1040.2Zm11.3-.38,6-.22c0,1.79,0,3.58,0,5.38l-6.19.22Q505.37,1042.51,505.41,1039.82Zm7.87-.29,7.27-.29c0.33,1.76.67,3.63,1,5.39l-8.21.29C513.28,1043.12,513.28,1041.33,513.27,1039.53Zm11.9,2.44h1.41c0.16,1.37.34,2.75,0.56,4.11l-1.33-.21Zm11.49,0h4q0.29,3.17.54,6.35l-4.47-.71Q536.75,1044.79,536.66,1042ZM532,998.15l-1.39,1.36q-5.78-.25-11.57-0.41,0.67-2.12,1.39-4.22c1.79,0.16,3.56.39,5.3,0.71A15,15,0,0,1,532,998.15Zm-13.48-3.42q-0.72,2.15-1.41,4.32-5.18-.13-10.36-0.19,0-2.12,0-4.25C510.67,994.52,514.62,994.48,518.5,994.73Zm-13.6-.08q-0.06,2.09,0,4.18-4.49,0-9,0,0-2-.11-4h1.71C499.94,994.78,502.41,994.71,504.9,994.65Zm-36.4.61a26.75,26.75,0,0,1,.38,4.07q-5.15.19-10.29,0.45-0.33-2.12-.7-4.23c2.93-.08,5.85-0.15,8.76-0.24ZM456,995.6q0.38,2.14.72,4.28-4.44.24-8.87,0.53l-1-4.43C449.9,995.81,453,995.69,456,995.6Zm-11,.5,1,4.43q-4.9.33-9.8,0.73a14.15,14.15,0,0,1-2.05-4.08l2.9-.35C439.66,996.51,442.31,996.28,445,996.1Zm-12.68,1.34a13,13,0,0,0,2,4q-4.15.34-8.3,0.73a1,1,0,0,0-.43.14q-1.15-1.08-2.34-2.12A26.06,26.06,0,0,1,432.28,997.44Zm-15.66,58.64,3.85-1.6q-0.38,2.9-.76,5.79c-1.11.8-2.24,1.57-3.38,2.31Q416.47,1059.33,416.63,1056.08Zm13.59-4.27-0.89.78q0-.89,0-1.79l2-.81c0,0.41.07,0.83,0.12,1.26A2.17,2.17,0,0,0,430.21,1051.81Zm5.67-.13a11.56,11.56,0,0,1-.3-1.72l6.17-.28,0.06,3.21h-2.08C438.53,1052.89,436.32,1053.33,435.89,1051.68Zm16.19,1.22a3.36,3.36,0,0,0,0-.64,0.9,0.9,0,0,0-.55-0.8c0.06-.75.12-1.49,0.18-2.24l10.83-.47q0,2.09.07,4.17H452.07Zm24,0a1,1,0,0,0-.62-0.71q-0.06-2-.1-4l7.41-.3q-0.15,2.52-.34,5H476Zm19.82,0q-0.49-2.76-.89-5.52l8.36-.31q-0.12,2.39-.28,4.77a0.79,0.79,0,0,0-.31.71l0,0.37h-6.89Zm9,0q0.21-3,.36-5.92l6.3-.22c0,2,.09,4,0.19,6.06C509.39,1053,507.1,1053,504.82,1053Zm17.57-1.1c-2.53,1-6,.92-8.86,1-0.1-2-.16-4-0.2-6.08l8.5-.3C522.32,1049.48,522.62,1051.78,522.38,1051.87Zm4.26-.57a32.72,32.72,0,0,0-.51-3.41l0-.1,1.35,0.21c0.26,1.38.56,2.76,0.91,4.11l-0.41-.32A2.24,2.24,0,0,0,526.65,1051.3Zm10.07,6.76q0.1-4.29.08-8.58l4.59,0.73q0.4,5.55.67,11.11Q539.34,1059.76,536.71,1058.07Z" transform="translate(-67.19 -880.05)"/><path class="cls-1" d="M224.11,976.16A39.21,39.21,0,0,0,225.38,958a11.72,11.72,0,0,0,.78-1.41,1.6,1.6,0,0,0-1.55-2.19,38.55,38.55,0,0,0-4.72-10.82,2.33,2.33,0,0,0-1.59-2.3c-0.15-.21-0.3-0.42-0.46-0.62-6.78-8.78-18.16-16-29.12-19.48a46.56,46.56,0,0,0-24.09-.8,2,2,0,0,0-1.67.4h0a45,45,0,0,0-27.77,18.5c-8.42,12.61-7.87,29.42,0,42.7,7.65,12.9,23.06,22.2,38.79,23.65l1.4,0.11a2.17,2.17,0,0,0,2.92.11A52.2,52.2,0,0,0,210,995.69a2,2,0,0,0,3-2.44c0.44-.39.88-0.79,1.3-1.2a37.41,37.41,0,0,0,8.76-13A2.09,2.09,0,0,0,224.11,976.16Zm-3.32-5.37-0.13.07a10.24,10.24,0,0,1-.9.53l1.23-1.77Q220.9,970.2,220.79,970.79Zm-10.89-9.06-0.07.07s0,0,0-.05h0.07Zm10.63-5.14c-0.88.56-1.75,1.13-2.61,1.73q1.22-1.25,2.41-2.53C220.4,956.05,220.47,956.32,220.53,956.59Zm-8.14,9.46-0.36.39-0.23-.28A4.35,4.35,0,0,0,212.39,966.05Zm7.13,0.1-3.11,4.46c-0.45-.37-0.89-0.74-1.33-1.14l0,0C216.22,968.57,218,967.2,219.52,966.16Zm-44.67-38.84,0.49-.3a13.64,13.64,0,0,0-1.38,2.18l-0.81-.8C173.72,928.06,174.26,927.68,174.86,927.31Zm7.48,4.1q1.07-1.14,2.06-2.34l0.08-.08q1.85-.77,3.66-1.62l-0.51.38c-1.11.78-3.49,3.07-5.59,4.16Zm-5.41,1-0.5-.55,1.15-.35C177.35,931.79,177.13,932.09,176.92,932.39Zm5.26,2.73-1,.85a8.07,8.07,0,0,1-.78-0.45A4.7,4.7,0,0,0,182.18,935.12Zm5.63-.19a1.19,1.19,0,0,0,0,.67,15.35,15.35,0,0,1-1.68.6Zm10.59-4.29a1.19,1.19,0,0,0,0-.69l0.66,0.39Zm-14.57-6.44,0.18,0a29.5,29.5,0,0,0-2.42,2.66q-1.39.54-2.81,1l0.25-.29c0.86-.91,2.2-1.46,2.91-2.48a3.37,3.37,0,0,0,.54-1.19Zm-34.52,27.24,0.25-.14-0.42.3Zm-11-8.24-0.42.36,0.25-.46Zm7.11,6.86c0.75-.46,1.49-0.93,2.22-1.4l-0.42.43Zm2.49-13.65q0.75-.73,1.48-1.47l0.18,0.55Q148.74,935.94,147.91,936.41Zm-3.9-1,0.34,0q-1.09,1-2.23,2Q143,936.38,144,935.42Zm-7.09,10.11a1.71,1.71,0,0,0,.51.7l-1.19.89C136.46,946.58,136.68,946,136.92,945.52Zm-2.06,5.71a1.9,1.9,0,0,0,.9,0l0.2-.06a4,4,0,0,0,.27.92,1.66,1.66,0,0,0,.29.45,27.23,27.23,0,0,0-2.41,2.13Q134.41,952.93,134.87,951.23Zm9.65,2.8,0.1,0.06-0.58.19Zm3.59-1.43a1.23,1.23,0,0,0-.07.35l-0.52.19Zm-5.85,31.89a3.62,3.62,0,0,0,3,0l-1.56,1.72C143.22,985.64,142.73,985.07,142.25,984.49Zm-3.18-4.38,0.2-.08-0.11.23Zm12.94,10a1.56,1.56,0,0,0-.74-0.35c0.52-.43,1-0.87,1.53-1.31C152.53,989,152.26,989.53,152,990.09Zm-6-1.57,1-.47-0.77.73Zm3.33,2.68a1.22,1.22,0,0,0,0,.25l-0.19-.15Zm6.68-8.63a2.59,2.59,0,0,0-.55-1.23,3.33,3.33,0,0,1,1.33.9C156.54,982.33,156.28,982.45,156,982.57ZM152.86,981l-0.56.4a2.7,2.7,0,0,0,.34-0.74l0.57,0.13A2.29,2.29,0,0,0,152.86,981Zm-12.12,1.57a2,2,0,0,0,.32,0h0a1.27,1.27,0,0,0,0,.53Zm57.68,9.55c0,1.14-.45,2.3-0.56,3.49-0.5.21-1,.4-1.55,0.57C196.75,995,197.31,993,198.42,992.11Zm-13.63,2.64c-0.23.65-.49,1.3-0.76,1.95a12.12,12.12,0,0,1,.44-1.55Zm1.71,5.69q0,0.35.09,0.68l-0.39.06Zm4.62-1.29c0,0.33,0,.66,0,1l-0.33.08C190.89,999.87,191,999.51,191.12,999.15Zm4.58-8.75c0.07-.27.15-0.54,0.22-0.81l0.51,0.15A6.58,6.58,0,0,0,195.7,990.39Zm13.71,0.18a57.1,57.1,0,0,0-9.39-4c-2.95-1-8.45-2.93-11.41-1.53-3.32,1.57-5.92,5-8,7.73a45.32,45.32,0,0,0-5.29,8.88,46.8,46.8,0,0,1-10.94-2.19l-1.65-11.88c-0.35-2.55-.23-6.55-2.73-8.44-2.78-2.1-6.27-2.43-9.66-3.07l-14.57-2.73a36.41,36.41,0,0,1-2.15-10.68l13.32-5c3.7-1.39,7.21-2.52,9.4-5.72,1.71-2.49,1.1-5.94.32-8.82l0.74-1c0.72-1-.52-2.34-1.69-2.19-1.1-3.55-2.34-7.09-3.51-10.62a42.72,42.72,0,0,1,4-2,2.45,2.45,0,0,0,1.36-.21,39.75,39.75,0,0,1,5.74-2.13l0.33-.08,8.25,8.17c2.54,2.51,5.5,6.5,9.39,7.3,3.64,0.75,6.72-.39,9.88-1.81,4-1.81,8-3.66,12-5.49,2,1.4,3.83,2.87,5.62,4.38a35.89,35.89,0,0,1,5.64,6c-4.67,5.29-9.18,12.25-9.2,19.1,0,3.16,3.2,6.17,5.33,8.43a40.54,40.54,0,0,0,8.24,6.54l-0.15.37A34.56,34.56,0,0,1,209.42,990.58Z" transform="translate(-67.19 -880.05)"/><path class="cls-1" d="M197.18,960l-12.43-14.54a2.57,2.57,0,0,0-3.31-.48c-4.61-1.31-8.78,1-12.48,3.17-4.12,2.41-10.34,4.41-10.86,9.46a32.11,32.11,0,0,0,2,13.95c1.63,4.57,4.64,7.19,9.54,8.84a68.07,68.07,0,0,0,7.48,1.75c2.3,0.49,5.19,1.54,7.52.89s4-2.92,5.47-4.56c1.88-2.07,3.59-4.25,5.26-6.46,1.32-1.74,3.82-4.26,4.09-6.47S198.74,961.79,197.18,960Zm-26.35-6.56c2.15-.82,4.31-1.6,6.49-2.36a93,93,0,0,1-10.44,4.13c-2.49.77-1.55,0.39-.48,0C167.87,954.54,169.35,954,170.83,953.41Zm-3,13.28,8.38-3.83,0.83-.35q-1.3.86-2.58,1.74l-8,3.71C166.87,967.53,167.35,967.11,167.84,966.7Zm12.73-17.1a1.34,1.34,0,0,0,.21-0.58l0.23,0.06a2.69,2.69,0,0,0,.48.11Zm-14.86,8.85a12.81,12.81,0,0,0,1.63-.3l-1.58.73ZM163,965.3l-0.07.06v-0.07H163Zm28.5-4.24-0.82.4a11,11,0,0,0,.72-1.28,1.63,1.63,0,0,0,.1-0.3l0.87,1A1.84,1.84,0,0,0,191.51,961.06Zm-5.88-8-0.93.3,0.71-.58,0.23,0.27h0Zm9,11.26a1.45,1.45,0,0,0-1,.27l-0.28.19a1.31,1.31,0,0,0-.09-1l0.38-.38a1.48,1.48,0,0,0,.35-0.57A2.82,2.82,0,0,1,194.65,964.28Zm-11.83,14.8h-0.27l3.75-3C185.39,977.24,184.14,978.92,182.82,979.08Z" transform="translate(-67.19 -880.05)"/><path class="cls-1" d="M256,1051.56a10.51,10.51,0,0,0,.34-4.86,3.14,3.14,0,0,0,.21-0.38,0.43,0.43,0,0,0-.42-0.59,10.33,10.33,0,0,0-1.27-2.9,0.62,0.62,0,0,0-.43-0.62l-0.12-.17a16.57,16.57,0,0,0-7.8-5.22,12.48,12.48,0,0,0-6.46-.21,0.55,0.55,0,0,0-.45.11h0a12,12,0,0,0-7.44,5,10.81,10.81,0,0,0,0,11.44,13.88,13.88,0,0,0,10.39,6.34l0.37,0a0.58,0.58,0,0,0,.78,0,14,14,0,0,0,8.5-2.73,0.54,0.54,0,0,0,.8-0.66l0.35-.32a10,10,0,0,0,2.35-3.47A0.56,0.56,0,0,0,256,1051.56Zm-0.89-1.44,0,0-0.24.14,0.33-.47Q255.1,1050,255.07,1050.12Zm-2.92-2.43,0,0h0Zm2.85-1.38-0.7.46,0.65-.68Zm-2.18,2.54-0.1.1-0.06-.07Zm1.91,0-0.83,1.19-0.36-.3h0C253.85,1049.52,254.33,1049.16,254.73,1048.88Zm-12-10.41,0.13-.08a3.66,3.66,0,0,0-.37.58l-0.22-.22Zm2,1.1q0.29-.31.55-0.63l0,0,1-.43-0.14.1a12.7,12.7,0,0,1-1.5,1.12Zm-1.45.26-0.13-.15,0.31-.09Zm1.41,0.73-0.27.23-0.21-.12A1.26,1.26,0,0,0,244.72,1040.56Zm1.51-.05a0.32,0.32,0,0,0,0,.18,4.11,4.11,0,0,1-.45.16Zm2.84-1.15a0.32,0.32,0,0,0,0-.18l0.18,0.11Zm-3.9-1.73h0a7.9,7.9,0,0,0-.65.71l-0.75.28,0.07-.08a7,7,0,0,0,.78-0.67,0.9,0.9,0,0,0,.15-0.32Zm-9.25,7.3,0.07,0-0.11.08Zm-2.95-2.21-0.11.1,0.07-.12Zm1.9,1.84,0.6-.38-0.11.11Zm0.67-3.66,0.4-.39,0,0.15Zm-1-.27h0.09l-0.6.52Q234.23,1040.9,234.5,1040.64Zm-1.9,2.71a0.46,0.46,0,0,0,.14.19l-0.32.24C232.47,1043.63,232.53,1043.49,232.6,1043.35Zm-0.55,1.53a0.51,0.51,0,0,0,.24,0l0.05,0a1.08,1.08,0,0,0,.07.25,0.45,0.45,0,0,0,.08.12,7.3,7.3,0,0,0-.65.57Q231.92,1045.33,232,1044.88Zm2.59,0.75,0,0-0.15,0Zm1-.38a0.33,0.33,0,0,0,0,.09l-0.14.05Zm-1.57,8.54a1,1,0,0,0,.81,0l-0.42.46Zm-0.85-1.17,0.05,0,0,0.06Zm3.47,2.68a0.42,0.42,0,0,0-.2-0.1l0.41-.35C236.78,1055,236.71,1055.14,236.64,1055.29Zm-1.61-.42,0.28-.13-0.21.2Zm0.89,0.72a0.33,0.33,0,0,0,0,.07l-0.05,0Zm1.79-2.31a0.69,0.69,0,0,0-.15-0.33,0.89,0.89,0,0,1,.36.24Zm-0.85-.42-0.15.11a0.72,0.72,0,0,0,.09-0.2l0.15,0Zm-3.25.42h0.1a0.34,0.34,0,0,0,0,.14Zm15.46,2.56c0,0.31-.12.62-0.15,0.94l-0.41.15A2.65,2.65,0,0,1,249.08,1055.83Zm-3.65.71c-0.06.17-.13,0.35-0.2,0.52a3.25,3.25,0,0,1,.12-0.42Zm0.46,1.53,0,0.18-0.1,0Zm1.24-.35c0,0.09,0,.18,0,0.27l-0.09,0Zm1.23-2.35,0.06-.22,0.14,0Zm3.67,0a15.3,15.3,0,0,0-2.52-1.07c-0.79-.26-2.27-0.78-3.06-0.41a6.58,6.58,0,0,0-2.14,2.07,12.14,12.14,0,0,0-1.42,2.38,12.54,12.54,0,0,1-2.93-.59l-0.44-3.18c-0.1-.68-0.06-1.76-0.73-2.26a5.89,5.89,0,0,0-2.59-.82l-3.9-.73a9.76,9.76,0,0,1-.58-2.86l3.57-1.35a4.77,4.77,0,0,0,2.52-1.53,2.91,2.91,0,0,0,.09-2.36l0.2-.26c0.19-.26-0.14-0.63-0.45-0.59-0.3-1-.63-1.9-0.94-2.85a11.45,11.45,0,0,1,1.08-.53,0.66,0.66,0,0,0,.37-0.06,10.65,10.65,0,0,1,1.54-.57l0.09,0L242,1040c0.68,0.67,1.47,1.74,2.52,2a4.17,4.17,0,0,0,2.65-.48l3.22-1.47c0.52,0.37,1,.77,1.51,1.17a9.62,9.62,0,0,1,1.51,1.6c-1.25,1.42-2.46,3.28-2.47,5.12,0,0.85.86,1.65,1.43,2.26a10.86,10.86,0,0,0,2.21,1.75l0,0.1A9.26,9.26,0,0,1,252,1055.42Z" transform="translate(-67.19 -880.05)"/><path class="cls-1" d="M248.74,1047.22l-3.33-3.9a0.69,0.69,0,0,0-.89-0.13,4.3,4.3,0,0,0-3.34.85c-1.1.65-2.77,1.18-2.91,2.54a8.6,8.6,0,0,0,.54,3.74,3.68,3.68,0,0,0,2.56,2.37,18.24,18.24,0,0,0,2,.47,4.55,4.55,0,0,0,2,.24,3.49,3.49,0,0,0,1.47-1.22c0.5-.55,1-1.14,1.41-1.73a4.66,4.66,0,0,0,1.1-1.73A1.8,1.8,0,0,0,248.74,1047.22Zm-7.06-1.76,1.74-.63a24.93,24.93,0,0,1-2.8,1.11c-0.67.21-.41,0.1-0.13,0Zm-0.8,3.56,2.24-1,0.22-.09-0.69.47-2.16,1Zm3.41-4.58a0.36,0.36,0,0,0,.06-0.15l0.06,0,0.13,0Zm-4,2.37a3.43,3.43,0,0,0,.44-0.08l-0.42.19v-0.11Zm-0.72,1.84,0,0v0h0Zm7.64-1.14-0.22.11a3,3,0,0,0,.19-0.34l0-.08,0.23,0.27A0.49,0.49,0,0,0,247.23,1047.51Zm-1.58-2.16-0.25.08,0.19-.15,0.06,0.07h0Zm2.42,3a0.39,0.39,0,0,0-.28.07l-0.08.05a0.35,0.35,0,0,0,0-.27l0.1-.1a0.4,0.4,0,0,0,.09-0.15A0.76,0.76,0,0,1,248.07,1048.37Zm-3.17,4h-0.07l1-.8A1.89,1.89,0,0,1,244.9,1052.34Z" transform="translate(-67.19 -880.05)"/><path class="cls-1" d="M290.76,1003.81a6.84,6.84,0,0,0,.22-3.16,2,2,0,0,0,.14-0.25,0.28,0.28,0,0,0-.27-0.38,6.73,6.73,0,0,0-.82-1.89,0.41,0.41,0,0,0-.28-0.4l-0.08-.11a10.79,10.79,0,0,0-5.08-3.4,8.12,8.12,0,0,0-4.2-.14,0.36,0.36,0,0,0-.29.07h0a7.84,7.84,0,0,0-4.84,3.23,7,7,0,0,0,0,7.45A9,9,0,0,0,282,1009l0.24,0a0.38,0.38,0,0,0,.51,0,9.11,9.11,0,0,0,5.53-1.78,0.35,0.35,0,0,0,.52-0.43l0.23-.21a6.53,6.53,0,0,0,1.53-2.26A0.36,0.36,0,0,0,290.76,1003.81Zm-0.58-.94h0L290,1003l0.22-.31Zm-1.9-1.58h0Zm1.85-.9-0.46.3,0.42-.44Zm-1.42,1.65-0.06.07,0,0Zm1.24,0-0.54.78-0.23-.2h0C289.38,1002.48,289.7,1002.24,290,1002.06Zm-7.79-6.78,0.09-.05a2.38,2.38,0,0,0-.24.38l-0.14-.14Zm1.3,0.71,0.36-.41h0l0.64-.28-0.09.07a8.26,8.26,0,0,1-1,.73Zm-0.94.17-0.09-.1,0.2-.06Zm0.92,0.48-0.17.15-0.14-.08A0.82,0.82,0,0,0,283.44,996.65Zm1,0a0.21,0.21,0,0,0,0,.12l-0.29.11Zm1.85-.75a0.21,0.21,0,0,0,0-.12l0.11,0.07Zm-2.54-1.12h0a5.15,5.15,0,0,0-.42.46l-0.49.18,0,0a4.55,4.55,0,0,0,.51-0.43,0.59,0.59,0,0,0,.09-0.21Zm-6,4.75,0,0-0.07.05Zm-1.92-1.44-0.07.06,0-.08Zm1.24,1.2,0.39-.24-0.07.07Zm0.43-2.38,0.26-.26,0,0.1Zm-0.68-.17h0.06l-0.39.34Zm-1.24,1.76a0.3,0.3,0,0,0,.09.12l-0.21.16Zm-0.36,1a0.33,0.33,0,0,0,.16,0h0a0.7,0.7,0,0,0,0,.16,0.29,0.29,0,0,0,.05.08,4.75,4.75,0,0,0-.42.37Q275.11,999.75,275.19,999.46Zm1.68,0.49h0l-0.1,0Zm0.63-.25a0.22,0.22,0,0,0,0,.06l-0.09,0Zm-1,5.56a0.63,0.63,0,0,0,.53,0l-0.27.3Zm-0.55-.76h0l0,0Zm2.26,1.74a0.27,0.27,0,0,0-.13-0.06l0.27-.23Zm-1-.27,0.18-.08-0.13.13Zm0.58,0.47v0l0,0Zm1.17-1.51a0.45,0.45,0,0,0-.1-0.22,0.58,0.58,0,0,1,.23.16Zm-0.55-.28-0.1.07a0.47,0.47,0,0,0,.06-0.13l0.1,0Zm-2.11.27h0.06a0.22,0.22,0,0,0,0,.09Zm10.06,1.67c0,0.2-.08.4-0.1,0.61l-0.27.1A1.73,1.73,0,0,1,286.28,1006.59Zm-2.38.46c0,0.11-.09.23-0.13,0.34a2.11,2.11,0,0,1,.08-0.27Zm0.3,1,0,0.12h-0.07Zm0.81-.23c0,0.06,0,.12,0,0.17h-0.06Zm0.8-1.53,0-.14,0.09,0Zm2.39,0a10,10,0,0,0-1.64-.7,3.37,3.37,0,0,0-2-.27,4.28,4.28,0,0,0-1.4,1.35,7.91,7.91,0,0,0-.92,1.55,8.16,8.16,0,0,1-1.91-.38L280,1005.8a2.11,2.11,0,0,0-.48-1.47,3.83,3.83,0,0,0-1.68-.54l-2.54-.48a6.35,6.35,0,0,1-.37-1.86l2.32-.88a3.1,3.1,0,0,0,1.64-1A1.89,1.89,0,0,0,279,998l0.13-.17c0.12-.17-0.09-0.41-0.29-0.38-0.19-.62-0.41-1.24-0.61-1.85a7.45,7.45,0,0,1,.7-0.34,0.43,0.43,0,0,0,.24,0,6.94,6.94,0,0,1,1-.37h0.06l1.44,1.42a3.85,3.85,0,0,0,1.64,1.27,2.71,2.71,0,0,0,1.72-.31l2.1-1c0.34,0.24.67,0.5,1,.76a6.26,6.26,0,0,1,1,1,5.53,5.53,0,0,0-1.61,3.33,2.59,2.59,0,0,0,.93,1.47,7.07,7.07,0,0,0,1.44,1.14l0,0.06A6,6,0,0,1,288.19,1006.32Z" transform="translate(-67.19 -880.05)"/><path class="cls-1" d="M286.06,1001l-2.17-2.54a0.45,0.45,0,0,0-.58-0.08,2.8,2.8,0,0,0-2.18.55c-0.72.42-1.8,0.77-1.89,1.65a5.6,5.6,0,0,0,.35,2.43,2.4,2.4,0,0,0,1.66,1.54,11.88,11.88,0,0,0,1.3.3,3,3,0,0,0,1.31.16,2.27,2.27,0,0,0,1-.8c0.33-.36.63-0.74,0.92-1.13a3,3,0,0,0,.71-1.13A1.17,1.17,0,0,0,286.06,1001Zm-4.6-1.14,1.13-.41a16.23,16.23,0,0,1-1.82.72c-0.43.13-.27,0.07-0.08,0Zm-0.52,2.32,1.46-.67,0.14-.06-0.45.3-1.4.65Zm2.22-3a0.23,0.23,0,0,0,0-.1h0l0.08,0Zm-2.59,1.54,0.28-.05-0.28.13v-0.07Zm-0.47,1.2h0Zm5-.74-0.14.07a1.92,1.92,0,0,0,.13-0.22l0-.05,0.15,0.18A0.32,0.32,0,0,0,285.07,1001.17Zm-1-1.4-0.16.05,0.12-.1,0,0h0Zm1.57,2a0.25,0.25,0,0,0-.18,0l0,0a0.23,0.23,0,0,0,0-.18l0.07-.07a0.26,0.26,0,0,0,.06-0.1A0.49,0.49,0,0,1,285.62,1001.73Zm-2.06,2.58h0l0.65-.52A1.23,1.23,0,0,1,283.55,1004.32Z" transform="translate(-67.19 -880.05)"/><path class="cls-1" d="M312.14,1056.1a6.84,6.84,0,0,0,.22-3.16,2,2,0,0,0,.14-0.25,0.28,0.28,0,0,0-.27-0.38,6.73,6.73,0,0,0-.82-1.89,0.41,0.41,0,0,0-.28-0.4l-0.08-.11a10.79,10.79,0,0,0-5.08-3.4,8.12,8.12,0,0,0-4.2-.14,0.36,0.36,0,0,0-.29.07h0a7.84,7.84,0,0,0-4.84,3.23,7,7,0,0,0,0,7.45,9,9,0,0,0,6.77,4.13l0.24,0a0.38,0.38,0,0,0,.51,0,9.11,9.11,0,0,0,5.53-1.78,0.35,0.35,0,0,0,.52-0.43l0.23-.21a6.53,6.53,0,0,0,1.53-2.26A0.36,0.36,0,0,0,312.14,1056.1Zm-0.58-.94h0l-0.16.09,0.22-.31Zm-1.9-1.58h0Zm1.85-.9-0.46.3,0.42-.44Zm-1.42,1.65-0.06.07,0,0Zm1.24,0-0.54.78-0.23-.2h0C310.76,1054.78,311.07,1054.54,311.34,1054.36Zm-7.79-6.78,0.09-.05a2.38,2.38,0,0,0-.24.38l-0.14-.14Zm1.3,0.71,0.36-.41h0l0.64-.28-0.09.07a8.26,8.26,0,0,1-1,.73Zm-0.94.17-0.09-.1,0.2-.06Zm0.92,0.48-0.17.15-0.14-.08A0.82,0.82,0,0,0,304.82,1048.94Zm1,0a0.21,0.21,0,0,0,0,.12l-0.29.11Zm1.85-.75a0.21,0.21,0,0,0,0-.12l0.11,0.07Zm-2.54-1.12h0a5.15,5.15,0,0,0-.42.46l-0.49.18,0,0a4.55,4.55,0,0,0,.51-0.43,0.59,0.59,0,0,0,.09-0.21Zm-6,4.75,0,0-0.07.05Zm-1.92-1.44-0.07.06,0-.08Zm1.24,1.2,0.39-.24-0.07.07Zm0.43-2.38,0.26-.26,0,0.1Zm-0.68-.17h0.06l-0.39.34Zm-1.24,1.76a0.3,0.3,0,0,0,.09.12l-0.21.16Zm-0.36,1a0.33,0.33,0,0,0,.16,0h0a0.7,0.7,0,0,0,0,.16,0.29,0.29,0,0,0,.05.08,4.75,4.75,0,0,0-.42.37Q296.49,1052.05,296.57,1051.76Zm1.68,0.49h0l-0.1,0Zm0.63-.25a0.22,0.22,0,0,0,0,.06l-0.09,0Zm-1,5.56a0.63,0.63,0,0,0,.53,0l-0.27.3Zm-0.55-.76h0l0,0Zm2.26,1.74a0.27,0.27,0,0,0-.13-0.06l0.27-.23Zm-1-.27,0.18-.08-0.13.13Zm0.58,0.47v0l0,0Zm1.17-1.51a0.45,0.45,0,0,0-.1-0.22,0.58,0.58,0,0,1,.23.16Zm-0.55-.28-0.1.07a0.47,0.47,0,0,0,.06-0.13l0.1,0Zm-2.11.27h0.06a0.22,0.22,0,0,0,0,.09Zm10.06,1.67c0,0.2-.08.4-0.1,0.61l-0.27.1A1.73,1.73,0,0,1,307.65,1058.89Zm-2.38.46c0,0.11-.09.23-0.13,0.34a2.11,2.11,0,0,1,.08-0.27Zm0.3,1,0,0.12h-0.07Zm0.81-.23c0,0.06,0,.12,0,0.17h-0.06Zm0.8-1.53,0-.14,0.09,0Zm2.39,0a10,10,0,0,0-1.64-.7,3.37,3.37,0,0,0-2-.27,4.28,4.28,0,0,0-1.4,1.35,7.91,7.91,0,0,0-.92,1.55,8.16,8.16,0,0,1-1.91-.38l-0.29-2.07a2.11,2.11,0,0,0-.48-1.47,3.83,3.83,0,0,0-1.68-.54l-2.54-.48a6.35,6.35,0,0,1-.37-1.86l2.32-.88a3.1,3.1,0,0,0,1.64-1,1.89,1.89,0,0,0,.06-1.54l0.13-.17c0.12-.17-0.09-0.41-0.29-0.38-0.19-.62-0.41-1.24-0.61-1.85a7.45,7.45,0,0,1,.7-0.34,0.43,0.43,0,0,0,.24,0,6.94,6.94,0,0,1,1-.37h0.06l1.44,1.42a3.85,3.85,0,0,0,1.64,1.27,2.71,2.71,0,0,0,1.72-.31l2.1-1c0.34,0.24.67,0.5,1,.76a6.26,6.26,0,0,1,1,1,5.53,5.53,0,0,0-1.61,3.33,2.59,2.59,0,0,0,.93,1.47,7.07,7.07,0,0,0,1.44,1.14l0,0.06A6,6,0,0,1,309.57,1058.62Z" transform="translate(-67.19 -880.05)"/><path class="cls-1" d="M307.44,1053.28l-2.17-2.54a0.45,0.45,0,0,0-.58-0.08,2.8,2.8,0,0,0-2.18.55c-0.72.42-1.8,0.77-1.89,1.65a5.6,5.6,0,0,0,.35,2.43,2.4,2.4,0,0,0,1.66,1.54,11.88,11.88,0,0,0,1.3.3,3,3,0,0,0,1.31.16,2.27,2.27,0,0,0,1-.8c0.33-.36.63-0.74,0.92-1.13a3,3,0,0,0,.71-1.13A1.17,1.17,0,0,0,307.44,1053.28Zm-4.6-1.14,1.13-.41a16.23,16.23,0,0,1-1.82.72c-0.43.13-.27,0.07-0.08,0Zm-0.52,2.32,1.46-.67,0.14-.06-0.45.3-1.4.65Zm2.22-3a0.23,0.23,0,0,0,0-.1h0l0.08,0Zm-2.59,1.54,0.28-.05-0.28.13V1053Zm-0.47,1.2h0Zm5-.74-0.14.07a1.92,1.92,0,0,0,.13-0.22l0-.05,0.15,0.18A0.32,0.32,0,0,0,306.45,1053.47Zm-1-1.4-0.16.05,0.12-.1,0,0h0Zm1.57,2a0.25,0.25,0,0,0-.18,0l0,0a0.23,0.23,0,0,0,0-.18l0.07-.07a0.26,0.26,0,0,0,.06-0.1A0.49,0.49,0,0,1,307,1054Zm-2.06,2.58h0l0.65-.52A1.23,1.23,0,0,1,304.93,1056.61Z" transform="translate(-67.19 -880.05)"/><path class="cls-1" d="M407.92,1035.93a6.84,6.84,0,0,0,.22-3.16,2,2,0,0,0,.14-0.25,0.28,0.28,0,0,0-.27-0.38,6.73,6.73,0,0,0-.82-1.89,0.41,0.41,0,0,0-.28-0.4l-0.08-.11a10.79,10.79,0,0,0-5.08-3.4,8.12,8.12,0,0,0-4.2-.14,0.36,0.36,0,0,0-.29.07h0a7.84,7.84,0,0,0-4.84,3.23,7,7,0,0,0,0,7.45,9,9,0,0,0,6.77,4.13l0.24,0a0.38,0.38,0,0,0,.51,0,9.11,9.11,0,0,0,5.53-1.78,0.35,0.35,0,0,0,.52-0.43l0.23-.21a6.53,6.53,0,0,0,1.53-2.26A0.36,0.36,0,0,0,407.92,1035.93Zm-0.58-.94h0l-0.16.09,0.22-.31Zm-1.9-1.58h0Zm1.85-.9-0.46.3,0.42-.44Zm-1.42,1.65-0.06.07,0,0Zm1.24,0-0.54.78-0.23-.2h0C406.55,1034.61,406.86,1034.37,407.12,1034.19Zm-7.79-6.78,0.09-.05a2.38,2.38,0,0,0-.24.38l-0.14-.14Zm1.3,0.71,0.36-.41h0l0.64-.28-0.09.07a8.26,8.26,0,0,1-1,.73Zm-0.94.17-0.09-.1,0.2-.06Zm0.92,0.48-0.17.15-0.14-.08A0.82,0.82,0,0,0,400.61,1028.77Zm1,0a0.21,0.21,0,0,0,0,.12l-0.29.11Zm1.85-.75a0.21,0.21,0,0,0,0-.12l0.11,0.07Zm-2.54-1.12h0a5.15,5.15,0,0,0-.42.46l-0.49.18,0,0a4.55,4.55,0,0,0,.51-0.43,0.59,0.59,0,0,0,.09-0.21Zm-6,4.75,0,0-0.07.05Zm-1.92-1.44-0.07.06,0-.08Zm1.24,1.2,0.39-.24-0.07.07Zm0.43-2.38,0.26-.26,0,0.1Zm-0.68-.17H394l-0.39.34Zm-1.24,1.76a0.3,0.3,0,0,0,.09.12l-0.21.16Zm-0.36,1a0.33,0.33,0,0,0,.16,0h0a0.7,0.7,0,0,0,0,.16,0.29,0.29,0,0,0,.05.08,4.75,4.75,0,0,0-.42.37Q392.27,1031.88,392.35,1031.58Zm1.68,0.49h0l-0.1,0Zm0.63-.25a0.22,0.22,0,0,0,0,.06l-0.09,0Zm-1,5.56a0.63,0.63,0,0,0,.53,0l-0.27.3Zm-0.55-.76h0l0,0Zm2.26,1.74a0.27,0.27,0,0,0-.13-0.06l0.27-.23Zm-1-.27,0.18-.08-0.13.13Zm0.58,0.47v0l0,0ZM396,1037a0.45,0.45,0,0,0-.1-0.22,0.58,0.58,0,0,1,.23.16Zm-0.55-.28-0.1.07a0.47,0.47,0,0,0,.06-0.13l0.1,0Zm-2.11.27h0.06a0.22,0.22,0,0,0,0,.09Zm10.06,1.67c0,0.2-.08.4-0.1,0.61l-0.27.1A1.73,1.73,0,0,1,403.44,1038.71Zm-2.38.46c0,0.11-.09.23-0.13,0.34a2.11,2.11,0,0,1,.08-0.27Zm0.3,1,0,0.12h-0.07Zm0.81-.23c0,0.06,0,.12,0,0.17h-0.06Zm0.8-1.53,0-.14,0.09,0Zm2.39,0a10,10,0,0,0-1.64-.7,3.37,3.37,0,0,0-2-.27,4.28,4.28,0,0,0-1.4,1.35,7.91,7.91,0,0,0-.92,1.55,8.16,8.16,0,0,1-1.91-.38l-0.29-2.07a2.11,2.11,0,0,0-.48-1.47,3.83,3.83,0,0,0-1.68-.54l-2.54-.48a6.35,6.35,0,0,1-.37-1.86l2.32-.88a3.1,3.1,0,0,0,1.64-1,1.89,1.89,0,0,0,.06-1.54l0.13-.17c0.12-.17-0.09-0.41-0.29-0.38-0.19-.62-0.41-1.24-0.61-1.85a7.45,7.45,0,0,1,.7-0.34,0.43,0.43,0,0,0,.24,0,6.94,6.94,0,0,1,1-.37h0.06l1.44,1.42a3.85,3.85,0,0,0,1.64,1.27,2.71,2.71,0,0,0,1.72-.31l2.1-1c0.34,0.24.67,0.5,1,.76a6.26,6.26,0,0,1,1,1,5.53,5.53,0,0,0-1.61,3.33,2.59,2.59,0,0,0,.93,1.47,7.07,7.07,0,0,0,1.44,1.14l0,0.06A6,6,0,0,1,405.36,1038.45Z" transform="translate(-67.19 -880.05)"/><path class="cls-1" d="M403.22,1033.11l-2.17-2.54a0.45,0.45,0,0,0-.58-0.08,2.8,2.8,0,0,0-2.18.55c-0.72.42-1.8,0.77-1.89,1.65a5.6,5.6,0,0,0,.35,2.43,2.4,2.4,0,0,0,1.66,1.54,11.88,11.88,0,0,0,1.3.3,3,3,0,0,0,1.31.16,2.27,2.27,0,0,0,1-.8c0.33-.36.63-0.74,0.92-1.13a3,3,0,0,0,.71-1.13A1.17,1.17,0,0,0,403.22,1033.11Zm-4.6-1.14,1.13-.41a16.23,16.23,0,0,1-1.82.72c-0.43.13-.27,0.07-0.08,0Zm-0.52,2.32,1.46-.67,0.14-.06-0.45.3-1.4.65Zm2.22-3a0.23,0.23,0,0,0,0-.1h0l0.08,0Zm-2.59,1.54,0.28-.05-0.28.13v-0.07Zm-0.47,1.2h0Zm5-.74-0.14.07a1.92,1.92,0,0,0,.13-0.22l0-.05,0.15,0.18A0.32,0.32,0,0,0,402.24,1033.3Zm-1-1.4-0.16.05,0.12-.1,0,0h0Zm1.57,2a0.25,0.25,0,0,0-.18,0l0,0a0.23,0.23,0,0,0,0-.18l0.07-.07a0.26,0.26,0,0,0,.06-0.1A0.49,0.49,0,0,1,402.78,1033.86Zm-2.06,2.58h0l0.65-.52A1.23,1.23,0,0,1,400.72,1036.44Z" transform="translate(-67.19 -880.05)"/><path class="cls-1" d="M326.67,971.86a6.84,6.84,0,0,0,.22-3.16,2,2,0,0,0,.14-0.25,0.28,0.28,0,0,0-.27-0.38,6.73,6.73,0,0,0-.82-1.89,0.41,0.41,0,0,0-.28-0.4l-0.08-.11a10.79,10.79,0,0,0-5.08-3.4,8.12,8.12,0,0,0-4.2-.14,0.36,0.36,0,0,0-.29.07h0a7.84,7.84,0,0,0-4.84,3.23,7,7,0,0,0,0,7.45,9,9,0,0,0,6.77,4.13l0.24,0a0.38,0.38,0,0,0,.51,0,9.11,9.11,0,0,0,5.53-1.78,0.35,0.35,0,0,0,.52-0.43l0.23-.21a6.53,6.53,0,0,0,1.53-2.26A0.36,0.36,0,0,0,326.67,971.86Zm-0.58-.94h0l-0.16.09,0.22-.31Zm-1.9-1.58h0Zm1.85-.9-0.46.3,0.42-.44Zm-1.42,1.65-0.06.07,0,0Zm1.24,0-0.54.78-0.23-.2h0C325.3,970.53,325.61,970.29,325.87,970.11Zm-7.79-6.78,0.09-.05a2.38,2.38,0,0,0-.24.38l-0.14-.14Zm1.3,0.71,0.36-.41h0l0.64-.28-0.09.07a8.26,8.26,0,0,1-1,.73Zm-0.94.17-0.09-.1,0.2-.06Zm0.92,0.48-0.17.15-0.14-.08A0.82,0.82,0,0,0,319.36,964.7Zm1,0a0.21,0.21,0,0,0,0,.12l-0.29.11Zm1.85-.75a0.21,0.21,0,0,0,0-.12l0.11,0.07Zm-2.54-1.12h0a5.15,5.15,0,0,0-.42.46l-0.49.18,0,0a4.55,4.55,0,0,0,.51-0.43,0.59,0.59,0,0,0,.09-0.21Zm-6,4.75,0,0-0.07.05Zm-1.92-1.44-0.07.06,0-.08Zm1.24,1.2,0.39-.24-0.07.07Zm0.43-2.38,0.26-.26,0,0.1Zm-0.68-.17h0.06l-0.39.34Zm-1.24,1.76a0.3,0.3,0,0,0,.09.12l-0.21.16Zm-0.36,1a0.33,0.33,0,0,0,.16,0h0a0.7,0.7,0,0,0,0,.16,0.29,0.29,0,0,0,.05.08,4.75,4.75,0,0,0-.42.37Q311,967.8,311.1,967.51Zm1.68,0.49h0l-0.1,0Zm0.63-.25a0.22,0.22,0,0,0,0,.06l-0.09,0Zm-1,5.56a0.63,0.63,0,0,0,.53,0l-0.27.3Zm-0.55-.76h0l0,0Zm2.26,1.74a0.27,0.27,0,0,0-.13-0.06l0.27-.23Zm-1-.27,0.18-.08-0.13.13Zm0.58,0.47v0l0,0Zm1.17-1.51a0.45,0.45,0,0,0-.1-0.22,0.58,0.58,0,0,1,.23.16Zm-0.55-.28-0.1.07a0.47,0.47,0,0,0,.06-0.13l0.1,0Zm-2.11.27h0.06a0.22,0.22,0,0,0,0,.09Zm10.06,1.67c0,0.2-.08.4-0.1,0.61l-0.27.1A1.73,1.73,0,0,1,322.19,974.64Zm-2.38.46c0,0.11-.09.23-0.13,0.34a2.11,2.11,0,0,1,.08-0.27Zm0.3,1,0,0.12h-0.07Zm0.81-.23c0,0.06,0,.12,0,0.17h-0.06Zm0.8-1.53,0-.14,0.09,0Zm2.39,0a10,10,0,0,0-1.64-.7,3.37,3.37,0,0,0-2-.27,4.28,4.28,0,0,0-1.4,1.35,7.91,7.91,0,0,0-.92,1.55,8.16,8.16,0,0,1-1.91-.38L316,973.85a2.11,2.11,0,0,0-.48-1.47,3.83,3.83,0,0,0-1.68-.54l-2.54-.48a6.35,6.35,0,0,1-.37-1.86l2.32-.88a3.1,3.1,0,0,0,1.64-1,1.89,1.89,0,0,0,.06-1.54l0.13-.17c0.12-.17-0.09-0.41-0.29-0.38-0.19-.62-0.41-1.24-0.61-1.85a7.45,7.45,0,0,1,.7-0.34,0.43,0.43,0,0,0,.24,0,6.94,6.94,0,0,1,1-.37h0.06l1.44,1.42a3.85,3.85,0,0,0,1.64,1.27,2.71,2.71,0,0,0,1.72-.31l2.1-1c0.34,0.24.67,0.5,1,.76a6.26,6.26,0,0,1,1,1,5.53,5.53,0,0,0-1.61,3.33,2.59,2.59,0,0,0,.93,1.47,7.07,7.07,0,0,0,1.44,1.14l0,0.06A6,6,0,0,1,324.11,974.37Z" transform="translate(-67.19 -880.05)"/><path class="cls-1" d="M322,969l-2.17-2.54a0.45,0.45,0,0,0-.58-0.08,2.8,2.8,0,0,0-2.18.55c-0.72.42-1.8,0.77-1.89,1.65a5.6,5.6,0,0,0,.35,2.43,2.4,2.4,0,0,0,1.66,1.54,11.88,11.88,0,0,0,1.3.3,3,3,0,0,0,1.31.16,2.27,2.27,0,0,0,1-.8c0.33-.36.63-0.74,0.92-1.13a3,3,0,0,0,.71-1.13A1.17,1.17,0,0,0,322,969Zm-4.6-1.14,1.13-.41a16.23,16.23,0,0,1-1.82.72c-0.43.13-.27,0.07-0.08,0Zm-0.52,2.32,1.46-.67,0.14-.06-0.45.3-1.4.65Zm2.22-3a0.23,0.23,0,0,0,0-.1h0l0.08,0Zm-2.59,1.54,0.28-.05-0.28.13v-0.07ZM316,970h0Zm5-.74-0.14.07a1.92,1.92,0,0,0,.13-0.22l0-.05,0.15,0.18A0.32,0.32,0,0,0,321,969.22Zm-1-1.4-0.16.05,0.12-.1,0,0h0Zm1.57,2a0.25,0.25,0,0,0-.18,0l0,0a0.23,0.23,0,0,0,0-.18l0.07-.07a0.26,0.26,0,0,0,.06-0.1A0.49,0.49,0,0,1,321.53,969.78Zm-2.06,2.58h0l0.65-.52A1.23,1.23,0,0,1,319.47,972.37Z" transform="translate(-67.19 -880.05)"/><path class="cls-1" d="M369.41,1037.87a13.5,13.5,0,0,0,.44-6.24,4,4,0,0,0,.27-0.49,0.55,0.55,0,0,0-.53-0.75,13.27,13.27,0,0,0-1.62-3.72,0.8,0.8,0,0,0-.55-0.79l-0.16-.21a21.28,21.28,0,0,0-10-6.7,16,16,0,0,0-8.29-.28,0.7,0.7,0,0,0-.57.14h0a15.47,15.47,0,0,0-9.56,6.37,13.89,13.89,0,0,0,0,14.7,17.83,17.83,0,0,0,13.35,8.14l0.48,0a0.75,0.75,0,0,0,1,0,18,18,0,0,0,10.92-3.51,0.7,0.7,0,0,0,1-.84l0.45-.41a12.88,12.88,0,0,0,3-4.46A0.72,0.72,0,0,0,369.41,1037.87Zm-1.14-1.85,0,0-0.31.18,0.42-.61Q368.3,1035.82,368.26,1036Zm-3.75-3.12,0,0v0h0Zm3.66-1.77c-0.3.19-.6,0.39-0.9,0.59l0.83-.87Zm-2.8,3.26-0.13.13-0.08-.1Zm2.45,0-1.07,1.53-0.46-.39h0C366.69,1035.26,367.31,1034.79,367.83,1034.43Zm-15.37-13.37,0.17-.1a4.7,4.7,0,0,0-.47.75l-0.28-.28C352.06,1021.32,352.25,1021.19,352.45,1021.06Zm2.57,1.41q0.37-.39.71-0.8l0,0q0.64-.26,1.26-0.56l-0.17.13a16.31,16.31,0,0,1-1.92,1.43Zm-1.86.34-0.17-.19,0.39-.12Zm1.81,0.94-0.35.29-0.27-.15A1.62,1.62,0,0,0,355,1023.75Zm1.94-.07a0.41,0.41,0,0,0,0,.23,5.28,5.28,0,0,1-.58.21Zm3.64-1.48a0.41,0.41,0,0,0,0-.24l0.23,0.14Zm-5-2.22h0.06a10.15,10.15,0,0,0-.83.91l-1,.36,0.09-.1a9,9,0,0,0,1-.85,1.16,1.16,0,0,0,.19-0.41Zm-11.88,9.38,0.09,0-0.15.1Zm-3.79-2.84-0.14.12,0.08-.16Zm2.45,2.36,0.77-.48-0.15.15Zm0.86-4.7,0.51-.51,0.06,0.19Zm-1.34-.34H342q-0.37.34-.77,0.67Q341.5,1024.18,341.84,1023.85Zm-2.44,3.48a0.59,0.59,0,0,0,.18.24l-0.41.31C339.24,1027.69,339.31,1027.51,339.4,1027.33Zm-0.71,2a0.65,0.65,0,0,0,.31,0l0.07,0a1.39,1.39,0,0,0,.09.32,0.57,0.57,0,0,0,.1.16,9.37,9.37,0,0,0-.83.73Q338.53,1029.87,338.69,1029.29Zm3.32,1,0,0-0.2.06Zm1.24-.49a0.43,0.43,0,0,0,0,.12L343,1030Zm-2,11a1.25,1.25,0,0,0,1,0l-0.54.59C341.56,1041.14,341.39,1040.94,341.23,1040.74Zm-1.09-1.51,0.07,0,0,0.08Zm4.46,3.44a0.54,0.54,0,0,0-.26-0.12l0.53-.45C344.77,1042.28,344.68,1042.47,344.59,1042.67Zm-2.07-.54,0.36-.16-0.26.25Zm1.15,0.92a0.42,0.42,0,0,0,0,.09l-0.07-.05Zm2.3-3a0.89,0.89,0,0,0-.19-0.42,1.15,1.15,0,0,1,.46.31Zm-1.09-.54-0.19.14a0.93,0.93,0,0,0,.12-0.25l0.2,0Zm-4.17.54h0.12a0.44,0.44,0,0,0,0,.18Zm19.85,3.29c0,0.39-.15.79-0.19,1.2-0.17.07-.35,0.14-0.53,0.2A3.41,3.41,0,0,1,360.56,1043.36Zm-4.69.91c-0.08.22-.17,0.45-0.26,0.67a4.17,4.17,0,0,1,.15-0.53Zm0.59,2q0,0.12,0,.23l-0.13,0Zm1.59-.44c0,0.11,0,.23,0,0.34l-0.11,0Zm1.58-3,0.08-.28,0.18,0.05A2.27,2.27,0,0,0,359.63,1042.77Zm4.72,0.06a19.65,19.65,0,0,0-3.23-1.37c-1-.33-2.91-1-3.93-0.53a8.45,8.45,0,0,0-2.75,2.66,15.6,15.6,0,0,0-1.82,3.06,16.11,16.11,0,0,1-3.77-.75l-0.57-4.09c-0.12-.88-0.08-2.25-0.94-2.9a7.56,7.56,0,0,0-3.32-1.06l-5-.94a12.53,12.53,0,0,1-.74-3.68l4.59-1.73a6.13,6.13,0,0,0,3.23-2,3.73,3.73,0,0,0,.11-3l0.26-.34c0.25-.33-0.18-0.8-0.58-0.75-0.38-1.22-.8-2.44-1.21-3.66a14.71,14.71,0,0,1,1.39-.68,0.84,0.84,0,0,0,.47-0.07,13.68,13.68,0,0,1,2-.73l0.11,0,2.84,2.81c0.87,0.86,1.89,2.24,3.23,2.51a5.36,5.36,0,0,0,3.4-.62c1.38-.62,2.76-1.26,4.13-1.89,0.67,0.48,1.32,1,1.93,1.51a12.35,12.35,0,0,1,1.94,2.05c-1.61,1.82-3.16,4.22-3.17,6.57,0,1.09,1.1,2.12,1.83,2.9a14,14,0,0,0,2.83,2.25l-0.05.13A11.9,11.9,0,0,1,364.35,1042.83Z" transform="translate(-67.19 -880.05)"/><path class="cls-1" d="M360.14,1032.3l-4.28-5a0.88,0.88,0,0,0-1.14-.17c-1.59-.45-3,0.35-4.29,1.09s-3.56,1.52-3.74,3.26a11.05,11.05,0,0,0,.69,4.8,4.73,4.73,0,0,0,3.28,3,23.43,23.43,0,0,0,2.57.6,5.85,5.85,0,0,0,2.59.31,4.49,4.49,0,0,0,1.88-1.57c0.65-.71,1.24-1.46,1.81-2.22a6,6,0,0,0,1.41-2.23A2.31,2.31,0,0,0,360.14,1032.3Zm-9.07-2.26c0.74-.28,1.48-0.55,2.23-0.81a32,32,0,0,1-3.59,1.42c-0.86.26-.53,0.13-0.16,0Zm-1,4.57,2.88-1.32,0.28-.12-0.89.6-2.77,1.28C349.7,1034.9,349.87,1034.76,350,1034.61Zm4.38-5.89a0.46,0.46,0,0,0,.07-0.2l0.08,0,0.16,0Zm-5.11,3a4.41,4.41,0,0,0,.56-0.1l-0.54.25Zm-0.93,2.36,0,0v0h0Zm9.81-1.46-0.28.14a3.79,3.79,0,0,0,.25-0.44,0.56,0.56,0,0,0,0-.1l0.3,0.35A0.63,0.63,0,0,0,358.19,1032.67Zm-2-2.77-0.32.1,0.24-.2,0.08,0.09h0Zm3.1,3.88a0.5,0.5,0,0,0-.36.09l-0.1.06a0.45,0.45,0,0,0,0-.35l0.13-.13a0.51,0.51,0,0,0,.12-0.2A1,1,0,0,1,359.26,1033.78Zm-4.07,5.1H355.1l1.29-1A2.43,2.43,0,0,1,355.19,1038.88Z" transform="translate(-67.19 -880.05)"/><path class="cls-1" d="M777.69,985.11a39.21,39.21,0,0,0-3.55-17.82,11.72,11.72,0,0,0,.38-1.57,1.6,1.6,0,0,0-2.08-1.71,38.55,38.55,0,0,0-7.4-9.2,2.33,2.33,0,0,0-2.14-1.8l-0.61-.48c-8.85-6.68-21.74-10.69-33.22-11.12A46.56,46.56,0,0,0,705.62,947a2,2,0,0,0-1.51.83h0A45,45,0,0,0,682.19,973c-4.81,14.38.15,30.45,11.24,41.19,10.77,10.44,28.09,15.35,43.65,12.61l1.38-.26a2.17,2.17,0,0,0,2.85-.66,52.2,52.2,0,0,0,27.92-18.18,2,2,0,0,0,2.24-3.15c0.32-.49.64-1,0.94-1.5a37.41,37.41,0,0,0,5-14.81A2.09,2.09,0,0,0,777.69,985.11Zm-4.62-4.31-0.11.1a10.24,10.24,0,0,1-.73.75l0.73-2Q773,980.21,773.07,980.8Zm-12.89-5.87-0.05.08,0,0Zm8.9-7.75c-0.71.77-1.39,1.56-2.07,2.35q0.85-1.53,1.66-3.08C768.82,966.69,769,966.93,769.09,967.17Zm-5.36,11.27c-0.09.16-.17,0.31-0.25,0.47l-0.3-.21A4.35,4.35,0,0,0,763.72,978.45Zm6.91-1.78-1.83,5.12c-0.53-.24-1.06-0.48-1.58-0.75l0,0C768.08,979.86,769.45,978.07,770.63,976.67Zm-53.32-25.72,0.39-.42A13.64,13.64,0,0,0,717,953l-1-.56C716.41,952,716.84,951.46,717.31,950.95Zm8.29,2q0.73-1.38,1.37-2.8L727,950q1.58-1.23,3.1-2.53c-0.13.18-.26,0.35-0.39,0.5-0.87,1-2.56,3.88-4.3,5.49Zm-5,2.38-0.62-.4,1-.64C720.9,954.62,720.76,955,720.64,955.31Zm5.79,1.25c-0.25.36-.49,0.72-0.74,1.08a8.07,8.07,0,0,1-.87-0.23A4.7,4.7,0,0,0,726.43,956.56Zm5.38-1.67a1.19,1.19,0,0,0,.14.66,15.35,15.35,0,0,1-1.46,1ZM740.9,948a1.19,1.19,0,0,0-.2-0.66l0.74,0.21Zm-15.75-2.38h0.18a29.5,29.5,0,0,0-1.64,3.2q-1.2.89-2.44,1.74c0.06-.11.11-0.23,0.17-0.34,0.59-1.1,1.74-2,2.15-3.16a3.37,3.37,0,0,0,.21-1.29ZM699,981l0.21-.2-0.33.4Zm-12.78-5.06-0.31.46,0.12-.51Zm8.66,4.75c0.6-.64,1.19-1.28,1.78-1.94l-0.3.52Zm-1.19-13.83q0.54-.9,1-1.81l0.32,0.48Q694.38,966.15,693.72,966.82Zm-4,.07,0.34,0q-0.79,1.25-1.63,2.48Q689,968.08,689.69,966.89Zm-4.18,11.62a1.71,1.71,0,0,0,.68.54l-0.91,1.18C685.34,979.65,685.42,979.07,685.51,978.5Zm-0.48,6a1.9,1.9,0,0,0,.87-0.25l0.18-.11a4,4,0,0,0,.5.81,1.66,1.66,0,0,0,.4.36,27.23,27.23,0,0,0-1.77,2.69Q685,986.31,685,984.55Zm10,0.16,0.11,0-0.51.33Zm3.09-2.32a1.23,1.23,0,0,0,0,.36l-0.45.33Zm2.75,32.3a3.62,3.62,0,0,0,2.92-.81l-1.05,2.07C702.14,1015.55,701.52,1015.13,700.91,1014.69Zm-4.22-3.39,0.18-.13,0,0.25Zm15.11,6.22a1.56,1.56,0,0,0-.81-0.15c0.39-.55.76-1.11,1.13-1.67C712,1016.31,711.89,1016.92,711.8,1017.53Zm-6.21.07,0.88-.73-0.55.9Zm3.92,1.7a1.22,1.22,0,0,0,.11.23l-0.23-.1Zm4.18-10.09a2.59,2.59,0,0,0-.85-1,3.33,3.33,0,0,1,1.52.52C714.12,1008.85,713.9,1009,713.69,1009.21Zm-3.47-.69c-0.14.18-.3,0.35-0.44,0.53a2.7,2.7,0,0,0,.14-0.8l0.58,0A2.29,2.29,0,0,0,710.22,1008.52Zm-11.28,4.71a2,2,0,0,0,.3-0.12l0,0a1.27,1.27,0,0,0,.15.51Zm58.16-6c0.3,1.1.17,2.34,0.38,3.52-0.43.33-.87,0.66-1.34,1C756.25,1010.49,756.27,1008.46,757.1,1007.26Zm-12.46,6.13c-0.05.69-.13,1.38-0.22,2.08a12.12,12.12,0,0,1,0-1.61C744.5,1013.7,744.58,1013.55,744.65,1013.39Zm3.15,5q0.13,0.32.26,0.63l-0.36.16Q747.75,1018.83,747.8,1018.43Zm4.12-2.46c0.07,0.32.15,0.64,0.23,1l-0.29.17C751.88,1016.72,751.9,1016.35,751.91,1016Zm2.12-9.65c0-.28,0-0.56,0-0.84h0.54A6.58,6.58,0,0,0,754,1006.32Zm13.28-3.43a57.1,57.1,0,0,0-10.11-1.37c-3.1-.15-8.93-0.6-11.41,1.52-2.79,2.38-4.39,6.37-5.68,9.56a45.32,45.32,0,0,0-2.77,10,46.8,46.8,0,0,1-11.13.77l-4.72-11c-1-2.37-1.94-6.26-4.85-7.42-3.24-1.29-6.69-.7-10.12-0.42l-14.77,1.2a36.41,36.41,0,0,1-4.88-9.74l11.53-8.35c3.2-2.32,6.29-4.33,7.56-8,1-2.85-.5-6-2-8.6,0.15-.38.31-0.76,0.46-1.14,0.44-1.12-1.12-2.12-2.21-1.67-2-3.14-4.12-6.22-6.19-9.32a42.72,42.72,0,0,1,3.37-3,2.45,2.45,0,0,0,1.26-.57,39.75,39.75,0,0,1,5-3.56l0.3-.16L716,957.31c3.11,1.76,7,4.82,11,4.57,3.71-.24,6.38-2.14,9.06-4.34,3.4-2.8,6.77-5.64,10.14-8.46,2.25,0.83,4.45,1.76,6.58,2.75a35.89,35.89,0,0,1,7,4.27c-3.11,6.33-5.63,14.23-3.85,20.84,0.82,3.06,4.71,5.11,7.36,6.73a40.54,40.54,0,0,0,9.67,4.15c0,0.13,0,.26,0,0.4A34.56,34.56,0,0,1,767.31,1002.89Z" transform="translate(-67.19 -880.05)"/><path class="cls-1" d="M747.44,976.58l-15.81-10.75a2.57,2.57,0,0,0-3.32.41c-4.79,0-8.21,3.28-11.2,6.34-3.34,3.41-8.81,7-8,12a32.11,32.11,0,0,0,5.6,12.93c2.77,4,6.36,5.71,11.53,6a68.07,68.07,0,0,0,7.67-.28c2.35-.13,5.41.12,7.49-1.12s3.07-3.86,4.08-5.84c1.27-2.49,2.35-5,3.38-7.62,0.81-2,2.56-5.12,2.24-7.32S749.43,977.93,747.44,976.58Zm-27.15.61c1.86-1.36,3.74-2.68,5.64-4a93,93,0,0,1-9,6.73c-2.2,1.4-1.39.78-.47,0.08C717.74,979.06,719,978.12,720.3,977.19Zm0.61,13.6,7.07-5.9,0.71-.56q-1,1.17-2,2.36l-6.78,5.7C720.2,991.85,720.54,991.32,720.91,990.79Zm7.78-19.85a1.34,1.34,0,0,0,0-.61H729a2.69,2.69,0,0,0,.49,0Zm-12,12.45a12.81,12.81,0,0,0,1.49-.72l-1.33,1.12Zm-0.8,7.32-0.05.08,0-.06Zm26.38-11.59-0.69.6a11,11,0,0,0,.36-1.42,1.63,1.63,0,0,0,0-.32l1.1,0.75A1.84,1.84,0,0,0,742.27,979.12Zm-7.79-6.22-0.82.54,0.53-.74,0.3,0.2h0Zm11.66,8.49a1.45,1.45,0,0,0-.93.53l-0.22.25a1.31,1.31,0,0,0-.35-1l0.27-.46a1.48,1.48,0,0,0,.18-0.64A2.82,2.82,0,0,1,746.14,981.4Zm-7.51,17.39-0.26.08,2.83-3.86C740.61,996.35,739.85,998.3,738.62,998.79Z" transform="translate(-67.19 -880.05)"/><path class="cls-1" d="M451.57,1064.91a6.84,6.84,0,0,0,.22-3.16,2,2,0,0,0,.14-0.25,0.28,0.28,0,0,0-.27-0.38,6.73,6.73,0,0,0-.82-1.89,0.41,0.41,0,0,0-.28-0.4l-0.08-.11a10.79,10.79,0,0,0-5.08-3.4,8.12,8.12,0,0,0-4.2-.14,0.36,0.36,0,0,0-.29.07h0a7.84,7.84,0,0,0-4.84,3.23,7,7,0,0,0,0,7.45,9,9,0,0,0,6.77,4.13l0.24,0a0.38,0.38,0,0,0,.51,0,9.11,9.11,0,0,0,5.53-1.78,0.35,0.35,0,0,0,.52-0.43l0.23-.21a6.53,6.53,0,0,0,1.53-2.26A0.36,0.36,0,0,0,451.57,1064.91ZM451,1064h0l-0.16.09,0.22-.31Zm-1.9-1.58h0Zm1.85-.9-0.46.3,0.42-.44Zm-1.42,1.65-0.06.07,0,0Zm1.24,0-0.54.78-0.23-.2h0C450.19,1063.59,450.51,1063.35,450.77,1063.17Zm-7.79-6.78,0.09-.05a2.38,2.38,0,0,0-.24.38l-0.14-.14Zm1.3,0.71,0.36-.41h0l0.64-.28-0.09.07a8.26,8.26,0,0,1-1,.73Zm-0.94.17-0.09-.1,0.2-.06Zm0.92,0.48-0.17.15-0.14-.08A0.82,0.82,0,0,0,444.25,1057.75Zm1,0a0.21,0.21,0,0,0,0,.12l-0.29.11Zm1.85-.75a0.21,0.21,0,0,0,0-.12l0.11,0.07Zm-2.54-1.12h0a5.15,5.15,0,0,0-.42.46l-0.49.18,0,0a4.55,4.55,0,0,0,.51-0.43,0.59,0.59,0,0,0,.09-0.21Zm-6,4.75,0,0-0.07.05Zm-1.92-1.44-0.07.06,0-.08Zm1.24,1.2,0.39-.24-0.07.07Zm0.43-2.38,0.26-.26,0,0.1Zm-0.68-.17h0.06l-0.39.34Zm-1.24,1.76a0.3,0.3,0,0,0,.09.12l-0.21.16Zm-0.36,1a0.33,0.33,0,0,0,.16,0h0a0.7,0.7,0,0,0,0,.16,0.29,0.29,0,0,0,.05.08,4.75,4.75,0,0,0-.42.37Q435.92,1060.86,436,1060.56Zm1.68,0.49h0l-0.1,0Zm0.63-.25a0.22,0.22,0,0,0,0,.06l-0.09,0Zm-1,5.56a0.63,0.63,0,0,0,.53,0l-0.27.3Zm-0.55-.76h0l0,0Zm2.26,1.74a0.27,0.27,0,0,0-.13-0.06l0.27-.23Zm-1-.27,0.18-.08-0.13.13Zm0.58,0.47v0l0,0Zm1.17-1.51a0.45,0.45,0,0,0-.1-0.22,0.58,0.58,0,0,1,.23.16Zm-0.55-.28-0.1.07a0.47,0.47,0,0,0,.06-0.13l0.1,0ZM437,1066h0.06a0.22,0.22,0,0,0,0,.09Zm10.06,1.67c0,0.2-.08.4-0.1,0.61l-0.27.1A1.73,1.73,0,0,1,447.09,1067.7Zm-2.38.46c0,0.11-.09.23-0.13,0.34a2.11,2.11,0,0,1,.08-0.27Zm0.3,1,0,0.12H445Zm0.81-.23c0,0.06,0,.12,0,0.17h-0.06Zm0.8-1.53,0-.14,0.09,0Zm2.39,0a10,10,0,0,0-1.64-.7,3.37,3.37,0,0,0-2-.27,4.28,4.28,0,0,0-1.4,1.35,7.91,7.91,0,0,0-.92,1.55,8.16,8.16,0,0,1-1.91-.38l-0.29-2.07a2.11,2.11,0,0,0-.48-1.47,3.83,3.83,0,0,0-1.68-.54l-2.54-.48a6.35,6.35,0,0,1-.37-1.86l2.32-.88a3.1,3.1,0,0,0,1.64-1,1.89,1.89,0,0,0,.06-1.54l0.13-.17c0.12-.17-0.09-0.41-0.29-0.38-0.19-.62-0.41-1.24-0.61-1.85a7.45,7.45,0,0,1,.7-0.34,0.43,0.43,0,0,0,.24,0,6.94,6.94,0,0,1,1-.37H441l1.44,1.42a3.85,3.85,0,0,0,1.64,1.27,2.71,2.71,0,0,0,1.72-.31l2.1-1c0.34,0.24.67,0.5,1,.76a6.26,6.26,0,0,1,1,1,5.53,5.53,0,0,0-1.61,3.33,2.59,2.59,0,0,0,.93,1.47,7.07,7.07,0,0,0,1.44,1.14l0,0.06A6,6,0,0,1,449,1067.43Z" transform="translate(-67.19 -880.05)"/><path class="cls-1" d="M446.87,1062.09l-2.17-2.54a0.45,0.45,0,0,0-.58-0.08,2.8,2.8,0,0,0-2.18.55c-0.72.42-1.8,0.77-1.89,1.65a5.6,5.6,0,0,0,.35,2.43,2.4,2.4,0,0,0,1.66,1.54,11.88,11.88,0,0,0,1.3.3,3,3,0,0,0,1.31.16,2.27,2.27,0,0,0,1-.8c0.33-.36.63-0.74,0.92-1.13a3,3,0,0,0,.71-1.13A1.17,1.17,0,0,0,446.87,1062.09Zm-4.6-1.14,1.13-.41a16.23,16.23,0,0,1-1.82.72c-0.43.13-.27,0.07-0.08,0Zm-0.52,2.32,1.46-.67,0.14-.06-0.45.3-1.4.65Zm2.22-3a0.23,0.23,0,0,0,0-.1h0l0.08,0Zm-2.59,1.54,0.28-.05-0.28.13v-0.07Zm-0.47,1.2h0Zm5-.74-0.14.07a1.92,1.92,0,0,0,.13-0.22l0-.05,0.15,0.18A0.32,0.32,0,0,0,445.88,1062.28Zm-1-1.4-0.16.05,0.12-.1,0,0h0Zm1.57,2a0.25,0.25,0,0,0-.18,0l0,0a0.23,0.23,0,0,0,0-.18l0.07-.07a0.26,0.26,0,0,0,.06-0.1A0.49,0.49,0,0,1,446.43,1062.84Zm-2.06,2.58h0l0.65-.52A1.23,1.23,0,0,1,444.36,1065.42Z" transform="translate(-67.19 -880.05)"/><path class="cls-1" d="M520.59,1062.17a6.84,6.84,0,0,0-.45-3.14,2,2,0,0,0,.08-0.27,0.28,0.28,0,0,0-.35-0.32,6.73,6.73,0,0,0-1.2-1.67,0.41,0.41,0,0,0-.36-0.33l-0.1-.09a10.79,10.79,0,0,0-5.68-2.25,8.12,8.12,0,0,0-4.14.75,0.36,0.36,0,0,0-.27.13h0a7.84,7.84,0,0,0-4.06,4.17,7,7,0,0,0,1.57,7.28,9,9,0,0,0,7.48,2.61l0.24,0a0.38,0.38,0,0,0,.5-0.09,9.11,9.11,0,0,0,5-2.9,0.35,0.35,0,0,0,.42-0.53l0.18-.25a6.53,6.53,0,0,0,1-2.53A0.36,0.36,0,0,0,520.59,1062.17Zm-0.76-.79,0,0-0.13.12,0.15-.35Q519.83,1061.27,519.83,1061.37Zm-2.19-1.15h0Zm1.62-1.27-0.38.39,0.32-.52Zm-1,1.91,0,0.08-0.05,0Zm1.22-.24-0.37.87-0.27-.15h0C519,1061.16,519.23,1060.86,519.45,1060.63Zm-9-5,0.07-.07a2.38,2.38,0,0,0-.15.42l-0.17-.11Zm1.43,0.42q0.14-.23.26-0.47v0l0.56-.41-0.07.08a8.26,8.26,0,0,1-.8.91Zm-0.89.37-0.1-.07,0.18-.1Zm1,0.27-0.14.18-0.15,0A0.82,0.82,0,0,0,511.94,1056.7Zm1-.24a0.21,0.21,0,0,0,0,.12l-0.26.16Zm1.65-1.12a0.21,0.21,0,0,0,0-.12l0.13,0Zm-2.72-.56h0a5.15,5.15,0,0,0-.32.54l-0.44.28,0-.06a4.55,4.55,0,0,0,.41-0.53,0.59,0.59,0,0,0,0-.22h0.24Zm-4.89,5.91,0,0-0.06.07Zm-2.18-1-0.06.08,0-.09h0Zm1.46,0.91,0.33-.32-0.06.09Zm-0.08-2.42,0.2-.31,0.05,0.09Zm-0.7,0h0.06l-0.31.42Q505.31,1058.36,505.44,1058.15Zm-0.84,2a0.3,0.3,0,0,0,.11.1l-0.17.2C504.56,1060.34,504.58,1060.24,504.6,1060.14Zm-0.14,1a0.33,0.33,0,0,0,.15,0l0,0a0.7,0.7,0,0,0,.08.15l0.07,0.07a4.75,4.75,0,0,0-.33.45Q504.44,1061.49,504.46,1061.19Zm1.75,0.12h0l-0.09.05Zm0.56-.37a0.22,0.22,0,0,0,0,.06l-0.08.05Zm0.17,5.65a0.63,0.63,0,0,0,.52-0.11l-0.2.35Zm-0.7-.63,0,0v0Zm2.57,1.23a0.27,0.27,0,0,0-.14,0l0.21-.28C508.85,1067,508.83,1067.08,508.81,1067.19Zm-1.08,0,0.16-.12-0.1.15Zm0.67,0.33,0,0,0,0Zm0.82-1.72a0.45,0.45,0,0,0-.14-0.19,0.58,0.58,0,0,1,.26.1Zm-0.6-.15-0.08.09a0.47,0.47,0,0,0,0-.14h0.1Zm-2,.71,0.05,0h0a0.22,0.22,0,0,0,0,.09Zm10.19-.49c0,0.19,0,.41,0,0.62l-0.24.15A1.73,1.73,0,0,1,516.8,1065.83Zm-2.23.95c0,0.12,0,.24-0.06.36a2.11,2.11,0,0,1,0-.28Zm0.5,0.91,0,0.11-0.06,0Zm0.74-.39,0,0.17-0.05,0C515.8,1067.43,515.8,1067.36,515.81,1067.3Zm0.46-1.66s0-.1,0-0.15h0.09Zm2.35-.47a10,10,0,0,0-1.75-.34,3.37,3.37,0,0,0-2,.16,4.28,4.28,0,0,0-1.08,1.61,7.91,7.91,0,0,0-.58,1.71,8.16,8.16,0,0,1-1.95,0l-0.72-2a2.11,2.11,0,0,0-.77-1.34,3.83,3.83,0,0,0-1.76-.17l-2.59.07a6.35,6.35,0,0,1-.76-1.74l2.09-1.34a3.1,3.1,0,0,0,1.39-1.32,1.89,1.89,0,0,0-.27-1.52l0.09-.19c0.09-.19-0.18-0.38-0.37-0.31-0.32-.57-0.66-1.12-1-1.68a7.45,7.45,0,0,1,.62-0.48,0.43,0.43,0,0,0,.22-0.09,6.94,6.94,0,0,1,.9-0.57l0.05,0,1.71,1.09a3.85,3.85,0,0,0,1.87.9,2.71,2.71,0,0,0,1.62-.67l1.85-1.38c0.38,0.17.76,0.35,1.12,0.54a6.26,6.26,0,0,1,1.18.81,5.53,5.53,0,0,0-.87,3.59,2.59,2.59,0,0,0,1.22,1.24,7.07,7.07,0,0,0,1.64.81v0.07A6,6,0,0,1,518.62,1065.16Z" transform="translate(-67.19 -880.05)"/><path class="cls-1" d="M515.41,1060.39l-2.65-2a0.45,0.45,0,0,0-.58,0,2.8,2.8,0,0,0-2,1c-0.61.56-1.6,1.13-1.5,2a5.6,5.6,0,0,0,.85,2.31,2.4,2.4,0,0,0,2,1.16,11.88,11.88,0,0,0,1.34,0,3,3,0,0,0,1.32-.12,2.27,2.27,0,0,0,.77-1c0.24-.42.46-0.86,0.66-1.3a3,3,0,0,0,.46-1.25A1.17,1.17,0,0,0,515.41,1060.39Zm-4.73-.15,1-.64a16.23,16.23,0,0,1-1.63,1.09c-0.4.22-.25,0.12-0.08,0Zm0,2.38,1.29-1,0.13-.09-0.38.39-1.24.93Zm1.54-3.38a0.23,0.23,0,0,0,0-.11h0.13Zm-2.21,2.05,0.27-.11-0.24.18Zm-0.21,1.27h0Zm4.71-1.77-0.13.1a1.92,1.92,0,0,0,.08-0.24,0.28,0.28,0,0,0,0-.05l0.18,0.14A0.32,0.32,0,0,0,514.48,1060.79Zm-1.3-1.16-0.15.09,0.1-.12,0,0h0Zm2,1.59a0.25,0.25,0,0,0-.17.08l0,0a0.23,0.23,0,0,0-.05-0.17l0.05-.08a0.26,0.26,0,0,0,0-.11A0.49,0.49,0,0,1,515.13,1061.22Zm-1.47,3h0l0.53-.65A1.23,1.23,0,0,1,513.66,1064.18Z" transform="translate(-67.19 -880.05)"/><path class="cls-1" d="M569.81,1036.61a6.84,6.84,0,0,0-.45-3.14,2,2,0,0,0,.08-0.27,0.28,0.28,0,0,0-.35-0.32,6.73,6.73,0,0,0-1.2-1.67,0.41,0.41,0,0,0-.36-0.33l-0.1-.09a10.79,10.79,0,0,0-5.68-2.25,8.12,8.12,0,0,0-4.14.75,0.36,0.36,0,0,0-.27.13h0a7.84,7.84,0,0,0-4.06,4.17,7,7,0,0,0,1.57,7.28,9,9,0,0,0,7.48,2.61l0.24,0a0.38,0.38,0,0,0,.5-0.09,9.11,9.11,0,0,0,5-2.9,0.35,0.35,0,0,0,.42-0.53l0.18-.25a6.53,6.53,0,0,0,1-2.53A0.36,0.36,0,0,0,569.81,1036.61Zm-0.76-.79,0,0-0.13.12,0.15-.35Q569,1035.71,569,1035.81Zm-2.19-1.15h0Zm1.62-1.27-0.38.39,0.32-.52Zm-1,1.91,0,0.08-0.05,0Zm1.22-.24-0.37.87-0.27-.15h0C568.18,1035.6,568.44,1035.3,568.66,1035.07Zm-9-5,0.07-.07a2.38,2.38,0,0,0-.15.42l-0.17-.11Zm1.43,0.42q0.14-.23.26-0.47v0l0.56-.41-0.07.08a8.26,8.26,0,0,1-.8.91Zm-0.89.37-0.1-.07,0.18-.1Zm1,0.27-0.14.18-0.15,0A0.82,0.82,0,0,0,561.15,1031.14Zm1-.24a0.21,0.21,0,0,0,0,.12l-0.26.16Zm1.65-1.12a0.21,0.21,0,0,0,0-.12l0.13,0Zm-2.72-.56h0a5.15,5.15,0,0,0-.32.54l-0.44.28,0-.06a4.55,4.55,0,0,0,.41-0.53,0.59,0.59,0,0,0,0-.22H561Zm-4.89,5.91,0,0-0.06.07Zm-2.18-1-0.06.08,0-.09h0Zm1.46,0.91,0.33-.32-0.06.09Zm-0.08-2.42,0.2-.31,0.05,0.09Zm-0.7,0h0.06l-0.31.42Q554.52,1032.8,554.65,1032.59Zm-0.84,2a0.3,0.3,0,0,0,.11.1l-0.17.2C553.77,1034.78,553.79,1034.68,553.81,1034.58Zm-0.14,1a0.33,0.33,0,0,0,.15,0l0,0a0.7,0.7,0,0,0,.08.15l0.07,0.07a4.75,4.75,0,0,0-.33.45Q553.65,1035.93,553.67,1035.63Zm1.75,0.12h0l-0.09.05Zm0.56-.37a0.22,0.22,0,0,0,0,.06l-0.08.05Zm0.17,5.65a0.63,0.63,0,0,0,.52-0.11l-0.2.35Zm-0.7-.63,0,0v0Zm2.57,1.23a0.27,0.27,0,0,0-.14,0l0.21-.28C558.07,1041.42,558,1041.52,558,1041.63Zm-1.08,0,0.16-.12-0.1.15Zm0.67,0.33,0,0,0,0Zm0.82-1.72a0.45,0.45,0,0,0-.14-0.19,0.58,0.58,0,0,1,.26.1Zm-0.6-.15-0.08.09a0.47,0.47,0,0,0,0-.14h0.1Zm-2,.71,0.05,0h0a0.22,0.22,0,0,0,0,.09Zm10.19-.49c0,0.19,0,.41,0,0.62l-0.24.15A1.73,1.73,0,0,1,566,1040.27Zm-2.23.95c0,0.12,0,.24-0.06.36a2.11,2.11,0,0,1,0-.28Zm0.5,0.91,0,0.11-0.06,0Zm0.74-.39,0,0.17-0.05,0C565,1041.87,565,1041.8,565,1041.74Zm0.46-1.66s0-.1,0-0.15h0.09Zm2.35-.47a10,10,0,0,0-1.75-.34,3.37,3.37,0,0,0-2,.16A4.28,4.28,0,0,0,563,1041a7.91,7.91,0,0,0-.58,1.71,8.16,8.16,0,0,1-1.95,0l-0.72-2a2.11,2.11,0,0,0-.77-1.34,3.83,3.83,0,0,0-1.76-.17l-2.59.07a6.35,6.35,0,0,1-.76-1.74l2.09-1.34a3.1,3.1,0,0,0,1.39-1.32,1.89,1.89,0,0,0-.27-1.52l0.09-.19c0.09-.19-0.18-0.38-0.37-0.31-0.32-.57-0.66-1.12-1-1.68a7.45,7.45,0,0,1,.62-0.48,0.43,0.43,0,0,0,.22-0.09,6.94,6.94,0,0,1,.9-0.57l0.05,0,1.71,1.09a3.85,3.85,0,0,0,1.87.9,2.71,2.71,0,0,0,1.62-.67l1.85-1.38c0.38,0.17.76,0.35,1.12,0.54a6.26,6.26,0,0,1,1.18.81,5.53,5.53,0,0,0-.87,3.59,2.59,2.59,0,0,0,1.22,1.24,7.07,7.07,0,0,0,1.64.81v0.07A6,6,0,0,1,567.83,1039.6Z" transform="translate(-67.19 -880.05)"/><path class="cls-1" d="M564.62,1034.83l-2.65-2a0.45,0.45,0,0,0-.58,0,2.8,2.8,0,0,0-2,1c-0.61.56-1.6,1.13-1.5,2a5.6,5.6,0,0,0,.85,2.31,2.4,2.4,0,0,0,2,1.16,11.88,11.88,0,0,0,1.34,0,3,3,0,0,0,1.32-.12,2.27,2.27,0,0,0,.77-1c0.24-.42.46-0.86,0.66-1.3a3,3,0,0,0,.46-1.25A1.17,1.17,0,0,0,564.62,1034.83Zm-4.73-.15,1-.64a16.23,16.23,0,0,1-1.63,1.09c-0.4.22-.25,0.12-0.08,0Zm0,2.38,1.29-1,0.13-.09-0.38.39-1.24.93Zm1.54-3.38a0.23,0.23,0,0,0,0-.11h0.13Zm-2.21,2.05,0.27-.11-0.24.18ZM559,1037h0Zm4.71-1.77-0.13.1a1.92,1.92,0,0,0,.08-0.24,0.28,0.28,0,0,0,0-.05l0.18,0.14A0.32,0.32,0,0,0,563.69,1035.23Zm-1.3-1.16-0.15.09,0.1-.12,0,0h0Zm2,1.59a0.25,0.25,0,0,0-.17.08l0,0a0.23,0.23,0,0,0-.05-0.17l0.05-.08a0.26,0.26,0,0,0,0-.11A0.49,0.49,0,0,1,564.35,1035.66Zm-1.47,3h0l0.53-.65A1.23,1.23,0,0,1,562.87,1038.62Z" transform="translate(-67.19 -880.05)"/><path class="cls-1" d="M539.05,1013.41a6.84,6.84,0,0,0-.45-3.14,2,2,0,0,0,.08-0.27,0.28,0.28,0,0,0-.35-0.32,6.73,6.73,0,0,0-1.2-1.67,0.41,0.41,0,0,0-.36-0.33l-0.1-.09a10.79,10.79,0,0,0-5.68-2.25,8.12,8.12,0,0,0-4.14.75,0.36,0.36,0,0,0-.27.13h0a7.84,7.84,0,0,0-4.06,4.17,7,7,0,0,0,1.57,7.28,9,9,0,0,0,7.48,2.61l0.24,0a0.38,0.38,0,0,0,.5-0.09,9.11,9.11,0,0,0,5-2.9,0.35,0.35,0,0,0,.42-0.53l0.18-.25a6.53,6.53,0,0,0,1-2.53A0.36,0.36,0,0,0,539.05,1013.41Zm-0.76-.79,0,0-0.13.12,0.15-.35Q538.29,1012.51,538.29,1012.61Zm-2.19-1.15h0Zm1.62-1.27-0.38.39,0.32-.52Zm-1,1.91,0,0.08-0.05,0Zm1.22-.24-0.37.87-0.27-.15h0C537.43,1012.4,537.69,1012.1,537.9,1011.87Zm-9-5,0.07-.07a2.38,2.38,0,0,0-.15.42l-0.17-.11Zm1.43,0.42q0.14-.23.26-0.47v0l0.56-.41-0.07.08a8.26,8.26,0,0,1-.8.91Zm-0.89.37-0.1-.07,0.18-.1Zm1,0.27-0.14.18-0.15,0A0.82,0.82,0,0,0,530.4,1007.95Zm1-.24a0.21,0.21,0,0,0,0,.12l-0.26.16Zm1.65-1.12a0.21,0.21,0,0,0,0-.12l0.13,0Zm-2.72-.56h0a5.15,5.15,0,0,0-.32.54l-0.44.28,0-.06a4.55,4.55,0,0,0,.41-0.53,0.59,0.59,0,0,0,0-.22h0.24Zm-4.89,5.91,0,0-0.06.07Zm-2.18-1-0.06.08,0-.09h0Zm1.46,0.91,0.33-.32-0.06.09Zm-0.08-2.42,0.2-.31,0.05,0.09Zm-0.7,0H524l-0.31.42Q523.77,1009.6,523.9,1009.39Zm-0.84,2a0.3,0.3,0,0,0,.11.1l-0.17.2C523,1011.58,523,1011.48,523.06,1011.38Zm-0.14,1a0.33,0.33,0,0,0,.15,0l0,0a0.7,0.7,0,0,0,.08.15l0.07,0.07a4.75,4.75,0,0,0-.33.45Q522.9,1012.73,522.92,1012.43Zm1.75,0.12h0l-0.09.05Zm0.56-.37a0.22,0.22,0,0,0,0,.06l-0.08.05Zm0.17,5.65a0.63,0.63,0,0,0,.52-0.11l-0.2.35Zm-0.7-.63,0,0v0Zm2.57,1.23a0.27,0.27,0,0,0-.14,0l0.21-.28C527.31,1018.22,527.29,1018.32,527.27,1018.43Zm-1.08,0,0.16-.12-0.1.15Zm0.67,0.33,0,0,0,0Zm0.82-1.72a0.45,0.45,0,0,0-.14-0.19,0.58,0.58,0,0,1,.26.1Zm-0.6-.15-0.08.09a0.47,0.47,0,0,0,0-.14h0.1Zm-2,.71,0.05,0h0a0.22,0.22,0,0,0,0,.09Zm10.19-.49c0,0.19,0,.41,0,0.62l-0.24.15A1.73,1.73,0,0,1,535.26,1017.07ZM533,1018c0,0.12,0,.24-0.06.36a2.11,2.11,0,0,1,0-.28Zm0.5,0.91,0,0.11-0.06,0Zm0.74-.39,0,0.17-0.05,0C534.26,1018.67,534.26,1018.6,534.27,1018.54Zm0.46-1.66s0-.1,0-0.15h0.09Zm2.35-.47a10,10,0,0,0-1.75-.34,3.37,3.37,0,0,0-2,.16,4.28,4.28,0,0,0-1.08,1.61,7.91,7.91,0,0,0-.58,1.71,8.16,8.16,0,0,1-1.95,0l-0.72-2a2.11,2.11,0,0,0-.77-1.34,3.83,3.83,0,0,0-1.76-.17l-2.59.07a6.35,6.35,0,0,1-.76-1.74l2.09-1.34a3.1,3.1,0,0,0,1.39-1.32,1.89,1.89,0,0,0-.27-1.52l0.09-.19c0.09-.19-0.18-0.38-0.37-0.31-0.32-.57-0.66-1.12-1-1.68a7.45,7.45,0,0,1,.62-0.48,0.43,0.43,0,0,0,.22-0.09,6.94,6.94,0,0,1,.9-0.57l0.05,0,1.71,1.09a3.85,3.85,0,0,0,1.87.9,2.71,2.71,0,0,0,1.62-.67l1.85-1.38c0.38,0.17.76,0.35,1.12,0.54a6.26,6.26,0,0,1,1.18.81,5.53,5.53,0,0,0-.87,3.59,2.59,2.59,0,0,0,1.22,1.24,7.07,7.07,0,0,0,1.64.81v0.07A6,6,0,0,1,537.08,1016.41Z" transform="translate(-67.19 -880.05)"/><path class="cls-1" d="M533.87,1011.63l-2.65-2a0.45,0.45,0,0,0-.58,0,2.8,2.8,0,0,0-2,1c-0.61.56-1.6,1.13-1.5,2A5.6,5.6,0,0,0,528,1015a2.4,2.4,0,0,0,2,1.16,11.88,11.88,0,0,0,1.34,0,3,3,0,0,0,1.32-.12,2.27,2.27,0,0,0,.77-1c0.24-.42.46-0.86,0.66-1.3a3,3,0,0,0,.46-1.25A1.17,1.17,0,0,0,533.87,1011.63Zm-4.73-.15,1-.64a16.23,16.23,0,0,1-1.63,1.09c-0.4.22-.25,0.12-0.08,0Zm0,2.38,1.29-1,0.13-.09-0.38.39-1.24.93Zm1.54-3.38a0.23,0.23,0,0,0,0-.11h0.13Zm-2.21,2.05,0.27-.11-0.24.18Zm-0.21,1.27h0Zm4.71-1.77-0.13.1a1.92,1.92,0,0,0,.08-0.24,0.28,0.28,0,0,0,0-.05l0.18,0.14A0.32,0.32,0,0,0,532.94,1012Zm-1.3-1.16-0.15.09,0.1-.12,0,0h0Zm2,1.59a0.25,0.25,0,0,0-.17.08l0,0a0.23,0.23,0,0,0-.05-0.17l0.05-.08a0.26,0.26,0,0,0,0-.11A0.49,0.49,0,0,1,533.59,1012.46Zm-1.47,3h0l0.53-.65A1.23,1.23,0,0,1,532.12,1015.42Z" transform="translate(-67.19 -880.05)"/><path class="cls-1" d="M493.44,1052.53a6.84,6.84,0,0,0-.45-3.14,2,2,0,0,0,.08-0.27,0.28,0.28,0,0,0-.35-0.32,6.73,6.73,0,0,0-1.2-1.67,0.41,0.41,0,0,0-.36-0.33l-0.1-.09a10.79,10.79,0,0,0-5.68-2.25,8.12,8.12,0,0,0-4.14.75,0.36,0.36,0,0,0-.27.13h0a7.84,7.84,0,0,0-4.06,4.17,7,7,0,0,0,1.57,7.28,9,9,0,0,0,7.48,2.61l0.24,0a0.38,0.38,0,0,0,.5-0.09,9.11,9.11,0,0,0,5-2.9,0.35,0.35,0,0,0,.42-0.53l0.18-.25a6.53,6.53,0,0,0,1-2.53A0.36,0.36,0,0,0,493.44,1052.53Zm-0.76-.79,0,0-0.13.12,0.15-.35Q492.68,1051.63,492.68,1051.74Zm-2.19-1.15h0Zm1.62-1.27-0.38.39,0.32-.52Zm-1,1.91,0,0.08-0.05,0Zm1.22-.24-0.37.87-0.27-.15h0C491.82,1051.53,492.07,1051.23,492.29,1051Zm-9-5,0.07-.07a2.38,2.38,0,0,0-.15.42l-0.17-.11Zm1.43,0.42q0.14-.23.26-0.47v0l0.56-.41-0.07.08a8.26,8.26,0,0,1-.8.91Zm-0.89.37-0.1-.07,0.18-.1Zm1,0.27-0.14.18-0.15,0A0.82,0.82,0,0,0,484.78,1047.07Zm1-.24a0.21,0.21,0,0,0,0,.12l-0.26.16Zm1.65-1.12a0.21,0.21,0,0,0,0-.12l0.13,0Zm-2.72-.56h0a5.15,5.15,0,0,0-.32.54l-0.44.28,0-.06a4.55,4.55,0,0,0,.41-0.53,0.59,0.59,0,0,0,0-.22h0.24Zm-4.89,5.91,0,0-0.06.07Zm-2.18-1-0.06.08,0-.09h0Zm1.46,0.91,0.33-.32-0.06.09Zm-0.08-2.42,0.2-.31,0.05,0.09Zm-0.7,0h0.06l-0.31.42Q478.15,1048.72,478.29,1048.52Zm-0.84,2a0.3,0.3,0,0,0,.11.1l-0.17.2C477.41,1050.7,477.43,1050.6,477.45,1050.5Zm-0.14,1a0.33,0.33,0,0,0,.15,0l0,0a0.7,0.7,0,0,0,.08.15l0.07,0.07a4.75,4.75,0,0,0-.33.45Q477.29,1051.86,477.31,1051.55Zm1.75,0.12h0l-0.09.05Zm0.56-.37a0.22,0.22,0,0,0,0,.06l-0.08.05Zm0.17,5.65a0.63,0.63,0,0,0,.52-0.11l-0.2.35Zm-0.7-.63,0,0v0Zm2.57,1.23a0.27,0.27,0,0,0-.14,0l0.21-.28C481.7,1057.34,481.68,1057.45,481.66,1057.55Zm-1.08,0,0.16-.12-0.1.15Zm0.67,0.33,0,0,0,0Zm0.82-1.72a0.45,0.45,0,0,0-.14-0.19,0.58,0.58,0,0,1,.26.1Zm-0.6-.15-0.08.09a0.47,0.47,0,0,0,0-.14h0.1Zm-2,.71,0.05,0h0a0.22,0.22,0,0,0,0,.09Zm10.19-.49c0,0.19,0,.41,0,0.62l-0.24.15A1.73,1.73,0,0,1,489.64,1056.19Zm-2.23.95c0,0.12,0,.24-0.06.36a2.11,2.11,0,0,1,0-.28Zm0.5,0.91,0,0.11-0.06,0Zm0.74-.39,0,0.17-0.05,0C488.64,1057.79,488.65,1057.73,488.66,1057.66Zm0.46-1.66s0-.1,0-0.15h0.09Zm2.35-.47a10,10,0,0,0-1.75-.34,3.37,3.37,0,0,0-2,.16,4.28,4.28,0,0,0-1.08,1.61,7.91,7.91,0,0,0-.58,1.71,8.16,8.16,0,0,1-1.95,0l-0.72-2a2.11,2.11,0,0,0-.77-1.34,3.83,3.83,0,0,0-1.76-.17l-2.59.07a6.35,6.35,0,0,1-.76-1.74l2.09-1.34a3.1,3.1,0,0,0,1.39-1.32,1.89,1.89,0,0,0-.27-1.52l0.09-.19c0.09-.19-0.18-0.38-0.37-0.31-0.32-.57-0.66-1.12-1-1.68a7.45,7.45,0,0,1,.62-0.48,0.43,0.43,0,0,0,.22-0.09,6.94,6.94,0,0,1,.9-0.57l0.05,0,1.71,1.09a3.85,3.85,0,0,0,1.87.9,2.71,2.71,0,0,0,1.62-.67l1.85-1.38c0.38,0.17.76,0.35,1.12,0.54a6.26,6.26,0,0,1,1.18.81,5.53,5.53,0,0,0-.87,3.59,2.59,2.59,0,0,0,1.22,1.24,7.07,7.07,0,0,0,1.64.81V1053A6,6,0,0,1,491.46,1055.53Z" transform="translate(-67.19 -880.05)"/><path class="cls-1" d="M488.25,1050.76l-2.65-2a0.45,0.45,0,0,0-.58,0,2.8,2.8,0,0,0-2,1c-0.61.56-1.6,1.13-1.5,2a5.6,5.6,0,0,0,.85,2.31,2.4,2.4,0,0,0,2,1.16,11.88,11.88,0,0,0,1.34,0,3,3,0,0,0,1.32-.12,2.27,2.27,0,0,0,.77-1c0.24-.42.46-0.86,0.66-1.3a3,3,0,0,0,.46-1.25A1.17,1.17,0,0,0,488.25,1050.76Zm-4.73-.15,1-.64a16.23,16.23,0,0,1-1.63,1.09c-0.4.22-.25,0.12-0.08,0Zm0,2.38,1.29-1,0.13-.09-0.38.39-1.24.93Zm1.54-3.38a0.23,0.23,0,0,0,0-.11h0.13Zm-2.21,2.05,0.27-.11-0.24.18Zm-0.21,1.27h0Zm4.71-1.77-0.13.1a1.92,1.92,0,0,0,.08-0.24,0.28,0.28,0,0,0,0-.05l0.18,0.14A0.32,0.32,0,0,0,487.33,1051.15ZM486,1050l-0.15.09,0.1-.12,0,0h0Zm2,1.59a0.25,0.25,0,0,0-.17.08l0,0a0.23,0.23,0,0,0-.05-0.17l0.05-.08a0.26,0.26,0,0,0,0-.11A0.49,0.49,0,0,1,488,1051.58Zm-1.47,3h0l0.53-.65A1.23,1.23,0,0,1,486.51,1054.54Z" transform="translate(-67.19 -880.05)"/><path class="cls-1" d="M693.46,1054a6.84,6.84,0,0,0-.45-3.14,2,2,0,0,0,.08-0.27,0.28,0.28,0,0,0-.35-0.32,6.73,6.73,0,0,0-1.2-1.67,0.41,0.41,0,0,0-.36-0.33l-0.1-.09a10.79,10.79,0,0,0-5.68-2.25,8.12,8.12,0,0,0-4.14.75,0.36,0.36,0,0,0-.27.13h0a7.84,7.84,0,0,0-4.06,4.17,7,7,0,0,0,1.57,7.28,9,9,0,0,0,7.48,2.61l0.24,0a0.38,0.38,0,0,0,.5-0.09,9.11,9.11,0,0,0,5-2.9,0.35,0.35,0,0,0,.42-0.53l0.18-.25a6.53,6.53,0,0,0,1-2.53A0.36,0.36,0,0,0,693.46,1054Zm-0.76-.79,0,0-0.13.12,0.15-.35Q692.7,1053.14,692.7,1053.24Zm-2.19-1.15h0Zm1.62-1.27-0.38.39,0.32-.52Zm-1,1.91,0,0.08-0.05,0Zm1.22-.24-0.37.87-0.27-.15h0C691.84,1053,692.1,1052.73,692.31,1052.5Zm-9-5,0.07-.07a2.38,2.38,0,0,0-.15.42l-0.17-.11Zm1.43,0.42q0.14-.23.26-0.47v0l0.56-.41-0.07.08a8.26,8.26,0,0,1-.8.91Zm-0.89.37-0.1-.07,0.18-.1Zm1,0.27-0.14.18-0.15,0A0.82,0.82,0,0,0,684.81,1048.58Zm1-.24a0.21,0.21,0,0,0,0,.12l-0.26.16Zm1.65-1.12a0.21,0.21,0,0,0,0-.12l0.13,0Zm-2.72-.56h0a5.15,5.15,0,0,0-.32.54l-0.44.28,0-.06a4.55,4.55,0,0,0,.41-0.53,0.59,0.59,0,0,0,0-.22h0.24Zm-4.89,5.91,0,0-0.06.07Zm-2.18-1-0.06.08,0-.09h0Zm1.46,0.91,0.33-.32-0.06.09Zm-0.08-2.42,0.2-.31,0.05,0.09Zm-0.7,0h0.06l-0.31.42Q678.18,1050.23,678.31,1050Zm-0.84,2a0.3,0.3,0,0,0,.11.1l-0.17.2C677.43,1052.21,677.45,1052.11,677.47,1052Zm-0.14,1a0.33,0.33,0,0,0,.15,0l0,0a0.7,0.7,0,0,0,.08.15l0.07,0.07a4.75,4.75,0,0,0-.33.45Q677.31,1053.36,677.33,1053.06Zm1.75,0.12h0l-0.09.05Zm0.56-.37a0.22,0.22,0,0,0,0,.06l-0.08.05Zm0.17,5.65a0.63,0.63,0,0,0,.52-0.11l-0.2.35Zm-0.7-.63,0,0v0Zm2.57,1.23a0.27,0.27,0,0,0-.14,0l0.21-.28C681.72,1058.85,681.7,1059,681.68,1059.06Zm-1.08,0,0.16-.12-0.1.15Zm0.67,0.33,0,0,0,0Zm0.82-1.72a0.45,0.45,0,0,0-.14-0.19,0.58,0.58,0,0,1,.26.1Zm-0.6-.15-0.08.09a0.47,0.47,0,0,0,0-.14h0.1Zm-2,.71,0.05,0h0a0.22,0.22,0,0,0,0,.09Zm10.19-.49c0,0.19,0,.41,0,0.62l-0.24.15A1.73,1.73,0,0,1,689.67,1057.7Zm-2.23.95c0,0.12,0,.24-0.06.36a2.11,2.11,0,0,1,0-.28Zm0.5,0.91,0,0.11-0.06,0Zm0.74-.39,0,0.17-0.05,0C688.67,1059.3,688.67,1059.23,688.68,1059.17Zm0.46-1.66s0-.1,0-0.15h0.09Zm2.35-.47a10,10,0,0,0-1.75-.34,3.37,3.37,0,0,0-2,.16,4.28,4.28,0,0,0-1.08,1.61,7.91,7.91,0,0,0-.58,1.71,8.16,8.16,0,0,1-1.95,0l-0.72-2a2.11,2.11,0,0,0-.77-1.34,3.83,3.83,0,0,0-1.76-.17l-2.59.07a6.35,6.35,0,0,1-.76-1.74l2.09-1.34a3.1,3.1,0,0,0,1.39-1.32,1.89,1.89,0,0,0-.27-1.52l0.09-.19c0.09-.19-0.18-0.38-0.37-0.31-0.32-.57-0.66-1.12-1-1.68a7.45,7.45,0,0,1,.62-0.48,0.43,0.43,0,0,0,.22-0.09,6.94,6.94,0,0,1,.9-0.57l0.05,0,1.71,1.09a3.85,3.85,0,0,0,1.87.9,2.71,2.71,0,0,0,1.62-.67l1.85-1.38c0.38,0.17.76,0.35,1.12,0.54a6.26,6.26,0,0,1,1.18.81,5.53,5.53,0,0,0-.87,3.59,2.59,2.59,0,0,0,1.22,1.24,7.07,7.07,0,0,0,1.64.81v0.07A6,6,0,0,1,691.49,1057Z" transform="translate(-67.19 -880.05)"/><path class="cls-1" d="M688.28,1052.26l-2.65-2a0.45,0.45,0,0,0-.58,0,2.8,2.8,0,0,0-2,1c-0.61.56-1.6,1.13-1.5,2a5.6,5.6,0,0,0,.85,2.31,2.4,2.4,0,0,0,2,1.16,11.88,11.88,0,0,0,1.34,0,3,3,0,0,0,1.32-.12,2.27,2.27,0,0,0,.77-1c0.24-.42.46-0.86,0.66-1.3a3,3,0,0,0,.46-1.25A1.17,1.17,0,0,0,688.28,1052.26Zm-4.73-.15,1-.64a16.23,16.23,0,0,1-1.63,1.09c-0.4.22-.25,0.12-0.08,0Zm0,2.38,1.29-1,0.13-.09-0.38.39-1.24.93Zm1.54-3.38a0.23,0.23,0,0,0,0-.11h0.13Zm-2.21,2.05,0.27-.11-0.24.18Zm-0.21,1.27h0Zm4.71-1.77-0.13.1a1.92,1.92,0,0,0,.08-0.24,0.28,0.28,0,0,0,0-.05l0.18,0.14A0.32,0.32,0,0,0,687.35,1052.66Zm-1.3-1.16-0.15.09,0.1-.12,0,0h0Zm2,1.59a0.25,0.25,0,0,0-.17.08l0,0a0.23,0.23,0,0,0-.05-0.17l0.05-.08a0.26,0.26,0,0,0,0-.11A0.49,0.49,0,0,1,688,1053.09Zm-1.47,3h0l0.53-.65A1.23,1.23,0,0,1,686.53,1056Z" transform="translate(-67.19 -880.05)"/><path class="cls-1" d="M646.7,980.55a9.64,9.64,0,0,0-1.4-4.24,2.88,2.88,0,0,0,0-.39,0.39,0.39,0,0,0-.56-0.35,9.47,9.47,0,0,0-2.08-2,0.57,0.57,0,0,0-.58-0.37l-0.16-.1a15.19,15.19,0,0,0-8.44-1.71,11.44,11.44,0,0,0-5.55,2.07,0.5,0.5,0,0,0-.34.25h0a11,11,0,0,0-4.59,6.8,9.92,9.92,0,0,0,4,9.71,12.73,12.73,0,0,0,11,1.76l0.33-.11a0.53,0.53,0,0,0,.67-0.25,12.83,12.83,0,0,0,6.26-5.28,0.5,0.5,0,0,0,.45-0.84l0.18-.39a9.19,9.19,0,0,0,.78-3.76A0.51,0.51,0,0,0,646.7,980.55Zm-1.26-.91,0,0-0.16.21,0.12-.52Zm-3.32-1v0h0Zm1.94-2.16c-0.15.21-.29,0.42-0.43,0.64l0.31-.8Zm-1,2.91,0,0.12-0.08,0Zm1.63-.64-0.29,1.3-0.41-.13h0C644.2,979.56,644.48,979.08,644.72,978.7ZM630.94,974l0.08-.12a3.35,3.35,0,0,0-.11.62l-0.26-.11C630.75,974.32,630.84,974.18,630.94,974Zm2.08,0.23q0.14-.36.25-0.72v0q0.35-.35.68-0.71l-0.08.13a11.64,11.64,0,0,1-.88,1.47Zm-1.14.73-0.16-.08,0.23-.19C631.93,974.83,631.91,974.92,631.89,975Zm1.45,0.13-0.15.29-0.22,0A1.15,1.15,0,0,0,633.34,975.13Zm1.26-.57a0.29,0.29,0,0,0,.05.16,3.77,3.77,0,0,1-.33.29Zm2-2a0.29,0.29,0,0,0-.07-0.15l0.19,0Zm-3.91-.1h0a7.25,7.25,0,0,0-.3.83l-0.54.5,0-.09a6.41,6.41,0,0,0,.43-0.84,0.83,0.83,0,0,0,0-.32Zm-5.3,9.41,0-.05-0.07.11Zm-3.27-.85-0.06.12v-0.13h0Zm2.26,0.9,0.37-.53-0.06.14Zm-0.71-3.34,0.2-.47,0.09,0.11Zm-1,.14,0.08,0q-0.15.33-.32,0.65Q624.55,979.07,624.69,978.76Zm-0.67,3a0.42,0.42,0,0,0,.18.11l-0.19.31C624,982,624,981.86,624,981.72Zm0.07,1.49a0.47,0.47,0,0,0,.2-0.09l0,0a1,1,0,0,0,.15.18,0.41,0.41,0,0,0,.11.08,6.69,6.69,0,0,0-.35.71Q624.14,983.64,624.08,983.21Zm2.45-.26h0l-0.11.1Zm0.68-.66a0.3,0.3,0,0,0,0,.09l-0.1.09Zm1.65,7.79a0.89,0.89,0,0,0,.69-0.29l-0.19.54Zm-1.13-.7,0,0v0.06Zm3.87,1.06a0.38,0.38,0,0,0-.2,0l0.23-.44C631.62,990.14,631.61,990.29,631.61,990.45Zm-1.51.2,0.19-.2-0.11.24Zm1,0.3,0,0.05-0.06,0Zm0.71-2.59a0.64,0.64,0,0,0-.24-0.23,0.82,0.82,0,0,1,.39.08ZM631,988.3l-0.09.14a0.66,0.66,0,0,0,0-.2l0.14,0Zm-2.61,1.49,0.07,0h0a0.31,0.31,0,0,0,.05.12Zm14-3.21c0.11,0.26.11,0.57,0.2,0.85l-0.3.27A2.43,2.43,0,0,1,642.35,986.57Zm-2.85,1.87c0,0.17,0,.34,0,0.51a3,3,0,0,1,0-.39Zm0.92,1.13,0.08,0.15-0.08.05Q640.42,989.68,640.42,989.58Zm0.93-.72,0.09,0.23-0.07,0C641.36,989,641.35,988.95,641.35,988.85Zm0.22-2.42,0-.2h0.13A1.62,1.62,0,0,0,641.57,986.44Zm3.13-1.24a14,14,0,0,0-2.51,0c-0.76.06-2.19,0.12-2.74,0.72a6,6,0,0,0-1.1,2.5,11.14,11.14,0,0,0-.37,2.51,11.5,11.5,0,0,1-2.69.52l-1.48-2.55c-0.32-.55-0.66-1.47-1.41-1.66a5.4,5.4,0,0,0-2.48.2l-3.57.74a9,9,0,0,1-1.48-2.23l2.56-2.38a4.37,4.37,0,0,0,1.6-2.18,2.66,2.66,0,0,0-.75-2l0.08-.29c0.07-.29-0.34-0.48-0.59-0.34-0.58-.7-1.19-1.39-1.79-2.09a10.5,10.5,0,0,1,.73-0.82,0.6,0.6,0,0,0,.29-0.18,9.77,9.77,0,0,1,1.11-1l0.07,0,2.64,1.09c0.81,0.33,1.86,1,2.81.78a3.82,3.82,0,0,0,2.08-1.33c0.75-.79,1.48-1.58,2.22-2.37,0.57,0.13,1.14.3,1.69,0.47a8.82,8.82,0,0,1,1.84.83,7.79,7.79,0,0,0-.31,5.2,3.65,3.65,0,0,0,2,1.42,10,10,0,0,0,2.48.72s0,0.07,0,.1A8.49,8.49,0,0,1,644.7,985.2Z" transform="translate(-67.19 -880.05)"/><path class="cls-1" d="M639.07,979.38l-4.18-2.14a0.63,0.63,0,0,0-.8.2,4,4,0,0,0-2.54,1.88c-0.71.93-1.94,2-1.59,3.16a7.89,7.89,0,0,0,1.76,3,3.38,3.38,0,0,0,3,1.12,16.73,16.73,0,0,0,1.86-.3,4.18,4.18,0,0,0,1.79-.5,3.2,3.2,0,0,0,.82-1.55c0.23-.65.42-1.3,0.59-2a4.27,4.27,0,0,0,.33-1.85A1.65,1.65,0,0,0,639.07,979.38Zm-6.6,1c0.41-.39.83-0.77,1.25-1.14a22.86,22.86,0,0,1-2,1.91c-0.49.41-.32,0.23-0.11,0Zm0.56,3.3,1.55-1.65,0.16-.16-0.42.64-1.48,1.59C632.88,983.93,633,983.79,633,983.65Zm1.3-5.08a0.33,0.33,0,0,0,0-.15h0.06l0.12,0Zm-2.55,3.4a3.15,3.15,0,0,0,.34-0.22l-0.29.31Zm0,1.81v0h0Zm6.08-3.62-0.15.17a2.71,2.71,0,0,0,0-.36,0.4,0.4,0,0,0,0-.08l0.29,0.15A0.45,0.45,0,0,0,637.88,980.16Zm-2.09-1.28-0.18.16,0.11-.2,0.08,0h0Zm3.1,1.72a0.36,0.36,0,0,0-.21.16l0,0.07a0.32,0.32,0,0,0-.11-0.22l0.05-.12a0.36,0.36,0,0,0,0-.16A0.69,0.69,0,0,1,638.89,980.6Zm-1.31,4.47-0.06,0,0.57-1A1.74,1.74,0,0,1,637.58,985.07Z" transform="translate(-67.19 -880.05)"/><path class="cls-1" d="M644.79,1034.61a14.72,14.72,0,0,0-1-6.75,4.4,4.4,0,0,0,.17-0.58,0.6,0.6,0,0,0-.74-0.68,14.47,14.47,0,0,0-2.59-3.6,0.87,0.87,0,0,0-.76-0.72l-0.22-.19a23.2,23.2,0,0,0-12.22-4.85,17.47,17.47,0,0,0-8.9,1.61,0.77,0.77,0,0,0-.58.28h0a16.87,16.87,0,0,0-8.73,9c-2.1,5.29-.57,11.42,3.37,15.67a19.45,19.45,0,0,0,16.1,5.62l0.52-.07a0.81,0.81,0,0,0,1.08-.19,19.59,19.59,0,0,0,10.84-6.24,0.76,0.76,0,0,0,.91-1.13l0.38-.54a14,14,0,0,0,2.19-5.45A0.78,0.78,0,0,0,644.79,1034.61Zm-1.64-1.71,0,0-0.29.27,0.31-.75Q643.14,1032.68,643.15,1032.9Zm-4.71-2.47,0,0v0h0Zm3.49-2.72c-0.28.27-.55,0.55-0.82,0.84l0.69-1.12Zm-2.24,4.11-0.1.17-0.11-.08Zm2.62-.52-0.79,1.88-0.58-.31h0C641.3,1032.45,641.85,1031.81,642.32,1031.3Zm-19.46-10.73,0.16-.15a5.12,5.12,0,0,0-.33.91l-0.36-.23C622.5,1020.94,622.67,1020.76,622.86,1020.57Zm3.07,0.91q0.3-.5.57-1l0,0q0.62-.43,1.21-0.88l-0.16.18a17.78,17.78,0,0,1-1.72,2Zm-1.91.79-0.22-.16,0.39-.22Zm2.15,0.59-0.3.39-0.32-.1A1.76,1.76,0,0,0,626.17,1022.86Zm2.05-.52a0.45,0.45,0,0,0,0,.25,5.76,5.76,0,0,1-.57.35Zm3.55-2.41a0.45,0.45,0,0,0-.06-0.25l0.27,0.09Zm-5.85-1.21H626a11.07,11.07,0,0,0-.68,1.17l-0.95.6,0.07-.12a9.79,9.79,0,0,0,.87-1.14,1.26,1.26,0,0,0,.11-0.48Zm-10.52,12.72,0.08-.07-0.13.14Zm-4.69-2.16-0.12.17,0.05-.19Zm3.15,2,0.71-.69-0.12.19Zm-0.16-5.21,0.43-.66,0.11,0.19Zm-1.51-.06h0.13q-0.32.45-.66,0.89Q611.9,1026.41,612.18,1026Zm-1.8,4.27a0.64,0.64,0,0,0,.24.22l-0.37.42C610.29,1030.67,610.33,1030.46,610.38,1030.25Zm-0.3,2.26a0.71,0.71,0,0,0,.33-0.08l0.07,0a1.51,1.51,0,0,0,.17.31,0.62,0.62,0,0,0,.14.14,10.22,10.22,0,0,0-.72,1Q610,1033.16,610.08,1032.51Zm3.76,0.27,0,0-0.2.11ZM615,1032a0.46,0.46,0,0,0,0,.13l-0.18.11Zm0.37,12.16a1.36,1.36,0,0,0,1.11-.25l-0.44.76Zm-1.51-1.36,0.07,0,0,0.09Zm5.54,2.64a0.59,0.59,0,0,0-.3-0.07l0.46-.6C619.53,1045,619.48,1045.19,619.43,1045.41Zm-2.33-.1,0.35-.26-0.22.33Zm1.43,0.72,0,0.09-0.08,0Zm1.77-3.7a1,1,0,0,0-.3-0.41,1.25,1.25,0,0,1,.56.22ZM619,1042l-0.18.19a1,1,0,0,0,.07-0.3h0.22Zm-4.32,1.53,0.12,0h0a0.48,0.48,0,0,0,0,.19Zm21.92-1c0.09,0.42,0,.88.07,1.33-0.17.12-.34,0.23-0.52,0.33A3.72,3.72,0,0,1,636.62,1042.49Zm-4.79,2c0,0.26-.08.52-0.12,0.77a4.55,4.55,0,0,1,0-.6Zm1.08,2,0.09,0.24-0.14.05Zm1.59-.84c0,0.12,0,.24.07,0.37l-0.11.06C634.47,1045.93,634.49,1045.79,634.5,1045.65Zm1-3.57c0-.1,0-0.21,0-0.31l0.2,0A2.47,2.47,0,0,0,635.49,1042.08Zm5-1a21.43,21.43,0,0,0-3.76-.72c-1.16-.12-3.33-0.41-4.31.34a9.22,9.22,0,0,0-2.33,3.47,17,17,0,0,0-1.24,3.68,17.56,17.56,0,0,1-4.19.06l-1.54-4.23c-0.33-.91-0.6-2.39-1.67-2.88a8.24,8.24,0,0,0-3.79-.36l-5.56.15a13.67,13.67,0,0,1-1.63-3.75l4.49-2.89c1.25-.8,2.45-1.49,3-2.84a4.07,4.07,0,0,0-.58-3.26l0.2-.42c0.19-.41-0.38-0.82-0.79-0.67-0.69-1.22-1.42-2.42-2.13-3.62a16,16,0,0,1,1.32-1,0.92,0.92,0,0,0,.48-0.19,14.92,14.92,0,0,1,1.94-1.23l0.12-.06,3.67,2.35c1.13,0.72,2.53,2,4,1.94a5.84,5.84,0,0,0,3.48-1.44c1.33-1,2.65-2,4-3,0.83,0.36,1.63.75,2.41,1.16a13.47,13.47,0,0,1,2.54,1.75c-1.3,2.31-2.4,5.22-1.87,7.73,0.25,1.16,1.66,2,2.62,2.67a15.22,15.22,0,0,0,3.54,1.75l0,0.15A13,13,0,0,1,640.54,1041.06Z" transform="translate(-67.19 -880.05)"/><path class="cls-1" d="M633.63,1030.8l-5.71-4.35a1,1,0,0,0-1.25.08c-1.8-.12-3.14,1.06-4.33,2.15s-3.45,2.44-3.24,4.33a12.05,12.05,0,0,0,1.83,5,5.16,5.16,0,0,0,4.2,2.49,25.55,25.55,0,0,0,2.88.05,6.38,6.38,0,0,0,2.83-.27,4.89,4.89,0,0,0,1.65-2.11c0.53-.91,1-1.84,1.42-2.79a6.53,6.53,0,0,0,1-2.7A2.52,2.52,0,0,0,633.63,1030.8Zm-10.19-.33c0.72-.47,1.46-0.93,2.19-1.38a34.91,34.91,0,0,1-3.5,2.34c-0.85.48-.54,0.26-0.18,0Zm0,5.11,2.77-2.07,0.28-.19-0.81.84-2.66,2C623.11,1036,623.25,1035.77,623.4,1035.58Zm3.32-7.28a0.5,0.5,0,0,0,0-.23H627Zm-4.75,4.42a4.81,4.81,0,0,0,.57-0.24l-0.52.39Zm-0.45,2.73,0,0v0h0Zm10.12-3.8-0.27.21a4.13,4.13,0,0,0,.16-0.53,0.61,0.61,0,0,0,0-.12l0.4,0.3A0.69,0.69,0,0,0,631.64,1031.64Zm-2.79-2.49-0.32.18,0.21-.27,0.11,0.08h0Zm4.2,3.42a0.54,0.54,0,0,0-.36.18l-0.09.09a0.49,0.49,0,0,0-.11-0.37l0.11-.17a0.55,0.55,0,0,0,.08-0.24A1.06,1.06,0,0,1,633,1032.58Zm-3.17,6.36-0.1,0,1.14-1.39A2.65,2.65,0,0,1,629.87,1038.94Z" transform="translate(-67.19 -880.05)"/><path class="cls-1" d="M584.5,1060.27a8.13,8.13,0,0,0-.53-3.73,2.43,2.43,0,0,0,.1-0.32,0.33,0.33,0,0,0-.41-0.38,8,8,0,0,0-1.43-2,0.48,0.48,0,0,0-.42-0.4l-0.12-.11a12.82,12.82,0,0,0-6.75-2.68,9.66,9.66,0,0,0-4.92.89,0.42,0.42,0,0,0-.32.15h0a9.32,9.32,0,0,0-4.82,5,8.37,8.37,0,0,0,1.86,8.66,10.75,10.75,0,0,0,8.9,3.11l0.29,0a0.45,0.45,0,0,0,.6-0.1,10.83,10.83,0,0,0,6-3.45,0.42,0.42,0,0,0,.5-0.63l0.21-.3a7.76,7.76,0,0,0,1.21-3A0.43,0.43,0,0,0,584.5,1060.27Zm-0.91-.94,0,0-0.16.15,0.17-.41Q583.59,1059.2,583.59,1059.32ZM581,1058v0h0Zm1.93-1.51-0.45.46,0.38-.62Zm-1.24,2.27-0.06.09-0.06,0Zm1.45-.29-0.44,1-0.32-.17h0C582.57,1059.07,582.87,1058.72,583.13,1058.44Zm-10.75-5.93,0.09-.08a2.83,2.83,0,0,0-.18.5l-0.2-.13Zm1.69,0.5q0.17-.28.32-0.56v0l0.67-.49-0.09.1a9.83,9.83,0,0,1-1,1.09Zm-1.05.44-0.12-.09,0.22-.12Zm1.19,0.32L574,1054l-0.18-.06A1,1,0,0,0,574.21,1053.77Zm1.13-.28a0.25,0.25,0,0,0,0,.14l-0.31.2Zm2-1.33a0.25,0.25,0,0,0,0-.14l0.15,0.05Zm-3.24-.67h0a6.12,6.12,0,0,0-.38.64l-0.52.33,0-.07a5.41,5.41,0,0,0,.48-0.63,0.7,0.7,0,0,0,.06-0.27h0.28Zm-5.81,7,0,0-0.07.08Zm-2.59-1.19-0.07.09,0-.1h0Zm1.74,1.08,0.39-.38-0.07.1Zm-0.09-2.88,0.24-.36,0.06,0.1Zm-0.83,0h0.07l-0.37.49Q566.32,1055.74,566.48,1055.5Zm-1,2.36a0.36,0.36,0,0,0,.13.12l-0.2.23C565.44,1058.09,565.46,1058,565.48,1057.86Zm-0.17,1.25a0.39,0.39,0,0,0,.18,0l0,0a0.84,0.84,0,0,0,.09.17l0.08,0.08a5.65,5.65,0,0,0-.4.54Q565.3,1059.47,565.32,1059.1Zm2.08,0.15h0l-0.11.06Zm0.67-.45a0.26,0.26,0,0,0,0,.07l-0.1.06Zm0.2,6.72a0.75,0.75,0,0,0,.61-0.14l-0.24.42Zm-0.84-.75,0,0v0.05Zm3.06,1.46a0.32,0.32,0,0,0-.17,0l0.25-.33C570.54,1066,570.51,1066.11,570.49,1066.24Zm-1.29-.06,0.19-.14-0.12.18Zm0.79,0.4,0,0,0,0Zm1-2a0.54,0.54,0,0,0-.16-0.23,0.69,0.69,0,0,1,.31.12Zm-0.71-.18-0.1.11a0.56,0.56,0,0,0,0-.16h0.12Zm-2.39.85,0.06,0h0a0.26,0.26,0,0,0,0,.11Zm12.11-.58c0,0.23,0,.49,0,0.73l-0.29.18A2.05,2.05,0,0,1,580,1064.62Zm-2.65,1.13c0,0.14,0,.28-0.07.43a2.51,2.51,0,0,1,0-.33Zm0.6,1.08,0,0.13-0.08,0Zm0.88-.46,0,0.2-0.06,0C578.8,1066.52,578.81,1066.44,578.81,1066.37Zm0.55-2c0-.06,0-0.12,0-0.17h0.11Zm2.79-.56a11.84,11.84,0,0,0-2.08-.4,4,4,0,0,0-2.38.19,5.09,5.09,0,0,0-1.29,1.92,9.4,9.4,0,0,0-.69,2,9.71,9.71,0,0,1-2.31,0l-0.85-2.34a2.51,2.51,0,0,0-.92-1.59,4.56,4.56,0,0,0-2.09-.2l-3.07.08a7.55,7.55,0,0,1-.9-2.07l2.48-1.6a3.69,3.69,0,0,0,1.66-1.57,2.25,2.25,0,0,0-.32-1.8l0.11-.23c0.1-.23-0.21-0.45-0.44-0.37-0.38-.67-0.78-1.34-1.18-2a8.86,8.86,0,0,1,.73-0.58,0.51,0.51,0,0,0,.27-0.1,8.25,8.25,0,0,1,1.07-.68l0.06,0,2,1.3a4.57,4.57,0,0,0,2.22,1.07,3.23,3.23,0,0,0,1.92-.8l2.2-1.64c0.46,0.2.9,0.42,1.33,0.64a7.44,7.44,0,0,1,1.4,1,6.58,6.58,0,0,0-1,4.27,3.08,3.08,0,0,0,1.45,1.48,8.41,8.41,0,0,0,2,1v0.08A7.17,7.17,0,0,1,582.15,1063.83Z" transform="translate(-67.19 -880.05)"/><path class="cls-1" d="M578.33,1058.16l-3.15-2.41a0.53,0.53,0,0,0-.69,0,3.33,3.33,0,0,0-2.39,1.19c-0.73.67-1.9,1.35-1.79,2.39a6.66,6.66,0,0,0,1,2.74,2.85,2.85,0,0,0,2.32,1.38,14.12,14.12,0,0,0,1.59,0,3.52,3.52,0,0,0,1.56-.15,2.7,2.7,0,0,0,.91-1.16c0.29-.5.54-1,0.79-1.54a3.61,3.61,0,0,0,.55-1.49A1.39,1.39,0,0,0,578.33,1058.16Zm-5.63-.18,1.21-.76a19.29,19.29,0,0,1-1.94,1.29c-0.47.26-.3,0.15-0.1,0Zm0,2.82,1.53-1.14,0.15-.11-0.45.47-1.47,1.1Zm1.84-4a0.28,0.28,0,0,0,0-.13h0.15Zm-2.63,2.44,0.32-.13-0.29.22Zm-0.25,1.51v0h0Zm5.59-2.1-0.15.12a2.28,2.28,0,0,0,.09-0.29,0.34,0.34,0,0,0,0-.07l0.22,0.17A0.38,0.38,0,0,0,577.23,1058.63Zm-1.54-1.38-0.18.1,0.12-.15,0.06,0h0Zm2.32,1.89a0.3,0.3,0,0,0-.2.1l0,0.05a0.27,0.27,0,0,0-.06-0.2l0.06-.09a0.31,0.31,0,0,0,0-.13A0.58,0.58,0,0,1,578,1059.14Zm-1.75,3.52H576.2l0.63-.77A1.46,1.46,0,0,1,576.25,1062.66Z" transform="translate(-67.19 -880.05)"/><path class="cls-1" d="M807.25,894.87c-31.29,14-64.54,23.6-93.16,43-1.71,1.16-1,3.91,1.07,2.54a270.34,270.34,0,0,1,45.49-24.08c15.66-6.54,31.48-12.59,46.71-20.1,0.72-.36.93-1.82-0.11-1.35h0Z" transform="translate(-67.19 -880.05)"/><path class="cls-1" d="M841.66,932.78c-19.61,10.22-38.93,21.51-59.12,30.55l0.66,2.78c1.57-1,3.1-2.06,4.64-3.13,1.74-1.2,1-4-1.1-2.61-1.55,1-3.09,2.09-4.62,3.18s-1.08,3.89,1.07,2.56c19-11.73,39.32-21.53,59-32.15,0.86-.46.51-1.7-0.49-1.17h0Z" transform="translate(-67.19 -880.05)"/><path class="cls-1" d="M822.13,998.65a259.87,259.87,0,0,0-46.83,11.86c-1.09.38-1.29,2.34,0.15,1.84a334.91,334.91,0,0,1,46.4-12.22c0.75-.15,1.35-1.64.28-1.48h0Z" transform="translate(-67.19 -880.05)"/><path class="cls-1" d="M97.82,881.41a371,371,0,0,1,62.34,22.33c0.92,0.43,2.31-1.32,1.27-1.81a321.09,321.09,0,0,0-63-21.86c-0.68-.16-1.45,1.12-0.58,1.35h0Z" transform="translate(-67.19 -880.05)"/><path class="cls-1" d="M104.54,927q5.93,2.67,11.86,5.31c0.73,0.32,1.82-1.05,1-1.43q-5.92-2.68-11.85-5.32c-0.74-.33-1.83,1.06-1,1.44h0Z" transform="translate(-67.19 -880.05)"/><path class="cls-1" d="M67.67,970.71a189.77,189.77,0,0,1,58.47,22c0.93,0.54,2.41-1.29,1.34-1.93a163.34,163.34,0,0,0-59.1-21.72c-0.83-.13-1.79,1.43-0.72,1.65h0Z" transform="translate(-67.19 -880.05)"/><path class="cls-1" d="M233.77,1028.39a22.36,22.36,0,0,1,12.64,1.87c0.77,0.35,1.91-1.11,1-1.5a23.84,23.84,0,0,0-13.4-1.92c-0.82.12-1.4,1.7-.29,1.55h0Z" transform="translate(-67.19 -880.05)"/><path class="cls-1" d="M216.51,1045.48c1,0,2,0,3,0a1.29,1.29,0,0,0,1.18-.78,0.64,0.64,0,0,0-.42-1c-1,0-2,0-3,0a1.34,1.34,0,0,0-1.22.81c-0.15.36-.09,1,0.44,1h0Z" transform="translate(-67.19 -880.05)"/><path class="cls-1" d="M222.82,1056.1c-5.35-3.35-12.18-4.55-18.41-4.57-1.17,0-2.5,2.31-1,2.32,6.53,0.07,12.12,1.77,18.2,4,0.89,0.32,2.19-1.13,1.21-1.74h0Z" transform="translate(-67.19 -880.05)"/><path class="cls-1" d="M291.53,958.38a12.21,12.21,0,0,1,7.52,3c0.84,0.73,2.48-.91,1.66-1.6a13.32,13.32,0,0,0-8.42-3.18c-0.87,0-1.91,1.69-.76,1.75h0Z" transform="translate(-67.19 -880.05)"/><path class="cls-1" d="M296.55,949.32a22.68,22.68,0,0,1,9.58,5c0.76,0.67,2.26-.81,1.52-1.47a22.74,22.74,0,0,0-10.34-5.29c-0.88-.2-1.88,1.47-0.76,1.75h0Z" transform="translate(-67.19 -880.05)"/><path class="cls-1" d="M300.61,973.52a28.41,28.41,0,0,0-10.33-3.76c-0.92-.15-1.95,1.63-0.78,1.8a28.32,28.32,0,0,1,10,3.48c0.74,0.42,1.9-1,1.06-1.52h0Z" transform="translate(-67.19 -880.05)"/><path class="cls-1" d="M331.39,1002.21a113,113,0,0,1,19.79,10.4c0.91,0.59,2.42-1.26,1.36-2a101.5,101.5,0,0,0-20-10.16c-0.89-.34-2.21,1.31-1.2,1.72h0Z" transform="translate(-67.19 -880.05)"/><path class="cls-1" d="M316.75,1016.36a14,14,0,0,1,10.44,3.9c0.68,0.65,2.08-.72,1.41-1.36a14.73,14.73,0,0,0-11.55-4.14c-0.85.07-1.46,1.64-.3,1.6h0Z" transform="translate(-67.19 -880.05)"/><path class="cls-1" d="M330.91,1034.52a21.61,21.61,0,0,0-12.64-4.65c-0.87,0-1.85,1.66-.74,1.71a21.07,21.07,0,0,1,12,4.31c0.75,0.57,2.14-.81,1.42-1.37h0Z" transform="translate(-67.19 -880.05)"/><path class="cls-1" d="M636.31,1007.16a25.81,25.81,0,0,0-20.06,8.75c-1,1.1.17,2.36,1.2,1.24a24.23,24.23,0,0,1,18-8c0.94,0,2.12-1.9.84-1.94h0Z" transform="translate(-67.19 -880.05)"/><path class="cls-1" d="M644.84,1024.05a110.86,110.86,0,0,0,11.1-4.61c1.08-.47,1.29-2.53-0.15-1.9a121.15,121.15,0,0,0-11.29,5.1c-0.77.43-.75,1.75,0.34,1.42h0Z" transform="translate(-67.19 -880.05)"/><path class="cls-1" d="M647.12,1043.8c4.29-3.58,8.52-6.45,13.9-8.16,1.16-.37,1.37-2.42-0.15-1.94-5.45,1.73-10.95,4.69-14.76,9-0.84,1,0,1.88,1,1.05h0Z" transform="translate(-67.19 -880.05)"/><path class="cls-1" d="M682.73,1045.32c4-.85,8-1.83,12-2.82,0.94-.23,1.64-2.17.35-1.86-4.1,1-8.19,2-12.26,3.07-0.75.21-1.18,1.83-.09,1.6h0Z" transform="translate(-67.19 -880.05)"/><path class="cls-1" d="M695.74,1050.24c2.42-.52,4.82-1.29,7.2-2,1-.27,1.12-1.94-0.13-1.58-2.33.68-4.71,1.28-7,2.09-0.63.22-1.1,1.67-.09,1.45h0Z" transform="translate(-67.19 -880.05)"/><path class="cls-1" d="M701.58,1059.33l3,0a1.09,1.09,0,0,0,1-.66c0.12-.3.07-0.81-0.36-0.82l-3,0a1.12,1.12,0,0,0-1,.68c-0.13.3-.07,0.84,0.37,0.84h0Z" transform="translate(-67.19 -880.05)"/><path class="cls-1" d="M574,1027.09a14.86,14.86,0,0,1,12.37-2.39c1.12,0.27,2.4-1.88,1-2.23a15.93,15.93,0,0,0-14.17,3.36c-0.83.69-.16,2,0.83,1.27h0Z" transform="translate(-67.19 -880.05)"/><path class="cls-1" d="M575.74,1038.3c1.34-.31,2.67-0.64,4-1a1.21,1.21,0,0,0,.94-0.9,0.54,0.54,0,0,0-.64-0.66c-1.34.31-2.67,0.64-4,1a1.22,1.22,0,0,0-.94.9,0.54,0.54,0,0,0,.64.66h0Z" transform="translate(-67.19 -880.05)"/></svg>