<svg id="Layer_1" data-name="Layer 1" xmlns="http://www.w3.org/2000/svg" viewBox="0 0 111.9 169.72"><defs><style>.cls-1{fill:#333;}</style></defs><title>pececito</title><path class="cls-1" d="M2687,424l0.21-.29a1.5,1.5,0,0,0-.23-1.82l-0.36-.3a1.54,1.54,0,0,0-2.12,0c-2.86,2.85-.77,10.92-0.07,14.53a42.69,42.69,0,0,0,7.54,17.47c8.42,11.24,22.09,15.26,35.4,17.2,1.89,0.28,2.7-2.62.8-2.89-11.33-1.65-23.33-4.6-31.44-13.27a37,37,0,0,1-8.1-14.18,45.6,45.6,0,0,1-1.74-7.94c-0.17-1.32-1.29-7.78-.26-8.8h-2.12l0.36,0.3-0.23-1.82-0.21.29c-1.12,1.58,1.48,3.08,2.59,1.51h0Z" transform="translate(-2682.86 -421.13)"/><path class="cls-1" d="M2684.31,424.37c13.08-.68,26,2.55,36,11.46a40.08,40.08,0,0,1,13,34.47c-0.23,1.91,2.77,1.9,3,0a42.93,42.93,0,0,0-13.84-36.59c-10.47-9.47-24.24-13.06-38.08-12.34-1.92.1-1.93,3.1,0,3h0Z" transform="translate(-2682.86 -421.13)"/><path class="cls-1" d="M2733.7,471.58a29.54,29.54,0,0,0,8.33,3,28.25,28.25,0,0,0,4.24.48c1.41,0,3.34-.56,4.63-0.26,3.3,0.76,3.77,1.83,1.66,4.7-1,1.32-2.15,2.51-3.23,3.74-2.55,2.87-5.19,5.66-7.89,8.39a1.5,1.5,0,0,0,2.12,2.12c3.66-3.7,7.23-7.51,10.59-11.5,1.74-2.07,3.87-4.59,3-7.52-0.7-2.43-2.7-3.07-5-3.11-2.52,0-4.9.59-7.46,0.34a25.94,25.94,0,0,1-9.51-3c-1.71-.89-3.23,1.7-1.51,2.59h0Z" transform="translate(-2682.86 -421.13)"/><path class="cls-1" d="M2726.06,469.62l1.68,19.08c0.19,2.15.12,6,3.22,5.7,1.9-.18,1.92-3.18,0-3,0.06,0-1.74-20-1.9-21.78-0.17-1.91-3.17-1.93-3,0h0Z" transform="translate(-2682.86 -421.13)"/><path class="cls-1" d="M2742.14,493.34c-2.71,1.56-8.84,4.65-10.33-.12-0.57-1.84-3.47-1.05-2.89.8a6.73,6.73,0,0,0,5.61,4.65c3.29,0.52,6.37-1.15,9.13-2.74a1.5,1.5,0,0,0-1.51-2.59h0Z" transform="translate(-2682.86 -421.13)"/><path class="cls-1" d="M2696.72,432.38l1.9-.46-1.85-1,0.8,3.18,1.45-1.9s-0.45,0-.25,0-0.2-.1,0,0l-0.12-.12a0.09,0.09,0,0,1,0,.1c-0.09,0,0-.28-0.06,0a1.54,1.54,0,0,0-1-1.85,1.51,1.51,0,0,0-1.85,1,3.19,3.19,0,0,0,.78,2.83,3.06,3.06,0,0,0,2.53,1,1.53,1.53,0,0,0,1.45-1.9l-0.8-3.18a1.53,1.53,0,0,0-1.85-1l-1.9.46c-1.88.46-1.08,3.35,0.8,2.89h0Z" transform="translate(-2682.86 -421.13)"/><path class="cls-1" d="M2685.51,433.21a59.21,59.21,0,0,0,6.38,6.9c1.42,1.31,3.54-.81,2.12-2.12a59.21,59.21,0,0,1-6.38-6.9c-1.19-1.52-3.3.62-2.12,2.12h0Z" transform="translate(-2682.86 -421.13)"/><path class="cls-1" d="M2701.21,448a7.73,7.73,0,0,1-.34,5.23,1.51,1.51,0,0,0,1.45,1.9l7.23,0a1.52,1.52,0,0,0,1.45-1.9,28.89,28.89,0,0,0-1.4-4.49c-0.43-1.05-.85-2.49-1.92-3.08-2.22-1.23-4.26,2.29-2,3.29,1.75,0.77,3.28-1.82,1.51-2.59l-0.19-.08,0.69,0.9v0.53l-0.9.69q-1.09-.62-0.59.06l0.22,0.47c0.28,0.6.51,1.21,0.73,1.83a29.13,29.13,0,0,1,.93,3.27l1.45-1.9-7.23,0,1.45,1.9a10.38,10.38,0,0,0,.34-6.82,1.5,1.5,0,0,0-2.89.8h0Z" transform="translate(-2682.86 -421.13)"/><path class="cls-1" d="M2745.55,558.12a11.16,11.16,0,0,1,8.51-.46,5.25,5.25,0,0,1,2.49,1.46l-0.25,4.4c-0.67,1.19-3.3,2-4.38,2.35a15.35,15.35,0,0,1-7.63.5c-0.95-.19-2.64-0.47-3.33-1.13-5-4.84,1.75-5.59,3.41-5.75,1.07-.1,1.08-1.79,0-1.69-3.48.34-8.58,2.12-6.4,6.66,2.26,4.71,10.29,4.34,14.4,3,3.53-1.12,8.75-4.37,6.08-8.68-2.78-4.48-9.65-3.94-13.74-2.14-1,.44-0.13,1.89.85,1.46h0Z" transform="translate(-2682.86 -421.13)"/><path class="cls-1" d="M2737.71,551.48c11.31-2.8,24.22-1.5,34.08,5.1,3.18,2.13,5.93,4.93,6,8.9,0,4.64-3.91,7.48-7.8,9.2-5.66,2.5-12,2.72-18.12,2.35-11.19-.67-25.74-3.76-33.89-12.1-1.74-1.78-3.42-4.4-2.5-7.1,0.44-1.28,2.9-2.51,4-3.12a56.94,56.94,0,0,1,8.64-3.48,89.36,89.36,0,0,1,18.91-4.13c1.07-.12,1.08-1.81,0-1.69a90.7,90.7,0,0,0-26,6.75c-3.81,1.64-8.88,4.19-7.57,9.19,1.55,5.93,9.74,9.82,14.78,11.93a72.42,72.42,0,0,0,26.39,5.56c6.95,0.14,14.73-.65,20.39-5.09,4.5-3.53,6.16-8.92,2.76-13.83-3.76-5.43-11-8.37-17.2-10a46.68,46.68,0,0,0-23.29,0,0.84,0.84,0,0,0,.45,1.63h0Z" transform="translate(-2682.86 -421.13)"/><path class="cls-1" d="M2777.21,548.2c9.58-1.65,13.64,9,15.89,16.2a0.84,0.84,0,0,0,1.63-.45c-2.57-8.29-7.29-19.21-18-17.38-1.07.18-.62,1.81,0.45,1.63h0Z" transform="translate(-2682.86 -421.13)"/><path class="cls-1" d="M2704.37,552.91c-4.83,7.4-.75,15.48,3.29,22.19a0.84,0.84,0,0,0,1.46-.85c-3.73-6.19-7.79-13.59-3.29-20.49a0.84,0.84,0,0,0-1.46-.85h0Z" transform="translate(-2682.86 -421.13)"/><path class="cls-1" d="M2783.54,577.33a20.48,20.48,0,0,1-8.49,8.2,0.84,0.84,0,0,0,.85,1.46,22.09,22.09,0,0,0,9.09-8.8,0.84,0.84,0,0,0-1.46-.85h0Z" transform="translate(-2682.86 -421.13)"/><path class="cls-1" d="M2723,586.24a59,59,0,0,0,15.94,4.61c1.06,0.15,1.52-1.48.45-1.63a57.51,57.51,0,0,1-15.53-4.44c-1-.44-1.84,1-0.85,1.46h0Z" transform="translate(-2682.86 -421.13)"/><path class="cls-1" d="M2767.17,484.87c-0.68,2.66,2.58,5.13,4.93,3.64a0.85,0.85,0,0,0,.17-1.33l-3.81-3c-0.84-.67-2,0.52-1.19,1.19l3.81,3,0.17-1.33a1.7,1.7,0,0,1-2.45-1.73,0.84,0.84,0,0,0-1.63-.45h0Z" transform="translate(-2682.86 -421.13)"/><path class="cls-1" d="M2768.6,464.58a1.68,1.68,0,0,1,2.25,1.16l0.39-1c-1.4.62-2.9-1.49-2.15-2.68a0.84,0.84,0,0,0-1.46-.85c-1.74,2.74,1.61,6.25,4.46,5a0.85,0.85,0,0,0,.39-1,3.37,3.37,0,0,0-4.32-2.34c-1,.37-0.57,2,0.45,1.63h0Z" transform="translate(-2682.86 -421.13)"/><path class="cls-1" d="M2708.1,487.68a14.65,14.65,0,0,1-.4,5.94l1.41-.37a3.94,3.94,0,0,1-.39-5.34c0.69-.83-0.5-2-1.19-1.19a5.65,5.65,0,0,0,.39,7.73,0.85,0.85,0,0,0,1.41-.37,15.83,15.83,0,0,0,.46-6.39c-0.14-1.06-1.83-1.08-1.69,0h0Z" transform="translate(-2682.86 -421.13)"/><path class="cls-1" d="M2775,518.32A29.93,29.93,0,0,1,2790,494.85a0.84,0.84,0,0,0-.85-1.46,31.66,31.66,0,0,0-15.77,24.93c-0.09,1.08,1.59,1.08,1.69,0h0Z" transform="translate(-2682.86 -421.13)"/><path class="cls-1" d="M2702.77,506l7.8,9.5c0.69,0.84,1.88-.36,1.19-1.19l-7.8-9.5c-0.69-.84-1.88.36-1.19,1.19h0Z" transform="translate(-2682.86 -421.13)"/><path class="cls-1" d="M2753.12,518.35a61,61,0,0,0-4.31,36.89c0.2,1.07,1.83.61,1.63-.45a59.05,59.05,0,0,1,4.14-35.59c0.44-1-1-1.84-1.46-.85h0Z" transform="translate(-2682.86 -421.13)"/><path class="cls-1" d="M2730.74,524.63a46.85,46.85,0,0,1,11.27,35c-0.09,1.08,1.59,1.08,1.69,0a48.51,48.51,0,0,0-11.76-36.21c-0.71-.82-1.9.37-1.19,1.19h0Z" transform="translate(-2682.86 -421.13)"/><path class="cls-1" d="M2757.82,554.56a81.62,81.62,0,0,0,3.36-17.56c0.09-1.08-1.6-1.08-1.69,0a79.58,79.58,0,0,1-3.3,17.11,0.84,0.84,0,0,0,1.63.45h0Z" transform="translate(-2682.86 -421.13)"/><path class="cls-1" d="M2726.32,505.4a9.29,9.29,0,0,1,.57,6.61h1.63a9.12,9.12,0,0,1,0-6.78c0.39-1-1.24-1.45-1.63-.45a10.54,10.54,0,0,0,0,7.68,0.85,0.85,0,0,0,1.63,0,11.1,11.1,0,0,0-.74-7.91c-0.47-1-1.93-.12-1.46.85h0Z" transform="translate(-2682.86 -421.13)"/></svg>