<svg id="Layer_1" data-name="Layer 1" xmlns="http://www.w3.org/2000/svg" viewBox="0 0 237.3 149.43"><defs><style>.cls-1,.cls-3{fill:none;stroke:#333;stroke-miterlimit:10;}.cls-1{stroke-width:2.16px;}.cls-2{fill:#333;}.cls-3{stroke-width:1.08px;}</style></defs><title>sombrerito</title><circle class="cls-1" cx="501.71" cy="204.9" r="42.16" transform="translate(-403.7 -63.01) rotate(-4.02)"/><path class="cls-1" d="M459.66,207.86s-58.64-.57-68-37.48c0,0,7.61-73.42,126.53-70.51s108.37,77.28,108.37,77.28,6.06,40-84,38.13" transform="translate(-390.56 -98.71)"/><circle class="cls-2" cx="513.47" cy="189.3" r="5.45" transform="translate(-402.58 -62.22) rotate(-4.02)"/><circle class="cls-2" cx="483.45" cy="188.5" r="5.45" transform="translate(-402.59 -64.33) rotate(-4.02)"/><path class="cls-2" d="M508.7,186.29c3.17-3.76,9.2-4.43,13.74-5.44,2-.45,1.17-3.57-0.86-3.12-5.17,1.15-11.54,2-15.16,6.28-1.34,1.58.94,3.88,2.29,2.29h0Z" transform="translate(-390.56 -98.71)"/><path class="cls-2" d="M490.84,182.79c-3.5-3.39-7.19-6.72-12.11-7.74-2-.42-2.9,2.69-0.86,3.12,4.39,0.91,7.56,3.89,10.68,6.91,1.5,1.45,3.78-.84,2.29-2.29h0Z" transform="translate(-390.56 -98.71)"/><path class="cls-2" d="M477.28,213.51c2.8-2.87,8.53-4.84,12-2.08,1.61,1.28,3.92-1,2.29-2.29-4.94-3.91-12.38-2.23-16.59,2.08-1.45,1.49.83,3.78,2.29,2.29h0Z" transform="translate(-390.56 -98.71)"/><path class="cls-3" d="M459.66,201.88s-54-9.15-58.14-29.11,22.16-57.37,103.42-63.08,117.51,42,111.66,65.38-15.67,32.41-73.26,36.46" transform="translate(-390.56 -98.71)"/><path class="cls-2" d="M534.27,166.5a107,107,0,0,0-1.2-19l-1.13,2c12-4,27.3-6.69,35.41-17.27l-3-.82a167.4,167.4,0,0,0-.83,29.08l1.19-1.56a183.71,183.71,0,0,0-32.37,8.1c-2,.68-1.11,3.81.86,3.12a183.71,183.71,0,0,1,32.37-8.1,1.61,1.61,0,0,0,1.19-1.56,167.4,167.4,0,0,1,.83-29.08c0.21-1.8-2.18-1.91-3-.82-7.39,9.65-22.58,12.15-33.48,15.78a1.67,1.67,0,0,0-1.13,2A102.22,102.22,0,0,1,531,166.5c-0.06,2.08,3.18,2.08,3.23,0h0Z" transform="translate(-390.56 -98.71)"/><path class="cls-2" d="M548.56,199.19a82.92,82.92,0,0,0,11.91-4.53c3.25-1.56,8.4-6.24,12-5.42,1.84,0.43,4.13,2.54,5.9,3.38,1.08,0.52,2.2,1,3.32,1.43a49.83,49.83,0,0,0,11.75,2.88L593,195.43c-7.2,3.46-14.55,8.48-22.77,7-6.8-1.2-13.55-2.84-20.3-4.26-1-.21-1.45,1.35-0.43,1.56,7.61,1.6,15.66,4.22,23.42,4.8,7.24,0.54,14.68-4.74,20.9-7.72,0.81-.39.29-1.41-0.41-1.51a46.55,46.55,0,0,1-15.77-4.86c-1.84-1-4.27-3.29-6.34-3.34-2.6-.06-6.22,3.34-8.43,4.52a79.7,79.7,0,0,1-14.72,6,0.81,0.81,0,0,0,.43,1.56h0Z" transform="translate(-390.56 -98.71)"/><path class="cls-2" d="M480.92,163.11q0.28-9.72,1.47-19.35a1.64,1.64,0,0,0-1.19-1.56l-31.18-12a1.62,1.62,0,0,0-2,1.56q1.15,11.1,3.3,22a1.6,1.6,0,0,0,1.13,1.13,80.75,80.75,0,0,1,24,11c1.73,1.16,3.35-1.64,1.63-2.79a82.33,82.33,0,0,0-19.12-9.59c-1.83-.63-3.71-0.72-4.86-2.37-0.8-1.14-.75-4.07-1-5.38-0.78-4.65-1.38-9.32-1.87-14l-2,1.56,31.18,12-1.19-1.56q-1.18,9.65-1.47,19.35c-0.06,2.08,3.17,2.08,3.23,0h0Z" transform="translate(-390.56 -98.71)"/><path class="cls-2" d="M451.55,186.23c-3.66-3.25-8.27-9.29-13.46-9.91-2.57-.31-5.31.59-7.77,1.13l-11.25,2.48a0.82,0.82,0,0,0-.19,1.48c3.82,2.81,9,8.4,13.83,9.11,2.28,0.34,4.83-.48,7.06-0.75,1.18-.15,9.54,0,10.05-1.06-0.45.93,0.95,1.76,1.4,0.82l0.12-.26a0.84,0.84,0,0,0-.29-1.11c-2.48-1.83-8.73-.35-11.61,0-4,.5-7.72.65-11.15-1.84-2.88-2.09-5.73-4.21-8.59-6.32l-0.19,1.48c4.78-1.05,9.79-2.7,14.65-3.22,4.69-.5,7.27,1.12,10.52,4l5.73,5.09c0.78,0.69,1.92-.45,1.14-1.14h0Z" transform="translate(-390.56 -98.71)"/><path class="cls-2" d="M486.95,197s7.56,0.85,12.07,6.3,5.47,6.07,6.36,6.35-12.72-.48-21.86-7.84c0,0-7.22,5-17.08.47a8.92,8.92,0,0,1,6.53-4.84C477.78,196.64,481.22,194.43,486.95,197Z" transform="translate(-390.56 -98.71)"/></svg>