<svg id="Layer_1" data-name="Layer 1" xmlns="http://www.w3.org/2000/svg" viewBox="0 0 253.66 253.37"><defs><style>.cls-1{fill:none;stroke:#333;stroke-miterlimit:10;stroke-width:5.21px;}.cls-2{fill:#333;}.cls-3{fill:#fff;}</style></defs><title>brazos</title><circle class="cls-1" cx="116.3" cy="116.3" r="113.7"/><path class="cls-2" d="M6278.8,811.77a21.76,21.76,0,0,0-.09-15.42l-40.3-1.21c-0.21.47-.41,0.94-0.59,1.42a21.75,21.75,0,0,0-.28,14.4l41.08,1.24C6278.68,812.05,6278.74,811.91,6278.8,811.77Z" transform="translate(-6162 -741.96)"/><path class="cls-2" d="M6356.8,816.44a21.76,21.76,0,0,0-.09-15.42l-40.3-1.21c-0.21.47-.41,0.94-0.59,1.42a21.75,21.75,0,0,0-.28,14.4l41.08,1.24C6356.68,816.73,6356.74,816.59,6356.8,816.44Z" transform="translate(-6162 -741.96)"/><path class="cls-2" d="M6239.39,790.87c2.5-3.44,4.84-5.93,9.09-7.09,3.85-1.05,8.26-1.25,12.22-1.68s7.87-.52,11.1,2.44c2.41,2.21,3.89,5.35,5.31,8.23,0.85,1.73,3.44.21,2.59-1.51-4.2-8.55-9.06-13.26-19-12.15-4.9.54-10.51,0.69-15.17,2.46-3.91,1.48-6.34,4.52-8.73,7.8-1.14,1.56,1.46,3.06,2.59,1.51h0Z" transform="translate(-6162 -741.96)"/><path class="cls-2" d="M6236.32,821.42c3.71,8,12.53,9.82,20.61,9.46,9.93-.43,16.8-3.57,24.5-9.74l-2.51-1.46-0.82,3.18a1.5,1.5,0,0,0,2.89.8l0.82-3.18a1.51,1.51,0,0,0-2.51-1.46c-6.48,5.19-12.16,8.18-20.56,8.76-7.54.51-16.25-.12-19.84-7.87-0.81-1.75-3.4-.23-2.59,1.51h0Z" transform="translate(-6162 -741.96)"/><path class="cls-2" d="M6317.19,794.81a29.39,29.39,0,0,1,41,2.56c1.32,1.42,3.44-.71,2.12-2.12a32.43,32.43,0,0,0-45.23-2.56c-1.47,1.25.66,3.36,2.12,2.12h0Z" transform="translate(-6162 -741.96)"/><path class="cls-2" d="M6314.64,825.83c11,10.74,37.9,17.53,45.57-.52l-2.74-.36,0.74,1.88c0.7,1.78,3.6,1,2.89-.8l-0.74-1.88c-0.4-1-2.18-1.68-2.74-.36-6.84,16.11-31.12,9.44-40.86-.08a1.5,1.5,0,0,0-2.12,2.12h0Z" transform="translate(-6162 -741.96)"/><path class="cls-2" d="M6267.35,875.66c13.93-5.59,27.8-11.43,41.83-16.77,7.45-2.84,15-4,20.95,2.34,4.44,4.67,7.07,11,9.75,16.78,0.81,1.75,3.4.23,2.59-1.51-4.91-10.56-11.19-24.62-25.19-23-8.63,1-17.22,5.8-25.2,9l-25.52,10.24c-1.77.71-1,3.61,0.8,2.89h0Z" transform="translate(-6162 -741.96)"/><path class="cls-2" d="M6349.78,843.94a14.07,14.07,0,0,1,5.2,16.42c-0.65,1.82,2.25,2.61,2.89.8a17.1,17.1,0,0,0-6.58-19.81c-1.6-1.1-3.1,1.5-1.51,2.59h0Z" transform="translate(-6162 -741.96)"/><path class="cls-2" d="M6253.11,856.64c-4.06,7.54-8.06,19.65,2.53,23.9,1.79,0.72,2.57-2.18.8-2.89-8.47-3.4-3.68-14-.74-19.49,0.92-1.7-1.67-3.22-2.59-1.51h0Z" transform="translate(-6162 -741.96)"/><path class="cls-2" d="M6309.82,905.2c-2.55,2.7-5,5.56-7.72,8.11-4.89,4.63-9.2,3.25-14.09-.6-1.5-1.18-3.64.93-2.12,2.12,3.82,3,8.16,6,13.18,4.15,5.23-1.94,9.19-7.77,12.86-11.67,1.33-1.4-.79-3.53-2.12-2.12h0Z" transform="translate(-6162 -741.96)"/><path class="cls-2" d="M6267.46,774.38l-17.51.53c-1.93.06-1.93,3.06,0,3l17.51-.53c1.93-.06,1.93-3.06,0-3h0Z" transform="translate(-6162 -741.96)"/><path class="cls-2" d="M6347.85,781.31a156.72,156.72,0,0,0-21.3-1.52,1.52,1.52,0,0,0-1.06,2.56l0.9,1c1.31,1.42,3.43-.7,2.12-2.12l-0.9-1-1.06,2.56a150.94,150.94,0,0,1,20.5,1.41c1.89,0.26,2.7-2.63.8-2.89h0Z" transform="translate(-6162 -741.96)"/><path class="cls-2" d="M6181.5,901.31c-9.89,11-17.73,25.57-15.71,40.81,2,15,13.81,25.35,27.12,31,16.42,7,34.71,7.3,52.22,5.81a445.75,445.75,0,0,0,58.44-9.21c4.71-1,2.72-8.28-2-7.23a455.47,455.47,0,0,1-50.87,8.41c-15.74,1.66-32.15,2.44-47.52-2-12.54-3.65-26.11-11.33-29.47-24.94s4.27-27.48,13.09-37.3c3.22-3.58-2.07-8.9-5.3-5.3h0Z" transform="translate(-6162 -741.96)"/><path class="cls-3" d="M6298,965.83a91.17,91.17,0,0,1,22.57-10.91c3.86-1.26,8.3-2.28,12.09-.89s5.49,6.27,2,8.12c2.36,2.6,7.78.5,11.31,2,3.36,1.42,3.43,5.43,1.7,8.15s-4.71,4.85-6.3,7.63c-1,1.73-1.41,3.68-2.66,5.3-3.12,4.07-11.52,4.38-15.09.56-2.59,5.53-12.53,7.66-18.17,3.89-5.86-3.92-5.61-11.24-9.46-16.54" transform="translate(-6162 -741.96)"/><path class="cls-2" d="M6299.89,969.07a89.92,89.92,0,0,1,16-8.5,62.8,62.8,0,0,1,8.18-2.78,15.13,15.13,0,0,1,5.16-.66c0.11,0,4.37,1.16,3.49,1.78-1.76,1.26-2.79,4.23-.76,5.89,2.43,2,4.77,2.44,7.87,2.51,1.7,0,4.76-.81,5.12,1.76,0.22,1.6-2.72,3.82-3.67,4.88a26,26,0,0,0-3.18,4.07c-1,1.63-1.3,4-2.76,5.3-2.36,2.08-6.84,1.85-9.1-.21a3.8,3.8,0,0,0-5.89.76c-2.51,4.49-9.94,5.21-13.68,2-4-3.51-4.55-10.21-7.47-14.62-2.65-4-9.15-.26-6.48,3.79,4.68,7.08,4.9,16.48,14.27,19.49,7,2.26,16.1-.16,19.83-6.83l-5.89.76a15.06,15.06,0,0,0,14.23,3.21c6.71-1.85,7.37-7.71,11.42-12.38,3.54-4.09,7.85-8.71,5.06-14.52a8.65,8.65,0,0,0-5.82-4.56c-2.19-.55-6.87.68-8.54-0.68l-0.76,5.89c8.37-6,.94-15.38-7.28-15.76-6.05-.28-12.23,2.37-17.68,4.68a95.63,95.63,0,0,0-15.49,8.29c-4,2.64-.26,9.14,3.79,6.48h0Z" transform="translate(-6162 -741.96)"/><path class="cls-2" d="M6388.19,875c10.58,7.91,20.69,20.17,19.95,34.16-0.75,14.25-13.11,24.45-24.92,30.43-14,7.11-30.1,9.47-45.59,10.87a466.82,466.82,0,0,1-51.5,1.7c-4.83-.1-4.83,7.4,0,7.5a430.23,430.23,0,0,0,59.52-2.52c17.22-2,34.92-5.85,49.43-15.85,11.81-8.14,21.57-20.61,20.5-35.68-1.1-15.51-11.63-28.13-23.61-37.09-3.87-2.89-7.61,3.62-3.79,6.48h0Z" transform="translate(-6162 -741.96)"/><path class="cls-3" d="M6290.57,954.74a91.17,91.17,0,0,0-24.27-6.28c-4-.48-8.59-0.61-12,1.5s-4.15,7.23-.37,8.35c-1.8,3-7.53,2-10.7,4.18-3,2-2.3,6-.07,8.32s5.57,3.83,7.67,6.25c1.31,1.51,2.11,3.33,3.64,4.68,3.86,3.38,12.16,2,14.91-2.41,3.62,4.92,13.79,5.05,18.58.25,5-5,3.3-12.12,6-18.07" transform="translate(-6162 -741.96)"/><path class="cls-2" d="M6291.9,949.92c-10.29-4.17-24.26-8.75-35.45-6.14-4.38,1-8.46,3.87-9.71,8.38a8.7,8.7,0,0,0,4.63,10.47l-1-7.85c-1.45,1.76-5.33,1.49-7.47,2.33a10.13,10.13,0,0,0-6.11,5.89c-2.47,6.83,2.81,11.59,7.71,15.22,5.35,4,6.87,9.68,14.36,10.31a16.27,16.27,0,0,0,14.82-6.68l-7.85,1c5.31,6.17,15.38,6.61,22.2,2.82,9-5,7.44-14.63,10.76-22.85,2.41-6-7.26-8.56-9.64-2.66-1.86,4.6-1.07,11.34-4.26,15.24-2.79,3.42-9.08,3.76-12,.37-2.3-2.66-6.1-1.38-7.85,1-1.4,1.91-5.29,2.46-7.24,1.23-1.45-.92-2.3-3.24-3.46-4.51a25.1,25.1,0,0,0-3.63-3.09c-0.92-.68-3.75-2-4-3.15-0.41-1.59.65-1.11,2.48-1.5,3.14-.67,6.15-1.33,8.29-3.93,1.83-2.22,2.19-6.41-1-7.85,1.19,0.54-1.53.82,1.95-.41a11,11,0,0,1,3.27-.42,45.32,45.32,0,0,1,9.67,1.08,93.72,93.72,0,0,1,17.94,5.31c6,2.41,8.56-7.26,2.66-9.64h0Z" transform="translate(-6162 -741.96)"/></svg>