<svg id="Layer_1" data-name="Layer 1" xmlns="http://www.w3.org/2000/svg" viewBox="0 0 856.22 433.59"><defs><style>.cls-1,.cls-2{fill:none;stroke:#3a9342;stroke-linecap:round;stroke-linejoin:round;}.cls-1{stroke-width:3px;}</style></defs><title>cancha</title><path class="cls-1" d="M4376.08,1623.34s0.82-.53.85-0.49,6.14,1.58,6.22,1.73,4.76-3,4.89-2.83-9.42,10.65-9.22,11c0.32,0.55,16.27-10.09,16.57-9.57s-12.54,12.85-12.35,13.18c0.48,0.83,26.22-15.92,26.56-15.34s-26.22,19.89-25.87,20.49c0.51,0.88,30.93-19.27,31.55-18.21,0.37,0.63-29.1,21.65-28.67,22.4s31.12-19.1,31.61-18.25-30.8,22.44-30.26,23.38,29.4-18.2,29.93-17.28-29,21.77-28.56,22.51,26.49-16.42,27-15.58c0.37,0.64-19.33,16.55-19,17.16s20-12.35,20.31-11.73-20.34,17.26-20,17.79,22.36-13.57,22.65-13.08-17.77,15.81-17.5,16.29,13-8.13,13.28-7.67c0.1,0.17-4.19,7.81-4.09,8s7.34-4.51,7.46-4.31-6,9.26-5.85,9.51c0,0.06,4.16-2.47,4.19-2.42" transform="translate(-3568.34 -1617.03)"/><path class="cls-1" d="M3928.94,1844.55s2.36-1.4,2.37-1.37,2,4.24,2.11,4.37,6.68-4.24,6.85-4-9.63,10.43-9.44,10.76,18.77-11.46,19-11-16.12,14.61-15.81,15.15c0.43,0.75,29.85-18.31,30.31-17.5s-27.56,21.28-27.17,22c0.59,1,38.42-23.14,38.84-22.42,0.55,1-37.84,26-37.32,26.88,0.66,1.15,39.55-24.31,40.19-23.2s-36.18,25.95-35.67,26.84c0.82,1.42,48.48-29.89,49.3-28.46,0.58,1-46.52,31.4-45.9,32.48,0.89,1.53,54.54-33.16,55.26-31.91s-52.44,33.89-51.56,35.41c1,1.69,64.48-39.27,65.36-37.74,1,1.69-64,40.1-63.11,41.64,1.18,2,69.29-42.42,70.34-40.61s-69.67,44-68.58,45.93,75.59-46,76.6-44.23c1.21,2.1-74,46.51-73.15,48.06,1.09,1.89,81.73-49.58,82.77-47.79,1.25,2.17-71.21,45-70.33,46.47,1.43,2.48,80-48.67,81.09-46.82,1.29,2.24-84.16,50.7-82.7,53.23,1.19,2.06,93.19-57.29,94.7-54.67,1.06,1.84-85.11,51.62-83.71,54s92.21-56.22,93.5-54-92.61,56-91.23,58.37c1.64,2.84,102.63-62.39,104-60,1.47,2.55-94.8,57.46-93.43,59.85,1.5,2.59,98.75-60.47,100.25-57.88,1.32,2.28-91.25,55.71-90,57.82,1.64,2.84,89.15-55.31,90.81-52.43,1.41,2.45-83.18,51-82.06,52.93,1.48,2.56,79.33-49.22,80.81-46.66,1.18,2-70.55,44.82-69.67,46.35s70.26-42.68,71.17-41.09-66.61,42.17-65.63,43.87c0.72,1.25,58.87-35.69,59.61-34.41,0.58,1-35,25-34.4,26,0.29,0.5,18.3-11.24,18.59-10.73" transform="translate(-3568.34 -1617.03)"/><path class="cls-1" d="M3575.59,1621.07s2.31-1.39,2.34-1.35,0,6.08.1,6.2,5.72-3.7,5.89-3.4-11.15,12.21-10.94,12.58c0.32,0.56,21-12.77,21.29-12.29S3572,1640.3,3572.39,1641c0.55,1,32.67-20,33.15-19.14s-35.11,24.74-34.61,25.61c0.66,1.14,43.57-26.41,44.11-25.47,0.69,1.2-46,30.82-45.19,32.15s50.45-30.54,51.06-29.48c0.71,1.24-49,31.82-48.2,33.22,0.52,0.9,38-23.34,38.64-22.31s-32.25,22.72-31.76,23.56,27.37-16.8,27.8-16.05" transform="translate(-3568.34 -1617.03)"/><polyline class="cls-2" points="419.06 16.32 440.35 4.03 425.02 14.55 443.24 4.03 428.15 14.28 445.9 4.03 430.78 14.23 448.45 4.03 433.56 14.43 451.57 4.03 435.25 14.77 453.87 4.03 437.97 15.45 457.75 4.02 439.78 16.07 460.65 4.02 441.09 16.6 462.88 4.02 442.78 17.45 466.03 4.02 444.52 18.44 469.49 4.02 445.91 19.38 472.51 4.02 447.12 20.25 475.23 4.02 448.35 21.34 478.35 4.02 449.25 22.13 480.62 4.01 450.58 23.6 484.51 4.01 451.25 24.38 486.53 4.01 452.44 25.81 490.2 4.01 453.29 27.18 493.43 4.01 454.29 28.79 497.2 4.01 454.82 29.79 499.48 4.01 455.33 31 502.08 4.01 455.75 32 504.24 4 456.36 33.48 507.42 4 456.79 35.25 510.92 4 457.15 36.69 513.77 4 457.44 38.35 516.95 4 457.58 39.99 519.92 4 457.69 41.38 522.44 4 457.73 42.7 524.76 4 457.62 44.32 527.46 4 457.53 45.66 529.69 4 457.2 47.52 532.59 3.99 456.83 49.33 535.35 3.99 456.18 51.35 538.21 3.99 455.35 53.56 541.21 3.99 454.22 55.81 543.98 3.99 452.92 57.89 546.28 3.99 450.7 60.76 546.87 5.24 447.13 64.15 546.87 6.56"/><polyline class="cls-2" points="312.33 4.34 312.83 4.05 312.33 5.76 315.29 4.05 312.33 7.22 317.82 4.05 312.33 8.46 319.97 4.05 312.33 10.61 323.71 4.05 312.33 12.5 326.97 4.05 312.33 14.56 330.54 4.04 312.33 15.96 332.97 4.04 312.33 18.16 336.78 4.04 312.33 19.41 338.95 4.04 312.33 21.46 342.5 4.04 312.33 23.26 345.61 4.04 312.33 25.52 349.53 4.04 312.33 27.69 353.28 4.04 312.33 29.01 355.57 4.04 312.33 30.72 358.54 4.04 312.33 32.54 361.69 4.04 312.33 34.27 364.69 4.04 312.33 36.41 368.39 4.04 312.33 38.59 372.16 4.04 312.33 40.18 374.93 4.04 312.33 42.38 378.74 4.04 312.33 43.73 381.08 4.04 312.33 45.9 384.83 4.04 312.33 47.31 387.29 4.04 312.33 49.3 390.73 4.04 312.33 50.85 393.42 4.04 312.33 52.13 395.63 4.04 312.33 53.94 398.76 4.04 312.33 55.63 401.7 4.04 312.33 57.74 405.34 4.04 312.33 59.41 408.24 4.04 312.33 60.65 410.38 4.04 312.33 62.19 413.06 4.04 312.33 64.19 416.52 4.03 312.33 65.63 419.01 4.03 312.33 67.79 422.76 4.03 312.33 69.55 425.81 4.03 312.33 71.55 429.27 4.03 312.33 73.85 433.26 4.03 312.33 75.34 435.84 4.03 312.33 77.34 439.3 4.03 312.33 79.46 408.4 24 314.03 80.48 405.82 27.48 317.05 80.48 404.45 30.01 320.45 80.47 403.35 32.61 323.61 80.47 402.58 34.88 327.27 80.47 402.09 37.28 329.46 80.47 401.84 38.69 332.55 80.47 401.71 40.54 336.24 80.47 401.64 42.71 339.49 80.47 401.78 44.5 342.99 80.47 401.94 46.44 346.31 80.47 402.3 48.14 350 80.47 402.76 50.01 352.97 80.47 403.19 51.48 355.38 80.47 403.66 52.59 359.28 80.47 404.42 54.4 362.73 80.46 405.23 55.93 366.24 80.46 406.15 57.42 369.55 80.46 407.02 58.82 372.14 80.46 407.88 59.83 375.96 80.46 409.15 61.3 378.5 80.46 410.02 62.26 381.85 80.46 411.35 63.43 385.45 80.46 412.81 64.66 387.57 80.46 413.79 65.32 391.01 80.46 415.38 66.39 393.02 80.46 416.43 66.94 396.78 80.45 418.44 67.95 399.84 80.45 420.3 68.64 403.29 80.45 422.49 69.37 405.46 80.45 424.1 69.69 408.84 80.45 426.74 70.11 411.23 80.45 428.89 70.26 414.79 80.45 432.78 70.06 418.34 80.45 438.25 68.95 422.28 80.45 546.87 8.52 425.71 80.45 546.88 10.49 429.6 80.45 546.88 12.73 431.91 80.45 546.88 14.07 435.53 80.44 546.88 16.16 439.18 80.44 546.88 18.26 442.32 80.44 546.88 20.07 446 80.44 546.88 22.2 448.64 80.44 546.88 23.72 452.6 80.44 546.89 26 456.07 80.44 546.89 28.01 459.4 80.44 546.89 29.93 463.03 80.44 546.89 32.02 466.75 80.44 546.89 34.16 470.34 80.44 546.89 36.24 472.67 80.44 546.9 37.58 475.76 80.44 546.9 39.36 479.62 80.43 546.9 41.59 483.08 80.43 546.9 43.59 486.7 80.43 546.9 45.67 489.51 80.43 546.9 47.3 493.07 80.43 546.9 49.35 496.42 80.43 546.91 51.28 499 80.43 546.91 52.77 502.54 80.43 546.91 54.81 505.09 80.43 546.91 56.28 507.66 80.43 546.91 57.76 511.45 80.43 546.91 59.95 515.28 80.42 546.91 62.16 517.87 80.42 546.92 63.65 520.56 80.42 546.92 65.21 523.08 80.42 546.92 66.66 525.22 80.42 546.92 67.89 527.54 80.42 546.92 69.23 530.18 80.42 546.92 70.75 533.08 80.42 546.92 72.43 536.45 80.42 546.92 74.37 539.22 80.42 546.93 75.97 541.47 80.42 546.93 77.27 545.17 80.42 546.93 79.4"/><path class="cls-1" d="M4173.08,1727.84c1.1,1.9,76-46.23,77-44.45s-65.33,42.06-64.49,43.52c1.07,1.85,64.07-39,64.92-37.48,1.06,1.84-63.22,39.82-62.33,41.37,0.69,1.2,60.8-37.31,61.76-35.65s-56.49,37.13-55.76,38.4c0.58,1,55.69-33.65,56.34-32.53,0.8,1.39-45.13,29.89-44.4,31.16,0.6,1,36.42-22.64,37.12-21.43,0.58,1-36.57,25.32-36.07,26.2s37.19-22.61,37.68-21.76c0.58,1-39.34,27.75-38.86,28.59s36.78-22.34,37.26-21.51-34.72,24.59-34.25,25.38c0.56,1,34.88-21.2,35.34-20.4s-26,20-25.51,20.8c0.38,0.66,30.95-18.81,31.36-18.1s-31.58,22.94-31.14,23.7,29.1-18,29.6-17.09c0.39,0.67-31,22.7-30.58,23.48s26.73-16.31,27.11-15.65-24.88,19.4-24.54,20c0.44,0.76,30.58-18.8,31.08-17.94s-37.75,25.52-37.1,26.64c0.52,0.9,30.94-19,31.44-18.15,0.69,1.2-38.17,26.78-37.6,27.76s36.76-22.24,37.2-21.48" transform="translate(-3568.34 -1617.03)"/><path class="cls-1" d="M4126.07,1623.26s2.28-1.37,2.3-1.33,4.12,3.51,4.18,3.62c0.15,0.27,11.75-7.23,11.94-6.89s-14.29,13-14,13.4,19-11.75,19.36-11.18-24.94,19.43-24.53,20.14,36.5-22.21,37-21.36c0.68,1.17-38.69,26.7-38,27.84,0.54,0.93,46.25-28.3,46.94-27.1s-43,29.36-42.38,30.41,47-29.16,47.89-27.65-53.18,35.07-52.49,36.27,63.92-39.07,64.85-37.44-65.9,41.11-64.91,42.82,72.29-43.8,73.18-42.25c1.14,2-74.4,45.81-73.11,48,1,1.74,82.17-50.21,83.37-48.13s-77,48.07-75.79,50.08c1.45,2.51,86-53.3,87.59-50.57,1.48,2.56-96,58.58-94.83,60.64,1.39,2.41,103.11-63.53,104.84-60.53,1.25,2.16-104.85,62.32-103.08,65.38,1.34,2.31,110.37-67.21,111.88-64.59,1.86,3.23-113.19,68.2-111.86,70.5,1.92,3.32,123.47-74.64,124.92-72.12,2,3.51-128.87,75.47-127,78.62,1.64,2.83,118.9-72.38,120.52-69.58,1.84,3.19-118.76,70.77-117.34,73.23,2,3.39,114.44-69.27,115.82-66.87" transform="translate(-3568.34 -1617.03)"/><path class="cls-1" d="M3988.91,1728c0.6,1,38-23.25,38.55-22.26,0.4,0.7-29.16,21.61-28.72,22.37s31.88-19.44,32.33-18.67-25.24,18.76-24.79,19.53,34.86-21.28,35.36-20.42-31.3,22.49-30.72,23.49,43.82-26.43,44.31-25.58c0.69,1.2-40.42,27.94-39.71,29.17,0.57,1,46-27.82,46.55-26.88s-40.14,27.2-39.56,28.18,54.15-33.14,55-31.73c0.68,1.18-56.74,36.71-55.94,38.09,0.94,1.63,62-38.08,63-36.34,0.85,1.48-52.74,34.56-51.82,36.15,1.07,1.86,58.79-35.71,59.56-34.39,0.93,1.61-66.19,41.1-65,43.12,0.94,1.63,76.59-47.05,77.82-44.93,1.14,2-69.83,43.36-68.66,45.39,1.28,2.21,80.87-49,81.86-47.26,1.14,2-86.69,52.61-85.23,55.14s88.54-54.36,89.94-51.93c1.23,2.13-90.64,55-89.23,57.44,3.25,5.63,208.19-128.25,211.68-122.21,2.78,4.81-219.34,125.76-216.6,130.5,3.42,5.92,216-131.85,219.07-126.48s-218.2,124.52-215.13,129.84c2.76,4.77,207.92-127.47,211.14-121.9" transform="translate(-3568.34 -1617.03)"/><path class="cls-1" d="M3800.58,1730.55c1.08,1.87,64.69-39.75,65.73-37.95,0.75,1.31-49.34,32.29-48.58,33.6,0.84,1.46,46.6-28.75,47.4-27.37,0.7,1.21-45.32,31.15-44.75,32.13,0.65,1.13,42.49-25.73,43-24.83,0.65,1.12-35.47,24.81-35,25.7,0.69,1.2,42.63-26,43.22-25s-39.74,26.74-39,28c0.54,0.94,49.88-30.15,50.47-29.14s-45.09,30.43-44.44,31.56,53.65-32.74,54.42-31.42-56.24,36.11-55.39,37.58,64.89-39.31,65.69-37.93c1,1.68-55.89,36.48-55.13,37.79,0.88,1.53,59.25-36.72,60.34-34.84,0.84,1.45-65.58,41.36-64.79,42.74,1,1.68,70.51-42.9,71.46-41.26,1.24,2.16-71.62,45.59-70.71,47.17,1.28,2.22,86.27-52.25,87.33-50.42,1.36,2.35-80.21,49.42-79,51.58s85.77-52.47,87-50.26-88.6,54.22-87.34,56.4,96.44-58.84,97.81-56.47c1.63,2.83-108.45,65.35-107,67.91,1.79,3.09,113.6-70,115.49-66.68,1.48,2.57-113.6,67.84-112,70.65,2.22,3.84,127.54-78.34,129.58-74.81" transform="translate(-3568.34 -1617.03)"/><path class="cls-1" d="M3750.13,1621s3.17-1.89,3.2-1.84c0.19,0.33-8.41,9.75-8.24,10.06s12.67-7.62,12.8-7.39-7.67,10.3-7.52,10.55c0.34,0.59,21.56-13.24,21.9-12.64s-24.78,18.6-24.35,19.35,31-19.11,31.54-18.21-32.08,23.38-31.67,24.08c0.7,1.21,40.49-24.68,41.05-23.7s-41.23,27.72-40.62,28.77,51.16-31.11,51.84-29.93-48.1,31.39-47.32,32.74,51.32-31.82,52.27-30.18c0.68,1.18-54.5,35.18-53.64,36.66,1.14,2,63.88-39.41,65-37.51,1.24,2.15-71.23,45.32-70.35,46.85,1.11,1.92,80.35-49.19,81.56-47.09,1,1.77-83.54,51.25-82.34,53.33,1.4,2.42,90.48-55.09,91.72-53,1.33,2.31-91,55.6-89.68,57.83,1.18,2,99.89-60.57,101.15-58.4,1.74,3-103.6,62.78-102.28,65.07,1.78,3.08,111.78-68.71,113.59-65.58s-109.26,65.1-107.67,67.85c1.83,3.16,116.11-70.61,117.66-67.93,1.39,2.41-120,70.52-118.26,73.49,1.91,3.31,117.32-72.38,119.33-68.9,1.43,2.48-119.91,71.41-118.47,73.91,1.61,2.79,117.21-71.83,119-68.71s-124.53,72.45-122.42,76.1,117-71.88,118.85-68.62c2,3.51-117.42,69.79-115.81,72.59,2,3.43,113.53-69.64,115.3-66.57s-124.22,74-122.71,76.65c1.85,3.2,121.93-74.35,123.64-71.38,2,3.4-123.78,73.21-122.23,75.9,1.83,3.16,123.1-75,124.78-72,2,3.47-123.58,72.92-121.95,75.74s113.47-69.2,115.07-66.43c1.75,3-116.32,68.72-114.44,72,1.67,2.9,115-70.34,116.71-67.38,2,3.47-116.75,69.64-115.27,72.2,1.89,3.28,112.57-69,114.31-66S3744,1743.8,3746,1747.33c1.54,2.67,115.69-70.7,117.38-67.77,2,3.39-114.89,68-113,71.29,1.63,2.83,114.11-69.5,115.67-66.78,1.78,3.08-114.72,69.07-113.33,71.47,1.78,3.09,116.18-70.85,117.81-68,1.87,3.25-127.63,75.87-125.93,78.82,0.51,0.88,41.08-25.08,41.67-24.06,0.74,1.28-40.71,27.89-40.07,29,0.43,0.74,37.71-22.87,38.18-22,0.61,1.06-34.35,24.8-33.91,25.54s27.46-17,28-16.14c0.59,1-33.62,23.82-33.09,24.74,0.36,0.62,35-21.34,35.46-20.47s-33.71,23.75-33.17,24.68c0.39,0.68,30.55-18.78,31-17.92s-29.31,21.18-28.89,21.91,28.55-17.52,29-16.74-31.31,22.58-30.77,23.52,34.19-20.74,34.62-20c0.6,1-33.19,24-32.73,24.77,0.56,1,35.65-21.71,36.14-20.86,0.66,1.14-35.71,25.52-35.22,26.36s37.88-23.27,38.49-22.22-41.45,28.79-40.88,29.78c0.72,1.24,44.9-27.19,45.45-26.24,0.65,1.12-50,33-49.31,34.23s48.23-29.37,48.89-28.23c0.79,1.37-48.82,32.13-48.16,33.26s52.64-32.51,53.56-30.92c0.55,1-38.2,26.66-37.62,27.67,0.75,1.3,49.94-30.27,50.56-29.19s-42.7,28.39-42,29.59c0.89,1.55,48.08-29.56,48.86-28.21,0.58,1-40.86,27.7-40.18,28.87,3.3,5.72,201.53-123,204.42-118,2.36,4.09-196.71,112.38-193.71,117.57,3.21,5.56,207.32-127.16,210.55-121.56,2.46,4.26-199.85,114.22-196.82,119.46,2.41,4.17,198.89-122.42,202.18-116.73,2.69,4.67-195.78,112.82-193.09,117.48,2.92,5.05,199.74-122.82,203-117.2,2.55,4.42-200.19,114.56-197.41,119.37,2.54,4.4,151.16-91.8,153.12-88.4s-149.11,87.09-147.25,90.31c1.61,2.8,137.9-83.81,139.71-80.66,2,3.49-125.82,74.48-124,77.56,1.65,2.86,127.18-77.65,129-74.48s-117.78,70.4-116.36,72.86,106.35-65.57,108.16-62.44c1.47,2.54-108,64.25-106.38,67,1.44,2.49,108.25-65.69,109.63-63.3s-93.74,57.32-92.41,59.62c1.53,2.65,94.06-57.84,95.59-55.19s-89.56,55.51-88.47,57.4c1.45,2.5,83.64-51.24,84.92-49s-78.14,48-76.95,50c1,1.7,79-47.77,79.94-46.15s-70.56,44-69.39,46c0.94,1.63,73.26-44.29,74.13-42.8s-62.72,39.16-61.66,41,65.8-40.29,66.8-38.56c0.76,1.31-59.86,37.94-58.88,39.63s65.39-39.56,66.17-38.2c1,1.66-55.93,36.62-55.21,37.86s53.13-32.36,53.86-31.1c0.6,1-43.25,29.57-42.63,30.66s50.91-31.31,51.74-29.87c0.63,1.08-44.78,30.77-44.16,31.83,0.73,1.26,51.17-31.3,51.94-30,0.52,0.9-35.61,25.55-35,26.56,4.22,7.3,278.28-169.24,282-162.81,4,6.88-277.38,155.08-272.87,162.9,4,6.93,266.51-164.91,271.29-156.63,4.23,7.33-264.39,151.56-261.29,156.92,3.9,6.76,265-161,268.42-155,4.07,7-261.71,147-257.24,154.7,3.5,6.06,248-153.23,252.32-145.68,4,6.87-244.51,139.47-241,145.48,2.23,3.86,154-93.07,155.81-90,2.38,4.12-153.92,90-151.76,93.7s142.4-87.64,144.75-83.57c1.56,2.7-131.16,76.53-129,80.24,1.85,3.2,121.57-74.6,123.48-71.29,1.6,2.77-116.3,68.83-114.57,71.83,1.58,2.73,110.81-68.07,112.58-65,1.38,2.39-102.62,60.66-100.92,63.6s103.46-63.14,104.93-60.58c1.69,2.92-100,60.95-98.76,63,1.46,2.54,94.2-57.92,95.73-55.27,1,1.81-83,50.7-81.63,53.08,1.28,2.21,82.44-50.64,83.76-48.36,1,1.66-73.85,45.89-72.88,47.56,1.09,1.88,75-46,76.14-44,1.06,1.84-66.35,42-65.21,44s65.6-40.63,66.79-38.56c1,1.75-59.26,38.1-58.25,39.85s59.86-37.07,61-35.19c0.64,1.1-51.33,33.42-50.42,35s55.38-33.9,56.22-32.46-44.93,30.39-44.18,31.69,46.78-29.13,47.7-27.54c0.56,1-44.76,29.81-44.17,30.84,0.8,1.39,55.77-33.89,56.51-32.62s-45.86,30.37-45.14,31.62c0.63,1.09,52.69-32.13,53.43-30.85,0.56,1-46.35,30.55-45.63,31.8,1.27,2.19,102.86-63.08,104.46-60.31,1.2,2.07-93.59,57.69-92.48,59.63,1.21,2.09,94.15-57.47,95.5-55.14,1.17,2-87.48,53.22-86.26,55.34,1.39,2.41,79.47-49.11,80.87-46.69,1,1.73-72,44.88-70.79,47,0.91,1.58,71.86-43.76,72.84-42.06s-65.47,41.87-64.54,43.49,62.57-37.92,63.35-36.57-49.57,32.66-48.69,34.18c0.69,1.19,53.41-32.61,54.18-31.28,0.53,0.92-43.23,29.58-42.48,30.88s40.56-24.77,41.15-23.76c0.43,0.75-30,22.29-29.48,23.26,0.42,0.73,27.15-16.54,27.53-15.89s-17.07,14.8-16.73,15.39,21.23-12.83,21.47-12.4-18.05,15.14-17.76,15.64c0.16,0.28,14.57-8.8,14.74-8.51s-2.5,6.55-2.41,6.71,2.58-1.54,2.6-1.5" transform="translate(-3568.34 -1617.03)"/><path class="cls-1" d="M4267.1,1927.22c1.84,3.19,149.68-90.64,151.51-87.48s-145.93,85.15-143.82,88.8c2.41,4.17,138-85.1,140.35-81,2,3.44-130.2,76.11-128.12,79.71,1.8,3.11,132.19-80.07,133.81-77.26s-132.32,77.18-130.36,80.59S4421,1851,4422.84,1854.13c1.52,2.63-125.91,73.4-123.79,77.07,2,3.45,120.59-73.25,122.16-70.53s-123.84,72.28-121.8,75.81c1.85,3.2,121.63-74.54,123.5-71.3,1.56,2.7-113.33,66.4-111.48,69.62,1.68,2.91,102.38-62.93,104-60.06s-102.83,62.13-101.51,64.42c1.64,2.84,107.24-65.06,108.6-62.7,1.73,3-112.94,66.29-111.14,69.42,1.65,2.86,110.16-66.79,111.54-64.4,1.57,2.72-109.58,65.29-107.76,68.44s105.43-63.86,106.73-61.62c1.78,3.08-102.06,61.14-100.33,64.14s91.53-56.71,93.21-53.81c1.23,2.13-95.6,58.18-94.32,60.4,1.65,2.86,93-56.36,94.12-54.34s-89.37,54.27-88.11,56.45c1.15,2,89.31-54.81,90.72-52.37,1.13,2-92.05,56.41-90.72,58.72s90.13-55.77,91.75-53-99.15,59.33-97.7,61.84c1.56,2.7,92.34-57.14,94-54.27,1.15,2-96.15,57.56-94.78,59.94s97.63-59.2,98.86-57.07c1.69,2.93-104.72,62.47-103.22,65.07,1.18,2,101.77-61.54,103-59.45,1.47,2.54-109.3,64.67-107.39,68,1.77,3.06,107.35-65.28,108.78-62.81" transform="translate(-3568.34 -1617.03)"/><path class="cls-1" d="M4266.49,1621.94s1.48-.9,1.5-0.87-2.31,6.63-2.22,6.8,9.12-5.61,9.27-5.35-12,12-11.7,12.42,23.58-14.4,23.92-13.81-23.45,18.76-23,19.54,36.85-22.51,37.38-21.58c0.43,0.74-34.61,24.47-34,25.57s39.39-24.12,40-23.09-37.65,26.25-37,27.4c0.84,1.45,50.64-31.08,51.44-29.7s-52.75,34.49-51.8,36.13,57.69-35.81,58.77-33.93-61.35,38.8-60.41,40.42,74.17-44.83,75-43.33c1.15,2-80.75,49.7-79.42,52s83.52-51.18,84.8-49-84.9,52.21-83.83,54.06c1.61,2.79,93.73-57,95-54.85,1.5,2.59-98,59.33-96.5,62,1.44,2.5,99.67-61.17,101.24-58.45,1.41,2.44-97.5,59.59-96.33,61.61,1.48,2.57,95.88-58.87,97.4-56.23s-97.71,59.28-96.23,61.84c1.2,2.08,102.07-62.93,103.8-59.93s-105.31,62.85-103.79,65.48c1.41,2.45,98.52-59.81,99.79-57.61s-104.87,62.44-103.33,65.11c1.41,2.43,102.81-63.37,104.55-60.36,1.88,3.26-108.11,64.48-106.48,67.32,1.81,3.14,107.26-65.8,108.94-62.9,1.9,3.3-111.91,66.51-110.08,69.69,1.58,2.74,113.86-69.46,115.47-66.67,1.74,3-116.38,68.18-114.39,71.62,1.84,3.18,113.66-68.87,115.07-66.44,1.3,2.26-111.26,66.11-109.61,69s110.94-67.49,112.43-64.91c1.85,3.21-113.94,68-112.2,71,1.84,3.19,109.45-67.86,111.48-64.36,1.53,2.65-120.2,71.12-118.66,73.77,1.44,2.5,123.39-74.95,125-72.16,1.95,3.37-124.45,74.06-122.91,76.72,1.64,2.84,124.32-75.59,126-72.73,1.86,3.22-130,77.56-128.41,80.39,2.19,3.8,133.16-82,135.37-78.15,2,3.42-129.55,77.5-128,80.13,2.21,3.82,130.54-80.64,132.83-76.69,1.94,3.37-142.23,83.53-140.34,86.82,2,3.44,142.16-87.18,144.37-83.35,2.36,4.1-141.4,82.41-139.24,86.16,2.29,4,146.24-90.36,148.81-85.91s-149.3,87.4-147.35,90.78c2.21,3.82,145-89.61,147.58-85.21,1.88,3.26-151,89-149.19,92.07,2.25,3.9,151.36-93.16,153.86-88.83,2.19,3.79-157.14,91.7-155.27,94.95,2.05,3.56,150.28-91,152.1-87.82,2,3.55-152.76,88.42-150.58,92.21s151.46-92,153.43-88.58c2.49,4.31-155.59,91.22-153.69,94.51,2.19,3.79,151-91.53,152.88-88.27,2.19,3.79-158.81,91.61-156.19,96.14,1.84,3.19,150.48-91.72,152.58-88.09s-150.12,87.78-147.9,91.63c2,3.47,146.82-89,148.65-85.82,2.27,3.93-151.14,87.4-148.61,91.79,1.78,3.08,152.59-92.51,154.5-89.2,2.31,4-156.2,91-154.13,94.56s145.91-88.45,147.73-85.29-152.8,88.85-150.36,93.09c1.86,3.23,150.73-91.33,152.6-88.1,2.12,3.67-157.16,90.87-154.54,95.4,2.2,3.81,153.37-92.76,155.2-89.6,2.16,3.74-157.29,90.91-154.84,95.16s155.15-94.26,157.17-90.74" transform="translate(-3568.34 -1617.03)"/><path class="cls-1" d="M4115.13,1843.64s1.56-.95,1.58-0.91,0.36,4.9.43,5c0.17,0.29,7.1-4.52,7.28-4.21s-8.78,10.3-8.63,10.56c0.34,0.6,17.1-10.63,17.42-10.06s-24.38,19.25-24,19.89,39-23.64,39.51-22.81c0.73,1.27-40.79,28.66-40.28,29.56,0.79,1.38,43.45-26.86,44.22-25.53,0.64,1.1-50.25,32.45-49.37,34,1.06,1.84,64.11-39.21,65.06-37.56" transform="translate(-3568.34 -1617.03)"/><path class="cls-1" d="M3997.17,1929.93c0.3,0.51,18.7-11.49,19-11,0.11,0.19-5,8.72-4.83,9,0.31,0.53,20.95-12.64,21.19-12.23s-10.87,11.33-10.68,11.66c0.41,0.72,29.6-17.85,29.93-17.28s-23.75,18.54-23.33,19.27c2.29,4,149.77-92,152.15-87.85s-144.64,84.84-142.83,88c2.33,4,148.89-91.7,151.37-87.4,1.76,3.05-148.67,86-146.12,90.38s154.29-93.91,156.39-90.29-154.36,90.12-152.26,93.76c2.72,4.71,163.21-100.26,165.82-95.74,2.22,3.85-166.78,97.31-164.55,101.17s164.69-101.47,167.45-96.68c2.89,5-169.57,97-166.73,101.92,2.07,3.59,174.74-106.55,177.19-102.3,3,5.16-176.32,101.05-173.53,105.88,3.19,5.53,186.7-114.32,189.53-109.42,3.2,5.54-194.13,111.6-191.66,115.89,2.88,5,192.36-116.65,194.78-112.45,2.24,3.89-193,110.94-190.16,115.88,3.1,5.38,199.76-122.29,202.78-117.07,2.69,4.65-203.05,114.76-199.66,120.63,6.09,10.55,351.64-215.84,357.19-206.22,4.92,8.52-361,202.78-355.8,211.71,6.15,10.64,350.58-214.39,355.77-205.4,4.77,8.26-360.76,201.68-355.54,210.73,4.81,8.32,357.17-218.65,362.55-209.32,6.15,10.65-376.92,209.07-370.64,219.94,5.87,10.16,358.85-220.48,364.61-210.51,4.75,8.24-373.15,209.31-367.78,218.62,5.07,8.78,363.93-222.17,369.15-213.13,4.66,8.08-383,212.73-376.79,223.5,5.86,10.15,371.52-228.66,377.65-218" transform="translate(-3568.34 -1617.03)"/><path class="cls-1" d="M3736.16,1927.5c2.26,3.92,145.16-89.15,147.47-85.14,2,3.43-136.24,80.9-134.64,83.67,1.79,3.1,142.86-87.6,145.08-83.76,1.83,3.18-143,82.93-140.82,86.72,2.52,4.36,149-91.71,151.43-87.43,1.72,3-143,83.95-141.16,87.07,2,3.4,148-89.76,149.88-86.53,2.43,4.21-150.49,88.23-148.53,91.62,2.1,3.64,142.93-88.21,145.39-83.94,2.33,4-134.86,79.65-133.28,82.38,2.19,3.8,134.63-81.64,136.33-78.71,2,3.47-134.06,78.53-132.09,81.94,2.06,3.57,130.14-79,131.83-76.11,1.93,3.34-133.13,78-131.06,81.57s129.59-79.59,131.66-76-132.14,76.49-129.88,80.4c1.63,2.82,133.32-81.88,135.44-78.2,1.62,2.8-132.89,79.36-131.3,82.1,2.29,4,131.64-81,133.79-77.24,1.93,3.35-135,77.9-132.73,81.92,1.67,2.89,130.32-80.47,132.59-76.55,1.74,3-130.6,77.48-128.84,80.53s133.27-80.72,134.91-77.89c2.14,3.7-137.06,81.37-135.41,84.23,2.3,4,138.84-83.93,140.47-81.1,1.74,3-140.59,82-138.56,85.5,2.25,3.89,133.66-82.23,135.85-78.44,2,3.52-144.1,83.79-142,87.45,2.36,4.08,145.53-88.78,147.59-85.21,2.43,4.22-150.8,88.31-149,91.44,1.95,3.38,150.24-91.3,152.22-87.88,2.14,3.71-156.24,90-153.66,94.5s160.3-98.71,163-94.09c2.35,4.08-170,97.43-167.29,102.15,2.55,4.43,167.09-102.42,169.66-98" transform="translate(-3568.34 -1617.03)"/><path class="cls-1" d="M3571.61,1672.49c0,0.05.86-.57,0.89-0.51s5.2,2.54,5.27,2.65c0.26,0.45,16.42-10,16.64-9.61s-18.23,15.08-17.89,15.67c1.3,2.26,101.45-62.27,103.05-59.5,1.75,3-105.88,62.81-104.29,65.55,1.94,3.36,112.81-69.08,114.52-66.12,1.9,3.29-120.19,71.84-118.56,74.67,1.78,3.08,130.09-78.7,131.65-76,2.14,3.71-127,75.8-125.47,78.44,2.12,3.67,129.27-79.92,131.56-76s-133.4,77.68-131.31,81.31c2,3.42,140.71-86.12,142.83-82.46,2.32,4-148,87-146.21,90,2,3.44,150.27-91.94,152.51-88.05S3572.4,1713.9,3574.2,1717c2,3.4,157.29-95.16,159.17-91.9,2.08,3.6-160,93.08-157.79,96.83,2.65,4.59,148.77-91.91,151.37-87.39,1.84,3.18-151.54,87.31-149.15,91.45s147.37-90.6,149.76-86.46-159.27,93.71-157.35,97c2.51,4.36,158.6-96.92,160.92-92.91,1.9,3.29-159.72,93-157.65,96.61,2.53,4.39,152.42-93,154.59-89.25,2.6,4.5-154.79,90.05-152.55,93.94s155-95.43,157.59-91c2.43,4.21-163.73,94.47-161.33,98.63,2.06,3.58,156.1-94.92,158.17-91.32,2.43,4.2-154,90.37-152,93.81,2.4,4.16,145.4-89.72,147.9-85.39,2.29,4-156.58,91.06-154.57,94.52s152-92.69,154.14-89c2.41,4.17-155.6,90.5-153.15,94.75,2.3,4,154.32-94.24,156.55-90.38,2.66,4.61-155.07,90.8-153.19,94.05,2.56,4.43,149.63-92,152.08-87.8,1.8,3.11-155.49,90.09-152.94,94.51s153-93.77,155.37-89.7-155.66,89-153,93.6c2.3,4,146.88-90.14,149.19-86.14,2.22,3.84-155.44,89.92-152.82,94.46,2.21,3.82,154.91-95.59,157.58-91s-155.18,90.39-153.13,93.94c2.64,4.57,146.73-89.39,148.75-85.88s-153.56,89.48-151.66,92.76c2.37,4.1,151.67-93,154-88.93,1.95,3.37-161,92.4-158.32,97.1,2.43,4.21,155.18-95.08,157.55-91,2,3.42-152.59,89.63-150.65,93,2.33,4,151.9-92.34,153.91-88.86,2.73,4.73-157.88,91.18-155.42,95.44,2.31,4,146.84-90,149.1-86.08,2.49,4.31-156.36,91.13-154.42,94.48,1.85,3.2,160.25-97,162.2-93.65,2.31,4-157.49,91-155.12,95.12,2.07,3.58,145.81-89.75,148.22-85.58,1.8,3.11-151.89,87.89-149.56,91.92,2,3.41,146-90.33,148.64-85.82,2.17,3.75-152.27,87.73-149.74,92.1,1.81,3.14,154.4-93.68,156.36-90.28,2.61,4.53-157.41,92.17-155.22,96,1.91,3.3,146.51-89.67,148.71-85.86,2,3.53-156.82,91-154.56,94.89,1.8,3.11,157-95.73,159.21-91.92s-155.43,90.94-153.44,94.38c2.25,3.9,147.51-91,150-86.63,2.1,3.64-157.24,91.09-154.84,95.23,2.29,4,152.51-92.64,154.5-89.2,2.54,4.41-157.64,91.67-155.21,95.87,1.9,3.3,155.53-94.64,157.63-91,2.53,4.39-155.6,91.34-153.6,94.81,2.29,4,154.61-93.56,156.47-90.34,2.3,4-158.31,93-156.27,96.56,2.46,4.26,151.89-93,154.21-89,2.55,4.42-154.25,89.42-151.84,93.6,1.86,3.22,149.92-92.57,152.52-88.06,2.33,4-158.8,92.14-156.63,95.89,2.46,4.26,155.67-94,157.46-90.91s-159.12,93-156.94,96.8c1.8,3.12,149.78-91.44,151.93-87.72,2.25,3.9-153.33,89.1-150.93,93.26,2.22,3.84,156.32-95.55,158.62-91.58,2.76,4.78-161.13,94.27-159.05,97.88,1.88,3.26,148.16-91.25,150.63-87,1.85,3.21-156.35,92-154.41,95.31,2.55,4.42,154.06-95,156.67-90.45s-155.7,89.41-153.08,93.94c2.19,3.8,152.33-93.22,154.61-89.27,2.05,3.55-152.41,90-150.61,93.15,1.91,3.32,144.5-89.62,147.18-85,1.84,3.19-155.87,91-153.78,94.65,2.19,3.8,168.44-102.85,170.86-98.65,2.62,4.55-170.11,99-168,102.69,3,5.17,175.29-106.46,177.56-102.52,2.65,4.59-183.69,105.74-181.13,110.18,3.2,5.55,189-114.17,191.2-110.39,2.63,4.55-188.16,107.19-185.26,112.21,2.62,4.54,185.07-113.88,188.11-108.61,2.65,4.59-191.87,110.14-189.25,114.69,3.4,5.88,198-120.74,200.77-115.91,3.27,5.66-202.38,115.25-199.12,120.9,2.65,4.59,206.54-125.55,209.27-120.82s-212.2,121.29-209.28,126.35c3.05,5.29,214-132.22,217.75-125.72,3.3,5.72-223.15,125.92-219.31,132.58,3.45,6,226.73-140.07,230.7-133.19,2.94,5.09-234.29,133.63-231.19,139s242.27-147.5,245.57-141.78c4.27,7.4-249.93,140.78-246,147.61,3.84,6.64,245.74-149.55,249.06-143.79s-257.89,145.25-254,151.9c4.2,7.27,263.53-159.57,266.74-154,4.22,7.31-264.27,149.27-260.14,156.43,4.65,8,262-161.27,266.31-153.75,3.67,6.36-268.9,153.08-265.54,158.91,4.31,7.46,278.57-170.47,282.74-163.24,3.44,6-287,161.16-282.32,169.26,4,6.86,287.15-177.3,292.13-168.66,4.4,7.62-300.65,167.79-295.76,176.26,4.29,7.43,294.78-182,299.88-173.14,5.19,9-309.39,172.82-304.14,181.92,2.31,4,139.84-85.83,142-82,1.9,3.29-140.06,81.45-137.86,85.26,1.78,3.08,133.16-82,135.37-78.16,1.79,3.09-137.39,80.74-135.39,84.21,1.61,2.78,128.43-79.41,130.71-75.47,2.19,3.79-129,76.77-127.49,79.46,2,3.39,127.47-77.37,129.1-74.54,2.17,3.76-131.25,77.2-129.36,80.47,2.13,3.69,124.12-75.76,125.9-72.69,1.49,2.59-117.88,71-116.48,73.38,1.83,3.18,114.79-70.1,116.45-67.23,1.76,3.05-108.74,65.17-107.1,68,1.77,3.06,108-66.46,109.76-63.37,1.33,2.3-102.17,61.38-100.85,63.67,1.75,3,100.05-61.22,101.55-58.63,1.18,2.05-86.11,53.51-85.05,55.36,1.38,2.38,92-56.46,93.48-54,1.22,2.12-88.68,53.2-87.21,55.74,1.25,2.17,87.36-53.14,88.53-51.12,1.35,2.34-78.8,48.57-77.8,50.31,1.18,2,76.1-46.88,77.37-44.67,1.11,1.93-70.51,44.45-69.4,46.38,0.85,1.48,71-43.41,72-41.59,0.82,1.43-64.21,40.15-63.11,42,1,1.66,72.71-44.24,73.69-42.55,0.81,1.4-62.25,39.66-61.51,40.95,0.84,1.46,65.74-39.93,66.6-38.45s-54.73,35.35-53.85,36.88c0.7,1.21,57.21-34.71,57.93-33.45,0.94,1.62-55.7,36-54.75,37.63,0.85,1.48,59.53-36.42,60.42-34.88,0.78,1.34-47.18,31.11-46.59,32.13,0.95,1.64,56.33-34.29,57.1-33,0.61,1.05-47.23,31-46.6,32.14,3.62,6.27,243.86-150,247.85-143.1,3.78,6.54-244.62,140.05-241.44,145.55,3.65,6.33,245.24-150.65,249.17-143.86,3.35,5.81-238.66,134.57-235,141,3.49,6,234-143.14,237.49-137.12,3,5.15-237.06,135-233.85,140.6,3.11,5.38,231.41-142.85,235.41-135.92,3.79,6.56-223.7,127.33-220.17,133.44,2.79,4.83,230.19-139.47,233-134.54,3.58,6.21-231.87,133-229.06,137.92s232.66-140.57,235.36-135.89c3.7,6.42-227.33,130-224,135.7s229.3-139.25,232.27-134.1c3.32,5.76-219.57,126.09-216.69,131.08,3.49,6,223.31-135,225.92-130.43,3.05,5.29-223.25,128-220.38,132.94,2.62,4.54,224.46-135.78,227.14-131.14,3.42,5.92-216.83,124-213.67,129.47,2.74,4.75,185.46-113.38,188.19-108.65,3.17,5.49-184.19,106.5-181.9,110.47,2.1,3.64,170.94-104.51,173.46-100.15s-159.82,91.91-157.24,96.39c1.85,3.2,149.59-91.11,151.65-87.55s-144.4,84.79-142.32,88.38c1.7,2.94,138.55-84.55,140.53-81.13,1.67,2.9-137.73,80-135.39,84,1.81,3.14,134-81,135.56-78.26,2,3.49-127.27,75-125.21,78.57,1.7,2.95,123.92-75.6,125.67-72.56,1.53,2.64-110,65.69-108.39,68.54,1.46,2.53,109.69-67.28,111.4-64.32,1.5,2.61-102.77,60.91-101,63.9s100.54-61.84,102.18-59c1.23,2.14-97.66,59.35-96.32,61.67,1.63,2.82,97.23-58.73,98.36-56.79s-88.15,53.83-86.94,55.92c1.52,2.64,85.22-51.62,86.27-49.81s-78.93,48.19-77.74,50.25c1.31,2.28,80.15-48.88,81.28-46.93,0.83,1.44-70.52,43.91-69.39,45.88s73-44.61,74-42.75-64.88,41.59-64,43.08c1.13,2,70.6-42.75,71.46-41.26s-59.88,38.41-58.87,40.17c0.9,1.55,56.29-34.92,57.34-33.1,0.81,1.4-51.26,33.6-50.54,34.85,1,1.68,55.06-34.13,56.07-32.37,0.64,1.1-45.73,30.81-45.16,31.81,0.93,1.6,54.13-33.41,55.07-31.79,0.81,1.4-45.78,29.9-45,31.24s55.32-34,56.2-32.44c0.62,1.07-50.27,33.36-49.44,34.8s61.56-37.78,62.53-36.1c0.66,1.14-53,34.88-52.34,36.07,5.58,9.66,436.85-267.83,443.61-256.12,5.29,9.17-434.72,244.5-429.3,253.9,7.26,12.58,422.71-258.2,428.84-247.59,6.86,11.88-429.43,238.68-422.91,250,5.69,9.86,413.29-252.49,419.3-242.08,5,8.62-415.15,231.07-409.1,241.55,6.45,11.18,403.24-244.07,408.12-235.63,5.5,9.52-406.57,228.82-401.58,237.46s395.55-240.06,400.61-231.29c5.51,9.55-388,218.57-383,227.37,6,10.46,383.8-234.48,389.38-224.81,4.57,7.91-385,212.92-378.62,223.93S4416.25,1815,4422,1824.92c4.7,8.13-377.05,211.53-371.68,220.84,5.86,10.16,366.56-224.49,372.13-214.85,6.14,10.64-368.67,203.85-362.38,214.74,4.3,7.44,348.95-214.56,354.62-204.74,4.44,7.68-347.35,193.11-341.54,203.17,2.75,4.76,166-100.75,168.14-97.08s-166.36,95.85-163.61,100.62c1.87,3.24,155.14-95.54,157.73-91.06,2.05,3.56-147.88,87.57-146.11,90.62,2,3.54,146.33-90.22,148.81-85.92,2.39,4.14-138.61,81.91-136.79,85.07,1.68,2.91,131.76-79.94,133.44-77,1.46,2.52-125.35,73.61-123.62,76.6,2.12,3.67,118.89-72.94,120.76-69.72,1.53,2.66-111.9,66.65-110.41,69.24,1.86,3.22,108.71-66.24,110.22-63.63,1.66,2.87-107.12,63.93-105.32,67s113.7-69.4,115.33-66.58c1.31,2.26-103,61.56-101.29,64.5,1.25,2.16,97.52-59.3,98.81-57.05s-90.19,54.63-89,56.67,92.79-56.61,94.1-54.33c1.41,2.44-81.17,50.94-80.2,52.61,1.06,1.84,84.17-50.84,85.14-49.16s-78.14,48-76.93,50.14,78.31-47.4,79.26-45.76-70.57,43.84-69.62,45.48c1.17,2,72.46-44.28,73.52-42.44s-63.86,40.76-63,42.19,60.1-37.28,61.21-35.34c0.65,1.13-49.86,33.32-49.16,34.53s60.64-36.74,61.39-35.44c0.86,1.49-55.63,35.78-54.75,37.31s59.89-36.65,60.78-35.09c0.64,1.11-48.65,32.33-48,33.48s51.77-31.63,52.52-30.33-48.6,31.65-47.87,32.93,54.73-33.44,55.53-32.06c0.59,1-48.12,31.26-47.27,32.73,2.12,3.67,180.64-110.48,183.32-105.84s-172.67,98.53-169.7,103.68,169.76-103.06,171.95-99.27c2.8,4.85-169.64,98.16-167.36,102.11s160.72-98.23,163.08-94.15-150.56,88.48-148.78,91.56c2.45,4.24,146.3-89.84,148.63-85.81,1.72,3-137.06,80.49-135,84.05s131.36-80.4,133.34-77c1.6,2.76-130.59,77.46-128.8,80.55,2,3.41,130.74-80.33,132.84-76.69s-122.65,73-121.21,75.45c2,3.5,120.37-72.73,121.77-70.3,1.76,3.06-111.8,65.67-109.93,68.92s102.46-62.2,103.78-59.91-98.39,59.07-97.05,61.38c1.69,2.93,99.58-60.91,101.06-58.35s-96.82,57.6-95.21,60.39c1.44,2.49,90.12-55.52,91.63-52.9,1.2,2.08-79.88,49.84-78.77,51.76,1.25,2.17,80.5-48.89,81.55-47.08s-68.25,43.57-67.42,45,71.24-43.43,72.24-41.71-65.92,41.73-64.94,43.43,59.73-36.64,60.67-35c0.84,1.45-48.83,33-48.21,34.12,0.72,1.25,46.53-28.67,47.31-27.31,0.51,0.88-35.32,24.8-34.67,25.92,0.5,0.86,35.65-22,36.25-20.93s-34.28,23.69-33.7,24.69c0.43,0.74,36.81-22.2,37.22-21.49s-24.34,18.51-23.94,19.21c0.3,0.51,18.35-11.28,18.65-10.77s-10.69,11.89-10.52,12.17,7.8-4.81,7.93-4.58" transform="translate(-3568.34 -1617.03)"/><path class="cls-1" d="M3630.42,1621s0.89-.56.91-0.52c0.11,0.19-5.6,8.41-5.48,8.61s16.68-10,16.86-9.73-17.76,14.95-17.52,15.37,21-12.82,21.28-12.29-23.06,18.56-22.62,19.33c0.56,1,35.32-21.91,36-20.77,0.76,1.31-47.91,31.48-47.22,32.68s55.51-33.75,56.25-32.47" transform="translate(-3568.34 -1617.03)"/></svg>