<svg id="Layer_1" data-name="Layer 1" xmlns="http://www.w3.org/2000/svg" xmlns:xlink="http://www.w3.org/1999/xlink" viewBox="0 0 1180.11 682.19"><defs><style>.cls-1,.cls-4,.cls-5,.cls-6,.cls-7,.cls-8,.cls-9{fill:none;}.cls-2{fill:#333;}.cls-3{fill:#231f20;}.cls-4,.cls-5,.cls-6,.cls-9{stroke:#231f20;}.cls-4,.cls-5,.cls-6{stroke-miterlimit:10;}.cls-4{stroke-width:4px;}.cls-5{stroke-width:3px;}.cls-6{stroke-width:1.25px;}.cls-7{stroke:#fff;}.cls-7,.cls-8,.cls-9{stroke-linecap:round;stroke-linejoin:round;stroke-width:1.2px;}.cls-8{stroke:#333;}.cls-10{clip-path:url(#clip-path);}</style><clipPath id="clip-path" transform="translate(-5112.85 -244.99)"><path class="cls-1" d="M5563.47,700l-79.2,40.71s39.66,69.21-9.69,137.19l78.1,26,96-108.53-44.2-117Z"/></clipPath></defs><title>canon</title><path class="cls-2" d="M6147.49,317.71a58.83,58.83,0,0,0,8.53,25.89,17.59,17.59,0,0,0-.28,2.41,2.41,2.41,0,0,0,3.4,2.16,57.83,57.83,0,0,0,12.7,12.35,3.49,3.49,0,0,0,3.51,2.29c0.33,0.2.65,0.41,1,.61,14.39,8.34,34.33,11.95,51.5,10.51a69.84,69.84,0,0,0,33.91-12.57,3.06,3.06,0,0,0,2.09-1.51h0c14.56-10.11,24.71-25,28.06-41.45,4.54-22.29-5.78-45.32-24.24-59.29-17.94-13.58-44.63-17.73-67.29-10.82l-2,.64c-1.62-.5-3.53,0-4.12,1.51A78.3,78.3,0,0,0,6156,282.59a3,3,0,0,0-2.77,5.09c-0.39.79-.77,1.59-1.13,2.4a56.12,56.12,0,0,0-4.81,23A3.13,3.13,0,0,0,6147.49,317.71Zm7.66,5.58c0-.06.1-0.11,0.15-0.17a15.36,15.36,0,0,1,1-1.25l-0.71,3.16Q6155.32,324.16,6155.15,323.29Zm20.26,6.4,0.06-.13,0,0.07Zm-11.84,13.17c0.91-1.27,1.79-2.57,2.65-3.88q-1,2.44-1.91,4.89C6164,343.53,6163.8,343.19,6163.56,342.85Zm5.93-17.76c0.1-.25.2-0.5,0.29-0.75l0.48,0.25A6.53,6.53,0,0,0,6169.49,325.09Zm-10,3.9,1.79-8c0.83,0.27,1.66.53,2.49,0.83l0.06,0C6162.76,323.77,6161,326.7,6159.53,329Zm84.08,28.58-0.51.7a20.47,20.47,0,0,0,.67-3.81l1.58,0.65C6244.77,355.89,6244.23,356.73,6243.61,357.58Zm-12.71-1.44q-0.83,2.19-1.53,4.41l-0.06.15q-2.14,2.12-4.16,4.33c0.16-.29.32-0.57,0.49-0.82,1.1-1.72,3.1-6.24,5.4-9Q6231,355.69,6230.91,356.13Zm7-4.44,1,0.48-1.4,1.13C6237.61,352.77,6237.75,352.23,6237.87,351.69Zm-8.85-.8c0.31-.58.6-1.17,0.91-1.75a12.11,12.11,0,0,1,1.34.18A7,7,0,0,0,6229,350.89Zm-7.71,3.47a1.78,1.78,0,0,0-.32-1,23,23,0,0,1,2-1.79Zm-12.27,12a1.78,1.78,0,0,0,.41.94l-1.13-.17Zm23.89,0.67-0.27,0a44.25,44.25,0,0,0,1.86-5.06q1.62-1.54,3.32-3c-0.07.18-.12,0.36-0.19,0.54-0.68,1.75-2.23,3.27-2.63,5.1a5.05,5.05,0,0,0-.08,2C6234.26,366.7,6233.59,366.86,6232.92,367Zm32.46-57.42-0.27.33c0.13-.22.27-0.44,0.42-0.66Zm20,5.2,0.37-.74c0,0.26-.05.52-0.08,0.78Zm-13.77-5.5c-0.77,1.06-1.54,2.13-2.29,3.21l0.35-.83Zm4.29,20.37q-0.63,1.43-1.22,2.89l-0.56-.66Q6275,330.77,6275.86,329.65Zm6-.83-0.5.14q0.94-2,2-4Q6282.66,326.91,6281.84,328.81Zm4.1-18.06a2.57,2.57,0,0,0-1.11-.68l1.14-1.92C6286,309,6286,309.89,6285.95,310.75Zm-0.39-9.09a2.85,2.85,0,0,0-1.24.54l-0.24.19a6,6,0,0,0-.89-1.12,2.5,2.5,0,0,0-.67-0.46,40.85,40.85,0,0,0,2.14-4.32Q6285.23,299,6285.56,301.66Zm-15,1.59-0.17,0,0.69-.58Zm-4.18,4a1.85,1.85,0,0,0-.1-0.53l0.62-.57C6266.75,306.54,6266.57,306.9,6266.4,307.27Zm-10-47.6a5.43,5.43,0,0,0-4.2,1.74l1.19-3.28C6254.43,258.62,6255.43,259.14,6256.42,259.67Zm6.9,4.28-0.24.22,0-.38Zm-23.64-6.51a2.34,2.34,0,0,0,1.24.07c-0.47.89-.93,1.8-1.38,2.69C6239.61,259.28,6239.66,258.36,6239.69,257.43Zm9.24-1.23c-0.4.41-.8,0.83-1.18,1.25l0.66-1.45Zm-6.15-1.82a1.83,1.83,0,0,0-.21-0.32l0.36,0.1Zm-4.38,15.78a3.88,3.88,0,0,0,1.46,1.4,5,5,0,0,1-2.35-.49C6237.82,270.77,6238.11,270.47,6238.39,270.16Zm5.29,0.4c0.18-.3.38-0.58,0.56-0.87a4,4,0,0,0-.06,1.22l-0.86.15A3.43,3.43,0,0,0,6243.68,270.55Zm15.93-9.06a3,3,0,0,0-.43.24l0,0a1.91,1.91,0,0,0-.31-0.73ZM6174.1,281c-0.64-1.58-.68-3.45-1.21-5.17,0.58-.57,1.17-1.13,1.82-1.67C6174.79,276,6175.12,279,6174.1,281Zm17.43-11.4c0-1-.05-2.08-0.05-3.13a18.18,18.18,0,0,1,.28,2.4C6191.69,269.09,6191.6,269.33,6191.53,269.58Zm-5.61-6.93q-0.25-.46-0.51-0.89l0.5-.31Q6185.92,262,6185.92,262.65Zm-5.68,4.42c-0.17-.47-0.34-0.93-0.52-1.4l0.41-.3C6180.16,265.93,6180.2,266.5,6180.24,267.06Zm-1.39,14.75c0.06,0.41.1,0.83,0.15,1.25l-0.8.08A9.88,9.88,0,0,0,6178.85,281.82Zm-19.15,7.53a85.66,85.66,0,0,0,15.31.2c4.64-.34,13.4-0.73,16.71-4.35,3.72-4.06,5.38-10.28,6.72-15.27a68,68,0,0,0,2.31-15.33,70.2,70.2,0,0,1,16.44-3.17l9,15.56c1.94,3.35,4,9,8.58,10.17,5.06,1.34,10.09-.18,15.15-1.22l21.78-4.48a54.62,54.62,0,0,1,9,13.61l-15.65,14.54c-4.34,4-8.58,7.59-9.8,13.27-1,4.43,1.84,8.87,4.56,12.43-0.16.59-.33,1.18-0.48,1.78-0.45,1.74,2.05,2.95,3.59,2.08,3.55,4.31,7.27,8.51,10.91,12.76a64.09,64.09,0,0,1-4.48,5,3.68,3.68,0,0,0-1.77,1.07,59.63,59.63,0,0,1-6.76,6.21l-0.42.3-16.09-6.66c-4.95-2-11.33-5.9-17.18-4.81-5.48,1-9.12,4.35-12.69,8.12-4.56,4.79-9,9.63-13.56,14.45-3.51-.83-6.95-1.82-10.29-2.89a53.84,53.84,0,0,1-11.22-5.09c3.48-10,5.79-22.22,1.93-31.74-1.78-4.4-7.95-6.76-12.18-8.68a60.81,60.81,0,0,0-15.15-4.41c0-.2,0-0.4,0-0.6A51.85,51.85,0,0,1,6159.71,289.35Z" transform="translate(-5112.85 -244.99)"/><path class="cls-2" d="M6194.07,324.9L6219.58,338a3.85,3.85,0,0,0,4.87-1.21c7.15-.8,11.62-6.38,15.53-11.48,4.35-5.69,11.85-12,9.71-19.3A48.17,48.17,0,0,0,6239,287.81c-4.85-5.41-10.52-7.35-18.26-6.86a102.12,102.12,0,0,0-11.37,1.82c-3.47.62-8.08,0.8-10.95,3s-3.87,6.31-5,9.44c-1.43,3.94-2.58,7.94-3.64,12-0.84,3.17-2.88,8.08-2,11.31S6190.87,323.25,6194.07,324.9Zm40.31-5.85c-2.52,2.36-5.08,4.67-7.67,7a139.53,139.53,0,0,1,12.15-11.65c3-2.48,1.93-1.41.68-.21C6237.85,315.8,6236.12,317.43,6234.38,319ZM6231,298.91L6221.54,309l-1,1q1.32-1.93,2.6-3.88l9.06-9.72C6231.87,297.19,6231.45,298.05,6231,298.91Zm-8,31a2,2,0,0,0,0,.92l-0.35,0a4,4,0,0,0-.73.12Zm15.6-20.72a19.21,19.21,0,0,0-2.09,1.35c0.58-.64,1.18-1.27,1.78-1.9Zm-0.15-11,0.06-.13,0.05,0.09Zm-37.16,22.06c0.31-.33.61-0.68,0.92-1a16.52,16.52,0,0,0-.27,2.18,2.45,2.45,0,0,0,0,.47l-1.78-.92A2.76,2.76,0,0,0,6201.32,320.17Zm12.74,7.84,1.12-1-0.66,1.21L6214,328h0Zm-18.92-10.52a2.17,2.17,0,0,0,1.29-1l0.28-.42a2,2,0,0,0,.7,1.36c-0.1.25-.21,0.49-0.31,0.74a2.22,2.22,0,0,0-.16,1A4.23,4.23,0,0,1,6195.15,317.48Zm8-27.27c0.11-.06.25-0.11,0.38-0.17l-3.51,6.26C6200.64,294.22,6201.42,291.18,6203.16,290.22Z" transform="translate(-5112.85 -244.99)"/><path class="cls-2" d="M6081.68,483.57c44-26.56,92.24-46.8,131.07-81.24,2.61-2.31-.14-5-2.75-2.85a413.61,413.61,0,0,1-63,43.83c-22.19,12.62-44.73,24.51-66.09,38.51-1.18.78-.72,2.62,0.73,1.74h0Z" transform="translate(-5112.85 -244.99)"/><path class="cls-2" d="M6038.2,426.92q20.7-14.24,41.35-28.56c13.72-9.52,27.23-19.47,41.56-28.05l-2.18-3.34c-2.17,1.77-4.25,3.65-6.34,5.51-2.67,2.38.16,5.23,2.83,2.93,2.12-1.83,4.25-3.65,6.29-5.57,2.59-2.43-.12-5-2.77-2.87-13.16,10.6-27.33,20-41.14,29.68q-20.2,14.21-40.33,28.51c-1.16.82-.68,2.74,0.74,1.76h0Z" transform="translate(-5112.85 -244.99)"/><path class="cls-2" d="M6045.55,344.66a385.77,385.77,0,0,0,67.25-26.07c1.5-.74,1.82-3.76-0.22-2.76a494.33,494.33,0,0,1-67.19,26.77c-1.24.4-1.47,2.52,0.16,2.06h0Z" transform="translate(-5112.85 -244.99)"/><path class="cls-3" d="M5815.21,411c2.34-5.49,13-3.56,17.69-2.83a65.53,65.53,0,0,1,16.84,5.08,81.29,81.29,0,0,1,27,20.43c15.3,17.26,27,41,28.88,64.13,2,24-10.63,53.5-39.26,48.52-22.69-3.95-39.57-23.76-47.57-44.28-5-12.91-7.26-26.75-8.08-40.53a163.59,163.59,0,0,1-.16-19.76,74.89,74.89,0,0,1,1.61-11.9c0.26-1.15.54-2.3,0.87-3.43,0.42-1.41,3.72-11.46,7.45-6,1.09,1.58,3.69.08,2.59-1.51a5.82,5.82,0,0,0-8.4-1.48c-4.71,3.31-5.61,11.73-6.37,16.88-2.16,14.66-1.07,30.3,1.3,44.88,4.28,26.36,17.41,53.45,42.52,65.58,11.14,5.38,25,7.64,36.29,1.35S5906,526.9,5908,514.67c4.56-27.2-8.33-56.59-24.7-77.73-9-11.57-20.37-21.33-33.93-27.06a65.84,65.84,0,0,0-22.6-5.29c-4.92-.22-11.89-0.44-14.18,4.93-0.75,1.76,1.83,3.29,2.59,1.51h0Z" transform="translate(-5112.85 -244.99)"/><path class="cls-4" d="M5812.15,424.37s-80.25,60.34-141.37,72.3L5212.37,677.38s-58.46,6.2-58.46,87.47c0,0,19.93,85.26,74.41,85.26s368.06-167.42,368.06-167.42l210.51-111.63,79.47-25.51" transform="translate(-5112.85 -244.99)"/><path class="cls-5" d="M5153.91,764.85s-54.54.77-35.54,57.77,67.63,6.71,67.63,6.71" transform="translate(-5112.85 -244.99)"/><ellipse class="cls-6" cx="5858.16" cy="477.24" rx="29.17" ry="46.81" transform="translate(-4903.49 1856.1) rotate(-20.7)"/><polyline class="cls-7" points="336.08 558 337.49 557.18 336.44 559.71 338.73 558.38"/><polyline class="cls-8" points="200.75 473.73 263.71 437.38 212.03 469.39 266.49 437.94 219.27 467.4 269.18 438.59 224.7 466.27 271.63 439.18 229.41 465.63 274.09 439.83 233.82 465.21 276.49 440.58 238.26 465.01 279.15 441.41 241.76 464.97 281.34 442.12 245.02 465.1 283.43 442.93 249.17 465.36 286.19 443.99 252.23 465.74 288.41 444.85 254.69 466.03 290.06 445.61 257.47 466.53 292.09 446.55 260.48 467.15 294.35 447.59 263.06 467.69 296.25 448.53 265.95 468.53 298.5 449.75 269.13 469.45 300.96 451.08 271.83 470.4 303.15 452.32 274.67 471.47 305.39 453.74 276.53 472.17 306.86 454.66 278.75 473.2 308.77 455.87 281.28 474.39 310.85 457.32 282.97 475.18 312.21 458.3 285.32 476.48 314.25 459.78 287.35 477.64 316.01 461.09 289.15 478.66 317.49 462.31 291.13 479.95 319.22 463.73 292.61 480.95 320.54 464.82 294.33 482.11 322.05 466.1 295.66 483.02 323.16 467.14 297.58 484.55 324.9 468.77 299.55 486.11 326.68 470.45 300.98 487.24 327.93 471.68 302.61 488.73 329.39 473.26 303.96 489.98 330.62 474.58 305.45 491.36 331.97 476.05 307.1 492.99 333.53 477.73 308.68 494.71 335.01 479.51 309.92 496.06 336.13 480.93 311.55 497.84 337.61 482.79 312.6 499.13 338.64 484.1 313.74 500.6 339.8 485.55 314.82 502.01 340.79 487.02 315.91 503.41 341.78 488.48 317.17 505.16 342.98 490.25 318.43 507.11 344.28 492.18 319.53 508.82 345.39 493.89 320.51 510.35 346.29 495.47 321.58 512.17 347.33 497.3 322.56 514.03 348.37 499.13 323.56 515.92 349.42 500.99 324.48 517.64 350.31 502.73 325.19 519.16 351.03 504.25 326.03 521.16 351.94 506.2 326.97 523.38 352.97 508.37 327.57 524.8 353.62 509.77 328.33 526.87 354.45 511.79 329.05 529.09 355.28 513.94 329.7 531.09 356.03 515.88 330.42 533.32 356.85 518.06 330.84 535.08 357.38 519.76 331.29 537.08 357.97 521.67 331.69 538.83 358.5 523.35 332.16 540.9 359.12 525.34 332.56 543.42 359.71 527.74 332.9 545.89 360.27 530.09 333.11 547.43 360.62 531.54 333.39 549.48 361.08 533.48 333.5 551.28 361.38 535.19 333.58 553.05 361.66 536.84 333.69 555.55 362.05 539.17 333.81 558.06 362.45 541.52 333.72 560.77 362.72 544.03 333.65 562.48 362.88 545.6 333.55 565.1 363.12 548.03 333.29 567.8 363.33 550.46 333.07 569.64 363.39 552.14 332.79 571.89 363.46 554.18 332.31 574.89 363.55 556.85 331.91 576.87 363.59 558.58 331.38 579.46 363.51 560.91 330.64 582.41 363.43 563.48 329.95 584.79 363.36 565.5 329.1 587.72 363.19 568.04 328.18 590.22 362.98 570.13 326.95 593.47 362.7 572.83 326 595.73 362.52 574.64 324.36 599.23 362.07 577.46 322.59 602.69 361.61 580.17 320.83 605.79 361.21 582.47 319.03 608.75 360.74 584.66 316.78 612.07 360.18 587.02 313.6 616.3 359.51 589.79 309.5 621.14 358.69 592.74 306.14 624.71 358.07 594.73 301.32 629.14 357.45 596.73"/><polyline class="cls-8" points="171.94 455.98 186.3 447.69 160.69 464.4 198.98 442.29 154.44 470.13 207.18 439.67 150.47 474.19 212.52 438.36 146.03 479.19 219.01 437.05 142.01 484.2 225.34 436.09 139.3 487.94 229.92 435.63 137.38 490.77 233.33 435.37 135.64 493.54 236.57 435.26 133.65 496.78 240.42 435.14 131.91 499.98 244.01 435.26 130.51 502.55 246.9 435.36 129.41 504.84 249.52 435.49 127.7 508.55 253.53 435.9 126.5 511.27 256.53 436.2 125.52 513.83 259.24 436.62 124.41 516.73 262.26 437.14 123.5 519.37 181.44 485.91 122.81 521.59 175.55 491.14 122.14 523.76 171.61 495.19 121.26 526.86 167.23 500.31 120.65 529.4 164.26 504.22 120.13 531.58 162.17 507.31 119.63 533.7 160.33 510.2 119.31 535.61 158.88 512.76 118.86 538.28 156.96 516.28 118.45 540.65 155.58 519.22 118.1 543.42 154.02 522.68 117.83 546.09 152.81 525.89 117.61 548.26 151.82 528.5 117.43 550.39 151.09 530.96 117.36 552.36 150.41 533.27 117.27 555.09 149.54 536.46 117.19 557.51 148.99 539.15 117.21 559.88 148.44 541.85 117.28 561.79 148.06 544.01 117.34 563.75 147.8 546.16 117.41 565.62 147.55 548.22 117.57 568 147.24 550.87 117.81 570.4 147.14 553.47 118.03 572.57 147.04 555.82 118.23 574.53 146.96 557.94 118.46 576.09 147 559.62 118.83 578.3 147.1 561.99 119.25 580.76 147.22 564.62 119.62 582.91 147.33 566.91 120.14 585.16 147.65 569.28 120.52 586.77 147.88 570.97 121.03 588.88 148.18 573.21 121.61 591.26 148.57 575.7 122.26 593.35 149.06 577.87 122.91 595.45 149.56 580.06 123.43 597.11 149.96 581.8 124.06 599.09 150.49 583.84 124.76 600.9 151.09 585.7 125.41 602.59 151.65 587.44 126.24 604.75 152.37 589.66 126.99 606.63 153.05 591.58 127.92 608.6 153.9 593.59 128.93 610.76 154.83 595.8 129.57 612.13 155.43 597.2 130.45 613.98 156.28 599.07 131.43 615.89 157.29 600.96 132.28 617.38 158.09 602.47 133.15 618.91 158.92 604.04 134.33 620.99 160.09 606.12 135.03 622.22 160.86 607.31 135.76 623.46 161.64 608.52 136.65 624.79 162.5 609.86 137.99 626.76 163.79 611.86 138.89 628.1 164.75 613.17 140.13 629.94 166.12 614.94 141.33 631.63 167.39 616.58 142.28 632.82 168.32 617.79 143.19 633.97 169.25 618.92 144.55 635.68 170.75 620.56 146.05 637.57 172.4 622.35 147.11 638.85 173.54 623.59 148.53 640.39 175.03 625.09 150.11 642.09 176.77 626.7 151.62 643.72 178.43 628.24 152.74 644.93 179.68 629.39 154.18 646.36 181.32 630.69 155.37 647.47 182.63 631.73 156.71 648.73 184.12 632.91 158.31 650.23 185.95 634.27 159.68 651.44 187.54 635.35 161.17 652.67 189.21 636.48 162.9 654.1 191.15 637.79 164.51 655.43 193.12 638.91 165.81 656.43 194.65 639.78 167.26 657.47 196.29 640.71 169.35 658.98 198.78 641.99 170.98 660.16 200.8 642.94 172.39 661.1 202.48 643.73 173.87 662.03 204.2 644.52 175.7 663.18 206.51 645.39 177.99 664.63 209.41 646.49 179.81 665.63 211.63 647.26 182 666.82 214.46 648.08 184.14 667.98 217.23 648.88 186.08 668.96 219.84 649.47 188.46 670.06 223.01 650.12 190.24 670.88 225.38 650.59 192.31 671.84 228.46 650.96 194.63 672.74 231.67 651.36 196.93 673.63 235.12 651.58 199.47 674.6 239.06 651.74 202.28 675.51 243.6 651.65 204.69 676.26 247.64 651.47 207.19 677.04 252.41 650.93 210.04 677.75 257.89 650.13 213.13 678.49 265.12 648.48 216.17 679.17 275.74 644.78 218.63 679.59 356.31 600.1 220.9 679.98 355.46 602.28 223.37 680.4 354.55 604.66 225.77 680.66 353.69 606.81 228.88 680.98 352.36 609.69 232.94 681.32 350.66 613.36 236.94 681.46 348.75 616.9 241.12 681.55 346.77 620.55 245.71 681.39 344.3 624.47 250.68 681.1 341.55 628.64 254.66 680.69 339.2 631.89 260.85 679.81 335.3 636.82 266.68 678.72 331.36 641.37 272.03 677.44 327.67 645.31 281.96 674.34 319.9 652.44 294.46 669.01 308.81 660.73"/><polyline class="cls-9" points="252.81 681.11 253.05 680.97 256.15 681.35 257.91 680.33 259.68 681.51 263.18 679.49 263.01 681.59 268.62 678.35 266.77 681.49 275.37 676.53 270.69 681.36 284.25 673.53 275.47 680.97 363.82 629.96 279.64 680.54 361.36 633.36 284.46 679.77 358.25 637.17 291.52 678.35 353.44 642.6 298.25 676.6 348.4 647.65 304.94 674.46 343.31 652.3 317.67 669.04 332.02 660.75"/><polyline class="cls-9" points="252.76 435.7 252.96 435.58 255.47 436.05 256.75 435.31 258.45 436.45 260.66 435.18 260.95 436.77 263.83 435.11 264.08 437.41 267.82 435.25 267.5 438.12 272.2 435.41 270.27 438.7 275.41 435.74 272.25 439.27 277.94 435.99 274.29 439.86 280.52 436.27 276.7 440.56 283.32 436.74 279.23 441.3 286.25 437.24 281.08 441.99 288.6 437.65 282.82 442.64 290.62 438.14 285.68 443.71 293.95 438.94 287.82 444.52 296.44 439.54 289.73 445.39 298.67 440.23 291.91 446.39 301.21 441.02 293.95 447.33 303.59 441.76 295.71 448.14 305.53 442.48 297.3 449 307.37 443.19 299.6 450.27 310.07 444.22 301.54 451.34 312.29 445.13 303.2 452.26 314.1 445.97 304.74 453.2 315.86 446.78 306.14 454.12 317.51 447.55 308.1 455.39 319.76 448.67 309.85 456.53 321.67 449.7 311.88 457.92 323.96 450.94 313.76 459.34 326.17 452.18 315.29 460.5 327.86 453.25 316.8 461.65 329.54 454.3 318.25 462.75 331.14 455.31 320.1 464.36 333.29 456.74 321.73 465.8 335.12 458.06 323.36 467.23 336.95 459.39 324.7 468.41 338.45 460.47 325.98 469.66 339.9 461.63 327.18 470.88 341.27 462.75 328.73 472.46 343.03 464.2 330.33 474.08 344.84 465.7 331.73 475.57 346.37 467.12 332.92 476.95 347.73 468.4 333.88 478.09 348.85 469.45 335.27 479.72 350.45 470.95 336.81 481.53 352.11 472.7 338.06 483.17 353.53 474.24 339.38 484.96 355.07 475.9 340.32 486.25 356.17 477.09 341.56 487.94 357.58 478.69 342.9 489.87 359.06 480.55 344.03 491.68 360.39 482.23 345.18 493.5 361.75 483.94 346.08 494.94 362.81 485.28 347.16 496.66 363.98 486.95 348.06 498.35 365.05 488.54 348.9 499.93 366.06 490.03 349.98 501.95 367.34 491.93 350.92 503.72 368.45 493.6 351.86 505.68 369.52 495.48 352.82 507.87 370.69 497.55 353.44 509.26 371.44 498.86 354.26 511.14 372.45 500.64 355.12 513.12 373.45 502.54 355.7 514.76 374.18 504.09 356.3 516.46 374.93 505.7 357.11 518.74 375.95 507.87 357.59 520.1 376.56 509.15 358.08 521.48 377.16 510.46 358.51 523.07 377.74 511.97 359.16 525.44 378.61 514.21 359.6 527.05 379.19 515.74 360.2 529.26 380 517.83 360.69 531.36 380.63 519.85 360.99 532.93 381.09 521.32 361.28 534.43 381.53 522.74 361.71 536.68 382.19 524.86 362.19 539.15 382.81 527.25 362.42 540.92 383.21 528.91 362.67 543.13 383.71 530.98 362.95 545.58 384.26 533.28 363.22 547.92 384.66 535.55 363.36 549.71 384.95 537.25 363.44 551.91 385.3 539.3 363.51 553.68 385.57 540.94 363.58 555.66 385.81 542.83 363.68 558.04 386.05 545.13 363.62 560.07 386.24 547.01 363.54 562.21 386.44 548.99 363.45 564.69 386.58 551.33 363.36 567 386.66 553.55 363.22 568.83 386.71 555.26 362.98 570.85 386.78 557.11 362.65 573.75 386.77 559.83 362.39 576.02 386.69 561.99 362.12 577.94 386.63 563.78 361.73 579.95 386.57 565.6 361.25 582.43 386.42 567.9 360.65 585.54 386.12 570.84 360.06 587.93 385.9 573.01 359.27 590.84 385.6 575.64 358.5 593.69 385.14 578.31 357.72 596.24 384.75 580.63 356.62 599.35 384.27 583.39 355.8 601.67 383.75 585.53 354.77 604.41 383.16 588.02 353.45 607.42 382.53 590.63 352.14 610.39 381.74 593.3 350.5 613.78 380.81 596.27 348.56 617.43 379.8 599.39 346.84 620.57 378.74 602.15 344.65 624.05 377.64 605 342.3 627.76 376.3 608.14 339.08 632.15 374.7 611.58 335.61 636.59 373.01 615 332.53 640.2 371.56 617.67 329.09 643.89 370.22 620.14 324.78 648.23 368.44 623.02 319.32 653.02 366.81 625.61 308.47 661.08 364.86 628.52"/><polyline class="cls-8" points="225.37 539.5 231.52 535.95 221.02 543.93 237.47 534.43 218.91 547.26 241.4 534.28 217.92 549.6 244.09 534.5 217 552.57 247.09 535.2 216.44 555.58 249.94 536.24 216.26 557.87 252.02 537.23 216.32 559.55 253.45 538.12 216.45 561.24 254.88 539.06 216.76 563.16 256.34 540.31 217.23 565.08 257.79 541.66 217.7 566.57 258.81 542.84 218.26 567.9 259.75 543.94 219.28 570.03 261.02 545.93 220.21 571.53 261.92 547.45 221.17 572.96 262.6 549.04 222.47 574.47 263.34 550.87 223.76 575.84 263.8 552.72 225.04 576.93 264.19 554.32 226.31 577.97 264.35 556.01 228.48 579.32 264.52 558.5 230.5 580.33 264.34 560.8 232.39 581.13 264.08 562.83 234.53 581.72 263.56 564.96 236.66 582.21 262.83 567.1 240.33 582.51 261.23 570.44 244.79 582.07 258.61 574.09"/><polyline class="cls-8" points="238.91 465.35 239.52 465 238.91 467.27 241.85 465.57 238.91 469.39 241.85 467.69 238.91 471.16 241.85 469.46 238.91 473.6 241.85 471.9 238.91 476.29 241.85 474.59 238.91 478.47 241.85 476.77 238.91 480.18 241.85 478.48 238.91 481.95 241.86 480.25 238.91 484.04 241.86 482.34 238.91 486.24 241.86 484.53 238.91 488 241.86 486.3 238.91 489.65 241.86 487.95 238.91 492.37 241.86 490.67 238.91 494.41 241.86 492.71 238.91 496.39 241.86 494.69 238.91 498.65 241.86 496.94 238.91 500.77 241.86 499.06 238.91 502.59 241.87 500.89 238.91 504.37 241.87 502.66 238.91 506.97 241.87 505.26 238.91 509.15 241.87 507.45 238.91 511.04 241.87 509.33 238.91 512.87 241.87 511.16 238.91 514.59 241.87 512.88 238.91 517 241.87 515.29 238.91 519.14 241.87 517.43 238.91 521.71 241.87 519.99 238.91 524.22 241.87 522.5 238.91 526.26 241.88 524.55 238.91 528.28 241.88 526.57 238.91 530.22 241.88 528.5 238.91 532.89 241.88 531.18 240.85 534.15 241.88 533.55"/><polyline class="cls-8" points="171.1 499.37 172.14 498.77 170.69 501.53 173.36 499.99 172.04 502.87 174.7 501.33 173.16 503.99 175.83 502.45 174.71 505.54 177.37 504 176.41 507.24 179.08 505.7 177.8 508.62 180.46 507.08 178.88 509.71 181.55 508.17 180 510.83 182.67 509.29 181.33 512.16 184 510.62 182.72 513.55 185.39 512.01 183.84 514.66 186.51 513.13 184.89 515.71 187.55 514.17 186.62 517.43 189.28 515.9 187.91 518.73 190.57 517.19 189.17 519.98 191.83 518.45 190.6 521.41 193.26 519.88 191.94 522.75 194.6 521.22 193.1 523.91 195.76 522.38 194.23 525.04 196.89 523.5 195.87 526.68 198.54 525.15 197.26 528.07 199.93 526.53 198.46 529.26 201.12 527.73 199.62 530.42 202.28 528.89 200.71 531.51 203.37 529.98 202.24 533.04 204.9 531.51 203.6 534.4 206.26 532.86 205.22 536.02 207.89 534.49 206.81 537.62 209.48 536.08 208.11 538.91 210.78 537.37 209.4 540.19 212.06 538.66 210.62 541.42 213.28 539.88 212.32 543.12 214.98 541.58 213.82 544.62 216.49 543.08 215.34 546.13 218 544.59 216.57 547.37 219.24 545.83 217.84 548.63 220.5 547.09"/><polyline class="cls-8" points="145.57 557.49 146.17 557.14 145.57 559.41 149.5 557.14 148.02 560.11 153.17 557.14 151.09 560.11 156.24 557.14 155.31 560.11 160.46 557.14 159.98 560.11 165.13 557.14 163.76 560.11 168.91 557.13 166.74 560.1 171.88 557.13 169.79 560.1 174.94 557.13 173.42 560.1 178.57 557.13 177.23 560.1 182.37 557.13 180.29 560.1 185.43 557.13 183.15 560.1 188.29 557.13 187.86 560.1 193.01 557.12 191.39 560.09 196.54 557.12 194.84 560.09 199.98 557.12 198.74 560.09 203.89 557.12 202.41 560.09 207.56 557.12 205.58 560.09 210.73 557.12 208.66 560.09 213.81 557.11 213.16 560.08 214.72 559.18"/><polyline class="cls-8" points="221.74 573.57 222.79 572.97 217.2 578.12 224.02 574.18 212.19 583.13 222.03 577.44 208 587.32 217.85 581.63 202.24 593.08 212.1 587.38 195.87 599.45 205.75 593.74 190.71 604.61 200.6 598.9 186.65 608.67 196.55 602.95 182.47 612.84 192.38 607.12 177.52 617.8 187.43 612.07 174.02 622.01 182.25 617.26 175.15 623.12 178.09 621.43"/><polyline class="cls-8" points="238.91 580.15 239.52 579.79 238.91 582.07 241.85 580.37 238.91 584.18 241.85 582.49 238.91 585.96 241.85 584.26 238.91 588.39 241.85 586.69 238.91 591.08 241.85 589.38 238.91 593.26 241.85 591.56 238.91 594.98 241.85 593.28 238.91 596.74 241.86 595.04 238.91 598.84 241.86 597.14 238.91 601.03 241.86 599.33 238.91 602.8 241.86 601.1 238.91 604.45 241.86 602.74 238.91 607.17 241.86 605.46 238.91 609.21 241.86 607.5 238.91 611.19 241.86 609.49 238.91 613.45 241.86 611.74 238.91 615.56 241.86 613.86 238.91 617.39 241.87 615.68 238.91 619.16 241.87 617.46 238.91 621.76 241.87 620.05 238.91 623.95 241.87 622.24 238.91 625.83 241.87 624.12 238.91 627.66 241.87 625.95 238.91 629.38 241.87 627.67 238.91 631.8 241.87 630.09 238.91 633.94 241.87 632.23 238.91 636.5 241.87 634.79 238.91 639.01 241.87 637.3 238.91 641.05 241.88 639.34 238.91 643.08 241.88 641.37 238.91 645.01 241.88 643.3 238.91 647.69 241.88 645.97 240.85 648.94 241.88 648.35"/><polyline class="cls-8" points="257.38 573.57 258.42 572.97 256.97 575.73 259.63 574.19 258.31 577.07 260.98 575.53 259.44 578.19 262.1 576.65 260.98 579.74 263.64 578.2 262.69 581.44 265.35 579.9 264.07 582.82 266.74 581.28 265.16 583.91 267.82 582.37 266.28 585.03 268.94 583.49 267.61 586.36 270.27 584.82 269 587.75 271.66 586.21 270.12 588.87 272.78 587.33 271.17 589.91 273.83 588.37 272.89 591.63 275.55 590.1 274.18 592.93 276.85 591.39 275.44 594.18 278.11 592.65 276.87 595.61 279.54 594.08 278.22 596.96 280.88 595.42 279.38 598.11 282.04 596.58 280.5 599.24 283.17 597.7 282.15 600.88 284.81 599.35 283.54 602.27 286.2 600.73 284.73 603.46 287.39 601.92 285.89 604.62 288.56 603.09 286.98 605.71 289.65 604.18 288.51 607.24 291.18 605.71 289.87 608.6 292.54 607.06 291.5 610.23 294.16 608.69 293.09 611.82 295.75 610.28 294.39 613.11 297.05 611.57 295.67 614.39 298.33 612.86 296.89 615.62 299.56 614.08 298.59 617.32 301.26 615.78 300.1 618.82 302.76 617.28 301.61 620.33 304.27 618.79 302.85 621.57 305.51 620.03 304.11 622.83 306.78 621.29"/><polyline class="cls-8" points="264.6 561.22 265.2 560.87 264.6 563.14 268.53 560.87 267.05 563.84 272.2 560.87 270.12 563.84 275.27 560.87 274.34 563.84 279.49 560.87 279.01 563.84 284.15 560.86 282.79 563.83 287.93 560.86 285.76 563.83 290.91 560.86 288.82 563.83 293.97 560.86 292.45 563.83 297.6 560.86 296.25 563.83 301.4 560.86 299.31 563.83 304.46 560.85 302.17 563.83 307.32 560.85 306.88 563.82 312.03 560.85 310.42 563.82 315.57 560.85 313.86 563.82 319.01 560.85 317.77 563.82 322.92 560.85 321.44 563.82 326.59 560.85 324.61 563.82 329.75 560.84 327.69 563.81 332.83 560.84 332.18 563.81 333.75 562.91"/><polyline class="cls-8" points="304.18 492.04 305.22 491.44 299.63 496.59 306.45 492.65 294.62 501.6 304.47 495.91 290.43 505.79 300.29 500.1 284.67 511.55 294.54 505.85 278.3 517.92 288.18 512.21 273.14 523.08 283.03 517.37 269.08 527.14 278.98 521.42 264.91 531.31 274.82 525.59 259.95 536.27 269.87 530.54 256.45 540.48 264.69 535.73 257.59 541.59 260.52 539.9"/><g class="cls-10"><polyline class="cls-7" points="456.84 538.07 458.04 537.37 457.64 539.53 458.86 538.82"/><polyline class="cls-8" points="355.65 470.57 403.47 442.96 365.68 466.95 406.21 443.54 372.01 465.49 408.76 444.27 376.79 464.73 411.04 444.96 380.77 464.51 413.4 445.67 384.72 464.36 415.63 446.51 388.51 464.54 418.07 447.47 391.55 464.77 420.11 448.27 394.35 465.16 422.04 449.17 397.91 465.76 424.53 450.39 400.54 466.38 426.54 451.37 402.64 466.88 428.06 452.21 404.99 467.63 429.87 453.27 407.57 468.5 431.88 454.46 409.7 469.3 433.6 455.5 412.17 470.38 435.56 456.88 414.85 471.59 437.72 458.39 417.07 472.81 439.65 459.78 419.48 474.14 441.58 461.38 420.95 475.06 442.85 462.42 422.8 476.3 444.49 463.78 424.92 477.73 446.26 465.4 426.22 478.75 447.41 466.51 428.14 480.3 449.14 468.18 429.82 481.65 450.62 469.65 431.18 482.93 451.82 471.01 432.76 484.45 453.24 472.62 433.97 485.6 454.32 473.85 435.26 487.01 455.58 475.28 436.24 488.13 456.48 476.44 437.77 489.88 457.85 478.29 439.29 491.7 459.25 480.18 440.28 493.09 460.27 481.55 441.51 494.8 461.42 483.31 442.55 496.23 462.35 484.8 443.59 497.87 463.37 486.45 444.72 499.81 464.55 488.36 445.87 501.78 465.65 490.36 446.74 503.33 466.46 491.95 447.74 505.48 467.53 494.06 448.43 506.98 468.27 495.53 449.21 508.65 469.05 497.2 449.88 510.31 469.72 498.85 450.47 511.99 470.39 500.49 451.19 514.05 471.2 502.5 451.98 516.28 472.05 504.69 452.49 518.33 472.67 506.68 452.94 520.16 473.22 508.45 453.46 522.3 473.86 510.52 453.89 524.48 474.48 512.59 454.22 526.75 474.96 514.78 454.53 528.83 475.4 516.78 454.79 530.61 475.77 518.5 454.92 533.01 476.25 520.7 455.05 535.71 476.59 523.27 455.13 537.43 476.81 524.91 455.1 539.96 477.11 527.25 454.98 542.65 477.4 529.7 454.86 545.09 477.5 532.02 454.49 547.96 477.61 534.61 454.21 550.13 477.7 536.56 453.79 552.62 477.75 538.79 453.29 554.89 477.67 540.82 452.7 557.58 477.58 543.22 451.7 560.9 477.47 546.03 450.68 564.17 477.15 548.88 449.8 566.33 476.94 550.66 448.63 569.21 476.67 553.02 447.38 571.8 476.34 555.08 446.08 574.37 475.94 557.12 443.81 578.24 475.37 560.02 441.03 582.42 474.68 562.99 437.21 587.29 473.8 566.17 434.15 590.73 473.25 568.15 425.39 598.35 472.17 571.34"/><polyline class="cls-8" points="332.8 456.83 345.05 449.76 323.16 464.32 356.09 445.31 317.76 469.55 363.24 443.3 314.52 473.2 368.1 442.26 310.83 477.76 373.67 441.48 307.5 482.37 379.14 441.01 305.24 485.86 383.22 440.84 303.71 488.46 386.11 440.89 302.31 491.04 388.96 441.01 300.71 494.05 392.28 441.18 299.38 497.02 395.4 441.58 298.3 499.4 397.9 441.9 297.44 501.55 400.15 442.25 296.19 504.99 343.56 477.64 295.27 507.56 335.94 484.08 294.61 509.93 331.69 488.52 293.87 512.61 328.24 492.76 293.19 515.12 325.65 496.37 292.79 517.18 323.89 499.22 292.39 519.18 322.34 501.89 291.82 522.11 320.48 505.56 291.52 524.47 319.18 508.5 291.28 526.49 318.18 510.96 291.05 528.46 317.31 513.29 290.84 530.3 316.66 515.39 290.74 532.77 315.75 518.33 290.66 534.96 315.19 520.79 290.56 537.58 314.54 523.73 290.61 540.06 314.07 526.51 290.69 542.05 313.78 528.72 290.78 544.03 313.5 530.91 290.86 545.91 313.36 532.92 291.08 548.46 313.24 535.67 291.37 550.67 313.14 538.1 291.66 552.88 313.24 540.43 291.9 554.7 313.33 542.32 292.2 556.52 313.42 544.26 292.57 558.21 313.54 546.11 293.05 560.41 313.87 548.38 293.55 562.66 314.22 550.73 294.04 564.68 314.53 552.85 294.58 566.44 314.95 554.68 295.03 567.88 315.32 556.16 295.67 569.93 315.84 558.29 296.38 572.23 316.46 560.63 297.15 574.14 317.15 562.59 297.99 576.2 317.9 564.71 298.59 577.68 318.43 566.23 299.38 579.63 319.24 568.17 300.42 581.75 320.23 570.31 301.39 583.65 321.13 572.25 302.36 585.57 322.1 574.17 303.13 587.08 322.96 575.64 304.18 588.83 323.98 577.39 305.18 590.45 324.95 579.04 306.13 591.98 325.95 580.54 307.33 593.92 327.29 582.4 308.49 595.56 328.46 584.03 309.79 597.32 329.79 585.77 311.21 599.24 331.38 587.6 312.12 600.46 332.39 588.75 313.45 602.05 333.76 590.32 314.89 603.69 335.36 591.88 316.05 605 336.64 593.11 317.24 606.35 337.98 594.38 318.95 608.12 339.93 596.01 320.01 609.14 341.11 596.97 321.09 610.18 342.31 597.93 322.29 611.34 343.69 598.98 324.15 613 345.89 600.45 325.48 614.1 347.38 601.45 327.3 615.6 349.55 602.76 329.01 617 351.66 603.92 330.37 617.96 353.2 604.77 331.68 618.87 354.79 605.53 333.63 620.25 357.25 606.61 335.86 621.7 360.01 607.76 337.48 622.66 362.09 608.46 339.5 623.86 364.67 609.32 341.8 625.15 367.81 610.13 344.14 626.29 370.88 610.85 345.89 627.15 373.41 611.26 348.03 628.16 376.54 611.7 349.89 628.89 379.25 611.94 351.98 629.71 382.51 612.09 354.48 630.7 386.82 612.02 356.75 631.38 390.62 611.83 359.13 632.1 395.43 611.15 361.92 632.92 402.2 609.66 364.78 633.53 412.16 606.17 366.99 634 471.28 573.79 369.43 634.48 470.42 576.17 373.28 634.97 468.76 579.84 376.29 635.35 467.46 582.71 379.1 635.48 466.11 585.24 381.98 635.6 464.69 587.86 385.76 635.63 462.68 591.22 390.94 635.41 459.81 595.65 395.32 634.93 457.05 599.29 401.1 634.04 453.18 603.97 408.02 632.45 448.14 609.29 416.54 629.63 441.4 615.27"/><polyline class="cls-9" points="393.77 635.35 394.04 635.2 397.1 635.6 399.01 634.5 400.73 635.7 404.9 633.29 404.34 635.62 411.54 631.46 408.22 635.45 422.29 627.33 412.72 634.99 474.83 599.13 418.2 634.18 471.17 603.6 423.64 633.03 467.36 607.79 430.72 630.95 461.84 612.98 440.89 626.76 453.14 619.69"/><polyline class="cls-9" points="393.72 441.25 393.93 441.13 396.4 441.63 397.71 440.88 399.34 442.05 401.54 440.78 401.69 442.46 404.43 440.89 404.7 443.16 408.36 441.05 408.03 443.93 412.31 441.46 410.48 444.69 415.41 441.85 412.38 445.31 417.75 442.22 414.34 445.95 419.98 442.69 416.58 446.75 422.63 443.26 418.77 447.68 425.29 443.91 420.54 448.43 427.3 444.52 422.19 449.12 429.18 445.08 424.72 450.38 432.19 446.06 426.57 451.35 434.29 446.89 428.37 452.3 436.34 447.69 430.35 453.41 438.63 448.63 432.09 454.52 440.61 449.6 433.6 455.48 442.32 450.44 435.06 456.41 443.99 451.25 437.1 457.82 446.28 452.52 438.74 459.07 448.15 453.63 440.15 460.13 449.76 454.58 441.52 461.17 451.31 455.52 442.76 462.18 452.65 456.47 444.4 463.65 454.54 457.79 445.86 464.94 456.21 458.97 447.6 466.5 458.11 460.43 449.18 468.1 459.9 461.91 450.44 469.42 461.36 463.11 451.68 470.73 462.79 464.31 452.87 471.97 464.05 465.52 454.39 473.77 465.78 467.19 455.7 475.39 467.32 468.68 457.02 477.01 468.78 470.22 458.1 478.33 469.92 471.51 459.08 479.76 471.09 472.83 460.02 481.13 472.21 474.1 461.24 482.9 473.62 475.75 462.49 484.72 474.94 477.53 463.49 486.44 476.14 479.14 464.39 487.99 477.21 480.59 465.12 489.27 478.1 481.77 466.17 491.09 479.23 483.55 467.22 493.19 480.46 485.54 468.1 495.04 481.54 487.27 469.05 497.04 482.69 489.16 469.73 498.47 483.41 490.57 470.49 500.44 484.36 492.43 471.34 502.66 485.42 494.53 472.11 504.68 486.39 496.43 472.83 506.74 487.21 498.44 473.32 508.42 487.86 500.03 473.91 510.43 488.63 501.93 474.46 512.31 489.35 503.72 474.95 514.1 489.94 505.45 475.44 516.46 490.63 507.69 475.86 518.52 491.24 509.64 476.32 520.76 491.9 511.77 476.71 523.28 492.48 514.18 476.91 524.91 492.82 515.73 477.18 527.12 493.28 517.82 477.46 529.42 493.76 520.02 477.58 531.33 494.06 521.82 477.66 533.33 494.3 523.72 477.77 536.02 494.64 526.28 477.83 537.62 494.83 527.81 477.82 539.29 495.04 529.35 477.74 541.18 495.12 531.15 477.63 543.99 495.23 533.82 477.55 545.89 495.31 535.64 477.28 548.61 495.42 538.13 476.96 551.17 495.33 540.57 476.73 553.05 495.26 542.35 476.51 554.85 495.2 544.06 475.92 557.69 495.07 546.63 475.28 560.8 494.72 549.58 474.81 562.97 494.48 551.61 473.99 565.8 494.18 554.14 473.07 568.95 493.6 557.1 472.02 572.05 493.05 559.91 471.11 574.45 492.6 562.04 470.01 577.33 491.85 564.72 468.9 579.77 491.26 566.87 467.57 582.57 490.56 569.3 465.83 586.01 489.45 572.37 464.11 588.99 488.53 574.89 462.22 592.18 487.41 577.63 459.44 596.21 485.93 580.92 456.44 600.2 484.42 584.05 453.76 603.5 483.03 586.6 449.96 607.58 481.52 589.35 442.35 614.68 478.75 593.67"/><polyline class="cls-8" points="372.7 523.37 378.12 520.24 369.18 527.32 383.18 519.24 367.48 530.42 386.6 519.38 366.66 532.66 388.84 519.86 366.04 535.46 391.45 520.79 365.8 538.28 393.86 522.09 365.98 540.36 395.52 523.31 366.17 541.97 396.67 524.36 366.57 543.5 397.76 525.5 367.12 545.28 398.87 526.95 367.91 547.02 399.94 528.52 368.63 548.37 400.59 529.91 369.43 549.55 401.19 531.22 370.93 551.41 401.87 533.54 372.19 552.72 402.25 535.36 373.67 553.85 402.41 537.25 375.5 555.05 402.39 539.52 377.48 556.02 402.18 541.76 379.53 556.66 401.62 543.91 381.8 557.13 400.78 546.17 386.26 557.15 398.51 550.08"/><polyline class="cls-8" points="383.02 464.77 383.63 464.41 383.02 466.69 385.28 465.38 383.02 468.81 385.28 467.5 383.02 470.58 385.28 469.27 383.02 473.01 385.29 471.7 383.02 475.7 385.29 474.39 383.02 477.89 385.29 476.57 383.02 479.6 385.29 478.29 383.02 481.37 385.29 480.05 383.02 483.46 385.29 482.15 383.02 485.65 385.29 484.34 383.02 487.42 385.29 486.11 383.02 489.07 385.3 487.75 383.02 491.79 385.3 490.47 383.02 493.83 385.3 492.51 383.02 495.81 385.3 494.5 383.02 498.07 385.3 496.75 383.02 500.18 385.3 498.87 383.02 502.01 385.3 500.69 383.02 503.79 385.3 502.47 383.02 506.38 385.3 505.06 383.02 508.57 385.31 507.25 383.02 510.45 385.31 509.13 383.02 512.29 385.31 510.96 383.02 514.01 385.31 512.68 383.02 516.42 385.31 515.1 383.02 518.56 385.31 517.24"/><polyline class="cls-8" points="331.25 491.86 332.37 491.21 331.51 493.63 333.56 492.45 332.82 494.99 334.87 493.81 333.92 496.13 335.96 494.95 335.42 497.7 337.47 496.52 337.09 499.43 339.13 498.25 338.44 500.83 340.48 499.65 339.5 501.93 341.55 500.75 340.59 503.07 342.64 501.89 341.88 504.42 343.93 503.23 343.24 505.82 345.29 504.64 344.33 506.96 346.38 505.78 345.35 508.02 347.4 506.84 347.03 509.77 349.08 508.59 348.3 511.08 350.34 509.9 349.52 512.36 351.57 511.18 350.92 513.81 352.96 512.63 352.23 515.17 354.27 513.99 353.36 516.34 355.4 515.16 354.45 517.49 356.5 516.3 356.06 519.15 358.11 517.97 357.41 520.56 359.46 519.38 358.58 521.77 360.63 520.59 359.71 522.95 361.76 521.77 360.77 524.05 362.82 522.87 362.27 525.61 364.31 524.42 363.59 526.98 365.64 525.8 365.18 528.63 367.22 527.45 366.73 530.24 368.77 529.06"/><polyline class="cls-8" points="312.11 537.67 312.71 537.32 312.11 539.59 316.04 537.32 315.73 539.61 319.71 537.32 318.81 539.61 322.78 537.32 323.03 539.61 327 537.31 327.69 539.61 331.67 537.31 331.47 539.61 335.45 537.31 334.45 539.6 338.43 537.31 337.51 539.6 341.49 537.3 341.14 539.6 345.12 537.3 344.94 539.6 348.92 537.3 348 539.6 351.98 537.3 350.86 539.59 354.84 537.3 355.58 539.59 359.56 537.29 359.11 539.59 363.09 537.29 362.56 539.59 364.64 538.38"/><polyline class="cls-8" points="369.83 550.46 370.81 549.89 365.69 554.77 372.08 551.08 361.12 559.52 368.19 555.44 357.3 563.5 364.37 559.42 352.04 568.97 359.13 564.88 346.24 575.02 353.34 570.91 341.53 579.91 348.65 575.81 337.83 583.77 344.95 579.65 334.02 587.73 341.16 583.61 334.62 589.48 336.65 588.31"/><polyline class="cls-8" points="383.02 555.56 383.63 555.21 383.02 557.49 385.28 556.18 383.02 559.6 385.28 558.29 383.02 561.37 385.28 560.07 383.02 563.81 385.29 562.5 383.02 566.5 385.29 565.19 383.02 568.68 385.29 567.37 383.02 570.4 385.29 569.09 383.02 572.16 385.29 570.85 383.02 574.26 385.29 572.94 383.02 576.45 385.29 575.13 383.02 578.22 385.29 576.9 383.02 579.86 385.29 578.55 383.02 582.58 385.3 581.27 383.02 584.62 385.3 583.31 383.02 586.61 385.3 585.29 383.02 588.86 385.3 587.55 383.02 590.98 385.3 589.66 383.02 592.81 385.3 591.49 383.02 594.58 385.3 593.26 383.02 597.18 385.3 595.86 383.02 599.37 385.31 598.05 383.02 601.25 385.31 599.93 383.02 603.08 385.31 601.76 383.02 604.8 385.31 603.48 383.02 607.22 385.31 605.89 383.02 609.36 385.31 608.03"/><polyline class="cls-8" points="396.82 550.55 397.93 549.9 397.07 552.32 399.12 551.14 398.38 553.68 400.43 552.5 399.48 554.82 401.53 553.64 400.99 556.38 403.03 555.2 402.65 558.12 404.7 556.93 404 559.52 406.05 558.34 405.06 560.62 407.11 559.44 406.15 561.75 408.2 560.57 407.45 563.1 409.49 561.92 408.8 564.51 410.85 563.33 409.89 565.65 411.94 564.47 410.91 566.71 412.96 565.53 412.6 568.46 414.64 567.27 413.86 569.77 415.9 568.59 415.08 571.04 417.13 569.86 416.48 572.49 418.53 571.31 417.79 573.86 419.84 572.67 418.92 575.03 420.97 573.85 420.02 576.17 422.06 574.99 421.62 577.84 423.67 576.66 422.98 579.25 425.02 578.07 424.14 580.46 426.19 579.27 425.27 581.63 427.32 580.45 426.34 582.74 428.38 581.56 427.83 584.29 429.88 583.11 429.15 585.67 431.2 584.49 430.74 587.32 432.79 586.13 432.29 588.93 434.34 587.75"/><polyline class="cls-8" points="402.56 540.62 403.16 540.27 402.56 542.54 406.49 540.27 406.18 542.56 410.16 540.27 409.25 542.56 413.23 540.26 413.48 542.56 417.45 540.26 418.14 542.56 422.12 540.26 421.92 542.55 425.9 540.26 424.9 542.55 428.88 540.25 427.96 542.55 431.94 540.25 431.59 542.55 435.57 540.25 435.39 542.55 439.37 540.25 438.45 542.54 442.43 540.25 441.31 542.54 445.29 540.25 446.03 542.54 450.01 540.24 449.56 542.54 453.54 540.24 453 542.54 455.09 541.33"/><polyline class="cls-8" points="432.48 485.97 433.45 485.41 428.33 490.29 434.72 486.6 423.76 495.04 430.83 490.96 419.94 499.02 427.02 494.94 414.69 504.49 421.78 500.39 408.88 510.53 415.98 506.43 404.17 515.43 411.29 511.32 400.47 519.28 407.6 515.17 396.67 523.25 403.8 519.13 397.26 525 399.29 523.83"/></g><path class="cls-3" d="M5912.12,285.06Q5900,321.91,5890,359.4a1.5,1.5,0,0,0,2.89.8q10-37.48,22.16-74.34c0.61-1.84-2.29-2.63-2.89-.8h0Z" transform="translate(-5112.85 -244.99)"/><path class="cls-3" d="M5916.26,551.32c9.07,0,18,2.85,26.71,5.11q12.63,3.28,25.16,6.91,24.61,7.14,48.8,15.65a918.24,918.24,0,0,1,96.75,40.45c1.73,0.84,3.25-1.75,1.51-2.59a925.13,925.13,0,0,0-97.46-40.75q-25.05-8.82-50.59-16.17-12.54-3.61-25.18-6.86c-8.41-2.16-16.95-4.77-25.7-4.75a1.5,1.5,0,0,0,0,3h0Z" transform="translate(-5112.85 -244.99)"/><path class="cls-3" d="M5953.09,313.27l0.19-.41-1.69.69c-2-.41-6.8,11.16-7.73,12.9q-3.44,6.44-7,12.82-7.29,13.2-15,26.18a1.5,1.5,0,0,0,2.59,1.51q8.9-15.08,17.32-30.45,4-7.26,7.81-14.58c1.45-2.75,4.82-6.82,4.34-10.13a1.45,1.45,0,0,0-1-1l-0.55-.11a1.53,1.53,0,0,0-1.69.69l-0.19.41c-0.8,1.74,1.78,3.27,2.59,1.51h0Z" transform="translate(-5112.85 -244.99)"/><path class="cls-3" d="M5861.11,427.9c8.81-23.39,20.92-46.24,34.27-67.34l-2.74-.36a423.14,423.14,0,0,0,9.35,47,1.51,1.51,0,0,0,2.2.9,192.94,192.94,0,0,1,42.27-22.9l-1.85-1.85A179.8,179.8,0,0,1,5924,439.73a1.52,1.52,0,0,0,1.69,2.2l54-15.74-1.69-2.2c-5.59,8.87-15.89,11.92-25.18,15.39a79.15,79.15,0,0,0-12.15,5.39c-3.11,1.81-8.1,4.77-9.2,8.46s2.51,5.55,5.16,7.15a140.58,140.58,0,0,0,17.35,8.9,145.14,145.14,0,0,0,37,10.27v-2.89a349.15,349.15,0,0,1-73.3,11.5,1.51,1.51,0,0,0-.76,2.8l46.1,34.16,0.76-2.8a596.14,596.14,0,0,1-83.12-7.08c-1.89-.3-2.7,2.59-0.8,2.89a601.85,601.85,0,0,0,83.92,7.19c1.61,0,1.87-2,.76-2.8l-46.1-34.16-0.76,2.8a353,353,0,0,0,74.1-11.61c1.33-.36,1.53-2.68,0-2.89a143.84,143.84,0,0,1-32.56-8.44,138.88,138.88,0,0,1-17.27-8.19c-2.63-1.48-6-2.47-6.28-5.61s2.44-4.47,4.88-6.06c12.93-8.41,31.14-8.76,40-22.84a1.52,1.52,0,0,0-1.69-2.2l-54,15.74,1.69,2.2a182.24,182.24,0,0,0,20.88-57.06c0.19-1-.68-2.3-1.85-1.85a196,196,0,0,0-43,23.2l2.2,0.9a423.14,423.14,0,0,1-9.35-47c-0.19-1.37-2.12-1.34-2.74-.36-13.49,21.33-25.66,44.42-34.57,68.06-0.68,1.81,2.22,2.59,2.89.8h0Z" transform="translate(-5112.85 -244.99)"/><path class="cls-3" d="M5991.48,541.76a257.93,257.93,0,0,1,38.16,6.3c11.59,2.84,25.29,5.61,34.61,13.5,1.47,1.24,3.6-.87,2.12-2.12-9.38-7.94-22.44-10.86-34.08-13.81a262.91,262.91,0,0,0-40.81-6.87c-1.92-.17-1.91,2.83,0,3h0Z" transform="translate(-5112.85 -244.99)"/></svg>