<svg id="Layer_1" data-name="Layer 1" xmlns="http://www.w3.org/2000/svg" viewBox="0 0 240.53 240.53"><defs><style>.cls-1,.cls-3{fill:none;stroke:#333;stroke-miterlimit:10;}.cls-1{stroke-width:8px;}.cls-2{fill:#333;}.cls-3{stroke-linecap:round;stroke-width:4px;}</style></defs><title>enojado</title><circle class="cls-1" cx="3911.51" cy="679.83" r="116.24" transform="translate(-3849.22 192.69) rotate(-10.9)"/><path class="cls-2" d="M3857.59,675.92a21.38,21.38,0,0,1-24.42-14.52l41.69-8A21.38,21.38,0,0,1,3857.59,675.92Z" transform="translate(-3791.24 -559.57)"/><path class="cls-2" d="M3929.7,662a21.38,21.38,0,0,1-24.42-14.52l41.69-8A21.38,21.38,0,0,1,3929.7,662Z" transform="translate(-3791.24 -559.57)"/><path class="cls-3" d="M3930.23,698.13s-45,3.74-61.18,14.92" transform="translate(-3791.24 -559.57)"/><path class="cls-2" d="M3951.78,636.08a14.47,14.47,0,0,1,7.68-7.82c1.76-.73,1-3.64-0.8-2.89a17.36,17.36,0,0,0-9.47,9.19c-0.75,1.76,1.83,3.29,2.59,1.51h0Z" transform="translate(-3791.24 -559.57)"/><path class="cls-2" d="M3958.56,646.58a4.27,4.27,0,0,1,5.09-1.38c1.8,0.69,2.59-2.21.8-2.89a7.26,7.26,0,0,0-8.48,2.76c-1.11,1.58,1.49,3.08,2.59,1.51h0Z" transform="translate(-3791.24 -559.57)"/><path class="cls-2" d="M3957.46,654.94a19.23,19.23,0,0,1,6.38,2c1.71,0.89,3.23-1.7,1.51-2.59a23.44,23.44,0,0,0-7.89-2.44c-1.91-.25-1.89,2.76,0,3h0Z" transform="translate(-3791.24 -559.57)"/><path class="cls-2" d="M3831,674a19.75,19.75,0,0,0-9.29,8.25,1.5,1.5,0,0,0,2.59,1.51,17.14,17.14,0,0,1,8.22-7.17c1.77-.76.24-3.34-1.51-2.59h0Z" transform="translate(-3791.24 -559.57)"/><path class="cls-2" d="M3828.66,666.28a20.45,20.45,0,0,0-12.69,1.87c-1.73.86-.21,3.44,1.51,2.59a17,17,0,0,1,10.38-1.57c1.89,0.31,2.7-2.58.8-2.89h0Z" transform="translate(-3791.24 -559.57)"/><path class="cls-2" d="M3848.32,707.42a55.34,55.34,0,0,0,9.74,36.87c1.09,1.57,3.7.08,2.59-1.51a52.79,52.79,0,0,1-9.33-35.36c0.18-1.92-2.83-1.91-3,0h0Z" transform="translate(-3791.24 -559.57)"/><path class="cls-2" d="M3946.33,678.59a91.12,91.12,0,0,1,4.46,15.64c1.05,5.7,2.46,12.77-.1,18.23-0.81,1.74,1.77,3.26,2.59,1.51,2.48-5.28,1.83-10.94,1-16.58a90.88,90.88,0,0,0-5.1-19.61c-0.68-1.79-3.58-1-2.89.8h0Z" transform="translate(-3791.24 -559.57)"/><path class="cls-2" d="M3894.21,715a5.12,5.12,0,0,0,2-1,5.73,5.73,0,0,0,.39-0.66,12.52,12.52,0,0,1,2.89-.44,85.63,85.63,0,0,1,13.87-1.46c1.93-.05,1.93-3.05,0-3a92.06,92.06,0,0,0-12.44,1.16c-1.79.3-4.3,0.39-5.93,1.2-0.56.28-1,1.19-1.54,1.28-1.9.3-1.09,3.2,0.8,2.89h0Z" transform="translate(-3791.24 -559.57)"/><path class="cls-2" d="M3910,646.59s-9.33,4.24-16.89-7.07c0,0-5.6-1.18,1,5.07s9.53,5.59,12.93,6.94S3910,646.59,3910,646.59Z" transform="translate(-3791.24 -559.57)"/><path class="cls-2" d="M3837.83,660.5s-8.35,4.06-15.91-7.26c0,0-5.6-1.18,1,5.07s8.55,5.78,11.95,7.13S3837.83,660.5,3837.83,660.5Z" transform="translate(-3791.24 -559.57)"/><path class="cls-2" d="M3909.25,745.49l-0.52-.11a1.53,1.53,0,0,0-1.69.69c-1.57,3.61,2.33,6,4.9,7.93,3.95,2.92,8.9,5,13.85,3.66,3.42-.95,6.79-3.58,7.74-7.12,0.7-2.59,1.67-7.56-1.93-8.26a1.57,1.57,0,0,0-1.69.69,2,2,0,0,0-.25,2.37,1.55,1.55,0,0,0,1.45,1.1l0.53,0c1.92-.1,1.93-3.1,0-3l-0.53,0,1.45,1.1-0.05-.06-1.69.69c0.52,0.1-.13,4.47-0.16,4.57-0.9,2.85-3.8,4.78-6.64,5.2a12.48,12.48,0,0,1-7.94-1.81c-0.94-.51-7-4.3-6.42-5.55l-1.69.69,0.52,0.11c1.88,0.38,2.69-2.51.8-2.89h0Z" transform="translate(-3791.24 -559.57)"/></svg>