<?xml version="1.0" encoding="utf-8"?>
<!-- Generator: Adobe Illustrator 19.2.1, SVG Export Plug-In . SVG Version: 6.00 Build 0)  -->
<svg version="1.1" id="Layer_1_copy" xmlns="http://www.w3.org/2000/svg" xmlns:xlink="http://www.w3.org/1999/xlink" x="0px"
	 y="0px" width="570.9px" height="392.5px" viewBox="0 0 570.9 392.5" style="enable-background:new 0 0 570.9 392.5;"
	 xml:space="preserve">
<style type="text/css">
	.st0{fill:none;stroke:#135E70;stroke-linecap:round;stroke-linejoin:round;}
	.st1{fill:none;stroke:#009CDE;stroke-linecap:round;stroke-linejoin:round;}
	.st2{fill:none;stroke:#058BBC;stroke-linecap:round;stroke-linejoin:round;}
	.st3{fill:none;stroke:#266A89;stroke-linecap:round;stroke-linejoin:round;}
	.st4{fill:none;stroke:#317A92;stroke-linecap:round;stroke-linejoin:round;}
	.st5{fill:none;stroke:#0E4E60;stroke-linecap:round;stroke-linejoin:round;}
	.st6{fill:none;stroke:#ABAAAA;stroke-linecap:round;stroke-linejoin:round;}
	.st7{fill:#2C3886;}
	.st8{enable-background:new    ;}
</style>
<title>grafica_azul</title>
<polyline class="st0" points="142.7,85.9 143.1,85.7 141.2,88.7 144.8,86.6 139.8,91.4 146.5,87.6 138.2,94.5 148.3,88.7 
	137.2,96.7 149.7,89.5 136.2,99.1 151.3,90.4 135.4,100.8 152.4,91 134.6,102.6 153.6,91.7 133.5,105.3 155.3,92.7 132.9,106.9 
	156.4,93.3 132.2,108.7 157.6,94.1 131.4,110.9 159.1,94.9 130.7,112.8 160.4,95.7 130,115 161.9,96.5 129.3,117.4 163.7,97.5 
	128.5,120.1 165.6,98.7 128,121.6 166.7,99.3 127.5,123.4 168,100 127.1,124.8 169,100.6 126.8,126.3 170.2,101.3 126.4,128.1 
	171.5,102.1 125.8,130.7 173.5,103.2 125.3,132.6 174.9,104 124.9,134.6 176.4,104.9 124.5,136.9 178.2,105.9 124.2,139 
	179.8,106.9 123.9,140.8 181.2,107.7 123.6,142.4 182.5,108.4 123.2,144.6 184.3,109.4 123,146.9 186.1,110.5 122.8,149.3 
	188.1,111.6 122.6,150.8 189.3,112.3 122.5,152.2 190.4,113 122.3,153.8 191.8,113.7 122.2,156 193.5,114.8 122.1,157.2 
	194.5,115.3 122.1,158.7 195.8,116.1 122,160 196.9,116.8 122,161.6 196.9,118.3 121.9,163.4 196.9,120 121.8,165.5 196.9,122.2 
	121.8,166.9 196.9,123.5 121.9,168.1 196.9,124.8 121.9,169.3 196.9,126 122,171.1 196.9,127.8 122,172.6 196.9,129.4 122.1,174.3 
	196.9,131 122.1,175.6 196.9,132.3 122.1,176.9 196.9,133.7 122.3,178.6 197,135.4 122.4,179.8 197,136.8 122.5,181 197,138 
	122.7,182.6 197,139.7 122.8,184.5 197,141.7 123.1,186.6 197,144 123.3,188.6 197,146.1 123.5,190.1 197,147.7 123.8,191.6 
	197,149.4 124,193.2 197,151.1 124.3,195.1 197,153.1 124.6,196.8 197,155 124.9,198.5 197,156.9 125.1,199.6 197,158.2 
	125.6,201.6 197,160.4 125.9,203 197,162 126.3,204.8 197,164 126.8,206.7 197,166.2 127.2,208.5 197,168.2 127.6,210 197,169.9 
	127.9,211 197,171.1 128.3,212.5 197,172.9 128.8,214.1 197,174.7 129.3,215.6 197,176.6 129.7,217.1 197,178.3 130.2,218.9 
	197,180.3 130.6,220 197,181.7 131.2,221.5 197,183.5 131.8,223.1 197,185.5 132.3,224.6 197,187.3 132.7,225.7 197,188.6 
	133.3,227.3 197,190.6 133.8,228.6 197,192.1 134.3,229.8 197,193.6 135,231.4 197,195.7 135.6,232.6 197,197.2 136,233.6 
	197,198.5 136.6,234.9 197,200 137.3,236.5 197,202 137.8,237.7 197,203.6 138.4,238.9 197,205 138.9,239.8 197,206.3 139.4,240.8 
	197,207.5 139.8,241.7 197,208.7 140.4,242.8 197,210.2 141.3,244.6 197,212.4 142.2,246.2 197,214.6 142.8,247.4 197,216.1 "/>
<polyline class="st1" points="290.3,0.8 290.7,0.5 290.3,2.1 292.8,0.6 290.3,3.6 295.3,0.7 290.3,5 297.6,0.8 290.3,7.2 301.1,1 
	290.3,9.1 303.8,1.3 290.3,10.8 306.3,1.5 290.3,12.3 308.5,1.8 290.3,14.6 311.7,2.2 290.3,16.5 314.4,2.6 290.3,18.2 316.6,3 
	290.3,19.6 318.5,3.3 290.3,21.3 320.7,3.7 290.3,22.6 322.3,4.1 290.3,23.9 324,4.5 290.3,25.6 326.1,4.9 290.3,27 327.8,5.3 
	290.3,28.9 330.1,5.9 290.3,30.8 332.3,6.5 290.3,32.2 333.9,7 290.3,33.6 335.6,7.5 290.3,35.8 338,8.2 290.3,37.5 340,8.8 
	290.3,39.1 341.7,9.4 290.3,40.4 343.1,9.9 290.3,41.9 344.7,10.5 290.3,43.9 346.9,11.2 290.3,45.4 348.4,11.9 290.3,47.5 
	350.5,12.7 290.3,49.8 352.8,13.7 290.3,51.5 354.5,14.4 290.3,53.3 356.3,15.2 290.3,55.2 358.1,16 290.3,57.2 360,17 290.3,58.4 
	361.1,17.5 290.3,60.6 363.2,18.5 290.3,62.9 365.3,19.6 291.8,63.8 366.9,20.5 293.4,64.7 368.5,21.3 294.7,65.4 369.8,22.1 
	296.2,66.3 371.4,23 298.1,67.4 373.2,24.1 299.9,68.5 375,25.2 301.7,69.5 376.6,26.2 303.2,70.4 378.1,27.1 304.8,71.3 
	379.6,28.1 306.8,72.4 381.4,29.3 308,73.2 382.6,30.1 309.2,73.8 383.6,30.9 310.8,74.7 385,31.9 312.3,75.6 386.4,32.9 
	313.9,76.5 387.7,33.9 315.6,77.6 389.3,35 317,78.3 390.4,35.9 318.9,79.4 392,37.2 320,80.1 392.9,38 321.9,81.2 394.5,39.3 
	323,81.8 395.4,40 324.1,82.4 396.3,40.8 325.6,83.3 397.5,41.8 327.1,84.2 398.6,42.8 328.9,85.2 400,44.1 330.1,85.9 401,45 
	331.2,86.6 401.8,45.8 333,87.6 403.2,47 334.8,88.6 404.5,48.3 336.3,89.5 405.6,49.4 338,90.4 406.8,50.7 339.3,91.2 407.8,51.7 
	340.5,91.9 408.6,52.6 341.6,92.5 409.4,53.4 343.4,93.6 410.7,54.8 344.8,94.4 411.6,55.8 346.6,95.4 412.9,57.2 347.7,96 
	413.5,58 349.3,97 414.6,59.3 351.2,98.1 415.8,60.7 352.3,98.7 416.6,61.6 354.1,99.7 417.7,63 355.2,100.4 418.5,63.9 
	356.5,101.1 419.2,64.9 358,102 420.1,66.1 359.6,102.9 421.1,67.4 361.1,103.8 422,68.6 362.2,104.4 422.6,69.5 363.7,105.3 
	423.5,70.7 364.9,106 424.2,71.7 366.5,106.9 425.2,73 368.4,108 426.2,74.6 369.7,108.8 426.9,75.7 371.5,109.8 427.9,77.2 
	373,110.6 428.7,78.5 374.6,111.6 429.6,79.9 376.3,112.5 430.5,81.2 "/>
<polyline class="st2" points="378.8,117.1 433,85.8 378.8,118.2 433.5,86.7 378.8,119.4 434,87.6 378.8,121.6 434.8,89.2 
	378.8,123.4 435.6,90.6 378.8,124.8 436.2,91.8 378.8,127 437,93.4 378.8,128.9 437.8,94.9 378.8,130.2 438.2,95.9 378.8,132.1 
	438.9,97.4 378.8,134.4 439.7,99.3 378.8,136.2 440.3,100.7 378.9,138.1 441,102.2 378.9,139.8 441.6,103.5 378.9,140.9 442,104.5 
	378.9,142.6 442.5,105.8 378.9,144 442.9,107 378.9,145.4 443.3,108.1 378.9,146.9 443.8,109.4 378.9,149.1 444.5,111.2 
	378.9,150.6 444.9,112.5 378.9,152.2 445.4,113.8 378.9,154.4 446,115.7 378.9,156 446.4,117 378.9,157.6 446.8,118.3 378.9,159.9 
	447.4,120.3 378.9,161.5 447.8,121.7 378.9,163.2 448.2,123.1 378.9,164.4 448.5,124.1 378.9,166.6 449,126.1 378.9,168 
	449.3,127.4 378.9,169.2 449.5,128.4 378.9,170.6 449.8,129.7 378.9,171.9 450.1,130.8 378.9,173.4 450.4,132.1 378.9,174.7 
	450.6,133.2 378.9,176.7 451,135.1 378.9,178.1 451.2,136.3 378.9,179.8 451.5,137.9 378.9,181.3 451.7,139.2 378.9,182.5 
	451.9,140.3 378.9,184.1 452.1,141.8 378.9,185.5 452.3,143.1 378.9,186.7 452.5,144.2 378.9,188.7 452.7,146 378.9,190.2 
	452.9,147.5 378.9,192.4 453,149.5 378.9,193.8 453.2,150.9 378.9,195.5 453.3,152.5 378.9,197.2 453.5,154.1 378.9,199 
	453.6,155.9 378.9,201 453.7,157.7 378.9,202.8 453.8,159.6 378.9,204.6 453.8,161.4 378.9,206.4 453.9,163.1 378.9,208.6 
	454,165.2 378.9,209.9 454,166.5 378.9,211.4 454,168 378.9,213.6 453.9,170.3 378.9,215.8 453.8,172.5 379.7,216.8 453.8,174.1 
	381.3,217.8 453.7,176 382.7,218.6 453.6,177.6 384.4,219.5 453.4,179.7 385.8,220.4 453.3,181.4 387.7,221.5 453,183.8 
	389.7,222.6 452.8,186.1 390.8,223.2 452.7,187.5 392.7,224.4 452.3,189.9 394.5,225.4 451.9,192.3 396.1,226.3 451.6,194.2 
	397.2,226.9 451.4,195.6 398.9,227.9 451,197.8 400.2,228.7 450.7,199.5 401.3,229.3 450.4,201 402.4,229.9 450,202.4 403.5,230.6 
	449.7,203.9 405.3,231.6 449.1,206.4 406.9,232.5 448.6,208.4 408.6,233.5 448,210.8 410.4,234.6 447.2,213.3 411.6,235.3 
	446.7,215 413,236.1 446.1,217 414.5,236.9 445.5,218.9 415.5,237.5 445,220.4 417.2,238.5 444.1,223 418.5,239.2 443.4,224.9 
	420.1,240.1 442.5,227.1 421.3,240.9 441.8,229 423.2,241.9 440.5,231.9 424.9,242.9 439.4,234.6 426.7,243.9 438.2,237.3 
	427.8,244.6 437.3,239.1 429.7,245.7 435.7,242.2 431.2,246.6 434.5,244.7 432.4,247.2 433.4,246.6 "/>
<polyline class="st3" points="145.4,251.9 199.6,220.6 146.4,253.5 201.5,221.7 147.2,254.8 203,222.6 148.1,256.1 204.6,223.4 
	148.7,257.1 205.8,224.2 149.5,258.3 207.2,225 150.5,259.9 209.1,226.1 151.1,260.8 210.2,226.7 151.9,261.8 211.4,227.4 
	152.7,262.9 212.8,228.2 153.5,264 214.1,229 154.2,264.9 215.3,229.7 155.3,266.4 217.1,230.7 156.4,267.9 219,231.8 157.4,269.3 
	220.7,232.8 158.2,270.3 221.9,233.5 159.1,271.3 223.3,234.2 160,272.4 224.6,235 161,273.6 226.2,236 162.1,274.9 227.9,236.9 
	163.3,276.4 229.8,238 164.4,277.6 231.4,238.9 165.3,278.5 232.6,239.6 166.2,279.5 233.9,240.4 167.5,280.8 235.7,241.4 
	168.5,281.9 237.1,242.2 169.6,283 238.7,243.1 170.3,283.8 239.7,243.8 171.7,285.1 241.6,244.8 173.1,286.4 243.4,245.8 
	174.5,287.8 245.3,247 175.8,289 247,247.9 177.2,290.3 248.8,249 178.6,291.6 250.6,250 180,292.8 252.3,251 181.2,293.7 
	253.7,251.8 182.8,295 255.6,252.9 183.7,295.8 256.8,253.6 184.6,296.5 257.9,254.2 185.9,297.6 259.5,255.1 187,298.4 
	260.7,255.9 188.5,299.6 262.5,256.9 189.4,300.2 263.5,257.5 191.2,301.5 265.4,258.6 192.8,302.6 267.2,259.6 194.4,303.8 
	269.1,260.7 195.9,304.8 270.7,261.6 197.7,306 272.6,262.7 199.2,306.9 274.1,263.6 201.1,308.1 276.1,264.8 203,309.3 
	278.1,265.9 204.6,310.2 279.8,266.9 206.5,311.3 281.6,267.9 207.8,312 282.9,268.7 209,312.7 284.1,269.4 210.1,313.3 285.2,270 
	211.5,314 285.5,271.3 212.8,314.7 285.5,272.7 214.7,315.6 285.5,274.7 216.2,316.3 285.5,276.3 218.2,317.3 285.5,278.4 
	219.3,317.8 285.5,279.6 221.1,318.6 285.5,281.4 223.3,319.5 285.6,283.6 224.8,320.1 285.6,285 226.6,320.9 285.6,286.8 
	228.7,321.8 285.6,289 230.1,322.3 285.6,290.3 231.9,322.9 285.6,291.9 233.6,323.5 285.6,293.5 235.9,324.3 285.6,295.6 
	237.6,324.9 285.6,297.2 240.2,325.6 285.6,299.4 241.6,326 285.6,300.6 243,326.4 285.6,301.9 244.4,326.8 285.6,303 246.3,327.4 
	285.6,304.7 248.7,327.9 285.6,306.6 251,328.5 285.6,308.5 253.7,329 285.6,310.7 256.1,329.6 285.6,312.5 258.3,330 285.6,314.2 
	260,330.2 285.6,315.4 261.7,330.5 285.6,316.7 263.7,330.8 285.6,318.2 265.3,331.1 285.6,319.4 267,331.3 285.6,320.5 
	268.7,331.5 285.6,321.7 270.5,331.6 285.6,322.9 273.5,332 285.6,325 276.5,332.2 285.6,327 279.1,332.3 285.6,328.6 282.5,332.5 
	285.6,330.7 284.4,332.6 285.6,331.9 "/>
<polyline class="st4" points="290.2,270.5 376.8,220.6 290.2,272.1 378.1,221.4 290.2,274.4 380.1,222.5 290.2,275.9 381.5,223.3 
	290.2,277.4 382.7,224 290.2,278.8 384,224.7 290.2,280.9 385.8,225.8 290.2,282.9 387.5,226.8 290.2,285.1 389.4,227.9 290.2,287 
	391,228.8 290.2,288.2 392.1,229.4 290.2,290.2 393.8,230.4 290.2,292.4 395.7,231.5 290.2,294.4 397.5,232.5 290.2,296.3 
	399.1,233.5 290.2,297.9 400.5,234.3 290.2,299.9 402.2,235.3 290.2,301.6 403.7,236.1 290.2,303.1 405,236.9 290.2,304.9 
	406.6,237.8 290.2,307.1 408.5,238.8 290.2,309.1 410.2,239.9 290.2,311.3 412.1,240.9 290.2,313.6 414.1,242.1 290.3,315.7 
	416,243.2 290.3,317.4 417.4,244 290.3,318.8 418.6,244.7 290.3,320.4 420,245.5 290.3,321.8 421.2,246.2 290.3,323.8 422.9,247.2 
	290.3,325.8 424.7,248.2 290.3,328 426.6,249.3 290.3,329.2 427.6,249.9 290.3,331.3 429.5,251 291.4,332.6 430,252.6 293.9,332.5 
	428.6,254.7 296.5,332.3 427.2,256.9 299.3,332.2 425.7,259.2 303.1,331.9 423.5,262.4 306.3,331.5 421.6,265 310.5,331 
	419.1,268.4 314,330.5 416.8,271.2 318.9,329.7 413.7,274.9 322.1,329.1 411.4,277.5 325.9,328.2 408.7,280.4 330.9,327 
	405.4,283.9 334.7,325.9 402.2,286.9 341.4,323.8 397.4,291.4 351.4,320 389.2,298.2 360.7,315.8 381.1,304 "/>
<polyline class="st5" points="198.5,26.7 213,18.3 187.4,34.4 223.9,13.3 178.4,41.7 234.5,9.3 172.6,47.1 242.5,6.8 169.5,50.2 
	246.3,5.8 166.6,53.2 250.5,4.8 163.8,56.1 254.3,3.9 161.7,58.7 257.6,3.3 159.2,61.7 261.5,2.6 156.3,65.3 266,2 154.4,67.9 
	269.2,1.6 152.9,70 271.8,1.3 150.3,73.6 276.2,0.9 148.6,76.2 279.3,0.8 146.3,79.8 283.5,0.6 145.7,81.8 285.5,1 146.8,82.4 
	285.5,2.3 147.9,83.1 285.5,3.6 149.9,84.2 285.5,5.8 151,84.8 285.5,7.1 152.6,85.7 285.5,8.9 154.3,86.7 285.5,10.9 156,87.7 
	285.5,12.9 157.4,88.5 285.5,14.6 159.1,89.5 285.5,16.5 160.3,90.2 285.5,17.8 161.4,90.8 285.5,19.1 163.1,91.8 285.5,21.1 
	164.6,92.7 285.5,22.9 165.7,93.3 285.5,24.1 167.4,94.3 285.6,26 169.3,95.4 285.6,28.3 170.6,96.1 285.6,29.8 171.8,96.8 
	285.6,31.1 173.3,97.7 285.6,32.9 174.9,98.6 285.6,34.7 176,99.2 285.6,36 177.4,100 285.6,37.6 179.3,101.1 285.6,39.8 
	180.6,101.9 285.6,41.2 181.9,102.7 285.6,42.8 183.6,103.6 285.6,44.8 185.6,104.8 285.6,47.1 186.7,105.4 285.6,48.3 188.1,106.2 
	285.6,50 189.2,106.8 285.6,51.2 190.4,107.6 285.6,52.6 191.7,108.3 285.6,54 193.3,109.2 285.6,56 195.1,110.2 285.6,58 
	197.1,111.4 285.6,60.3 199,112.5 285.6,62.5 "/>
<polyline class="st6" points="279.2,132 280.7,131.1 279.5,133.9 284.4,131.1 282.6,134.4 288.3,131.1 285.1,134.4 290.8,131.1 
	288.9,134.4 294.6,131.1 292.5,134.4 298,131.2 295.7,134.4 299.3,132.3 297.7,134.4 299.2,133.5 "/>
<polyline class="st6" points="284.1,133.9 284.6,133.6 284.1,136.1 288.3,133.6 284.1,138.3 292.2,133.6 284.1,139.7 294.3,133.9 
	285.1,141.3 294.3,136.1 288.7,141.3 294.3,138.1 291.9,141.3 294.3,139.9 "/>
<polyline class="st6" points="278.9,147.8 290.7,141 283.5,146.4 292.6,141.1 286.2,145.9 294.2,141.3 289.5,145.8 296.4,141.8 
	292.4,145.9 298.5,142.4 294.3,146.3 300.1,142.9 296.8,146.9 302.2,143.8 298.8,147.6 303.9,144.6 300.9,148.6 305.8,145.7 
	302.5,149.4 307.2,146.7 304.2,150.5 308.9,147.9 305.2,151.2 309.7,148.6 306.5,152.3 311,149.7 307.3,153 311.7,150.4 
	308.2,153.8 312.5,151.3 309.4,155.2 313.8,152.8 310.2,156.2 314.5,153.7 311,157.2 315.2,154.8 311.9,158.7 316.2,156.2 
	312.8,160 317,157.6 313.4,161.5 317.7,159 314,162.9 318.3,160.4 314.5,163.9 318.7,161.4 314.9,165.4 319.2,162.9 315.3,167.3 
	319.8,164.7 315.6,168.8 320.1,166.2 315.7,169.9 320.3,167.3 315.9,171.6 320.5,168.9 315.9,172.9 320.6,170.2 315.8,174.7 
	320.7,171.9 315.5,177.1 320.7,174.1 315.1,179 320.6,175.9 314.4,181.5 320.3,178.1 313.7,183.3 319.9,179.7 312.1,186.5 
	319.2,182.4 310.6,188.7 318.6,184.1 306.8,192.7 317.5,186.5 "/>
<polyline class="st6" points="270.1,147.2 276.7,143.3 264.5,152.6 283.9,141.3 261.7,156.4 288.6,140.9 260.7,158.4 272,151.9 
	259.3,161.4 267.3,156.8 258.5,164 265.3,160 258,166.1 264.1,162.6 257.6,167.9 263.4,164.6 257.4,170 262.8,166.9 257.3,171.2 
	262.5,168.2 257.3,173.4 262.2,170.5 257.4,174.6 262.1,171.9 257.5,176 262.1,173.3 257.6,177.4 262.3,174.7 257.9,178.5 
	262.4,175.9 258.2,180.1 262.6,177.5 258.6,181.8 263,179.3 259.3,183.7 263.5,181.2 260,185.5 264.3,183.1 260.7,187 264.9,184.6 
	261.6,188.6 265.8,186.2 262.2,189.6 266.4,187.1 262.8,190.5 267,188.1 263.9,192 268.2,189.5 264.8,193.1 269,190.6 265.9,194.4 
	270.2,191.9 267.2,195.7 271.6,193.1 268.2,196.5 272.6,193.9 269.3,197.5 273.9,194.8 270.9,198.7 275.6,196 272.2,199.6 
	277.1,196.7 274,200.6 279.1,197.6 275.5,201.3 280.9,198.2 276.8,201.9 282.4,198.7 278.3,202.5 284.2,199.1 280.8,203.3 
	287.5,199.4 282.4,203.6 289.5,199.5 285.2,204.2 294.1,199 287.5,204.3 299.9,197.2 290.7,204.3 315.6,190 295.3,203.7 
	312.8,193.6 300.3,202.3 309,197.3 "/>
<polyline class="st6" points="283.2,155.9 291.7,151 286.8,155.1 293.4,151.3 289.2,154.9 294.8,151.7 289.2,156.6 296.7,152.2 
	289.2,158.4 298.5,153 289.2,159.9 299.9,153.8 289.2,161.9 301.5,154.8 289.2,163.8 302.9,155.9 289.2,166 304.4,157.2 
	289.2,167.7 305.4,158.4 289.2,169.8 306.6,159.8 289.2,171.1 307.2,160.7 289.2,172.4 307.8,161.7 "/>
<polyline class="st6" points="275.5,155.5 280.9,152.5 271.1,160.2 287.1,151 269.2,163.6 291,151 268.4,165.5 275.5,161.4 
	267.7,168.1 273.3,164.9 267.4,170.3 272.2,167.5 267.2,172.3 271.7,169.7 267.3,173.8 271.6,171.4 267.5,175.7 272.6,172.7 
	267.6,176.7 274.6,172.7 268.1,178.7 278.4,172.7 268.4,179.8 280.7,172.7 268.9,180.9 283,172.7 269.4,182.1 285.7,172.7 
	269.9,183.1 287.9,172.7 270.7,184.3 308.4,162.6 271.6,185.8 309.1,164.2 272.9,187.3 309.8,166 274.4,188.8 310.3,168 
	275.7,189.9 310.6,169.7 277.4,191 310.8,171.7 278.5,191.7 310.8,173 279.7,192.3 310.7,174.4 281.8,193.2 310.4,176.7 
	283.6,193.7 310,178.5 286.2,194.2 309.1,181 289.3,194.4 307.6,183.9 292.1,194.2 306.1,186.1 297.2,192.8 302.5,189.7 "/>
<polyline class="st6" points="259.2,145.8 261.9,144.2 257.6,148.8 265.3,144.4 257.6,151.1 267.1,145.6 258.1,152.3 266.1,147.6 
	259.2,153.8 262.4,152 260.4,154.8 260.9,154.5 "/>
<path class="st7" d="M393.9,8.6l-32.9,34.5l-8.1,8.5c-1.6,1.7-4.3,3.6-4.9,6c-0.7,3,2.4,5.7,5.1,3.8s0.1-6.1-2.5-4.3l2.4,1.5
	l1.3-1.4c1-0.9,1.9-1.8,2.7-2.8l6.1-6.3l11.4-12l22.9-24C399.6,9.7,396.1,6.2,393.9,8.6L393.9,8.6L393.9,8.6z"/>
<path class="st7" d="M395.2,12.4c22.6-6.5,46.2-1.9,69.1,0.2c23.8,2.1,47.6,2.7,71.5,1.7c3.2-0.1,3.2-5.1,0-5
	c-24.5,1-49,0.4-73.4-1.8c-22.8-2.1-46-6.3-68.5,0.2C390.8,8.4,392.1,13.2,395.2,12.4L395.2,12.4L395.2,12.4z"/>
<path class="st7" d="M420.7,166.9c49.2-2.8,98.6-2.3,147.8,1.6c3.2,0.2,3.2-4.8,0-5c-49.2-3.9-98.6-4.5-147.8-1.6
	C417.5,162.1,417.5,167.1,420.7,166.9L420.7,166.9z"/>
<path class="st7" d="M367.2,278.6l10.5,29.7c3.4,9.7,6.3,19.9,10.4,29.3c3.2,7.4,11.1,6.2,18,6.5c9.6,0.3,19.2,0.6,28.7,1
	c19.7,0.9,39.5,2.6,58.9,6.8c4.8,1,9.5,2.2,14.2,3.6c4.2,1.2,9.2,4,13.6,4.3c4.6,0.3,6.8-6,1.9-6.8c-3.1-0.5-4.5,4.3-1.3,4.8
	l0.7,0.1l-1.8-1.8v0.2l1.8-1.8c-2.7,0.6-9.1-2.7-11.7-3.5c-3.5-1.1-7.1-2-10.6-2.9c-7.7-1.9-15.6-3.3-23.4-4.5
	c-15.2-2.2-30.5-3.2-45.8-3.9c-7.7-0.3-15.4-0.6-23.2-0.8c-3.6-0.1-8.2,0.5-11.7-0.5c-4.3-1.2-5.8-9.1-7.1-13.1l-17-48.3
	C371.1,274.3,366.3,275.5,367.2,278.6L367.2,278.6L367.2,278.6z"/>
<path class="st7" d="M173.6,12.1l22.9,24l10.8,11.3l6.1,6.3l2.7,2.8l1.3,1.4c0.8,1.3,1.9,1.1,3.1-0.8c-2.6-1.8-5.2,2.5-2.5,4.3
	c1.6,1,3.7,0.6,4.7-0.9c0.5-0.7,0.7-1.5,0.5-2.4c-0.3-2.5-2.8-4.2-4.3-5.9l-8.7-9.2L177.1,8.6C174.9,6.3,171.3,9.8,173.6,12.1
	L173.6,12.1L173.6,12.1z"/>
<path class="st7" d="M177.1,7.5c-22.5-6.4-45.7-2.3-68.5-0.2c-24.4,2.3-48.9,2.9-73.4,1.8c-3.2-0.1-3.2,4.9,0,5
	c23.8,1,47.7,0.5,71.5-1.7c22.9-2.1,46.4-6.7,69.1-0.2C178.8,13.2,180.1,8.4,177.1,7.5L177.1,7.5L177.1,7.5z"/>
<path class="st7" d="M150.2,161.9c-49.2-2.8-98.6-2.3-147.8,1.6c-3.2,0.2-3.2,5.3,0,5c49.2-3.9,98.6-4.5,147.8-1.6
	C153.4,167.1,153.4,162.1,150.2,161.9L150.2,161.9z"/>
<path class="st7" d="M198.9,277.3l-17,48.3c-1.3,3.8-2.4,10.8-6.1,12.9c-2.8,1.6-9.6,0.6-12.7,0.7c-7.7,0.2-15.4,0.5-23.2,0.8
	c-15.3,0.5-30.6,1.8-45.8,3.9c-7.9,1.1-15.7,2.6-23.4,4.5c-3.6,0.9-7.1,1.8-10.6,2.9c-1.8,0.5-3.5,1.1-5.3,1.7
	c-1.7,0.6-4.6,2.3-6.5,1.9l1.8,1.8v-0.2l-1.8,1.8l0.7-0.1c3.2-0.5,1.8-5.3-1.3-4.8c-4.9,0.7-2.7,7.1,1.9,6.8
	c4.4-0.3,9.4-3.1,13.6-4.3c4.7-1.3,9.4-2.5,14.2-3.6c19.3-4.2,39.1-5.8,58.9-6.8c9.6-0.5,19.1-0.7,28.7-1c6.8-0.2,14.8,1,18-6.5
	c4.1-9.5,7-19.6,10.4-29.3l10.5-29.7C204.8,275.6,200,274.3,198.9,277.3L198.9,277.3L198.9,277.3z"/>
<g class="st8">
	<path class="st7" d="M456.4,62.1c0,2.6-0.6,6.3-1.8,11.1c-0.3,1-0.6,2.1-0.9,3.6c-0.3,1.4-0.6,2.6-0.8,3.4
		c-0.2,0.9-0.5,1.7-0.7,2.6c-0.5,1.7-0.9,2.6-1.4,2.6c-0.3,0-0.7-0.2-1.1-0.7s-0.6-1-0.6-1.5c0-0.5,0.3-1.8,0.8-3.7
		c0.5-2,1.1-4.7,1.7-8.1s1.1-7,1.3-10.8c0.1-0.7,0.3-1.1,0.8-1.1c0.5,0,1.1,0.3,1.7,1S456.4,61.6,456.4,62.1z"/>
	<path class="st7" d="M473.9,59.7c3.5,0,5.3,0.4,5.3,1.1c0,0.5-2.1,1.1-6.2,1.8c-1.8,0.3-3,0.5-3.4,0.6c-0.5,0.1-1,0.7-1.7,1.9
		c-0.6,1.2-1,2-1,2.5c0,0.5,0.3,1.1,0.8,1.6c0.5,0.6,1.1,1.1,1.9,1.7s1.5,1.1,2.2,1.7c1.7,1.4,2.6,2.7,2.6,4c0,2-1,3.9-2.9,5.6
		c-1.9,1.7-3.9,2.6-6,2.6c-1.7,0-3.1-0.6-4.5-1.7c-1.3-1.1-2-2.2-2-3.3c0-0.7,0.2-1,0.6-1c0.1,0,0.5,0.3,1,0.8
		c1.6,1.6,3.1,2.4,4.3,2.4s2.5-0.6,4-1.7s2.1-2.3,2.1-3.4c0-1-0.9-2.2-2.7-3.4c-0.7-0.5-1.4-1-2.2-1.6s-1.4-1.2-1.9-1.9
		c-0.5-0.7-0.8-1.6-0.8-2.6c0-1,0.6-2.4,1.7-4.1c1.1-1.8,2-2.8,2.7-2.9C469.4,59.9,471.4,59.7,473.9,59.7z"/>
	<path class="st7" d="M485.6,58.7c0,1.5-0.7,3-2.1,4.6c-1.4,1.5-2.5,2.3-3.4,2.3c-0.6,0-1-0.3-1-0.8c0-0.3,0.3-0.7,0.8-1.2
		c0.5-0.5,1.1-1.1,1.6-1.8c0.6-0.7,0.8-1.3,0.8-1.9c0-0.6-0.1-1-0.3-1.3s-0.4-0.5-0.7-0.6c-0.7-0.3-1-0.7-1-1.1s0.2-0.8,0.6-1.2
		c0.4-0.3,0.8-0.5,1.3-0.5c0.9,0,1.7,0.3,2.4,1S485.6,57.6,485.6,58.7z"/>
</g>
<g class="st8">
	<path class="st7" d="M458.7,261.8c1.3,0.8,1.9,1.8,1.9,3.2c0,1.3-0.8,2.6-2.3,3.9c-1.5,1.3-3.4,2.3-5.5,3c-2.2,0.7-4.4,1.1-6.6,1.1
		s-3.3-0.4-3.3-1.2c0-0.2,0.7-0.5,2.1-0.8c1.4-0.3,3-0.7,4.7-1.1c1.7-0.4,3.3-1,4.7-1.9s2.1-1.9,2.1-3c0-0.6-0.4-1.1-1.3-1.5
		c-0.9-0.4-1.8-0.7-2.9-0.8c-2.8-0.4-4.2-0.9-4.2-1.4c0-0.2,0-0.3,0.1-0.4c0.2-0.3,0.8-0.8,1.8-1.4c1-0.6,2.1-1.2,3.1-1.8
		s2-1.3,2.9-2.3c0.9-0.9,1.3-1.9,1.3-2.8c0-1.1-0.6-1.7-1.8-1.7c-1,0-2.2,0.4-3.7,1.2c-1.5,0.8-2.4,1.2-2.6,1.2
		c-0.2,0-0.6-0.3-1.1-0.8c-0.6-0.5-0.8-0.9-0.8-1.2c0-0.7,1-1.5,2.9-2.2c2-0.8,3.7-1.2,5.2-1.2s2.8,0.5,3.8,1.5c1,1,1.6,2.2,1.6,3.5
		s-0.8,2.7-2.3,4.1c-1.5,1.4-3.3,2.5-5.3,3.5C455.7,260.5,457.4,261,458.7,261.8z"/>
	<path class="st7" d="M477.8,263.3c-0.9,2.7-2.2,4.9-3.7,6.8c-1.5,1.9-3,2.8-4.5,2.8s-2.8-0.7-3.9-2c-1.1-1.4-1.6-2.9-1.6-4.6
		c0-2.9,0.5-5.8,1.6-8.8c1.1-3,2.4-5.4,4-7.3c1.6-1.9,3.2-2.8,4.7-2.8s2.7,0.7,3.5,2.1c0.8,1.4,1.2,3.4,1.2,6
		C479.2,258,478.7,260.6,477.8,263.3z M475.9,255.9c0-3.8-0.6-5.7-1.7-5.7c-0.5,0-1.1,0.5-1.9,1.5c-0.8,1-1.5,2.2-2.3,3.7
		c-0.7,1.5-1.4,3.2-1.9,5.1c-0.5,1.9-0.8,3.7-0.8,5.3c0,2.8,0.7,4.1,2.2,4.1c0.7,0,1.5-0.8,2.5-2.3s1.9-3.4,2.6-5.7
		C475.6,259.8,475.9,257.7,475.9,255.9z"/>
	<path class="st7" d="M488.5,246.7c0,1.5-0.7,3-2.1,4.6c-1.4,1.5-2.5,2.3-3.4,2.3c-0.6,0-1-0.3-1-0.8c0-0.3,0.3-0.7,0.8-1.2
		c0.5-0.5,1.1-1.1,1.6-1.8c0.6-0.7,0.8-1.3,0.8-1.9c0-0.6-0.1-1-0.3-1.3s-0.4-0.5-0.7-0.6c-0.7-0.3-1-0.7-1-1.1s0.2-0.8,0.6-1.2
		c0.4-0.3,0.8-0.5,1.3-0.5c0.9,0,1.7,0.3,2.4,1S488.5,245.6,488.5,246.7z"/>
</g>
<g class="st8">
	<path class="st7" d="M283,356.3c0.4,0,0.9,0.3,1.5,0.8c0.6,0.6,0.9,1.1,0.9,1.6c0,2.2-0.7,5.6-2.1,10.2c-1.4,4.6-2.5,7-3.3,7
		c-0.3,0-0.5-0.2-0.8-0.5s-0.4-0.7-0.4-1.1c0-0.4,0.1-1,0.3-1.7c0.2-0.7,0.5-1.7,0.9-3c0.4-1.2,0.7-2.4,1-3.4
		c-2.3,1-4.5,1.5-6.5,1.5c-1.4,0-2.6-0.4-3.5-1.2c-0.9-0.8-1.4-2-1.4-3.4c0-1.1,0.4-2.4,1.2-4c0.8-1.6,1.7-3.1,2.8-4.5
		s2.1-2.6,3.1-3.6c1-1,1.7-1.5,2.1-1.5s0.8,0.1,1.2,0.4c0.4,0.3,0.6,0.6,0.6,1s-0.6,1.3-1.9,2.8c-1.3,1.5-2.5,3.2-3.8,5
		c-1.3,1.8-1.9,3.3-1.9,4.4c0,1.3,0.7,2,2,2c1.2,0,2.6-0.3,4.3-0.9s2.6-0.9,2.6-1c0.3-1.9,0.4-3.8,0.4-5.5
		C282.3,356.7,282.5,356.3,283,356.3z"/>
	<path class="st7" d="M303,349.7c3.5,0,5.3,0.4,5.3,1.1c0,0.5-2.1,1.1-6.2,1.8c-1.8,0.3-3,0.5-3.4,0.6c-0.5,0.1-1,0.7-1.7,1.9
		s-1,2-1,2.5c0,0.5,0.3,1.1,0.8,1.6c0.5,0.6,1.1,1.1,1.9,1.7c0.7,0.5,1.5,1.1,2.2,1.7c1.7,1.4,2.6,2.7,2.6,4c0,2-1,3.9-2.9,5.6
		c-1.9,1.7-3.9,2.6-6,2.6c-1.7,0-3.1-0.6-4.5-1.7c-1.3-1.1-2-2.2-2-3.3c0-0.7,0.2-1,0.6-1c0.1,0,0.5,0.3,1,0.8
		c1.6,1.6,3.1,2.4,4.3,2.4c1.2,0,2.5-0.6,4-1.7c1.4-1.1,2.1-2.3,2.1-3.4c0-1-0.9-2.2-2.7-3.4c-0.7-0.5-1.4-1-2.2-1.6
		c-0.7-0.5-1.4-1.2-1.9-1.9c-0.5-0.7-0.8-1.6-0.8-2.6c0-1,0.6-2.4,1.7-4.1c1.1-1.8,2-2.8,2.7-2.9C298.4,349.9,300.4,349.7,303,349.7
		z"/>
	<path class="st7" d="M314.6,348.7c0,1.5-0.7,3-2.1,4.6s-2.5,2.3-3.4,2.3c-0.6,0-1-0.3-1-0.8c0-0.3,0.3-0.7,0.8-1.2
		c0.5-0.5,1.1-1.1,1.6-1.8c0.6-0.7,0.8-1.3,0.8-1.9c0-0.6-0.1-1-0.3-1.3c-0.2-0.3-0.4-0.5-0.7-0.6c-0.7-0.3-1-0.7-1-1.1
		s0.2-0.8,0.6-1.2c0.4-0.3,0.8-0.5,1.3-0.5c0.9,0,1.7,0.3,2.4,1C314.3,346.7,314.6,347.6,314.6,348.7z"/>
</g>
<g class="st8">
	<path class="st7" d="M97.5,267.3c0,2-1.2,3.9-3.5,5.8c-2.3,1.8-4.8,2.8-7.3,2.8c-1.5,0-2.8-0.5-3.7-1.5c-1-1-1.5-2.4-1.5-4.1
		s0.6-3.8,1.7-6.2c1.1-2.4,2.4-4.6,3.9-6.5c1.5-1.9,2.9-3.5,4.2-4.8c1.4-1.3,2.3-2,2.8-2c0.5,0,1,0.1,1.5,0.4
		c0.5,0.3,0.7,0.5,0.7,0.8s-0.4,0.8-1.2,1.7c-3.2,3.4-5.5,6.1-6.9,8.1c2.7,0.2,4.9,0.9,6.6,2.1C96.6,264.7,97.5,266,97.5,267.3z
		 M87,272.9c1.6,0,3.1-0.6,4.7-1.7c1.5-1.1,2.3-2.3,2.3-3.6c0-0.9-0.6-1.8-1.9-2.5c-1.3-0.8-3-1.3-5.1-1.5c-1.5,2.6-2.2,4.9-2.2,6.9
		c0,0.8,0.2,1.4,0.6,1.8S86.3,272.9,87,272.9z"/>
	<path class="st7" d="M115.4,266.3c-0.9,2.7-2.2,4.9-3.7,6.8c-1.5,1.9-3,2.8-4.5,2.8c-1.5,0-2.8-0.7-3.9-2c-1.1-1.4-1.6-2.9-1.6-4.6
		c0-2.9,0.5-5.8,1.6-8.8c1.1-3,2.4-5.4,4-7.3c1.6-1.9,3.2-2.8,4.7-2.8c1.5,0,2.7,0.7,3.5,2.1c0.8,1.4,1.2,3.4,1.2,6
		C116.8,261,116.3,263.6,115.4,266.3z M113.5,258.9c0-3.8-0.6-5.7-1.7-5.7c-0.5,0-1.1,0.5-1.9,1.5s-1.5,2.2-2.3,3.7
		c-0.7,1.5-1.4,3.2-1.9,5.1c-0.5,1.9-0.8,3.7-0.8,5.3c0,2.8,0.7,4.1,2.2,4.1c0.7,0,1.5-0.8,2.5-2.3c1-1.5,1.9-3.4,2.6-5.7
		C113.2,262.8,113.5,260.7,113.5,258.9z"/>
	<path class="st7" d="M126.1,249.7c0,1.5-0.7,3-2.1,4.6c-1.4,1.5-2.5,2.3-3.4,2.3c-0.6,0-1-0.3-1-0.8c0-0.3,0.3-0.7,0.8-1.2
		c0.5-0.5,1.1-1.1,1.6-1.8c0.6-0.7,0.8-1.3,0.8-1.9c0-0.6-0.1-1-0.3-1.3c-0.2-0.3-0.4-0.5-0.7-0.6c-0.7-0.3-1-0.7-1-1.1
		s0.2-0.8,0.6-1.2c0.4-0.3,0.8-0.5,1.3-0.5c0.9,0,1.7,0.3,2.4,1C125.8,247.7,126.1,248.6,126.1,249.7z"/>
</g>
<g class="st8">
	<path class="st7" d="M100.3,60c2-0.3,3.9-0.4,5.8-0.4c1.9,0,3.1,0.2,3.6,0.5c0.4,0.3,0.8,0.8,1.1,1.5c0.3,0.7,0.5,1.2,0.5,1.7
		s-0.1,0.9-0.3,1.5s-0.6,1.2-1,1.9c-0.4,0.8-0.9,1.5-1.3,2.2c-0.4,0.7-0.9,1.5-1.5,2.4c-0.6,0.9-1.1,1.8-1.7,2.7s-1.4,2.5-2.6,4.8
		c-1.2,2.3-2.1,3.9-2.7,4.8c-0.6,0.9-1,1.4-1.4,1.4c-0.3,0-0.6-0.2-0.9-0.7s-0.4-0.9-0.4-1.3c0-0.8,0.9-2.7,2.7-5.7
		c1.8-3,3.6-6,5.3-8.9c1.8-2.9,2.7-4.6,2.7-5.1c0-0.4-0.4-0.6-1.2-0.6c-0.8,0-2.1,0.1-3.9,0.4c-1.8,0.3-2.9,0.4-3.4,0.4
		c-0.5,0-1-0.3-1.5-1c-0.6-0.7-0.8-1.2-0.8-1.6C97.4,60.6,98.4,60.3,100.3,60z"/>
	<path class="st7" d="M126.4,59.7c3.5,0,5.3,0.4,5.3,1.1c0,0.5-2.1,1.1-6.2,1.8c-1.8,0.3-3,0.5-3.4,0.6c-0.5,0.1-1,0.7-1.7,1.9
		c-0.6,1.2-1,2-1,2.5c0,0.5,0.3,1.1,0.8,1.6c0.5,0.6,1.1,1.1,1.9,1.7c0.7,0.5,1.5,1.1,2.2,1.7c1.7,1.4,2.6,2.7,2.6,4
		c0,2-1,3.9-2.9,5.6c-1.9,1.7-3.9,2.6-6,2.6c-1.7,0-3.1-0.6-4.5-1.7c-1.3-1.1-2-2.2-2-3.3c0-0.7,0.2-1,0.6-1c0.1,0,0.5,0.3,1,0.8
		c1.6,1.6,3.1,2.4,4.3,2.4c1.2,0,2.5-0.6,4-1.7c1.4-1.1,2.1-2.3,2.1-3.4c0-1-0.9-2.2-2.7-3.4c-0.7-0.5-1.4-1-2.2-1.6
		c-0.7-0.5-1.4-1.2-1.9-1.9c-0.5-0.7-0.8-1.6-0.8-2.6c0-1,0.6-2.4,1.7-4.1c1.1-1.8,2-2.8,2.7-2.9C121.8,59.9,123.8,59.7,126.4,59.7z
		"/>
	<path class="st7" d="M138.1,58.7c0,1.5-0.7,3-2.1,4.6c-1.4,1.5-2.5,2.3-3.4,2.3c-0.6,0-1-0.3-1-0.8c0-0.3,0.3-0.7,0.8-1.2
		c0.5-0.5,1.1-1.1,1.6-1.8c0.6-0.7,0.8-1.3,0.8-1.9c0-0.6-0.1-1-0.3-1.3c-0.2-0.3-0.4-0.5-0.7-0.6c-0.7-0.3-1-0.7-1-1.1
		s0.2-0.8,0.6-1.2c0.4-0.3,0.8-0.5,1.3-0.5c0.9,0,1.7,0.3,2.4,1C137.7,56.7,138.1,57.6,138.1,58.7z"/>
</g>
</svg>
