<svg id="Layer_1_copy" data-name="Layer 1 copy" xmlns="http://www.w3.org/2000/svg" viewBox="0 0 570.94 392.45"><defs><style>.cls-1,.cls-2,.cls-3,.cls-4,.cls-5,.cls-6,.cls-7{fill:none;stroke-linecap:round;stroke-linejoin:round;}.cls-1{stroke:#135e70;}.cls-2{stroke:#009cde;}.cls-3{stroke:#058bbc;}.cls-4{stroke:#266a89;}.cls-5{stroke:#317a92;}.cls-6{stroke:#0e4e60;}.cls-7{stroke:#abaaaa;}.cls-8,.cls-9{fill:#2c3886;}.cls-9{font-size:36px;font-family:Kalam;}</style></defs><title>grafica_azul</title><polyline class="cls-1" points="142.67 85.95 143.13 85.68 141.24 88.7 144.8 86.64 139.82 91.43 146.46 87.6 138.22 94.51 148.32 88.67 137.24 96.69 149.73 89.48 136.18 99.09 151.27 90.38 135.41 100.82 152.38 91.02 134.61 102.62 153.55 91.69 133.5 105.32 155.33 92.72 132.93 106.86 156.38 93.33 132.25 108.71 157.64 94.05 131.43 110.93 159.15 94.92 130.74 112.8 160.43 95.66 130.01 114.97 161.94 96.53 129.28 117.41 163.69 97.54 128.47 120.11 165.63 98.66 128.04 121.57 166.68 99.27 127.5 123.39 167.98 100.02 127.13 124.81 169.03 100.62 126.77 126.35 170.18 101.29 126.36 128.12 171.51 102.05 125.76 130.74 173.47 103.19 125.33 132.62 174.89 104 124.89 134.62 176.4 104.88 124.51 136.95 178.23 105.94 124.17 138.99 179.83 106.86 123.88 140.79 181.24 107.67 123.61 142.42 182.52 108.41 123.25 144.64 184.26 109.41 123.02 146.89 186.09 110.47 122.78 149.34 188.09 111.63 122.64 150.78 189.27 112.3 122.5 152.2 190.43 112.97 122.34 153.82 191.76 113.74 122.15 155.98 193.54 114.77 122.11 157.16 194.54 115.35 122.06 158.66 195.82 116.08 122.02 160.03 196.95 116.77 121.97 161.57 196.95 118.28 121.91 163.35 196.95 120.02 121.84 165.52 196.95 122.16 121.82 166.87 196.95 123.49 121.86 168.14 196.95 124.79 121.9 169.29 196.95 125.96 121.96 171.14 196.95 127.84 122.01 172.64 196.95 129.37 122.06 174.27 196.95 131.03 122.1 175.55 196.95 132.33 122.14 176.87 196.95 133.67 122.27 178.56 196.96 135.44 122.39 179.81 196.96 136.76 122.5 180.98 196.96 138 122.66 182.61 196.96 139.72 122.84 184.46 196.96 141.68 123.06 186.62 196.96 143.96 123.27 188.6 196.96 146.05 123.52 190.08 196.96 147.68 123.77 191.61 196.96 149.35 124.03 193.22 196.96 151.11 124.33 195.08 196.96 153.15 124.61 196.75 196.96 154.98 124.89 198.5 196.96 156.9 125.13 199.63 196.96 158.16 125.6 201.65 196.96 160.45 125.92 203.04 196.96 162.03 126.33 204.8 196.96 164.02 126.77 206.72 196.96 166.19 127.17 208.49 196.96 168.2 127.58 210 196.96 169.95 127.89 211.01 196.96 171.13 128.34 212.54 196.96 172.92 128.79 214.05 196.96 174.69 129.27 215.65 196.96 176.57 129.72 217.14 196.96 178.31 130.23 218.85 196.96 180.33 130.63 219.99 196.96 181.69 131.18 221.48 196.96 183.5 131.79 223.14 196.96 185.51 132.33 224.59 196.96 187.27 132.73 225.67 196.96 188.58 133.34 227.32 196.96 190.58 133.8 228.57 196.96 192.1 134.31 229.78 196.96 193.6 135.04 231.43 196.96 195.67 135.56 232.61 196.96 197.16 136.02 233.65 196.96 198.46 136.55 234.85 196.96 199.97 137.28 236.49 196.97 202.03 137.82 237.7 196.97 203.55 138.37 238.87 196.97 205.04 138.86 239.82 196.97 206.27 139.36 240.77 196.97 207.51 139.83 241.69 196.97 208.7 140.43 242.83 196.97 210.19 141.33 244.57 196.97 212.44 142.18 246.21 196.97 214.58 142.78 247.36 196.97 216.08"/><polyline class="cls-2" points="290.26 0.77 290.73 0.5 290.26 2.06 292.8 0.59 290.26 3.61 295.3 0.7 290.26 5.03 297.59 0.8 290.26 7.24 301.06 1 290.26 9.07 303.76 1.28 290.26 10.77 306.26 1.53 290.26 12.31 308.53 1.76 290.26 14.6 311.73 2.2 290.26 16.54 314.36 2.63 290.26 18.2 316.6 2.99 290.26 19.64 318.55 3.31 290.26 21.29 320.67 3.73 290.26 22.57 322.27 4.08 290.26 23.92 323.97 4.46 290.26 25.64 326.11 4.94 290.26 26.97 327.79 5.31 290.26 28.9 330.09 5.9 290.26 30.79 332.29 6.53 290.26 32.22 333.94 7 290.26 33.62 335.57 7.46 290.26 35.76 338.04 8.17 290.26 37.52 339.95 8.83 290.26 39.12 341.68 9.43 290.26 40.41 343.08 9.92 290.26 41.89 344.68 10.47 290.26 43.94 346.89 11.24 290.26 45.39 348.36 11.85 290.26 47.51 350.5 12.73 290.26 49.78 352.8 13.68 290.26 51.46 354.49 14.38 290.26 53.3 356.29 15.18 290.26 55.22 358.11 16.05 290.26 57.2 359.98 16.95 290.26 58.39 361.1 17.48 290.26 60.64 363.24 18.51 290.26 62.88 365.26 19.58 291.81 63.79 366.86 20.46 293.37 64.69 368.46 21.34 294.68 65.45 369.79 22.08 296.23 66.35 371.39 22.96 298.11 67.43 373.22 24.06 299.94 68.49 374.97 25.17 301.7 69.5 376.65 26.23 303.18 70.36 378.06 27.12 304.79 71.29 379.6 28.09 306.76 72.42 381.44 29.31 308.05 73.16 382.58 30.13 309.19 73.83 383.6 30.87 310.78 74.74 385 31.89 312.34 75.64 386.39 32.89 313.85 76.51 387.73 33.86 315.65 77.55 389.33 35.01 316.96 78.31 390.4 35.9 318.86 79.4 391.97 37.19 320.01 80.07 392.93 37.98 321.92 81.17 394.49 39.27 322.96 81.77 395.35 39.97 324.11 82.43 396.3 40.75 325.58 83.28 397.5 41.76 327.09 84.15 398.65 42.83 328.87 85.18 400.02 44.11 330.15 85.92 401 45.02 331.24 86.55 401.83 45.8 332.99 87.56 403.17 47.05 334.76 88.58 404.51 48.3 336.29 89.47 405.63 49.43 337.96 90.43 406.81 50.67 339.31 91.21 407.76 51.69 340.5 91.9 408.61 52.58 341.62 92.54 409.39 53.41 343.44 93.59 410.68 54.77 344.8 94.38 411.64 55.79 346.63 95.43 412.87 57.19 347.67 96.03 413.55 58 349.29 96.97 414.6 59.27 351.19 98.06 415.83 60.74 352.32 98.72 416.57 61.63 354.1 99.74 417.72 63.01 355.25 100.41 418.47 63.91 356.51 101.14 419.25 64.91 358.03 102.01 420.15 66.14 359.61 102.92 421.09 67.43 361.1 103.78 421.97 68.63 362.18 104.4 422.62 69.51 363.69 105.28 423.52 70.74 364.87 105.96 424.22 71.69 366.5 106.9 425.17 73.03 368.36 107.97 426.17 74.59 369.71 108.75 426.91 75.73 371.46 109.77 427.86 77.2 372.99 110.64 428.69 78.48 374.64 111.6 429.58 79.88 376.27 112.54 430.47 81.24"/><polyline class="cls-3" points="378.84 117.05 433.04 85.76 378.84 118.23 433.51 86.67 378.84 119.39 433.98 87.56 378.84 121.55 434.84 89.22 378.84 123.36 435.56 90.61 378.84 124.85 436.16 91.76 378.84 127.01 437.02 93.42 378.84 128.9 437.77 94.88 378.84 130.18 438.22 95.9 378.84 132.13 438.91 97.45 378.84 134.43 439.72 99.29 378.84 136.2 440.34 100.7 378.85 138.09 441.01 102.2 378.85 139.77 441.6 103.54 378.85 140.94 441.99 104.48 378.85 142.55 442.49 105.81 378.85 144 442.93 107 378.85 145.37 443.34 108.13 378.85 146.91 443.81 109.4 378.85 149.15 444.5 111.25 378.85 150.62 444.94 112.46 378.85 152.22 445.43 113.78 378.85 154.42 446 115.65 378.85 156 446.4 116.99 378.85 157.56 446.8 118.33 378.85 159.87 447.39 120.3 378.85 161.53 447.81 121.72 378.85 163.21 448.24 123.14 378.85 164.37 448.53 124.14 378.85 166.57 448.98 126.08 378.85 168.04 449.27 127.38 378.85 169.23 449.52 128.43 378.85 170.64 449.8 129.67 378.85 171.88 450.06 130.77 378.85 173.4 450.36 132.11 378.85 174.67 450.62 133.23 378.85 176.71 450.99 135.06 378.85 178.09 451.2 136.32 378.85 179.8 451.45 137.89 378.85 181.29 451.68 139.25 378.85 182.48 451.86 140.33 378.85 184.13 452.1 141.84 378.85 185.49 452.31 143.08 378.85 186.68 452.48 144.17 378.85 188.67 452.71 146.03 378.85 190.21 452.85 147.48 378.85 192.37 453.05 149.53 378.85 193.8 453.18 150.88 378.85 195.49 453.34 152.48 378.85 197.16 453.5 154.07 378.85 199.04 453.65 155.85 378.85 200.96 453.71 157.74 378.85 202.81 453.77 159.55 378.86 204.63 453.83 161.35 378.86 206.4 453.89 163.08 378.86 208.56 453.96 165.2 378.86 209.88 454 166.49 378.86 211.36 453.95 168 378.86 213.58 453.88 170.27 378.86 215.8 453.81 172.53 379.67 216.82 453.76 174.05 381.33 217.78 453.69 176.01 382.67 218.56 453.64 177.59 384.37 219.54 453.43 179.66 385.8 220.36 453.26 181.41 387.74 221.48 453.03 183.78 389.66 222.59 452.8 186.13 390.81 223.25 452.66 187.54 392.71 224.35 452.32 189.93 394.54 225.4 451.94 192.26 396.08 226.29 451.62 194.23 397.18 226.93 451.38 195.63 398.86 227.9 451.03 197.78 400.19 228.66 450.7 199.5 401.34 229.33 450.35 201.03 402.39 229.94 450.03 202.43 403.51 230.58 449.69 203.93 405.34 231.64 449.12 206.36 406.91 232.54 448.64 208.44 408.61 233.52 447.99 210.79 410.43 234.58 447.23 213.33 411.63 235.26 446.73 215 413.04 236.08 446.14 216.97 414.46 236.9 445.55 218.95 415.47 237.48 445.02 220.43 417.24 238.5 444.06 223.02 418.5 239.23 443.38 224.87 420.06 240.13 442.53 227.15 421.34 240.87 441.83 229.04 423.22 241.95 440.54 231.95 424.92 242.94 439.37 234.6 426.68 243.95 438.16 237.33 427.83 244.61 437.3 239.15 429.67 245.68 435.74 242.17 431.19 246.55 434.45 244.67 432.38 247.24 433.44 246.63"/><polyline class="cls-4" points="145.35 251.86 199.56 220.56 146.41 253.5 201.51 221.68 147.24 254.79 203.04 222.57 148.07 256.07 204.57 223.45 148.74 257.12 205.81 224.17 149.49 258.27 207.18 224.96 150.54 259.91 209.13 226.09 151.15 260.79 210.19 226.7 151.86 261.76 211.4 227.39 152.68 262.87 212.76 228.18 153.48 263.98 214.12 228.97 154.19 264.94 215.32 229.66 155.28 266.43 217.15 230.72 156.37 267.91 218.97 231.77 157.45 269.31 220.73 232.78 158.23 270.26 221.94 233.48 159.1 271.29 223.27 234.24 159.99 272.36 224.64 235.03 161.03 273.61 226.24 235.96 162.1 274.89 227.89 236.91 163.34 276.38 229.8 238.02 164.44 277.59 231.4 238.94 165.28 278.48 232.58 239.62 166.22 279.47 233.91 240.39 167.5 280.83 235.73 241.44 168.49 281.88 237.13 242.25 169.59 283.04 238.69 243.15 170.33 283.82 239.73 243.75 171.67 285.14 241.55 244.8 173.06 286.43 243.36 245.84 174.53 287.81 245.29 246.96 175.82 289 246.97 247.93 177.25 290.34 248.84 249 178.62 291.6 250.62 250.03 180.03 292.77 252.34 251.02 181.19 293.72 253.74 251.83 182.75 295 255.63 252.93 183.74 295.82 256.84 253.62 184.6 296.53 257.88 254.22 185.9 297.6 259.45 255.13 186.96 298.42 260.69 255.85 188.53 299.56 262.46 256.87 189.43 300.21 263.49 257.46 191.16 301.46 265.43 258.58 192.77 302.63 267.24 259.63 194.41 303.81 269.09 260.69 195.87 304.78 270.67 261.6 197.73 305.95 272.61 262.72 199.18 306.87 274.13 263.6 201.08 308.07 276.12 264.75 202.99 309.28 278.12 265.9 204.62 310.24 279.76 266.85 206.5 311.28 281.6 267.91 207.82 312.01 282.9 268.66 209.04 312.68 284.09 269.35 210.13 313.28 285.16 269.97 211.48 314.02 285.55 271.26 212.78 314.68 285.55 272.67 214.69 315.6 285.55 274.68 216.18 316.31 285.55 276.26 218.19 317.28 285.55 278.38 219.32 317.82 285.55 279.58 221.13 318.64 285.55 281.44 223.29 319.52 285.56 283.58 224.76 320.13 285.56 285.03 226.59 320.88 285.56 286.84 228.73 321.77 285.56 288.96 230.13 322.27 285.56 290.27 231.85 322.87 285.56 291.86 233.57 323.47 285.56 293.45 235.93 324.28 285.56 295.63 237.65 324.88 285.56 297.22 240.21 325.62 285.56 299.44 241.61 326.02 285.56 300.65 243.03 326.42 285.56 301.87 244.37 326.8 285.56 303.02 246.3 327.35 285.57 304.68 248.69 327.93 285.57 306.64 251.03 328.45 285.57 308.51 253.72 329.05 285.57 310.66 256.07 329.57 285.57 312.54 258.33 329.96 285.57 314.23 259.96 330.22 285.57 315.43 261.74 330.51 285.57 316.74 263.69 330.82 285.57 318.19 265.27 331.08 285.57 319.36 266.97 331.29 285.57 320.55 268.67 331.47 285.57 321.71 270.48 331.65 285.57 322.94 273.47 331.96 285.58 324.97 276.54 332.22 285.58 327 279.09 332.33 285.58 328.59 282.48 332.48 285.58 330.69 284.37 332.56 285.58 331.86"/><polyline class="cls-5" points="290.25 270.5 376.75 220.56 290.25 272.11 378.14 221.36 290.25 274.38 380.11 222.5 290.25 275.94 381.46 223.28 290.25 277.39 382.71 224 290.25 278.82 383.96 224.72 290.25 280.92 385.78 225.76 290.25 282.88 387.48 226.75 290.25 285.12 389.42 227.86 290.25 286.97 391.02 228.79 290.25 288.17 392.06 229.39 290.25 290.19 393.81 230.4 290.25 292.35 395.68 231.48 290.25 294.4 397.46 232.5 290.25 296.33 399.13 233.47 290.25 297.92 400.51 234.26 290.25 299.93 402.25 235.26 290.25 301.62 403.72 236.11 290.25 303.15 405.04 236.88 290.25 304.94 406.59 237.77 290.25 307.08 408.45 238.84 290.25 309.15 410.24 239.88 290.25 311.27 412.08 240.93 290.25 313.56 414.06 242.08 290.26 315.73 415.95 243.16 290.26 317.36 417.36 243.98 290.26 318.79 418.59 244.69 290.26 320.44 420.03 245.52 290.26 321.76 421.17 246.18 290.26 323.79 422.93 247.19 290.26 325.82 424.69 248.21 290.26 328 426.58 249.3 290.26 329.2 427.62 249.9 290.26 331.32 429.45 250.96 291.37 332.58 429.97 252.56 293.91 332.46 428.61 254.69 296.53 332.33 427.2 256.89 299.32 332.19 425.7 259.23 303.07 331.89 423.51 262.36 306.3 331.53 421.61 264.95 310.53 331.05 419.11 268.36 314.05 330.53 416.77 271.22 318.87 329.66 413.69 274.92 322.14 329.07 411.44 277.51 325.94 328.18 408.74 280.37 330.87 326.95 405.36 283.94 334.71 325.9 402.23 286.91 341.38 323.77 397.39 291.43 351.36 320.02 389.19 298.17 360.7 315.8 381.12 304.01"/><polyline class="cls-6" points="198.47 26.67 213.04 18.26 187.36 34.38 223.87 13.3 178.37 41.7 234.49 9.3 172.56 47.12 242.49 6.75 169.5 50.15 246.32 5.79 166.63 53.18 250.51 4.75 163.84 56.14 254.31 3.9 161.69 58.68 257.61 3.31 159.19 61.69 261.53 2.6 156.27 65.31 266 1.96 154.4 67.86 269.17 1.6 152.86 69.96 271.77 1.3 150.27 73.61 276.19 0.91 148.59 76.23 279.31 0.76 146.32 79.77 283.54 0.55 145.73 81.78 285.55 1.05 146.78 82.38 285.55 2.26 147.95 83.06 285.55 3.62 149.85 84.15 285.55 5.8 151.01 84.82 285.55 7.14 152.57 85.72 285.55 8.94 154.3 86.72 285.55 10.94 155.96 87.67 285.55 12.85 157.43 88.52 285.55 14.55 159.15 89.52 285.55 16.54 160.27 90.16 285.55 17.83 161.36 90.79 285.55 19.08 163.15 91.82 285.55 21.15 164.63 92.67 285.55 22.85 165.72 93.3 285.55 24.11 167.4 94.27 285.56 26.05 169.32 95.38 285.56 28.27 170.63 96.13 285.56 29.78 171.76 96.78 285.56 31.08 173.32 97.69 285.56 32.89 174.87 98.58 285.56 34.67 175.98 99.22 285.56 35.95 177.37 100.02 285.56 37.56 179.3 101.13 285.56 39.79 180.57 101.87 285.56 41.25 181.93 102.65 285.56 42.82 183.64 103.64 285.56 44.79 185.63 104.78 285.56 47.09 186.69 105.39 285.56 48.31 188.13 106.23 285.56 49.98 189.21 106.85 285.56 51.22 190.43 107.55 285.56 52.63 191.66 108.26 285.56 54.05 193.32 109.22 285.56 55.96 195.11 110.25 285.56 58.03 197.07 111.38 285.56 60.29 198.98 112.48 285.56 62.49"/><polyline class="cls-7" points="279.19 131.99 280.68 131.13 279.54 133.93 284.38 131.13 282.62 134.4 288.27 131.13 285.12 134.4 290.77 131.13 288.94 134.4 294.6 131.13 292.49 134.4 298.03 131.2 295.68 134.4 299.29 132.31 297.72 134.4 299.2 133.54"/><polyline class="cls-7" points="284.1 133.91 284.61 133.62 284.1 136.05 288.33 133.61 284.1 138.3 292.24 133.6 284.1 139.74 294.29 133.86 285.15 141.34 294.3 136.06 288.72 141.33 294.3 138.11 291.93 141.32 294.31 139.94"/><polyline class="cls-7" points="278.94 147.76 290.7 140.97 283.5 146.36 292.61 141.1 286.25 145.94 294.24 141.33 289.48 145.75 296.37 141.77 292.35 145.94 298.54 142.37 294.31 146.3 300.15 142.93 296.78 146.9 302.2 143.77 298.81 147.6 303.94 144.64 300.93 148.57 305.83 145.74 302.53 149.37 307.21 146.66 304.25 150.52 308.85 147.86 305.25 151.2 309.71 148.62 306.54 152.29 310.97 149.73 307.33 152.99 311.72 150.45 308.16 153.76 312.45 151.28 309.44 155.25 313.75 152.76 310.22 156.16 314.48 153.7 311 157.18 315.2 154.76 311.92 158.67 316.18 156.21 312.77 160.04 316.96 157.62 313.44 161.49 317.67 159.04 314.04 162.91 318.34 160.42 314.46 163.9 318.7 161.45 314.87 165.42 319.21 162.91 315.33 167.29 319.77 164.73 315.62 168.8 320.07 166.23 315.71 169.91 320.29 167.26 315.85 171.65 320.55 168.94 315.91 172.9 320.63 170.18 315.79 174.73 320.74 171.87 315.51 177.13 320.69 174.14 315.12 179.03 320.58 175.88 314.36 181.53 320.26 178.12 313.73 183.27 319.94 179.68 312.07 186.48 319.21 182.35 310.56 188.71 318.62 184.06 306.78 192.74 317.51 186.54"/><polyline class="cls-7" points="270.06 147.18 276.72 143.33 264.46 152.55 283.94 141.3 261.74 156.37 288.56 140.88 260.66 158.43 272 151.88 259.34 161.4 267.3 156.81 258.45 163.97 265.3 160.01 257.99 166.07 264.08 162.56 257.61 167.91 263.38 164.57 257.41 169.96 262.78 166.86 257.33 171.16 262.51 168.17 257.28 173.39 262.24 170.53 257.37 174.65 262.15 171.89 257.46 175.97 262.15 173.27 257.62 177.41 262.27 174.72 257.85 178.53 262.36 175.93 258.16 180.05 262.57 177.5 258.62 181.8 263.01 179.27 259.27 183.66 263.51 181.22 260.01 185.53 264.29 183.06 260.73 186.97 264.92 184.56 261.56 188.62 265.83 186.16 262.19 189.56 266.43 187.12 262.84 190.53 267.04 188.1 263.85 192.03 268.17 189.54 264.75 193.05 269.05 190.57 265.93 194.39 270.25 191.89 267.21 195.68 271.64 193.12 268.16 196.51 272.6 193.95 269.28 197.5 273.9 194.83 270.92 198.68 275.62 195.97 272.22 199.56 277.13 196.72 274 200.58 279.12 197.63 275.51 201.34 280.87 198.24 276.75 201.95 282.38 198.7 278.32 202.49 284.24 199.08 280.75 203.31 287.45 199.45 282.35 203.64 289.51 199.51 285.2 204.16 294.1 199.02 287.51 204.32 299.87 197.18 290.73 204.3 315.57 189.96 295.26 203.73 312.78 193.61 300.33 202.28 309.01 197.26"/><polyline class="cls-7" points="283.21 155.95 291.72 151.04 286.79 155.11 293.38 151.31 289.19 154.9 294.8 151.66 289.19 156.57 296.67 152.25 289.2 158.42 298.52 153.04 289.21 159.9 299.85 153.76 289.21 161.92 301.54 154.81 289.22 163.8 302.91 155.9 289.23 165.98 304.43 157.2 289.24 167.7 305.42 158.35 289.24 169.84 306.64 159.79 289.25 171.09 307.22 160.72 289.25 172.42 307.83 161.7"/><polyline class="cls-7" points="275.54 155.54 280.86 152.47 271.11 160.23 287.15 150.97 269.23 163.57 291.02 150.98 268.43 165.47 275.47 161.41 267.74 168.08 273.29 164.87 267.39 170.33 272.24 167.53 267.23 172.26 271.69 169.69 267.3 173.84 271.57 171.37 267.45 175.69 272.56 172.74 267.63 176.74 274.57 172.73 268.1 178.67 278.39 172.73 268.42 179.79 280.67 172.72 268.89 180.9 283.05 172.72 269.41 182.12 285.7 172.72 269.91 183.09 287.89 172.71 270.68 184.34 308.38 162.58 271.65 185.8 309.06 164.2 272.94 187.3 309.79 166.02 274.39 188.75 310.28 168.03 275.69 189.86 310.59 169.71 277.37 191.01 310.75 171.74 278.46 191.69 310.8 173.02 279.7 192.32 310.68 174.43 281.79 193.2 310.42 176.67 283.58 193.7 309.98 178.46 286.18 194.22 309.1 180.99 289.34 194.42 307.65 183.85 292.13 194.2 306.08 186.15 297.17 192.8 302.48 189.74"/><polyline class="cls-7" points="259.17 145.8 261.89 144.23 257.63 148.83 265.27 144.42 257.65 151.07 267.13 145.59 258.09 152.26 266.15 147.6 259.18 153.83 262.38 151.99 260.38 154.75 260.87 154.47"/><path class="cls-8" d="M3490.93,457.8L3458,492.31l-8.07,8.45c-1.63,1.71-4.26,3.61-4.86,6-0.74,3,2.35,5.73,5.12,3.82s0.13-6.15-2.52-4.32l2.44,1.51,1.34-1.41a20,20,0,0,0,2.69-2.82l6.05-6.34,11.43-12,22.86-23.95c2.22-2.33-1.31-5.87-3.54-3.54h0Z" transform="translate(-3097.07 -449.22)"/><path class="cls-8" d="M3492.26,461.57c22.63-6.46,46.16-1.87,69.08.2a544.48,544.48,0,0,0,71.48,1.66c3.21-.13,3.22-5.13,0-5a544.26,544.26,0,0,1-73.44-1.84c-22.79-2.14-46-6.26-68.46.16-3.09.88-1.78,5.71,1.33,4.82h0Z" transform="translate(-3097.07 -449.22)"/><path class="cls-8" d="M3517.79,616.13a1084.1,1084.1,0,0,1,147.81,1.63c3.21,0.25,3.19-4.75,0-5a1084.1,1084.1,0,0,0-147.81-1.63c-3.2.18-3.22,5.18,0,5h0Z" transform="translate(-3097.07 -449.22)"/><path class="cls-8" d="M3464.31,727.84l10.48,29.71c3.42,9.71,6.3,19.88,10.38,29.33,3.19,7.4,11.12,6.24,18,6.45,9.58,0.29,19.16.57,28.73,1,19.73,0.94,39.51,2.6,58.85,6.79q7.17,1.55,14.23,3.58c4.23,1.22,9.23,4,13.58,4.35,4.57,0.35,6.76-6,1.9-6.75-3.15-.47-4.51,4.35-1.33,4.82l0.68,0.1-1.75-1.75v0.21l1.75-1.75c-2.73.64-9.06-2.74-11.73-3.54q-5.27-1.58-10.63-2.87c-7.73-1.88-15.57-3.32-23.45-4.46-15.18-2.18-30.49-3.25-45.8-3.91-7.72-.33-15.44-0.56-23.17-0.8-3.63-.11-8.18.45-11.67-0.53-4.32-1.21-5.75-9.13-7.14-13.07l-17-48.28c-1.06-3-5.9-1.72-4.82,1.33h0Z" transform="translate(-3097.07 -449.22)"/><path class="cls-8" d="M3270.62,461.34l22.86,23.95,10.76,11.27,6.05,6.34,2.69,2.82,1.34,1.41q1.25,2,3.11-.8c-2.65-1.83-5.16,2.5-2.52,4.32a3.39,3.39,0,0,0,5.25-3.3c-0.26-2.45-2.76-4.23-4.32-5.86l-8.74-9.16-32.95-34.51c-2.23-2.33-5.76,1.21-3.54,3.54h0Z" transform="translate(-3097.07 -449.22)"/><path class="cls-8" d="M3274.14,456.75c-22.48-6.42-45.67-2.3-68.46-.16a544.26,544.26,0,0,1-73.44,1.84c-3.22-.13-3.21,4.87,0,5a544.48,544.48,0,0,0,71.48-1.66c22.92-2.07,46.45-6.66,69.08-.2,3.1,0.89,4.42-3.94,1.33-4.82h0Z" transform="translate(-3097.07 -449.22)"/><path class="cls-8" d="M3247.28,611.13a1084.1,1084.1,0,0,0-147.81,1.63c-3.19.25-3.21,5.26,0,5a1084.1,1084.1,0,0,1,147.81-1.63c3.21,0.18,3.2-4.82,0-5h0Z" transform="translate(-3097.07 -449.22)"/><path class="cls-8" d="M3295.94,726.51l-17,48.28c-1.33,3.76-2.42,10.78-6.1,12.89-2.75,1.58-9.62.61-12.71,0.7-7.72.23-15.45,0.47-23.17,0.8a458.34,458.34,0,0,0-45.8,3.91c-7.88,1.14-15.71,2.58-23.45,4.46q-5.35,1.3-10.63,2.87-2.64.79-5.26,1.66c-1.73.57-4.62,2.31-6.47,1.88l1.75,1.75v-0.21l-1.75,1.75,0.68-.1c3.17-.47,1.82-5.29-1.33-4.82-4.87.73-2.67,7.1,1.9,6.75,4.35-.33,9.36-3.12,13.58-4.35q7.05-2,14.23-3.58c19.34-4.19,39.11-5.85,58.85-6.79,9.57-.45,19.15-0.73,28.73-1,6.84-.21,14.76,1,18-6.45,4.07-9.45,7-19.62,10.38-29.33l10.48-29.71c1.07-3-3.76-4.35-4.82-1.33h0Z" transform="translate(-3097.07 -449.22)"/><text class="cls-9" transform="translate(446.66 85.49)">15’</text><text class="cls-9" transform="translate(441.66 273.49)">30’</text><text class="cls-9" transform="translate(267.14 375.49)">45’</text><text class="cls-9" transform="translate(79.81 276.51)">60’</text><text class="cls-9" transform="translate(93.81 85.49)">75’</text></svg>