<svg id="Layer_1" data-name="Layer 1" xmlns="http://www.w3.org/2000/svg" viewBox="0 0 1474.52 721.94"><defs><style>.cls-1,.cls-2{fill:none;stroke-miterlimit:10;}.cls-1{stroke:#ce2f3a;stroke-linecap:round;stroke-width:7px;}.cls-2{stroke:#384171;stroke-width:2px;}.cls-3{font-size:40px;fill:#333;font-family:Kalam;}</style></defs><title>graficaequipos</title><path class="cls-1" d="M2085,2216.39c140.2,0,140.2,4,280.4,4s140.2-4,280.4-4,140.2,4,280.41,4,140.2-4,280.41-4,140.2,4,280.41,4" transform="translate(-2016.04 -1556.1)"/><line class="cls-1" x1="199.7" y1="662.29" x2="199.7" y2="717.44"/><line class="cls-1" x1="363.54" y1="663.29" x2="363.54" y2="718.44"/><line class="cls-1" x1="527.37" y1="662.29" x2="527.37" y2="717.44"/><line class="cls-1" x1="691.21" y1="662.29" x2="691.21" y2="717.44"/><line class="cls-1" x1="855.05" y1="662.29" x2="855.05" y2="717.44"/><line class="cls-1" x1="1018.88" y1="662.29" x2="1018.88" y2="717.44"/><line class="cls-1" x1="1182.72" y1="662.29" x2="1182.72" y2="717.44"/><line class="cls-1" x1="1346.55" y1="662.29" x2="1346.55" y2="717.44"/><path class="cls-2" d="M2085,2005.64c140.2,0,140.2,6,280.4,6s140.2-6,280.4-6,140.2,6,280.41,6,140.2-6,280.41-6,140.2,6,280.41,6" transform="translate(-2016.04 -1556.1)"/><path class="cls-2" d="M2085,1790.85c140.2,0,140.2,6,280.4,6s140.2-6,280.4-6,140.2,6,280.41,6,140.2-6,280.41-6,140.2,6,280.41,6" transform="translate(-2016.04 -1556.1)"/><path class="cls-2" d="M2085,1576.06c140.2,0,140.2,6,280.4,6s140.2-6,280.4-6,140.2,6,280.41,6,140.2-6,280.41-6,140.2,6,280.41,6" transform="translate(-2016.04 -1556.1)"/><text class="cls-3" transform="translate(0 457.76)">5</text><text class="cls-3" transform="translate(0 246.27)">10</text><text class="cls-3" transform="translate(0 34.78)">15</text></svg>