<svg id="Layer_1" data-name="Layer 1" xmlns="http://www.w3.org/2000/svg" viewBox="0 0 240.49 240.49"><defs><style>.cls-1{fill:#333;}.cls-2{fill:none;stroke:#333;stroke-miterlimit:10;stroke-width:8px;}</style></defs><title>sonrisa</title><path class="cls-1" d="M4857,908.75a21.38,21.38,0,0,0-21.23,18.88h42.45A21.38,21.38,0,0,0,4857,908.75Z" transform="translate(-4777.7 -854.62)"/><path class="cls-1" d="M4939.37,908.75a21.38,21.38,0,0,0-21.23,18.88h42.45A21.38,21.38,0,0,0,4939.37,908.75Z" transform="translate(-4777.7 -854.62)"/><circle class="cls-2" cx="120.24" cy="120.24" r="116.24"/><path class="cls-1" d="M4869.64,986.32c1.7,0,3.57-3.33,1.45-3.33-1.7,0-3.57,3.33-1.45,3.33h0Z" transform="translate(-4777.7 -854.62)"/><path class="cls-1" d="M4869.8,989.23c25.17-4.44,50.34-8.84,75.47-13.48,8.41-1.55,19-4,27,.49,8.68,5,6.77,16.56-1.06,21.29-9.63,5.83-23.3,3.91-33.89,2.7-12.12-1.39-24.16-3.67-36.37-4.22s-23.85,1.4-35.8,2.94c-10.78,1.39-22.08,2.08-32.47-1.78-5.1-1.9-10-4.74-13.48-9a9.47,9.47,0,0,1-2-2.84q-1.8-.63.18-0.9l1.19-.23c3.08-.57,6.4,0,9.49.15,14.23,0.81,28.46,1.65,42.69,2.4,4.62,0.24,9.79-8.7,3.93-9.05-16.14-1-32.36-2.28-48.52-2.69-8.32-.21-22.47,4.66-17.57,15.91,4.45,10.22,17.66,15.38,27.81,17.15,14.36,2.5,28.79-.86,43-2.54,15.43-1.82,30.41.28,45.7,2.34,13.16,1.77,27.58,4,40.59.23,11-3.22,20.89-12.37,21.33-24.42,0.39-10.72-8.22-17.25-18.12-18.49-6-.76-12.21,0-18.14,1.06-8.41,1.51-16.8,3.15-25.2,4.73-18.15,3.41-36.25,7.11-54.37,10.67-3.89.76-6.83,8.53-1.42,7.57h0Z" transform="translate(-4777.7 -854.62)"/><path class="cls-1" d="M4841.71,979.15l1.71,19.83c0.2,2.26,3.75,2.28,3.55,0l-1.71-19.83c-0.2-2.26-3.75-2.28-3.55,0h0Z" transform="translate(-4777.7 -854.62)"/><path class="cls-1" d="M4865.27,986.43a40.66,40.66,0,0,1-1.25,16.79c-0.63,2.2,2.8,3.15,3.43.95a45,45,0,0,0,1.25-18.68c-0.31-2.26-3.73-1.3-3.43.95h0Z" transform="translate(-4777.7 -854.62)"/><path class="cls-1" d="M4886.75,983.51l3.43,16.32c0.47,2.24,3.9,1.29,3.43-.95l-3.43-16.32c-0.47-2.24-3.9-1.29-3.43.95h0Z" transform="translate(-4777.7 -854.62)"/><path class="cls-1" d="M4914.69,983.13l4.37,20.55c0.48,2.24,3.9,1.29,3.43-.95l-4.37-20.55c-0.48-2.24-3.9-1.29-3.43.95h0Z" transform="translate(-4777.7 -854.62)"/><path class="cls-1" d="M4931.74,981l5.92,25.36c0.52,2.23,3.95,1.28,3.43-.95l-5.92-25.36c-0.52-2.23-3.95-1.28-3.43.95h0Z" transform="translate(-4777.7 -854.62)"/><path class="cls-1" d="M4955.93,968.82a76.24,76.24,0,0,1,3.52,27.8c-0.13,2.29,3.43,2.28,3.55,0a79.14,79.14,0,0,0-3.65-28.74c-0.69-2.17-4.13-1.24-3.43.95h0Z" transform="translate(-4777.7 -854.62)"/><path class="cls-1" d="M4916.2,947.28c15.5-15.22,36.81-15.83,54.31-3.84,1.29,0.88,3.79-1.85,2.5-2.93-17.29-14.54-43.95-11-58.22,5.77-0.9,1.05.54,1.85,1.41,1h0Z" transform="translate(-4777.7 -854.62)"/><path class="cls-1" d="M4875,943.12c-7.91-8.48-20.6-10.13-31.47-7.65-6.38,1.46-24.06,6.32-22.34,15.67,0.43,2.33,3.6.34,3.54-1.39-0.16-4.77,9.12-7.67,12.64-9a43.76,43.76,0,0,1,13-2.72,35.15,35.15,0,0,1,22.57,7c1,0.76,3-.93,2-2h0Z" transform="translate(-4777.7 -854.62)"/><path class="cls-1" d="M4913.49,1037c-5.86,14.34-19.65,3.75-28.55-.36a2.09,2.09,0,0,0-2.17.61,9.57,9.57,0,0,0-2.18,3.2c-1.1,2.43,2.32,2.1,3.18.36l1-1.47-2.17.61c6.63,3,13.29,8.48,21,7.61a14.59,14.59,0,0,0,12.23-10.62c0.45-1.59-1.94-.95-2.35.06h0Z" transform="translate(-4777.7 -854.62)"/></svg>