<svg id="Layer_2" data-name="Layer 2" xmlns="http://www.w3.org/2000/svg" viewBox="0 0 197.71 247.84"><defs><style>.cls-1{fill:none;stroke:#fff;stroke-linecap:round;stroke-linejoin:round;stroke-width:14px;}.cls-2{fill:#cc8f46;}</style></defs><title>chihuahua</title><polygon class="cls-1" points="19.26 37.3 21.17 38.45 23.82 59.23 25.57 62.29 26.9 72.96 27.78 82.23 27.78 82.32 26.42 98.69 24.94 103.14 21.79 103.93 24.75 125.5 22.57 132.46 24.36 142.77 20.93 146.21 13.55 143.44 8.95 143.83 7 146.11 9.39 152.09 12.79 159.31 17.27 164.23 17.68 167.56 21.3 169.82 20.82 174.18 22.21 178.81 20.04 181.85 22.23 188.41 24.73 187.99 25.31 189.15 27.32 187.14 32.62 188.2 34.47 190.97 40.47 194.67 40.02 200.52 43.86 204.78 45.22 213.37 46.41 221.75 56.97 222.59 59.95 226.57 61.15 230.15 62.81 230.98 64.1 235.04 64.1 239.66 75.11 240.84 80.1 237.42 80.1 228 85.55 228 87.97 223.44 84.13 217.09 84.49 213.22 92.1 212.18 92.1 207.93 94.77 206.52 96.61 202 99.52 202 101.55 198.11 110.45 204.25 115.87 204.49 119.86 210.15 126.5 212.05 131.78 208.66 133.41 211.35 134.37 211.59 138.25 209.43 144.27 210.43 146.52 214.01 149.44 215.1 151.35 214.78 159.22 202.55 167.74 201.6 177.21 204.25 167.91 163.22 189.89 121.89 190.71 122.33 190.24 121.12 189.94 121.25 175.15 114.85 174.61 114 174.32 114 173.93 112.75 166.9 108.23 161.17 105.96 153.71 100.07 149.03 97 143.75 92.75 141.69 82.72 137.72 64.22 135.21 59.81 126.18 51.1 120.44 49.75 113.16 40.38 106.27 28.9 95.95 21.55 94.06 20.58 89.1 17.49 89.1 14.22 89.1 11.32 88.03 10.88 81.84 11.43 72.12 7 34.1 7 34.1 22 21.95 22 20.31 35.04 19.26 37.3"/><polygon class="cls-2" points="19.26 37.3 21.17 38.45 23.82 59.23 25.57 62.29 26.9 72.96 27.78 82.23 27.78 82.32 26.42 98.69 24.94 103.14 21.79 103.93 24.75 125.5 22.57 132.46 24.36 142.77 20.93 146.21 13.55 143.44 8.95 143.83 7 146.11 9.39 152.09 12.79 159.31 17.27 164.23 17.68 167.56 21.3 169.82 20.82 174.18 22.21 178.81 20.04 181.85 22.23 188.41 24.73 187.99 25.31 189.15 27.32 187.14 32.62 188.2 34.47 190.97 40.47 194.67 40.02 200.52 43.86 204.78 45.22 213.37 46.41 221.75 56.97 222.59 59.95 226.57 61.15 230.15 63.31 230.98 65.1 235.04 65.1 239.66 76.11 240.84 81.1 237.42 81.1 227 85.55 227 87.97 222.94 84.13 216.84 84.99 213.09 93.1 212.18 93.1 207.93 95.27 206.02 96.61 201 99.52 201 101.55 197.61 110.45 204 115.87 204.36 119.86 210.09 126.5 212.02 131.78 208.65 133.41 211.35 134.37 211.59 138.25 209.42 144.27 210.43 146.52 214.01 149.44 215.1 151.35 214.78 159.22 202.55 167.74 201.6 177.21 204.25 167.91 163.22 189.89 121.89 190.71 122.33 190.24 121.12 189.94 121.25 175.15 114.35 174.61 113 174.32 113 173.93 112.25 166.9 107.98 161.17 105.84 153.71 100.01 149.03 96.97 143.75 92.73 141.69 82.71 137.72 64.21 135.21 59.81 126.18 51.1 120.44 49.75 113.16 40.38 106.27 28.9 95.95 21.55 94.56 20.58 90.1 17.49 90.1 14.22 89.6 11.32 88.28 10.88 81.97 10.93 72.12 6 35.1 6 35.1 21 21.95 21 20.31 34.54 19.26 37.3"/></svg>