<?xml version="1.0" encoding="utf-8"?>
<!-- Generator: Adobe Illustrator 19.2.1, SVG Export Plug-In . SVG Version: 6.00 Build 0)  -->
<svg version="1.1" id="Layer_2" xmlns="http://www.w3.org/2000/svg" xmlns:xlink="http://www.w3.org/1999/xlink" x="0px" y="0px"
	 width="197.7px" height="247.8px" viewBox="0 0 197.7 247.8" style="enable-background:new 0 0 197.7 247.8;" xml:space="preserve"
	>
<style type="text/css">
	.st0{fill:none;stroke:#FFFFFF;stroke-width:14;stroke-linecap:round;stroke-linejoin:round;}
	.st1{fill:#CC8F46;}
</style>
<title>chihuahua</title>
<polygon class="st0" points="19.3,37.3 21.2,38.5 23.8,59.2 25.6,62.3 26.9,73 27.8,82.2 27.8,82.3 26.4,98.7 24.9,103.1 
	21.8,103.9 24.8,125.5 22.6,132.5 24.4,142.8 20.9,146.2 13.6,143.4 8.9,143.8 7,146.1 9.4,152.1 12.8,159.3 17.3,164.2 17.7,167.6 
	21.3,169.8 20.8,174.2 22.2,178.8 20,181.9 22.2,188.4 24.7,188 25.3,189.1 27.3,187.1 32.6,188.2 34.5,191 40.5,194.7 40,200.5 
	43.9,204.8 45.2,213.4 46.4,221.8 57,222.6 60,226.6 61.2,230.1 62.8,231 64.1,235 64.1,239.7 75.1,240.8 80.1,237.4 80.1,228 
	85.6,228 88,223.4 84.1,217.1 84.5,213.2 92.1,212.2 92.1,207.9 94.8,206.5 96.6,202 99.5,202 101.6,198.1 110.4,204.2 115.9,204.5 
	119.9,210.1 126.5,212.1 131.8,208.7 133.4,211.4 134.4,211.6 138.2,209.4 144.3,210.4 146.5,214 149.4,215.1 151.4,214.8 
	159.2,202.6 167.7,201.6 177.2,204.2 167.9,163.2 189.9,121.9 190.7,122.3 190.2,121.1 189.9,121.2 175.1,114.8 174.6,114 
	174.3,114 173.9,112.8 166.9,108.2 161.2,106 153.7,100.1 149,97 143.8,92.8 141.7,82.7 137.7,64.2 135.2,59.8 126.2,51.1 
	120.4,49.8 113.2,40.4 106.3,28.9 95.9,21.5 94.1,20.6 89.1,17.5 89.1,14.2 89.1,11.3 88,10.9 81.8,11.4 72.1,7 34.1,7 34.1,22 
	22,22 20.3,35 "/>
<polygon class="st1" points="19.3,37.3 21.2,38.5 23.8,59.2 25.6,62.3 26.9,73 27.8,82.2 27.8,82.3 26.4,98.7 24.9,103.1 
	21.8,103.9 24.8,125.5 22.6,132.5 24.4,142.8 20.9,146.2 13.6,143.4 8.9,143.8 7,146.1 9.4,152.1 12.8,159.3 17.3,164.2 17.7,167.6 
	21.3,169.8 20.8,174.2 22.2,178.8 20,181.9 22.2,188.4 24.7,188 25.3,189.1 27.3,187.1 32.6,188.2 34.5,191 40.5,194.7 40,200.5 
	43.9,204.8 45.2,213.4 46.4,221.8 57,222.6 60,226.6 61.2,230.1 63.3,231 65.1,235 65.1,239.7 76.1,240.8 81.1,237.4 81.1,227 
	85.6,227 88,222.9 84.1,216.8 85,213.1 93.1,212.2 93.1,207.9 95.3,206 96.6,201 99.5,201 101.6,197.6 110.4,204 115.9,204.4 
	119.9,210.1 126.5,212 131.8,208.6 133.4,211.4 134.4,211.6 138.2,209.4 144.3,210.4 146.5,214 149.4,215.1 151.4,214.8 
	159.2,202.6 167.7,201.6 177.2,204.2 167.9,163.2 189.9,121.9 190.7,122.3 190.2,121.1 189.9,121.2 175.1,114.3 174.6,113 
	174.3,113 173.9,112.2 166.9,108 161.2,105.8 153.7,100 149,97 143.8,92.7 141.7,82.7 137.7,64.2 135.2,59.8 126.2,51.1 120.4,49.8 
	113.2,40.4 106.3,28.9 95.9,21.5 94.6,20.6 90.1,17.5 90.1,14.2 89.6,11.3 88.3,10.9 82,10.9 72.1,6 35.1,6 35.1,21 22,21 
	20.3,34.5 "/>
</svg>
