<?xml version="1.0" encoding="utf-8"?>
<!-- Generator: Adobe Illustrator 19.2.1, SVG Export Plug-In . SVG Version: 6.00 Build 0)  -->
<svg version="1.1" id="Layer_2" xmlns="http://www.w3.org/2000/svg" xmlns:xlink="http://www.w3.org/1999/xlink" x="0px" y="0px"
	 width="31.9px" height="28.6px" viewBox="0 0 31.9 28.6" style="enable-background:new 0 0 31.9 28.6;" xml:space="preserve">
<style type="text/css">
	.st0{fill:none;stroke:#FFFFFF;stroke-width:5;stroke-linecap:round;stroke-linejoin:round;}
	.st1{fill:#5B5C66;}
</style>
<polygon class="st0" points="28.5,6.7 25.3,7.4 21.5,7.9 22.2,4.6 19.4,2.8 15.7,3.7 13.2,2.7 8.7,2.5 5.7,4.7 5.7,7.1 4,8.3 
	3.6,11.2 4.3,13.4 2.5,15.4 2.9,16.2 4.6,17.4 4.1,19.3 4.7,20.3 4.7,22.5 7.6,23.6 9.2,23.4 9.9,19.4 14,20.4 15.7,24.2 17.2,26.1 
	20.4,24.7 24.9,20.6 28.4,22.2 29,23.1 28.1,16.5 29.4,15.2 26.5,12.9 26.9,8.1 27.7,6.8 27.7,5.5 28.5,5.6 "/>
<polygon class="st1" points="28.5,6.7 25.3,7.4 21.5,7.9 22.2,4.6 19.4,2.8 15.7,3.7 13.2,2.7 9.5,2.5 7.2,4.7 7.2,7.1 4.8,8.3 
	4,11.2 4.4,13.4 2.6,15.4 2.9,16.2 4.6,17.4 4.9,19.3 6.2,20.3 6.2,22.5 8.4,23.6 9.6,23.4 10.1,19.4 14.1,20.4 15.8,24.2 
	17.2,26.1 20.5,24.7 24.9,20.6 28.4,22.2 29,23.1 28.1,16.5 29.4,15.2 26.5,12.9 27.7,8.1 29.2,6.8 29.2,5.5 29.3,5.6 "/>
</svg>
