<svg id="Layer_2" data-name="Layer 2" xmlns="http://www.w3.org/2000/svg" viewBox="0 0 31.92 28.61"><defs><style>.cls-1{fill:none;stroke:#fff;stroke-linecap:round;stroke-linejoin:round;stroke-width:5px;}.cls-2{fill:#5b5c66;}</style></defs><title>morelos</title><polygon class="cls-1" points="28.49 6.74 25.28 7.38 21.48 7.86 22.22 4.55 19.39 2.81 15.72 3.66 13.24 2.73 8.71 2.5 5.72 4.68 5.72 7.07 4.04 8.33 3.58 11.18 4.27 13.44 2.5 15.39 2.87 16.22 4.62 17.36 4.11 19.33 4.72 20.32 4.72 22.47 7.63 23.62 9.22 23.36 9.89 19.39 14.02 20.38 15.7 24.21 17.22 26.11 20.44 24.74 24.88 20.62 28.37 22.18 28.96 23.06 28.11 16.5 29.42 15.19 26.55 12.85 26.92 8.11 27.72 6.76 27.72 5.54 28.55 5.58 28.49 6.74"/><polygon class="cls-2" points="28.49 6.74 25.28 7.38 21.48 7.86 22.22 4.55 19.39 2.81 15.72 3.66 13.24 2.73 9.46 2.5 7.22 4.68 7.22 7.07 4.79 8.33 3.95 11.18 4.45 13.44 2.59 15.39 2.92 16.22 4.64 17.36 4.87 19.33 6.22 20.32 6.22 22.47 8.38 23.62 9.59 23.36 10.07 19.39 14.11 20.38 15.75 24.21 17.25 26.11 20.46 24.74 24.89 20.62 28.37 22.18 28.96 23.06 28.11 16.5 29.42 15.19 26.55 12.85 27.67 8.11 29.22 6.76 29.22 5.54 29.3 5.58 28.49 6.74"/></svg>