<svg id="Layer_2" data-name="Layer 2" xmlns="http://www.w3.org/2000/svg" viewBox="0 0 64.52 91.12"><defs><style>.cls-1{fill:none;stroke:#fff;stroke-linecap:round;stroke-linejoin:round;stroke-width:8px;}.cls-2{fill:#5b5c66;}</style></defs><title>nayarit</title><polygon class="cls-1" points="25.07 81.87 21.88 77.42 27.37 77.84 30.22 75.34 33.32 73.96 36.22 75.78 38.02 77.33 41.03 77.63 44.61 82.11 46.88 82.95 49 85.06 49.44 79.46 52 77.34 51.91 75.49 51.91 73.67 49.91 71.63 49.91 68.69 57.6 67.75 60 65.88 60.52 64.54 52.76 58.69 55.75 48.09 53.33 45.89 49.97 42.5 46.77 38.97 48.98 32.96 48.4 32.25 47.71 30.03 44.23 30.03 40.19 25.82 39.55 22.33 38.34 18.82 36.04 17.65 33.24 19.56 29.64 21.63 23.5 18.54 25.86 15.03 29.96 12.72 29.07 10.45 28.58 8.02 21.07 4.26 14.48 4 12.72 5.96 14.46 8.41 11.34 9.57 10.28 12.33 12.29 14.34 13.59 17.67 13.95 20.2 10.77 23.39 7.95 21.98 5.74 21.73 4.44 23.67 4 23.28 5.95 26.86 5.48 40.14 10.65 48.21 12.43 53.98 20.55 57.79 21.24 60.57 18.85 64.39 19.76 68.46 17.68 74.86 13.91 76.24 13.91 83.72 20.53 83.05 18.78 85.81 19.95 85.65 20.95 87.12 23.93 83.57 25.07 81.87"/><polygon class="cls-2" points="25.07 81.87 21.88 77.42 27.37 77.84 30.22 75.34 33.32 73.96 36.22 75.78 38.02 77.33 41.03 77.63 44.61 82.11 46.88 82.95 49 85.06 49.44 79.46 52.5 77.34 52.91 75.49 52.91 73.67 50.91 71.63 50.91 68.69 58.1 67.75 60.25 65.88 60.65 64.54 52.82 58.69 55.78 48.09 53.35 45.89 49.98 42.5 46.78 38.97 48.98 32.96 48.41 31.75 47.71 29.03 44.23 29.03 40.19 25.32 39.55 22.08 38.34 18.69 36.04 17.59 33.24 19.53 29.64 21.61 23.5 18.53 25.86 15.02 29.96 12.72 29.07 10.45 28.58 8.02 21.07 4.26 14.48 4 12.72 5.96 14.46 8.41 11.34 9.57 10.28 12.33 12.29 14.34 13.59 17.67 13.95 20.2 10.77 23.39 7.95 21.98 5.74 21.73 4.44 23.67 4 23.28 5.95 26.86 5.48 40.14 10.65 48.21 12.43 53.98 20.55 57.79 21.24 60.57 18.85 64.39 19.76 68.46 18.18 74.86 14.91 76.24 14.91 83.72 21.03 83.05 19.03 85.81 20.07 85.65 21.02 87.12 23.96 83.57 25.07 81.87"/></svg>