<?xml version="1.0" encoding="utf-8"?>
<!-- Generator: Adobe Illustrator 19.2.1, SVG Export Plug-In . SVG Version: 6.00 Build 0)  -->
<svg version="1.1" id="Layer_2" xmlns="http://www.w3.org/2000/svg" xmlns:xlink="http://www.w3.org/1999/xlink" x="0px" y="0px"
	 width="64.5px" height="91.1px" viewBox="0 0 64.5 91.1" style="enable-background:new 0 0 64.5 91.1;" xml:space="preserve">
<style type="text/css">
	.st0{fill:none;stroke:#FFFFFF;stroke-width:8;stroke-linecap:round;stroke-linejoin:round;}
	.st1{fill:#5B5C66;}
</style>
<polygon class="st0" points="25.1,81.9 21.9,77.4 27.4,77.8 30.2,75.3 33.3,74 36.2,75.8 38,77.3 41,77.6 44.6,82.1 46.9,82.9 
	49,85.1 49.4,79.5 52,77.3 51.9,75.5 51.9,73.7 49.9,71.6 49.9,68.7 57.6,67.8 60,65.9 60.5,64.5 52.8,58.7 55.8,48.1 53.3,45.9 
	50,42.5 46.8,39 49,33 48.4,32.2 47.7,30 44.2,30 40.2,25.8 39.5,22.3 38.3,18.8 36,17.6 33.2,19.6 29.6,21.6 23.5,18.5 25.9,15 
	30,12.7 29.1,10.4 28.6,8 21.1,4.3 14.5,4 12.7,6 14.5,8.4 11.3,9.6 10.3,12.3 12.3,14.3 13.6,17.7 13.9,20.2 10.8,23.4 7.9,22 
	5.7,21.7 4.4,23.7 4,23.3 5.9,26.9 5.5,40.1 10.6,48.2 12.4,54 20.5,57.8 21.2,60.6 18.9,64.4 19.8,68.5 17.7,74.9 13.9,76.2 
	13.9,83.7 20.5,83.1 18.8,85.8 20,85.7 21,87.1 23.9,83.6 "/>
<polygon class="st1" points="25.1,81.9 21.9,77.4 27.4,77.8 30.2,75.3 33.3,74 36.2,75.8 38,77.3 41,77.6 44.6,82.1 46.9,82.9 
	49,85.1 49.4,79.5 52.5,77.3 52.9,75.5 52.9,73.7 50.9,71.6 50.9,68.7 58.1,67.8 60.2,65.9 60.7,64.5 52.8,58.7 55.8,48.1 
	53.3,45.9 50,42.5 46.8,39 49,33 48.4,31.8 47.7,29 44.2,29 40.2,25.3 39.5,22.1 38.3,18.7 36,17.6 33.2,19.5 29.6,21.6 23.5,18.5 
	25.9,15 30,12.7 29.1,10.4 28.6,8 21.1,4.3 14.5,4 12.7,6 14.5,8.4 11.3,9.6 10.3,12.3 12.3,14.3 13.6,17.7 13.9,20.2 10.8,23.4 
	7.9,22 5.7,21.7 4.4,23.7 4,23.3 5.9,26.9 5.5,40.1 10.6,48.2 12.4,54 20.5,57.8 21.2,60.6 18.9,64.4 19.8,68.5 18.2,74.9 
	14.9,76.2 14.9,83.7 21,83.1 19,85.8 20.1,85.7 21,87.1 24,83.6 "/>
</svg>
