<svg id="Layer_2" data-name="Layer 2" xmlns="http://www.w3.org/2000/svg" viewBox="0 0 167.68 117.51"><defs><style>.cls-1{fill:none;stroke:#fff;stroke-linecap:round;stroke-linejoin:round;stroke-width:10px;}.cls-2{fill:#ef3011;}</style></defs><title>oaxaca</title><polygon class="cls-1" points="156.56 86.06 157.61 83.1 154.1 77.16 157.23 70.46 156.22 66.2 158.92 65.3 161.58 63.53 161.14 59.56 162.68 58.68 162.38 55.24 125.94 56.56 126.36 53.58 127.06 52.7 126.64 51.42 122.9 52.08 115.09 46.44 111 42.66 111 39.17 114.5 38.27 114.9 38.19 113 37.53 111.38 39.26 109.13 39.88 105.24 45.64 102.32 45.93 101.41 45.47 99.03 47.85 94.47 43.23 91.09 37.46 93.1 34.44 94.05 31.32 92.37 31.8 90.57 31.13 85.75 32 82.99 30.78 82.16 24.4 80.84 22.89 77.07 19.36 75.98 17.32 72 15.53 72 13.41 71.5 12.04 70.69 9.11 67.06 6.88 64.64 5.2 63.89 5 66.26 9.25 62.63 16.97 60.09 20.75 58.48 22.91 54.88 23.13 52.72 25.08 50.03 25.38 48.93 24.5 45.04 24.87 39.42 29.08 38.18 33.28 34.92 32.88 33.54 27.35 30.02 25.01 31.12 19.74 30.58 19.33 28.55 21.37 26.87 21.55 24.11 26.85 26 29.33 26 32.74 25.54 36.27 22.26 36.27 20.31 33.54 11.89 33.23 11.07 36.82 8.6 34.77 6.2 36.31 5 37.49 5 40.69 5.62 49.55 8.22 52.54 10.06 56.67 10.55 59.02 12.94 60.28 14.29 64.47 17.39 66.45 19.2 73.87 20.2 75.37 19.38 79.5 15.88 81.47 15.42 83.57 8.78 85.56 7.09 89.77 5.24 90.96 17.73 94.5 22.07 98.27 19.19 98.27 26.14 100.86 26.38 100.77 29.09 102.36 50.91 104.14 62.4 109.83 71.76 112.14 74.44 112.51 75.8 110.7 85.06 110.21 93.1 105.5 110.95 98.92 116.18 93.21 119.76 91.87 120.31 90.22 123.81 90.17 122.13 88.49 123.76 86.03 126.07 85.57 127.43 82.86 130.27 81.44 134.59 85.75 137.01 83.33 141.34 85.5 139.92 89.04 138.8 89.74 142.7 89.77 145.46 90.49 144.14 89.04 145.72 85.1 153.32 88.66 156.04 87.03 157.28 88.77 157.43 88.43 156.56 86.06"/><polygon class="cls-2" points="156.56 86.06 157.61 83.1 154.1 77.16 157.23 70.46 156.22 66.2 158.92 65.3 161.58 63.53 161.14 59.56 162.68 58.68 162.38 55.24 125.94 56.56 126.36 53.58 127.06 52.7 126.64 51.42 122.9 52.08 115.59 46.44 112 42.66 112 39.17 115 38.27 115.15 38.19 113.13 37.53 111.44 39.26 109.16 39.88 105.26 45.64 102.33 45.93 101.41 45.47 99.03 47.85 94.47 43.23 91.1 37.46 93.1 34.44 94.05 31.32 92.37 31.8 90.57 31.13 85.75 32 82.99 30.78 82.16 24.4 80.84 22.89 77.07 19.36 76.48 17.32 73 15.53 73 13.41 72 12.04 70.94 9.11 67.18 6.88 64.7 5.2 63.92 5 66.27 9.25 62.64 16.97 60.1 20.75 58.48 22.91 54.88 23.13 52.72 25.08 50.03 25.38 48.93 24.5 45.04 24.87 39.42 29.08 38.18 33.28 34.92 32.88 33.54 27.35 30.02 25.01 31.12 19.74 30.58 19.33 28.55 21.37 26.87 21.55 24.61 26.85 27 29.33 27 32.74 25.54 35.27 22.26 35.27 20.31 33.04 11.89 32.98 11.07 36.69 8.6 34.71 6.7 36.28 6 37.49 6 40.69 6.12 49.55 8.47 52.54 10.19 56.67 10.62 59.02 12.97 60.28 14.3 64.47 17.4 66.45 19.2 73.87 20.2 75.37 19.38 79.5 15.88 81.47 15.42 83.57 8.78 85.56 7.09 89.77 5.24 90.96 17.73 94 22.07 97.27 19.19 97.27 26.14 100.36 26.38 100.52 29.09 102.23 50.91 104.08 62.4 109.8 71.76 112.13 74.44 112.5 75.8 110.69 85.06 110.21 93.1 105.5 110.95 98.92 116.18 93.21 119.76 91.87 120.31 90.22 123.81 90.17 122.13 88.49 123.76 86.03 126.07 85.57 127.43 82.86 130.27 81.44 134.59 85.75 137.01 83.33 141.34 85.5 139.92 89.04 138.8 89.74 142.7 89.77 145.46 90.49 144.14 89.04 145.72 85.1 153.32 88.66 156.04 87.03 157.28 88.77 157.43 88.43 156.56 86.06"/></svg>