<?xml version="1.0" encoding="utf-8"?>
<!-- Generator: Adobe Illustrator 19.2.1, SVG Export Plug-In . SVG Version: 6.00 Build 0)  -->
<svg version="1.1" id="Layer_2" xmlns="http://www.w3.org/2000/svg" xmlns:xlink="http://www.w3.org/1999/xlink" x="0px" y="0px"
	 width="167.7px" height="117.5px" viewBox="0 0 167.7 117.5" style="enable-background:new 0 0 167.7 117.5;" xml:space="preserve"
	>
<style type="text/css">
	.st0{fill:none;stroke:#FFFFFF;stroke-width:10;stroke-linecap:round;stroke-linejoin:round;}
	.st1{fill:#EF3011;}
</style>
<polygon class="st0" points="156.6,86.1 157.6,83.1 154.1,77.2 157.2,70.5 156.2,66.2 158.9,65.3 161.6,63.5 161.1,59.6 162.7,58.7 
	162.4,55.2 125.9,56.6 126.4,53.6 127.1,52.7 126.6,51.4 122.9,52.1 115.1,46.4 111,42.7 111,39.2 114.5,38.3 114.9,38.2 113,37.5 
	111.4,39.3 109.1,39.9 105.2,45.6 102.3,45.9 101.4,45.5 99,47.8 94.5,43.2 91.1,37.5 93.1,34.4 94.1,31.3 92.4,31.8 90.6,31.1 
	85.8,32 83,30.8 82.2,24.4 80.8,22.9 77.1,19.4 76,17.3 72,15.5 72,13.4 71.5,12 70.7,9.1 67.1,6.9 64.6,5.2 63.9,5 66.3,9.2 
	62.6,17 60.1,20.8 58.5,22.9 54.9,23.1 52.7,25.1 50,25.4 48.9,24.5 45,24.9 39.4,29.1 38.2,33.3 34.9,32.9 33.5,27.4 30,25 
	31.1,19.7 30.6,19.3 28.5,21.4 26.9,21.5 24.1,26.9 26,29.3 26,32.7 25.5,36.3 22.3,36.3 20.3,33.5 11.9,33.2 11.1,36.8 8.6,34.8 
	6.2,36.3 5,37.5 5,40.7 5.6,49.5 8.2,52.5 10.1,56.7 10.6,59 12.9,60.3 14.3,64.5 17.4,66.4 19.2,73.9 20.2,75.4 19.4,79.5 
	15.9,81.5 15.4,83.6 8.8,85.6 7.1,89.8 5.2,91 17.7,94.5 22.1,98.3 19.2,98.3 26.1,100.9 26.4,100.8 29.1,102.4 50.9,104.1 
	62.4,109.8 71.8,112.1 74.4,112.5 75.8,110.7 85.1,110.2 93.1,105.5 110.9,98.9 116.2,93.2 119.8,91.9 120.3,90.2 123.8,90.2 
	122.1,88.5 123.8,86 126.1,85.6 127.4,82.9 130.3,81.4 134.6,85.8 137,83.3 141.3,85.5 139.9,89 138.8,89.7 142.7,89.8 145.5,90.5 
	144.1,89 145.7,85.1 153.3,88.7 156,87 157.3,88.8 157.4,88.4 "/>
<polygon class="st1" points="156.6,86.1 157.6,83.1 154.1,77.2 157.2,70.5 156.2,66.2 158.9,65.3 161.6,63.5 161.1,59.6 162.7,58.7 
	162.4,55.2 125.9,56.6 126.4,53.6 127.1,52.7 126.6,51.4 122.9,52.1 115.6,46.4 112,42.7 112,39.2 115,38.3 115.2,38.2 113.1,37.5 
	111.4,39.3 109.2,39.9 105.3,45.6 102.3,45.9 101.4,45.5 99,47.8 94.5,43.2 91.1,37.5 93.1,34.4 94.1,31.3 92.4,31.8 90.6,31.1 
	85.8,32 83,30.8 82.2,24.4 80.8,22.9 77.1,19.4 76.5,17.3 73,15.5 73,13.4 72,12 70.9,9.1 67.2,6.9 64.7,5.2 63.9,5 66.3,9.2 
	62.6,17 60.1,20.8 58.5,22.9 54.9,23.1 52.7,25.1 50,25.4 48.9,24.5 45,24.9 39.4,29.1 38.2,33.3 34.9,32.9 33.5,27.4 30,25 
	31.1,19.7 30.6,19.3 28.5,21.4 26.9,21.5 24.6,26.9 27,29.3 27,32.7 25.5,35.3 22.3,35.3 20.3,33 11.9,33 11.1,36.7 8.6,34.7 
	6.7,36.3 6,37.5 6,40.7 6.1,49.5 8.5,52.5 10.2,56.7 10.6,59 13,60.3 14.3,64.5 17.4,66.4 19.2,73.9 20.2,75.4 19.4,79.5 15.9,81.5 
	15.4,83.6 8.8,85.6 7.1,89.8 5.2,91 17.7,94 22.1,97.3 19.2,97.3 26.1,100.4 26.4,100.5 29.1,102.2 50.9,104.1 62.4,109.8 
	71.8,112.1 74.4,112.5 75.8,110.7 85.1,110.2 93.1,105.5 110.9,98.9 116.2,93.2 119.8,91.9 120.3,90.2 123.8,90.2 122.1,88.5 
	123.8,86 126.1,85.6 127.4,82.9 130.3,81.4 134.6,85.8 137,83.3 141.3,85.5 139.9,89 138.8,89.7 142.7,89.8 145.5,90.5 144.1,89 
	145.7,85.1 153.3,88.7 156,87 157.3,88.8 157.4,88.4 "/>
</svg>
