<?xml version="1.0" encoding="utf-8"?>
<!-- Generator: Adobe Illustrator 19.2.1, SVG Export Plug-In . SVG Version: 6.00 Build 0)  -->
<svg version="1.1" id="Layer_2" xmlns="http://www.w3.org/2000/svg" xmlns:xlink="http://www.w3.org/1999/xlink" x="0px" y="0px"
	 width="71.3px" height="142.1px" viewBox="0 0 71.3 142.1" style="enable-background:new 0 0 71.3 142.1;" xml:space="preserve">
<style type="text/css">
	.st0{fill:none;stroke:#FFFFFF;stroke-width:10;stroke-linecap:round;stroke-linejoin:round;}
	.st1{fill:#DDCF26;}
</style>
<polygon class="st0" points="52.7,12.9 53.7,20.9 48.3,35.3 5,89 8.8,136 11.6,137.1 16.7,128.8 16.7,124.2 21.3,118.7 25.5,117.9 
	29.2,117.9 31.5,114.9 33.3,105.8 36.8,101.2 40,102.6 40.3,115.2 43,117.1 45.2,122.2 46.8,123.8 47.8,124 47.8,124 48.4,118.5 
	49.4,113.2 50,109.1 54.4,91.9 52.5,91.9 49.3,92.7 48.3,86.6 51.6,82.3 51.7,79.3 51.7,79.9 53,79.9 50.5,80.9 47.7,79.1 
	46.8,76.9 47.3,70.9 50.7,66.2 50.7,61.8 50.3,57.1 51.3,47.8 59.3,37.7 64.3,28.6 64.4,25.5 66.3,15.7 65.8,8.8 64.8,7.7 63.2,6.4 
	60.4,5.9 52.3,5 52.4,5.4 "/>
<polygon class="st1" points="52.7,12.9 53.7,20.9 48.3,35.3 5,89 8.8,136 12.1,137.1 17.7,128.8 17.7,124.2 21.8,118.2 25.5,116.9 
	29.2,116.9 31.5,114.4 33.3,105.5 36.8,101.1 40,102.5 40.3,115.2 43,117.1 45.2,122.2 46.8,123.8 47.8,124 47.8,124 48.4,118.5 
	49.4,113.2 50,108.6 54.4,90.9 52.5,90.9 49.3,92.2 48.3,86.3 52.1,82.2 52.7,79.3 52.7,78.9 53,78.9 50.5,80.4 47.7,78.8 
	46.8,76.8 47.8,70.8 51.7,66.2 51.7,61.8 50.8,57.1 51.5,47.8 59.4,37.7 64.4,28.6 64.5,25.5 66.3,15.7 65.8,8.8 64.8,7.7 63.2,6.4 
	60.4,5.9 52.3,5 52.4,5.4 "/>
</svg>
