<svg id="Layer_2" data-name="Layer 2" xmlns="http://www.w3.org/2000/svg" viewBox="0 0 71.33 142.07"><defs><style>.cls-1{fill:none;stroke:#fff;stroke-linecap:round;stroke-linejoin:round;stroke-width:10px;}.cls-2{fill:#ddcf26;}</style></defs><title>quintanaroo</title><polygon class="cls-1" points="52.66 12.94 53.7 20.94 48.32 35.28 5 89 8.75 136 11.56 137.06 16.66 128.84 16.66 124.21 21.32 118.72 25.53 117.86 29.16 117.86 31.48 114.87 33.35 105.75 36.83 101.24 39.99 102.6 40.31 115.24 42.97 117.14 45.22 122.19 46.76 123.85 47.83 124.01 47.83 124.01 48.42 118.53 49.38 113.2 50.01 109.05 54.43 91.86 52.49 91.86 49.28 92.69 48.34 86.55 51.61 82.33 51.66 79.28 51.66 79.86 52.96 79.86 50.55 80.94 47.74 79.06 46.76 76.94 47.29 70.89 50.66 66.18 50.66 61.8 50.32 57.1 51.27 47.84 59.28 37.7 64.33 28.64 64.43 25.49 66.33 15.68 65.75 8.83 64.78 7.69 63.17 6.44 60.43 5.91 52.27 5 52.36 5.38 52.66 12.94"/><polygon class="cls-2" points="52.66 12.94 53.7 20.94 48.32 35.28 5 89 8.75 136 12.06 137.06 17.66 128.84 17.66 124.21 21.82 118.22 25.53 116.86 29.16 116.86 31.48 114.37 33.35 105.5 36.83 101.12 39.99 102.54 40.31 115.21 42.97 117.12 45.22 122.18 46.76 123.85 47.83 124.01 47.83 124.01 48.42 118.53 49.38 113.2 50.01 108.55 54.43 90.86 52.49 90.86 49.28 92.19 48.34 86.3 52.11 82.2 52.66 79.28 52.66 78.86 52.96 78.86 50.55 80.44 47.74 78.81 46.76 76.81 47.79 70.83 51.66 66.18 51.66 61.8 50.82 57.1 51.52 47.84 59.41 37.7 64.39 28.64 64.46 25.49 66.34 15.68 65.76 8.83 64.79 7.69 63.17 6.44 60.43 5.91 52.27 5 52.36 5.38 52.66 12.94"/></svg>