<svg id="Layer_2" data-name="Layer 2" xmlns="http://www.w3.org/2000/svg" viewBox="0 0 209.22 258.2"><defs><style>.cls-1{fill:none;stroke:#fff;stroke-linecap:round;stroke-linejoin:round;stroke-width:12px;}.cls-2{fill:#237eac;}</style></defs><title>sonora</title><polygon class="cls-1" points="198.58 237.11 201.38 230.32 201.04 229.64 198.31 230.09 195.26 220.95 197.45 217.88 196.23 213.8 196.62 210.29 193.26 208.19 192.8 204.54 188.49 199.74 185 192.32 182.14 185.16 185.41 181.34 191.28 180.85 197.86 183.32 199.66 181.52 197.96 171.76 200.15 164.77 197 141.86 200.83 140.9 201.93 137.61 203.22 121.68 202.35 112.61 201.07 102.37 199.33 99.32 196.75 79.1 194.3 77.63 195.83 73.94 197.38 61.44 123.28 61.44 24.39 6 14.65 19.37 10.39 20 7.01 27.1 7.74 28.34 8.65 30.27 8.39 32.9 7.05 35.43 6 35.92 6.21 36.38 15.43 44.68 19.24 45.16 29.75 54.71 35.14 55.95 36.15 54.95 35.19 55.57 37.42 54.44 40.02 54.44 48.3 58.51 48.83 63.79 52.06 65.46 56.01 66.73 59.61 65.46 61.32 68.96 61.86 70.44 64.09 70.44 63.54 71.05 63.54 73.88 63.31 77.72 63.79 78.73 63.68 79.78 62.48 84.26 62.12 88.11 67.54 98.15 67.54 105.44 69.77 105.44 72.15 107.86 71.7 117.23 73.8 117.36 76.32 124.76 82.23 133.07 80.73 137.52 81.05 138.78 81.29 138.95 85.36 138.27 87.44 141.03 85.35 144.84 85.54 146.63 85.54 151.95 87.7 152.28 91.43 157.55 94.54 159.14 94.54 164.04 98.02 167.04 100.35 171.44 109.18 175.45 108.7 177.3 110.91 181.15 118.18 191.08 122.01 190.61 124.04 193.49 126.41 188.76 127.99 192.71 128.82 192.52 133 194.61 132.3 193.78 135.54 195.24 135.54 197.77 132.54 198.25 132.54 199.46 136.35 200.17 134.86 202.14 135.84 202.9 133.6 204.08 134.86 208.97 135.33 215.44 137.46 215.44 138.99 218.08 139.37 217.66 142.17 222.53 149.77 225.44 153.64 225.44 157.59 234.75 155.71 232.76 158.02 237.38 161.51 239.59 162.62 238.79 163.9 238.71 162.26 237.93 165.54 235.73 165.54 237.99 168.23 239.5 170.75 243.44 170.26 243.44 174.77 246.48 175.85 249.71 175.54 252.2 178.43 250.82 178.43 250.78 192.29 243.02 198.58 237.11"/><polygon class="cls-2" points="198.58 237.11 201.38 230.32 201.04 229.64 198.31 230.09 195.26 220.95 197.45 217.88 196.23 213.8 196.62 210.29 193.26 208.19 192.8 204.54 188.49 199.74 185 192.32 182.14 185.16 185.41 181.34 191.28 180.85 197.86 183.32 199.66 181.52 197.96 171.76 200.15 164.77 197 141.86 200.83 140.9 201.93 137.61 203.22 121.68 202.35 112.61 201.07 102.37 199.33 99.32 196.75 79.1 194.3 77.63 195.83 73.44 197.38 60.44 123.28 60.44 24.39 5.5 14.65 19.12 10.39 19.87 7.01 27.04 7.74 28.31 8.65 30.25 8.39 32.89 7.05 35.43 6 35.92 6.21 36.38 15.43 44.68 19.24 45.16 29.75 54.71 35.14 55.95 36.15 54.95 35.19 55.07 37.42 53.44 40.02 53.44 48.3 58.01 48.83 63.54 52.06 65.33 56.01 66.67 59.61 65.43 61.32 68.44 61.86 69.44 64.09 69.44 64.54 71.05 64.54 73.88 63.81 77.72 64.04 78.73 63.8 79.78 62.55 84.26 62.65 88.11 68.54 98.15 68.54 104.44 69.77 104.44 72.15 107.36 71.7 116.98 73.8 117.24 76.32 124.7 82.23 133.04 80.73 137.51 81.05 138.77 81.29 138.94 85.36 138.27 87.44 141.03 85.85 144.84 86.54 146.63 86.54 151.95 88.2 152.28 92.18 157.55 95.54 159.14 95.54 164.04 98.52 167.04 100.6 171.44 109.3 175.45 108.77 177.3 110.94 181.15 118.19 191.08 122.02 190.61 124.05 193.49 126.41 188.76 128 192.71 128.82 192.52 133 194.61 132.8 193.78 136.54 195.24 136.54 197.77 133.54 198.25 133.54 199.46 136.85 200.17 135.11 202.14 135.97 202.9 133.66 204.08 134.89 208.47 135.33 214.44 137.46 214.44 138.99 217.58 139.37 217.41 142.17 221.91 149.77 224.44 153.64 224.44 157.59 234.25 155.71 232.51 158.02 237.26 161.51 239.53 162.62 238.76 163.9 238.7 162.76 237.92 166.54 235.73 166.54 237.99 168.73 239 170.75 242.44 170.26 242.44 174.77 245.98 175.85 249.46 175.54 252.07 178.43 250.76 178.43 250.75 192.29 243 198.58 237.11"/></svg>