<?xml version="1.0" encoding="utf-8"?>
<!-- Generator: Adobe Illustrator 19.2.1, SVG Export Plug-In . SVG Version: 6.00 Build 0)  -->
<svg version="1.1" id="Layer_2" xmlns="http://www.w3.org/2000/svg" xmlns:xlink="http://www.w3.org/1999/xlink" x="0px" y="0px"
	 width="209.2px" height="258.2px" viewBox="0 0 209.2 258.2" style="enable-background:new 0 0 209.2 258.2;" xml:space="preserve"
	>
<style type="text/css">
	.st0{fill:none;stroke:#FFFFFF;stroke-width:12;stroke-linecap:round;stroke-linejoin:round;}
	.st1{fill:#237EAC;}
</style>
<polygon class="st0" points="198.6,237.1 201.4,230.3 201,229.6 198.3,230.1 195.3,220.9 197.4,217.9 196.2,213.8 196.6,210.3 
	193.3,208.2 192.8,204.5 188.5,199.7 185,192.3 182.1,185.2 185.4,181.3 191.3,180.9 197.9,183.3 199.7,181.5 198,171.8 
	200.1,164.8 197,141.9 200.8,140.9 201.9,137.6 203.2,121.7 202.4,112.6 201.1,102.4 199.3,99.3 196.8,79.1 194.3,77.6 195.8,73.9 
	197.4,61.4 123.3,61.4 24.4,6 14.6,19.4 10.4,20 7,27.1 7.7,28.3 8.6,30.3 8.4,32.9 7.1,35.4 6,35.9 6.2,36.4 15.4,44.7 19.2,45.2 
	29.8,54.7 35.1,56 36.2,55 35.2,55.6 37.4,54.4 40,54.4 48.3,58.5 48.8,63.8 52.1,65.5 56,66.7 59.6,65.5 61.3,69 61.9,70.4 
	64.1,70.4 63.5,71.1 63.5,73.9 63.3,77.7 63.8,78.7 63.7,79.8 62.5,84.3 62.1,88.1 67.5,98.2 67.5,105.4 69.8,105.4 72.2,107.9 
	71.7,117.2 73.8,117.4 76.3,124.8 82.2,133.1 80.7,137.5 81.1,138.8 81.3,138.9 85.4,138.3 87.4,141 85.3,144.8 85.5,146.6 
	85.5,151.9 87.7,152.3 91.4,157.6 94.5,159.1 94.5,164 98,167 100.3,171.4 109.2,175.4 108.7,177.3 110.9,181.1 118.2,191.1 
	122,190.6 124,193.5 126.4,188.8 128,192.7 128.8,192.5 133,194.6 132.3,193.8 135.5,195.2 135.5,197.8 132.5,198.2 132.5,199.5 
	136.4,200.2 134.9,202.1 135.8,202.9 133.6,204.1 134.9,209 135.3,215.4 137.5,215.4 139,218.1 139.4,217.7 142.2,222.5 
	149.8,225.4 153.6,225.4 157.6,234.8 155.7,232.8 158,237.4 161.5,239.6 162.6,238.8 163.9,238.7 162.3,237.9 165.5,235.7 
	165.5,238 168.2,239.5 170.8,243.4 170.3,243.4 174.8,246.5 175.9,249.7 175.5,252.2 178.4,250.8 178.4,250.8 192.3,243 "/>
<polygon class="st1" points="198.6,237.1 201.4,230.3 201,229.6 198.3,230.1 195.3,220.9 197.4,217.9 196.2,213.8 196.6,210.3 
	193.3,208.2 192.8,204.5 188.5,199.7 185,192.3 182.1,185.2 185.4,181.3 191.3,180.9 197.9,183.3 199.7,181.5 198,171.8 
	200.1,164.8 197,141.9 200.8,140.9 201.9,137.6 203.2,121.7 202.4,112.6 201.1,102.4 199.3,99.3 196.8,79.1 194.3,77.6 195.8,73.4 
	197.4,60.4 123.3,60.4 24.4,5.5 14.6,19.1 10.4,19.9 7,27 7.7,28.3 8.6,30.2 8.4,32.9 7.1,35.4 6,35.9 6.2,36.4 15.4,44.7 
	19.2,45.2 29.8,54.7 35.1,56 36.2,55 35.2,55.1 37.4,53.4 40,53.4 48.3,58 48.8,63.5 52.1,65.3 56,66.7 59.6,65.4 61.3,68.4 
	61.9,69.4 64.1,69.4 64.5,71.1 64.5,73.9 63.8,77.7 64,78.7 63.8,79.8 62.5,84.3 62.7,88.1 68.5,98.2 68.5,104.4 69.8,104.4 
	72.2,107.4 71.7,117 73.8,117.2 76.3,124.7 82.2,133 80.7,137.5 81.1,138.8 81.3,138.9 85.4,138.3 87.4,141 85.8,144.8 86.5,146.6 
	86.5,151.9 88.2,152.3 92.2,157.6 95.5,159.1 95.5,164 98.5,167 100.6,171.4 109.3,175.4 108.8,177.3 110.9,181.1 118.2,191.1 
	122,190.6 124.1,193.5 126.4,188.8 128,192.7 128.8,192.5 133,194.6 132.8,193.8 136.5,195.2 136.5,197.8 133.5,198.2 133.5,199.5 
	136.9,200.2 135.1,202.1 136,202.9 133.7,204.1 134.9,208.5 135.3,214.4 137.5,214.4 139,217.6 139.4,217.4 142.2,221.9 
	149.8,224.4 153.6,224.4 157.6,234.2 155.7,232.5 158,237.3 161.5,239.5 162.6,238.8 163.9,238.7 162.8,237.9 166.5,235.7 
	166.5,238 168.7,239 170.8,242.4 170.3,242.4 174.8,246 175.9,249.5 175.5,252.1 178.4,250.8 178.4,250.8 192.3,243 "/>
</svg>
