<?xml version="1.0" encoding="utf-8"?>
<!-- Generator: Adobe Illustrator 19.2.1, SVG Export Plug-In . SVG Version: 6.00 Build 0)  -->
<svg version="1.1" id="Layer_2" xmlns="http://www.w3.org/2000/svg" xmlns:xlink="http://www.w3.org/1999/xlink" x="0px" y="0px"
	 width="184.2px" height="193.3px" viewBox="0 0 184.2 193.3" style="enable-background:new 0 0 184.2 193.3;" xml:space="preserve"
	>
<style type="text/css">
	.st0{fill:none;stroke:#FFFFFF;stroke-width:10;stroke-linecap:round;stroke-linejoin:round;}
	.st1{fill:#5862AF;}
</style>
<polygon class="st0" points="152.6,165.3 144,159.4 147.9,159.7 144.9,157.4 135.9,149.3 127.8,148.9 121.7,145.1 108.5,145.1 
	103.2,142.1 102.3,142.1 96.5,139.5 94.2,133.1 91.4,133.1 90.4,130.5 90.1,120.1 88.8,120.1 83.5,115.1 83,109.8 81.1,107.8 
	77.8,95.8 69.9,85.4 52.1,66.7 50.7,61.3 41.1,43.1 40.5,40.2 38,38.8 33.4,30.3 42.6,33 44.6,36.1 45.8,38.5 46.4,40.5 47.4,34.8 
	39.1,27.5 36.1,22.1 35.8,20.9 31,13.6 30.9,13.2 29.6,14.1 26.4,13.6 26.1,9.9 23.1,8.6 20.3,6.9 18.5,5.4 16.9,5 15.6,7 12.9,7.9 
	8.8,6.3 7.8,6.8 7.3,7.5 7.5,7.7 11.9,11.3 14.4,12.6 15.9,14.9 11.3,16.9 11.6,20.8 10,25.1 5.6,25.1 5.6,25.1 9.1,27.6 8.8,30.5 
	6.8,32.2 5,33.5 7,37.8 9.1,39.8 10.2,43.4 10.4,45.6 9.2,47.1 10.5,48.2 12.2,50.3 12.7,50 15.4,48.4 17.5,50.5 19.4,51.2 
	21.5,54.4 20.5,58.3 18.9,61.2 19.5,64.1 18.1,66.2 13.9,63 12.3,63.8 11.8,66.2 15.4,64.7 11.5,71.1 9.6,72.1 8.7,75.3 7.1,76.2 
	8.9,80.1 9.5,80.4 11.1,78.8 14.2,77.3 16.9,74.1 19.1,73.5 22,68.8 25.1,70.1 27,71.6 28.1,69.6 27.1,67.2 28.6,66 29.9,61.5 
	32.1,61.5 33.6,63.3 33.6,66.2 35,69.2 37.4,71 41,71.3 43.7,74.9 40.3,77 38.5,80.1 33.6,80.1 33.6,79.7 35.7,82.7 35.5,85.3 
	36.9,86.3 39.5,85.7 41.2,87.8 43.3,86.2 44.3,82.2 49,82.7 49.7,84.6 56.5,86.9 57.9,89 53.4,91.4 50.4,98.8 48.9,106.2 
	47.6,106.8 47,108.1 49.3,114 56,116.4 59.3,116.1 63.7,119.1 60,121.9 57,122.2 52.5,123.9 52.8,127.2 53.1,132.6 50.6,135.4 
	49.4,138 50.3,139.4 57.6,140 58.2,144.1 59.4,145.6 62,144.7 64.4,142.7 69.1,144.9 70.4,147.9 72.6,143.2 70.2,138.8 71.5,136.6 
	74.2,137.2 76.9,139 81.3,141.6 81.8,144.8 82.6,146.4 82.6,148.2 86.4,150 87.1,152.3 90.6,155.4 92.5,157.4 93.3,163.3 
	94.5,163.8 99.3,162.9 101,163.6 105.6,162.2 103.4,169.3 102,171.4 104.7,176 107.6,178.9 109.6,176.9 111.3,177.7 112.7,177.6 
	116.5,172 119,171.3 121.2,169.1 126.1,170.6 124.9,173.6 121.6,174.5 121.6,175.8 125.1,178.9 131.6,183.8 136.4,183 137.8,187 
	136.8,188.3 171.5,187.1 179.2,181.4 175.5,177.8 177.2,174.1 177.4,172.9 174.5,169.5 170.6,168.1 167.9,167.3 166.5,164.3 
	165.4,164.5 164.9,164.2 162.4,166.5 160.1,162.8 151.5,162.1 "/>
<polygon class="st1" points="152.6,165.3 144,159.4 147.9,159.7 144.9,157.4 135.9,149.3 127.8,148.4 121.7,144.1 108.5,144.1 
	103.2,141.1 102.3,141.1 96.5,138.5 94.2,132.1 91.4,132.1 90.4,129.5 90.1,119.1 88.8,119.1 83.5,114.6 83,109.6 81.1,107.7 
	77.8,95.7 69.9,85.4 52.1,66.7 50.7,61.3 41.1,43.1 40.5,40.2 38,38.8 33.4,30.3 42.6,33 44.6,36.1 45.8,38.5 46.4,40.5 47.4,34.8 
	39.1,27.5 36.1,22.1 35.8,20.9 31,13.6 30.9,13.2 29.6,14.1 26.4,13.6 26.1,9.9 23.1,8.6 20.3,6.9 18.5,5.4 16.9,5 15.6,7 12.9,7.9 
	8.8,6.3 7.8,6.8 7.3,7.5 7.5,7.7 11.9,11.3 14.4,12.6 15.9,14.9 11.3,16.9 11.6,20.3 10,24.1 6.6,24.1 6.6,25.1 9.6,27.6 9.1,30.5 
	6.9,32.2 5.1,33.5 7,37.8 9.1,39.8 10.2,43.4 10.4,45.6 9.2,47.1 10.5,48.2 12.2,50.3 12.7,50 15.4,48.4 17.5,50.5 19.4,51.2 
	21.5,54.4 20.5,58.3 18.9,61.2 19.5,64.1 18.1,66.2 13.9,63 12.3,63.8 11.8,66.2 15.4,64.7 11.5,71.1 9.6,72.1 8.7,75.3 7.1,76.2 
	8.9,80.1 9.5,80.4 11.1,78.8 14.2,77.3 16.9,74.1 19.1,73.5 22,68.8 25.1,70.1 27,71.6 28.1,69.6 27.1,67.2 28.6,66 29.9,61.5 
	32.6,61.5 34.6,63.3 34.6,66.2 35.5,69.2 37.7,71 41.1,71.3 43.8,74.9 40.3,76.5 38.5,79.1 34.6,79.1 34.6,79.7 36.2,82.7 
	35.7,85.3 37,86.3 39.6,85.7 41.2,87.8 43.3,86.2 44.3,82.2 49,82.7 49.7,84.6 56.5,86.9 57.9,89 53.4,91.4 50.4,98.8 48.9,106.2 
	47.6,106.8 47,108.1 49.3,114 56,116.4 59.3,116.1 63.7,119.1 60,121.9 57,122.2 52.5,123.9 52.8,127.2 53.1,132.6 50.6,135.4 
	49.4,138 50.3,139.4 57.6,140 58.2,144.1 59.4,145.6 62,144.7 64.4,142.7 69.1,144.9 70.4,147.9 72.6,143.2 70.2,138.8 71.5,136.6 
	74.2,137.2 76.9,139 81.3,141.6 82.3,144.8 83.6,146.4 83.6,148.2 86.9,150 87.4,152.3 90.8,155.4 92.6,157.4 93.4,163.3 
	94.6,163.8 99.3,162.9 101,163.6 105.6,162.2 103.4,169.3 102,171.4 104.7,176 107.6,178.9 109.6,176.9 111.3,177.7 112.7,177.6 
	116.5,172 119,171.3 121.2,169.1 126.1,170.6 125.4,173.6 122.6,174.5 122.6,175.8 125.6,178.9 131.9,183.8 136.5,183 137.8,187 
	136.8,188.3 171.5,187.1 179.2,181.4 175.5,177.8 177.2,174.1 177.4,172.9 174.5,169.5 170.6,168.1 167.9,167.3 166.5,164.3 
	165.4,164.5 164.9,164.2 162.4,166.5 160.1,162.8 151.5,162.1 "/>
</svg>
