<svg id="Layer_2" data-name="Layer 2" xmlns="http://www.w3.org/2000/svg" viewBox="0 0 184.24 193.34"><defs><style>.cls-1{fill:none;stroke:#fff;stroke-linecap:round;stroke-linejoin:round;stroke-width:10px;}.cls-2{fill:#5862af;}</style></defs><title>veracruz</title><polygon class="cls-1" points="152.62 165.3 144.02 159.38 147.88 159.72 144.88 157.39 135.85 149.29 127.8 148.85 121.69 145.13 108.46 145.13 103.22 142.13 102.31 142.13 96.5 139.5 94.22 133.13 91.4 133.13 90.37 130.53 90.1 120.13 88.82 120.13 83.46 115.06 82.99 109.85 81.14 107.82 77.8 95.76 69.86 85.44 52.13 66.72 50.66 61.33 41.11 43.1 40.48 40.24 38.01 38.85 33.4 30.29 42.59 33.03 44.56 36.06 45.76 38.53 46.41 40.48 47.41 34.78 39.14 27.52 36.12 22.14 35.77 20.94 30.99 13.57 30.9 13.22 29.63 14.07 26.43 13.62 26.12 9.93 23.07 8.59 20.3 6.94 18.53 5.37 16.86 5 15.58 7.04 12.85 7.91 8.8 6.27 7.76 6.79 7.35 7.47 7.51 7.68 11.91 11.32 14.39 12.55 15.89 14.95 11.34 16.87 11.59 20.81 10.02 25.13 5.57 25.13 5.57 25.12 9.13 27.57 8.84 30.51 6.8 32.16 5 33.46 6.97 37.75 9.09 39.83 10.16 43.37 10.44 45.6 9.25 47.08 10.47 48.17 12.2 50.32 12.69 49.96 15.39 48.41 17.51 50.54 19.35 51.15 21.54 54.43 20.46 58.29 18.89 61.17 19.48 64.12 18.08 66.23 13.92 63.03 12.31 63.75 11.76 66.22 15.36 64.67 11.51 71.05 9.61 72.14 8.73 75.33 7.14 76.24 8.94 80.08 9.47 80.39 11.08 78.77 14.23 77.35 16.91 74.07 19.15 73.52 22.01 68.76 25.07 70.11 26.99 71.64 28.13 69.6 27.07 67.15 28.6 66 29.87 61.55 32.08 61.45 33.57 63.32 33.57 66.17 35 69.21 37.4 71.02 40.98 71.32 43.71 74.93 40.3 77.04 38.53 80.13 33.57 80.13 33.57 79.69 35.66 82.74 35.48 85.31 36.92 86.3 39.54 85.69 41.16 87.75 43.31 86.22 44.31 82.25 49.02 82.67 49.66 84.58 56.5 86.92 57.88 89 53.44 91.38 50.42 98.8 48.88 106.17 47.61 106.81 47.05 108.13 49.35 114.01 55.98 116.39 59.32 116.1 63.66 119.13 60.01 121.87 56.96 122.17 52.54 123.89 52.78 127.23 53.1 132.6 50.59 135.41 49.42 137.98 50.33 139.43 57.58 140.03 58.25 144.05 59.42 145.61 62.04 144.73 64.42 142.7 69.12 144.87 70.42 147.85 72.61 143.19 70.18 138.76 71.52 136.55 74.15 137.2 76.91 139.04 81.28 141.57 81.77 144.76 82.57 146.44 82.57 148.24 86.44 149.96 87.12 152.27 90.63 155.36 92.53 157.4 93.35 163.27 94.54 163.78 99.32 162.92 101.02 163.56 105.61 162.25 103.42 169.29 102.03 171.38 104.7 175.97 107.61 178.88 109.59 176.89 111.29 177.74 112.71 177.6 116.52 172.01 119.01 171.33 121.21 169.12 126.09 170.65 124.88 173.63 121.57 174.47 121.57 175.77 125.11 178.91 131.63 183.81 136.37 183.01 137.78 186.97 136.78 188.34 171.5 187.08 179.24 181.43 175.46 177.84 177.22 174.05 177.36 172.9 174.54 169.51 170.65 168.07 167.88 167.33 166.48 164.31 165.38 164.47 164.89 164.22 162.44 166.52 160.06 162.83 151.54 162.06 152.62 165.3"/><polygon class="cls-2" points="152.62 165.3 144.02 159.38 147.88 159.72 144.88 157.39 135.85 149.29 127.8 148.35 121.69 144.13 108.46 144.13 103.22 141.13 102.31 141.13 96.5 138.5 94.22 132.13 91.4 132.13 90.37 129.53 90.1 119.13 88.82 119.13 83.46 114.56 82.99 109.6 81.14 107.69 77.8 95.7 69.86 85.41 52.13 66.7 50.66 61.33 41.11 43.1 40.48 40.24 38.01 38.85 33.4 30.29 42.59 33.03 44.56 36.06 45.76 38.53 46.41 40.48 47.41 34.78 39.14 27.52 36.12 22.14 35.77 20.94 30.99 13.57 30.9 13.22 29.63 14.07 26.43 13.62 26.12 9.93 23.07 8.59 20.3 6.94 18.53 5.37 16.86 5 15.58 7.04 12.85 7.91 8.8 6.27 7.76 6.79 7.35 7.47 7.51 7.68 11.91 11.32 14.39 12.55 15.89 14.95 11.34 16.87 11.59 20.31 10.02 24.13 6.57 24.13 6.57 25.12 9.63 27.57 9.09 30.51 6.93 32.16 5.06 33.46 7.01 37.75 9.11 39.83 10.17 43.37 10.44 45.6 9.25 47.08 10.47 48.17 12.2 50.32 12.69 49.96 15.39 48.41 17.51 50.54 19.35 51.15 21.54 54.43 20.46 58.29 18.89 61.17 19.48 64.12 18.08 66.23 13.92 63.03 12.31 63.75 11.76 66.22 15.36 64.67 11.51 71.05 9.61 72.14 8.73 75.33 7.14 76.24 8.94 80.08 9.47 80.39 11.08 78.77 14.23 77.35 16.91 74.07 19.15 73.52 22.01 68.76 25.07 70.11 26.99 71.64 28.13 69.6 27.07 67.15 28.6 66 29.87 61.55 32.58 61.45 34.57 63.32 34.57 66.17 35.5 69.21 37.65 71.02 41.11 71.32 43.77 74.93 40.33 76.54 38.53 79.13 34.57 79.13 34.57 79.69 36.16 82.74 35.73 85.31 37.04 86.3 39.6 85.69 41.19 87.75 43.32 86.22 44.32 82.25 49.02 82.67 49.66 84.58 56.5 86.92 57.88 89 53.44 91.38 50.42 98.8 48.88 106.17 47.61 106.81 47.05 108.13 49.35 114.01 55.98 116.39 59.32 116.1 63.66 119.13 60.01 121.87 56.96 122.17 52.54 123.89 52.78 127.23 53.1 132.6 50.59 135.41 49.42 137.98 50.33 139.43 57.58 140.03 58.25 144.05 59.42 145.61 62.04 144.73 64.42 142.7 69.12 144.87 70.42 147.85 72.61 143.19 70.18 138.76 71.52 136.55 74.15 137.2 76.91 139.04 81.28 141.57 82.27 144.76 83.57 146.44 83.57 148.24 86.94 149.96 87.37 152.27 90.75 155.36 92.59 157.4 93.38 163.27 94.56 163.78 99.33 162.92 101.03 163.56 105.61 162.25 103.42 169.29 102.03 171.38 104.7 175.97 107.61 178.88 109.59 176.89 111.29 177.74 112.71 177.6 116.52 172.01 119.01 171.33 121.21 169.12 126.09 170.65 125.38 173.63 122.57 174.47 122.57 175.77 125.61 178.91 131.88 183.81 136.49 183.01 137.84 186.97 136.81 188.34 171.52 187.08 179.24 181.43 175.46 177.84 177.22 174.05 177.36 172.9 174.54 169.51 170.65 168.07 167.88 167.33 166.48 164.31 165.38 164.47 164.89 164.22 162.44 166.52 160.06 162.83 151.54 162.06 152.62 165.3"/></svg>