<?xml version="1.0" encoding="utf-8"?>
<!-- Generator: Adobe Illustrator 19.2.1, SVG Export Plug-In . SVG Version: 6.00 Build 0)  -->
<svg version="1.1" id="Layer_2" xmlns="http://www.w3.org/2000/svg" xmlns:xlink="http://www.w3.org/1999/xlink" x="0px" y="0px"
	 width="105px" height="95px" viewBox="0 0 105 95" style="enable-background:new 0 0 105 95;" xml:space="preserve">
<style type="text/css">
	.st0{fill:none;stroke:#FFFFFF;stroke-width:10;stroke-linecap:round;stroke-linejoin:round;}
	.st1{fill:#20BCB4;}
</style>
<polygon class="st0" points="8.1,49 9.4,49.7 12,49.7 13.1,49.9 13.3,51 13.9,51 16.1,51.5 17.1,51.6 17.6,51.3 19.1,49 52.3,90 
	94.9,37.2 100,23.6 99,16 98.7,8.4 98.5,7.5 95,6.9 93.1,6.4 83.2,5 78.4,5.4 75.5,7.3 68.3,7.8 63.8,9.6 60.5,13 55.5,14.5 
	24.2,22.1 13.3,27.2 5,33 5,33.9 6.4,36.7 6.1,38.5 6.9,39.7 "/>
<polygon class="st1" points="8.1,48.5 9.4,48.7 12,48.7 13.1,49.4 13.3,50.8 13.9,50.9 16.1,51.5 17.1,51.6 17.6,51.3 19.1,49 
	52.3,90 94.9,37.2 100,23.6 99,16 98.7,8.4 98.5,7.5 95,6.9 93.1,6.4 83.2,5 78.4,5.4 75.5,7.3 68.3,7.8 63.8,9.6 60.5,13 
	55.5,14.5 24.2,22.1 13.8,27.2 6,33 6,33.9 6.9,36.7 6.3,38.5 7,39.5 "/>
</svg>
