<svg id="Layer_2" data-name="Layer 2" xmlns="http://www.w3.org/2000/svg" viewBox="0 0 104.99 94.97"><defs><style>.cls-1{fill:none;stroke:#fff;stroke-linecap:round;stroke-linejoin:round;stroke-width:10px;}.cls-2{fill:#20bcb4;}</style></defs><title>yucatan</title><polygon class="cls-1" points="8.07 49.01 9.41 49.74 11.99 49.74 13.13 49.86 13.29 51 13.92 51.01 16.11 51.53 17.07 51.63 17.57 51.28 19.09 49 52.31 89.97 94.9 37.16 99.99 23.58 99 15.98 98.7 8.43 98.48 7.51 94.98 6.88 93.06 6.4 83.25 5 78.38 5.44 75.52 7.35 68.27 7.83 63.85 9.61 60.5 12.97 55.49 14.47 24.17 22.06 13.27 27.19 5 33.01 5 33.91 6.41 36.67 6.09 38.55 6.88 39.71 8.07 49.01"/><polygon class="cls-2" points="8.07 48.51 9.41 48.74 11.99 48.74 13.13 49.36 13.29 50.75 13.92 50.88 16.11 51.47 17.07 51.6 17.57 51.26 19.09 48.99 52.31 89.97 94.9 37.16 99.99 23.58 99 15.98 98.7 8.43 98.48 7.51 94.98 6.88 93.06 6.4 83.25 5 78.38 5.44 75.52 7.35 68.27 7.83 63.85 9.61 60.5 12.97 55.49 14.47 24.17 22.06 13.77 27.19 6 33.01 6 33.91 6.91 36.67 6.34 38.55 7 39.46 8.07 48.51"/></svg>