<svg id="Layer_1" data-name="Layer 1" xmlns="http://www.w3.org/2000/svg" viewBox="0 0 946.64 800.22"><defs><style>.cls-1{fill:#394170;}.cls-2{font-size:50px;font-family:Kalam;font-weight:700;}.cls-2,.cls-3{fill:#333;}</style></defs><title>favorito</title><path class="cls-1" d="M4430.41-83.67c21-41.85,63.3-67.82,107.85-78.35,26.52-6.27,54-7.5,81.1-6.21a465,465,0,0,1,77.37,10c47.09,10.31,94,29.39,129.28,63.17,32.53,31.17,55.29,75,55.22,120.7-0.08,50.56-31.22,92.13-63.83,127.87-32.46,35.57-68.36,69.59-111.15,92.44-41.46,22.14-88.93,30.49-134.17,15.09-45.56-15.52-82-50.58-105.91-91.61-12.72-21.84-22.22-45.35-29.42-69.55-7.62-25.62-13.26-52.17-15.7-78.81-4.46-48.73,3.78-101.44,39.49-137.58a109.06,109.06,0,0,1,26.31-19.62c6.86-3.67.76-14.11-6.1-10.44-44.55,23.8-67.54,73-72,121.62-2.72,29.34.72,59,6.47,87.77,5.3,26.5,12.72,52.6,23.19,77.54,19.89,47.41,51.55,90.25,96.39,116.64a170.45,170.45,0,0,0,140.6,15.33c48.49-15.85,89.85-48.74,125.64-84.2,18.49-18.32,36.33-37.59,52.12-58.3s29.24-43.79,35.77-69.21c12.11-47.15-2.06-97.37-30.06-136.17-29.92-41.47-74.44-68.6-122.46-84.44-24.74-8.16-50.33-13.33-76.14-16.69-28.22-3.67-56.91-5.41-85.32-3.14-50.46,4-101.7,22.11-135.61,61.3A140.08,140.08,0,0,0,4420-89.77c-3.49,6.93,6.94,13.06,10.44,6.1h0Z" transform="translate(-3946.6 519.24)"/><path class="cls-1" d="M4212-313.06c5.23-7.28,18.29-4.6,25.79-3.78a244.69,244.69,0,0,1,28,4.81,263.37,263.37,0,0,1,53.47,18.54,274,274,0,0,1,89.63,67.84,256.66,256.66,0,0,1,35.54,53.2c2.6,5.18,10.36.63,7.77-4.54-36.43-72.61-107-126.68-186.18-144.2a263.29,263.29,0,0,0-33.45-5.16c-10.46-.93-21.73-0.52-28.39,8.75-3.39,4.71,4.42,9.21,7.77,4.54h0Z" transform="translate(-3946.6 519.24)"/><path class="cls-1" d="M4456.56-214.91l-45.93,47.85c-2.55,2.66-.86,7.93,3.18,7.68a55.3,55.3,0,0,1,32.78,8.11c2.69,1.65,5.6-.07,6.61-2.69a55.8,55.8,0,0,0-2-44.38c-1.85-3.88-9-2.15-8.39,2.27L4444.5-183c0.73,5.67,9.74,5.74,9,0l-1.67-13.06-8.39,2.27a46.94,46.94,0,0,1,1.09,37.44l6.61-2.69a63.72,63.72,0,0,0-37.32-9.34l3.18,7.68,45.93-47.85c4-4.18-2.34-10.55-6.36-6.36h0Z" transform="translate(-3946.6 519.24)"/><text class="cls-2" transform="matrix(0.92, -0.4, 0.4, 0.92, 79.61, 164.65)">mi favorito<tspan x="-67.65" y="60">i love you forever</tspan></text><path class="cls-3" d="M4378.58-447.84c-7.06-4.64-14-9.49-20.69-14.64-5.84-4.49-11.8-9.44-15.64-15.84-3.67-6.11-5.41-14.11-1.19-20.44,3.12-4.67,8.64-5.23,13.31-2.57,4.21,2.4,6.86,6.71,9.39,10.68,1,1.62,3.63.12,2.59-1.51-4.44-7-11.29-16.1-20.88-13.43-7.12,2-10.38,10.18-9.84,17,0.71,9,6.78,16.67,13.25,22.53,8.61,7.81,18.5,14.42,28.2,20.79,1.62,1.06,3.12-1.53,1.51-2.59h0Z" transform="translate(-3946.6 519.24)"/><path class="cls-3" d="M4367.72-487.52c-0.28-5.82,1.25-33.75,13.17-24.18,6.07,4.87,8.34,15.43,9.59,22.72,3,17.17-.88,35.38-11.79,49.12-1.19,1.5.92,3.63,2.12,2.12,13.85-17.43,17.09-41.4,9.93-62.34-2.26-6.61-7.55-19.26-16.8-16-9.6,3.39-9.6,20.55-9.22,28.54,0.09,1.92,3.09,1.93,3,0h0Z" transform="translate(-3946.6 519.24)"/></svg>