<svg id="Layer_1" data-name="Layer 1" xmlns="http://www.w3.org/2000/svg" viewBox="0 0 205.97 210.84"><defs><style>.cls-1{fill:#333;}.cls-2{fill:none;stroke:#333;stroke-miterlimit:10;stroke-width:5px;}</style></defs><title>griton</title><path class="cls-1" d="M3636,894.93c-5-6-13.49-7.32-20.6-4.53-7.92,3.11-12.88,10.85-15.67,18.53-2.71,7.47-4.25,17.11,1.46,23.62,2.89,3.29,7,5,10.51,7.37,5.32,3.62,7.19,9.12,8.23,15.2,2.68,15.58,5.3,45.85,27.69,43.08,7.58-.94,19.14-4.69,23.52-11.49,5-7.71,1.15-17.84-1.49-25.64-4.29-12.68-9.62-25-15.08-37.18-5-11.26-9.54-22.15-19.56-29.88-1.53-1.18-3,1.43-1.51,2.59,7.45,5.75,11.57,13.49,15.38,21.9,4.11,9.08,8.2,18.18,11.93,27.42,3.35,8.31,6.93,16.9,8.89,25.67,0.94,4.2,1.49,9.09-.76,13-2.42,4.22-7.62,6.16-11.9,7.85-9.48,3.76-19.85,4.9-25.51-5.35-4.29-7.76-6.33-17.29-7.7-26-1-6.61-1.47-13.88-5.72-19.39-4.69-6.07-14.3-7.39-17-15.08-3.06-8.82,1.78-21.22,7.7-27.89,6.38-7.18,18.23-9.93,25-1.73,1.23,1.49,3.35-.65,2.12-2.12h0Z" transform="translate(-3590.27 -787.54)"/><path class="cls-1" d="M3637.29,909.25c-4.55-4.49-9.61-9.34-16.28-10.08-5.49-.61-10.67,1.72-13,6.86-2.73,6-1.54,13.38,1.83,18.82,4.3,6.94,13.38,9.25,15.74,17.5,2.22,7.77,1.91,15.52,5.21,23.13,2.7,6.21,6.62,12.57,12.4,16.35,4.43,2.9,10.23,3.9,14.55.23,4.87-4.13,5-11,3.64-16.74-4.83-19.76-16.25-36.72-23.67-55.4-0.7-1.77-3.61-1-2.89.8,2.82,7.1,6.34,13.83,9.8,20.63a221.74,221.74,0,0,1,10.47,24.57c2.48,6.77,8.88,21.76-1.7,25.24-8.55,2.81-15.81-8.6-18.86-14.75-3.66-7.37-4-14.68-5.53-22.57-1.28-6.63-4.92-10.21-10.17-14.09-6.86-5.07-12.91-15.43-7.41-23.75,6.48-9.82,18.38.06,23.79,5.39a1.5,1.5,0,0,0,2.12-2.12h0Z" transform="translate(-3590.27 -787.54)"/><path class="cls-1" d="M3639.17,915.7c-7.84.58-18.41,3.82-23.45,10.16l1.82-.23-0.28-.15,0.69,1.69,0.05-.25c0.41-1.88-2.48-2.69-2.89-.8l-0.05.25a1.54,1.54,0,0,0,.69,1.69l0.28,0.15a1.53,1.53,0,0,0,1.82-.23c4.56-5.73,14.27-8.76,21.33-9.28,1.91-.14,1.93-3.14,0-3h0Z" transform="translate(-3590.27 -787.54)"/><path class="cls-1" d="M3615.57,916.63l3.9,6.42c1,1.65,3.6.14,2.59-1.51l-3.9-6.42c-1-1.65-3.6-.14-2.59,1.51h0Z" transform="translate(-3590.27 -787.54)"/><path class="cls-1" d="M3623.88,911.21l3.39,6.54c0.89,1.71,3.48.2,2.59-1.51l-3.39-6.54c-0.89-1.71-3.48-.2-2.59,1.51h0Z" transform="translate(-3590.27 -787.54)"/><path class="cls-1" d="M3633.78,910.86a13.94,13.94,0,0,1,1.77,5.65c0.17,1.91,3.17,1.93,3,0a17.55,17.55,0,0,0-2.18-7.17c-0.94-1.68-3.54-.17-2.59,1.51h0Z" transform="translate(-3590.27 -787.54)"/><path class="cls-1" d="M3658,962.78c-5.87,2.76-15.54,7.26-22.16,5.45-1.6-.44-2.71,2-1.16,2.74l1,0.5c1.72,0.87,3.24-1.71,1.51-2.59l-1-.5-1.16,2.74c7.69,2.11,17.62-2.54,24.47-5.76,1.75-.82.22-3.41-1.51-2.59h0Z" transform="translate(-3590.27 -787.54)"/><path class="cls-1" d="M3652.75,968.52l1.87,11.24,1.85-1.85,0.2,0.17c-1.09-1.58-3.69-.08-2.59,1.51a2.61,2.61,0,0,0,1.59,1.21,1.52,1.52,0,0,0,1.85-1.85l-1.87-11.24c-0.32-1.9-3.21-1.09-2.89.8h0Z" transform="translate(-3590.27 -787.54)"/><path class="cls-1" d="M3644.94,971.6l0.48,3.23c0.08,0.54.2,1.08,0.24,1.61l0,0.43q-0.15.71,0.73-.33c-1.93,0-1.93,3,0,3a2.41,2.41,0,0,0,2.27-2.67,44.34,44.34,0,0,0-.88-6.07c-0.29-1.9-3.18-1.09-2.89.8h0Z" transform="translate(-3590.27 -787.54)"/><path class="cls-1" d="M3638.9,970.83a12.57,12.57,0,0,1,.81,6.49c-0.25,1.91,2.75,1.89,3,0a14.44,14.44,0,0,0-.92-7.29c-0.71-1.77-3.61-1-2.89.8h0Z" transform="translate(-3590.27 -787.54)"/><path class="cls-1" d="M3623.48,888.49l-0.24.17,2.05,0.54-0.23-.35-0.54,2.05c0.47-.24,4.26,1.13,5.2,1.3a47.32,47.32,0,0,0,6.71.68,60.17,60.17,0,0,0,14-1.3c9.66-2,18.76-5.95,27.77-9.83l-1.82-.23,1,1.15c1.29,1.44,3.41-.69,2.12-2.12l-1-1.15a1.54,1.54,0,0,0-1.82-.23c-9.32,4-18.79,8.1-28.85,9.87a50.72,50.72,0,0,1-17.32.28c-2.32-.4-5.26-2.16-7.51-1a1.51,1.51,0,0,0-.54,2.05l0.23,0.35a1.52,1.52,0,0,0,2.05.54l0.24-.17c1.58-1.08.09-3.68-1.51-2.59h0Z" transform="translate(-3590.27 -787.54)"/><path class="cls-1" d="M3669.29,989.42c1.53-4.17,6.19-7.9,9.17-11.09,2.68-2.88,5.41-5.72,8.25-8.45a99.6,99.6,0,0,1,21-15.86l-2.05-.54,0.58,1.18c0.23,1.89,3.24,1.91,3,0a4,4,0,0,0-1-2.69,1.54,1.54,0,0,0-2.05-.54,104.85,104.85,0,0,0-22.82,17.5c-3.41,3.35-6.68,6.85-9.9,10.38-2.62,2.87-5.72,5.6-7.08,9.31-0.67,1.81,2.23,2.6,2.89.8h0Z" transform="translate(-3590.27 -787.54)"/><path class="cls-2" d="M3668.16,987.8" transform="translate(-3590.27 -787.54)"/><path class="cls-2" d="M3668.16,987.8a100.27,100.27,0,1,0-46.41-26.67" transform="translate(-3590.27 -787.54)"/><circle class="cls-1" cx="3728.86" cy="838.17" r="12.42" transform="translate(-3635.67 652.16) rotate(-21.72)"/><circle class="cls-1" cx="3636.03" cy="857.6" r="13.35" transform="translate(-3649.46 619.18) rotate(-21.72)"/></svg>