<svg id="Layer_1" data-name="Layer 1" xmlns="http://www.w3.org/2000/svg" viewBox="0 0 214.4 214.4"><defs><style>.cls-1{fill:none;stroke:#333;stroke-miterlimit:10;stroke-width:5px;}.cls-2{fill:#333;}</style></defs><title>ilusionado</title><circle class="cls-1" cx="107.2" cy="107.2" r="104.7"/><path class="cls-2" d="M4253.81,817.33a21.43,21.43,0,1,0,21.43-21.43A21.43,21.43,0,0,0,4253.81,817.33Zm22.75-7.58a5.85,5.85,0,1,1,5.85,5.85A5.85,5.85,0,0,1,4276.56,809.74Z" transform="translate(-4119.32 -755.88)"/><path class="cls-2" d="M4173.81,817.33a21.43,21.43,0,1,0,21.43-21.43A21.43,21.43,0,0,0,4173.81,817.33Zm25.72-7.58a4.8,4.8,0,1,1,4.8,4.8A4.8,4.8,0,0,1,4199.52,809.74Z" transform="translate(-4119.32 -755.88)"/><path class="cls-2" d="M4303.29,846.91s-76,21.7-127.35,18.09c0,0-.84,61.29,75.58,48.68S4303.29,846.91,4303.29,846.91Z" transform="translate(-4119.32 -755.88)"/></svg>