<?xml version="1.0" encoding="utf-8"?>
<!-- Generator: Adobe Illustrator 19.2.1, SVG Export Plug-In . SVG Version: 6.00 Build 0)  -->
<svg version="1.1" id="Layer_1" xmlns="http://www.w3.org/2000/svg" xmlns:xlink="http://www.w3.org/1999/xlink" x="0px" y="0px"
	 width="806.7px" height="286px" viewBox="0 0 806.7 286" style="enable-background:new 0 0 806.7 286;" xml:space="preserve">
<style type="text/css">
	.st0{fill:#333333;}
	.st1{fill:none;stroke:#333333;stroke-width:1.2;stroke-linecap:round;stroke-linejoin:round;}
	.st2{enable-background:new    ;}
</style>
<title>incondicionales</title>
<path class="st0" d="M71.4,285.9c240.1-63.1,492.1-65.3,733.3-6.4c2.1,0.5,3-2.7,0.9-3.2c-241.7-59-494.3-56.8-735,6.4
	C68.5,283.2,69.4,286.4,71.4,285.9L71.4,285.9L71.4,285.9z"/>
<polyline class="st1" points="121.7,190.6 122.6,190.1 122.2,193.1 129.9,188.6 122.8,195.9 132.4,190.4 123.1,197.9 132.8,192.3 
	123.6,200.6 133.3,195 124,202.2 133.6,196.6 124.3,204.2 134,198.6 124.8,206.6 134.4,201 125.2,208.7 134.9,203.1 125.7,211 
	135.3,205.4 126,212.9 135.7,207.3 126.4,214.8 136,209.2 126.8,216.6 136.4,211.1 127.3,219.4 136.9,213.8 127.6,221.1 
	137.3,215.5 128.1,223.4 137.7,217.9 128.5,225.5 138.1,219.9 128.9,227.5 138.5,221.9 129.3,229.8 139,224.2 129.7,231.8 
	139.4,226.2 130.1,234.1 139.8,228.5 130.5,236.1 140.2,230.5 131.1,238.9 140.7,233.4 131.4,240.9 141.1,235.3 131.8,242.6 
	141.5,237.1 132.1,244.3 141.8,238.7 132.5,246.3 142.2,240.7 132.9,248.2 142.5,242.7 133.4,250.9 144.2,244.7 133.9,253.5 
	151.6,243.2 134.3,255.7 158.2,242 140.8,255.1 160.5,243.8 147.3,253.9 160.9,246 152.9,252.8 161.3,247.9 159.6,251.5 
	161.7,250.2 "/>
<polyline class="st1" points="171,190.1 182.5,183.4 175.2,190.7 184.4,185.4 176.4,191.9 185.4,186.7 177.3,193.8 186.4,188.6 
	177.9,196 187.2,190.6 178.2,198.4 187.8,192.9 178.6,200.6 188.3,195 179.1,203.3 188.8,197.7 179.5,205.6 189.2,200.1 
	179.8,207.3 189.4,201.8 180.1,209.2 189.8,203.6 180.4,211 190.1,205.5 180.8,213.4 190.5,207.9 181.2,215.9 190.9,210.3 
	181.5,217.5 191.2,212 181.8,219.2 191.5,213.7 182.3,221.9 191.9,216.3 182.7,224.3 192.4,218.7 183,226.4 192.7,220.8 
	183.4,228.4 193.1,222.8 183.7,230.4 193.4,224.8 184.1,233 193.8,227.3 183.6,236.3 194.2,230.1 "/>
<polyline class="st1" points="160.9,184.5 165.8,181.6 157.5,189.3 172.9,180.3 156.5,193 177.5,180.9 156.4,195.2 179.8,181.7 
	156.5,198.1 168.3,191.3 156.7,199.9 166.8,194 157,201.9 166.8,196.3 157.4,204.3 167.1,198.7 157.8,206.4 167.4,200.8 
	158.2,208.7 167.8,203.1 158.5,210.6 168.2,205.1 158.8,212.6 168.5,207 159.1,214.4 168.8,208.9 159.6,217.3 169.3,211.7 
	159.9,219 169.6,213.4 160.3,221.3 170,215.8 160.7,223.4 170.3,217.8 161,225.4 170.7,219.8 161.4,227.8 171.1,222.2 161.8,229.8 
	171.4,224.2 162.2,232.1 171.8,226.6 162.5,234.1 172.2,228.6 163.2,236.9 172.7,231.4 163.7,238.8 173,233.4 164.4,240.4 
	173.4,235.1 165.1,241.8 174.1,236.6 166.1,243.4 175.2,238.1 167.4,244.8 177.4,239.1 169.6,246.6 194.4,232.2 172.3,247.9 
	194.4,235.1 175.4,248.6 193.9,237.9 181,248.4 192.2,241.9 "/>
<polyline class="st1" points="198.8,224.5 199.5,224.1 199.1,226.4 204.2,223.4 199.3,228.2 208.6,222.8 199.8,230.6 209,225.3 
	200.3,232.4 209.2,227.2 200.9,234 209.6,228.9 201.9,236 210.5,231.1 202.8,237.4 211.6,232.3 204.5,239.4 215.1,233.2 
	206.3,240.8 230.8,226.7 208.1,241.8 230.7,228.7 210.3,242.5 230.6,230.8 215.2,242.8 229.4,234.6 220.5,242 226.9,238.2 "/>
<polyline class="st1" points="208.6,184.1 219.9,177.6 212.9,184.7 221.8,179.6 214.1,185.9 222.6,181 214.9,187.9 223.6,182.9 
	215.4,190.1 224.4,185 215.8,192.5 224.9,187.2 221.2,191.8 225.4,189.4 "/>
<polyline class="st1" points="198.5,178.4 203.3,175.7 195.4,183.1 210.3,174.4 194.4,186.8 214.9,174.9 194.3,189 217.2,175.7 
	194.4,191.9 219.6,177.3 194.5,193.6 204.9,187.7 195,195.6 204.7,190 195.6,197.9 205.1,192.4 196.3,199.8 205.7,194.4 
	197.4,201.8 206.7,196.4 198.4,203.3 207.8,197.8 199.4,204.8 209,199.2 200.7,206.1 210.4,200.5 202.8,208 212.7,202.3 
	204.1,209.1 214.1,203.3 206.1,210.6 216.2,204.7 207.8,211.8 218,206 209.6,213 219.7,207.2 211.6,214.4 221.6,208.7 213.3,215.7 
	223.1,210 215.1,217.2 224.8,211.6 216.6,218.6 226,213.1 218.3,220.8 227.6,215.4 219.1,222.4 228.5,217 219.7,224.1 229.1,218.6 
	220.1,225.7 229.7,220.1 220.3,227.8 230.2,222.1 219.9,230.2 230.5,224 "/>
<polyline class="st1" points="245.2,170.5 246,170.1 245.6,173.2 252.1,169.4 245.9,176.1 255.8,170.4 246.2,178.1 256.1,172.4 
	246.5,180.9 256.4,175.2 246.7,182.6 256.6,176.9 247,184.7 256.9,179 247.3,187.1 257.2,181.4 247.5,189.3 257.4,183.6 
	247.8,191.7 257.7,186 248.1,193.7 258,188 248.3,195.6 258.2,189.9 248.5,197.6 258.4,191.9 248.9,200.5 258.8,194.8 249.1,202.2 
	259,196.5 249.4,204.7 259.3,198.9 249.6,206.8 259.6,201.1 249.9,208.9 259.8,203.1 250.2,211.3 260.1,205.6 250.4,213.4 
	260.4,207.6 250.7,215.8 260.6,210 251,217.8 260.9,212.1 251.3,220.8 261.3,215 251.6,222.8 261.5,217.1 251.8,224.6 261.7,218.9 
	252,226.4 261.9,220.6 252.3,228.4 262.2,222.7 252.5,230.4 262.4,224.7 252.9,233.3 262.8,227.5 253.2,235.9 263.1,230.2 
	256.2,236.7 263.4,232.5 263,235.8 263.8,235.4 "/>
<polyline class="st1" points="288.1,165.7 288.9,165.3 288.4,167.6 293.1,164.9 288.5,169.5 297.3,164.4 288.8,172 297.7,166.9 
	289,174 297.9,168.9 289.2,175.8 298.1,170.7 289.5,178.3 298.4,173.2 289.6,180.1 298.6,174.9 289.9,182.8 298.8,177.7 
	290.2,185.2 299.1,180.1 290.4,187.1 299.3,181.9 290.6,188.9 299.5,183.8 290.9,192 299.8,186.8 291.1,194 300,188.9 291.3,195.8 
	300.2,190.6 291.5,198.1 300.4,193 291.7,200.1 300.6,195 292,203.1 300.9,197.9 292.2,204.9 301.1,199.8 "/>
<polyline class="st1" points="275.6,185.6 283,181.4 276.6,188.1 283.9,183.9 277.2,189.7 284.5,185.4 277.9,191.6 285.3,187.4 
	278.7,193.7 286.1,189.5 279.5,195.8 286.9,191.6 280.3,197.8 287.7,193.6 281.2,200.2 288.6,196 282,202.4 289.4,198.1 
	282.6,203.9 290,199.7 283.3,205.6 290.6,201.3 283.9,207.2 291.3,203 284.8,209.4 292.1,205.1 285.6,211.6 301.4,202.4 
	286.2,213.1 301.6,204.2 286.8,214.6 301.8,205.9 287.6,217 302,208.6 288.5,219.1 302.3,211.2 289.2,221 302.5,213.3 289.9,222.8 
	302.8,215.4 290.6,224.6 303,217.5 291.5,226.9 303.2,220.1 292.4,229.4 303.5,223 293.4,232 303.8,225.9 297.9,232.1 304.1,228.5 
	303.7,231.4 304.4,231 "/>
<polyline class="st1" points="264.2,168.2 264.9,167.8 264.4,170.9 270.8,167.2 264.8,173.8 277.3,166.6 265,175.9 278,168.3 
	265.2,178.7 278.9,170.8 265.4,180.4 279.5,172.3 265.6,182.5 280.2,174.1 265.9,185 281,176.3 266.1,187.2 281.8,178.2 
	266.4,189.6 282.5,180.3 266.6,191.6 275.6,186.4 266.8,193.6 275.8,188.4 267,195.5 276,190.4 267.3,198.4 276.3,193.3 
	267.5,200.2 276.5,195 267.7,202.7 276.7,197.5 268,204.8 276.9,199.6 268.2,206.9 277.1,201.7 268.4,209.4 277.4,204.2 
	268.6,211.4 277.6,206.3 268.9,213.9 277.9,208.7 269.1,215.9 278.1,210.8 269.4,218.9 278.4,213.8 269.6,221 278.6,215.8 
	269.8,222.8 278.8,217.6 270,224.6 279,219.4 270.2,226.6 279.2,221.4 270.4,228.7 279.4,223.5 270.7,231.6 279.7,226.4 271,234.2 
	280,229 275,234.4 280.2,231.4 279.7,233.9 280.5,233.5 "/>
<polyline class="st1" points="330.3,204.5 331,204.1 330.4,206.4 335,203.8 330.6,208.3 339,203.4 330.8,210.8 340.4,205.3 
	331,212.8 340.5,207.3 331,214.7 340.6,209.1 330.7,217.6 340.9,211.7 "/>
<polyline class="st1" points="321.1,171.4 332.6,164.8 325.5,171.9 334.5,166.8 326.8,173.1 335.4,168.1 327.7,175 336.4,169.9 
	328.1,177.3 337.1,172.1 328.4,179.7 337.7,174.3 328.5,182.1 338,176.6 329.2,184.6 338.3,179.4 334.5,184.2 338.5,181.9 "/>
<polyline class="st1" points="311.2,165.6 315.9,162.9 308,170.2 322.7,161.7 307,174 327.4,162.2 306.7,176.3 329.7,163 
	306.7,179.2 332.2,164.5 306.8,181 317.4,174.9 307,183.1 317.2,177.3 307.2,185.6 317.3,179.8 307.4,187.9 317.5,182 307.6,190.3 
	317.7,184.5 307.7,192.3 317.8,186.5 307.9,194.4 318,188.5 308,196.3 318.1,190.5 308.3,199.3 318.4,193.5 308.4,201.1 
	318.5,195.2 308.6,203.6 318.7,197.8 308.8,205.8 318.9,199.9 309,207.9 319,202 309.1,210.4 319.2,204.5 309.3,212.5 319.4,206.6 
	309.5,214.9 319.6,209.1 309.8,216.9 319.8,211.2 310.4,219.8 320,214.2 311,221.6 320.3,216.2 311.8,223.1 320.8,217.9 
	312.5,224.5 321.7,219.2 313.8,226 323.5,220.4 315.2,227.4 327.1,220.5 317.7,228.9 340.9,215.5 320.8,230 340.6,218.5 
	324.5,230.3 339.8,221.5 331.7,229.2 336.4,226.5 "/>
<polyline class="st1" points="359,168.8 370.6,162.1 363.4,169.4 372.6,164 364.7,170.5 373.7,165.3 365.6,172.4 374.6,167.2 
	366,174.7 375.4,169.3 366.1,177.2 376,171.5 366.3,179.6 376.3,173.7 366.4,182.4 376.6,176.5 366.6,184.9 376.7,179.1 
	366.7,186.7 376.8,180.9 366.8,188.7 376.9,182.9 366.9,190.7 377.1,184.8 367,193.2 377.2,187.4 367.2,195.8 377.3,189.9 
	367.3,197.6 377.4,191.7 367.4,199.4 377.5,193.6 367.5,202.2 377.7,196.3 367.7,204.8 377.9,198.9 367.8,207 378,201.1 
	367.9,209.1 378.1,203.3 368.1,211.3 378.2,205.4 367.9,214.1 378.4,208.1 366.9,216.5 378.5,209.8 "/>
<polyline class="st1" points="349.2,163.1 354.1,160.2 345.9,167.8 360.8,159.2 344.9,171.5 365.4,159.7 344.6,173.8 367.8,160.4 
	344.5,176.8 357,169.6 344.6,178.6 355.2,172.5 344.8,180.8 355,174.9 344.9,183.3 355.1,177.5 345,185.6 355.2,179.7 345.2,188.1 
	355.3,182.2 345.3,190.1 355.4,184.2 345.4,192.1 355.6,186.3 345.5,194.1 355.7,188.3 345.7,197.1 355.8,191.3 345.8,198.9 
	355.9,193.1 345.9,201.5 356.1,195.6 346.1,203.7 356.2,197.8 346.2,205.8 356.3,200 346.3,208.3 356.5,202.5 346.4,210.5 
	356.6,204.6 346.6,212.9 356.7,207.1 346.9,215 356.9,209.2 347.6,217.7 357,212.3 348.3,219.5 357.4,214.3 349,221.1 358,215.9 
	349.9,222.4 359,217.1 351.1,223.9 361,218.2 352.8,225.1 378.5,210.3 355.4,226.6 378.4,213.3 358.7,227.5 378,216.4 362.6,227.8 
	377,219.5 368.9,226.7 373.9,223.9 "/>
<polyline class="st1" points="407.8,158.2 408.4,157.8 407.8,160.2 412.1,157.7 407.9,162.1 415.7,157.6 408,164.7 417.2,159.4 
	408.1,166.8 417.3,161.5 408.1,168.7 417.3,163.3 408.2,171.3 417.4,165.9 408.3,173.1 417.5,167.8 408.4,176 417.6,170.7 
	408.4,178.5 417.7,173.1 408.5,180.4 417.7,175.1 408.6,182.4 417.8,177 408.7,185.5 417.9,180.2 408.7,187.6 418,182.3 
	408.8,189.4 418,184.1 408.9,191.9 418.1,186.6 408.9,194 418.2,188.6 409,197 418.3,191.7 "/>
<polyline class="st1" points="393.9,177.1 401.3,172.8 394.7,179.8 402.1,175.4 395.1,181.3 402.6,177 395.8,183.4 403.2,179.1 
	396.4,185.6 403.9,181.2 397.1,187.7 404.5,183.4 397.7,189.8 405.2,185.5 398.5,192.3 405.9,188 399.2,194.5 406.6,190.2 
	399.6,196.1 407.1,191.8 400.2,197.9 407.6,193.6 400.7,199.6 408.2,195.3 401.4,201.8 408.8,197.5 402.1,204.1 418.4,194.7 
	402.5,205.7 418.4,196.5 403,207.2 418.5,198.3 403.8,209.7 418.6,201.2 404.5,212 418.6,203.8 405.1,213.9 418.7,206 405.6,215.8 
	418.8,208.2 406.2,217.7 418.9,210.4 406.9,220 419,213.1 407.7,222.6 419,216.1 408.8,225.2 419.1,219.2 413.7,225 419.2,221.8 
	418.7,224.8 419.3,224.5 "/>
<polyline class="st1" points="383.7,159 384.3,158.6 383.8,161.7 389.5,158.4 383.9,164.8 395.3,158.2 383.9,166.9 397.2,159.3 
	384,169.8 398,161.8 384.1,171.7 398.5,163.4 384.1,173.8 399,165.3 384.2,176.4 399.7,167.5 384.3,178.7 400.3,169.5 384.4,181.2 
	401,171.6 384.5,183.3 393.8,177.9 384.5,185.4 393.8,180 384.6,187.4 393.9,182 384.7,190.4 394,185.1 384.7,192.2 394,186.9 
	384.8,194.8 394.1,189.5 384.9,197.1 394.2,191.7 385,199.2 394.3,193.9 385,201.8 394.4,196.4 385.1,203.9 394.4,198.6 
	385.2,206.5 394.5,201.1 385.3,208.6 394.6,203.3 385.4,211.8 394.7,206.4 385.4,213.9 394.7,208.5 385.5,215.8 394.8,210.4 
	385.5,217.6 394.9,212.2 385.6,219.8 394.9,214.4 385.7,221.9 395,216.5 385.8,224.9 395.1,219.5 389.1,225.8 395.2,222.3 
	393.7,225.6 395.3,224.7 "/>
<polyline class="st1" points="437.4,166.9 451,159 442.8,166.8 453.6,160.6 445.2,167.3 454.8,161.8 446.9,168.7 456.1,163.4 
	447.8,170.7 457,165.4 448.1,173.1 457.8,167.6 448.2,175.6 458.3,169.7 448.2,178.5 458.5,172.5 448.2,181.1 458.6,175.1 
	448.2,182.9 458.6,176.9 448.2,185 458.6,179 448.2,187 458.7,181 448.3,189.6 458.7,183.6 448.3,192.3 458.7,186.2 448.3,194.1 
	458.7,188.1 448.3,196 458.7,190 448.3,198.8 458.8,192.8 448.4,201.5 458.8,195.5 448.4,203.8 458.8,197.7 448.4,206 458.8,199.9 
	448.4,208.2 458.8,202.1 448.1,211.1 458.8,204.9 "/>
<polyline class="st1" points="426.1,157.8 426.7,157.4 426.1,160.6 431.6,157.4 426.1,163.7 437.2,157.3 426.1,165.8 440.9,157.3 
	426.2,168.8 445.7,157.5 426.2,170.6 448.2,158 426.2,172.9 450.6,158.8 426.2,175.5 436.6,169.4 426.2,177.8 436.7,171.8 
	426.3,180.3 436.7,174.3 426.3,182.4 436.7,176.4 426.3,184.5 436.7,178.5 426.3,186.6 436.7,180.6 426.3,189.7 436.8,183.6 
	426.4,191.5 436.8,185.5 426.4,194.1 436.8,188.1 426.4,196.4 436.8,190.4 426.4,198.6 436.9,192.6 426.4,201.2 436.9,195.1 
	426.4,203.4 436.9,197.4 426.5,205.9 436.9,199.9 426.5,208.1 436.9,202.1 426.5,211.3 437,205.2 426.5,213.4 437,207.4 
	426.5,215.4 437,209.4 426.5,217.2 437,211.2 426.6,219.4 437,213.4 426.6,221.6 437.9,215.1 426.6,224.6 443.2,215 431.4,224.6 
	458.8,208.8 435.8,224.6 458.7,211.4 441.3,224.5 458,214.9 446,224.3 456.4,218.3 "/>
<polyline class="st1" points="466.2,157.6 466.8,157.3 466.2,160.4 471.6,157.3 466.1,163.6 476.7,157.5 466.1,165.7 476.7,159.6 
	466.1,168.7 476.7,162.6 466.1,170.6 476.6,164.5 466,172.8 476.6,166.7 466,175.5 476.6,169.4 466,177.8 476.6,171.7 466,180.4 
	476.5,174.3 465.9,182.5 476.5,176.4 465.9,184.6 476.5,178.5 465.9,186.7 476.5,180.6 465.9,189.8 476.5,183.7 465.9,191.7 
	476.4,185.6 465.8,194.3 476.4,188.2 465.8,196.6 476.4,190.5 465.8,198.8 476.4,192.7 465.8,201.4 476.4,195.3 465.7,203.7 
	476.3,197.6 465.7,206.3 476.3,200.1 465.7,208.5 476.3,202.4 465.6,211.7 476.3,205.5 465.6,213.9 476.2,207.7 465.6,215.8 
	476.2,209.7 465.6,217.7 476.2,211.6 465.6,219.9 476.2,213.8 465.5,222.1 476.2,215.9 466.5,224.6 476.1,219 471.3,224.6 
	476.1,221.8 475.5,224.6 476.1,224.3 "/>
<polyline class="st1" points="504.8,200.6 505.4,200.2 504.8,202.6 508.7,200.3 504.7,204.6 512,200.4 504.7,207.3 514.8,201.5 
	504.6,209.4 514.7,203.6 504.4,211.4 514.7,205.5 503.2,214.6 514.6,208 "/>
<polyline class="st1" points="498.7,166.7 510.1,160.2 503,167.3 512.1,162.1 504.3,168.4 513,163.5 505.2,170.4 513.9,165.3 
	505.5,172.7 514.7,167.4 505.5,175.3 515.2,169.7 505.5,177.8 515.4,172 505.5,180.7 515.5,174.9 509.9,180.8 515.4,177.6 
	513,180.8 515.4,179.5 "/>
<polyline class="st1" points="489.1,160.5 493.6,158 485.7,165.3 499.9,157.1 484.5,169.1 504.5,157.6 484.2,171.4 506.9,158.3 
	484,174.6 509.6,159.8 483.9,176.4 495.1,170 483.9,178.7 494.6,172.5 483.8,181.4 494.5,175.2 483.8,183.7 494.4,177.5 
	483.7,186.3 494.4,180.2 483.6,188.5 494.3,182.3 483.6,190.6 494.2,184.4 483.5,192.7 494.2,186.5 483.4,195.8 494.1,189.7 
	483.4,197.7 494.1,191.6 483.3,200.4 494,194.2 483.2,202.7 493.9,196.6 483.2,205 493.9,198.8 483.1,207.6 493.8,201.4 
	483.1,209.8 493.7,203.7 483.2,212.3 493.7,206.3 483.6,214.3 493.6,208.5 484.4,217 493.7,211.6 485.1,218.8 494.2,213.5 
	486.1,220.2 495.2,214.9 487.1,221.4 496.8,215.8 488.5,222.8 500,216.1 490.4,223.9 514.5,210 493.5,225.1 514.2,213.1 
	497.3,225.7 513.4,216.4 501.7,225.7 511.6,220 "/>
<polyline class="st1" points="523.3,159 523.9,158.6 523.2,161.8 528.4,158.8 523,165.1 533.5,159 522.9,167.3 533.7,161 
	522.8,170.3 533.6,164.1 522.7,172.2 533.5,166 522.6,174.5 533.4,168.3 522.5,177.2 533.3,170.9 522.4,179.6 533.2,173.3 
	522.3,182.2 533.1,176 522.2,184.4 533,178.1 522.1,186.5 532.9,180.3 522,188.7 532.8,182.4 521.8,191.8 532.7,185.6 521.8,193.7 
	532.6,187.5 521.7,196.4 532.5,190.2 521.5,198.8 532.4,192.5 521.5,201 532.3,194.8 521.3,203.7 532.2,197.4 521.2,205.9 
	532,199.7 521.1,208.6 531.9,202.3 521,210.8 531.8,204.6 520.9,214.1 531.7,207.8 520.8,216.3 531.6,210.1 520.7,218.3 
	531.5,212.1 520.6,220.2 531.4,214 520.5,222.5 531.3,216.2 520.4,224.7 531.2,218.5 523.5,226 531.1,221.6 528,226.2 531,224.4 "/>
<polyline class="st1" points="555.5,169.1 566.8,162.6 559.7,169.8 568.9,164.5 561,170.9 569.9,165.8 561.8,172.8 571,167.6 
	562.1,175.2 571.7,169.7 562,177.8 572.2,171.9 561.9,180.4 572.5,174.2 561.7,183.4 572.5,177.2 561.5,186.1 572.4,179.9 
	561.4,188.1 572.3,181.8 561.3,190.2 572.2,183.9 561.2,192.3 572,186 561,195 571.8,188.8 560.8,197.8 571.7,191.5 560.7,199.7 
	571.6,193.4 560.6,201.6 571.5,195.3 560.4,204.6 571.3,198.3 560.2,207.4 571.1,201.1 560.1,209.7 571,203.4 560,212 570.8,205.7 
	559.7,214.4 570.7,208 558.4,217.1 570.6,210.1 "/>
<polyline class="st1" points="545.7,163.1 550.2,160.5 542.3,167.8 556.6,159.6 541.1,171.7 561.2,160.1 540.8,174 563.6,160.9 
	540.5,177.2 566.3,162.3 540.4,179.1 551.6,172.6 540.2,181.4 551.1,175.1 540.1,184.1 550.9,177.9 539.9,186.5 550.8,180.3 
	539.8,189.2 550.6,182.9 539.6,191.4 550.5,185.1 539.5,193.6 550.4,187.3 539.4,195.7 550.2,189.4 539.2,198.9 550,192.6 
	539,200.9 549.9,194.6 538.9,203.6 549.8,197.3 538.7,205.9 549.6,199.6 538.6,208.2 549.5,201.9 538.5,210.9 549.3,204.6 
	538.5,213.1 549.2,206.9 538.7,215.5 549,209.6 539.1,217.5 548.9,211.9 540,220.1 549.1,214.9 541,221.8 549.9,216.6 541.9,223.2 
	551.1,217.9 543.1,224.3 553,218.6 544.7,225.6 570.5,210.7 546.6,226.7 570.3,213 550,227.8 569.9,216.2 554.1,228.2 568.8,219.7 
	559.2,227.8 566.3,223.6 "/>
<polyline class="st1" points="605.5,164.3 606.1,164 605.4,166.4 609.2,164.2 605.2,168.5 612.1,164.5 605,171.3 614.9,165.6 
	604.8,173.5 614.7,167.8 604.6,175.5 614.5,169.8 604.4,178.3 614.3,172.6 604.2,180.3 614.1,174.5 604,183.3 613.9,177.6 
	603.7,186 613.6,180.3 603.5,188.1 613.5,182.4 603.4,190.1 613.3,184.4 603.1,193.5 613,187.8 602.9,195.8 612.8,190.1 
	602.7,197.8 612.6,192 602.5,200.4 612.4,194.7 602.3,202.6 612.2,196.9 "/>
<polyline class="st1" points="589.5,181.4 597.2,177 590,184.2 597.8,179.8 590.3,185.9 598.1,181.5 590.7,188.1 598.5,183.6 
	591.2,190.4 598.9,186 591.6,192.7 599.3,188.3 592,194.9 599.7,190.5 592.5,197.6 600.2,193.2 592.9,200 600.6,195.5 593.2,201.7 
	600.9,197.2 593.5,203.5 601.2,199.1 593.9,205.4 601.6,200.9 594.3,207.8 602,203.3 594.7,210.1 612,200.2 595,211.8 611.8,202.1 
	595.3,213.5 611.6,204.1 595.8,216.1 611.4,207.1 596.2,218.5 611.1,209.9 596.6,220.6 610.9,212.3 597,222.6 610.7,214.7 
	597.3,224.6 610.5,217 597.8,227.1 610.3,219.9 598.3,229.9 610,223.1 601.6,231.1 609.7,226.4 605.7,231.5 609.5,229.2 
	608.8,231.7 609.3,231.4 "/>
<polyline class="st1" points="581.5,162.2 582.1,161.9 581.3,165.2 586.3,162.3 581,168.5 591.1,162.7 580.8,170.8 594.3,162.9 
	580.5,173.9 595.2,165.4 580.4,175.8 595.5,167.1 580.2,178.2 595.8,169.1 579.9,180.9 596.3,171.5 579.7,183.4 596.7,173.6 
	579.5,186.1 597.1,175.9 579.3,188.3 589.3,182.5 579.1,190.5 589.1,184.7 578.9,192.7 588.9,186.9 578.7,195.9 588.7,190.2 
	578.5,197.9 588.5,192.1 578.3,200.6 588.3,194.9 578.1,203 588.1,197.3 577.9,205.4 587.9,199.6 577.6,208.1 587.6,202.3 
	577.4,210.4 587.4,204.6 577.2,213.1 587.2,207.3 577,215.4 587,209.7 576.7,218.8 586.7,213 576.5,221.1 586.5,215.3 576.4,223.1 
	586.4,217.3 576.2,225.1 586.2,219.3 576,227.4 586,221.6 576.9,229 585.8,223.9 581.5,229.4 585.5,227 584.8,229.7 585.4,229.4 "/>
<polyline class="st1" points="626.9,221.4 649.1,208.6 629.9,221.7 649.2,210.5 632.8,222 649.3,212.4 636.7,222.4 649.4,215 
	639.4,222.9 649.5,217.1 639.5,224.8 649.6,218.9 639.6,227.4 649.8,221.5 639.7,229.2 649.8,223.3 639.8,232 650,226.1 
	639.9,234.5 650.1,228.6 642,235.3 650.2,230.5 644.9,235.6 650.3,232.4 649.6,236.1 650.5,235.6 "/>
<polyline class="st1" points="637.6,179.4 647.3,173.8 637.8,182.4 647.5,176.8 637.8,184.3 647.6,178.6 637.9,186.6 647.7,181 
	638,189.1 647.8,183.4 638.1,191.6 648,185.9 638.2,194 648.1,188.3 638.3,196.9 648.2,191.2 638.5,199.4 648.3,193.7 638.5,201.2 
	648.4,195.5 638.6,203.2 648.5,197.5 638.7,205.2 648.6,199.5 638.8,207.8 648.8,202.1 638.9,210.4 648.9,204.6 639,212.2 
	649,206.4 "/>
<polyline class="st1" points="631.7,166.9 632.3,166.6 630.7,170.2 636.4,167 629.7,174 641,167.5 629,176.5 644.1,167.8 628,180.1 
	647.1,169.1 627.4,182.3 647.2,170.9 626.7,184.9 647.3,173 625.9,188 636.8,181.7 625.1,190.8 636.1,184.4 624.3,193.8 
	635.3,187.4 623.6,196.4 634.7,189.9 622.9,198.8 634,192.4 622.2,201.3 633.4,194.9 621.2,205 632.5,198.5 620.6,207.2 
	631.9,200.7 619.8,210.3 631.1,203.8 619,213 630.4,206.4 618.3,215.6 629.7,209 617.4,218.7 628.9,212.1 616.7,221.4 631.6,212.7 
	615.9,224.4 635.4,213.1 615.2,227 638.6,213.5 614.1,230.8 625.7,224.1 615.2,232.4 625,226.7 618,232.6 624.4,229 620.8,232.9 
	623.9,231.1 "/>
<polyline class="st1" points="663.8,170.5 664.3,170.2 663.4,173.5 668.3,170.7 662.9,176.9 672.8,171.3 662.6,179.2 674.1,172.6 
	662.2,182.5 673.7,175.8 661.9,184.5 673.4,177.9 661.6,186.9 673.1,180.2 661.2,189.7 672.7,183.1 660.9,192.2 672.4,185.6 
	660.5,195 672,188.4 660.2,197.3 671.7,190.7 659.9,199.6 671.4,192.9 659.6,201.8 671.1,195.2 659.2,205.2 670.7,198.5 
	658.9,207.2 670.4,200.5 658.6,210 670.1,203.4 658.2,212.5 669.7,205.8 657.9,214.9 669.4,208.2 657.5,217.7 669,211 657.2,220.1 
	668.7,213.4 656.9,222.9 668.4,216.2 656.5,225.2 668.1,218.6 656.1,228.7 667.6,222 655.8,231 667.3,224.4 655.5,233.1 667,226.5 
	655.2,235.1 666.8,228.5 655.9,237 669.5,229.1 659,237.4 672.6,229.5 663.2,237.9 676.9,230 667.2,238.4 680.9,230.6 670.7,238.9 
	683.9,231.3 675.1,239.5 683.5,234.6 678.7,239.9 683.2,237.3 681.7,240.3 682.8,239.6 "/>
<polyline class="st1" points="702.3,213.8 715.6,206.1 705.1,214.2 717.6,207 707.8,214.6 717.3,209.1 711.5,215.2 716.8,212.1 
	714.4,215.6 716.5,214.4 "/>
<polyline class="st1" points="706.6,185.7 719.9,178.1 710.9,186.4 724.2,178.7 713.4,186.8 725.5,179.8 716.7,187.3 725.2,182.4 
	720.2,187.8 724.7,185.2 723.8,188.3 724.3,188 "/>
<polyline class="st1" points="697.2,175 697.7,174.7 696.7,178.1 701.5,175.2 696.1,181.5 705.9,175.9 695.8,183.9 708.8,176.4 
	695.3,187.1 712.8,177 695,189.2 715.4,177.4 694.6,191.6 718.4,177.8 694.2,194.5 705.8,187.7 693.8,197 705.5,190.3 693.3,199.8 
	705,193.1 693,202.1 704.7,195.4 692.6,204.4 704.3,197.7 692.3,206.7 704,200 691.8,210.1 703.5,203.4 691.5,212.2 704.8,204.5 
	691,215 708.4,205 690.6,217.5 711.5,205.5 690.2,220 714.5,205.9 689.8,222.8 701.5,216.1 689.5,225.2 701.1,218.5 689,228.1 
	700.7,221.3 688.6,230.5 700.3,223.7 688.1,233.9 699.8,227.2 687.8,236.3 699.5,229.6 687.4,238.5 699.1,231.7 687.1,240.5 
	699.5,233.3 689.2,241.5 702.5,233.8 692.2,241.9 705.5,234.2 696.4,242.6 709.7,234.9 700.2,243.1 713.5,235.5 703.7,243.7 
	716.9,236 707.9,244.3 716.4,239.4 711.3,244.8 716,242.1 714.2,245.3 715.7,244.5 "/>
<polyline class="st1" points="723.4,226.6 724,226.3 723,228.9 726.6,226.8 722.7,231 729.2,227.2 722.4,233.9 732.8,227.9 
	722.5,236 733,229.9 722.6,237.8 732.6,232 723.2,240.1 732.3,234.9 723.8,241.6 732.5,236.6 725,243.8 733.8,238.8 726.4,245.6 
	736.2,239.9 727.9,246.7 739.4,240.1 729.5,247.7 754.1,233.6 732.8,249 753.5,237.1 735.5,249.7 752.8,239.6 738.2,249.9 
	751.8,242.1 743.5,249.4 748.8,246.3 "/>
<polyline class="st1" points="744,191.4 754.9,185 748,192.1 757,186.9 749.3,193.2 758,188.2 750.2,195.1 758.9,190.1 750.2,197.7 
	759.7,192.2 749.8,200.5 760.1,194.5 751.5,201.9 760.2,196.9 755.4,202.6 759.9,200 758.9,203.2 759.5,202.9 "/>
<polyline class="st1" points="734.5,184.9 739,182.3 731.1,189.7 745,181.7 729.7,193.7 749.2,182.4 729.1,196.1 751.6,183.1 
	728.8,199.3 754.3,184.6 728.9,201.1 740.4,194.5 729,203.2 739.6,197.1 729.5,205.6 739.4,199.9 730.2,207.5 739.8,202 731,209.6 
	740.4,204.2 731.9,211.2 741.2,205.9 732.8,212.8 742,207.4 733.8,214.3 743,209 735.3,216.5 744.6,211.1 736.3,217.8 745.6,212.4 
	737.7,219.6 747,214.3 738.9,221.2 748.1,215.9 740,222.8 749.2,217.4 741.2,224.7 750.5,219.3 742.1,226.4 751.4,221 742.9,228.5 
	752.4,223 743.3,230.4 753,224.8 743.4,233.5 753.8,227.6 743,235.9 754.1,229.5 741.7,238.6 754.2,231.4 "/>
<polygon class="st0" points="465.8,51.9 509.4,57.9 478.1,88.9 486,132.3 446.8,112.1 408,133 415,89.5 383.2,59 426.8,52.3 
	445.9,12.6 "/>
<polygon class="st0" points="610,82.4 642.3,86.8 619.2,109.8 625,141.9 595.9,127 567.1,142.4 572.4,110.2 548.8,87.6 581.1,82.7 
	595.3,53.2 "/>
<polygon class="st0" points="301.6,82.4 334,86.8 310.8,109.8 316.6,141.9 287.6,127 258.8,142.4 264,110.2 240.5,87.6 272.7,82.7 
	286.9,53.2 "/>
<path class="st0" d="M777.1,128.1c0.3-5.9,0.1-12.8-5-16.7c-4.1-3.2-9.3-2.4-12.8,1.4c-8.6,9.4-4.2,25.5,2.9,34.2
	c1.2,1.5,3.2-0.6,2-2c-5.4-6.7-8.3-16.4-5.7-24.9c1.6-5.2,6.3-10.4,11.8-6.2c4.3,3.3,4.1,9.3,3.8,14.2
	C774.1,130,777,130,777.1,128.1L777.1,128.1L777.1,128.1z"/>
<path class="st0" d="M775.8,132.1c2.7-3.3,5-8.4,8.8-10.4c7.2-3.8,10.4,5.8,7.5,11s-9.6,7.2-14.8,9l-19,6.8c-1.7,0.6-1,3.4,0.8,2.8
	c9-3.2,18.7-5.7,27.3-10.1c5.5-2.8,10.5-7.6,9.8-14.3c-0.5-4.5-3.5-8.9-8.4-9c-6.8,0-10.3,7.6-14,12.1c-1.2,1.4,0.9,3.5,2,2l0,0
	L775.8,132.1z"/>
<path class="st0" d="M724.5,83.2c0.2-3.5,0.1-7.5-3-9.8c-2.1-1.7-5.1-1.5-7.1,0.4c-5.8,5.3-2.8,15.3,1.3,20.6
	c0.7,0.9,1.9-0.3,1.2-1.2c-3-3.9-4.7-9.1-3.5-14c0.2-1.1,0.7-2.1,1.3-3c0.3-0.8,1.1-1.4,1.9-1.5c1.1-1.1,2.2-0.9,3.2,0.5
	c3,1.9,3,4.8,2.8,8.2C722.7,84.4,724.4,84.4,724.5,83.2L724.5,83.2L724.5,83.2z"/>
<path class="st0" d="M723.7,85.6c1.4-1.8,2.6-4.2,4.5-5.5c5.8-4.1,6.9,4.5,3.8,7.5c-2.2,2.1-5.5,3-8.3,4l-10.3,3.7
	c-1,0.4-0.6,2,0.5,1.6c5.6-2,12.2-3.4,17.3-6.6c2.9-1.8,5-4.6,4.4-8.2c-0.4-2.4-2-4.6-4.5-4.8c-4.1-0.4-6.5,4.5-8.6,7.1
	C721.8,85.2,723,86.4,723.7,85.6L723.7,85.6L723.7,85.6z"/>
<path class="st0" d="M192.3,108.5c-2.3-1.5-5.1-2.9-7.8-1.6c-1.8,0.8-2.8,2.8-2.2,4.8c1.4,5.8,9.1,7.7,14.2,6.9
	c0.8-0.1,0.5-1.4-0.4-1.3c-3.7,0.6-7.9-0.2-10.7-2.9c-2-1.9-3.4-5.7,0.7-6.6c2-0.4,3.9,0.8,5.6,1.9c0.3,0.2,0.7,0.1,0.9-0.2
	C192.7,109.1,192.6,108.7,192.3,108.5L192.3,108.5L192.3,108.5L192.3,108.5z"/>
<path class="st0" d="M193.5,109.9c-0.2-0.4-0.3-0.8-0.5-1.2c-1-2.4-1.5-2.4-0.2-5c0.1-1.9,0.8-2.5,2.1-1.8c0.7,0,1.3,0.4,1.7,1
	c1.2,1.2,1.5,3.1,1.5,4.8c0,4.1-1.3,8.6-2,12.7c-0.1,0.8,1.1,1.2,1.3,0.3c0.8-4.4,2.1-9.1,2.1-13.6c0-2.7-1-5.4-3.6-6.4
	c-1.7-0.9-3.8-0.4-5,1c-2,2.6,0.4,6.1,1.4,8.5C192.6,111,193.9,110.7,193.5,109.9L193.5,109.9L193.5,109.9z"/>
<path class="st0" d="M116.5,138.9c0.4-4.5,0.8-9.3,3.2-13.3c2.4-3.9,8.8-7.3,12.9-3.5c3.5,3.2,1.8,12.1,1.8,16.4l-0.1,14.9
	c0,0.8,0.6,1.5,1.4,1.5s1.4-0.6,1.4-1.5c0.1-8.6,0.6-17.3,0.2-25.9c-0.2-4.8-2.2-8.8-7.2-9.7c-12.4-2.3-15.7,11.8-16.5,21
	C113.5,140.8,116.4,140.8,116.5,138.9L116.5,138.9L116.5,138.9z"/>
<path class="st0" d="M112.2,134.8c-4.8-1.9-13.1-3.7-17.6,0.1c-4,3.4-2.9,9.6-0.5,13.5c3.4,5.3,9.2,7.9,15.2,9.3
	c8.8,2.1,17.8,3.3,26.7,4.9c1.8,0.3,2.6-2.5,0.8-2.8c-9.8-1.7-20.4-2.6-29.9-5.7c-5.3-1.8-10.9-5.2-11.8-11.3
	c-1.4-9.2,11.1-7.2,16.4-5.1C113.1,138.3,113.9,135.5,112.2,134.8L112.2,134.8L112.2,134.8z"/>
<path class="st0" d="M706.7,36.6c-13.3,13.6-25.4,28.2-36.5,43.7c-1.1,1.5,1.4,3,2.5,1.5c10.9-15.3,22.9-29.7,36-43.1
	c0.4-0.7,0.2-1.6-0.5-2C707.8,36.4,707.2,36.4,706.7,36.6L706.7,36.6L706.7,36.6z"/>
<path class="st0" d="M570.5,0.8l-20.9,49c-0.7,1.7,1.8,3.2,2.5,1.5l21-49C573.7,0.5,571.2-0.9,570.5,0.8L570.5,0.8L570.5,0.8z"/>
<path class="st0" d="M324.1,19.6L340,52.9c0.8,1.7,3.3,0.2,2.5-1.5l-15.9-33.3C325.8,16.5,323.3,17.9,324.1,19.6L324.1,19.6z"/>
<path class="st0" d="M161.5,39.3c23.3,20.1,45.7,41.2,67.1,63.4c0.7,0.4,1.6,0.2,2-0.5c0.3-0.5,0.3-1.1,0-1.5
	c-21.4-22.1-43.7-43.3-67.1-63.4C162.1,36,160,38.1,161.5,39.3L161.5,39.3z"/>
<g class="st2">
	<path class="st0" d="M20.3,83.1c0.5-0.2,1,0,1.6,0.5c0.6,0.5,1.1,1.2,1.4,2c0.3,0.8,0.6,1.9,0.7,3.4s0.3,2.8,0.2,4
		c-0.1,1.3-0.4,2-0.8,2.2c-0.3,0.1-0.6,0-0.7-0.5c-0.2-0.4-0.3-1.6-0.4-3.5C22.2,89.4,22,88,21.6,87c-0.4-1-0.7-1.4-1-1.3
		c-0.4,0.1-0.7,0.7-1,1.5c-0.3,0.9-0.5,1.9-0.7,3.1c-0.2,1.2-0.3,1.8-0.4,1.9c0,0.1,0,0.2-0.1,0.4c0,0.2-0.1,0.3-0.1,0.5
		c0,0.2-0.1,0.7-0.2,1.5s-0.2,1.5-0.3,2c-0.1,0.5-0.3,0.8-0.5,0.9c-0.2,0.1-0.5,0-0.8-0.1c-0.3-0.2-0.5-0.4-0.6-0.6
		c-0.1-0.2-0.1-0.7-0.1-1.5c0.1-2.3-0.2-4.4-0.9-6.1c-0.1-0.3-0.3-0.6-0.5-0.8c-0.2-0.2-0.4-0.2-0.6-0.2s-0.3,0.2-0.5,0.4
		c-0.1,0.2-0.3,0.6-0.4,1.1c-0.1,0.5-0.3,0.9-0.3,1.4c-0.1,0.4-0.2,1.1-0.4,2c-0.2,0.9-0.3,1.6-0.4,2c-0.1,0.4-0.2,0.9-0.3,1.5
		c-0.1,0.6-0.2,1-0.3,1.3c-0.1,0.3-0.2,0.7-0.2,1c-0.2,0.7-0.4,1.1-0.6,1.2c-0.2,0.1-0.5,0-1-0.2c-0.4-0.2-0.7-0.4-0.8-0.6
		c-0.1-0.2-0.1-0.4-0.2-0.7c0-0.3-0.1-0.6-0.1-0.8c0-0.3,0-0.7-0.1-1.2c0-0.5-0.1-1.2-0.1-1.9c0-0.7-0.2-1.7-0.6-2.9
		c-0.3-1.2-0.6-2.1-0.7-2.6c-0.2-0.6-0.1-0.9,0.1-1c0.3-0.1,0.8-0.1,1.2,0.2C8.7,88.3,9,88.6,9.2,89c0.5,1.4,0.8,3.8,1,7.4
		c0.5-3.9,0.9-6.3,1.2-7.1c0.2-0.8,0.4-1.4,0.6-1.9c0.4-0.9,0.9-1.5,1.5-1.7c0.4-0.1,0.9,0,1.7,0.5c0.8,0.5,1.3,1,1.5,1.7
		s0.4,1.5,0.6,2.5C17.8,86.1,18.8,83.7,20.3,83.1z"/>
	<path class="st0" d="M25.6,77.4c-0.1-0.3-0.1-0.7,0-1c0.1-0.4,0.3-0.6,0.6-0.7c0.3-0.1,0.7,0.1,1.3,0.6c0.6,0.5,1,1,1.1,1.4
		c0.1,0.2,0,0.3-0.1,0.5c-0.1,0.2-0.2,0.3-0.4,0.4c-0.4,0.1-0.9,0.1-1.5-0.2C26,78,25.7,77.7,25.6,77.4z M26.7,80.8
		c0.3-0.1,0.6,0,1,0.2c0.4,0.3,0.7,0.6,0.8,0.9s0.3,1.5,0.5,3.3s0.3,4,0.4,6.4c0,0.9-0.2,1.4-0.6,1.5c-0.2,0.1-0.4,0.1-0.7-0.1
		c-0.2-0.1-0.4-0.3-0.5-0.5c-0.1-0.2-0.2-0.6-0.2-1.1c-0.1-0.5-0.1-1.3-0.2-2.2c-0.1-0.9-0.1-1.6-0.2-2.2c-0.1-0.6-0.1-1.2-0.2-1.9
		c-0.1-0.7-0.2-1.3-0.2-1.7c-0.1-0.4-0.1-0.9-0.2-1.3C26.3,81.3,26.4,80.9,26.7,80.8z"/>
	<path class="st0" d="M36.1,77.3c0.5-0.2,1.1-0.1,1.8,0.3c0.7,0.4,1.1,0.8,1.3,1.3c0.1,0.3,0,0.4-0.2,0.5c-0.2,0.1-0.5,0-1-0.1
		c-0.5-0.1-0.9-0.1-1.3,0s-0.9,0.6-1.5,1.3c-0.6,0.7-0.9,1.3-0.7,1.8c0.1,0.4,1.1,0.7,2.8,1.1c0.7,0.1,1.3,0.4,2,0.8
		c0.6,0.4,1.1,0.9,1.3,1.5c0.2,0.6,0,1.4-0.6,2.3c-0.6,0.9-1.5,1.6-2.7,2c-1.1,0.4-2.2,0.5-3.3,0.3c-1.1-0.2-1.7-0.6-1.9-1.1
		c-0.1-0.2-0.1-0.4,0-0.5c0.1-0.2,0.2-0.3,0.3-0.3c0.2-0.1,0.4,0,0.8,0.1c1.1,0.3,2.1,0.3,3-0.1s1.5-0.7,1.9-1
		c0.3-0.4,0.4-0.7,0.3-1.1s-0.5-0.6-1.1-0.9c-0.6-0.2-1.2-0.4-1.9-0.5c-0.7-0.1-1.3-0.3-1.9-0.6c-0.6-0.3-1-0.7-1.2-1.1
		c-0.3-0.8,0-1.9,1-3.3C34.3,78.5,35.2,77.6,36.1,77.3z"/>
	<path class="st0" d="M56.9,82.9c-0.9,0.3-1.9,0.3-3-0.1c-1.1-0.4-1.8-1.1-2.1-2.1c-0.4-1-0.4-2.2-0.3-3.8c0.2-1.5,0.6-2.9,1.3-4.2
		c0.7-1.3,1.6-2.1,2.5-2.5c0.6-0.2,1.3-0.2,2,0.2c0.7,0.4,1.1,0.8,1.3,1.3c0,0.1,0,0.2,0,0.4c0,0.1-0.1,0.2-0.3,0.3
		c-0.1,0.1-0.5,0-0.9-0.1C57,72,56.6,72,56.3,72.1c-0.8,0.3-1.6,1.4-2.1,3.3c-0.6,1.9-0.7,3.4-0.3,4.5c0.2,0.5,0.5,0.8,0.9,1
		c0.4,0.2,1,0.1,1.6-0.1c0.7-0.3,1.3-0.6,1.8-0.9c0.5-0.4,0.9-0.7,1.1-1c0.3-0.3,0.5-0.5,0.6-0.5c0.3-0.1,0.5,0,0.6,0.3
		c0.2,0.5-0.2,1.2-1,2.2C58.7,81.9,57.8,82.5,56.9,82.9z"/>
	<path class="st0" d="M59.9,62.1c-0.2-0.6-0.1-1,0.2-1.1c0.3-0.1,0.7,0,1.2,0.4c0.5,0.3,0.8,0.7,1,1.2c0.4,1,0.8,2.8,1.2,5.5
		c0.4,2.6,0.6,5.3,0.7,8.1c0.5-3.4,1.1-5.9,1.7-7.6c0.6-1.7,1.3-2.6,2-2.9c0.4-0.1,1,0,1.8,0.5c0.8,0.5,1.3,1.1,1.6,1.8
		c0.3,0.7,0.5,1.8,0.6,3.4c0.3,3.9,0.1,6-0.8,6.3c-0.3,0.1-0.6,0-0.8-0.5c-0.2-0.5-0.3-1.3-0.3-2.6c-0.1-2.7-0.3-4.5-0.6-5.4
		c-0.1-0.3-0.3-0.5-0.5-0.6c-0.2-0.1-0.4-0.2-0.6-0.1c-0.2,0.1-0.4,0.3-0.6,0.6c-0.2,0.3-0.4,0.8-0.7,1.5c-0.3,0.9-0.5,1.9-0.8,3
		c-0.2,1.1-0.4,1.7-0.4,2c-0.1,0.2-0.1,0.6-0.3,1.2c-0.1,0.6-0.2,1-0.3,1.3c-0.1,0.3-0.1,0.6-0.2,0.9c-0.2,0.6-0.3,1-0.5,1.1
		s-0.5,0-0.9-0.3c-0.4-0.2-0.7-0.5-0.8-0.7c-0.1-0.2-0.2-0.7-0.2-1.5c-0.3-3.3-0.6-5.5-0.8-6.7C61.1,66.5,60.5,63.6,59.9,62.1z"/>
	<path class="st0" d="M80.4,62.2c0.9,0.5,1.4,1,1.6,1.6s0.2,1.2,0.1,2c0.3,0.2,0.4,0.3,0.5,0.5c0.2,0.4,0.3,1.2,0.5,2.4
		c0.2,1.1,0.3,1.9,0.4,2.2c0.1,0.3,0.1,0.6,0.2,0.8c0,0.2,0.1,0.4,0.1,0.6c0.1,0.4,0,0.7-0.2,0.7c-0.3,0.1-0.6-0.1-1-0.5
		c-0.4-0.4-0.7-1-1-1.8c-0.7,2.3-1.7,3.6-2.9,4.1c-0.7,0.3-1.5,0.2-2.5-0.1c-0.9-0.4-1.5-0.9-1.8-1.5c-0.3-0.9-0.4-2.2-0.3-3.9
		c0.2-1.6,0.6-3.2,1.3-4.7c0.7-1.5,1.5-2.4,2.5-2.8C78.8,61.6,79.6,61.7,80.4,62.2z M80.7,65.6c-0.5-1.5-1.1-2.1-1.7-1.9
		c-0.6,0.2-1.2,0.9-1.7,2.1c-0.5,1.2-0.8,2.4-1,3.7c-0.2,1.3-0.1,2.3,0.1,2.9c0.1,0.3,0.3,0.4,0.6,0.5c0.3,0.1,0.6,0.1,0.9,0
		c0.7-0.3,1.4-1.1,1.9-2.4c0.6-1.3,0.8-2.8,0.6-4.3C80.4,65.9,80.5,65.7,80.7,65.6L80.7,65.6z"/>
	<path class="st0" d="M91,57.1c0.3-0.1,0.6-0.1,0.9,0c0.3,0.1,0.5,0.3,0.6,0.5c0.2,0.4,0.1,2.1-0.1,5s-0.4,4.9-0.6,6
		c-0.2,1-0.4,1.6-0.8,1.8c-0.2,0.1-0.5,0-0.9-0.2c-0.4-0.2-0.7-0.4-1-0.7c-0.8-0.8-1.8-2.3-3.1-4.3c-1.3-2-2.1-3.5-2.5-4.5
		c-0.2-0.5-0.1-0.8,0.2-0.9c0.3-0.1,0.8-0.1,1.2,0c0.5,0.2,0.9,0.4,1.2,0.8c0.1,0.2,0.4,0.8,0.9,1.8c1.1,2.4,2.2,4.2,3.2,5.3
		c0.1-1.1,0.2-2.6,0.2-4.5c0-1.9,0.1-3.4,0.2-4.5C90.6,57.7,90.8,57.2,91,57.1z"/>
	<path class="st0" d="M95.3,60.3c0.1-1.4,0.4-2.7,1-3.8c0.6-1.1,1.4-1.8,2.3-2.2c0.9-0.3,1.9-0.2,2.8,0.3c0.9,0.6,1.6,1.4,2,2.5
		c0.4,1.1,0.6,2.4,0.5,3.8c-0.1,1.4-0.5,2.6-1.2,3.8c-0.7,1.1-1.6,1.9-2.6,2.3c-0.8,0.3-1.6,0.2-2.4-0.4c-0.8-0.5-1.4-1.4-1.8-2.5
		C95.3,63,95.2,61.7,95.3,60.3z M101.3,57.8c-0.2-0.5-0.5-1-0.8-1.4c-0.3-0.4-0.7-0.7-1.1-0.8c-1,0.7-1.6,1.9-1.9,3.5
		c-0.3,1.7-0.2,3.1,0.3,4.3c0.4,1.2,1,1.8,1.7,1.9c1-0.6,1.7-1.8,2-3.4S101.8,59,101.3,57.8z"/>
	<path class="st0" d="M110.1,50c0.5-0.2,1.1-0.1,1.8,0.3c0.7,0.4,1.1,0.8,1.3,1.3c0.1,0.3,0,0.4-0.2,0.5c-0.2,0.1-0.5,0-0.9-0.1
		c-0.5-0.1-0.9-0.1-1.3,0c-0.4,0.1-0.9,0.6-1.5,1.3c-0.6,0.7-0.9,1.3-0.7,1.8c0.1,0.4,1.1,0.7,2.8,1.1c0.7,0.1,1.3,0.4,2,0.8
		c0.6,0.4,1.1,0.9,1.3,1.5c0.2,0.6,0,1.4-0.6,2.3c-0.6,0.9-1.5,1.6-2.7,2s-2.2,0.5-3.3,0.3c-1.1-0.2-1.7-0.6-1.9-1.1
		c-0.1-0.2-0.1-0.4,0-0.5c0.1-0.2,0.2-0.3,0.3-0.3c0.2-0.1,0.4,0,0.8,0.1c1.1,0.3,2.1,0.3,3-0.1s1.5-0.7,1.9-1
		c0.3-0.4,0.4-0.7,0.3-1.1c-0.1-0.4-0.5-0.6-1.1-0.9c-0.6-0.2-1.2-0.4-1.9-0.5c-0.7-0.1-1.3-0.3-1.9-0.6c-0.6-0.3-1-0.7-1.2-1.1
		c-0.3-0.8,0-1.9,1-3.3C108.4,51.2,109.3,50.3,110.1,50z"/>
</g>
<g class="st2">
	<path class="st0" d="M745.1,38.7c0.9-0.3,1.5-0.4,1.8-0.2c0.3,0.2,0.5,0.4,0.6,0.8c0.1,0.4,0.1,0.7,0,0.8c-0.1,0.2-0.2,0.3-0.4,0.3
		c-0.2,0-0.4,0.1-0.7,0.2c-0.3,0.1-0.7,0.1-1,0.2c-0.3,0.1-0.7,0.2-1.3,0.4s-1.1,0.4-1.9,0.7s-1.3,0.5-1.8,0.7c0,0.2,0,0.5,0,0.9
		c0,0.4,0,0.7,0,1c0,0.3,0,0.6,0,1c0,0.4,0,0.8,0,1s0,0.5,0,0.8c0,0.5,0,0.8-0.1,1c-0.1,0.1-0.2,0.2-0.4,0.3c-0.2,0-0.3,0-0.4-0.1
		c-0.6-0.4-1-2.2-1-5.3c-3.3,1.2-5.1,1.7-5.5,1.4c-0.2-0.1-0.4-0.4-0.5-0.8s-0.1-0.7,0-0.9c0-0.1,0.3-0.2,0.8-0.3
		c2.2-0.6,3.9-1.1,5.1-1.6c0-1.6,0.1-3,0.3-4.3c0.1-1.3,0.3-2,0.4-2.2c0.1-0.2,0.2-0.3,0.3-0.4c0.1-0.1,0.3-0.1,0.6,0.1
		c0.3,0.2,0.6,0.5,0.9,0.9c0.3,0.4,0.4,0.8,0.3,1c-0.4,0.6-0.6,2-0.7,4.1C742.6,39.6,744.2,39,745.1,38.7z"/>
	<path class="st0" d="M747,43.8c1.2-0.8,2.4-1.4,3.6-1.6c1.2-0.2,2.3-0.1,3.1,0.4c0.9,0.5,1.4,1.3,1.5,2.4c0.1,1.1-0.1,2.1-0.7,3.2
		c-0.6,1-1.5,2-2.6,2.7c-1.1,0.8-2.4,1.3-3.7,1.5c-1.3,0.2-2.5,0-3.4-0.6c-0.7-0.4-1.1-1.1-1.2-2.1c-0.1-1,0.2-2,0.8-3
		C745,45.5,745.9,44.6,747,43.8z M752.8,46.9c0.3-0.5,0.5-1,0.6-1.5s0.1-1-0.1-1.4c-1.2-0.3-2.5-0.1-3.9,0.8
		c-1.5,0.8-2.5,1.8-3.2,2.9c-0.7,1.1-0.8,2-0.4,2.6c1.2,0.4,2.5,0.2,3.9-0.6C751.1,48.9,752.2,48,752.8,46.9z"/>
	<path class="st0" d="M764.1,49.9c0.9-0.3,1.5-0.4,1.8-0.2c0.3,0.2,0.5,0.4,0.6,0.8c0.1,0.4,0.1,0.7,0,0.8c-0.1,0.2-0.2,0.3-0.4,0.3
		c-0.2,0-0.4,0.1-0.7,0.2c-0.3,0.1-0.7,0.1-1,0.2c-0.3,0.1-0.7,0.2-1.3,0.4c-0.5,0.2-1.1,0.4-1.9,0.7c-0.7,0.3-1.3,0.5-1.8,0.7
		c0,0.2,0,0.5,0,0.9c0,0.4,0,0.7,0,1c0,0.3,0,0.6,0,1c0,0.4,0,0.8,0,1c0,0.3,0,0.5,0,0.8c0,0.5,0,0.8-0.1,1s-0.2,0.2-0.4,0.3
		c-0.2,0-0.3,0-0.4-0.1c-0.6-0.4-1-2.2-1-5.3c-3.3,1.2-5.1,1.7-5.5,1.4c-0.2-0.1-0.4-0.4-0.5-0.8c-0.1-0.4-0.1-0.7,0-0.9
		c0-0.1,0.3-0.2,0.8-0.3c2.2-0.6,3.9-1.1,5.1-1.6c0-1.6,0.1-3,0.3-4.3c0.1-1.3,0.3-2,0.4-2.2c0.1-0.2,0.2-0.3,0.3-0.4
		c0.1-0.1,0.3-0.1,0.6,0.1c0.3,0.2,0.6,0.5,0.9,0.9c0.3,0.4,0.4,0.8,0.3,1c-0.4,0.6-0.6,2-0.7,4.1C761.6,50.8,763.1,50.2,764.1,49.9
		z"/>
	<path class="st0" d="M766,55c1.2-0.8,2.4-1.4,3.6-1.6c1.2-0.2,2.3-0.1,3.1,0.4c0.9,0.5,1.4,1.3,1.5,2.4c0.1,1.1-0.1,2.1-0.7,3.2
		c-0.6,1-1.5,2-2.6,2.7c-1.1,0.8-2.4,1.3-3.7,1.5c-1.3,0.2-2.5,0-3.4-0.6c-0.7-0.4-1.1-1.1-1.2-2.1c-0.1-1,0.2-2,0.8-3
		C763.9,56.8,764.8,55.8,766,55z M771.8,58.2c0.3-0.5,0.5-1,0.6-1.5c0.1-0.5,0.1-1-0.1-1.4c-1.2-0.3-2.5-0.1-3.9,0.8
		c-1.5,0.8-2.5,1.8-3.2,2.9s-0.8,2-0.4,2.6c1.2,0.4,2.5,0.2,3.9-0.6S771.1,59.3,771.8,58.2z"/>
</g>
<g class="st2">
	<path class="st0" d="M159.3,124.6c0.6-0.2,1-0.2,1.1-0.1c0.2,0.1,0.3,0.3,0.4,0.5c0.1,0.2,0.1,0.4,0,0.5c-0.1,0.1-0.1,0.2-0.2,0.2
		c-0.1,0-0.3,0.1-0.5,0.1c-0.2,0-0.4,0.1-0.6,0.1c-0.2,0.1-0.5,0.1-0.8,0.3s-0.7,0.3-1.2,0.4c-0.5,0.2-0.9,0.3-1.1,0.4
		c0,0.1,0,0.3,0,0.6c0,0.3,0,0.5,0,0.6c0,0.2,0,0.4,0,0.7c0,0.3,0,0.5,0,0.7c0,0.2,0,0.3,0,0.5c0,0.3,0,0.5-0.1,0.6
		c-0.1,0.1-0.1,0.1-0.2,0.2c-0.1,0-0.2,0-0.3,0c-0.4-0.2-0.6-1.4-0.7-3.4c-2.1,0.8-3.2,1.1-3.5,0.9c-0.1-0.1-0.3-0.2-0.3-0.5
		c-0.1-0.2-0.1-0.4,0-0.6c0,0,0.2-0.1,0.5-0.2c1.4-0.4,2.5-0.7,3.2-1c0-1,0.1-1.9,0.2-2.7c0.1-0.8,0.2-1.3,0.2-1.4
		c0.1-0.1,0.1-0.2,0.2-0.2c0.1-0.1,0.2-0.1,0.4,0.1c0.2,0.1,0.4,0.3,0.6,0.6c0.2,0.3,0.3,0.5,0.2,0.6c-0.2,0.4-0.4,1.2-0.5,2.6
		C157.8,125.2,158.7,124.8,159.3,124.6z"/>
	<path class="st0" d="M160.5,127.9c0.7-0.5,1.5-0.9,2.3-1c0.8-0.2,1.4-0.1,2,0.2c0.5,0.3,0.9,0.8,0.9,1.5c0.1,0.7-0.1,1.3-0.4,2
		c-0.4,0.7-0.9,1.2-1.7,1.7s-1.5,0.8-2.3,0.9c-0.8,0.1-1.5,0-2.2-0.4c-0.5-0.3-0.7-0.7-0.8-1.3c-0.1-0.6,0.1-1.2,0.5-1.9
		C159.3,129,159.8,128.4,160.5,127.9z M164.2,129.9c0.2-0.3,0.3-0.6,0.4-1c0.1-0.3,0-0.6-0.1-0.9c-0.7-0.2-1.6,0-2.5,0.5
		c-0.9,0.5-1.6,1.1-2,1.8s-0.5,1.2-0.3,1.6c0.7,0.3,1.5,0.1,2.5-0.4C163.1,131.1,163.8,130.5,164.2,129.9z"/>
	<path class="st0" d="M171.3,131.7c0.6-0.2,1-0.2,1.2-0.1s0.3,0.3,0.4,0.5c0.1,0.2,0.1,0.4,0,0.5c-0.1,0.1-0.1,0.2-0.2,0.2
		c-0.1,0-0.3,0.1-0.5,0.1c-0.2,0-0.4,0.1-0.6,0.1c-0.2,0.1-0.5,0.1-0.8,0.3c-0.3,0.1-0.7,0.3-1.2,0.4c-0.5,0.2-0.9,0.3-1.1,0.4
		c0,0.1,0,0.3,0,0.6c0,0.3,0,0.5,0,0.6c0,0.2,0,0.4,0,0.7c0,0.3,0,0.5,0,0.7c0,0.2,0,0.3,0,0.5c0,0.3,0,0.5-0.1,0.6
		s-0.1,0.1-0.2,0.2c-0.1,0-0.2,0-0.3,0c-0.4-0.2-0.6-1.4-0.7-3.4c-2.1,0.8-3.2,1.1-3.5,0.9c-0.1-0.1-0.3-0.2-0.3-0.5
		c-0.1-0.2-0.1-0.4,0-0.6c0,0,0.2-0.1,0.5-0.2c1.4-0.4,2.5-0.7,3.2-1c0-1,0.1-1.9,0.2-2.7c0.1-0.8,0.2-1.3,0.2-1.4
		c0.1-0.1,0.1-0.2,0.2-0.2c0.1-0.1,0.2-0.1,0.4,0.1c0.2,0.1,0.4,0.3,0.6,0.6c0.2,0.3,0.3,0.5,0.2,0.6c-0.2,0.4-0.4,1.2-0.5,2.6
		C169.7,132.3,170.7,131.9,171.3,131.7z"/>
	<path class="st0" d="M172.5,135c0.7-0.5,1.5-0.9,2.3-1s1.4-0.1,2,0.2c0.5,0.3,0.9,0.8,0.9,1.5c0.1,0.7-0.1,1.3-0.4,2
		c-0.4,0.7-0.9,1.2-1.7,1.7c-0.7,0.5-1.5,0.8-2.3,0.9c-0.8,0.1-1.5,0-2.2-0.4c-0.5-0.3-0.7-0.7-0.8-1.3c-0.1-0.6,0.1-1.2,0.5-1.9
		C171.2,136.1,171.8,135.5,172.5,135z M176.2,137c0.2-0.3,0.3-0.6,0.4-1s0-0.6-0.1-0.9c-0.7-0.2-1.6,0-2.5,0.5
		c-0.9,0.5-1.6,1.1-2,1.8s-0.5,1.2-0.3,1.6c0.7,0.3,1.5,0.1,2.5-0.4C175.1,138.2,175.8,137.6,176.2,137z"/>
</g>
</svg>
