<svg id="Layer_1" data-name="Layer 1" xmlns="http://www.w3.org/2000/svg" viewBox="0 0 781.63 316.82"><defs><style>.cls-1{fill:#333;}.cls-2{fill:none;stroke:#333;stroke-linecap:round;stroke-linejoin:round;stroke-width:1.15px;}</style></defs><title>jugadores_equipo</title><path class="cls-1" d="M931.22,309.06a1426.14,1426.14,0,0,1,701.16-6.14c2,0.49,2.84-2.58.85-3.07A1430.42,1430.42,0,0,0,930.38,306a1.59,1.59,0,0,0,.85,3.07h0Z" transform="translate(-895.19 7.71)"/><polyline class="cls-2" points="63.81 288.05 64.55 287.62 64.38 290.68 81.82 280.61 64.73 292.27 81.86 282.38 65.17 294.31 81.74 284.74 65.64 296.48 81.13 287.54 71.43 295.6 79.15 291.14"/><polyline class="cls-2" points="61.38 232.14 62.24 231.64 61.89 234.52 69.67 230.03 62.47 237.22 71.62 231.93 62.85 239.03 72.01 233.74 63.4 241.56 72.55 236.28 63.73 243.14 72.89 237.86 64.14 245.03 73.29 239.75 64.61 247.26 73.77 241.98 65.04 249.24 74.19 243.95 65.51 251.43 74.66 246.14 65.89 253.22 75.04 247.94 66.27 255 75.42 249.72 66.65 256.78 75.8 251.49 67.21 259.4 76.36 254.12 67.55 260.99 76.7 255.7 68.03 263.22 77.18 257.93 68.44 265.16 77.6 259.87 68.84 267.03 78 261.75 69.32 269.24 78.47 263.96 69.72 271.13 78.88 265.84 70.19 273.31 79.34 268.02 70.59 275.19 79.74 269.9 71.17 277.88 80.32 272.6 71.56 279.73 80.72 274.45 71.78 281.48 81.07 276.11 71.67 283.31 81.37 277.7"/><polyline class="cls-2" points="98.7 224.57 99.52 224.1 99.22 227.23 107.29 222.57 99.53 228.84 108.27 223.8 99.93 230.91 108.67 225.86 100.36 233.1 109.09 228.06 100.79 235.31 109.52 230.27 101.2 237.41 109.92 232.37 101.69 239.94 110.42 234.9 102.12 242.19 110.85 237.15 102.44 243.79 111.16 238.75 102.78 245.54 111.5 240.51 103.12 247.29 111.84 242.25 103.56 249.56 112.28 244.52 104 251.83 112.72 246.79 104.31 253.43 113.03 248.39 104.62 255.03 113.34 250 105.1 257.51 113.82 252.47 105.55 259.8 114.26 254.77 105.93 261.75 114.64 256.72 106.3 263.66 115.01 258.63 106.67 265.56 115.38 260.53 107.13 267.93 115.84 262.9 107.63 270.55 116.34 265.52 108.14 273.28 116.87 268.24 108.27 275.77 117.32 270.55 107.33 278.4 117.56 272.49"/><polyline class="cls-2" points="78.5 228.48 79.32 228.01 78.97 230.89 86.35 226.63 79.5 233.61 88.71 228.29 79.85 235.44 89.06 230.12 80.35 238 89.56 232.68 80.66 239.6 89.87 234.28 81.03 241.51 90.24 236.19 81.46 243.76 90.68 238.44 81.85 245.76 91.06 240.44 82.28 247.97 91.49 242.65 82.63 249.78 91.84 244.46 82.98 251.58 92.19 246.26 83.33 253.38 92.54 248.06 83.84 256.03 93.05 250.71 84.15 257.63 93.36 252.31 84.59 259.89 93.8 254.57 84.97 261.85 94.18 256.53 85.33 263.74 94.55 258.42 85.77 265.98 94.98 260.66 86.13 267.88 95.35 262.56 86.56 270.08 95.78 264.76 86.93 271.98 96.14 266.66 87.45 274.71 96.67 269.39 87.83 276.57 97.03 271.26 88.26 278.19 97.36 272.94 88.66 279.72 97.67 274.52 89.38 281.4 98.13 276.35 90.15 283.05 98.85 278.03 91.56 285.12 100.71 279.83 93.28 286.82 105.51 279.76 95.21 288.1 117.75 275.08 98.33 289.28 117.53 278.19 101.79 289.66 116.77 281.01 106.28 289.1 115.01 284.06"/><polyline class="cls-2" points="135.71 246.9 136.47 246.46 136.01 248.64 141.19 245.65 136.3 250.36 145.84 244.85 136.71 252.68 149.75 245.16 137.03 254.53 150.06 247.01 138.7 255.37 150.34 248.66 141.93 256.06 150.73 250.97 142.21 257.69 151.01 252.6 142.64 260.22 151.44 255.14 143.02 262.43 151.81 257.35 143.32 264.15 152.11 259.07 143.61 265.86 152.4 260.79 143.9 268.75 152.87 263.57 143.33 271.18 153.12 265.53"/><polyline class="cls-2" points="131.28 226.99 142.16 220.7 135.45 227.54 143.95 222.63 136.59 228.67 144.79 223.93 137.46 230.46 145.71 225.7 137.97 232.6 146.51 227.68 138.35 234.84 147.04 229.83 138.71 236.97 147.5 231.9 140.28 238.88 147.94 234.45 146.46 237.81 148.34 236.73"/><polyline class="cls-2" points="121.62 221.55 126.31 218.84 118.45 226.06 133.04 217.63 117.5 229.63 137.35 218.16 117.39 231.72 139.54 218.94 117.52 234.5 141.88 220.43 117.7 236.17 127.52 230.5 118.01 238.11 127.4 232.69 118.4 240.4 127.69 235.03 118.74 242.42 128.03 237.05 119.12 244.66 128.41 239.29 119.43 246.49 128.72 241.13 119.74 248.32 129.03 242.95 120.05 250.13 129.34 244.77 120.51 252.82 129.8 247.45 120.78 254.44 130.07 249.08 121.17 256.73 130.46 251.36 121.5 258.71 130.8 253.35 121.83 260.63 131.12 255.26 122.21 262.89 131.51 257.53 122.54 264.82 131.83 259.45 122.92 267.05 132.21 261.69 123.25 268.97 132.54 263.61 123.86 271.65 133.01 266.37 124.37 273.43 133.33 268.26 124.98 274.95 133.74 269.89 125.63 276.34 134.33 271.32 126.62 277.86 135.44 272.77 127.81 279.27 137.52 273.66 129.84 280.97 153.31 267.42 132.35 282.23 153.26 270.15 135.29 282.92 152.83 272.79 140.63 282.81 151.28 276.66"/><polyline class="cls-2" points="168.94 265.74 188.02 254.73 173.42 265.07 188.53 256.35 177.82 264.41 189.03 257.95 180.88 265.21 189.71 260.11 181.4 266.94 190.25 261.83 181.88 268.48 190.73 263.37 182.54 270.64 191.41 265.52 183 272.16 191.88 267.04 183.73 274.53 192.62 269.39 187.37 274.85 193.27 271.45 191.8 274.18 193.77 273.05"/><polyline class="cls-2" points="168.49 224.35 176.94 219.47 169.25 226.87 177.73 221.97 169.71 228.39 178.21 223.49 170.31 230.35 178.82 225.43 170.93 232.42 179.47 227.5 171.57 234.52 180.12 229.58 172.17 236.5 180.74 231.55 172.89 238.9 181.49 233.94 173.54 241.03 182.15 236.05 174 242.54 182.63 237.56 174.5 244.21 183.14 239.21 175 245.86 183.66 240.86 175.65 248.01 184.33 243 176.3 250.16 185 245.13 176.76 251.67 185.47 246.63 177.22 253.19 185.95 248.15 177.87 255.36 186.63 250.3"/><polyline class="cls-2" points="159.97 214.2 160.75 213.75 159.93 216.9 166.99 212.82 159.88 219.95 174.06 211.76 159.85 222 175 213.25 159.81 224.87 175.76 215.66 159.79 226.66 176.24 217.16 159.76 228.8 176.81 218.96 159.72 231.33 168.31 226.37 159.69 233.56 168.31 228.59 159.66 236.05 168.31 231.05 159.63 238.08 168.3 233.07 159.6 240.1 168.3 235.07 159.57 242.11 168.29 237.07 159.53 245.08 168.29 240.02 159.5 246.88 168.28 241.81 159.47 249.41 168.28 244.32 159.44 251.6 168.28 246.5 159.41 253.73 168.27 248.61 159.37 256.23 168.26 251.09 159.34 258.36 168.26 253.21 159.31 260.84 168.26 255.67 159.28 262.96 169.87 256.85 159.23 266.02 176.94 255.79 159.2 268.11 187.15 251.97 159.18 270 187.65 253.56 159.15 271.78 168.17 266.57 159.12 273.89 168.17 268.67 159.09 276 168.17 270.75 159.05 278.9 168.17 273.63 165.16 278.07 168.17 276.34"/><polyline class="cls-2" points="202.53 217.24 216.48 209.18 208.77 216.59 218.7 210.85 210.77 217.23 219.79 212.02 212.24 218.68 220.86 213.7 212.99 220.68 221.8 215.6 213.38 222.91 222.51 217.64 213.65 225.09 222.95 219.72 213.97 227.72 223.38 222.29 214.25 230.06 223.66 224.63 214.45 231.72 223.86 226.29 214.67 233.55 224.08 228.12 214.89 235.37 224.3 229.93 215.18 237.72 224.59 232.29 215.46 240.08 224.88 234.65 215.66 241.74 225.08 236.31 215.87 243.41 225.28 237.98 216.18 245.99 225.59 240.55 216.47 248.37 225.88 242.94 216.71 250.4 226.13 244.97 216.95 252.38 226.37 246.94 217.19 254.36 226.6 248.93 217.39 256.88 226.9 251.39 216.71 260.18 227.22 254.12"/><polyline class="cls-2" points="190.67 209.82 191.36 209.42 190.98 212.32 197.23 208.71 191.32 215.15 203.86 207.91 191.55 217.05 208.06 207.51 191.87 219.71 212.59 207.75 192.07 221.37 214.63 208.34 192.31 223.35 201.72 217.92 192.6 225.7 202.01 220.26 192.85 227.77 202.27 222.33 193.13 230.07 202.55 224.63 193.35 231.95 202.78 226.51 193.58 233.82 203.01 228.38 193.81 235.69 203.24 230.25 194.14 238.44 203.57 233 194.34 240.11 203.78 234.66 194.63 242.45 204.06 237 194.87 244.49 204.31 239.04 195.11 246.46 204.55 241.01 195.39 248.78 204.84 243.33 195.63 250.76 205.08 245.3 195.91 253.05 205.36 247.59 196.15 255.02 205.6 249.56 196.49 257.85 205.95 252.39 196.73 259.8 206.19 254.33 196.94 261.54 206.4 256.08 197.14 263.19 206.6 257.73 197.38 265.15 206.84 259.69 197.61 267.1 207.08 261.64 197.94 269.8 210.18 262.73 198.25 272.32 227.3 255.55 201.19 273.01 227.37 257.9 207.76 272.19 226.99 261.09 213.03 271.53 225.99 264.05 218.63 270.34 223.44 267.56"/><polyline class="cls-2" points="243.47 212.02 254.62 205.59 247.66 212.56 256.5 207.46 248.83 213.68 257.41 208.72 249.72 215.46 258.4 210.45 250.15 217.65 259.13 212.47 250.38 219.97 259.71 214.59 250.6 222.18 260.06 216.72 250.86 224.85 260.37 219.35 251.09 227.22 260.6 221.72 251.25 228.9 260.76 223.41 251.43 230.75 260.94 225.26 251.61 232.59 261.12 227.1 251.84 234.98 261.36 229.49 252.07 237.37 261.59 231.88 252.24 239.05 261.75 233.56 252.4 240.74 261.92 235.25 252.66 243.35 262.17 237.86 252.89 245.77 262.4 240.28 253.09 247.82 262.6 242.33 253.29 249.83 262.8 244.34 253.48 251.83 262.99 246.34 253.56 254.42 263.24 248.84 252.46 257.5 263.43 251.17"/><polyline class="cls-2" points="234.02 206.56 238.55 203.95 230.84 211.07 245.18 202.79 229.89 214.65 249.7 203.21 229.62 216.84 251.89 203.98 229.7 219.64 241.39 212.89 229.82 221.35 239.78 215.6 230.01 223.36 239.59 217.82 230.24 225.73 239.75 220.24 230.45 227.83 239.96 222.34 230.67 230.16 240.19 224.67 230.86 232.07 240.37 226.58 231.04 233.97 240.55 228.47 231.23 235.85 240.74 230.36 231.5 238.65 241.01 233.15 231.66 240.34 241.17 234.84 231.89 242.71 241.4 237.22 232.09 244.77 241.6 239.28 232.29 246.77 241.8 241.28 232.51 249.12 242.03 243.63 232.71 251.12 242.22 245.63 232.94 253.44 242.45 247.95 233.24 255.38 242.64 249.95 233.82 258.07 242.92 252.82 234.41 259.81 243.22 254.72 235.11 261.28 243.7 256.31 235.86 262.6 244.48 257.63 237.01 264.04 245.99 258.86 238.33 265.37 249.02 259.19 240.68 266.89 263.5 253.71 243.6 267.9 263.23 256.57 247.03 268.31 262.51 259.38 253.55 267.52 259.61 264.03"/><polyline class="cls-2" points="279.9 238.64 295.46 229.65 283.63 238.39 293.14 232.9 286.21 238.79 294.87 233.79 288.19 240.21 296.62 235.34 289.09 241.72 297.63 236.78 289.59 243.24 298.34 238.19 289.95 245.57 299.11 240.28 290.11 247.27 299.49 241.86 290.31 249.95 299.87 244.43 290.48 252.27 300.1 246.72 290.62 254.09 300.23 248.53 290.75 255.9 300.37 250.34 291.01 258.8 300.58 253.27 291.28 260.74 300.73 255.29 291.63 262.3 300.88 256.96 292.92 263.95 301.17 259.19 296.93 263.64 301.53 260.99 301.82 263.26 302.37 262.94"/><polyline class="cls-2" points="277.88 209.71 291.4 201.9 283.44 209.46 293.63 203.57 285.4 210.11 294.69 204.75 286.7 211.66 295.7 206.46 287.39 213.7 296.52 208.43 287.71 215.97 297.13 210.53 287.88 218.21 297.42 212.7 288.08 220.91 297.69 215.35 288.15 223.37 297.87 217.75 287.91 225.29 297.96 219.48"/><polyline class="cls-2" points="266.47 201.74 267.1 201.37 266.66 204.31 272.42 200.98 266.87 207.21 278.42 200.54 267.01 209.16 282.37 200.3 267.21 211.89 286.94 200.51 267.34 213.6 289.17 200.99 267.49 215.63 277.11 210.08 267.67 218.04 277.29 212.48 267.82 220.16 277.46 214.6 268 222.53 277.64 216.96 268.14 224.46 277.79 218.89 268.28 226.38 277.93 220.81 268.42 228.29 278.08 222.72 268.63 231.12 278.3 225.54 268.76 232.83 278.43 227.25 268.94 235.23 278.75 229.57 269.09 237.32 283.18 229.19 269.24 239.34 297.96 222.76 269.41 241.73 297.49 225.51 269.56 243.76 296.45 228.23 269.74 246.11 279.36 240.55 269.89 248.13 279.51 242.57 270.1 251.04 279.73 245.48 270.25 253.03 279.88 247.47 270.38 254.82 280.02 249.26 270.5 256.52 280.15 250.95 270.65 258.53 280.3 252.96 270.8 260.53 280.45 254.96 271 263.29 280.66 257.72 271.82 265.52 280.86 260.31 276.62 265.14 281.03 262.6 280.53 264.83 281.17 264.46"/><polyline class="cls-2" points="316.93 234.42 329.82 226.97 320.58 234.23 329.93 228.83 324.17 234.04 330.02 230.66 329.05 233.78 330.16 233.14"/><polyline class="cls-2" points="315.54 207.32 331.93 197.87 321.18 207.03 332.08 200.73 324.6 206.85 332.18 202.47 328.97 206.62 332.3 204.7"/><polyline class="cls-2" points="304.42 199.04 305.03 198.68 304.55 201.64 310.13 198.42 304.7 204.58 315.89 198.12 304.8 206.55 319.76 197.91 304.94 209.32 325.18 197.63 305.03 211.04 328.56 197.46 305.13 213.1 314.92 207.46 305.26 215.54 315.04 209.89 305.37 217.69 315.16 212.04 305.49 220.09 315.28 214.43 305.59 222.04 315.39 216.39 305.69 223.99 315.49 218.33 305.79 225.93 315.59 220.27 305.93 228.79 315.74 223.13 306.02 230.52 315.83 224.86 306.15 232.96 319.77 225.09 306.25 235.07 323.93 224.87 306.36 237.12 327.95 224.66 306.48 239.53 329.78 226.08 306.59 241.59 316.37 235.94 306.71 243.97 316.5 238.32 306.81 246.02 316.6 240.37 306.96 248.96 316.76 243.31 307.06 250.98 316.86 245.32 307.16 252.8 316.96 247.14 307.25 254.51 317.05 248.85 307.35 256.55 317.16 250.88 307.45 258.58 317.26 252.91 307.6 261.37 321.98 253.07 309.67 262.88 327.13 252.8 314.21 262.64 331.69 252.56 319.88 262.35 334.78 253.75 324.41 262.11 334.9 256.06 328.29 261.91 335.01 258.03 332.99 261.67 335.14 260.42"/><polyline class="cls-2" points="338.99 242.35 339.58 242.01 339.06 244.23 343.09 241.9 339.13 246.07 346.55 241.78 339.36 248.49 348.55 243.19 339.66 250.35 348.61 245.19 340.06 251.93 348.71 246.94 340.85 254.02 349.15 249.23 341.51 255.43 349.84 250.62 342.97 257.37 352.01 252.16 344.62 258.85 369.17 244.67 346.15 259.86 369.16 246.57 347.94 260.71 369.09 248.5 351.81 261.52 368.47 251.91 355.35 261.58 367.4 254.63 359.77 260.8 365.06 257.74"/><polyline class="cls-2" points="352.13 205.18 362.98 198.92 356.32 205.72 364.81 200.81 357.46 206.85 365.75 202.06 358.26 208.69 366.59 203.88 358.59 210.94 367.28 205.92 358.68 213.34 367.81 208.07 361.92 213.8 368.01 210.28 367.08 213.63 368.2 212.99"/><polyline class="cls-2" points="342.89 199.45 347.37 196.86 339.81 203.9 353.61 195.93 338.79 207.51 357.94 196.46 338.51 209.71 360.17 197.2 338.43 212.61 362.63 198.63 338.61 214.28 348.8 208.4 338.83 216.27 348.48 210.7 339.43 218.43 348.66 213.1 340.1 220.26 349.12 215.06 341 222.21 349.95 217.04 341.94 223.68 350.85 218.53 342.92 225.11 351.93 219.91 344.05 226.46 353.1 221.23 345.84 228.37 355 223.08 346.99 229.49 356.22 224.16 348.69 231.01 357.94 225.67 350.2 232.32 359.44 226.99 351.64 233.59 360.87 228.27 353.32 235.11 362.44 229.84 354.66 236.45 363.7 231.24 356.07 238.09 365.06 232.9 357.12 239.59 366.06 234.44 358.3 241.94 367.28 236.76 358.86 243.7 368 238.42 359.1 245.43 368.44 240.03 359.12 247.18 368.84 241.57 358.69 249.53 369.05 243.54"/><polyline class="cls-2" points="399.96 236.08 418.72 225.25 403.34 236.05 418.12 227.51 406.96 235.84 416.89 230.11"/><polyline class="cls-2" points="400.13 205.06 412.6 197.85 405.15 205.12 414.9 199.49 407.18 205.73 416 200.64 408.54 207.25 417.18 202.26 409.16 209.33 418.02 204.21 409.29 211.71 418.65 206.31 409.28 214.05 419.07 208.4 409.28 216.86 419.24 211.11 409.28 219.37 419.28 213.59 409.25 221.16 419.28 215.37 409.03 223.24 419.28 217.33"/><polyline class="cls-2" points="389.45 196.27 390.02 195.94 389.44 198.95 394.64 195.95 389.44 201.98 399.87 195.95 389.43 204.01 403.38 195.96 389.43 206.86 407.84 196.23 389.43 208.64 409.98 196.78 389.42 210.76 412.16 197.64 389.42 213.28 399.43 207.49 389.42 215.5 399.44 209.71 389.41 217.96 399.44 212.17 389.41 219.98 399.44 214.19 389.4 221.98 399.44 216.19 389.4 223.98 399.44 218.18 389.4 226.93 399.45 221.12 389.39 228.71 399.45 222.91 389.39 231.22 399.45 225.41 389.38 233.4 400.56 226.95 389.38 235.51 404.2 226.96 389.38 238 419.24 220.76 389.37 240.12 419.09 222.96 389.37 242.57 399.38 236.79 389.37 244.68 399.38 238.9 389.36 247.71 399.38 241.93 389.36 249.79 399.38 244 389.35 251.67 399.39 245.87 389.35 253.43 399.39 247.64 389.35 255.53 399.39 249.73 389.34 257.62 399.39 251.82 389.76 260.26 399.39 254.7 394.48 260.24 399.4 257.4 398.64 260.22 399.4 259.79"/><polyline class="cls-2" points="438.08 204.88 449.07 198.54 442.22 205.45 451.06 200.35 443.43 206.54 451.96 201.62 444.27 208.36 452.94 203.35 444.58 210.62 453.76 205.31 444.57 213.08 454.22 207.51 444.52 215.44 454.49 209.69 444.45 218.3 454.59 212.44 444.39 220.83 454.53 214.98 444.34 222.64 454.49 216.78 444.3 224.62 454.44 218.76 444.25 226.59 454.39 220.74 444.19 229.15 454.33 223.29 444.12 231.71 454.27 225.85 444.08 233.51 454.22 227.66 444.04 235.32 454.18 229.47 443.97 238.12 454.11 232.26 443.91 240.71 454.05 234.85 443.85 242.91 454 237.05 443.8 245.05 453.94 239.2 443.65 247.26 453.89 241.35 442.5 250.56 453.83 244.02"/><polyline class="cls-2" points="428.93 199.08 433.26 196.58 425.63 203.66 439.39 195.72 424.46 207.36 443.76 196.22 424.18 209.56 446.11 196.9 423.98 212.52 448.74 198.23 423.94 214.32 434.47 208.24 423.88 216.47 434.06 210.6 423.82 219.02 433.96 213.16 423.77 221.27 433.91 215.41 423.71 223.76 433.85 217.91 423.66 225.81 433.8 219.95 423.61 227.84 433.75 221.98 423.56 229.86 433.7 224 423.49 232.85 433.63 226.99 423.44 234.66 433.59 228.8 423.38 237.2 433.52 231.34 423.33 239.41 433.47 233.56 423.28 241.55 433.42 235.69 423.22 244.07 433.36 238.21 423.25 246.16 433.31 240.36 423.36 248.55 433.25 242.84 423.75 250.44 433.19 244.98 424.53 253.01 433.31 247.95 425.25 254.68 433.84 249.72 426.19 256 434.79 251.04 427.16 257.21 436.28 251.94 428.6 258.47 439.36 252.26 430.37 259.54 453.75 246.04 433.35 260.7 453.47 249.09 436.99 261.3 452.69 252.24 441.22 261.25 451.05 255.57"/><polyline class="cls-2" points="471.47 235.65 490.72 224.53 474.6 235.76 489.34 227.25 477.04 236.23 485.3 231.47 479.15 237.57 487.27 232.89 480.08 239.06 488.49 234.21 480.52 240.62 489.24 235.59 480.74 243.04 490.04 237.67 480.73 244.84 490.44 239.23 480.6 247.7 490.74 241.85 480.48 250.19 490.74 244.27 480.39 252.14 490.68 246.2 480.3 254.08 490.59 248.14 480.2 257.18 490.44 251.27 480.25 259.25 490.33 253.44 480.46 260.9 490.25 255.25 482.04 262.38 490.19 257.68 485.27 262.52 490.31 259.61 490.1 262.73 490.91 262.27"/><polyline class="cls-2" points="472.94 206.69 485.46 199.46 477.63 206.94 487.94 200.99 479.7 207.54 489.17 202.07 481.22 208.96 490.31 203.71 481.95 210.97 491.18 205.65 482.1 213.34 491.77 207.76 482.02 215.72 492.11 209.9 481.89 218.62 492.14 212.69 481.67 221.24 492.06 215.25 481.2 223.29 491.97 217.08"/><polyline class="cls-2" points="462.73 197.43 463.27 197.12 462.6 200.18 467.56 197.32 462.45 203.29 472.4 197.55 462.35 205.39 475.66 197.7 462.21 208.31 480.01 198.04 462.12 210.14 482.4 198.44 462.02 212.32 484.84 199.15 461.9 214.9 472.2 208.96 461.79 217.18 472.1 211.23 461.67 219.71 471.98 213.76 461.57 221.78 471.89 215.83 461.47 223.84 471.8 217.88 461.38 225.89 471.71 219.93 461.23 228.92 471.57 222.95 461.14 230.76 471.49 224.78 461.02 233.34 472.74 226.57 460.92 235.58 476.36 226.66 460.81 237.74 491.73 219.9 460.69 240.3 491.29 222.63 460.59 242.47 470.88 236.53 460.47 244.99 470.77 239.05 460.37 247.16 470.67 241.21 460.22 250.28 470.53 244.32 460.12 252.41 470.43 246.46 460.02 254.34 470.35 248.38 459.94 256.15 470.26 250.19 459.84 258.3 470.17 252.34 459.74 260.45 470.07 254.49 462.95 261.48 469.94 257.44 467.32 261.66 469.81 260.22"/><polyline class="cls-2" points="523.07 236.98 537.12 228.87 526 237.21 536.99 230.86 528.88 237.43 536.84 232.83 532.78 237.73 536.63 235.51 535.89 237.97 536.47 237.63"/><polyline class="cls-2" points="525.22 209.93 539.26 201.82 529.74 210.28 542.81 202.73 532.47 210.5 542.67 204.61 535.98 210.77 542.49 207.01 539.7 211.06 542.29 209.56"/><polyline class="cls-2" points="515.38 200.31 515.92 200 515.16 203.11 520 200.32 514.91 206.28 524.62 200.68 514.74 208.41 527.72 200.92 514.5 211.4 532.06 201.26 514.36 213.26 534.77 201.47 514.18 215.48 538.01 201.73 513.97 218.11 524.55 212 513.79 220.44 524.37 214.33 513.58 223.01 524.17 216.9 513.41 225.13 524 219.01 513.25 227.23 523.84 221.11 513.08 229.32 523.68 223.2 512.84 232.4 523.44 226.28 512.69 234.28 523.83 227.84 512.48 236.9 527.65 228.14 512.3 239.19 530.99 228.4 512.12 241.39 534.2 228.65 511.92 244 522.49 237.89 511.74 246.21 522.32 240.11 511.54 248.78 522.12 242.67 511.36 250.99 521.95 244.88 511.11 254.17 521.7 248.05 510.94 256.35 521.53 250.23 510.78 258.31 521.38 252.19 510.63 260.15 521.24 254.03 510.46 262.35 521.77 255.82 510.95 264.16 524.96 256.07 515.34 264.5 529.36 256.41 519.46 264.83 533.48 256.73 523.11 265.11 537.13 257.01 527.64 265.47 538.33 259.3 531.27 265.75 538.14 261.79 534.38 265.99 537.98 263.92 537.29 266.22 537.83 265.92"/><polyline class="cls-2" points="562.15 212.63 572.92 206.42 566.13 213.3 574.94 208.21 567.42 214.34 575.93 209.43 568.26 216.16 576.95 211.14 568.48 218.47 577.68 213.16 568.3 221.03 578.17 215.33 568.05 223.51 578.45 217.5 567.74 226.5 578.36 220.37 567.47 229.16 578.15 222.99 567.28 231.05 577.96 224.88 567.07 233.12 577.75 226.96 566.86 235.19 577.54 229.02 566.59 237.87 577.26 231.7 566.31 240.55 576.99 234.39 566.12 242.44 576.8 236.27 565.93 244.33 576.6 238.17 565.63 247.26 576.31 241.1 565.35 249.97 576.03 243.81 565.12 252.28 575.79 246.12 564.85 254.55 575.57 248.36 564.19 257.05 575.34 250.62"/><polyline class="cls-2" points="552.83 206.82 557.06 204.37 549.57 211.37 563.15 203.53 548.41 215.07 567.47 204.06 548.02 217.33 569.76 204.78 547.66 220.39 572.41 206.09 547.46 222.27 558.47 215.92 547.23 224.53 557.92 218.36 546.96 227.19 557.64 221.03 546.72 229.55 557.4 223.38 546.46 232.16 557.13 226 546.24 234.31 556.91 228.14 546.02 236.43 556.7 230.27 545.8 238.55 556.48 232.39 545.49 241.68 556.16 235.52 545.29 243.58 555.97 237.41 545.02 246.24 555.7 240.08 544.78 248.56 555.46 242.39 544.56 250.79 555.24 244.63 544.43 253.35 554.97 247.27 544.44 255.47 554.74 249.52 544.73 257.75 554.47 252.12 545.22 259.57 554.35 254.3 546.25 262.01 554.79 257.07 547.17 263.56 555.8 258.57 548.32 264.76 557.35 259.55 549.49 265.85 559.73 259.94 551.22 266.95 575.08 253.17 553.29 267.84 574.78 255.43 556.75 268.73 574.1 258.71 560.83 269.07 572.66 262.24 565.41 268.81 572.98 264.45 566.88 270.94 575.63 265.89 568.63 272.31 575.39 268.41 570.65 273.18 575.19 270.56 573.84 273.81 574.94 273.17"/><polyline class="cls-2" points="607.51 209.57 608.03 209.27 607.11 212.76 612.26 209.79 606.87 214.69 614.82 210.1 606.56 217.17 616.92 211.19 606.23 219.8 616.59 213.82 605.9 222.44 616.26 216.47 605.59 224.96 615.94 218.98 605.21 227.99 615.56 222.02 604.87 230.69 615.22 224.71 604.63 232.61 614.98 226.63 604.37 234.71 614.72 228.74 604.11 236.81 614.45 230.84 603.77 239.53 614.11 233.56 603.43 242.25 613.77 236.28 603.19 244.16 613.53 238.19 602.95 246.08 613.29 240.12 602.58 249.05 612.91 243.09 602.24 251.81 612.57 245.84 601.94 254.14 612.27 248.18 601.66 256.42 611.99 250.46 601.35 258.72 611.7 252.75 600.35 261.94 611.35 255.59"/><polyline class="cls-2" points="587.1 207.01 587.62 206.71 586.74 209.9 591.44 207.18 586.33 213.16 595.76 207.71 586.05 215.35 596.98 209.04 585.67 218.42 596.6 212.11 585.42 220.34 596.36 214.03 585.14 222.62 596.07 216.31 584.8 225.33 595.73 219.02 584.5 227.72 595.43 221.41 584.16 230.37 595.09 224.06 583.89 232.55 594.82 226.24 583.62 234.7 594.55 228.39 583.35 236.85 594.28 230.54 582.95 240.03 593.88 233.72 582.71 241.96 593.64 235.65 582.37 244.66 593.3 238.35 582.08 247.01 593 240.7 581.79 249.28 592.72 242.97 581.46 251.96 592.38 245.65 581.17 254.24 592.1 247.93 580.95 256.82 591.77 250.57 580.83 258.99 591.48 252.84 581.1 261.87 591.07 256.11 581.56 263.68 590.89 258.3 582.06 265.26 590.99 260.11 582.79 266.6 591.47 261.6 583.81 268.11 592.61 263.03 585.05 269.48 594.72 263.9 587.29 271.07 611.13 257.31 589.96 272.24 610.67 260.27 592.86 272.95 610.08 263.01 597.35 273.33 608.37 266.97"/><polyline class="cls-2" points="624.7 211.89 625.21 211.6 624.28 214.81 628.94 212.12 623.81 218.11 633.16 212.71 623.49 220.33 634.57 213.93 623.04 223.43 634.12 217.03 622.77 225.37 633.85 218.97 622.44 227.68 633.52 221.28 622.04 230.41 633.13 224.02 621.7 232.83 632.78 226.43 621.31 235.52 632.4 229.12 621 237.71 632.09 231.31 620.69 239.9 631.77 233.5 620.38 242.07 631.46 235.67 619.91 245.28 631 238.88 619.63 247.23 630.73 240.82 619.24 249.96 630.34 243.56 618.9 252.34 630 245.93 618.57 254.63 629.67 248.23 618.19 257.34 629.28 250.93 617.86 259.65 628.95 253.24 617.47 262.32 628.57 255.91 617.14 264.62 628.24 258.21 616.67 267.92 627.77 261.51 616.35 270.19 627.45 263.78 616.05 272.23 627.16 265.82 615.78 274.15 626.88 267.74 617.15 275.45 626.56 270.02 620.07 275.86 626.23 272.3 624.08 276.42 625.78 275.44"/><polyline class="cls-2" points="646.86 255.44 668.51 242.94 649.5 255.83 668.01 245.14 652.18 256.16 667.31 247.43 656.5 256.22 665.5 251.03"/><polyline class="cls-2" points="651.86 224.82 663.2 218.27 655.91 225.44 665.65 219.82 657.96 226.05 666.84 220.92 659.59 227.4 668.12 222.47 660.19 229.49 669.08 224.36 660.12 231.99 669.72 226.45 659.74 234.55 670.08 228.58 659.24 237.65 670.17 231.34 658.8 240.41 669.92 233.99 658.44 242.39 669.64 235.93 657.68 244.79 669.3 238.08"/><polyline class="cls-2" points="642.83 214.52 643.34 214.23 642.35 217.47 646.96 214.81 641.82 220.81 651.07 215.47 641.46 223.05 653.82 215.91 640.96 226.19 657.67 216.54 640.64 228.15 659.85 217.05 640.27 230.48 662.18 217.83 639.82 233.25 650.99 226.8 639.43 235.69 650.6 229.24 639 238.4 650.18 231.95 638.64 240.63 649.83 234.16 638.28 242.83 649.48 236.37 637.93 245.03 649.13 238.56 637.41 248.28 648.62 241.8 637.1 250.24 648.31 243.77 636.65 253 648.11 246.39 636.27 255.41 651.07 246.86 635.89 257.73 654.1 247.22 635.46 260.47 668.79 241.22 635.08 262.8 646.24 256.35 634.65 265.5 645.82 259.05 634.27 267.82 645.45 261.37 633.74 271.16 644.92 264.71 633.37 273.45 644.56 266.99 633.04 275.51 644.24 269.05 632.73 277.46 643.93 270.99 635.3 278.07 643.57 273.3 638.15 278.51 643.21 275.6 642.09 279.12 642.7 278.76"/><polyline class="cls-2" points="688.84 230.71 699.49 224.56 692.78 231.4 701.57 226.32 694.08 232.44 702.58 227.53 695 234.2 703.58 229.25 695.12 236.57 704.39 231.22 694.75 239.25 704.92 233.38 694.27 241.85 705.05 235.63 693.69 245 704.91 238.52 693.17 247.8 704.54 241.24 692.8 249.79 704.18 243.23 692.4 251.98 703.78 245.41 692 254.16 703.38 247.59 691.48 256.98 702.86 250.41 690.96 259.8 702.34 253.24 690.6 261.79 701.97 255.22 690.23 263.79 701.6 257.22 689.66 266.87 701.04 260.3 689.14 269.73 700.51 263.16 688.69 272.15 700.06 265.59 687.87 274.74 699.63 267.95"/><polyline class="cls-2" points="679.69 224.77 684.16 222.19 676.38 229.36 689.93 221.53 675.05 233.15 694.02 222.2 674.49 235.51 696.34 222.89 673.9 238.7 699.01 224.2 673.53 240.69 685.12 234 673.1 243.06 684.47 236.49 672.58 245.87 683.95 239.3 672.12 248.35 683.5 241.78 671.62 251.1 682.99 244.53 671.2 253.36 682.58 246.79 670.79 255.6 682.16 249.03 670.38 257.83 681.75 251.26 669.77 261.13 681.15 254.56 669.4 263.12 680.78 256.56 668.89 265.93 680.26 259.36 668.48 268.34 679.81 261.8 668.22 270.6 679.38 264.15 668.2 273.09 678.87 266.93 668.37 275.11 678.43 269.3 668.89 277.26 678.08 271.96 669.61 278.95 678.22 273.99 671.01 281.18 679.53 276.26 672.22 282.56 681.39 277.26 673.62 283.62 684 277.63 675.09 284.53 699.13 270.65 677.09 285.47 698.7 273 679.53 286.16 698.1 275.43 683.48 286.75 696.78 279.08 689.07 286.08 693.54 283.5"/><path class="cls-1" d="M1448.46,135.28c1.14,1.66,2.24,3.37,3.43,5,2.2,3,5.43,3.68,8.79,2.29,0.61,0.87,1.72,1.83,2.77,1.07a2.18,2.18,0,0,0,.62-2.76c0.81-.45,1.62-0.92,2.42-1.4,0.67,0.81,1.67,1.5,2.7.79a1.67,1.67,0,0,0,.66-1.47,6.24,6.24,0,0,0-.32-1.21c1.34-.85,2.68-1.7,4-2.5l10-6a2.4,2.4,0,0,0,1.32,1.17,1.57,1.57,0,0,0,1.46-.77,2.53,2.53,0,0,0,.25-2.21l2.74-1.6a1.94,1.94,0,0,0,2.83.26,2.14,2.14,0,0,0,.52-2.22q1.2-.73,2.37-1.49a4.44,4.44,0,0,0,1.36.93,0.78,0.78,0,0,0,.9-0.14,2.5,2.5,0,0,0,.58-2.79l0.32-.25a6.78,6.78,0,0,0,2.16-8.26c-1.47-3.21-4.81-4.2-8.13-3.93-4.56.38-9.11,1.19-13.64,1.82a69.37,69.37,0,0,0-13.1,2.72,1,1,0,0,0-.71.89,3.4,3.4,0,0,0-.75,2.2c0,2.06.53,3.88-1,5.59a19.06,19.06,0,0,1-5.34,3.65l-3.08,1.69a10.66,10.66,0,0,1-2.32,1.16c-1.49.38-2.93-1.48-4.42-.49a3.71,3.71,0,0,0-1.56,3.63A10.06,10.06,0,0,0,1448.46,135.28Zm4.91,3.48c-0.32-.44-0.62-0.91-0.94-1.37-0.51-.75-1.12-1.51-1.7-2.31A5.21,5.21,0,0,1,1453.37,138.76Zm6.61-3.27,0-.06-0.27-.78A5.06,5.06,0,0,1,1460,135.49Zm-3.09.8-0.17-.29a2.13,2.13,0,0,0,.22-0.42v0c0,0.16,0,.31,0,0.47S1456.91,136.22,1456.9,136.29Zm2.55-2.57a0.65,0.65,0,0,0,0,.15l-0.08-.22Zm3.26,5.45-0.37.23-0.08-.13a5.56,5.56,0,0,1-.5-1.53Zm-1.68,1v0h0Zm-2.58-1.36-0.1-.17,0-.07Zm3-4.2,0.2,0.07a0.66,0.66,0,0,0,0,.2Zm3,3.49-0.31.19-0.37-1.28C1464,137.38,1464.29,137.77,1464.48,138.08Zm-9.14-4.64-0.14-.3h0l0.12,0C1455.35,133.2,1455.35,133.32,1455.34,133.44Zm1.91-6.21,1.62-.88a15.42,15.42,0,0,0,6.33,3.78,14.21,14.21,0,0,1,4,1.55,20,20,0,0,1,2.52,2.06l-4.44,2.67c-1-1.67-2.87-2.37-4.73-3-3-1-4.5-3.12-5.95-5.81Zm9.64,1.2,1.1,1c-0.32-.13-0.65-0.25-1-0.35l-0.12,0a0.6,0.6,0,0,0,0-.56Zm-2,0a0.89,0.89,0,0,0-.06-0.23l-0.23-.53a9.4,9.4,0,0,1,.62.89Zm-2.85-1.42-0.51-.34a0.6,0.6,0,0,0,.08-0.13Zm-0.22-2.36,0.11,0.06v0l-0.1-.1h0Zm4.79,1.47,0.44,0a0.88,0.88,0,0,0,0,.18c0,0.12.07,0.23,0.11,0.34Zm2.63,0.13h0.13l0,0.11Zm2.24-.07h0.2l0.53,0,0.06,0.1q0.44,0.65.91,1.26Q1472.34,126.87,1471.52,126.17Zm9.5,2-0.16.09-0.28-.27Zm-1.63,1-0.16.1-0.73-.65Zm-1.55.93-0.12.07c-0.34-.3-0.67-0.6-1-0.91Zm-3.61,2.17-0.32.19a16,16,0,0,0-2.59-3l-0.77-.68,0.51,0.28,0.07,0C1472.12,130.16,1473.28,131.1,1474.23,132.23ZM1495,119.62c-2,1.26-3.93,2.47-5.93,3.67l-5.8,3.48c-5.91-4.38-13.85-.12-20.09-3.11a8,8,0,0,0,2.87-4,6.61,6.61,0,0,0,.2-2.47c-0.09-.81-0.55-2.64.49-3.09A1.17,1.17,0,0,0,1467,114q1.91-.6,3.86-1l0.41,2.58c0.15,0.95,1.58.53,1.43-.4l-0.4-2.48c0.65-.13,1.31-0.25,2-0.36a10.31,10.31,0,0,0,.36,2.63,0.74,0.74,0,0,0,1.43-.4,8.88,8.88,0,0,1-.3-2.47l2-.3a11.39,11.39,0,0,0,.55,2.14c0.33,0.9,1.76.5,1.43-.4a10.65,10.65,0,0,1-.52-1.94l2.21-.31a12.28,12.28,0,0,1,.17,2.15,0.74,0.74,0,0,0,1.49,0A13.6,13.6,0,0,0,1483,111l1.83-.26,0.55,2a0.74,0.74,0,0,0,1.43-.4l-0.49-1.81c1.55-.21,3.1-0.42,4.66-0.6,1.9-.22,4.2-0.48,5.9.63a4.72,4.72,0,0,1,2.08,4.22C1498.76,117.17,1496.89,118.43,1495,119.62Zm-40.18,20.76c0.44-1.68-.47-3.49-1.44-4.84s-2.17-2.29-3.77-2a9.71,9.71,0,0,1-.92-1.88c-0.28-.82-0.76-3.4,1-2.5a3.69,3.69,0,0,0,2,.53,6.45,6.45,0,0,0,.64-0.12,12.49,12.49,0,0,0,1.33,4c0.63,1.34,1.32,2.65,2.08,3.93s1.72,2.35,1.87,3.72h-0.45A4,4,0,0,1,1454.86,140.38Z" transform="translate(-895.19 7.71)"/><path class="cls-1" d="M1118.94,131.76a3.71,3.71,0,0,0-1.56-3.63c-1.49-1-2.93.87-4.42,0.49a10.66,10.66,0,0,1-2.32-1.16l-3.08-1.69a19.06,19.06,0,0,1-5.34-3.65c-1.53-1.72-1-3.53-1-5.59a3.4,3.4,0,0,0-.75-2.2,1,1,0,0,0-.71-0.89,69.37,69.37,0,0,0-13.1-2.72c-4.53-.63-9.08-1.44-13.64-1.82-3.31-.27-6.66.72-8.13,3.93a6.78,6.78,0,0,0,2.16,8.26l0.32,0.25a2.5,2.5,0,0,0,.58,2.79,0.78,0.78,0,0,0,.9.14,4.44,4.44,0,0,0,1.36-.93q1.17,0.77,2.37,1.49a2.14,2.14,0,0,0,.52,2.22,1.94,1.94,0,0,0,2.83-.26l2.74,1.6a2.53,2.53,0,0,0,.25,2.21,1.57,1.57,0,0,0,1.46.77,2.4,2.4,0,0,0,1.32-1.17l10,6c1.34,0.8,2.67,1.65,4,2.5a6.24,6.24,0,0,0-.32,1.21,1.67,1.67,0,0,0,.66,1.47c1,0.71,2,0,2.7-.79,0.8,0.48,1.6,1,2.42,1.4a2.18,2.18,0,0,0,.62,2.76c1,0.76,2.16-.19,2.77-1.07,3.36,1.39,6.58.73,8.79-2.29,1.19-1.63,2.29-3.33,3.43-5A10.06,10.06,0,0,0,1118.94,131.76Zm-4.38,4.49c-0.58.79-1.19,1.56-1.7,2.31-0.32.47-.63,0.94-0.94,1.37A5.21,5.21,0,0,1,1114.55,136.25Zm-8.95-.43-0.27.78,0,0.06A5.06,5.06,0,0,1,1105.6,135.82Zm2.76,1.42c0-.16,0-0.31,0-0.47v0a2.13,2.13,0,0,0,.22.42l-0.17.29C1108.38,137.38,1108.37,137.31,1108.36,137.24Zm-2.42-2.43-0.08.22a0.65,0.65,0,0,0,0-.15Zm-2.42,4.09a5.56,5.56,0,0,1-.5,1.53l-0.08.13-0.37-.23Zm0.72,2.41v0h0Zm2.66-1.6,0,0.07-0.1.17Zm-3.26-3.69a0.66,0.66,0,0,0,0-.2l0.2-.07Zm-2.15,2.14-0.37,1.28-0.31-.19C1101,138.94,1101.23,138.54,1101.49,138.16Zm8.44-3.91,0.12,0h0l-0.14.3C1109.93,134.49,1109.93,134.37,1109.93,134.25Zm-1.22-5.46c-1.44,2.7-2.91,4.81-5.95,5.81-1.86.61-3.76,1.31-4.73,3l-4.44-2.67a20,20,0,0,1,2.52-2.06,14.21,14.21,0,0,1,4-1.55,15.42,15.42,0,0,0,6.33-3.78l1.62,0.88Zm-10.37.91a0.6,0.6,0,0,0,0,.56l-0.12,0c-0.34.1-.67,0.22-1,0.35l1.1-1Zm1.68,0a9.4,9.4,0,0,1,.62-0.89l-0.23.53a0.89,0.89,0,0,0-.06.23Zm3.61-2a0.6,0.6,0,0,0,.08.13l-0.51.34Zm-0.22-1.89-0.1.1v0l0.11-.06h0Zm-5.37,2c0-.11.08-0.23,0.11-0.34a0.88,0.88,0,0,0,0-.18l0.44,0Zm-2.21-.33,0-.11H1096Zm-3.77,1.15q0.47-.61.91-1.26l0.06-.1,0.53,0h0.2Q1092.94,128,1092.07,128.66Zm-7.37.49-0.28.27-0.16-.09Zm2.09,0.61-0.73.65-0.16-.1Zm1.76,0.64c-0.32.31-.65,0.61-1,0.91l-0.12-.07Zm5.59-.13,0.07,0,0.51-.28-0.77.68a16,16,0,0,0-2.59,3l-0.32-.19C1092,132.27,1093.17,131.33,1094.14,130.26ZM1066.35,116a4.72,4.72,0,0,1,2.08-4.22c1.7-1.1,4-.85,5.9-0.63,1.55,0.18,3.11.39,4.66,0.6l-0.49,1.81a0.74,0.74,0,0,0,1.43.4l0.55-2,1.83,0.26a13.6,13.6,0,0,0-.19,2.34,0.74,0.74,0,0,0,1.49,0,12.28,12.28,0,0,1,.17-2.15l2.21,0.31a10.65,10.65,0,0,1-.52,1.94c-0.33.9,1.1,1.3,1.43,0.4a11.39,11.39,0,0,0,.55-2.14l2,0.3a8.88,8.88,0,0,1-.3,2.47,0.74,0.74,0,0,0,1.43.4,10.31,10.31,0,0,0,.36-2.63c0.66,0.11,1.31.23,2,.36l-0.4,2.48c-0.15.93,1.28,1.35,1.43,0.4l0.41-2.58q2,0.43,3.86,1a1.17,1.17,0,0,0,.22.13c1,0.45.59,2.28,0.49,3.09a6.61,6.61,0,0,0,.2,2.47,8,8,0,0,0,2.87,4c-6.24,3-14.17-1.27-20.09,3.11l-5.8-3.48c-2-1.2-4-2.41-5.93-3.67S1066.52,118.34,1066.35,116ZM1108,142.38h-0.45c0.15-1.37,1.19-2.57,1.87-3.72s1.45-2.59,2.08-3.93a12.49,12.49,0,0,0,1.33-4,6.45,6.45,0,0,0,.64.12,3.69,3.69,0,0,0,2-.53c1.8-.91,1.33,1.68,1,2.5a9.71,9.71,0,0,1-.92,1.88c-1.6-.24-2.84.74-3.77,2s-1.88,3.16-1.44,4.84A4,4,0,0,1,1108,142.38Z" transform="translate(-895.19 7.71)"/><path class="cls-1" d="M1141.94,49.08c1.43,41,2,81.94,3,122.91,0,1.78,2.81,1.79,2.77,0-1-41-1.59-82-3-122.91-0.06-1.78-2.83-1.79-2.77,0h0Z" transform="translate(-895.19 7.71)"/><path class="cls-1" d="M1169.14,51.76a286.38,286.38,0,0,0-59.8,34.41c-1.41,1.06,0,3.46,1.4,2.39a286.38,286.38,0,0,1,59.8-34.41c1.64-.69.23-3.08-1.4-2.39h0Z" transform="translate(-895.19 7.71)"/><path class="cls-1" d="M1150.26,72.72a18.89,18.89,0,0,0-14.86,5.89c-1.23,1.29.72,3.25,2,2a16.15,16.15,0,0,1,12.9-5.08c1.78,0.1,1.78-2.67,0-2.77h0Z" transform="translate(-895.19 7.71)"/><path class="cls-1" d="M1137.94,63.26c27.46,28.86,67.41,39.34,105.66,44.46,24,3.22,48.35,5.07,72.57,6,11.38,0.42,22.38-2,33.09-5.72s21.54-7.84,31.44-13.09C1401,84.14,1415.24,65.25,1428.39,47c1-1.45-1.36-2.83-2.39-1.4-11.83,16.38-24.49,33.21-41.89,44.07-9.35,5.84-20.09,9.81-30.37,13.7-10.57,4-21.67,7.37-33.05,7.59-11.69.22-23.57-1-35.22-1.87-11.4-.85-22.79-1.87-34.15-3.21-19.18-2.25-38.37-5.57-56.74-11.63-20.52-6.76-39.68-17.23-54.67-33-1.23-1.29-3.19.67-2,2h0Z" transform="translate(-895.19 7.71)"/><path class="cls-1" d="M1423.26,38.5c-0.23,44.49.14,89,1.62,133.48,0.06,1.78,2.83,1.79,2.77,0-1.49-44.47-1.85-89-1.62-133.48a1.39,1.39,0,0,0-2.77,0h0Z" transform="translate(-895.19 7.71)"/><path class="cls-1" d="M1398.23,44.55l58.84,41.16c1.46,1,2.85-1.38,1.4-2.39l-58.84-41.16c-1.46-1-2.85,1.38-1.4,2.39h0Z" transform="translate(-895.19 7.71)"/><path class="cls-1" d="M1414.44,65.44l18.92,11.83c1.52,0.95,2.91-1.45,1.4-2.39L1415.84,63c-1.52-.95-2.91,1.45-1.4,2.39h0Z" transform="translate(-895.19 7.71)"/><path class="cls-1" d="M1203.1,114.51l-3.65,6a0.71,0.71,0,0,0-.69.69c-0.33,5.68-3.27,7.91-7.18,11.38a4.13,4.13,0,0,0-1.73,2.47c-0.52,2.67,1.85,4.78,4.2,5.31,3.4,0.78,6.51-1.06,8.73-3.5,4-4.39,6.83-10.1,10-15.07a0.67,0.67,0,0,0,0-.7c-2-2.64-4.14-5.15-6.41-7.58a0.69,0.69,0,0,0-1,1,40.44,40.44,0,0,1,3.26,3.63c1.73,2.39,2,3.49.94,6.07s-3.4,5.35-5,7.73a27.34,27.34,0,0,1-3.33,4.5,6.51,6.51,0,0,1-3.14,2.13q-4,2.25-4.62-5.55c0.82-1.36,3-2.37,4-3.8,1.4-2,1.32-4.47,2.49-6.32,0.75-1.18,1.65-1.06,2.78-1.78,2.77-1.76,2.89-4.63,1.48-7.29a0.69,0.69,0,0,0-1.2.7h0Z" transform="translate(-895.19 7.71)"/><path class="cls-1" d="M1205.86,113.9c-0.2-3-.44-6,0.61-8.84s1.81-3.26,4.7-4.12q2.56-1.87,4.61.3a9,9,0,0,1,3,2.2,66,66,0,0,1,10.49,12.87c0.49,0.74,1.69,0,1.2-.7a81.09,81.09,0,0,0-8.94-11.35c-2.34-2.45-5.24-5.65-8.94-5.73-7.92-.16-8.5,9.82-8.13,15.36,0.06,0.88,1.44.89,1.38,0h0Z" transform="translate(-895.19 7.71)"/><path class="cls-1" d="M1228.85,113.39a7.16,7.16,0,0,0,7.13,7.93l-0.49-1.18c-5.28,5.52-3.69,11.77-.68,17.86,2,4.1-.64,6-4.58,6.08-5.67.05-7-4.35-7.36-9-0.33-4.15-2.58-20.94,4.71-20.34,0.89,0.07.88-1.31,0-1.38-6.84-.57-6.51,7.61-6.38,12.32,0.15,5.25-1.14,14.07,3.38,18.07,2.84,2.52,12.46,2.7,13.79-1.75,0.58-1.94-1.46-3.5-2.42-4.88-3.44-4.9-3.8-11.49.51-16a0.7,0.7,0,0,0-.49-1.18,5.87,5.87,0,0,1-5.74-6.55c0.07-.89-1.32-0.88-1.38,0h0Z" transform="translate(-895.19 7.71)"/><path class="cls-1" d="M1343.11,117.39c1.78-6.21,6.81-15.25,14.36-15.15s11.63,10.2,13.65,16c0.29,0.84,1.63.48,1.34-.37-2.27-6.55-6.63-17-15-17.06s-13.74,9.33-15.7,16.17a0.69,0.69,0,0,0,1.34.37h0Z" transform="translate(-895.19 7.71)"/><path class="cls-1" d="M1286.28,127.26a62.59,62.59,0,0,0-2.13-11.95c-0.51-1.78-1.23-6.48-3.47-7.2-1.46-.47-2.46.66-3.18,1.76-2.5,3.83-4.33,8.34-6.44,12.41-0.41.79,0.79,1.49,1.2,0.7l3.73-7.22,1.55-3,0.93-1.8q2.36-2.23,2.75,0c1.34,1.55,1.8,5.31,2.27,7.28a61.1,61.1,0,0,1,1.4,9c0.08,0.88,1.46.89,1.38,0h0Z" transform="translate(-895.19 7.71)"/><path class="cls-1" d="M1267.51,122.19a28.7,28.7,0,0,0,3.46,2.38c1.52,1.14,2.12-1,2,2.51,0,1.46-1.51,3.45-2.09,4.77a44.18,44.18,0,0,0-2.11,6.34c-0.26,1-.34,3.16-1,3.95q-0.11,2.43-2.59.37-3.41.13-1.73-2.19c0-1.92,1.4-4.09,1.45-6.19a15.32,15.32,0,0,0-.17-2.51c-0.29-2.07-.57-2.17.92-3.64,1.17-1.15,1.11.57,2.19-1,0.71-1.05.19-3.12,0.52-4.22a0.69,0.69,0,0,0-1.34-.37c-0.41,1.33-.09,3.34-1.38,4.24-0.75.53-1.33-.44-2.28,0.31s-0.51,1.76-.45,2.8c0.14,2.68.88,4.5,0.22,7.32-0.46,2-1.78,3.82-1.87,5.86a4.58,4.58,0,0,0,1.32,3.83c2.7,2.19,5.24-.66,6.19-3.1,1.5-3.85,2-8,3.66-11.81,1.17-2.66,2.32-4.64,1.92-7.6a0.7,0.7,0,0,0-.67-0.51,7.06,7.06,0,0,1-5.19-2.48,0.69,0.69,0,0,0-1,1h0Z" transform="translate(-895.19 7.71)"/><path class="cls-1" d="M1282.71,126.41a6.29,6.29,0,0,0,1.27,3.91c0.93,1.19,2.67,1.3,3.49,2.21,1.84,2.07.9,8.09,2,11.1,0.64,1.69,1.78,2.84,2.67,4.3,1.14,1.87,1.71,3.72-.88,4.52-3.88,1.2-4.48-1.68-5.46-3.9-1.24-2.8-2.46-5.61-3.69-8.41-0.68-1.55-2.38-4.39-2.57-6-0.32-2.61,1.76-4.9,3.34-6.62a0.69,0.69,0,0,0-1-1c-4.48,4.87-4.2,6.94-1.73,12.57,1.71,3.9,3.22,8,5.17,11.77,0.76,1.48,1.41,2.85,3.11,3.32,2.47,0.68,7.19-1.82,6.71-4.72-0.32-2-3-3.51-3.92-5.25-1.89-3.76-1.77-8.26-1.7-12.35a0.71,0.71,0,0,0-.69-0.69l-4.8-4.84c0-.89-1.43-0.89-1.38,0h0Z" transform="translate(-895.19 7.71)"/><path class="cls-1" d="M1368.36,117.13c-2.29,6.11,5.11,7.63,9.5,7.51l-0.6-1a14.82,14.82,0,0,0-.85,10.36,13.69,13.69,0,0,0,2,4.1c1.48,2.06,8,8.82,1.43,9.51-2.36.25-1.91-.47-3.08-2.68q-0.81-1.53-1.68-3a84.8,84.8,0,0,0-4.71-7.23c-2-2.75-4.47-7.26-7.65-8.58a0.7,0.7,0,0,0-.88.67l0,0.29a0.71,0.71,0,0,0,.69.69l0.21,0c0.88,0.12.87-1.27,0-1.38-0.67-.09,3.21,4.81,3.39,5,1.42,1.73,2.78,3.53,4.06,5.36a83.42,83.42,0,0,1,5,8.08c1.37,2.54,1.83,6,5,4.94,2.58-.84,4.53-4.12,3.87-6.71-0.51-2-2.47-3.3-3.71-4.78a13.08,13.08,0,0,1-1.9-14,0.7,0.7,0,0,0-.6-1c-2.63.07-10.42,0.27-8.16-5.75,0.31-.84-1-1.2-1.34-0.37h0Z" transform="translate(-895.19 7.71)"/><path class="cls-1" d="M1364.06,126.86a44.88,44.88,0,0,0,4.15-9.15L1367,118l0.81,0.9c0.6,0.66,1.57-.32,1-1L1368,117a0.7,0.7,0,0,0-1.16.31,43.23,43.23,0,0,1-4,8.82,0.69,0.69,0,0,0,1.2.7h0Z" transform="translate(-895.19 7.71)"/><path class="cls-1" d="M1363.94,128.57l-0.44.83a0.69,0.69,0,0,0,1.2.7l0.44-.83a0.69,0.69,0,0,0-1.2-.7h0Z" transform="translate(-895.19 7.71)"/><path class="cls-1" d="M1367.86,135.59l-0.42.42a0.69,0.69,0,0,0,1,1l0.42-.42a0.69,0.69,0,0,0-1-1h0Z" transform="translate(-895.19 7.71)"/><path class="cls-1" d="M1373.81,145.18a0.69,0.69,0,0,0,0-1.38,0.69,0.69,0,0,0,0,1.38h0Z" transform="translate(-895.19 7.71)"/><path class="cls-1" d="M1279.24,136.65h-0.42a0.69,0.69,0,0,0,0,1.38h0.42a0.69,0.69,0,0,0,0-1.38h0Z" transform="translate(-895.19 7.71)"/><path class="cls-1" d="M1283.71,144.91v-0.26a0.69,0.69,0,0,0-1.38,0v0.26a0.69,0.69,0,0,0,1.38,0v-0.26a0.69,0.69,0,0,0-1.38,0v0.26a0.69,0.69,0,0,0,1.38,0h0Z" transform="translate(-895.19 7.71)"/><path class="cls-1" d="M1284.65,150.63a0.71,0.71,0,0,1-.24.5,0.72,0.72,0,0,0-.25.95,0.7,0.7,0,0,0,.95.25A2,2,0,0,0,1286,151c0.15-.87-1.19-1.25-1.34-0.37h0Z" transform="translate(-895.19 7.71)"/><path class="cls-1" d="M1199.47,138.63l-0.38-.15,0.06,0.1a1,1,0,0,0,.11.23,1.43,1.43,0,0,0,.26.43,1,1,0,0,0,1,.19c0.74-.24,1-1.38.06-1.55s-1.24,1.17-.37,1.34l-0.06,0-0.34-.6,0.3-.48,0.43,0.22a2.26,2.26,0,0,0-.1-0.22,2.13,2.13,0,0,0-.29-0.49,1,1,0,0,0-1.06-.33,0.69,0.69,0,0,0,.37,1.34h0Z" transform="translate(-895.19 7.71)"/><path class="cls-1" d="M1203.17,135.5l1.69,1.25a0.7,0.7,0,0,0,.95-0.25,0.71,0.71,0,0,0-.25-0.95l-1.69-1.25a0.7,0.7,0,0,0-.95.25,0.71,0.71,0,0,0,.25.95h0Z" transform="translate(-895.19 7.71)"/><path class="cls-1" d="M1208.71,129.09l1.68,1.26a0.7,0.7,0,0,0,.95-0.25,0.71,0.71,0,0,0-.25-0.95l-1.68-1.26a0.7,0.7,0,0,0-.95.25,0.71,0.71,0,0,0,.25.95h0Z" transform="translate(-895.19 7.71)"/><path class="cls-1" d="M1210.79,124.49l1.26,0.84c0.74,0.5,1.44-.7.7-1.2l-1.26-.84c-0.74-.5-1.44.7-0.7,1.2h0Z" transform="translate(-895.19 7.71)"/><path class="cls-1" d="M1199.22,140.28v-0.42a0.69,0.69,0,0,0-1.38,0v0.42a0.69,0.69,0,0,0,1.38,0h0Z" transform="translate(-895.19 7.71)"/><path class="cls-1" d="M1198,140.19l1.25,2.11a0.69,0.69,0,0,0,1.2-.7l-1.25-2.11a0.69,0.69,0,0,0-1.2.7h0Z" transform="translate(-895.19 7.71)"/><path class="cls-1" d="M1221.65,136.65l-0.84,0a0.69,0.69,0,0,0,0,1.38l0.84,0a0.69,0.69,0,0,0,0-1.38h0Z" transform="translate(-895.19 7.71)"/><path class="cls-1" d="M1220.82,130.33c-0.67-.39-1.68-0.63-2.12.22a1,1,0,0,0,.85,1.56,0.69,0.69,0,0,0,0-1.38l0.4,0.36q-0.42.23-.17,0.27a2.19,2.19,0,0,0,.33.17,0.69,0.69,0,0,0,.7-1.2h0Z" transform="translate(-895.19 7.71)"/><path class="cls-1" d="M1220.81,121.54l-0.41,0a0.71,0.71,0,0,0-.69.69,0.7,0.7,0,0,0,.69.69l0.41,0a0.71,0.71,0,0,0,.69-0.69,0.7,0.7,0,0,0-.69-0.69h0Z" transform="translate(-895.19 7.71)"/><path class="cls-1" d="M1221.52,117.17a1.51,1.51,0,0,0-2.26-1.37,0.69,0.69,0,0,0,.7,1.2c0.18-.11.19,0.11,0.18,0.18a0.7,0.7,0,0,0,.69.69,0.71,0.71,0,0,0,.69-0.69h0Z" transform="translate(-895.19 7.71)"/><path class="cls-1" d="M1268.54,143.06a1.54,1.54,0,0,1,1.28.93c0.38,0.81,1.57.1,1.2-.7a2.78,2.78,0,0,0-2.11-1.57,0.72,0.72,0,0,0-.85.48,0.7,0.7,0,0,0,.48.85h0Z" transform="translate(-895.19 7.71)"/><path class="cls-1" d="M1270.09,136.63l0.84,0.43c0.79,0.41,1.49-.79.7-1.2l-0.84-.43c-0.79-.41-1.49.79-0.7,1.2h0Z" transform="translate(-895.19 7.71)"/><path class="cls-1" d="M1273,128.23l0.84,0.43c0.79,0.4,1.49-.79.7-1.2l-0.84-.43c-0.79-.4-1.49.79-0.7,1.2h0Z" transform="translate(-895.19 7.71)"/><path class="cls-1" d="M1340.44,117.64c4.13,3.39-2.79,4.75-3.57,6.31-1,1.92.39,4.59,0.33,6.61a15.68,15.68,0,0,1-1.78,6.64c-0.89,1.66-2.5,2.86-3.37,4.47-0.54,1-1.19,1.88-.68,3.08,4.1,9.56,18.53-12.3,20.31-14.42a0.71,0.71,0,0,0-.14-1.09,23.06,23.06,0,0,1-7.42-8.92c-0.43-.88-0.57-1.82-1.45-2.3a0.71,0.71,0,0,0-.95.25l-0.17.28a0.71,0.71,0,0,0,.25.95l0.2,0.14c0.73,0.51,1.43-.69.7-1.2-0.89-.62,1.24,4.6,1.2,4.54a22.6,22.6,0,0,0,2.29,3.26c0.48,0.57,3.07,2.56,3.28,3.18,0.49,1.43-.56,1.79-1.24,2.86-2.33,3.64-5.83,7-8.64,10.27q-0.75.94-1.55,1.83-1.77,2.35-4.08-2.81c0-.46,2-2.6,2.29-3.05a17,17,0,0,0,2.22-6.52c0.34-2.77-1.07-6.23,1-8.2s5.49-4.28,2-7.15c-0.68-.56-1.67.41-1,1h0Z" transform="translate(-895.19 7.71)"/><path class="cls-1" d="M1315,30.57c-11.16,0-13.39-.21-25.21-7.31-10.53,7.12-13.2,7.31-25.35,7.31,0,1.34,0,4.51,0,4.51q0,1.89,0,3.78c0,9.28.3,18.68,3.14,27.07,3.59,10.62,10.65,18.24,22.19,24,11.63-5.67,18.72-13.24,22.29-23.81,2.62-7.77,3-16.43,3-25,0-1.9,0-3.8,0-5.68C1315,35.35,1315,31.93,1315,30.57Z" transform="translate(-895.19 7.71)"/><path class="cls-1" d="M1320.78,37.87V25.77c0-.87-1.09-1.08-1.76-1.08h-5.65l-3-.12a33.24,33.24,0,0,1-5.46-.76,46.7,46.7,0,0,1-9.52-4.3c-0.54-.29-4.92-3.24-5.64-3.24a1.18,1.18,0,0,0-.6.14c-2.65,1.87-5.32,3.59-7.87,5.06a24.94,24.94,0,0,1-2.89,1.41,25.09,25.09,0,0,1-8.41,1.68l-10.2.12a1.33,1.33,0,0,0-1.14,1v17.1l0.37,8.12a74.72,74.72,0,0,0,1.88,12.42A51.57,51.57,0,0,0,1266.42,77c0.58,0.94,1.13,2,1.82,3a50.27,50.27,0,0,0,6.38,7.17,54.31,54.31,0,0,0,11.19,7.81,29.26,29.26,0,0,0,3.92,1.81c1.14,0,8.56-4.46,9.08-4.82,1.44-1,2.84-2.07,4.18-3.07a44.42,44.42,0,0,0,12.07-15,47.39,47.39,0,0,0,2.46-6.21c0.71-2.37,1.32-4.85,1.81-7.13a85,85,0,0,0,1.19-9.22c0.08-.85.11-1.91,0.14-3a15.53,15.53,0,0,1,.12-2.76C1320.87,44.91,1320.78,45.3,1320.78,37.87Zm-30.62,54-0.43.21-0.43-.21c-27.06-13.16-27-35.36-26.87-56.83V28.58h1c13,0,15,0,25.76-7.33l0.53-.36,0.55,0.33c12.18,7.35,13.72,7.35,25.71,7.35h1l0,6.74C1317.22,56.72,1317.45,78.85,1290.16,91.9Z" transform="translate(-895.19 7.71)"/><path class="cls-1" d="M1505.92,171.82l96.58-40.27c1.62-.68.91-3.36-0.74-2.67l-96.58,40.27c-1.62.68-.91,3.36,0.74,2.67h0Z" transform="translate(-895.19 7.71)"/><path class="cls-1" d="M1675.08,164.8a435.16,435.16,0,0,0-90.89,27.65c-1.63.7-.22,3.09,1.4,2.39a432.08,432.08,0,0,1,90.23-27.37c1.75-.33,1-3-0.74-2.67h0Z" transform="translate(-895.19 7.71)"/><path class="cls-1" d="M910.19,123.47a809.11,809.11,0,0,1,80,50.43c1.45,1,2.84-1.36,1.4-2.39a809.11,809.11,0,0,0-80-50.43c-1.56-.86-3,1.53-1.4,2.39h0Z" transform="translate(-895.19 7.71)"/><path class="cls-1" d="M896.14,173.1a470.92,470.92,0,0,1,62.79,26.74c1.58,0.81,3-1.57,1.4-2.39a475.94,475.94,0,0,0-63.45-27c-1.69-.58-2.42,2.1-0.74,2.67h0Z" transform="translate(-895.19 7.71)"/><path class="cls-1" d="M1315.94-7.08l-6.12,9.21c-1,1.49,1.41,2.88,2.39,1.4l6.12-9.21c1-1.49-1.41-2.88-2.39-1.4h0Z" transform="translate(-895.19 7.71)"/><path class="cls-1" d="M1340.48,17L1330,26.43c-1.33,1.19.64,3.15,2,2l10.5-9.44c1.33-1.19-.64-3.15-2-2h0Z" transform="translate(-895.19 7.71)"/><path class="cls-1" d="M1269.11,5.62L1261.89-4.8c-1-1.45-3.41-.07-2.39,1.4L1266.72,7c1,1.45,3.41.07,2.39-1.4h0Z" transform="translate(-895.19 7.71)"/><path class="cls-1" d="M1232.65,22.15l9.9,10a1.39,1.39,0,0,0,2-2l-9.9-10a1.39,1.39,0,0,0-2,2h0Z" transform="translate(-895.19 7.71)"/></svg>