<svg id="Layer_1" data-name="Layer 1" xmlns="http://www.w3.org/2000/svg" viewBox="0 0 563.21 254.57"><defs><style>.cls-1,.cls-3,.cls-4,.cls-5,.cls-6{fill:none;stroke:#333;}.cls-1,.cls-4,.cls-5{stroke-linecap:round;}.cls-1,.cls-5{stroke-linejoin:round;}.cls-1{stroke-width:1.25px;}.cls-2{fill:#333;}.cls-3,.cls-4,.cls-6{stroke-miterlimit:10;}.cls-3{stroke-width:3px;}.cls-4,.cls-6{stroke-width:2px;}.cls-7{fill:#3d3d3d;}.cls-8{fill:#fff;}</style></defs><title>goleadores</title><polyline class="cls-1" points="116.65 189.01 117.38 188.59 116.87 190.96 121.83 188.09 117.08 192.87 126.22 187.6 117.38 195.47 131.84 187.12 117.61 197.54 132.07 189.19 119.66 198.32 132.27 191.04 122.79 199.27 132.56 193.63 122.99 201.09 132.76 195.45 123.31 203.93 133.07 198.29 123.59 206.4 133.34 200.76 123.8 208.32 133.55 202.69 124.02 210.24 133.76 204.61 124.05 213.52 134.1 207.72 123.02 216.28 134.28 209.78"/><polyline class="cls-1" points="112.63 167.29 124.6 160.38 117.25 167.83 126.54 162.47 118.52 169.04 127.45 163.88 119.48 170.97 128.49 165.77 119.97 173.33 129.24 167.98 120.24 175.84 129.82 170.3 120.5 178.21 130.23 172.59 121.49 180.69 130.57 175.44 127.33 180.03 130.87 177.99"/><polyline class="cls-1" points="102.27 161.35 107.43 158.37 98.96 166.16 114.46 157.22 97.92 170.04 119.34 157.68 97.73 172.36 121.64 158.55 97.81 175.4 124.24 160.14 97.95 177.24 108.8 170.98 98.19 179.4 108.58 173.4 98.47 181.96 108.78 176 98.71 184.22 109.02 178.26 98.99 186.72 109.3 180.77 99.21 188.78 109.52 182.82 99.44 190.82 109.75 184.86 99.66 192.85 109.97 186.9 99.99 195.85 110.3 189.9 100.19 197.67 110.5 191.71 100.47 200.22 110.78 194.27 100.71 202.44 111.02 196.49 100.95 204.59 111.26 198.63 101.22 207.12 111.54 201.16 101.46 209.27 111.77 203.32 101.74 211.77 112.05 205.82 102.06 213.87 112.28 207.97 102.64 216.81 112.62 211.05 103.28 218.69 112.94 213.12 103.96 220.33 113.42 214.87 104.78 221.77 114.2 216.32 105.93 223.37 115.79 217.68 107.28 224.86 118.87 218.16 109.73 226.56 134.41 212.31 112.76 227.74 134.18 215.37 116.36 228.25 133.5 218.35 123.14 227.56 130.83 223.12"/><polyline class="cls-1" points="152.27 163.36 164.35 156.39 156.82 163.94 166.4 158.41 158.1 165.15 167.41 159.77 159.05 167.09 168.45 161.65 159.51 169.46 169.25 163.84 159.74 171.99 169.89 166.13 159.95 174.4 170.25 168.45 160.2 177.3 170.56 171.32 160.42 179.88 170.78 173.9 160.58 181.72 170.94 175.74 160.75 183.73 171.12 177.75 160.93 185.74 171.29 179.76 161.15 188.34 171.52 182.36 161.38 190.95 171.74 184.96 161.53 192.78 171.9 186.79 161.69 194.62 172.06 188.64 161.94 197.46 172.3 191.48 162.17 200.1 172.53 194.12 162.36 202.34 172.72 196.35 162.55 204.52 172.91 198.54 162.74 206.71 173.1 200.72 162.75 209.56 173.34 203.44 161.6 212.66 173.52 205.78"/><polyline class="cls-1" points="142.06 157.43 147.01 154.57 138.63 162.31 154.13 153.36 137.59 166.19 159 153.83 137.3 168.56 161.38 154.66 137.35 171.62 150.11 164.25 137.47 173.47 148.31 167.21 137.66 175.66 148.09 169.64 137.88 178.25 148.24 172.26 138.08 180.54 148.44 174.55 138.3 183.08 148.66 177.09 138.48 185.16 148.84 179.17 138.66 187.22 149.02 181.24 138.83 189.28 149.2 183.3 139.1 192.32 149.46 186.34 139.26 194.16 149.62 188.18 139.48 196.75 149.84 190.76 139.67 199 150.04 193.01 139.86 201.17 150.22 195.19 140.08 203.73 150.45 197.75 140.27 205.91 150.63 199.93 140.5 208.44 150.85 202.46 140.82 210.53 151.04 204.64 141.48 213.44 151.31 207.76 142.1 215.33 151.63 209.83 142.89 216.9 152.18 211.54 143.69 218.35 153.07 212.94 144.99 219.87 154.84 214.18 146.47 221.28 158.43 214.38 149.08 222.89 173.57 208.75 152.32 223.95 173.23 211.88 156.11 224.35 172.39 214.95 163.69 223.2 168.9 220.19"/><polyline class="cls-1" points="177.26 152.48 177.94 152.08 177.44 155.27 183.63 151.7 177.65 158.43 188.18 152.35 177.78 160.55 188.31 154.47 177.98 163.53 188.51 157.45 178.1 165.38 188.63 159.3 178.24 167.6 188.77 161.52 178.41 170.22 188.94 164.13 178.56 172.53 189.09 166.45 178.73 175.1 189.26 169.02 178.86 177.21 189.4 171.12 179 179.3 189.54 173.21 179.13 181.38 189.67 175.29 179.33 184.46 189.87 178.37 179.45 186.32 190 180.23 179.62 188.94 190.17 182.85 179.77 191.21 190.31 185.13 179.91 193.41 190.46 187.32 180.08 196.01 190.63 189.92 180.22 198.22 190.77 192.13 180.39 200.78 190.94 194.69 180.53 202.98 191.08 196.89 180.74 206.14 191.29 200.05 180.88 208.31 191.43 202.22 181 210.27 191.56 204.17 181.12 212.11 191.68 206.01 181.26 214.29 191.82 208.2 181.41 216.48 191.96 210.38 181.6 219.49 196.7 210.76 182.99 221.61 202.44 210.38 188.04 221.28 207.5 210.05 194.34 220.87 210.1 211.77 199.38 220.53 210.27 214.25 203.7 220.25 210.41 216.38 208.92 219.91 210.59 218.95"/><polyline class="cls-1" points="225.35 188.73 239.38 180.63 229.25 188.55 239.47 182.65 233.09 188.38 239.57 184.63 238.3 188.13 239.69 187.33"/><polyline class="cls-1" points="224.05 159.37 241.88 149.08 230.08 159.09 242.02 152.2 233.73 158.93 242.11 154.09 238.41 158.71 242.22 156.51"/><polyline class="cls-1" points="212.07 150.3 212.73 149.92 212.19 153.13 218.17 149.68 212.33 156.33 224.33 149.4 212.43 158.47 228.47 149.21 212.56 161.48 234.26 148.95 212.64 163.36 237.88 148.79 212.74 165.6 223.38 159.46 212.86 168.25 223.5 162.1 212.96 170.59 223.61 164.44 213.07 173.19 223.73 167.04 213.17 175.32 223.82 169.17 213.26 177.44 223.92 171.28 213.35 179.54 224.01 173.39 213.49 182.66 224.16 176.5 213.57 184.54 224.24 178.38 213.69 187.19 228.5 178.64 213.79 189.49 232.94 178.44 213.89 191.72 237.24 178.24 214 194.34 239.34 179.72 214.1 196.58 224.75 190.43 214.22 199.17 224.86 193.02 214.31 201.4 224.96 195.25 214.45 204.6 225.11 198.45 214.55 206.79 225.21 200.64 214.64 208.77 225.3 202.61 214.72 210.63 225.38 204.47 214.82 212.84 225.48 206.69 214.91 215.05 225.58 208.89 215.05 218.1 230.88 208.96 217.72 219.48 236.38 208.71 222.57 219.26 241.25 208.48 228.63 218.99 244.55 209.8 233.47 218.78 244.67 212.31 237.62 218.59 244.77 214.46 242.64 218.36 244.89 217.06"/><polyline class="cls-1" points="260.71 205.21 282.3 192.74 264.46 205.11 282.64 194.62 268.15 205.02 282.98 196.46 273.17 204.89 283.44 198.97 273.88 206.69 283.8 200.96 274.19 208.47 284.13 202.73 274.63 210.97 284.58 205.22 274.94 212.73 284.9 206.98 275.42 215.47 285.4 209.71 276.42 217.53 285.84 212.09 280.13 217.43 286.18 213.94 283.84 217.34 286.51 215.79"/><polyline class="cls-1" points="265.92 160.64 275.42 155.16 266.43 163.55 275.95 158.06 266.73 165.32 276.27 159.81 267.12 167.58 276.68 162.06 267.53 169.99 277.12 164.45 267.95 172.41 277.56 166.86 268.35 174.7 277.98 169.14 268.82 177.48 278.48 171.9 269.25 179.94 278.93 174.35 269.55 181.7 279.25 176.09 269.88 183.62 279.6 178.01 270.21 185.54 279.95 179.91 270.64 188.02 280.4 182.39 271.07 190.51 280.86 184.86 271.37 192.26 281.17 186.6 271.67 194.02 281.49 188.35"/><polyline class="cls-1" points="258.1 148.62 258.81 148.21 257.67 151.77 264.05 148.08 257.18 155.33 269.98 147.94 256.85 157.72 273.96 147.84 256.38 161.07 274.59 150.56 256.09 163.17 274.91 152.3 255.75 165.66 275.3 154.38 255.34 168.62 265.48 162.76 254.98 171.23 265.15 165.35 254.58 174.12 264.79 168.23 254.25 176.5 264.49 170.59 253.92 178.85 264.2 172.92 253.6 181.2 263.9 175.25 253.12 184.67 263.47 178.7 252.83 186.77 263.2 180.78 252.42 189.72 262.84 183.71 252.07 192.29 262.51 186.26 251.72 194.77 262.2 188.72 251.32 197.69 261.84 191.62 250.97 200.18 261.53 194.09 250.58 203.07 263.25 195.75 250.23 205.55 267.38 195.65 249.74 209.12 281.9 190.55 249.4 211.56 260.03 205.43 249.1 213.77 259.76 207.61 248.81 215.84 259.51 209.67 248.77 218.13 259.2 212.11 252.89 218.02 258.9 214.55 257.84 217.88 258.54 217.47"/><polyline class="cls-1" points="303.25 157.52 317.32 149.39 308.81 157.51 319.97 151.07 311.32 158 321.3 152.24 313.13 159.45 322.57 154 314.05 161.56 323.6 156.04 314.35 164.05 324.38 158.25 314.37 166.56 324.87 160.5 314.36 169.62 325.12 163.41 314.35 172.33 325.21 166.06 314.35 174.26 325.2 168 314.34 176.38 325.2 170.11 314.34 178.49 325.19 172.22 314.33 181.23 325.19 174.96 314.32 183.97 325.18 177.7 314.32 185.89 325.17 179.62 314.31 187.83 325.17 181.56 314.31 190.82 325.16 184.55 314.3 193.59 325.15 187.32 314.29 195.94 325.15 189.67 314.29 198.24 325.14 191.97 314.28 200.54 325.14 194.27 313.88 203.62 325.13 197.13"/><polyline class="cls-1" points="291.69 147.98 292.31 147.62 291.69 150.88 297.32 147.63 291.68 154.16 302.97 147.65 291.67 156.37 306.77 147.66 291.67 159.46 311.74 147.87 291.66 161.39 314.28 148.33 291.65 163.69 316.83 149.15 291.65 166.41 302.51 160.14 291.64 168.81 302.5 162.54 291.63 171.49 302.5 165.21 291.63 173.67 302.5 167.4 291.62 175.84 302.5 169.57 291.62 178.01 302.49 171.73 291.61 181.2 302.49 174.92 291.61 183.14 302.49 176.86 291.6 185.86 302.48 179.57 291.59 188.22 302.48 181.94 291.59 190.51 302.48 184.22 291.58 193.2 302.47 186.91 291.57 195.5 302.47 189.21 291.57 198.16 302.47 191.87 291.56 200.44 302.46 194.15 291.56 203.73 302.46 197.44 291.55 205.99 302.46 199.69 291.54 208.01 302.45 201.72 291.54 209.93 302.45 203.63 291.53 212.2 302.45 205.9 291.53 214.47 303.71 207.43 292.02 217.31 309.19 207.39 297.1 217.3 325.05 201.16 301.58 217.3 324.88 203.85 307.18 217.29 324.1 207.52 312.05 217.06 322.37 211.1"/><polyline class="cls-1" points="347.51 157.4 359.43 150.53 351.99 158.02 361.58 152.49 353.31 159.2 362.55 153.87 354.21 161.17 363.62 155.74 354.55 163.62 364.5 157.87 354.54 166.29 365 160.25 354.47 168.85 365.29 162.61 354.39 171.95 365.4 165.59 354.32 174.7 365.33 168.34 354.27 176.66 365.28 170.3 354.21 178.8 365.22 172.45 354.16 180.94 365.17 174.59 354.08 183.72 365.09 177.36 354.01 186.49 365.02 180.13 353.96 188.44 364.97 182.09 353.91 190.41 364.92 184.05 353.83 193.44 364.84 187.08 353.76 196.25 364.77 189.89 353.7 198.63 364.71 192.28 353.64 200.96 364.65 194.6 353.47 203.35 364.59 196.93 352.18 206.95 364.51 199.83"/><polyline class="cls-1" points="337.6 151.1 342.29 148.4 334.02 156.07 348.92 147.47 332.75 160.08 353.65 148.01 332.45 162.46 356.19 148.75 332.23 165.67 359.05 150.19 332.17 167.63 343.61 161.03 332.11 169.96 343.16 163.58 332.04 172.72 343.05 166.36 331.98 175.16 342.99 168.8 331.91 177.86 342.92 171.51 331.85 180.08 342.86 173.72 331.8 182.28 342.8 175.93 331.74 184.47 342.75 178.12 331.65 187.72 342.66 181.36 331.6 189.68 342.61 183.32 331.53 192.43 342.54 186.08 331.47 194.83 342.48 188.47 331.41 197.15 342.42 190.79 331.34 199.88 342.35 193.52 331.38 202.15 342.29 195.85 331.49 204.74 342.22 198.55 331.91 206.78 342.16 200.86 332.77 209.56 342.28 204.08 333.56 211.36 342.87 205.99 334.57 212.8 343.91 207.41 335.63 214.1 345.52 208.39 337.19 215.47 348.89 208.72 339.11 216.63 364.43 202.01 342.35 217.88 364.11 205.31 346.29 218.53 363.26 208.73 350.88 218.47 361.47 212.35"/><polyline class="cls-1" points="383.64 190.8 404.57 178.72 387.01 190.93 403.03 181.68 389.65 191.44 398.6 186.28 391.94 192.89 400.74 187.81 392.95 194.51 402.06 189.25 393.42 196.2 402.87 190.75 393.66 198.82 403.74 193 393.65 200.77 404.18 194.69 393.5 203.87 404.5 197.52 393.36 206.58 404.49 200.15 393.26 208.69 404.43 202.24 393.15 210.79 404.32 204.34 393.05 214.16 404.15 207.74 393.1 216.4 404.04 210.09 393.32 218.19 403.95 212.05 395.05 219.78 403.88 214.69 398.54 219.94 404 216.78 403.75 220.18 404.64 219.67"/><polyline class="cls-1" points="385.29 159.44 398.84 151.61 390.37 159.71 401.53 153.26 392.63 160.34 402.87 154.43 394.27 161.88 404.09 156.21 395.03 164.09 405.04 158.31 395.2 166.65 405.68 160.6 395.11 169.23 406.05 162.91 394.95 172.37 406.08 165.94 394.71 175.22 405.99 168.71 394.19 177.44 405.89 170.69"/><polyline class="cls-1" points="374.24 149.38 374.83 149.04 374.09 152.36 379.46 149.27 373.93 155.74 384.69 149.53 373.81 158.01 388.2 149.7 373.66 161.18 392.91 150.07 373.56 163.16 395.5 150.5 373.44 165.53 398.15 151.26 373.31 168.32 384.48 161.87 373.18 170.8 384.37 164.34 373.05 173.54 384.24 167.08 372.94 175.79 384.14 169.32 372.83 178.02 384.03 171.55 372.72 180.25 383.93 173.77 372.55 183.53 383.78 177.05 372.46 185.52 383.68 179.04 372.32 188.31 385.05 180.97 372.2 190.75 388.96 181.07 372.08 193.09 405.64 173.72 371.94 195.86 405.14 176.7 371.83 198.22 383 191.77 371.69 200.96 382.87 194.5 371.58 203.31 382.76 196.85 371.41 206.69 382.6 200.23 371.3 209 382.49 202.54 371.19 211.09 382.39 204.62 371.1 213.06 382.3 206.59 370.98 215.39 382.19 208.92 370.87 217.72 382.08 211.25 374.46 218.77 381.93 214.46 379.18 218.97 381.79 217.47"/><polyline class="cls-1" points="424.02 191.17 439.18 182.42 427.22 191.4 439.03 184.58 430.38 191.62 438.88 186.71 434.66 191.92 438.68 189.59 437.95 192.15 438.53 191.81"/><polyline class="cls-1" points="426.13 161.85 441.51 152.97 431.08 162.2 445.11 154.1 434.07 162.41 444.97 156.12 437.91 162.68 444.79 158.71 442 162.97 444.6 161.46"/><polyline class="cls-1" points="415.38 151.5 415.97 151.16 415.17 154.53 420.44 151.48 414.92 157.94 425.5 151.84 414.76 160.24 428.89 152.08 414.52 163.46 433.65 152.42 414.38 165.47 436.62 152.63 414.21 167.87 440.17 152.88 414 170.7 425.41 164.12 413.82 173.21 425.23 166.62 413.63 175.99 425.04 169.4 413.46 178.27 424.88 171.68 413.3 180.53 424.72 173.94 413.14 182.78 424.56 176.19 412.9 186.11 424.33 179.51 412.75 188.13 424.66 181.26 412.55 190.96 428.85 181.55 412.37 193.43 432.5 181.81 412.2 195.81 436.02 182.05 412 198.61 423.4 192.03 411.83 201 423.23 194.42 411.63 203.78 423.04 197.19 411.46 206.16 422.87 199.57 411.21 209.58 422.63 202.99 411.04 211.93 422.46 205.34 410.89 214.05 422.32 207.45 410.75 216.04 422.18 209.44 410.58 218.41 422.42 211.57 410.57 220.68 425.92 211.81 415.38 221.02 430.74 212.15 419.9 221.34 435.26 212.47 423.89 221.62 439.25 212.75 428.86 221.97 440.73 215.12 432.84 222.25 440.54 217.81 436.25 222.5 440.39 220.1 439.65 222.74 440.23 222.4"/><polyline class="cls-1" points="446.81 202.66 447.38 202.34 446.62 204.85 450.48 202.62 446.46 206.98 453.54 202.9 446.38 209.8 457.1 203.61 446.55 211.91 456.88 205.94 446.78 213.73 456.68 208.01 447.48 216.08 456.7 210.76 448.12 217.65 457.12 212.46 449.48 219.89 458.74 214.54 451.11 221.58 461.67 215.48 452.67 222.72 479.01 207.52 454.42 223.76 478.95 209.59 458.06 224.96 478.36 213.24 461.1 225.48 477.51 216.01 464.33 225.53 476.27 218.64"/><polyline class="cls-1" points="465.36 164.48 476.96 157.79 469.72 165.17 479.02 159.8 471.08 166.32 479.98 161.19 471.88 168.35 481.01 163.08 472.07 170.88 481.72 165.31 471.88 173.66 482.14 167.73 474.12 174.89 482.34 170.14 478.68 175.3 482.25 173.24 481.53 175.56 482.1 175.23"/><polyline class="cls-1" points="455.38 157.99 459.94 155.36 452.05 162.81 466.45 154.5 450.74 166.85 471.11 155.09 450.35 169.28 473.52 155.9 450.11 172.5 476.31 157.37 450.12 174.42 461.78 167.69 450.37 176.57 461.15 170.35 450.92 178.97 461.11 173.09 451.58 180.99 461.49 175.27 452.51 183.12 462.24 177.5 453.43 184.77 463.07 179.21 454.45 186.35 464.07 180.8 455.53 187.89 465.19 182.31 457.29 190.07 466.97 184.47 458.41 191.35 468.1 185.76 460.01 193.14 469.71 187.54 461.4 194.7 471.09 189.11 462.73 196.22 472.39 190.64 464.2 198.06 473.85 192.48 465.34 199.69 474.98 194.12 466.5 201.68 476.16 196.1 467.31 203.49 477.05 197.87 468 206.38 478.07 200.56 468.03 208.61 478.59 202.51 467.77 210.79 478.85 204.39 466.95 213.17 479.04 206.19"/><polygon class="cls-2" points="389.06 26.57 394.05 25.06 392.21 29.94 395.18 34.23 389.97 33.98 386.81 38.13 385.44 33.1 380.51 31.39 384.87 28.52 384.99 23.31 389.06 26.57"/><polygon class="cls-2" points="446.78 46.02 451.77 44.51 449.93 49.39 452.9 53.68 447.69 53.43 444.54 57.58 443.16 52.55 438.24 50.84 442.6 47.97 442.71 42.76 446.78 46.02"/><polygon class="cls-2" points="201.59 36.44 204.95 38.61 201.18 39.96 200.16 43.82 197.72 40.65 193.73 40.87 195.98 37.57 194.54 33.84 198.38 34.97 201.48 32.45 201.59 36.44"/><polygon class="cls-2" points="130.78 36.26 134.49 38.66 130.33 40.15 129.19 44.42 126.49 40.92 122.08 41.16 124.57 37.51 122.98 33.39 127.22 34.63 130.65 31.85 130.78 36.26"/><path class="cls-3" d="M1078.06,697.42s224.92-47.61,446.42,0" transform="translate(-1010.9 -444.33)"/><path class="cls-3" d="M1334,493.8a47,47,0,1,1-70.35-2.22" transform="translate(-1010.9 -444.33)"/><circle class="cls-2" cx="1282.83" cy="507.97" r="5.45" transform="translate(-1049.69 -332.57) rotate(-4.91)"/><path class="cls-2" d="M1317.91,506.28a25.7,25.7,0,0,1-10.1,0A5.44,5.44,0,1,0,1317.91,506.28Z" transform="translate(-1010.9 -444.33)"/><path class="cls-4" d="M1305.92,505.83s8.59,2.37,14.32-.14" transform="translate(-1010.9 -444.33)"/><path class="cls-4" d="M1291.32,501.91s-6.38-8.17-17.87-1.28" transform="translate(-1010.9 -444.33)"/><path class="cls-4" d="M1274.09,527.72s35.87,8.3,47.24-3.06" transform="translate(-1010.9 -444.33)"/><polyline class="cls-5" points="258.85 8.45 259.67 7.97 255.51 12.13 261.3 8.79 252.35 15.62 262.85 9.55 251.7 17.26 264.04 10.14 253.6 18.33 266.04 11.14 255.52 19.41 268.08 12.15 257.09 20.29 269.75 12.98 258.21 20.92 270.93 13.57 259.66 21.74 269.63 15.98 260.72 22.33 267.61 18.35 262.57 23.37 264.06 22.5"/><polyline class="cls-5" points="302.65 14.06 306.32 11.94 303.76 15.36 315.31 8.69 305.02 16.82 316.61 10.12 305.82 17.75 317.45 11.04 306.69 18.76 318.35 12.03 307.59 19.82 319.29 13.06 308.85 21.29 320.61 14.51 309.63 22.2 321.42 15.4 310.55 23.27 322.38 16.44"/><polyline class="cls-5" points="286.44 0.88 287.09 0.5 283.47 4.35 288.1 1.68 280.67 7.62 289.05 2.78 277.86 10.91 290 3.9 275 14.26 290.98 5.03 271.44 18.41 292.18 6.44 269.46 20.73 292.85 7.22 266.31 24.41 293.92 8.47"/><polyline class="cls-5" points="240.03 14.04 240.24 13.92 240.26 15.42 241.56 14.66 240.5 16.86 242.94 15.44 240.72 18.16 244.2 16.16 241.03 20.04 245.99 17.17 241.26 21.42 247.32 17.92 241.58 23.37 249.19 18.98 241.82 24.83 250.59 19.77 242.11 26.56 252.25 20.71 242.33 27.89 253.53 21.43 242.68 29.99 255.54 22.57 242.89 31.27 256.76 23.26 243.16 32.85 258.28 24.12 243.37 34.16 259.53 24.82 243.6 35.49 260.82 25.55 243.9 37.29 262.54 26.52 244.2 39.14 295.05 9.78 244.43 40.49 295.9 10.78 244.69 42.04 296.87 11.91 244.96 43.68 297.9 13.12 245.29 45.68 299.15 14.58 245.57 47.39 300.23 15.84 245.9 49.34 301.46 17.27 246.14 50.8 302.37 18.33 246.45 52.69 303.56 19.72 246.69 54.09 304.44 20.75 246.89 55.31 305.21 21.64 253.4 53.07 306.07 22.65 258.61 52.19 307.3 24.08 263.15 51.65 308.49 25.47 266.59 51.35 309.46 26.61 269.52 51.14 333.87 13.98 273.38 50.91 333.51 16.2 275.81 50.81 333.27 17.64 278.71 50.72 332.98 19.38 281.92 50.64 332.65 21.36 284.31 50.62 332.41 22.85 287.35 50.59 332.09 24.76 290.39 50.63 331.76 26.74 293.79 50.67 331.39 28.96 296.32 50.76 331.11 30.67 299.71 50.87 330.73 32.95 302.08 51.01 330.46 34.62 305.52 51.2 330.06 37.04 307.83 51.4 329.78 38.73 310.64 51.64 329.44 40.8 313.95 52.01 329.02 43.31 316.93 52.42 328.63 45.67 319.01 52.78 328.34 47.4 321.59 53.32 327.97 49.64 324.06 54.04 327.58 52 325.75 54.78 327.26 53.9"/><circle class="cls-6" cx="415.61" cy="98.52" r="34.5"/><circle class="cls-6" cx="174.61" cy="99.52" r="34.5"/><path class="cls-2" d="M1372.19,511.5a9.82,9.82,0,1,0,1.39,7.39A9.76,9.76,0,0,0,1372.19,511.5Zm-6.31-3.72a9.2,9.2,0,0,1,3.94,1.89,6.4,6.4,0,0,1-.89.55c-1.3-.64-2.44-1.21-3.42-1.81h0a3.22,3.22,0,0,1-.24-0.75Zm-0.52,1.18c1,0.6,2.12,1.16,3.42,1.8a7.75,7.75,0,0,1,.75,2.47l-2.11,1.62c-1.09-.43-2.23-0.91-3.33-1.4a15.56,15.56,0,0,1-1-3.24A7.44,7.44,0,0,1,1365.36,509Zm-2.79,1.44a16.55,16.55,0,0,0,1,3.19l0,0c-0.67.8-1.5,1.77-2.36,2.74-0.59,0-1.2-.09-1.83-0.11s-1.18,0-1.69,0a8.65,8.65,0,0,1-.6-2.86,12.41,12.41,0,0,1,2.7-2.82A8.25,8.25,0,0,1,1362.57,510.4Zm-3.67-1.31,0.1-.06a7.21,7.21,0,0,1,.16,1.27,12.94,12.94,0,0,0-2.56,2.72,6.9,6.9,0,0,1-1.16.15A9.23,9.23,0,0,1,1358.9,509.09Zm-0.3,15.34a9.34,9.34,0,0,1-3.46-4.7,10.17,10.17,0,0,1,1.12.1,16.23,16.23,0,0,0,2.46,4C1358.7,524,1358.66,524.2,1358.6,524.43Zm3.18-1a21.91,21.91,0,0,1-2.62.1,14.75,14.75,0,0,1-2.46-4.08,7.11,7.11,0,0,1,.9-2.63c0.51,0,1.08,0,1.71,0s1.22,0.07,1.8.11c0.62,0.9,1.31,1.9,1.93,3Zm2.83,2.72a3.08,3.08,0,0,1,.14-0.31,18,18,0,0,0,3.4-1.13c0.07,0.1.14,0.21,0.21,0.34A9.21,9.21,0,0,1,1364.61,526.12Zm3.64-2.11a15.94,15.94,0,0,1-3.71,1.28,10.11,10.11,0,0,1-2.25-1.72l1.25-3.45,3.42-.89a19,19,0,0,1,2.19,2.06l0.08,0.08A11.43,11.43,0,0,1,1368.25,524Zm3.69-4.37a12.35,12.35,0,0,1-2.36,1.31l0,0a19.81,19.81,0,0,0-2.13-2l0.2-3.54,2.15-1.65a6.39,6.39,0,0,1,2.4,1.59A19.57,19.57,0,0,1,1371.95,519.64Zm1.1-.86c-0.06.26-.12,0.52-0.2,0.77a2.73,2.73,0,0,1-.28-0.29,20.58,20.58,0,0,0,.18-3.78l0.32-.39A9.22,9.22,0,0,1,1373,518.77Z" transform="translate(-1010.9 -444.33)"/><rect class="cls-2" x="1352.26" y="527.49" width="6.51" height="48.89" transform="translate(-841.11 -750.35) rotate(13.73)"/><path class="cls-2" d="M1364.49,529s4-.15,5-2.27l0.89-.8,0.53-2.18s-7.11,1.56-15.83-3.87l-0.53,2.18,0.07,1.13s1.2,3.71,3.5,4.27Z" transform="translate(-1010.9 -444.33)"/><ellipse class="cls-7" cx="1359.29" cy="551.56" rx="1.86" ry="2.99" transform="translate(-510.1 1296.72) rotate(-76.27)"/><ellipse class="cls-7" cx="1358.41" cy="555.17" rx="1.86" ry="2.99" transform="translate(-514.28 1298.62) rotate(-76.27)"/><ellipse class="cls-7" cx="1357.53" cy="558.78" rx="1.86" ry="2.99" transform="translate(-518.46 1300.51) rotate(-76.27)"/><ellipse class="cls-7" cx="1356.65" cy="562.39" rx="1.86" ry="2.99" transform="translate(-522.64 1302.41) rotate(-76.27)"/><rect x="387.61" y="85.55" width="64.92" height="2.3"/><rect x="400.38" y="87.85" width="52.15" height="2.18"/><rect x="402.34" y="90.04" width="24.11" height="1.91"/><rect x="404.48" y="91.83" width="19.8" height="2.16"/><rect x="406.78" y="93.65" width="15.28" height="2.74"/><rect x="430.85" y="90.04" width="19.46" height="1.91"/><rect x="432.64" y="91.95" width="15.45" height="2.14"/><rect x="382.83" y="87.85" width="4.79" height="2.2"/><rect class="cls-8" x="404.48" y="87.6" width="2.3" height="2.3"/><rect class="cls-8" x="408.81" y="87.6" width="2.3" height="2.3"/><rect class="cls-8" x="406.61" y="89.84" width="2.3" height="2.3"/><rect class="cls-8" x="411.11" y="89.84" width="2.3" height="2.3"/><rect class="cls-8" x="408.81" y="92.08" width="2.3" height="2.3"/><rect class="cls-8" x="413.42" y="92.08" width="2.3" height="2.3"/><rect class="cls-8" x="432.8" y="87.6" width="2.3" height="2.3"/><rect class="cls-8" x="437.09" y="87.6" width="2.3" height="2.3"/><rect class="cls-8" x="434.96" y="90.04" width="2.3" height="2.3"/><rect class="cls-8" x="439.43" y="90.04" width="2.3" height="2.3"/><rect x="1153.1" y="530.87" width="64.92" height="2.3" transform="translate(1360.23 619.73) rotate(-180)"/><rect x="1153.1" y="533.18" width="52.15" height="2.18" transform="translate(1347.46 624.22) rotate(-180)"/><rect x="1179.18" y="535.36" width="24.11" height="1.91" transform="translate(1371.57 628.31) rotate(-180)"/><rect x="1181.36" y="537.16" width="19.8" height="2.16" transform="translate(1371.62 632.15) rotate(-180)"/><rect x="1183.57" y="538.97" width="15.28" height="2.74" transform="translate(1371.53 636.36) rotate(-180)"/><rect x="1155.32" y="535.36" width="19.46" height="1.91" transform="translate(1319.21 628.31) rotate(-180)"/><rect x="1157.54" y="537.28" width="15.45" height="2.14" transform="translate(1319.64 632.37) rotate(-180)"/><rect x="1218.02" y="533.18" width="4.79" height="2.2" transform="translate(1429.94 624.24) rotate(-180)"/><rect class="cls-8" x="1198.85" y="532.93" width="2.3" height="2.3" transform="translate(1389.12 623.84) rotate(-180)"/><rect class="cls-8" x="1194.52" y="532.93" width="2.3" height="2.3" transform="translate(1380.45 623.84) rotate(-180)"/><rect class="cls-8" x="1196.72" y="535.17" width="2.3" height="2.3" transform="translate(1384.85 628.31) rotate(-180)"/><rect class="cls-8" x="1192.22" y="535.17" width="2.3" height="2.3" transform="translate(1375.84 628.31) rotate(-180)"/><rect class="cls-8" x="1194.52" y="537.4" width="2.3" height="2.3" transform="translate(1380.45 632.79) rotate(-180)"/><rect class="cls-8" x="1189.91" y="537.4" width="2.3" height="2.3" transform="translate(1371.23 632.79) rotate(-180)"/><rect class="cls-8" x="1170.53" y="532.93" width="2.3" height="2.3" transform="translate(1332.48 623.84) rotate(-180)"/><rect class="cls-8" x="1166.24" y="532.93" width="2.3" height="2.3" transform="translate(1323.9 623.84) rotate(-180)"/><rect class="cls-8" x="1168.37" y="535.36" width="2.3" height="2.3" transform="translate(1328.16 628.71) rotate(-180)"/><rect class="cls-8" x="1163.9" y="535.36" width="2.3" height="2.3" transform="translate(1319.21 628.71) rotate(-180)"/><path class="cls-4" d="M1161.48,543.85s5.28,10.43,18.68,6.17" transform="translate(-1010.9 -444.33)"/><path class="cls-4" d="M1446,546.44s-9,4.81-24,1.35" transform="translate(-1010.9 -444.33)"/><path class="cls-4" d="M1182.8,527.13s6.85-4.91,12.87-.59" transform="translate(-1010.9 -444.33)"/><path class="cls-4" d="M1441.75,526.13s6.68-3.68,10.88.52" transform="translate(-1010.9 -444.33)"/><line class="cls-4" x1="417.21" y1="83.75" x2="403.4" y2="83.75"/><path class="cls-2" d="M1571.85,545.51a583.1,583.1,0,0,0-55.92,34.2c-1.58,1.09-.08,3.69,1.51,2.59a583.1,583.1,0,0,1,55.92-34.2c1.7-.91.19-3.5-1.51-2.59h0Z" transform="translate(-1010.9 -444.33)"/><path class="cls-2" d="M1540,528.11q-17.08,13.07-33.38,27.11c-1.46,1.26.67,3.38,2.12,2.12q16-13.8,32.77-26.64c1.51-1.16,0-3.76-1.51-2.59h0Z" transform="translate(-1010.9 -444.33)"/><path class="cls-2" d="M1011.68,546.33a492.4,492.4,0,0,1,79.67,44.33c1.6,1.09,3.1-1.5,1.51-2.59a492.4,492.4,0,0,0-79.67-44.33c-1.75-.77-3.28,1.81-1.51,2.59h0Z" transform="translate(-1010.9 -444.33)"/><path class="cls-2" d="M1059.89,546.33q27.06,16.12,53.46,33.31c1.62,1.06,3.13-1.54,1.51-2.59q-26.4-17.19-53.46-33.31a1.5,1.5,0,0,0-1.51,2.59h0Z" transform="translate(-1010.9 -444.33)"/><path class="cls-2" d="M1141.3,487.13a10.41,10.41,0,0,1,2.37,1.62,0.38,0.38,0,0,0,.53-0.53,11.13,11.13,0,0,0-2.52-1.74c-0.43-.22-0.81.43-0.38,0.65h0Z" transform="translate(-1010.9 -444.33)"/><path class="cls-2" d="M1146.07,483.43l4.82,3.28c0.4,0.27.78-.38,0.38-0.65l-4.82-3.28c-0.4-.27-0.78.38-0.38,0.65h0Z" transform="translate(-1010.9 -444.33)"/><path class="cls-2" d="M1134.15,490.8a33.88,33.88,0,0,1,5.48,5c0.32,0.36.85-.17,0.53-0.53a34.74,34.74,0,0,0-5.63-5.16c-0.39-.29-0.76.36-0.38,0.65h0Z" transform="translate(-1010.9 -444.33)"/><path class="cls-2" d="M1213.59,480.12a22,22,0,0,1,4.11,3,0.38,0.38,0,0,0,.53-0.53,22.81,22.81,0,0,0-4.26-3.09,0.38,0.38,0,0,0-.38.65h0Z" transform="translate(-1010.9 -444.33)"/><path class="cls-2" d="M1213.37,486a7.44,7.44,0,0,0,2.91,1.84c0.46,0.16.65-.57,0.2-0.72a6.61,6.61,0,0,1-2.57-1.64,0.38,0.38,0,0,0-.53.53h0Z" transform="translate(-1010.9 -444.33)"/><path class="cls-2" d="M1208.19,489.68l3.27,2a0.38,0.38,0,0,0,.38-0.65l-3.27-2a0.38,0.38,0,0,0-.38.65h0Z" transform="translate(-1010.9 -444.33)"/><path class="cls-2" d="M1392.62,469.15a25.64,25.64,0,0,0-4.76,4.38c-0.31.37,0.22,0.9,0.53,0.53a24.89,24.89,0,0,1,4.6-4.26c0.39-.28,0-0.93-0.38-0.65h0Z" transform="translate(-1010.9 -444.33)"/><path class="cls-2" d="M1393.23,478.34a9.2,9.2,0,0,0-3,2.84c-0.27.4,0.38,0.78,0.65,0.38a8.34,8.34,0,0,1,2.7-2.57,0.38,0.38,0,0,0-.38-0.65h0Z" transform="translate(-1010.9 -444.33)"/><path class="cls-2" d="M1402.62,480.16a17.64,17.64,0,0,0-4.17,4.09c-0.28.39,0.37,0.76,0.65,0.38a16.55,16.55,0,0,1,3.9-3.82c0.39-.27,0-0.92-0.38-0.65h0Z" transform="translate(-1010.9 -444.33)"/><path class="cls-2" d="M1451.87,499.17l0.06,0a0.38,0.38,0,0,0,.45-0.06,0.49,0.49,0,0,0,.16-0.53,0.38,0.38,0,0,0-.36-0.28c-0.7-.09-1.53.86-2.06,1.25l-2.64,1.95c-0.38.28,0,.93,0.38,0.65l2.22-1.64,1.11-.82a2.22,2.22,0,0,1,1-.63l-0.36-.28v0.1l0.1-.36-0.08.07,0.45-.06-0.06,0c-0.39-.28-0.77.37-0.38,0.65h0Z" transform="translate(-1010.9 -444.33)"/><path class="cls-2" d="M1446.73,497.63a29.55,29.55,0,0,0-3.86,3.71c-0.31.36,0.21,0.9,0.53,0.53a29.55,29.55,0,0,1,3.86-3.71c0.38-.3-0.16-0.83-0.53-0.53h0Z" transform="translate(-1010.9 -444.33)"/><path class="cls-2" d="M1451.86,503.09a32.27,32.27,0,0,1-4.11,4.56,0.38,0.38,0,0,0,.53.53,33.26,33.26,0,0,0,4.23-4.72c0.29-.39-0.36-0.76-0.65-0.38h0Z" transform="translate(-1010.9 -444.33)"/><path class="cls-2" d="M1472,480.91a0.38,0.38,0,0,0,0-.75,0.38,0.38,0,0,0,0,.75h0Z" transform="translate(-1010.9 -444.33)"/><g id="_8Q86Cg" data-name="8Q86Cg"><g id="_Group_" data-name="&lt;Group&gt;"><path id="_Compound_Path_" data-name="&lt;Compound Path&gt;" class="cls-2" d="M1516.54,475.06h4.09l1,0.2c5.38,1.06,8.93,4.35,11.1,9.22a32.08,32.08,0,0,1,1.27,4.33v3.95a1,1,0,0,0-.11.24,14.53,14.53,0,0,1-8.9,11.49,29.43,29.43,0,0,1-4.07,1.22h-4.09a1.08,1.08,0,0,0-.24-0.1,15.51,15.51,0,0,1-11.09-7.61,15.28,15.28,0,0,1-2-5.5v-3.81c0.23-1,.38-1.94.69-2.88a14.86,14.86,0,0,1,9-9.85A30.48,30.48,0,0,1,1516.54,475.06ZM1516,499.88c1-.41,2.07-0.79,3.08-1.27a2.09,2.09,0,0,0,1.2-1.7c0.21-1.54.48-3.08,0.71-4.62a0.67,0.67,0,0,0-.16-0.53q-1.43-1.19-2.91-2.33a2.18,2.18,0,0,0-2.43-.15c-1,.47-2,0.91-3,1.48a2.81,2.81,0,0,0-1.11,1.22,13.53,13.53,0,0,0-.59,2.35,3.09,3.09,0,0,0,1.11,3.22,20,20,0,0,0,2.38,1.68A10.41,10.41,0,0,0,1516,499.88ZM1526,489a2.85,2.85,0,0,0-.81.26q-1.71,1.17-3.36,2.41a1,1,0,0,0-.28.6c-0.28,1.72-.55,3.44-0.78,5.17a0.72,0.72,0,0,0,.26.6q1.55,0.9,3.15,1.73a1.64,1.64,0,0,0,1.79-.2c1-.7,2-1.36,3-2.09a3.27,3.27,0,0,0,1.5-2.4c0.06-.92.15-1.85,0.29-2.77a0.74,0.74,0,0,0-.36-0.86l-4-2.33A1.72,1.72,0,0,0,1526,489Zm-11.36-10a4,4,0,0,0-.68.1c-1.67.61-3.24,1.4-4,3.09-0.6,1.26-1,2.6-1.55,3.9a1.35,1.35,0,0,0,.17,1.47c0.77,0.88,1.58,1.74,2.42,2.55a1.19,1.19,0,0,0,1.46.12c1.19-.66,2.36-1.34,3.56-2a1.44,1.44,0,0,0,.76-1,27.45,27.45,0,0,1,1-3,2.46,2.46,0,0,0-.35-2.61c-0.61-.81-1.28-1.59-2-2.33A2.25,2.25,0,0,0,1514.63,479.09Zm18.45,8.37-0.11,0,0-.27a12.66,12.66,0,0,0-2.78-6.1,6.33,6.33,0,0,0-2.54-2,0.8,0.8,0,0,0-1.1.16,23.13,23.13,0,0,0-1.6,2.43,2.54,2.54,0,0,0-.24,1.61,31.85,31.85,0,0,0,1.19,3.81,3.09,3.09,0,0,0,1,1.48c1.22,0.81,2.55,1.45,3.82,2.17a0.52,0.52,0,0,0,.8-0.21,13.92,13.92,0,0,0,.89-1.28C1532.64,488.68,1532.84,488.06,1533.08,487.46Zm-13.55-5.14a16.12,16.12,0,0,1,2.43-.15,3.19,3.19,0,0,0,3.38-2l0.06-.12c0.93-1.63.76-2.26-.9-3.19l-0.48-.25a13.38,13.38,0,0,0-4.67-1.07,3.79,3.79,0,0,0-3.46,1.89,1.49,1.49,0,0,0,.15,2.1c0.59,0.66,1.22,1.29,1.78,2A1.67,1.67,0,0,0,1519.54,482.31Zm-12.22,15.42c-0.13,1.39,0,2.2.6,2.79a12.61,12.61,0,0,0,5,3.41,6.22,6.22,0,0,0,2.31.12,1.1,1.1,0,0,0,.7-0.68,3.94,3.94,0,0,0-1.19-3.17c-1.19-.86-2.39-1.71-3.53-2.63a2.18,2.18,0,0,0-2.27-.43Zm-3.3-8.14a1,1,0,0,0,0,.4c0.14,0.29.33,0.55,0.49,0.83a3.94,3.94,0,0,0,.71-0.51c0.5-.56,1-1.14,1.42-1.73a3.81,3.81,0,0,0,.8-1.23,25,25,0,0,1,2.16-5.83,1.16,1.16,0,0,0-.55-1.38,0.86,0.86,0,0,0-1.25.27c-0.3.37-.56,0.77-0.83,1.16A15.08,15.08,0,0,0,1504,489.59Zm18.82,14.08a1.15,1.15,0,0,0,1.67.33,14.36,14.36,0,0,0,6.85-5.76,2.33,2.33,0,0,0,.29-0.68c0.14-.64-0.17-0.91-0.8-0.7a2.43,2.43,0,0,0-.59.33c-1.24.87-2.43,1.83-3.73,2.59A11.57,11.57,0,0,0,1522.84,503.67Zm-0.78,1.12c-1.25-.71-5.1-0.82-6.4,0C1517.83,505.62,1519.94,505.21,1522.06,504.79Zm-15.62-6,0.35-.12c-0.11-.42-0.19-0.86-0.34-1.27-0.54-1.48-1.11-2.95-1.63-4.43a11,11,0,0,1-.3-1.34h-0.21a2.46,2.46,0,0,0-.17.85,13.11,13.11,0,0,0,.58,2.56C1505.21,496.27,1505.86,497.49,1506.44,498.74Z" transform="translate(-1010.9 -444.33)"/></g></g><g id="_8Q86Cg-2" data-name="8Q86Cg"><g id="_Group_2" data-name="&lt;Group&gt;"><path id="_Compound_Path_2" data-name="&lt;Compound Path&gt;" class="cls-2" d="M1075.88,476.26H1080l1,0.2c5.38,1.06,8.93,4.35,11.1,9.22a32.08,32.08,0,0,1,1.27,4.33V494a1,1,0,0,0-.11.24,14.53,14.53,0,0,1-8.9,11.49,29.43,29.43,0,0,1-4.07,1.22h-4.09a1.08,1.08,0,0,0-.24-0.1,15.51,15.51,0,0,1-11.09-7.61,15.28,15.28,0,0,1-2-5.5v-3.81c0.23-1,.38-1.94.69-2.88a14.86,14.86,0,0,1,9-9.85A30.48,30.48,0,0,1,1075.88,476.26Zm-0.58,24.82c1-.41,2.07-0.79,3.08-1.27a2.09,2.09,0,0,0,1.2-1.7c0.21-1.54.48-3.08,0.71-4.62a0.67,0.67,0,0,0-.16-0.53q-1.43-1.19-2.91-2.33a2.18,2.18,0,0,0-2.43-.15c-1,.47-2,0.91-3,1.48a2.81,2.81,0,0,0-1.11,1.22,13.53,13.53,0,0,0-.59,2.35,3.09,3.09,0,0,0,1.11,3.22,20,20,0,0,0,2.38,1.68A10.41,10.41,0,0,0,1075.3,501.08Zm10-10.84a2.85,2.85,0,0,0-.81.26q-1.71,1.17-3.36,2.41a1,1,0,0,0-.28.6c-0.28,1.72-.55,3.44-0.78,5.17a0.72,0.72,0,0,0,.26.6q1.55,0.9,3.15,1.73a1.64,1.64,0,0,0,1.79-.2c1-.7,2-1.36,3-2.09a3.27,3.27,0,0,0,1.5-2.4c0.06-.92.15-1.85,0.29-2.77a0.74,0.74,0,0,0-.36-0.86l-4-2.33A1.72,1.72,0,0,0,1085.34,490.24Zm-11.36-10a4,4,0,0,0-.68.1c-1.67.61-3.24,1.4-4,3.09-0.6,1.26-1,2.6-1.55,3.9a1.35,1.35,0,0,0,.17,1.47c0.77,0.88,1.58,1.74,2.42,2.55a1.19,1.19,0,0,0,1.46.12c1.19-.66,2.36-1.34,3.56-2a1.44,1.44,0,0,0,.76-1,27.45,27.45,0,0,1,1-3,2.46,2.46,0,0,0-.35-2.61c-0.61-.81-1.28-1.59-2-2.33A2.25,2.25,0,0,0,1074,480.29Zm18.45,8.37-0.11,0,0-.27a12.66,12.66,0,0,0-2.78-6.1,6.33,6.33,0,0,0-2.54-2,0.8,0.8,0,0,0-1.1.16,23.13,23.13,0,0,0-1.6,2.43,2.54,2.54,0,0,0-.24,1.61,31.85,31.85,0,0,0,1.19,3.81,3.09,3.09,0,0,0,1,1.48c1.22,0.81,2.55,1.45,3.82,2.17a0.52,0.52,0,0,0,.8-0.21,13.92,13.92,0,0,0,.89-1.28C1092,489.88,1092.19,489.26,1092.43,488.66Zm-13.55-5.14a16.12,16.12,0,0,1,2.43-.15,3.19,3.19,0,0,0,3.38-2l0.06-.12c0.93-1.63.76-2.26-.9-3.19l-0.48-.25a13.38,13.38,0,0,0-4.67-1.07,3.79,3.79,0,0,0-3.46,1.89,1.49,1.49,0,0,0,.15,2.1c0.59,0.66,1.22,1.29,1.78,2A1.67,1.67,0,0,0,1078.88,483.52Zm-12.22,15.42c-0.13,1.39,0,2.2.6,2.79a12.61,12.61,0,0,0,5,3.41,6.22,6.22,0,0,0,2.31.12,1.1,1.1,0,0,0,.7-0.68,3.94,3.94,0,0,0-1.19-3.17c-1.19-.86-2.39-1.71-3.53-2.63a2.18,2.18,0,0,0-2.27-.43Zm-3.3-8.14a1,1,0,0,0,0,.4c0.14,0.29.33,0.55,0.49,0.83a3.94,3.94,0,0,0,.71-0.51c0.5-.56,1-1.14,1.42-1.73a3.81,3.81,0,0,0,.8-1.23,25,25,0,0,1,2.16-5.83,1.16,1.16,0,0,0-.55-1.38,0.86,0.86,0,0,0-1.25.27c-0.3.37-.56,0.77-0.83,1.16A15.08,15.08,0,0,0,1063.37,490.8Zm18.82,14.08a1.15,1.15,0,0,0,1.67.33,14.36,14.36,0,0,0,6.85-5.76,2.33,2.33,0,0,0,.29-0.68c0.14-.64-0.17-0.91-0.8-0.7a2.43,2.43,0,0,0-.59.33c-1.24.87-2.43,1.83-3.73,2.59A11.57,11.57,0,0,0,1082.18,504.87Zm-0.78,1.12c-1.25-.71-5.1-0.82-6.4,0C1077.18,506.83,1079.29,506.42,1081.41,506Zm-15.62-6,0.35-.12c-0.11-.42-0.19-0.86-0.34-1.27-0.54-1.48-1.11-2.95-1.63-4.43a11,11,0,0,1-.3-1.34h-0.21a2.46,2.46,0,0,0-.17.85,13.11,13.11,0,0,0,.58,2.56C1064.56,497.47,1065.2,498.7,1065.79,499.95Z" transform="translate(-1010.9 -444.33)"/></g></g></svg>